<?xml version="1.0" encoding="UTF-8" standalone="no"?>
<svg
   xmlns:dc="http://purl.org/dc/elements/1.1/"
   xmlns:cc="http://creativecommons.org/ns#"
   xmlns:rdf="http://www.w3.org/1999/02/22-rdf-syntax-ns#"
   xmlns:svg="http://www.w3.org/2000/svg"
   xmlns="http://www.w3.org/2000/svg"
   xmlns:sodipodi="http://sodipodi.sourceforge.net/DTD/sodipodi-0.dtd"
   xmlns:inkscape="http://www.inkscape.org/namespaces/inkscape"
   inkscape:version="1.0beta1 (32d4812, 2019-09-19)"
   sodipodi:docname="document-6.svg"
   id="svg34"
   viewBox="-500 -500 16775.211 16775.211"
   height="16775.211"
   width="16775.211"
   version="1.1">
  <metadata
     id="metadata40">
    <rdf:RDF>
      <cc:Work
         rdf:about="">
        <dc:format>image/svg+xml</dc:format>
        <dc:type
           rdf:resource="http://purl.org/dc/dcmitype/StillImage" />
        <dc:title></dc:title>
      </cc:Work>
    </rdf:RDF>
  </metadata>
  <defs
     id="defs38" />
  <sodipodi:namedview
     fit-margin-bottom="1000"
     fit-margin-right="1000"
     fit-margin-left="1000"
     fit-margin-top="1000"
     inkscape:guide-bbox="true"
     showguides="true"
     inkscape:current-layer="g1930"
     inkscape:window-maximized="0"
     inkscape:window-y="23"
     inkscape:window-x="0"
     inkscape:cy="7944.162"
     inkscape:cx="16323.5"
     inkscape:zoom="0.027539518"
     showgrid="false"
     id="namedview36"
     inkscape:window-height="805"
     inkscape:window-width="1837"
     inkscape:pageshadow="2"
     inkscape:pageopacity="0"
     guidetolerance="10"
     gridtolerance="10"
     objecttolerance="10"
     borderopacity="1"
     inkscape:document-rotation="0"
     bordercolor="#666666"
     pagecolor="#ffffff">
    <sodipodi:guide
       inkscape:color="rgb(0,0,255)"
       inkscape:locked="false"
       inkscape:label=""
       id="guide454"
       orientation="0,1"
       position="14407.605,14580.645" />
    <sodipodi:guide
       inkscape:color="rgb(0,0,255)"
       inkscape:locked="false"
       inkscape:label=""
       id="guide558"
       orientation="0,1"
       position="14407.605,13360.645" />
    <sodipodi:guide
       inkscape:color="rgb(0,0,255)"
       inkscape:locked="false"
       inkscape:label=""
       id="guide585"
       orientation="0,1"
       position="14407.605,12140.645" />
    <sodipodi:guide
       inkscape:color="rgb(0,0,255)"
       inkscape:locked="false"
       inkscape:label=""
       id="guide587"
       orientation="0,1"
       position="14407.605,10920.645" />
    <sodipodi:guide
       inkscape:color="rgb(0,0,255)"
       inkscape:locked="false"
       inkscape:label=""
       id="guide589"
       orientation="0,1"
       position="14407.605,7260.645" />
    <sodipodi:guide
       inkscape:color="rgb(0,0,255)"
       inkscape:locked="false"
       inkscape:label=""
       id="guide591"
       orientation="0,1"
       position="14407.605,4820.645" />
    <sodipodi:guide
       inkscape:color="rgb(0,0,255)"
       inkscape:locked="false"
       inkscape:label=""
       id="guide593"
       orientation="0,1"
       position="14407.605,6040.645" />
    <sodipodi:guide
       inkscape:color="rgb(0,0,255)"
       inkscape:locked="false"
       inkscape:label=""
       id="guide595"
       orientation="0,1"
       position="14407.605,8480.645" />
    <sodipodi:guide
       inkscape:color="rgb(0,0,255)"
       inkscape:locked="false"
       inkscape:label=""
       id="guide597"
       orientation="0,1"
       position="14407.605,9700.645" />
    <sodipodi:guide
       inkscape:color="rgb(0,0,255)"
       inkscape:locked="false"
       inkscape:label=""
       id="guide599"
       orientation="0,1"
       position="14407.605,3600.645" />
    <sodipodi:guide
       inkscape:color="rgb(0,0,255)"
       inkscape:locked="false"
       inkscape:label=""
       id="guide601"
       orientation="0,1"
       position="14407.605,2380.645" />
  </sodipodi:namedview>
  <circle
     r="7386.2803"
     cy="7667.605"
     cx="7887.605"
     id="path629"
     style="fill:#ffbb00;stroke:#8f3507;stroke-width:2.64973;stroke-linecap:round;stroke-linejoin:round;paint-order:markers stroke fill" />
  <g
     id="g833">
    <path
       style="opacity:1;stop-opacity:1"
       inkscape:connector-curvature="0"
       d="m 5427.6055,1694.5659 h 280 v -140 h -80 v -40 -260 -220 l -160,40 v 258 c -14,2 -26,2 -40,2 -110,0 -200,80 -200,180 0,120 90,180 200,180 z m 0,-140 c -22,0 -40,-18 -40,-40 0,-22 18,-40 40,-40 22,0 40,18 40,40 0,22 -18,40 -40,40 z"
       id="path10" />
    <path
       style="opacity:1;stop-opacity:1"
       inkscape:connector-curvature="0"
       d="m 5667.6055,1694.5659 h 280 v -140 c -44,0 -80,-36 -80,-80 v -900 l -160,40 v 940 h -40 z"
       id="path12" />
    <path
       style="opacity:1;stop-opacity:1"
       inkscape:connector-curvature="0"
       d="m 5787.6055,1694.5659 h 3864 c 46,0 76,-30 76,-80 v -1040 l -160,40 v 940 h -3780 z"
       id="path30"
       sodipodi:nodetypes="cssccccc" />
    <path
       style="opacity:1;stop-opacity:1"
       inkscape:connector-curvature="0"
       d="m 9967.605,1414.5659 v -840 l -159.9995,40 v 820 c 10,176 157.9995,260 315.9995,260 120,0 246,-48 324,-140 -56,24 -144,44 -230,44 -128,0 -250,-44 -250,-184 z"
       id="path32" />
  </g>
  <path
     d=""
     id="path14-0"
     inkscape:connector-curvature="0"
     style="opacity:1;stop-opacity:1" />
  <path
     d=""
     id="path18-2"
     inkscape:connector-curvature="0"
     style="opacity:1;stop-opacity:1" />
  <path
     d=""
     id="path26-2"
     inkscape:connector-curvature="0"
     style="opacity:1;stop-opacity:1" />
  <path
     d=""
     id="path36"
     inkscape:connector-curvature="0"
     style="opacity:1;stop-opacity:1" />
  <path
     d=""
     id="path42"
     inkscape:connector-curvature="0"
     style="opacity:1;stop-opacity:1" />
  <path
     d=""
     id="path48"
     inkscape:connector-curvature="0"
     style="opacity:1;stop-opacity:1" />
  <path
     d=""
     id="path56"
     inkscape:connector-curvature="0"
     style="opacity:1;stop-opacity:1" />
  <g
     transform="translate(-120)"
     id="g853">
    <path
       style="opacity:1;stop-opacity:1"
       inkscape:connector-curvature="0"
       id="path10-8"
       d="m 2530.6055,2914.5659 h 600 c 130,0 200,-60 200,-180 0,-100 -90,-180 -200,-180 -110,0 -200,80 -200,180 0,14 2,28 4,40 h -204 c -40,0 -74,-10 -96,-40 z m 600,-140 c -22,0 -40,-18 -40,-40 0,-22 18,-40 40,-40 22,0 40,18 40,40 0,22 -18,40 -40,40 z" />
    <path
       style="opacity:1;stop-opacity:1"
       inkscape:connector-curvature="0"
       id="path12-3"
       d="m 3670.6055,2914.5659 h 62 c 2,12 2,24 2,36 0,14 0,30 -4,44 h -220 c -44,0 -76,-14 -96,-40 l -104,180 h 486 c 62,0 80,-28 90,-76 8,-34 10,-78 10,-130 v -14 h 74 v -140 h -86 c -2,-14 -6,-28 -8,-42 -30,-112 -106,-178 -206,-178 -110,0 -200,80 -200,180 0,100 90,180 200,180 z m 0,-140 c -22,0 -40,-18 -40,-40 0,-22 18,-40 40,-40 22,0 40,18 40,40 0,22 -18,40 -40,40 z" />
    <path
       style="opacity:1;stop-opacity:1"
       inkscape:connector-curvature="0"
       id="path16-6"
       d="m 3930.6055,2914.5659 h 280 v -140 c -44,0 -80,-36 -80,-80 v -240 l -160,40 v 280 h -40 z" />
    <path
       style="opacity:1;stop-opacity:1"
       inkscape:connector-curvature="0"
       id="path20-2"
       d="m 4170.6055,2914.5659 h 536 v -140 h -84 v -274 c 0,-114 -92,-206 -206,-206 -114,0 -208,92 -208,206 0,56 30,108 68,146 l 124,128 h -230 z m 292,-306 -80,-82 c -10,-10 -18,-24 -18,-40 0,-28 16,-52 46,-52 28,0 52,24 52,52 z" />
    <path
       style="opacity:1;stop-opacity:1"
       inkscape:connector-curvature="0"
       id="path22-5"
       d="m 4666.6055,2914.5659 h 124 c 46,0 76,-30 76,-80 v -1040 l -160,40 v 940 h -40 z" />
    <path
       style="opacity:1;stop-opacity:1"
       inkscape:connector-curvature="0"
       id="path24-2"
       d="m 5106.6055,2634.5659 v -840 l -160,40 v 820 c 10,176 158,260 316,260 120,0 246,-48 324,-140 -56,24 -144,44 -230,44 -128,0 -250,-44 -250,-184 z" />
    <path
       style="opacity:1;stop-opacity:1"
       inkscape:connector-curvature="0"
       id="path28-7"
       d="m 5928.6055,3134.5659 h 92 c 250,0 766,-72 1092,-108 l 18,-32 h -1146 c -64,0 -108,-6 -154,-52 l -62,-62 c -34,-34 -16,-128 12,-100 l 104,104 c 20,20 38,30 62,30 h 134 v -140 h -62 c -18,0 -28,-10 -36,-18 l -128,-128 c -100,-100 -188,198 -188,296 0,170 114,208 262,210 z" />
    <path
       style="opacity:1;stop-opacity:1"
       inkscape:connector-curvature="0"
       id="path30-1"
       d="m 5960.6055,2914.5659 h 1098 l 82,-140 h -694 c -116,0 -238,-130 -360,-280 l -86,140 c 38,56 94,114 124,140 h -164 z"
       sodipodi:nodetypes="cccsccccc" />
    <path
       style="opacity:1;stop-opacity:1"
       inkscape:connector-curvature="0"
       id="path32-5"
       d="m 6180.6055,2690.5659 c 114,0 200,-60 200,-140 v -760 l -160,40 v 720 c 0,38 0,90 -40,90 z" />
    <path
       style="opacity:1;stop-opacity:1"
       inkscape:connector-curvature="0"
       id="path34"
       d="m 7380.6055,2634.5659 v -840 l -160,40 v 820 c 10,176 158,260 316,260 120,0 246,-48 324,-140 -56,24 -144,44 -230,44 -128,0 -250,-44 -250,-184 z" />
    <path
       style="opacity:1;stop-opacity:1"
       inkscape:connector-curvature="0"
       id="path38"
       d="m 8200.6055,2914.5659 h 62 c 2,12 2,24 2,36 0,14 0,30 -4,44 h -220 c -44,0 -76,-14 -96,-40 l -104,180 h 486 c 62,0 80,-28 90,-76 8,-34 10,-78 10,-130 v -14 h 74 v -140 h -86 c -2,-14 -6,-28 -8,-42 -30,-112 -106,-178 -206,-178 -110,0 -200,80 -200,180 0,100 90,180 200,180 z m 0,-140 c -22,0 -40,-18 -40,-40 0,-22 18,-40 40,-40 22,0 40,18 40,40 0,22 -18,40 -40,40 z" />
    <path
       style="opacity:1;stop-opacity:1"
       inkscape:connector-curvature="0"
       id="path40"
       d="m 8460.6055,2914.5659 h 398 c 12,0 42,0 42,-22 v -18 -470 -70 l -160,40 v 100 c -130,0 -244,64 -244,208 0,36 8,68 20,92 h -56 z m 200,-228 c 4,-40 38,-72 80,-72 -4,40 -38,72 -80,72 z m 80,88 c -42,0 -76,-32 -80,-72 42,0 76,32 80,72 z" />
    <path
       style="opacity:1;stop-opacity:1"
       inkscape:connector-curvature="0"
       id="path44"
       d="m 8980.6055,2914.5659 h 640 l -228,-394 c 130,-218 208,-486 232,-726 l -184,80 c -8,202 -42,370 -112,532 l -308,-532 -120,114 338,588 c -66,108 -150,218 -258,338 z m 312,-246 62,106 h -162 c 36,-32 68,-68 100,-106 z" />
    <path
       style="opacity:1;stop-opacity:1"
       inkscape:connector-curvature="0"
       id="path46"
       d="m 9860.6055,2634.5659 v -840 l -160,40 v 820 c 10,176 158,260 315.9995,260 120,0 246,-48 324,-140 -56,24 -144,44 -230,44 -127.9995,0 -249.9995,-44 -249.9995,-184 z" />
    <path
       style="opacity:1;stop-opacity:1"
       inkscape:connector-curvature="0"
       id="path50"
       d="m 10620.605,2914.5659 h 280 v -140 h -80 v -40 -260 -220 l -160,40 v 258 c -14,2 -26,2 -40,2 -110,0 -200,80 -200,180 0,120 90,180 200,180 z m 0,-140 c -22,0 -40,-18 -40,-40 0,-22 18,-40 40,-40 22,0 40,18 40,40 0,22 -18,40 -40,40 z" />
    <path
       style="opacity:1;stop-opacity:1"
       inkscape:connector-curvature="0"
       id="path52"
       d="m 10860.605,2914.5659 h 124 c 46,0 76,-30 76,-80 v -1040 l -160,40 v 940 h -40 z" />
    <path
       style="opacity:1;stop-opacity:1"
       inkscape:connector-curvature="0"
       id="path54"
       d="m 11300.605,2634.5659 v -840 l -160,40 v 820 c 10,176 158,260 316,260 120,0 246,-48 324,-140 -56,24 -144,44 -230,44 -128,0 -250,-44 -250,-184 z" />
    <path
       style="opacity:1;stop-opacity:1"
       inkscape:connector-curvature="0"
       id="path58"
       d="m 11860.605,2914.5659 h 640 l -228,-394 c 130,-218 208,-486 232,-726 l -184,80 c -8,202 -42,370 -112,532 l -308,-532 -120,114 338,588 c -66,108 -150,218 -258,338 z m 312,-246 62,106 h -162 c 36,-32 68,-68 100,-106 z" />
  </g>
  <path
     inkscape:connector-curvature="0"
     d=""
     id="path12-2"
     style="opacity:1;stop-opacity:1" />
  <path
     inkscape:connector-curvature="0"
     d=""
     id="path16-0"
     style="opacity:1;stop-opacity:1" />
  <path
     inkscape:connector-curvature="0"
     d=""
     id="path22-7"
     style="opacity:1;stop-opacity:1" />
  <path
     inkscape:connector-curvature="0"
     d=""
     id="path28-2"
     style="opacity:1;stop-opacity:1" />
  <path
     inkscape:connector-curvature="0"
     d=""
     id="path34-0"
     style="opacity:1;stop-opacity:1" />
  <path
     inkscape:connector-curvature="0"
     d=""
     id="path38-8"
     style="opacity:1;stop-opacity:1" />
  <path
     inkscape:connector-curvature="0"
     d=""
     id="path44-0"
     style="opacity:1;stop-opacity:1" />
  <path
     inkscape:connector-curvature="0"
     d=""
     id="path46-0"
     style="opacity:1;stop-opacity:1" />
  <path
     inkscape:connector-curvature="0"
     d=""
     id="path50-0"
     style="opacity:1;stop-opacity:1" />
  <path
     inkscape:connector-curvature="0"
     d=""
     id="path56-6"
     style="opacity:1;stop-opacity:1" />
  <path
     inkscape:connector-curvature="0"
     d=""
     id="path60"
     style="opacity:1;stop-opacity:1" />
  <path
     inkscape:connector-curvature="0"
     d=""
     id="path64"
     style="opacity:1;stop-opacity:1" />
  <path
     inkscape:connector-curvature="0"
     d=""
     id="path68"
     style="opacity:1;stop-opacity:1" />
  <path
     inkscape:connector-curvature="0"
     d=""
     id="path72"
     style="opacity:1;stop-opacity:1" />
  <path
     inkscape:connector-curvature="0"
     d=""
     id="path76"
     style="opacity:1;stop-opacity:1" />
  <path
     inkscape:connector-curvature="0"
     d=""
     id="path12-1" />
  <g
     id="g974">
    <path
       style="opacity:1;stop-opacity:1"
       id="path32-9"
       d="m 6670.6055,4134.566 h 62 c 2,12 2,24 2,36 0,14 0,30 -4,44 h -220 c -44,0 -76,-14 -96,-40 l -104,180 h 486 c 62,0 80,-28 90,-76 8,-34 10,-78 10,-130 v -14 h 74 v -140 h -86 c -2,-14 -6,-28 -8,-42 -30,-112 -106,-178 -206,-178 -110,0 -200,80 -200,180 0,100 90,180 200,180 z m 0,-140 c -22,0 -40,-18 -40,-40 0,-22 18,-40 40,-40 22,0 40,18 40,40 0,22 -18,40 -40,40 z"
       inkscape:connector-curvature="0" />
    <path
       style="opacity:1;stop-opacity:1"
       id="path18-7"
       d="m 4250.6055,3974.566 v -960 l -160,40 v 1000 c 0,50 30,80 76,80 h 164 v -140 h -60 c -14,0 -20,-6 -20,-20 z"
       inkscape:connector-curvature="0" />
    <path
       style="opacity:1;stop-opacity:1"
       id="path20-0"
       d="m 4290.6055,4134.566 h 240 c 130,0 200,-60 200,-180 0,-100 -90,-180 -200,-180 -110,0 -200,80 -200,180 0,14 2,28 4,40 h -44 z m 240,-140 c -22,0 -40,-18 -40,-40 0,-22 18,-40 40,-40 22,0 40,18 40,40 0,22 -18,40 -40,40 z"
       inkscape:connector-curvature="0" />
    <path
       style="opacity:1;stop-opacity:1"
       id="path24-6"
       d="m 5010.6055,4134.566 h 280 v -140 h -80 v -40 -260 c -40,70 -120,80 -200,80 -110,0 -200,80 -200,180 0,120 90,180 200,180 z m 0,-140 c -22,0 -40,-18 -40,-40 0,-22 18,-40 40,-40 22,0 40,18 40,40 0,22 -18,40 -40,40 z"
       inkscape:connector-curvature="0" />
    <path
       style="opacity:1;stop-opacity:1"
       id="path26-8"
       d="m 5250.6055,4134.566 h 124 c 46,0 76,-30 76,-80 v -1040 l -160,40 v 940 h -40 z"
       inkscape:connector-curvature="0" />
    <path
       style="opacity:1;stop-opacity:1"
       id="path30-3"
       d="m 5530.6055,4134.566 h 600 c 130,0 200,-60 200,-180 0,-100 -90,-180 -200,-180 -110,0 -200,80 -200,180 0,14 2,28 4,40 h -204 c -40,0 -74,-10 -96,-40 z m 600,-140 c -22,0 -40,-18 -40,-40 0,-22 18,-40 40,-40 22,0 40,18 40,40 0,22 -18,40 -40,40 z"
       inkscape:connector-curvature="0" />
    <path
       style="opacity:1;stop-opacity:1"
       id="path36-3"
       d="m 6930.6055,4134.566 h 158 c 12,0 42,0 42,-22 v -438 l -160,40 v 280 h -40 z"
       inkscape:connector-curvature="0" />
    <path
       style="opacity:1;stop-opacity:1"
       id="path40-3"
       d="m 7290.6055,4134.566 h 430 v -200 c 0,-58 -26,-120 -86,-164 l -184,-132 v -624 l -160,40 v 468 l -426,-308 -58,154 484,350 z m 160,-300 92,66 c 8,8 18,18 18,34 v 60 h -110 z"
       inkscape:connector-curvature="0" />
    <path
       style="opacity:1;stop-opacity:1"
       id="path42-1"
       d="m 7820.6055,4134.566 h 486 c 62,0 80,-28 90,-76 8,-34 10,-78 10,-130 0,-72 -8,-146 -20,-196 -30,-112 -106,-178 -206,-178 -110,0 -200,80 -200,180 0,100 90,180 200,180 20,0 40,-2 60,-8 4,14 4,30 4,44 0,14 0,30 -4,44 h -220 c -44,0 -76,-14 -96,-40 z m 360,-360 c -22,0 -40,-18 -40,-40 0,-22 18,-40 40,-40 22,0 40,18 40,40 0,22 -18,40 -40,40 z"
       inkscape:connector-curvature="0" />
    <path
       style="opacity:1;stop-opacity:1"
       id="path48-8"
       d="m 8700.6055,4134.566 h 280 v -140 h -80 v -40 -260 c -40,70 -120,80 -200,80 -110,0 -200,80 -200,180 0,120 90,180 200,180 z m 0,-140 c -22,0 -40,-18 -40,-40 0,-22 18,-40 40,-40 22,0 40,18 40,40 0,22 -18,40 -40,40 z"
       inkscape:connector-curvature="0" />
    <path
       style="opacity:1;stop-opacity:1"
       id="path52-4"
       d="m 8940.6055,4134.566 h 280 v -140 c -44,0 -80,-36 -80,-80 v -320 l -160,40 v 360 h -40 z"
       inkscape:connector-curvature="0" />
    <path
       style="opacity:1;stop-opacity:1"
       id="path54-7"
       d="m 8940.6055,4134.566 h 1018 c 12,0 41.9995,0 41.9995,-22 v -518 l -159.9995,40 v 360 c -44,0 -80,-36 -80,-80 v -260 l -160,40 v 300 c -44,0 -80,-36 -80,-80 v -200 l -160,40 v 240 h -420 z"
       inkscape:connector-curvature="0"
       sodipodi:nodetypes="csscccscccsccccc" />
    <path
       style="opacity:1;stop-opacity:1"
       id="path58-1"
       d="m 10280.605,4134.566 c 130,0 200,-60 200,-180 v -260 c -40,70 -120,80 -200,80 -110,0 -200,80 -200,180 0,120 90,180 200,180 z m 0,-140 c -22,0 -40,-18 -40,-40 0,-22 18,-40 40,-40 22,0 40,18 40,40 0,22 -18,40 -40,40 z"
       inkscape:connector-curvature="0" />
    <path
       style="opacity:1;stop-opacity:1"
       id="path62"
       d="m 10520.605,4134.566 h 1200 v -140 h -86 c -30,-190 -146,-220 -222,-220 h -652 l 54,-140 h -6 l -160,280 h 744 c 44,0 80,36 80,80 h -872 z"
       inkscape:connector-curvature="0" />
    <path
       style="opacity:1;stop-opacity:1"
       id="path66"
       d="m 11640.605,4134.566 h 678 l 82,-140 h -274 c -116,0 -238,-130 -360,-280 l -86,140 c 38,56 94,114 124,140 h -164 z"
       inkscape:connector-curvature="0" />
    <path
       style="opacity:1;stop-opacity:1"
       id="path70"
       d="m 12640.605,3974.566 v -960 l -160,40 v 1000 c 0,50 30,80 76,80 h 164 v -140 h -60 c -14,0 -20,-6 -20,-20 z"
       inkscape:connector-curvature="0" />
    <path
       style="opacity:1;stop-opacity:1"
       id="path74"
       d="m 12680.605,4134.566 h 158 c 12,0 42,0 42,-22 v -438 l -160,40 v 280 h -40 z"
       inkscape:connector-curvature="0" />
    <path
       style="opacity:1;stop-opacity:1"
       id="path78"
       d="m 12960.605,4134.566 h 640 l -228,-394 c 130,-218 208,-486 232,-726 l -184,80 c -8,202 -42,370 -112,532 l -308,-532 -120,114 338,588 c -66,108 -150,218 -258,338 z m 312,-246 62,106 h -162 c 36,-32 68,-68 100,-106 z"
       inkscape:connector-curvature="0" />
    <path
       style="opacity:1;stop-opacity:1"
       id="path10-1"
       d="m 1887.237,4134.566 h 2046 l 82,-140 h -2072 c -64,0 -108,-6 -154,-52 l -62,-62 c -34,-34 -16,-128 12,-100 l 104,104 c 20,20 38,30 62,30 h 134 v -140 h -62 c -18,0 -28,-10 -36,-18 l -128,-128 c -100,-100 -188,198 -188,296 0,170 114,208 262,210 z"
       inkscape:connector-curvature="0"
       sodipodi:nodetypes="cccssssssccssssc" />
    <path
       style="opacity:1;stop-opacity:1"
       id="path14-3"
       d="m 1899.237,3914.566 h 392 c 48,0 74,-74 74,-204 0,-154 -38,-376 -224,-376 -112,0 -202,80 -202,180 0,100 90,180 200,180 20,0 40,-2 60,-8 4,14 4,30 4,44 0,14 0,30 -4,44 h -300 z m 240,-360 c -22,0 -40,-18 -40,-40 0,-22 18,-40 40,-40 22,0 40,18 40,40 0,22 -18,40 -40,40 z"
       inkscape:connector-curvature="0"
       sodipodi:nodetypes="cssssscscccsssss" />
  </g>
  <path
     inkscape:connector-curvature="0"
     d=""
     id="path12-4"
     style="opacity:1;stop-opacity:1" />
  <path
     inkscape:connector-curvature="0"
     d=""
     id="path16"
     style="opacity:1;stop-opacity:1" />
  <path
     inkscape:connector-curvature="0"
     d=""
     id="path18"
     style="opacity:1;stop-opacity:1" />
  <path
     inkscape:connector-curvature="0"
     d=""
     id="path24"
     style="opacity:1;stop-opacity:1" />
  <path
     inkscape:connector-curvature="0"
     d=""
     id="path26"
     style="opacity:1;stop-opacity:1" />
  <path
     inkscape:connector-curvature="0"
     d=""
     id="path38-0"
     style="opacity:1;stop-opacity:1" />
  <path
     inkscape:connector-curvature="0"
     d=""
     id="path40-2"
     style="opacity:1;stop-opacity:1" />
  <g
     id="g1164">
    <path
       style="opacity:1;stop-opacity:1"
       id="path10-0"
       d="m 1508.4282,5074.566 v -840 l -160,40 v 820 c 10,176 158,260 316,260 120,0 246,-48 324,-140 -56,24 -144,44 -230,44 -128,0 -253.3324,-44.0397 -250,-184 z"
       inkscape:connector-curvature="0"
       sodipodi:nodetypes="scccscss" />
    <path
       style="opacity:1;stop-opacity:1"
       id="path14"
       d="m 2028.4282,5354.566 h 1438 c 12,0 42,0 42,-42 0,-278 -140,-318 -228,-318 h -1012 l 54,-140 h -6 l -160,280 h 1104 c 44,0 80,36 80,80 h -1232 z"
       inkscape:connector-curvature="0"
       sodipodi:nodetypes="csssccccsccc" />
    <path
       style="opacity:1;stop-opacity:1"
       id="path20"
       d="m 3328.4282,5854.566 h 484 c 46,0 73.6217,-30.0566 76,-80 v -420 h 80 v -140 h -100 l -140,-140 -80,140 80,80 v 420 h -200 c -40,0 -74,-10 -96,-40 z"
       inkscape:connector-curvature="0"
       sodipodi:nodetypes="cssccccccccscc" />
    <path
       style="opacity:1;stop-opacity:1"
       id="path22"
       d="m 3928.4282,5354.566 h 240 c 130,0 200,-60 200,-180 0,-100 -90,-180 -200,-180 -110,0 -200,80 -200,180 0,14 2,28 4,40 h -44 z m 240,-140 c -22,0 -40,-18 -40,-40 0,-22 18,-40 40,-40 22,0 40,18 40,40 0,22 -18,40 -40,40 z"
       inkscape:connector-curvature="0"
       sodipodi:nodetypes="csssscccsssss" />
    <path
       style="opacity:1;stop-opacity:1"
       id="path28"
       d="m 4188.4282,5854.566 h 484 c 46,0 73.6217,-30.0566 76,-80 v -420 h 2718 c 12,0 42,0 42,-42 0,-278 -140,-318 -228,-318 h -2532 l -160,-160 -80,140 80,80 v 660 h -200 c -40,0 -74,-10 -96,-40 z m 560,-640 v -80 h 2512 c 44,0 80,36 80,80 z"
       inkscape:connector-curvature="0"
       sodipodi:nodetypes="csscssscccccsccccscc" />
    <path
       style="opacity:1;stop-opacity:1"
       id="path30-35"
       d="m 7542.4282,5574.566 h 678 c 12,0 42,0 42,-42 0,-278 -138,-364 -432,-458 l -162,280 h 346 c 44,0 80,36 80,80 h -472 z"
       inkscape:connector-curvature="0" />
    <path
       style="opacity:1;stop-opacity:1"
       id="path32-1"
       d="m 8392.4282,5354.566 h 430 v -200 c 0,-58 -26,-120 -86,-164 l -184,-132 v -624 l -160,40 v 468 l -426,-308 -58,154 484,350 z m 160,-300 92,66 c 8,8 18,18 18,34 v 60 h -110 z"
       inkscape:connector-curvature="0" />
    <path
       style="opacity:1;stop-opacity:1"
       id="path34-9"
       d="m 9062.4282,5074.566 v -840 l -160,40 v 820 c 10,176 158,260 315.9998,260 120,0 246,-48 324,-140 -56,24 -144,44 -230,44 -128,0 -249.9998,-44 -249.9998,-184 z"
       inkscape:connector-curvature="0" />
    <path
       style="opacity:1;stop-opacity:1"
       id="path36-5"
       d="m 9507.4206,5574.566 h 486.0004 c 62,0 80,-28 90,-76 8,-34 10,-78 10,-130 0,-72 -8,-146 -20,-196 -30,-112 -106,-178 -206,-178 -110.0004,0 -200.0004,80 -200.0004,180 0,100 90,180 200.0004,180 20,0 40,-2 60,-8 4,14 4,30 4,44 0,14 0,30 -4,44 h -220.0004 c -44,0 -76,-14 -96,-40 z m 360.0004,-360 c -22,0 -40,-18 -40,-40 0,-22 18,-40 40,-40 22,0 40,18 40,40 0,22 -18,40 -40,40 z"
       inkscape:connector-curvature="0" />
    <path
       style="opacity:1;stop-opacity:1"
       id="path42-5"
       d="m 10222.428,5354.566 h 1178 c 12,0 42,0 42,-22 v -438 l -160,40 v 280 h -860 c -44,0 -76,-14 -96,-40 z"
       inkscape:connector-curvature="0"
       sodipodi:nodetypes="csscccscc" />
    <path
       style="opacity:1;stop-opacity:1"
       id="path44-6"
       d="m 11782.428,5354.566 h 62 c 2,12 2,24 2,36 0,14 0,30 -4,44 h -220 c -44,0 -76,-14 -96,-40 l -104,180 h 486 c 62,0 80,-28 90,-76 8,-34 10,-78 10,-130 v -14 h 74 v -140 h -86 c -2,-14 -6,-28 -8,-42 -30,-112 -106,-178 -206,-178 -110,0 -200,80 -200,180 0,100 90,180 200,180 z m 0,-140 c -22,0 -40,-18 -40,-40 0,-22 18,-40 40,-40 22,0 40,18 40,40 0,22 -18,40 -40,40 z"
       inkscape:connector-curvature="0" />
    <path
       style="opacity:1;stop-opacity:1"
       id="path46-7"
       d="m 12002.428,5354.566 h 520 v -140 h -82 c 0,-12 2,-26 2,-40 0,-100 -90,-180 -200,-180 -110,0 -200,80 -200,180 0,14 2,28 4,40 h -44 z m 240,-140 c -22,0 -40,-18 -40,-40 0,-22 18,-40 40,-40 22,0 40,18 40,40 0,22 -18,40 -40,40 z"
       inkscape:connector-curvature="0" />
    <path
       style="opacity:1;stop-opacity:1"
       id="path48-7"
       d="m 12462.428,5354.566 h 1500 v -140 h -80 l -140,-140 -80,140 -140,-140 -80,140 -140,-140 -80,140 h -760 z"
       inkscape:connector-curvature="0"
       sodipodi:nodetypes="cccccccccccc" />
    <path
       style="opacity:1;stop-opacity:1"
       id="path50-2"
       d="m 13922.428,5354.566 h 124 c 46,0 76,-30 76,-80 v -1040 l -160,40 v 940 h -40 z"
       inkscape:connector-curvature="0" />
    <path
       style="opacity:1;stop-opacity:1"
       id="path52-41"
       d="m 14362.428,5074.566 v -840 l -160,40 v 820 c 10,176 158,260 316,260 120,0 246,-48 324,-140 -56,24 -144,44 -230,44 -128,0 -250,-44 -250,-184 z"
       inkscape:connector-curvature="0" />
  </g>
  <path
     inkscape:connector-curvature="0"
     d=""
     id="path16-2"
     style="opacity:1;stop-opacity:1" />
  <path
     inkscape:connector-curvature="0"
     d=""
     id="path20-08"
     style="opacity:1;stop-opacity:1" />
  <path
     inkscape:connector-curvature="0"
     d=""
     id="path24-65"
     style="opacity:1;stop-opacity:1" />
  <path
     inkscape:connector-curvature="0"
     d=""
     id="path28-9"
     style="opacity:1;stop-opacity:1" />
  <path
     inkscape:connector-curvature="0"
     d=""
     id="path32-13"
     style="opacity:1;stop-opacity:1" />
  <path
     inkscape:connector-curvature="0"
     d=""
     id="path36-4"
     style="opacity:1;stop-opacity:1" />
  <path
     inkscape:connector-curvature="0"
     d=""
     id="path40-5"
     style="opacity:1;stop-opacity:1" />
  <path
     inkscape:connector-curvature="0"
     d=""
     id="path44-2"
     style="opacity:1;stop-opacity:1" />
  <path
     inkscape:connector-curvature="0"
     d=""
     id="path48-5"
     style="opacity:1;stop-opacity:1" />
  <path
     inkscape:connector-curvature="0"
     d=""
     id="path54-3"
     style="opacity:1;stop-opacity:1" />
  <path
     inkscape:connector-curvature="0"
     d=""
     id="path60-9"
     style="opacity:1;stop-opacity:1" />
  <path
     inkscape:connector-curvature="0"
     d=""
     id="path64-5"
     style="opacity:1;stop-opacity:1" />
  <path
     inkscape:connector-curvature="0"
     d=""
     id="path70-5"
     style="opacity:1;stop-opacity:1" />
  <path
     inkscape:connector-curvature="0"
     d=""
     id="path74-2"
     style="opacity:1;stop-opacity:1" />
  <path
     inkscape:connector-curvature="0"
     d=""
     id="path78-2"
     style="opacity:1;stop-opacity:1" />
  <g
     id="g1575">
    <path
       style="opacity:1;stop-opacity:1"
       id="path62-0"
       d="m 10997.955,7074.566 c 86,0 178,-16 330,-86 -98,16 -168,24 -220,24 -166,0 -348,-72 -348,-252 0,-134 100,-186 180,-186 h 268 v -140 h -80 v -400 l -160,40 v 200 l -160,-160 -84,142 178,178 h -2 c -192,0 -300,156 -300,320 0,208 172,320 398,320 z"
       inkscape:connector-curvature="0" />
    <path
       style="opacity:1;stop-opacity:1"
       id="path10-5"
       d="m 575.955,6574.566 h 880 v -140 h -82 c 0,-12 2,-26 2,-40 0,-100 -90,-180 -200,-180 -110,0 -200,80 -200,180 0,14 2,28 4,40 h -204 c -40,0 -74,-10 -96,-40 z m 600,-140 c -22,0 -40,-18 -40,-40 0,-22 18,-40 40,-40 22,0 40,18 40,40 0,22 -18,40 -40,40 z"
       inkscape:connector-curvature="0" />
    <path
       style="opacity:1;stop-opacity:1"
       id="path12-7"
       d="m 1415.955,6574.566 h 280 v -140 c -44,0 -80,-36 -80,-80 v -900 l -160,40 v 940 h -40 z"
       inkscape:connector-curvature="0" />
    <path
       style="opacity:1;stop-opacity:1"
       id="path14-34"
       d="m 1655.955,6574.566 h 524 v -140 h -80 v -400 l -160,40 v 200 l -160,-160 -84,142 178,178 h -218 z"
       inkscape:connector-curvature="0" />
    <path
       style="opacity:1;stop-opacity:1"
       id="path18-0"
       d="m 2139.955,6574.566 h 158 c 12,0 42,0 42,-22 v -438 l -160,40 v 280 h -40 z"
       inkscape:connector-curvature="0" />
    <path
       style="opacity:1;stop-opacity:1"
       id="path22-9"
       d="m 2619.955,6574.566 h 280 v -140 h -80 v -40 -260 -220 l -160,40 v 258 c -14,2 -26,2 -40,2 -110,0 -200,80 -200,180 0,120 90,180 200,180 z m 0,-140 c -22,0 -40,-18 -40,-40 0,-22 18,-40 40,-40 22,0 40,18 40,40 0,22 -18,40 -40,40 z"
       inkscape:connector-curvature="0" />
    <path
       style="opacity:1;stop-opacity:1"
       id="path26-1"
       d="m 2859.955,6574.566 h 158 c 12,0 42,0 42,-22 v -438 l -160,40 v 280 h -40 z"
       inkscape:connector-curvature="0" />
    <path
       style="opacity:1;stop-opacity:1"
       id="path30-9"
       d="m 3139.955,6574.566 h 2158 c 12,0 42,0 42,-42 0,-278 -140,-318 -228,-318 h -1732 l 54,-140 h -6 l -160,280 h 1824 c 44,0 80,36 80,80 h -1952 z"
       inkscape:connector-curvature="0"
       sodipodi:nodetypes="csssccccsccc" />
    <path
       style="opacity:1;stop-opacity:1"
       id="path34-3"
       d="m 5579.955,6414.566 v -960 l -160,40 v 1000 c 0,50 30,80 76,80 h 164 v -140 h -60 c -14,0 -20,-6 -20,-20 z"
       inkscape:connector-curvature="0" />
    <path
       style="opacity:1;stop-opacity:1"
       id="path38-1"
       d="m 5619.955,6574.566 h 158 c 12,0 42,0 42,-22 v -438 l -160,40 v 280 h -40 z"
       inkscape:connector-curvature="0" />
    <path
       style="opacity:1;stop-opacity:1"
       id="path42-7"
       d="m 5899.955,6574.566 h 640 l -228,-394 c 130,-218 208,-486 232,-726 l -184,80 c -8,202 -42,370 -112,532 l -308,-532 -120,114 338,588 c -66,108 -150,218 -258,338 z m 312,-246 62,106 h -162 c 36,-32 68,-68 100,-106 z"
       inkscape:connector-curvature="0" />
    <path
       style="opacity:1;stop-opacity:1"
       id="path46-6"
       d="m 6779.955,6294.566 v -840 l -160,40 v 820 c 10,176 158,260 316,260 120,0 246,-48 324,-140 -56,24 -144,44 -230,44 -128,0 -250,-44 -250,-184 z"
       inkscape:connector-curvature="0" />
    <path
       style="opacity:1;stop-opacity:1"
       id="path50-7"
       d="m 7579.955,6574.566 c 130,0 200,-60 200,-180 v -260 c -40,70 -120,80 -200,80 -110,0 -200,80 -200,180 0,120 90,180 200,180 z m 0,-140 c -22,0 -40,-18 -40,-40 0,-22 18,-40 40,-40 22,0 40,18 40,40 0,22 -18,40 -40,40 z"
       inkscape:connector-curvature="0" />
    <path
       style="opacity:1;stop-opacity:1"
       id="path52-6"
       d="m 7839.955,6574.566 h 1860 v -140 h -86 c -30,-190 -146,-220 -222,-220 h -1312 l 54,-140 h -6 l -160,280 h 1404 c 44,0 80,36 80,80 h -1532 z"
       inkscape:connector-curvature="0"
       sodipodi:nodetypes="ccccsccccsccc" />
    <path
       style="opacity:1;stop-opacity:1"
       id="path56-4"
       d="m 9659.955,6574.566 h 280 v -140 c -44,0 -80,-36 -80,-80 v -240 l -160,40 v 280 h -40 z"
       inkscape:connector-curvature="0" />
    <path
       style="opacity:1;stop-opacity:1"
       id="path58-5"
       d="m 9899.955,6574.566 h 538 l 82,-140 h -278 c -64,0 -170,-94 -170,-156 0,-58 130,-134 170,-158 l -2,-6 c -106,52 -292,146 -292,242 0,26 12,52 44,78 h -92 z"
       inkscape:connector-curvature="0" />
    <path
       style="opacity:1;stop-opacity:1"
       id="path66-9"
       d="m 11167.955,6574.566 h 520 v -140 h -80 v -260 c 0,-100 -90,-180 -200,-180 -110,0 -200,80 -200,180 0,100 90,180 200,180 14,0 28,-2 40,-4 v 84 h -280 z m 240,-360 c -22,0 -40,-18 -40,-40 0,-22 18,-40 40,-40 22,0 40,18 40,40 0,22 -18,40 -40,40 z"
       inkscape:connector-curvature="0" />
    <path
       style="opacity:1;stop-opacity:1"
       id="path68-1"
       d="m 11647.955,6574.566 h 760 v -140 c -44,0 -80,-36 -80,-80 v -320 l -160,40 v 360 c -44,0 -80,-36 -80,-80 v -260 l -160,40 v 300 c -44,0 -80,-36 -80,-80 v -200 l -160,40 v 240 h -40 z"
       inkscape:connector-curvature="0" />
    <path
       style="opacity:1;stop-opacity:1"
       id="path72-5"
       d="m 12367.955,6574.566 h 158 c 12,0 42,0 42,-22 v -438 l -160,40 v 280 h -40 z"
       inkscape:connector-curvature="0" />
    <path
       style="opacity:1;stop-opacity:1"
       id="path80"
       d="m 13071.955,6574.566 h 1200 v -140 h -86 c -30,-190 -146,-220 -222,-220 h -652 l 54,-140 h -6 l -160,280 h 744 c 44,0 80,36 80,80 h -872 z"
       inkscape:connector-curvature="0" />
    <path
       style="opacity:1;stop-opacity:1"
       id="path82"
       d="m 14231.955,6574.566 h 124 c 46,0 76,-30 76,-80 v -1040 l -160,40 v 940 h -40 z"
       inkscape:connector-curvature="0" />
    <path
       style="opacity:1;stop-opacity:1"
       id="path84"
       d="m 14671.955,6294.566 v -840 l -160,40 v 820 c 10,176 158,260 316,260 120,0 246,-48 324,-140 -56,24 -144,44 -230,44 -128,0 -250,-44 -250,-184 z"
       inkscape:connector-curvature="0" />
    <path
       id="path10-9"
       d="m 12581.955,7014.566 h 404 c 46,0 76,-30 76,-80 v -192 c 0,-50 -26,-82 -96,-82 -64,0 -108,-12 -154,-58 l -62,-62 c -34,-34 -16,-128 12,-100 l 104,104 c 20,20 38,30 62,30 32,0 104,-20 124,-180 -6,30 -34,40 -52,40 -18,0 -28,-10 -36,-18 l -128,-128 c -100,-100 -188,198 -188,296 0,166 110,206 254,210 v 80 h -120 c -40,0 -74,-10 -96,-40 z"
       inkscape:connector-curvature="0" />
  </g>
  <path
     inkscape:connector-curvature="0"
     d=""
     id="path12-0" />
  <path
     inkscape:connector-curvature="0"
     d=""
     id="path14-32" />
  <path
     inkscape:connector-curvature="0"
     d=""
     id="path22-4" />
  <path
     inkscape:connector-curvature="0"
     d=""
     id="path28-0" />
  <path
     inkscape:connector-curvature="0"
     d=""
     id="path36-35" />
  <path
     inkscape:connector-curvature="0"
     d=""
     id="path42-4" />
  <path
     inkscape:connector-curvature="0"
     d=""
     id="path48-0" />
  <path
     inkscape:connector-curvature="0"
     d=""
     id="path52-47" />
  <path
     inkscape:connector-curvature="0"
     d=""
     id="path60-3" />
  <path
     inkscape:connector-curvature="0"
     d=""
     id="path66-7" />
  <path
     inkscape:connector-curvature="0"
     d=""
     id="path72-0" />
  <path
     inkscape:connector-curvature="0"
     d=""
     id="path76-0" />
  <path
     inkscape:connector-curvature="0"
     d=""
     id="path80-7" />
  <path
     inkscape:connector-curvature="0"
     d=""
     id="path82-5" />
  <path
     inkscape:connector-curvature="0"
     d=""
     id="path86" />
  <path
     inkscape:connector-curvature="0"
     d=""
     id="path90" />
  <path
     inkscape:connector-curvature="0"
     d=""
     id="path94" />
  <g
     id="g1904">
    <path
       style="opacity:1;stop-opacity:1"
       id="path16-1"
       d="m 523.605,8294.566 h 483.9999 c 46,0 76,-30 76,-80 v -540 l -160,-160 -80,140 80,80 v 420 h -200 c -40,0 -74,-10 -96,-40 z"
       inkscape:connector-curvature="0"
       sodipodi:nodetypes="csscccccscc" />
    <path
       style="opacity:1;stop-opacity:1"
       id="path18-1"
       d="m 1503.6049,7794.566 h 62 c 2,12 2,24 2,36 0,14 0,30 -4,44 h -220 c -44,0 -76,-14 -96,-40 l -104,180 h 486 c 62,0 80,-28 90,-76 8,-34 10,-78 10,-130 v -14 h 74 v -140 h -86 c -2,-14 -6,-28 -8,-42 -30,-112 -106,-178 -206,-178 -110,0 -200,80 -200,180 0,100 90,180 200,180 z m 0,-140 c -22,0 -40,-18 -40,-40 0,-22 18,-40 40,-40 22,0 40,18 40,40 0,22 -18,40 -40,40 z"
       inkscape:connector-curvature="0"
       sodipodi:nodetypes="scscsccscscccccssssssss" />
    <path
       style="opacity:1;stop-opacity:1"
       id="path20-3"
       d="m 1763.6049,7794.566 h 1740 v -140 h -86 c -30,-190 -146,-220 -222,-220 h -1232 v -760 l -160,40 v 940 h -40 z m 200,-140 v -80 h 1212 c 44,0 80,36 80,80 z"
       inkscape:connector-curvature="0"
       sodipodi:nodetypes="ccccsccccccccscc" />
    <path
       style="opacity:1;stop-opacity:1"
       id="path24-1"
       d="m 3463.6049,7794.566 h 280 v -140 c -44,0 -80,-36 -80,-80 v -240 l -160,40 v 280 h -40 z"
       inkscape:connector-curvature="0" />
    <path
       style="opacity:1;stop-opacity:1"
       id="path26-85"
       d="m 3703.6049,7794.566 h 678 l 82,-140 h -274 c -116,0 -238,-130 -360,-280 l -86,140 c 38,56 94,114 124,140 h -164 z"
       inkscape:connector-curvature="0" />
    <path
       style="opacity:1;stop-opacity:1"
       id="path30-0"
       d="m 3941.6049,7570.566 c 114,0 200,-60 200,-140 v -180 l -160,40 v 140 c 0,38 0,90 -40,90 z"
       inkscape:connector-curvature="0" />
    <path
       style="opacity:1;stop-opacity:1"
       id="path32-0"
       d="m 4541.6049,7794.566 h 430 v -200 c 0,-58 -26,-120 -86,-164 l -184,-132 v -624 l -160,40 v 468 l -426,-308 -58,154 484,350 z m 160,-300 92,66 c 8,8 18,18 18,34 v 60 h -110 z"
       inkscape:connector-curvature="0" />
    <path
       style="opacity:1;stop-opacity:1"
       id="path34-8"
       d="m 5051.6049,7794.566 h 486 c 62,0 80,-28 90,-76 8,-34 10,-78 10,-130 0,-72 -8,-146 -20,-196 -30,-112 -106,-178 -206,-178 -110,0 -200,80 -200,180 0,100 90,180 200,180 20,0 40,-2 60,-8 4,14 4,30 4,44 0,14 0,30 -4,44 h -220 c -44,0 -76,-14 -96,-40 z m 360,-360 c -22,0 -40,-18 -40,-40 0,-22 18,-40 40,-40 22,0 40,18 40,40 0,22 -18,40 -40,40 z"
       inkscape:connector-curvature="0" />
    <path
       style="opacity:1;stop-opacity:1"
       id="path38-83"
       d="m 5691.6049,7794.566 h 880 v -140 h -82 c 0,-12 2,-26 2,-40 0,-100 -90,-180 -200,-180 -110,0 -200,80 -200,180 0,14 2,28 4,40 h -204 c -40,0 -74,-10 -96,-40 z m 600,-140 c -22,0 -40,-18 -40,-40 0,-22 18,-40 40,-40 22,0 40,18 40,40 0,22 -18,40 -40,40 z"
       inkscape:connector-curvature="0" />
    <path
       style="opacity:1;stop-opacity:1"
       id="path40-0"
       d="m 6531.6049,7794.566 h 520 v -140 h -80 v -370 -70 l -160,40 v 100 c -130,0 -244,64 -244,208 0,36 8,68 20,92 h -56 z m 200,-228 c 4,-40 38,-72 80,-72 -4,40 -38,72 -80,72 z m 80,88 c -42,0 -76,-32 -80,-72 42,0 76,32 80,72 z"
       inkscape:connector-curvature="0" />
    <path
       style="opacity:1;stop-opacity:1"
       id="path44-4"
       d="m 7011.6049,7794.566 h 536 v -140 h -84 v -274 c 0,-114 -92,-206 -206,-206 -114,0 -208,92 -208,206 0,56 30,108 68,146 l 124,128 h -230 z m 292,-306 -80,-82 c -10,-10 -18,-24 -18,-40 0,-28 16,-52 46,-52 28,0 52,24 52,52 z"
       inkscape:connector-curvature="0" />
    <path
       style="opacity:1;stop-opacity:1"
       id="path46-1"
       d="m 7507.6049,7794.566 h 280 v -140 c -44,0 -80,-36 -80,-80 v -900 l -160,40 v 940 h -40 z"
       inkscape:connector-curvature="0" />
    <path
       style="opacity:1;stop-opacity:1"
       id="path50-8"
       d="m 7747.6049,7794.566 h 758 l 82,-140 h -354 c -116,0 -238,-130 -360,-280 l -86,140 c 38,56 94,114 124,140 h -164 z"
       inkscape:connector-curvature="0" />
    <path
       style="opacity:1;stop-opacity:1"
       id="path54-2"
       d="m 8827.6049,7634.566 v -960 l -160,40 v 1000 c 0,50 30,80 76,80 h 164 v -140 h -60 c -14,0 -20,-6 -20,-20 z"
       inkscape:connector-curvature="0" />
    <path
       style="opacity:1;stop-opacity:1"
       id="path56-2"
       d="m 8867.6049,7794.566 h 240 c 130,0 200,-60 200,-180 0,-100 -90,-180 -200,-180 -110,0 -200,80 -200,180 0,14 2,28 4,40 h -44 z m 240,-140 c -22,0 -40,-18 -40,-40 0,-22 18,-40 40,-40 22,0 40,18 40,40 0,22 -18,40 -40,40 z"
       inkscape:connector-curvature="0" />
    <path
       style="opacity:1;stop-opacity:1"
       id="path58-6"
       d="m 9347.6049,7794.566 h 486 c 62,0 80,-28 90,-76 8,-34 10,-78 10,-130 0,-72 -8,-146 -20,-196 -30,-112 -106,-178 -206,-178 -110,0 -200,80 -200,180 0,100 90,180 200,180 20,0 40,-2 60,-8 4,14 4,30 4,44 0,14 0,30 -4,44 h -220 c -44,0 -76,-14 -96,-40 z m 360,-360 c -22,0 -40,-18 -40,-40 0,-22 18,-40 40,-40 22,0 40,18 40,40 0,22 -18,40 -40,40 z"
       inkscape:connector-curvature="0" />
    <path
       style="opacity:1;stop-opacity:1"
       id="path62-9"
       d="m 9987.6049,7794.566 h 880.0001 v -140 h -82 c 0,-12 2,-26 2,-40 0,-100 -90,-180 -200,-180 -110,0 -200,80 -200,180 0,14 2,28 4,40 h -204 c -40,0 -74,-10 -96,-40 z m 600.0001,-140 c -22,0 -40,-18 -40,-40 0,-22 18,-40 40,-40 22,0 40,18 40,40 0,22 -18,40 -40,40 z"
       inkscape:connector-curvature="0" />
    <path
       style="opacity:1;stop-opacity:1"
       id="path64-0"
       d="m 10827.605,7794.566 h 520 v -140 h -80 v -370 -70 l -160,40 v 100 c -130,0 -244,64 -244,208 0,36 8,68 20,92 h -56 z m 200,-228 c 4,-40 38,-72 80,-72 -4,40 -38,72 -80,72 z m 80,88 c -42,0 -76,-32 -80,-72 42,0 76,32 80,72 z"
       inkscape:connector-curvature="0" />
    <path
       style="opacity:1;stop-opacity:1"
       id="path68-7"
       d="m 11307.605,7794.566 h 158 c 12,0 42,0 42,-22 v -438 l -160,40 v 280 h -40 z"
       inkscape:connector-curvature="0" />
    <path
       style="opacity:1;stop-opacity:1"
       id="path70-7"
       d="m 11591.605,7794.566 h 1286 v -140 h -86 c -30,-190 -146,-220 -222,-220 h -738 l 54,-140 h -6 l -160,280 h 830 c 44,0 80,36 80,80 h -958 z"
       inkscape:connector-curvature="0"
       sodipodi:nodetypes="ccccsccccsccc" />
    <path
       style="opacity:1;stop-opacity:1"
       id="path74-3"
       d="m 12831.605,7794.566 h 158 c 12,0 42,0 42,-22 v -438 l -160,40 v 280 h -40 z"
       inkscape:connector-curvature="0" />
    <path
       style="opacity:1;stop-opacity:1"
       id="path78-26"
       d="m 13291.605,7514.566 v -840 l -160,40 v 820 c 10,176 158,260 316,260 120,0 246,-48 324,-140 -56,24 -144,44 -230,44 -128,0 -250,-44 -250,-184 z"
       inkscape:connector-curvature="0" />
    <path
       style="opacity:1;stop-opacity:1"
       id="path84-6"
       d="m 13511.605,8294.566 h 484 c 46,0 76,-30 76,-80 v -420 h 80 v -140 h -100 l -140,-140 -80,140 80,80 v 420 h -200 c -40,0 -74,-10 -96,-40 z"
       inkscape:connector-curvature="0" />
    <path
       style="opacity:1;stop-opacity:1"
       id="path88"
       d="m 14111.605,7794.566 h 280 v -140 c -44,0 -80,-36 -80,-80 v -320 l -160,40 v 360 h -40 z"
       inkscape:connector-curvature="0" />
    <path
       style="opacity:1;stop-opacity:1"
       id="path92"
       d="m 14351.605,7794.566 h 158 c 12,0 42,0 42,-22 v -438 l -160,40 v 280 h -40 z"
       inkscape:connector-curvature="0" />
    <path
       style="opacity:1;stop-opacity:1"
       id="path96"
       d="m 14791.605,7634.566 v -960 l -160,40 v 1000 c 0,50 30,80 76,80 h 164 v -140 h -60 c -14,0 -20,-6 -20,-20 z"
       inkscape:connector-curvature="0" />
    <path
       style="opacity:1;stop-opacity:1"
       id="path98"
       d="m 14831.605,7794.566 h 240 c 130,0 200,-60 200,-180 0,-100 -90,-180 -200,-180 -110,0 -200,80 -200,180 0,14 2,28 4,40 h -44 z m 240,-140 c -22,0 -40,-18 -40,-40 0,-22 18,-40 40,-40 22,0 40,18 40,40 0,22 -18,40 -40,40 z"
       inkscape:connector-curvature="0" />
  </g>
  <path
     inkscape:connector-curvature="0"
     d=""
     id="path12-9" />
  <path
     inkscape:connector-curvature="0"
     d=""
     id="path22-47" />
  <path
     inkscape:connector-curvature="0"
     d=""
     id="path30-7" />
  <path
     inkscape:connector-curvature="0"
     d=""
     id="path32-4" />
  <path
     inkscape:connector-curvature="0"
     d=""
     id="path36-6" />
  <path
     inkscape:connector-curvature="0"
     d=""
     id="path40-9" />
  <path
     inkscape:connector-curvature="0"
     d=""
     id="path46-9" />
  <path
     inkscape:connector-curvature="0"
     d=""
     id="path50-1" />
  <path
     inkscape:connector-curvature="0"
     d=""
     id="path54-0" />
  <path
     inkscape:connector-curvature="0"
     d=""
     id="path58-3" />
  <path
     inkscape:connector-curvature="0"
     d=""
     id="path68-5" />
  <path
     inkscape:connector-curvature="0"
     d=""
     id="path70-2" />
  <path
     inkscape:connector-curvature="0"
     d=""
     id="path76-5" />
  <path
     inkscape:connector-curvature="0"
     d=""
     id="path80-2" />
  <path
     inkscape:connector-curvature="0"
     d=""
     id="path84-3" />
  <g
     id="g1930">
    <g
       id="g1956">
      <path
         sodipodi:nodetypes="sccccccccssssssss"
         inkscape:connector-curvature="0"
         d="m 795.6049,9014.566 h 280 v -140 h -80 v -40 -260 -100 l -160,40 v 138 c -14,2 -26,2 -40,2 -110,0 -200,80 -200,180 0,120 90,180 200,180 z m 0,-140 c -22,0 -40,-18 -40,-40 0,-22 18,-40 40,-40 22,0 40,18 40,40 0,22 -18,40 -40,40 z"
         id="path10-92" />
      <path
         sodipodi:nodetypes="cccsccccc"
         inkscape:connector-curvature="0"
         d="m 1035.6049,9014.566 h 280 v -140 c -44,0 -80,-36 -80,-80 v -320 l -160,40 v 360 h -40 z"
         id="path14-5" />
      <path
         sodipodi:nodetypes="cssccccccccc"
         inkscape:connector-curvature="0"
         d="m 1195.6049,9014.566 h 1038 c 12,0 42,0 42,-22 v -332 l -160,40 v 174 l -140,-140 -80,140 -140,-140 -80,140 h -480 z"
         id="path16-22" />
      <path
         sodipodi:nodetypes="csscccccsccc"
         inkscape:connector-curvature="0"
         d="m 2229.6049,9234.566 h 678 c 12,0 42,0 42,-42 0,-72 -10,-132 -28,-180 v -138 h -100 c -70,-58 -172,-98 -304,-140 l -162,280 h 346 c 44,0 80,36 80,80 h -472 z"
         id="path18-4" />
      <path
         sodipodi:nodetypes="cscccssscccc"
         inkscape:connector-curvature="0"
         d="m 2903.6049,8794.566 h 2128 c 44,0 80,36 80,80 h -2288 v 140 h 2414 c 12,0 42,0 42,-42 0,-278 -140,-318 -228,-318 h -2020 c 124,-222 152,-486 108,-760 l -160,160 c 50,250 28,518 -76,740 z"
         id="path20-00" />
      <path
         inkscape:connector-curvature="0"
         d="m 5757.6049,9514.566 c 86,0 178,-16 330,-86 -98,16 -168,24 -220,24 -166,0 -348,-72 -348,-252 0,-134 100,-186 180,-186 h 268 v -140 h -80 v -400 l -160,40 v 200 l -160,-160 -84,142 178,178 h -2 c -192,0 -300,156 -300,320 0,208 172,320 398,320 z"
         id="path24-0" />
      <path
         sodipodi:nodetypes="cssccccccccc"
         inkscape:connector-curvature="0"
         d="m 5867.6049,9014.566 h 1018 c 12,0 42,0 42,-22 v -332 l -160,40 v 174 l -140,-140 -80,140 -140,-140 -80,140 h -460 z"
         id="path26-5" />
      <path
         inkscape:connector-curvature="0"
         d="m 6907.6049,9234.566 h 486 c 62,0 80,-28 90,-76 8,-34 10,-78 10,-130 0,-72 -8,-146 -20,-196 -30,-112 -106,-178 -206,-178 -110,0 -200,80 -200,180 0,100 90,180 200,180 20,0 40,-2 60,-8 4,14 4,30 4,44 0,14 0,30 -4,44 h -220 c -44,0 -76,-14 -96,-40 z m 360,-360 c -22,0 -40,-18 -40,-40 0,-22 18,-40 40,-40 22,0 40,18 40,40 0,22 -18,40 -40,40 z"
         id="path28-6" />
      <path
         inkscape:connector-curvature="0"
         d="m 7707.6049,8854.566 v -960 l -160,40 v 1000 c 0,50 30,80 76,80 h 164 v -140 h -60 c -14,0 -20,-6 -20,-20 z"
         id="path34-1" />
      <path
         sodipodi:nodetypes="cssccccccccc"
         inkscape:connector-curvature="0"
         d="m 7727.6049,9014.566 h 978 c 12,0 42,0 42,-22 v -332 l -160,40 v 174 l -140,-140 -80,140 -140,-140 -80,140 h -420 z"
         id="path38-13" />
      <path
         inkscape:connector-curvature="0"
         d="m 8987.6049,8854.566 v -960 l -160,40 v 1000 c 0,50 30,80 76,80 h 164 v -140 h -60 c -14,0 -20,-6 -20,-20 z"
         id="path42-8" />
      <path
         inkscape:connector-curvature="0"
         d="m 9027.6049,9014.566 h 520 v -140 h -82 c 0,-12 2,-26 2,-40 0,-100 -90,-180 -200,-180 -110,0 -200,80 -200,180 0,14 2,28 4,40 h -44 z m 240,-140 c -22,0 -40,-18 -40,-40 0,-22 18,-40 40,-40 22,0 40,18 40,40 0,22 -18,40 -40,40 z"
         id="path44-1" />
      <path
         inkscape:connector-curvature="0"
         d="m 9507.6049,9014.566 h 158 c 12,0 42,0 42,-22 v -438 l -160,40 v 280 h -40 z"
         id="path48-4" />
      <path
         inkscape:connector-curvature="0"
         d="m 9907.6049,9014.566 h 430.0001 v -200 c 0,-58 -26,-120 -86,-164 l -184,-132 v -624 l -160.0001,40 v 468 l -426,-308 -58,154 484,350 z m 160.0001,-300 92,66 c 8,8 18,18 18,34 v 60 h -110 z"
         id="path52-46" />
      <path
         inkscape:connector-curvature="0"
         d="m 10577.605,8734.566 v -840 l -160,40 v 820 c 10,176 158,260 316,260 120,0 246,-48 324,-140 -56,24 -144,44 -230,44 -128,0 -250,-44 -250,-184 z"
         id="path56-69" />
      <path
         inkscape:connector-curvature="0"
         d="m 11337.605,9014.566 h 280 v -140 h -80 v -40 -260 c -40,70 -120,80 -200,80 -110,0 -200,80 -200,180 0,120 90,180 200,180 z m 0,-140 c -22,0 -40,-18 -40,-40 0,-22 18,-40 40,-40 22,0 40,18 40,40 0,22 -18,40 -40,40 z"
         id="path60-8" />
      <path
         inkscape:connector-curvature="0"
         d="m 11577.605,9014.566 h 520 v -140 h -82 c 0,-12 2,-26 2,-40 0,-100 -90,-180 -200,-180 -110,0 -200,80 -200,180 0,14 2,28 4,40 h -44 z m 240,-140 c -22,0 -40,-18 -40,-40 0,-22 18,-40 40,-40 22,0 40,18 40,40 0,22 -18,40 -40,40 z"
         id="path62-6" />
      <path
         inkscape:connector-curvature="0"
         d="m 12057.605,9014.566 h 280 v -140 c -44,0 -80,-36 -80,-80 v -900 l -160,40 v 940 h -40 z"
         id="path64-2" />
      <path
         inkscape:connector-curvature="0"
         d="m 12297.605,9014.566 h 538 l 82,-140 h -278 c -64,0 -170,-94 -170,-156 0,-58 130,-134 170,-158 l -2,-6 c -106,52 -292,146 -292,242 0,26 12,52 44,78 h -92 z"
         id="path66-8" />
      <path
         inkscape:connector-curvature="0"
         d="m 12737.605,9514.566 h 484 c 46,0 76,-30 76,-80 v -420 h 80 v -140 h -100 l -140,-140 -80,140 80,80 v 420 h -200 c -40,0 -74,-10 -96,-40 z"
         id="path72-7" />
      <path
         inkscape:connector-curvature="0"
         d="m 13337.605,9014.566 h 240 c 130,0 200,-60 200,-180 0,-100 -90,-180 -200,-180 -110,0 -200,80 -200,180 0,14 2,28 4,40 h -44 z m 240,-140 c -22,0 -40,-18 -40,-40 0,-22 18,-40 40,-40 22,0 40,18 40,40 0,22 -18,40 -40,40 z"
         id="path74-7" />
      <path
         inkscape:connector-curvature="0"
         d="m 14119.605,9234.566 h 930 l 82,-140 h -956 c -64,0 -108,-6 -154,-52 l -62,-62 c -34,-34 -16,-128 12,-100 l 104,104 c 20,20 38,30 62,30 h 134 v -140 h -62 c -18,0 -28,-10 -36,-18 l -128,-128 c -100,-100 -188,198 -188,296 0,170 114,208 262,210 z"
         id="path78-9"
         sodipodi:nodetypes="cccssssssccssssc" />
      <path
         inkscape:connector-curvature="0"
         d="m 14231.605,9014.566 h 760 v -140 c -44,0 -80,-36 -80,-80 v -320 l -160,40 v 360 c -44,0 -80,-36 -80,-80 v -260 l -160,40 v 300 c -44,0 -80,-36 -80,-80 v -200 l -160,40 v 240 h -40 z"
         id="path82-9" />
      <path
         inkscape:connector-curvature="0"
         d="m 14951.605,9014.566 h 158 c 12,0 42,0 42,-22 v -438 l -160,40 v 280 h -40 z"
         id="path86-3" />
    </g>
  </g>
</svg>
