<?xml version="1.0" encoding="UTF-8" standalone="no"?>
<svg
   xmlns:dc="http://purl.org/dc/elements/1.1/"
   xmlns:cc="http://creativecommons.org/ns#"
   xmlns:rdf="http://www.w3.org/1999/02/22-rdf-syntax-ns#"
   xmlns:svg="http://www.w3.org/2000/svg"
   xmlns="http://www.w3.org/2000/svg"
   xmlns:sodipodi="http://sodipodi.sourceforge.net/DTD/sodipodi-0.dtd"
   xmlns:inkscape="http://www.inkscape.org/namespaces/inkscape"
   inkscape:version="1.0 (4035a4f, 2020-05-01)"
   id="svg881"
   viewBox="-500 -500 1122.5197 793.7008"
   height="210mm"
   width="297mm"
   version="1.1">
  <metadata
     id="metadata887">
    <rdf:RDF>
      <cc:Work
         rdf:about="">
        <dc:format>image/svg+xml</dc:format>
        <dc:type
           rdf:resource="http://purl.org/dc/dcmitype/StillImage" />
        <dc:title></dc:title>
      </cc:Work>
    </rdf:RDF>
  </metadata>
  <defs
     id="defs885" />
  <sodipodi:namedview
     inkscape:current-layer="svg881"
     inkscape:window-maximized="1"
     inkscape:window-y="23"
     inkscape:window-x="0"
     inkscape:cy="268.39557"
     inkscape:cx="726.36904"
     inkscape:zoom="0.3475"
     units="mm"
     showgrid="false"
     id="namedview883"
     inkscape:window-height="1081"
     inkscape:window-width="2048"
     inkscape:pageshadow="2"
     inkscape:pageopacity="0"
     guidetolerance="10"
     gridtolerance="10"
     objecttolerance="10"
     borderopacity="1"
     bordercolor="#666666"
     pagecolor="#ffffff" />
  <path
     style="stroke-width:0.0776598"
     id="path833"
     d="" />
  <path
     style="stroke-width:0.0776598"
     id="path845"
     d="" />
  <path
     style="stroke-width:0.0776598"
     id="path847"
     d="" />
  <path
     style="stroke-width:0.0776598"
     id="path861"
     d="" />
  <path
     style="stroke-width:0.0776598"
     id="path867"
     d="" />
  <path
     style="stroke-width:0.0776598"
     id="path871"
     d="" />
  <g
     transform="matrix(0.88511429,0,0,1,-1.1816205,-13.165797)"
     id="g909">
    <path
       d="m -298.26052,265.23037 h 37.58738 c 3.57235,0 5.90215,-2.32977 5.90215,-6.21281 v -32.61714 h 82.16415 c 0.93192,0 3.26171,0 3.26171,-3.26175 0,-21.5894 -10.87238,-24.69576 -17.70645,-24.69576 h -67.71941 l -12.42558,-12.42562 -6.21279,10.87235 6.21279,6.21281 v 51.25557 h -15.53198 c -3.10639,0 -5.74683,-0.77659 -7.45534,-3.10645 z m 43.48953,-49.7023 v -6.21281 h 66.16621 c 3.41704,0 6.2128,2.79576 6.2128,6.21281 z"
       id="path835"
       style="stroke-width:0.0776598" />
    <path
       d="m -172.91749,243.48558 h 52.6534 c 0.93192,0 3.26171,0 3.26171,-3.26166 0,-21.58949 -10.71705,-28.2682 -33.54906,-35.56821 l -12.5809,21.74471 h 26.87032 c 3.41703,0 6.21279,2.79576 6.21279,6.21281 h -36.65546 z"
       id="path837"
       style="stroke-width:0.0776598" />
    <path
       d="m -114.67258,226.40042 h 33.393749 v -15.53198 c 0,-4.50424 -2.01916,-9.31917 -6.67875,-12.73622 L -102.247,187.88116 v -48.45981 l -12.42558,3.10644 v 36.3448 l -33.08311,-23.91926 -4.50427,11.95963 37.58738,27.181 z m 12.42558,-23.29797 7.144709,5.12553 c 0.62128,0.62129 1.39788,1.39788 1.39788,2.64046 v 4.65963 H -102.247 Z"
       id="path839"
       style="stroke-width:0.0776598" />
    <path
       d="m -62.640461,204.65571 v -65.23436 l -12.42559,3.10644 v 63.6811 c 0.7766,13.66812 12.27026,20.19153 24.54053,20.19153 9.31918,0 19.10433,-3.72765 25.1618,-10.87235 -4.34896,1.86378 -11.18303,3.41705 -17.86178,3.41705 -9.94046,0 -19.41496,-3.41705 -19.41496,-14.28941 z"
       id="path841"
       style="stroke-width:0.0776598" />
    <path
       d="m -26.916921,243.48558 h 37.74271 c 4.81489,0 6.21277,-2.17447 6.98938,-5.90212 0.62128,-2.64046 0.7766,-6.05743 0.7766,-10.09576 0,-5.59152 -0.62127,-11.33834 -1.55321,-15.22138 -2.32978,-8.69788 -8.2319303,-13.82341 -15.9979403,-13.82341 -8.54256,0 -15.5319697,6.2128 -15.5319697,13.97871 0,7.76599 6.9894097,13.9788 15.5319697,13.9788 1.55321,0 3.10641,-0.1553 4.6596,-0.62129 0.31065,1.08728 0.31065,2.32985 0.31065,3.41705 0,1.08728 0,2.32985 -0.31065,3.41705 H -11.384961 c -3.41701,0 -5.90215,-1.0872 -7.45533,-3.10637 z M 1.0406187,215.52807 c -1.70850998,0 -3.10639,-1.39788 -3.10639,-3.10645 0,-1.70848 1.39788002,-3.10636 3.10639,-3.10636 1.70853,0 3.10641,1.39788 3.10641,3.10636 0,1.70857 -1.39788,3.10645 -3.10641,3.10645 z"
       id="path843"
       style="stroke-width:0.0776598" />
    <path
       d="m 22.785389,226.40042 h 83.717341 c 0.93194,0 3.26172,0 3.26172,-1.70848 v -34.01502 l -12.425579,3.10636 v 21.74479 H 38.317364 c -3.417016,0 -5.902156,-1.08728 -7.455338,-3.10645 z"
       id="path849"
       style="stroke-width:0.0776598" />
    <path
       d="m 136.16881,226.40042 h 4.81492 c 0.15531,0.93189 0.15531,1.86387 0.15531,2.79576 0,1.08728 0,2.32985 -0.31062,3.41705 h -17.08518 c -3.41704,0 -5.90216,-1.0872 -7.45536,-3.10637 l -8.07662,13.97872 h 37.7427 c 4.81492,0 6.21278,-2.17447 6.98938,-5.90212 0.62128,-2.64046 0.77661,-6.05743 0.77661,-10.09576 v -1.08728 h 5.74682 v -10.87235 h -6.67875 c -0.15531,-1.08728 -0.46595,-2.17447 -0.62128,-3.26175 -2.32979,-8.69788 -8.23194,-13.82341 -15.99793,-13.82341 -8.54258,0 -15.53196,6.2128 -15.53196,13.97871 0,7.76599 6.98938,13.9788 15.53196,13.9788 z m 0,-10.87235 c -1.7085,0 -3.10638,-1.39788 -3.10638,-3.10645 0,-1.70848 1.39788,-3.10636 3.10638,-3.10636 1.70852,0 3.1064,1.39788 3.1064,3.10636 0,1.70857 -1.39788,3.10645 -3.1064,3.10645 z"
       id="path851"
       style="stroke-width:0.0776598" />
    <path
       d="m 153.25399,226.40042 h 40.38313 v -10.87235 h -6.36811 c 0,-0.93198 0.15533,-2.01917 0.15533,-3.10645 0,-7.76591 -6.9894,-13.97871 -15.53199,-13.97871 -8.54259,0 -15.53197,6.2128 -15.53197,13.97871 0,1.08728 0.15533,2.17447 0.31065,3.10645 h -3.41704 z m 18.63836,-10.87235 c -1.70851,0 -3.10639,-1.39788 -3.10639,-3.10645 0,-1.70848 1.39788,-3.10636 3.10639,-3.10636 1.70853,0 3.10641,1.39788 3.10641,3.10636 0,1.70857 -1.39788,3.10645 -3.10641,3.10645 z"
       id="path853"
       style="stroke-width:0.0776598" />
    <path
       d="m 190.53073,226.40042 h 59.02151 v -10.87235 c -3.41704,0 -6.2128,-2.79576 -6.2128,-6.21281 v -24.85115 l -12.42558,3.10636 v 27.9576 c -3.41704,0 -6.21278,-2.79576 -6.21278,-6.21281 v -20.19161 l -12.42558,3.10645 v 23.29797 c -3.41704,0 -6.2128,-2.79576 -6.2128,-6.21281 v -15.53198 l -12.42558,3.10636 v 18.63843 h -3.10639 z"
       id="path855"
       style="stroke-width:0.0776598" />
    <path
       d="m 246.44583,226.40042 h 9.62984 c 3.57234,0 5.90215,-2.32977 5.90215,-6.21281 v -80.76626 l -12.42558,3.10644 v 73.00028 h -3.10641 z"
       id="path857"
       style="stroke-width:0.0776598" />
    <path
       d="m 280.61618,204.65571 v -65.23436 l -12.42558,3.10644 v 63.6811 c 0.7766,13.66812 12.27025,20.19153 24.54053,20.19153 9.31917,0 19.10431,-3.72765 25.16179,-10.87235 -4.34895,1.86378 -11.18303,3.41705 -17.86177,3.41705 -9.94046,0 -19.41497,-3.41705 -19.41497,-14.28941 z"
       id="path859"
       style="stroke-width:0.0776598" />
    <path
       d="m 314.32058,243.48558 h 52.65338 c 0.93193,0 3.26172,0 3.26172,-3.26166 0,-21.58949 -10.71707,-28.2682 -33.54908,-35.56821 l -12.58088,21.74471 h 26.87031 c 3.41703,0 6.21279,2.79576 6.21279,6.21281 h -36.65546 z"
       id="path863"
       style="stroke-width:0.0776598" />
    <path
       d="m 403.62942,226.40042 h 4.81492 c 0.15531,0.93189 0.15531,1.86387 0.15531,2.79576 0,1.08728 0,2.32985 -0.31063,3.41705 h -17.08518 c -3.41704,0 -5.90215,-1.0872 -7.45535,-3.10637 l -8.07661,13.97872 h 37.74269 c 4.81492,0 6.2128,-2.17447 6.98938,-5.90212 0.62127,-2.64046 0.7766,-6.05743 0.7766,-10.09576 v -1.08728 h 5.74683 v -10.87235 h -6.67873 c -0.15533,-1.08728 -0.46598,-2.17447 -0.62128,-3.26175 -2.32981,-8.69788 -8.23196,-13.82341 -15.99795,-13.82341 -8.54259,0 -15.53197,6.2128 -15.53197,13.97871 0,7.76599 6.98938,13.9788 15.53197,13.9788 z m 0,-10.87235 c -1.7085,0 -3.10638,-1.39788 -3.10638,-3.10645 0,-1.70848 1.39788,-3.10636 3.10638,-3.10636 1.70851,0 3.10639,1.39788 3.10639,3.10636 0,1.70857 -1.39788,3.10645 -3.10639,3.10645 z"
       id="path865"
       style="stroke-width:0.0776598" />
    <path
       d="m 423.82099,226.40042 h 12.27025 c 0.93193,0 3.26171,0 3.26171,-1.70848 v -34.01502 l -12.42557,3.10636 v 21.74479 h -3.10639 z"
       id="path869"
       style="stroke-width:0.0776598" />
  </g>
  <g
     transform="translate(-42.000042)"
     id="g1017">
    <path
       sodipodi:nodetypes="sccccssssssss"
       d="M -131.61224,58.464288 H -2.4053141 V -6.1392216 H -39.321513 V -202.09511 c -49.062489,43.1147 -132.759017,89.45769 -159.733697,119.887738 -14.51849,16.378231 -24.84776,35.206435 -24.84776,57.610005 0,55.374437 41.53083,83.061655 92.29073,83.061655 z m 0,-64.6035096 c -10.15198,0 -18.45815,-8.3061654 -18.45815,-18.4581454 0,-10.15198 8.30617,-18.458146 18.45815,-18.458146 10.15198,0 18.45814,8.306166 18.45814,18.458146 0,10.15198 -8.30616,18.4581454 -18.45814,18.4581454 z"
       id="path873"
       style="stroke-width:0.461454" />
    <path
       sodipodi:nodetypes="cccsccccc"
       id="path875"
       d="M -48.863313,58.464288 H 80.343706 V -6.1392216 c -20.30396,0 -36.916291,3.3876696 -36.916291,-16.9162904 V -306.52882 l -73.832582,66.66866 V -6.1392216 h -18.458146 z"
       style="stroke-width:0.461454" />
    <path
       sodipodi:nodetypes="cssccccc"
       d="m 33.885477,58.464288 h 37.220389 c 41.488834,0 55.070334,-18.140435 55.070334,-56.9162918 V -381.18971 l -73.832578,66.45813 V -6.1392216 H 33.885477 Z"
       id="path877"
       style="stroke-width:0.461454" />
    <path
       sodipodi:nodetypes="scccscss"
       d="M 208.92499,-70.742731 V -458.36379 l -73.83258,68.45814 v 328.391992 c 4.61454,81.21584 72.90968,119.977946 145.81935,119.977946 55.37444,0 113.5176,-22.149775 149.51098,-64.6035096 -25.8414,11.0748874 -66.44932,20.3039606 -106.13434,20.3039606 -59.06606,0 -115.36341,-20.3039606 -115.36341,-84.90747 z"
       id="path879"
       style="stroke-width:0.461454" />
    <path
       sodipodi:nodetypes="cccsccccc"
       d="M -131.61224,58.464288 H -2.4053141 V -6.1392216 c -20.3038679,0 -36.9161989,3.3876696 -36.9161989,-16.9162904 V -231.60777 l -73.832587,67.07656 V -6.1392216 h -18.45814 z"
       id="path967"
       style="stroke-width:0.461454" />
    <path
       id="path873-2"
       d="m -123.62965,17.68946 h 64.603513 v -32.301755 h -18.458284 v -97.977945 c -24.531109,21.557351 -66.379369,44.728844 -79.866739,59.943879 -7.25922,8.189095 -12.42385,17.603211 -12.42385,28.804993 0,27.6872187 20.76541,41.530828 46.14536,41.530828 z m 0,-32.301755 c -5.07599,0 -9.22907,-4.153083 -9.22907,-9.229073 0,-5.07599 4.15308,-9.229073 9.22907,-9.229073 5.07599,0 9.22908,4.153083 9.22908,9.229073 0,5.07599 -4.15309,9.229073 -9.22908,9.229073 z"
       sodipodi:nodetypes="sccccssssssss"
       style="stroke-width:0.230727" />
  </g>
</svg>
