<?xml version="1.0" encoding="UTF-8" standalone="no"?>
<svg
   xmlns:dc="http://purl.org/dc/elements/1.1/"
   xmlns:cc="http://creativecommons.org/ns#"
   xmlns:rdf="http://www.w3.org/1999/02/22-rdf-syntax-ns#"
   xmlns:svg="http://www.w3.org/2000/svg"
   xmlns="http://www.w3.org/2000/svg"
   xmlns:sodipodi="http://sodipodi.sourceforge.net/DTD/sodipodi-0.dtd"
   xmlns:inkscape="http://www.inkscape.org/namespaces/inkscape"
   inkscape:export-ydpi="72.001999"
   inkscape:export-xdpi="72.001999"
   inkscape:export-filename="/Users/khaled/Downloads/document-18.png"
   inkscape:version="1.0 (4035a4f, 2020-05-01)"
   sodipodi:docname="document-18.svg"
   id="svg1009"
   viewBox="-500 -500 4847.8652 4407.8789"
   height="4407.8789"
   width="4847.8652"
   version="1.1">
  <metadata
     id="metadata1015">
    <rdf:RDF>
      <cc:Work
         rdf:about="">
        <dc:format>image/svg+xml</dc:format>
        <dc:type
           rdf:resource="http://purl.org/dc/dcmitype/StillImage" />
        <dc:title />
      </cc:Work>
    </rdf:RDF>
  </metadata>
  <defs
     id="defs1013">
    <marker
       inkscape:stockid="Arrow1Lstart"
       orient="auto"
       refY="0"
       refX="0"
       id="Arrow1Lstart"
       style="overflow:visible"
       inkscape:isstock="true">
      <path
         id="path2401"
         d="M 0,0 5,-5 -12.5,0 5,5 Z"
         style="fill-rule:evenodd;stroke:#000000;stroke-width:1pt"
         transform="matrix(0.8,0,0,0.8,10,0)" />
    </marker>
    <rect
       x="-3155.1191"
       y="637.9082"
       width="1905.9962"
       height="1109.4604"
       id="rect2301" />
  </defs>
  <sodipodi:namedview
     pagecolor="#feeec9"
     bordercolor="#666666"
     borderopacity="1"
     objecttolerance="10"
     gridtolerance="10"
     guidetolerance="10"
     inkscape:pageopacity="1"
     inkscape:pageshadow="2"
     inkscape:window-width="2048"
     inkscape:window-height="1081"
     id="namedview1011"
     showgrid="false"
     inkscape:zoom="0.11558847"
     inkscape:cx="862.35825"
     inkscape:cy="2203.9395"
     inkscape:window-x="0"
     inkscape:window-y="23"
     inkscape:window-maximized="1"
     inkscape:current-layer="svg1009"
     fit-margin-top="250"
     fit-margin-left="250"
     fit-margin-right="250"
     fit-margin-bottom="250"
     showguides="true"
     inkscape:guide-bbox="true"
     lock-margins="true"
     inkscape:document-rotation="0" />
  <path
     style="color:#000000;font-style:normal;font-variant:normal;font-weight:normal;font-stretch:normal;font-size:medium;line-height:normal;font-family:sans-serif;font-variant-ligatures:normal;font-variant-position:normal;font-variant-caps:normal;font-variant-numeric:normal;font-variant-alternates:normal;font-variant-east-asian:normal;font-feature-settings:normal;font-variation-settings:normal;text-indent:0;text-align:start;text-decoration:none;text-decoration-line:none;text-decoration-style:solid;text-decoration-color:#000000;letter-spacing:normal;word-spacing:normal;text-transform:none;writing-mode:lr-tb;direction:ltr;text-orientation:mixed;dominant-baseline:auto;baseline-shift:baseline;text-anchor:start;white-space:normal;shape-padding:0;shape-margin:0;inline-size:0;clip-rule:nonzero;display:inline;overflow:visible;visibility:visible;isolation:auto;mix-blend-mode:normal;color-interpolation:sRGB;color-interpolation-filters:linearRGB;solid-color:#000000;solid-opacity:1;vector-effect:none;fill:#d22e1f;fill-opacity:1;fill-rule:nonzero;stroke:none;stroke-width:27;stroke-linecap:butt;stroke-linejoin:miter;stroke-miterlimit:4;stroke-dasharray:none;stroke-dashoffset:0;stroke-opacity:1;color-rendering:auto;image-rendering:auto;shape-rendering:auto;text-rendering:auto;enable-background:accumulate;stop-color:#000000"
     d="M -250,1112.0684 V 3657.8789 H 4097.8652 V 1112.0684 h -132.9473 l -16,27 h 121.9473 V 3630.8789 H -223 V 1139.0684 h 791.91797 l 16,-27 z"
     id="path4540"
     sodipodi:nodetypes="ccccccccccccc" />
  <path
     transform="translate(-500,-500)"
     d="M 3945.127 1938.7852 C 3763.1438 1938.9516 3615.7054 2086.5246 3615.7051 2268.5078 C 3615.7054 2450.6084 3763.3271 2598.2301 3945.4277 2598.2305 C 4127.5284 2598.2302 4275.1501 2450.6085 4275.1504 2268.5078 C 4275.15 2086.4072 4127.5283 1938.7855 3945.4277 1938.7852 L 3945.127 1938.7852 z M 3969.2578 1973.5371 L 3969.2676 1973.5371 C 3969.9467 1973.5211 3970.6172 1973.5367 3971.2754 1973.5938 L 3971.291 1973.5938 C 3971.335 1973.6037 3971.374 1973.6035 3971.4121 1973.6035 C 3981.992 1974.52 3995.5699 1985.2297 3994.3281 1995.6523 C 3994.3441 1996.1676 3994.2892 1996.6847 3994.1641 1997.1836 L 3994.1445 1997.2637 C 3993.9985 1997.9729 3993.8166 1998.6764 3993.5977 1999.3672 L 3951.6992 2209.9805 C 3951.184 2212.7841 3952.887 2215.1362 3950.0508 2214.8867 C 3947.2093 2214.6319 3949.3078 2212.6043 3949.2969 2209.752 L 3946.1738 1994.9648 C 3946.1018 1994.2336 3946.0594 1993.4925 3946.0605 1992.7559 L 3946.0605 1992.9414 L 3946.0508 1992.8379 L 3946.0508 1992.7559 L 3946.0508 1992.7422 C 3946.0338 1992.2582 3946.0798 1991.7721 3946.1914 1991.2988 C 3946.9692 1981.5428 3959.0706 1973.773 3969.2578 1973.5371 z M 3895.291 1977.1465 L 3895.293 1977.1504 C 3905.359 1977.262 3917.7354 1983.4902 3919.1348 1992.5645 C 3919.2856 1993.0327 3919.3665 1993.5219 3919.3828 1994.0156 L 3919.3828 1993.916 C 3919.3828 1993.955 3919.382 1993.9951 3919.3926 1994.0352 C 3919.3931 1994.0492 3919.3926 1994.0641 3919.3926 1994.0781 L 3919.3926 1994.1172 C 3919.4436 1994.8544 3919.4576 1995.5992 3919.4336 1996.3398 L 3935.6035 2210.4766 C 3935.8584 2213.3182 3938.1141 2215.1391 3935.3105 2215.6543 C 3932.5069 2216.1749 3933.9552 2213.6717 3933.1797 2210.9277 L 3871.5645 2005.1426 C 3871.3029 2004.515 3871.0691 2003.8793 3870.8711 2003.2324 L 3870.8379 2003.1406 C 3870.8279 2003.1116 3870.8215 2003.0827 3870.8125 2003.0547 L 3870.8125 2003.043 C 3870.6543 2002.5841 3870.5577 2002.1087 3870.5273 2001.627 C 3868.2877 1991.4267 3880.651 1979.5275 3891.0195 1977.5156 L 3891.0371 1977.5059 C 3891.0751 1977.4949 3891.1131 1977.4894 3891.1562 1977.4844 C 3892.461 1977.2403 3893.8527 1977.1312 3895.291 1977.1465 z M 4038.6875 1989.1406 C 4041.7062 1989.1206 4044.6167 1989.5502 4047.0977 1990.4531 L 4047.1172 1990.4629 C 4047.1502 1990.4789 4047.1892 1990.4908 4047.2266 1990.5078 C 4057.1829 1994.2116 4066.1356 2007.3877 4062.4102 2017.2031 C 4062.3017 2017.7074 4062.1229 2018.191 4061.8789 2018.6465 C 4061.5548 2019.3284 4061.1923 2019.9844 4060.7988 2020.625 L 3965.3516 2213.0762 C 3964.1097 2215.6413 3965.0642 2218.3904 3962.3906 2217.3926 C 3959.7227 2216.3948 3962.2239 2215.0243 3962.9668 2212.2695 L 4016.1602 2004.2754 C 4016.262 2003.5569 4016.4002 2002.8431 4016.5781 2002.1387 L 4016.543 2002.2773 L 4016.5645 2002.1797 C 4016.5645 2002.1653 4016.5738 2002.1529 4016.5781 2002.1387 C 4016.5781 2002.1387 4016.5781 2002.1367 4016.5781 2002.1367 C 4016.5783 2002.1364 4016.5781 2002.1369 4016.5781 2002.1289 L 4016.5879 2002.0996 C 4016.688 2001.6242 4016.8526 2001.1583 4017.0781 2000.7227 C 4019.5835 1993.3042 4029.6335 1989.2076 4038.6895 1989.1465 L 4038.6875 1989.1406 z M 3827.9297 1999.3047 C 3836.3904 1999.1294 3845.4285 2002.2969 3848.3887 2008.8809 C 3848.6629 2009.3028 3848.8714 2009.7559 3849.0176 2010.2344 L 3849.0312 2010.2754 C 3849.0312 2010.2614 3849.0206 2010.2474 3849.0156 2010.2344 C 3849.2774 2010.9561 3849.4918 2011.6916 3849.6719 2012.4375 L 3922.1094 2214.4727 C 3923.1125 2217.1407 3925.7271 2218.2684 3923.1621 2219.5156 C 3920.5971 2220.763 3921.2914 2217.9305 3919.8164 2215.4902 L 3806.707 2032.7969 C 3806.2981 2032.2548 3805.9197 2031.6926 3805.5684 2031.1133 L 3805.5664 2031.1113 L 3805.5137 2031.0312 C 3805.505 2031.0183 3805.4975 2031.0043 3805.4902 2030.9902 C 3805.4839 2030.9797 3805.477 2030.9696 3805.4707 2030.959 L 3805.4609 2030.9434 C 3805.2005 2030.5347 3804.9893 2030.1009 3804.8477 2029.6406 C 3800.2111 2020.2808 3807.7872 2006.3719 3817.25 2001.6758 L 3817.2637 2001.666 C 3817.3017 2001.65 3817.3367 2001.6293 3817.375 2001.6133 C 3820.3575 2000.1592 3824.084 1999.3883 3827.9297 1999.3086 L 3827.9297 1999.3047 z M 3805.4902 2030.9902 C 3805.5147 2031.0312 3805.5417 2031.0705 3805.5664 2031.1113 L 3805.4707 2030.9551 C 3805.4781 2030.9661 3805.484 2030.9783 3805.4902 2030.9902 z M 4100.4121 2021.4609 L 4100.4141 2021.4609 C 4105.5223 2021.5029 4110.708 2022.9084 4114.5391 2025.4941 L 4114.5547 2025.5059 L 4114.6523 2025.5703 C 4123.4156 2031.568 4129.8581 2047.7341 4123.6543 2056.1992 C 4123.4384 2056.6114 4123.1671 2056.991 4122.8535 2057.3379 C 4122.3369 2057.9498 4121.7791 2058.5241 4121.1934 2059.0723 L 3981.3105 2221.7949 C 3979.483 2223.9858 3979.8188 2226.823 3977.4707 2225.207 C 3975.1226 2223.591 3977.948 2222.7995 3979.3418 2220.3105 L 4082.2891 2031.6602 C 4082.5744 2031.0094 4082.8924 2030.3698 4083.2461 2029.7461 L 4083.1914 2029.8438 L 4083.2402 2029.752 C 4083.2497 2029.733 4083.2603 2029.7152 4083.2715 2029.6973 C 4083.2796 2029.6831 4083.2868 2029.6685 4083.2949 2029.6543 L 4083.3066 2029.6348 C 4083.5255 2029.2195 4083.7957 2028.8307 4084.1172 2028.4844 C 4087.4022 2023.6166 4093.8443 2021.4088 4100.4121 2021.4609 z M 3770.5938 2037.4238 C 3776.0275 2037.4788 3781.1856 2039.1982 3784.3223 2042.9883 C 3784.6656 2043.2929 3784.9646 2043.6461 3785.2227 2044.0254 L 3785.2363 2044.0469 C 3785.2463 2044.0569 3785.2489 2044.0643 3785.2559 2044.0723 C 3785.2779 2044.1013 3785.3033 2044.1292 3785.3223 2044.1602 L 3785.3633 2044.2305 L 3785.2559 2044.0723 C 3785.7144 2044.7145 3786.1284 2045.3863 3786.5098 2046.0801 L 3906.7695 2224.1055 C 3908.391 2226.4535 3911.2929 2226.9577 3909.1074 2228.7852 C 3906.9221 2230.6181 3907.0086 2227.7389 3904.9805 2225.7324 L 3750.2344 2076.957 C 3749.6978 2076.5439 3749.1819 2076.1044 3748.6895 2075.6387 L 3748.6113 2075.5762 C 3748.5783 2075.5472 3748.5525 2075.5114 3748.5195 2075.4824 C 3748.171 2075.1662 3747.859 2074.8082 3747.6016 2074.4121 C 3740.6333 2066.6413 3745.4598 2050.0092 3753.502 2043.1602 L 3753.5117 2043.1484 C 3753.5447 2043.1214 3753.5794 2043.0944 3753.6074 2043.0664 C 3757.9286 2039.4394 3764.4413 2037.3635 3770.5996 2037.4258 L 3770.5938 2037.4238 z M 4122.8555 2057.3379 C 4122.8225 2057.3739 4122.7957 2057.4149 4122.7617 2057.4512 L 4122.7031 2057.5117 L 4122.8555 2057.3379 z M 4151.2461 2068.5977 C 4158.8392 2068.7041 4167.461 2072.6299 4171.9629 2077.9004 L 4171.9746 2077.918 C 4172.0016 2077.945 4172.0277 2077.9789 4172.0547 2078.0059 C 4178.8929 2086.1293 4180.894 2103.2372 4172.6621 2109.75 C 4172.3152 2110.1236 4171.9186 2110.4417 4171.4824 2110.7051 C 4170.8514 2111.1287 4170.1967 2111.5172 4169.5234 2111.8691 L 3991.1875 2231.4707 C 3988.8448 2233.0921 3988.3524 2235.9178 3986.5195 2233.7324 C 3984.6866 2231.547 3987.5638 2231.5515 3989.5703 2229.5234 L 4138.3535 2074.5664 C 4138.7871 2074.0147 4139.2411 2073.4794 4139.7227 2072.9707 L 4139.7402 2072.9512 L 4139.75 2072.9414 L 4139.7676 2072.9238 C 4140.0982 2072.5401 4140.477 2072.2049 4140.9004 2071.9297 C 4143.5735 2069.5343 4147.2687 2068.5439 4151.2461 2068.5996 L 4151.2461 2068.5977 z M 3723.4277 2089.3145 C 3726.6115 2089.2755 3729.59 2090.0111 3731.9707 2091.7559 C 3732.4316 2091.9891 3732.8485 2092.2925 3733.2227 2092.6504 L 3733.2812 2092.7051 C 3733.8292 2093.184 3734.352 2093.6882 3734.8438 2094.2188 L 3897.6855 2234.1855 C 3899.8709 2236.0129 3902.7507 2235.6992 3901.1348 2238.0527 C 3899.5187 2240.4009 3898.7586 2237.5972 3896.2695 2236.209 L 3707.709 2133.3164 C 3707.0336 2133.0226 3705.8823 2133.5703 3705.1875 2133.3086 C 3705.1993 2133.3195 3705.2109 2133.3332 3705.2246 2133.3418 L 3705.0781 2133.2676 C 3705.1089 2133.2849 3705.1452 2133.2898 3705.1777 2133.3008 C 3704.7943 2132.9872 3704.8905 2131.82 3704.5312 2131.4863 C 3695.8765 2125.6405 3695.5125 2109.7403 3701.418 2100.9824 L 3701.4277 2100.9668 L 3701.4941 2100.8691 C 3705.8089 2094.5705 3715.2915 2089.4167 3723.4277 2089.3184 L 3723.4277 2089.3145 z M 3705.1777 2133.3008 C 3705.1794 2133.3022 3705.1799 2133.3053 3705.1816 2133.3066 C 3705.1835 2133.3074 3705.1856 2133.3079 3705.1875 2133.3086 C 3705.1855 2133.3068 3705.1836 2133.3043 3705.1816 2133.3027 C 3705.1803 2133.3023 3705.1791 2133.3012 3705.1777 2133.3008 z M 4190.8711 2128.084 C 4199.6225 2128.062 4209.946 2135.4108 4213.6074 2143.1699 L 4213.6191 2143.1855 C 4213.6351 2143.2235 4213.651 2143.2605 4213.668 2143.293 C 4218.1364 2152.9293 4215.6374 2169.8756 4205.9902 2174.0078 C 4205.5514 2174.2787 4205.0785 2174.4914 4204.5801 2174.627 C 4203.8702 2174.8677 4203.1439 2175.0669 4202.4062 2175.2285 L 3998.8984 2243.9297 C 3996.2141 2244.8787 3994.9508 2247.4344 3993.7578 2244.8477 C 3992.5648 2242.261 3995.2963 2242.9746 3997.7637 2241.543 L 4182.0156 2131.2324 C 4182.5648 2130.8181 4183.1326 2130.4354 4183.7188 2130.0801 L 4183.7812 2130.0332 C 4183.8233 2130.0042 4183.8692 2129.984 4183.9121 2129.957 C 4184.3043 2129.7094 4184.7221 2129.5048 4185.166 2129.3633 C 4186.9169 2128.4878 4188.8516 2128.0891 4190.8711 2128.084 z M 3705.2363 2133.3516 L 3705.334 2133.4004 L 3705.2422 2133.3574 L 3705.2363 2133.3516 z M 3688.5703 2152.5195 C 3690.2444 2152.4645 3691.8754 2152.6991 3693.4082 2153.2812 C 3693.9126 2153.3899 3694.4 2153.5705 3694.8555 2153.8145 C 3694.8665 2153.8245 3694.8767 2153.8241 3694.8867 2153.8301 L 3694.9258 2153.8516 C 3695.5786 2154.1669 3696.218 2154.5131 3696.8359 2154.8926 L 3890.8965 2246.5176 C 3893.4941 2247.6944 3896.1358 2246.6408 3895.2031 2249.3359 C 3894.265 2252.0311 3892.7516 2249.5372 3889.9805 2248.8594 L 3680.7949 2199.6484 C 3680.1258 2199.5484 3679.4618 2199.4189 3678.8047 2199.2559 L 3678.707 2199.2402 C 3678.668 2199.2302 3678.631 2199.217 3678.5918 2199.209 C 3678.1247 2199.1039 3677.6715 2198.9483 3677.252 2198.7285 C 3667.3607 2195.3935 3662.8985 2180.202 3666.2715 2170.1914 L 3666.2812 2170.1758 C 3666.2973 2170.1378 3666.3074 2170.0998 3666.3184 2170.0625 C 3669.2376 2161.5887 3679.5398 2152.8177 3688.5801 2152.5215 L 3688.5703 2152.5195 z M 4214.9062 2195.9395 L 4214.9102 2195.9453 C 4224.6474 2195.6453 4235.1488 2207.169 4236.8926 2216.9199 L 4236.8926 2216.9355 C 4236.9036 2216.9795 4236.9071 2217.0186 4236.9121 2217.0566 C 4238.7071 2227.5227 4231.7873 2241.8489 4221.4297 2243.5625 C 4220.9416 2243.7253 4220.4332 2243.8118 4219.918 2243.8281 L 4219.9004 2243.8281 C 4219.1543 2243.8901 4218.4081 2243.9116 4217.6621 2243.8906 L 4003.3203 2258.0293 C 4000.4787 2258.2408 3998.5788 2260.4047 3998.1016 2257.5957 C 3997.6244 2254.7867 4000.0655 2256.2122 4002.8203 2255.4746 L 4209.4395 2197.1465 C 4210.0861 2196.8868 4210.7485 2196.659 4211.4219 2196.4688 L 4211.457 2196.457 C 4211.4718 2196.4521 4211.487 2196.4491 4211.502 2196.4453 C 4211.5406 2196.4346 4211.5784 2196.4206 4211.6172 2196.4102 C 4211.6272 2196.4102 4211.6278 2196.411 4211.6328 2196.4004 C 4212.0693 2196.2682 4212.5158 2196.1811 4212.9727 2196.1621 C 4213.6122 2196.0329 4214.257 2195.9595 4214.9062 2195.9395 z M 4211.502 2196.4453 C 4211.4752 2196.4527 4211.4486 2196.4612 4211.4219 2196.4688 L 4211.3652 2196.4902 L 4211.6211 2196.4141 C 4211.5817 2196.4264 4211.5417 2196.4352 4211.502 2196.4453 z M 3671.1719 2222.6191 C 3671.498 2222.6291 3671.8258 2222.6419 3672.1523 2222.6719 C 3672.6621 2222.6449 3673.1808 2222.6829 3673.6797 2222.8027 L 3673.7617 2222.8203 C 3674.4747 2222.9478 3675.1795 2223.1141 3675.875 2223.3184 L 3886.7871 2264.1582 C 3889.5907 2264.6734 3891.9936 2262.9748 3891.7441 2265.8164 C 3891.4893 2268.6525 3889.5106 2266.5595 3886.6582 2266.5703 L 3672.0098 2270.7949 C 3671.3264 2270.8819 3670.6373 2270.9373 3669.9453 2270.957 L 3669.8906 2270.9668 L 3669.7969 2270.9668 C 3669.7639 2270.9675 3669.7312 2270.9785 3669.6992 2270.9785 L 3669.7754 2270.9668 C 3669.2935 2270.9918 3668.8162 2270.9669 3668.3438 2270.8633 C 3657.921 2270.294 3649.6014 2255.1209 3650.4473 2244.5898 L 3650.4473 2244.5723 C 3650.4573 2244.5283 3650.4589 2244.4933 3650.4609 2244.4551 C 3651.3488 2234.2058 3661.067 2222.455 3671.1738 2222.623 L 3671.1719 2222.6191 z M 3945.3516 2228.5078 A 40 40 0 0 1 3945.4277 2228.5078 A 40 40 0 0 1 3985.4277 2268.5078 A 40 40 0 0 1 3945.4277 2308.5078 A 40 40 0 0 1 3905.4277 2268.5078 A 40 40 0 0 1 3945.3516 2228.5078 z M 4221.0879 2267.8008 C 4221.0989 2267.8001 4221.1101 2267.8015 4221.1211 2267.8008 C 4221.1311 2267.8008 4221.1346 2267.8009 4221.1406 2267.8008 C 4221.6386 2267.7738 4222.1398 2267.8108 4222.627 2267.9199 C 4233.0443 2268.6194 4241.1253 2282.0787 4240.4258 2292.6152 L 4240.4258 2292.6387 C 4240.4258 2292.6767 4240.416 2292.7147 4240.416 2292.7578 C 4239.6405 2303.3486 4228.9038 2316.9478 4218.4648 2315.8633 C 4217.9574 2315.8903 4217.4502 2315.8403 4216.9531 2315.7246 L 4216.9277 2315.7246 C 4216.1873 2315.5871 4215.4606 2315.4126 4214.7383 2315.1953 L 4003.7246 2276.3223 C 4000.9156 2275.8451 3998.6479 2277.5173 3998.8594 2274.6758 C 3999.0708 2271.8287 4001.1926 2273.8359 4004.0449 2273.7871 L 4218.957 2267.9453 C 4219.6456 2267.8623 4220.3428 2267.8162 4221.0371 2267.8066 L 4221.0879 2267.8008 z M 3891.4492 2276.6152 L 3891.4551 2276.6152 C 3891.9979 2276.6159 3892.3732 2276.9565 3892.5664 2278.0078 C 3893.0869 2280.8115 3890.5642 2279.3691 3887.8203 2280.1445 L 3681.709 2340.7227 C 3681.0536 2340.9809 3680.382 2341.2073 3679.6992 2341.3984 L 3679.6895 2341.3984 C 3679.196 2341.5666 3678.6866 2341.6595 3678.166 2341.6758 C 3667.9168 2343.6659 3656.4376 2332.6731 3654.4258 2322.3047 L 3654.416 2322.2832 C 3654.406 2322.2452 3654.3995 2322.2052 3654.3945 2322.168 C 3652.4423 2311.729 3659.1554 2295.7716 3669.5293 2294.1719 C 3670.0173 2294.0146 3670.5336 2293.9288 3671.0488 2293.918 L 3671.082 2293.918 C 3671.8227 2293.867 3672.5641 2293.853 3673.3047 2293.877 L 3887.3965 2277.7129 C 3889.1725 2277.5536 3890.5447 2276.6141 3891.4492 2276.6152 z M 3996.7559 2286.4023 L 3996.7578 2286.4023 C 3997.7 2286.2983 3999.0099 2287.5955 4000.9062 2288.0762 L 4209.7148 2338.7656 C 4210.3857 2338.8656 4211.0518 2339.0004 4211.707 2339.166 L 4211.8027 2339.1875 C 4211.8167 2339.1875 4211.8298 2339.1972 4211.8438 2339.1992 C 4211.8438 2339.1996 4211.8435 2339.1992 4211.8535 2339.1992 C 4212.3416 2339.3033 4212.8184 2339.4705 4213.2598 2339.707 C 4223.1239 2343.1234 4227.5279 2358.2787 4224.0898 2368.2676 L 4224.0996 2368.2676 L 4224.0879 2368.2852 C 4224.0769 2368.3232 4224.0668 2368.3612 4224.0508 2368.3984 C 4220.5261 2378.4144 4206.7019 2388.7231 4196.9082 2384.9434 C 4196.4039 2384.8349 4195.9169 2384.6557 4195.4668 2384.4062 L 4195.3906 2384.3691 C 4194.7361 2384.0533 4194.103 2383.701 4193.4863 2383.3223 L 3999.957 2290.543 C 3997.3703 2289.3445 3994.7346 2290.3148 3995.6836 2287.625 C 3995.9801 2286.7913 3996.3311 2286.4539 3996.7559 2286.4023 z M 3895.0918 2289.1113 C 3895.5067 2289.1113 3895.8815 2289.4074 3896.2695 2290.209 C 3897.5168 2292.774 3894.6766 2292.0856 3892.2363 2293.5605 L 3709.5098 2406.6855 C 3708.9199 2407.1305 3708.3079 2407.5436 3707.6738 2407.9199 L 3707.8281 2407.8262 L 3707.7461 2407.8789 C 3707.7221 2407.8939 3707.6968 2407.9049 3707.6738 2407.9199 C 3707.6638 2407.9199 3707.6632 2407.9297 3707.6582 2407.9297 C 3707.2489 2408.1908 3706.8137 2408.405 3706.3477 2408.5469 C 3696.9932 2413.1834 3683.1204 2405.5859 3678.4297 2396.123 L 3678.4199 2396.1055 C 3678.4039 2396.0675 3678.3881 2396.0355 3678.3711 2395.998 C 3673.7129 2386.4539 3676.1201 2369.2686 3685.6914 2364.9629 C 3686.0778 2364.7117 3686.4966 2364.5209 3686.9316 2364.373 C 3686.9846 2364.354 3687.0359 2364.3295 3687.0898 2364.3125 L 3687.166 2364.291 L 3686.9316 2364.373 C 3687.6909 2364.091 3688.4676 2363.8621 3689.2539 2363.6777 L 3891.2422 2291.2578 C 3893.0765 2290.5681 3894.1791 2289.1177 3895.0918 2289.1133 L 3895.0918 2289.1113 z M 3990.4648 2298.5898 C 3991.4862 2298.4464 3992.3975 2300.2567 3994.2578 2301.3047 L 4182.5273 2404.7871 C 4183.1646 2405.0644 4183.7854 2405.3784 4184.3887 2405.7207 L 4184.4375 2405.7422 C 4184.8984 2405.9753 4185.325 2406.2725 4185.6992 2406.625 C 4194.3324 2412.4979 4194.6532 2428.3288 4188.7207 2437.0703 L 4188.7305 2437.0703 L 4188.7207 2437.0859 C 4188.6937 2437.1189 4188.6724 2437.1525 4188.6504 2437.1855 C 4182.6311 2445.9325 4166.6062 2452.3493 4158.1465 2446.1348 C 4157.7408 2445.9223 4157.366 2445.6549 4157.0234 2445.3477 L 4157.0039 2445.3281 C 4156.9939 2445.3181 4156.9836 2445.3146 4156.9746 2445.3066 C 4156.9476 2445.2846 4156.9195 2445.2623 4156.8945 2445.2383 L 4156.8379 2445.1816 C 4156.2912 2444.7073 4155.7688 2444.2024 4155.2734 2443.668 L 3992.7559 2303.4043 C 3990.5705 2301.5714 3987.7458 2301.8367 3989.3672 2299.4941 C 3989.7712 2298.9091 3990.123 2298.6427 3990.4629 2298.5918 L 3990.4648 2298.5898 z M 3904.2441 2303.5605 C 3904.5841 2303.5715 3904.9572 2303.7993 3905.4141 2304.3457 C 3907.247 2306.5311 3904.3561 2306.4543 3902.3496 2308.4824 L 3753.543 2463.2617 C 3753.0913 2463.8484 3752.607 2464.4084 3752.0957 2464.9453 L 3752.2246 2464.8086 L 3752.1582 2464.8828 C 3752.1392 2464.9048 3752.1177 2464.9243 3752.0977 2464.9453 L 3752.0957 2464.9453 L 3752.082 2464.9609 C 3751.7581 2465.3174 3751.3974 2465.6363 3750.9941 2465.8984 C 3743.2178 2472.8667 3726.6342 2467.9971 3719.7852 2459.9551 L 3719.7734 2459.9434 C 3719.7464 2459.9104 3719.7194 2459.8836 3719.6914 2459.8516 C 3712.8641 2451.7227 3711.5635 2435.7953 3719.6543 2429.1035 C 3719.9733 2428.744 3720.3419 2428.4335 3720.7422 2428.168 C 3720.7712 2428.149 3720.7952 2428.1264 3720.8242 2428.1074 L 3720.8965 2428.0625 L 3720.7422 2428.168 C 3721.3828 2427.7111 3722.0544 2427.2981 3722.7461 2426.918 L 3900.7441 2306.6719 C 3902.5052 2305.4599 3903.2243 2303.5288 3904.2441 2303.5605 z M 3982.1797 2308.332 L 3982.1816 2308.332 C 3983.1789 2308.471 3983.5228 2310.4785 3985.043 2311.9824 L 4139.8438 2460.8281 C 4140.398 2461.255 4140.9307 2461.7113 4141.4375 2462.1914 L 4141.4648 2462.2148 C 4141.4748 2462.2248 4141.4822 2462.2332 4141.4902 2462.2402 C 4141.5002 2462.2502 4141.5008 2462.2518 4141.5078 2462.2578 C 4141.8842 2462.585 4142.2114 2462.9581 4142.4824 2463.375 C 4149.4508 2471.1513 4144.544 2487.6842 4136.502 2494.5332 L 4136.5117 2494.5332 L 4136.4961 2494.5449 C 4136.4631 2494.5719 4136.4363 2494.5991 4136.4043 2494.6211 C 4128.2755 2501.4539 4112.3206 2502.7177 4105.6289 2494.6328 C 4105.2622 2494.3075 4104.9446 2493.9299 4104.6758 2493.5156 C 4104.6628 2493.4956 4104.6449 2493.478 4104.6309 2493.457 L 4104.5898 2493.3906 C 4104.1752 2492.7919 4103.7938 2492.1738 4103.4434 2491.541 L 3983.2168 2313.5586 C 3981.5954 2311.2159 3978.7111 2310.7337 3980.8965 2308.9062 C 3981.4419 2308.4489 3981.8471 2308.2873 3982.1797 2308.332 z M 3913.4824 2311.9727 L 3913.4902 2311.9727 C 3913.775 2311.9947 3914.1212 2312.1384 3914.5625 2312.4414 C 3916.9106 2314.0574 3914.103 2314.8293 3912.7148 2317.3184 L 3809.8008 2505.9082 C 3809.5296 2506.5314 3809.2268 2507.1377 3808.8945 2507.7285 L 3808.8496 2507.8164 C 3808.8376 2507.8404 3808.8216 2507.8618 3808.8086 2507.8848 C 3808.8086 2507.8848 3808.8094 2507.8945 3808.7988 2507.8945 C 3808.5726 2508.3251 3808.2988 2508.7264 3807.9668 2509.084 C 3802.1209 2517.7388 3786.2481 2518.0656 3777.4902 2512.1602 L 3777.4727 2512.1504 L 3777.375 2512.084 C 3768.6118 2506.081 3762.0931 2490.0236 3768.2969 2481.5586 C 3768.53 2481.1031 3768.8335 2480.6789 3769.1914 2480.3047 C 3769.6856 2479.7346 3770.2101 2479.193 3770.7598 2478.6836 L 3910.6992 2315.8809 C 3912.1841 2314.1008 3912.2484 2311.8773 3913.4824 2311.9727 z M 3970.3125 2316.6992 L 3970.3164 2316.6992 C 3971.7822 2316.7892 3972.6826 2318.2509 3973.7441 2320.1055 L 4083.1699 2504.7246 C 4083.5785 2505.2663 4083.957 2505.8279 4084.3047 2506.4062 L 4084.3633 2506.4922 C 4084.3883 2506.5292 4084.4047 2506.5722 4084.4277 2506.6094 C 4084.6797 2507.0064 4084.8839 2507.4313 4085.0273 2507.8867 C 4089.664 2517.2411 4080.6787 2531.996 4071.1074 2536.459 L 4071.0918 2536.4707 C 4071.0538 2536.4867 4071.0148 2536.5025 4070.9824 2536.5195 C 4061.3244 2540.9391 4045.7003 2538.022 4041.3945 2528.4453 C 4041.118 2528.017 4040.8964 2527.5442 4040.75 2527.0508 L 4040.7363 2527 C 4040.4928 2526.307 4040.284 2525.6018 4040.1113 2524.8867 L 3967.7051 2322.9414 C 3966.7072 2320.268 3966.0678 2318.3507 3968.6328 2317.1035 C 3969.2741 2316.7931 3969.8239 2316.6691 3970.3125 2316.6992 z M 3924.9141 2318.3242 L 3924.9199 2318.3281 C 3925.1512 2318.3411 3925.4306 2318.4011 3925.7676 2318.5176 C 3928.4627 2319.4557 3925.963 2320.9849 3925.2852 2323.7559 L 3876.0684 2532.9688 C 3875.9734 2533.6377 3875.842 2534.3019 3875.6816 2534.959 L 3875.6602 2535.0566 C 3875.6602 2535.0666 3875.661 2535.0682 3875.6504 2535.0742 L 3875.6504 2535.0859 C 3875.5524 2535.5874 3875.3815 2536.0749 3875.1465 2536.5234 C 3871.8061 2546.4147 3856.6336 2550.8319 3846.623 2547.459 L 3846.6055 2547.4473 C 3846.5675 2547.4363 3846.5295 2547.4212 3846.4922 2547.4102 C 3836.4491 2543.9504 3826.0108 2530.0673 3829.7363 2520.252 C 3829.8448 2519.7477 3830.0236 2519.266 3830.2676 2518.8105 L 3830.2676 2518.8008 C 3830.5903 2518.1212 3830.9465 2517.4668 3831.3438 2516.8281 L 3922.9453 2322.8047 C 3923.9749 2320.5367 3923.2949 2318.2382 3924.9141 2318.3242 z M 3954.9023 2321.4043 C 3957.0568 2321.2686 3955.8355 2323.6611 3956.5625 2326.2285 L 4017.1445 2532.3691 C 4017.392 2532.9974 4017.6105 2533.6442 4017.7969 2534.2949 L 4017.8281 2534.3867 C 4017.8381 2534.4167 4017.8436 2534.4476 4017.8516 2534.4766 L 4017.8516 2534.4863 C 4017.9948 2534.9489 4018.0826 2535.4261 4018.0977 2535.9121 C 4020.0879 2546.1613 4009.0853 2557.5975 3998.7168 2559.6094 L 3998.7012 2559.6191 C 3998.6632 2559.6291 3998.6191 2559.6356 3998.582 2559.6406 C 3988.1431 2561.5928 3972.1778 2554.8212 3970.5781 2544.4473 C 3970.4208 2543.9539 3970.335 2543.4428 3970.3242 2542.9277 L 3970.3242 2542.8945 C 3970.2732 2542.1538 3970.2612 2541.4126 3970.2852 2540.6719 L 3954.125 2326.6211 C 3953.87 2323.7796 3951.6202 2321.9913 3954.4238 2321.4707 C 3954.5991 2321.4387 3954.7569 2321.4202 3954.9004 2321.4102 L 3954.9023 2321.4043 z M 3941.7422 2322.1074 L 3941.7383 2322.1094 C 3941.8818 2322.0994 3942.0415 2322.1095 3942.2188 2322.125 C 3945.0601 2322.3799 3942.9677 2324.3743 3942.9785 2327.2266 L 3947.1973 2541.918 C 3947.2873 2542.5937 3947.3378 2543.2698 3947.3574 2543.9453 L 3947.3672 2544.0449 L 3947.3672 2544.1152 C 3947.3673 2544.1252 3947.3672 2544.1249 3947.3672 2544.1289 C 3947.3962 2544.6166 3947.3672 2545.107 3947.2637 2545.584 C 3946.6943 2556.0121 3931.5273 2564.2663 3920.9961 2563.4258 L 3920.9785 2563.416 C 3920.9345 2563.416 3920.8985 2563.4063 3920.8613 2563.4043 C 3910.2813 2562.4879 3898.1064 2552.1197 3899.0879 2541.6699 C 3899.0609 2541.1607 3899.1048 2540.6411 3899.2188 2540.1426 L 3899.2363 2540.0625 C 3899.3639 2539.3488 3899.5319 2538.6423 3899.7363 2537.9414 L 3940.5684 2327.0625 C 3941.0513 2324.4341 3939.5899 2322.1742 3941.7422 2322.1074 z "
     style="fill:#d22e1f;fill-opacity:1;stroke:none;stroke-width:44.6955;stroke-linejoin:round;paint-order:stroke fill markers"
     id="path2101" />
  <g
     style="fill:#d22e1f;fill-opacity:1"
     transform="matrix(0.54228301,0,0,0.54228301,1561.0383,859.46981)"
     id="g2094" />
  <path
     style="fill:#d22e1f;fill-opacity:1"
     d="m 1757.9316,3430 c 56,0 100,-44 100,-100 0,-56 -44,-100 -100,-100 -56,0 -100,44 -100,100 0,56 44,100 100,100 z m 300,0 c 56,0 100,-44 100,-100 0,-56 -44,-100 -100,-100 -56,0 -100,44 -100,100 0,56 44,100 100,100 z"
     id="path991" />
  <g
     id="g1587">
    <path
       id="path1636"
       d="M 667.93164 250 C 607.93164 386 497.93164 490 367.93164 550 C 373.93164 550 467.93164 552 467.93164 650 L 467.93164 690 L 467.93164 3230 L 467.93164 3330 L 1867.9316 3330 L 1867.9316 3590 L 1867.9316 3630 L 1867.9316 3682 C 1867.9316 3708 1845.9316 3730 1817.9316 3730 C 1789.9316 3730 1767.9316 3708 1767.9316 3682 L 1767.9316 3590 L 1767.9316 3430 L 467.93164 3430 L 467.93164 3630 L 467.93164 3930 C 513.93164 3814 637.93164 3730 767.93164 3730 C 767.93164 3730 667.93164 3730 667.93164 3630 L 1567.9316 3630 L 1567.9316 3678 C 1567.9316 3816 1677.9316 3930 1817.9316 3930 C 1955.9316 3930 2067.9316 3816 2067.9316 3678 L 2067.9316 3630 L 2267.9316 3630 L 2367.9316 3630 L 2705.8418 3630 C 2718.3336 3770.4413 2802.8159 3891.9746 2927.9316 3930 C 2797.9316 3682 2879.9316 3486 3033.9316 3366 C 3167.9316 3262 3337.9316 3230 3467.9316 3230 C 3426.8252 3065.5742 3294.16 2933.6044 3129.9316 2879.9551 C 3129.8929 2753.9994 2967.9316 2749.9856 2967.9316 2630 C 2967.9316 2749.9856 2805.9704 2753.9994 2805.9316 2879.9551 C 2641.7033 2933.6044 2509.0381 3065.5742 2467.9316 3230 C 2563.9316 3230 2685.9316 3244 2795.9316 3296 C 2839.9316 3242 2891.9316 3194 2949.9316 3154 C 2913.6873 3131.3473 2874.5605 3111.5789 2833.127 3094.8594 C 2859.2885 3077.1512 2886.1917 3064.348 2917.9316 3058 C 2923.9316 3022 2931.9316 3014 2967.9316 2988 C 3003.9316 3014 3011.9316 3022 3017.9316 3058 C 3050.0492 3064.4235 3077.2144 3077.4572 3103.6699 3095.4941 C 2939.9462 3160.7262 2836.408 3265.694 2775.9316 3358 C 2760.5565 3381.4782 2747.8235 3405.5838 2737.5625 3430 L 2367.9316 3430 L 2367.9316 3130 L 2367.9316 2830 C 2321.9316 2946 2197.9316 3030 2067.9316 3030 C 2067.9316 3030 2167.9316 3030 2167.9316 3130 L 2167.9316 3170 L 2167.9316 3430 L 2067.9316 3430 L 2067.9316 3330 L 2067.9316 3130 L 1867.9316 3130 L 667.93164 3130 L 667.93164 690 L 667.93164 550 L 667.93164 250 z M 4367.9316 2830 C 4095.9316 2938 3733.9316 3024 3467.9316 3030 C 3467.9316 3030 3567.9316 3030 3567.9316 3130 L 3567.9316 3430 L 3467.9316 3430 L 3367.9316 3430 L 3198.3008 3430 C 3188.0398 3405.5838 3175.3068 3381.4782 3159.9316 3358 C 3151.9316 3348 3145.9316 3336 3135.9316 3324 C 3081.9316 3354 3027.9316 3390 2981.9316 3442 C 3025.4235 3495.2554 3056.2928 3557.9719 3067.9316 3628.7363 L 3067.9316 3630 L 3068.1367 3630 C 3082.3685 3718.3872 3066.6096 3819.2868 3007.9316 3930 C 3133.0474 3891.9746 3217.5297 3770.4413 3230.0215 3630 L 3367.9316 3630 L 3467.9316 3630 L 3867.9316 3630 L 3867.9316 3678 C 3867.9316 3816 3977.9316 3930 4117.9316 3930 C 4255.9316 3930 4367.9316 3816 4367.9316 3678 L 4367.9316 3590 L 4367.9316 2830 z M 4067.9316 2930 C 4067.9316 2930 4167.9316 2930 4167.9316 3030 L 4167.9316 3590 L 4167.9316 3682 C 4167.9316 3708 4145.9316 3730 4117.9316 3730 C 4089.9316 3730 4067.9316 3708 4067.9316 3682 L 4067.9316 3590 L 4067.9316 2930 z M 3767.9316 2998 C 3767.9316 2998 3867.9316 2998 3867.9316 3098 L 3867.9316 3430 L 3767.9316 3430 L 3767.9316 2998 z "
       transform="translate(-500,-500)" />
    <path
       id="path1598"
       d="M 767.93164 250 L 767.93164 690 L 767.93164 2250 L 767.93164 2350 L 2067.9316 2350 L 2067.9316 2150 L 2067.9316 2098 C 2067.9316 2072 2089.9316 2050 2117.9316 2050 C 2145.9316 2050 2167.9316 2072 2167.9316 2098 L 2167.9316 2150 L 2167.9316 2190 L 2167.9316 2450 L 767.93164 2450 L 767.93164 2650 L 767.93164 2950 C 813.93164 2834 937.93172 2750 1067.9316 2750 C 1067.9316 2750 967.93164 2750 967.93164 2650 L 2167.9316 2650 L 2267.9316 2650 L 2367.9316 2650 L 2567.9316 2650 L 2667.9316 2650 L 3443.9316 2650 C 3327.9316 2604 3243.9316 2480 3243.9316 2350 C 3223.9316 2406 3167.9316 2450 3103.9316 2450 C 3021.9316 2450 2953.9316 2382 2953.9316 2300 C 2953.9316 2218 3021.9316 2150 3103.9316 2150 C 3155.9316 2150 3203.9316 2178 3229.9316 2220 C 3217.9316 2146 3193.9316 2100 3115.9316 2070 C 3147.9316 2004 3141.9316 1918 3103.9316 1850 C 3091.9316 1934 3053.9316 2004 2925.9316 2068 C 2777.9316 2142 2717.9316 2292 2767.9316 2450 L 2667.9316 2450 L 2667.9316 2150 L 2667.9316 1850 C 2621.9316 1966 2497.9316 2050 2367.9316 2050 C 2367.9316 2050 2467.9316 2050 2467.9316 2150 L 2467.9316 2190 L 2467.9316 2450 L 2367.9316 2450 L 2367.9316 2190 L 2367.9316 2150 L 2367.9316 2102 C 2367.9316 1964 2255.9316 1850 2117.9316 1850 C 1977.9316 1850 1867.9316 1964 1867.9316 2102 L 1867.9316 2150 L 967.93164 2150 L 967.93164 650 C 967.93164 552 1061.9316 550 1067.9316 550 C 937.93172 490 827.93164 386 767.93164 250 z "
       transform="translate(-500,-500)" />
  </g>
  <path
     style="fill:#d22e1f;fill-opacity:1"
     d="m 917.9316,2450 c 56,0 100,-44 100,-100 0,-56 -44,-100 -100,-100 -56,0 -100,44 -100,100 0,56 44,100 100,100 z m 300,0 c 56,0 100,-44 100,-100 0,-56 -44,-100 -100,-100 -56,0 -100,44 -100,100 0,56 44,100 100,100 z"
     id="path1003" />
  <path
     transform="translate(-500,-500)"
     d="M 1351.3203 3726.4043 L 1327.0098 3732.4824 L 1327.0098 3875.3027 L 1320.9316 3875.3027 L 1313.9434 3875.3027 C 1309.3852 3846.4346 1291.76 3841.877 1280.2129 3841.877 L 1181.1504 3841.877 L 1189.3555 3820.6055 L 1188.4434 3820.6055 L 1164.1328 3863.1484 L 1277.1738 3863.1484 C 1283.859 3863.1484 1289.3301 3868.6174 1289.3301 3875.3027 L 1156.8398 3875.3027 L 1144.6855 3896.5742 L 1320.9316 3896.5742 L 1327.0098 3896.5742 L 1339.7734 3896.5742 C 1346.7625 3896.5742 1351.3203 3892.0149 1351.3203 3884.418 L 1351.3203 3726.4043 z M 1387.7852 3726.4043 L 1363.4746 3732.4824 L 1363.4746 3884.418 C 1363.4746 3892.0149 1368.0324 3896.5742 1375.0215 3896.5742 L 1393.8613 3896.5742 L 1399.9395 3896.5742 L 1496.875 3896.5742 L 1509.334 3875.3027 L 1467.7031 3875.3027 C 1450.0785 3875.3027 1431.5422 3855.5504 1413.0059 3832.7598 L 1399.9395 3854.0312 C 1405.7131 3862.5397 1414.2212 3871.3523 1418.7793 3875.3027 L 1399.9395 3875.3027 L 1393.8613 3875.3027 L 1390.8242 3875.3027 C 1388.697 3875.3027 1387.7852 3874.3907 1387.7852 3872.2637 L 1387.7852 3726.4043 z M 913.71289 3796.6387 L 889.46094 3802.8828 L 889.45703 3808.6152 L 913.76172 3802.5801 L 913.71289 3796.6387 z M 913.74023 3814.5273 L 889.43164 3820.6055 L 889.43164 3875.3027 L 883.35352 3875.3027 L 880.01172 3875.3027 C 877.2769 3875.3027 875.75661 3873.7839 874.54102 3872.5684 L 855.09375 3853.1191 C 839.90008 3837.9254 826.5293 3883.204 826.5293 3898.0938 C 826.5293 3923.923 843.84931 3929.6962 866.33594 3930 L 1478.5059 3930 L 1490.9648 3908.7285 L 874.8457 3908.7285 C 865.12178 3908.7285 858.43637 3907.8172 851.44727 3900.8281 L 842.02734 3891.4082 C 836.86158 3886.2423 839.59533 3871.9605 843.84961 3876.2148 L 859.65234 3892.0156 C 862.69114 3895.0544 865.42573 3896.5742 869.07227 3896.5742 L 883.35352 3896.5742 L 889.43164 3896.5742 L 919.81836 3896.5742 L 925.89648 3896.5742 L 1029.2129 3896.5742 L 1035.291 3896.5742 L 1132.2266 3896.5742 L 1144.6855 3875.3027 L 1103.0547 3875.3027 C 1085.4301 3875.3027 1066.8938 3855.5504 1048.3574 3832.7598 L 1035.291 3854.0312 C 1041.0646 3862.5397 1049.5727 3871.3523 1054.1309 3875.3027 L 1035.291 3875.3027 C 1028.6058 3875.3027 1023.1348 3869.8336 1023.1348 3863.1484 L 1023.1348 3814.5273 L 998.82617 3820.6055 L 998.82617 3875.3027 C 992.14095 3875.3027 986.66992 3869.8336 986.66992 3863.1484 L 986.66992 3823.6445 L 962.36133 3829.7227 L 962.36133 3875.3027 C 955.6761 3875.3027 950.20508 3869.8336 950.20508 3863.1484 L 950.20508 3832.7598 L 925.89648 3838.8379 L 925.89648 3875.3027 C 919.21126 3875.3027 913.74023 3869.8336 913.74023 3863.1484 L 913.74023 3814.5273 z M 1470.7969 3819.998 L 1456.5156 3844.0039 L 1461.6816 3847.043 L 1475.9629 3823.0371 L 1470.7969 3819.998 z "
     style="stroke-width:0.151937"
     id="path1660" />
  <path
     transform="translate(-500,-500)"
     d="M 1343.6641 1435.2344 L 1314.4414 1442.5391 L 1314.4414 1614.2207 L 1307.1348 1614.2207 L 1299.8301 1614.2207 L 1299.8301 1566.7344 C 1299.8301 1548.4705 1283.393 1533.8594 1263.3027 1533.8594 C 1243.2124 1533.8594 1226.7734 1548.4705 1226.7734 1566.7344 C 1226.7734 1584.9982 1243.2124 1599.6094 1263.3027 1599.6094 C 1265.8597 1599.6094 1268.4158 1599.2442 1270.6074 1598.8789 L 1270.6074 1614.2207 L 1131.8027 1614.2207 C 1123.7666 1614.2207 1117.9223 1611.6627 1114.2695 1606.9141 L 1095.2734 1639.7891 L 1307.1348 1639.7891 L 1314.4414 1639.7891 L 1329.7832 1639.7891 C 1338.1846 1639.7891 1343.6641 1634.3097 1343.6641 1625.1777 L 1343.6641 1435.2344 z M 1387.4961 1435.2344 L 1358.2734 1442.5391 L 1358.2734 1610.5684 C 1358.2734 1628.8323 1371.7893 1639.7891 1386.4004 1639.7891 C 1397.3587 1639.7891 1408.6826 1633.9449 1416.7188 1621.5254 C 1413.4312 1622.9865 1409.0474 1624.082 1404.6641 1624.082 C 1395.8974 1624.082 1387.4961 1620.0656 1387.4961 1610.5684 L 1387.4961 1435.2344 z M 1588.3984 1435.2344 L 1559.1777 1442.5391 L 1559.1777 1573.6738 C 1556.6208 1574.0391 1554.428 1574.0391 1551.8711 1574.0391 C 1531.7808 1574.0391 1515.3438 1588.6502 1515.3438 1606.9141 C 1515.3438 1628.8308 1531.7808 1639.7891 1551.8711 1639.7891 L 1595.7051 1639.7891 L 1603.0098 1639.7891 L 1624.5625 1639.7891 C 1626.7541 1639.7891 1632.2324 1639.7895 1632.2324 1635.7715 L 1632.2324 1555.7754 L 1603.0098 1563.082 L 1603.0098 1614.2207 L 1595.7051 1614.2207 L 1588.3984 1614.2207 L 1588.3984 1606.9141 L 1588.3984 1559.4277 L 1588.3984 1435.2344 z M 1676.0664 1435.2344 L 1646.8438 1442.5391 L 1646.8438 1625.1777 C 1646.8438 1634.3097 1652.3232 1639.7891 1660.7246 1639.7891 L 1683.3711 1639.7891 L 1690.6777 1639.7891 L 1727.2051 1639.7891 C 1750.9481 1639.7891 1763.7324 1628.8308 1763.7324 1606.9141 C 1763.7324 1588.6502 1747.2953 1574.0391 1727.2051 1574.0391 C 1707.1148 1574.0391 1690.6777 1588.6502 1690.6777 1606.9141 C 1690.6777 1609.4711 1691.043 1612.029 1691.4082 1614.2207 L 1690.6777 1614.2207 L 1683.3711 1614.2207 L 1679.7188 1614.2207 C 1677.1618 1614.2207 1676.0664 1613.1253 1676.0664 1610.5684 L 1676.0664 1435.2344 z M 2093.9434 1435.2344 L 2064.7227 1442.5391 L 2064.7227 1610.5684 C 2064.7227 1628.8323 2078.2366 1639.7891 2092.8477 1639.7891 C 2103.8061 1639.7891 2115.1299 1633.9449 2123.166 1621.5254 C 2119.8785 1622.9865 2115.4947 1624.082 2111.1113 1624.082 C 2102.3446 1624.082 2093.9434 1620.0656 2093.9434 1610.5684 L 2093.9434 1435.2344 z M 2661.9512 1435.2344 L 2632.7285 1442.5391 L 2632.7285 1610.5684 C 2632.7285 1628.8323 2646.2444 1639.7891 2660.8555 1639.7891 C 2671.8139 1639.7891 2683.1377 1633.9449 2691.1738 1621.5254 C 2687.8863 1622.9865 2683.5025 1624.082 2679.1191 1624.082 C 2670.3525 1624.082 2661.9512 1620.0656 2661.9512 1610.5684 L 2661.9512 1435.2344 z M 3254.4316 1435.2344 L 3225.209 1442.5391 L 3225.209 1610.5684 C 3225.209 1628.8323 3238.7248 1639.7891 3253.3359 1639.7891 C 3264.2943 1639.7891 3275.6182 1633.9449 3283.6543 1621.5254 C 3280.3668 1622.9865 3275.983 1624.082 3271.5996 1624.082 C 3262.833 1624.082 3254.4316 1620.0656 3254.4316 1610.5684 L 3254.4316 1435.2344 z M 3367.668 1435.2344 L 3338.4453 1442.5391 L 3338.4453 1573.6738 C 3335.8883 1574.0391 3333.6976 1574.0391 3331.1406 1574.0391 C 3311.0504 1574.0391 3294.6113 1588.6502 3294.6113 1606.9141 C 3294.6113 1628.8308 3311.0504 1639.7891 3331.1406 1639.7891 L 3374.9727 1639.7891 L 3382.2793 1639.7891 L 3418.8066 1639.7891 L 3426.1133 1639.7891 L 3535.3301 1639.7891 C 3537.5217 1639.7891 3543.002 1639.7895 3543.002 1635.7715 L 3543.002 1541.1641 L 3513.7793 1548.4707 L 3513.7793 1614.2207 C 3505.7432 1614.2207 3499.168 1607.6455 3499.168 1599.6094 L 3499.168 1552.123 L 3469.9453 1559.4277 L 3469.9453 1614.2207 C 3461.9092 1614.2207 3455.334 1607.6455 3455.334 1599.6094 L 3455.334 1563.082 L 3426.1133 1570.3867 L 3426.1133 1614.2207 C 3418.0772 1614.2207 3411.502 1607.6455 3411.502 1599.6094 L 3411.502 1541.1641 L 3382.2793 1548.4707 L 3382.2793 1614.2207 L 3374.9727 1614.2207 L 3367.668 1614.2207 L 3367.668 1606.9141 L 3367.668 1559.4277 L 3367.668 1435.2344 z M 3690.209 1435.2344 L 3660.9863 1442.5391 L 3660.9863 1614.2207 L 3653.6797 1614.2207 L 3642.7227 1614.2207 C 3629.9379 1603.6276 3611.3076 1596.3213 3587.1992 1588.6504 L 3557.6133 1639.7891 L 3620.8047 1639.7891 C 3628.8408 1639.7891 3635.416 1646.3643 3635.416 1654.4004 L 3549.2109 1654.4004 L 3534.5996 1679.9707 L 3658.4297 1679.9707 C 3660.6214 1679.9707 3666.0996 1679.9696 3666.0996 1672.2988 C 3666.0996 1659.3258 3664.3157 1648.4959 3661.1113 1639.7891 L 3898.416 1639.7891 L 3905.7227 1639.7891 L 3986.084 1639.7891 L 3993.3887 1639.7891 L 4008.7305 1639.7891 C 4017.1319 1639.7891 4022.6113 1634.3097 4022.6113 1625.1777 L 4022.6113 1435.2344 L 3993.3887 1442.5391 L 3993.3887 1614.2207 L 3986.084 1614.2207 L 3978.7773 1614.2207 L 3978.7773 1566.7344 C 3978.7773 1548.4705 3962.3403 1533.8594 3942.25 1533.8594 C 3922.1597 1533.8594 3905.7227 1548.4705 3905.7227 1566.7344 C 3905.7227 1584.9982 3922.1597 1599.6094 3942.25 1599.6094 C 3944.807 1599.6094 3947.363 1599.2442 3949.5547 1598.8789 L 3949.5547 1614.2207 L 3905.7227 1614.2207 L 3898.416 1614.2207 L 3890.0156 1614.2207 C 3884.5364 1579.5193 3863.3493 1574.0391 3849.4688 1574.0391 L 3690.209 1574.0391 L 3690.209 1435.2344 z M 4066.4453 1435.2344 L 4037.2227 1442.5391 L 4037.2227 1614.2207 C 4037.2227 1625.179 4032.4738 1632.4844 4022.6113 1632.4844 C 4026.264 1636.1371 4033.5694 1639.7891 4041.6055 1639.7891 C 4055.4861 1639.7891 4066.4453 1628.8323 4066.4453 1610.5684 L 4066.4453 1435.2344 z M 2196.2227 1533.8594 C 2176.1324 1533.8594 2159.6934 1548.4705 2159.6934 1566.7344 C 2159.6934 1584.9982 2176.1324 1599.6094 2196.2227 1599.6094 C 2199.8754 1599.6094 2203.5269 1599.2443 2207.1797 1598.1484 C 2207.9103 1600.7054 2207.9102 1603.6266 2207.9102 1606.1836 C 2207.9102 1608.7405 2207.9103 1611.6637 2207.1797 1614.2207 L 2167 1614.2207 C 2158.9639 1614.2207 2153.1196 1611.6627 2149.4668 1606.9141 L 2130.4727 1639.7891 L 2219.2344 1639.7891 C 2230.558 1639.7891 2233.8455 1634.6748 2235.6719 1625.9082 C 2237.133 1619.6984 2237.498 1611.6632 2237.498 1602.166 C 2237.498 1589.016 2236.0374 1575.501 2233.8457 1566.3691 C 2228.3665 1545.9135 2214.4866 1533.8594 2196.2227 1533.8594 z M 1860.166 1541.1641 L 1830.9434 1548.4707 L 1830.9434 1584.998 L 1801.7227 1555.7754 L 1786.3809 1581.7109 L 1818.8906 1614.2207 L 1818.5234 1614.2207 C 1783.4568 1614.2207 1763.7324 1642.7114 1763.7324 1672.6641 C 1763.7324 1710.653 1795.1474 1731.1094 1836.4238 1731.1094 C 1852.1307 1731.1094 1868.9323 1728.1871 1896.6934 1715.4023 C 1878.7948 1718.3246 1866.011 1719.7852 1856.5137 1719.7852 C 1826.1957 1719.7852 1792.9551 1706.6348 1792.9551 1673.7598 C 1792.9551 1649.2862 1811.219 1639.7891 1825.8301 1639.7891 L 1867.4727 1639.7891 L 1874.7773 1639.7891 L 1896.3281 1639.7891 C 1898.5198 1639.7891 1904 1639.7895 1904 1635.7715 L 1904 1555.7754 L 1874.7773 1563.082 L 1874.7773 1614.2207 L 1867.4727 1614.2207 L 1860.166 1614.2207 L 1860.166 1541.1641 z M 2428.1738 1541.1641 L 2398.9512 1548.4707 L 2398.9512 1584.998 L 2369.7285 1555.7754 L 2354.3867 1581.7109 L 2386.8965 1614.2207 L 2354.3867 1614.2207 C 2346.3506 1614.2207 2339.7754 1607.6455 2339.7754 1599.6094 L 2339.7754 1555.7754 L 2310.5527 1563.082 L 2310.5527 1614.2207 L 2303.248 1614.2207 L 2292.2891 1614.2207 L 2266.7207 1588.6504 L 2252.1094 1614.2207 L 2266.7207 1628.832 L 2266.7207 1705.5391 L 2230.1934 1705.5391 C 2222.8878 1705.5391 2216.6782 1703.7136 2212.6602 1698.2344 L 2193.6641 1731.1094 L 2282.0625 1731.1094 C 2290.4639 1731.1094 2295.9434 1725.6299 2295.9434 1716.498 L 2295.9434 1639.7891 L 2303.248 1639.7891 L 2310.5527 1639.7891 L 2347.082 1639.7891 L 2354.3867 1639.7891 L 2435.4785 1639.7891 L 2442.7852 1639.7891 L 2464.3359 1639.7891 C 2466.5276 1639.7891 2472.0059 1639.7895 2472.0059 1635.7715 L 2472.0059 1555.7754 L 2442.7852 1563.082 L 2442.7852 1614.2207 L 2435.4785 1614.2207 L 2428.1738 1614.2207 L 2428.1738 1541.1641 z M 2919.8379 1548.4707 L 2890.6152 1599.6094 L 3026.498 1599.6094 C 3034.5341 1599.6094 3041.1094 1606.1846 3041.1094 1614.2207 L 2881.8477 1614.2207 L 2867.2363 1639.7891 L 3071.793 1639.7891 L 3086.4043 1639.7891 L 3195.6211 1639.7891 L 3210.5977 1614.2207 L 3160.5547 1614.2207 C 3139.3685 1614.2207 3117.0867 1590.4778 3094.8047 1563.082 L 3079.0977 1588.6504 C 3086.038 1598.8782 3096.267 1609.4721 3101.7461 1614.2207 L 3086.4043 1614.2207 L 3071.793 1614.2207 L 3070.6973 1614.2207 C 3065.2181 1579.5193 3044.0309 1574.0391 3030.1504 1574.0391 L 2911.0703 1574.0391 L 2920.9336 1548.4707 L 2919.8379 1548.4707 z M 4126.3496 1548.4707 L 4097.127 1599.6094 L 4233.0117 1599.6094 C 4241.0478 1599.6094 4247.623 1606.1846 4247.623 1614.2207 L 4088.3613 1614.2207 L 4073.75 1639.7891 L 4285.6113 1639.7891 L 4292.916 1639.7891 L 4329.4453 1639.7891 L 4336.75 1639.7891 L 4427.7051 1639.7891 L 4442.6816 1614.2207 L 4391.9062 1614.2207 C 4380.2173 1614.2207 4360.8594 1597.0521 4360.8594 1585.7285 C 4360.8594 1575.1354 4384.6006 1561.2545 4391.9062 1556.8711 L 4391.541 1555.7754 C 4372.1813 1565.2726 4338.2109 1582.4413 4338.2109 1599.9746 C 4338.2109 1604.7233 4340.4035 1609.4721 4346.248 1614.2207 L 4336.75 1614.2207 C 4328.7139 1614.2207 4322.1387 1607.6455 4322.1387 1599.6094 L 4322.1387 1555.7754 L 4292.916 1563.082 L 4292.916 1614.2207 L 4285.6113 1614.2207 L 4277.209 1614.2207 C 4271.7299 1579.5193 4250.5447 1574.0391 4236.6641 1574.0391 L 4117.584 1574.0391 L 4127.4453 1548.4707 L 4126.3496 1548.4707 z M 1263.3027 1559.4277 C 1267.3208 1559.4277 1270.6074 1562.7163 1270.6074 1566.7344 C 1270.6074 1570.7524 1267.3208 1574.0391 1263.3027 1574.0391 C 1259.2847 1574.0391 1255.9961 1570.7524 1255.9961 1566.7344 C 1255.9961 1562.7163 1259.2847 1559.4277 1263.3027 1559.4277 z M 2196.2227 1559.4277 C 2200.2407 1559.4277 2203.5273 1562.7163 2203.5273 1566.7344 C 2203.5273 1570.7524 2200.2407 1574.0391 2196.2227 1574.0391 C 2192.2046 1574.0391 2188.916 1570.7524 2188.916 1566.7344 C 2188.916 1562.7163 2192.2046 1559.4277 2196.2227 1559.4277 z M 3942.25 1559.4277 C 3946.2681 1559.4277 3949.5547 1562.7163 3949.5547 1566.7344 C 3949.5547 1570.7524 3946.2681 1574.0391 3942.25 1574.0391 C 3938.232 1574.0391 3934.9453 1570.7524 3934.9453 1566.7344 C 3934.9453 1562.7163 3938.232 1559.4277 3942.25 1559.4277 z M 1963.9043 1561.2559 L 1941.9883 1599.6094 L 2004.8164 1599.6094 C 2012.8525 1599.6094 2019.4277 1606.1846 2019.4277 1614.2207 L 1933.2227 1614.2207 L 1918.6113 1639.7891 L 2042.4395 1639.7891 C 2044.6311 1639.7891 2050.1113 1639.7899 2050.1113 1632.1191 C 2050.1113 1581.3455 2025.271 1564.5434 1963.9043 1561.2559 z M 2531.9121 1561.2559 L 2509.9961 1599.6094 L 2572.8242 1599.6094 C 2580.8603 1599.6094 2587.4336 1606.1846 2587.4336 1614.2207 L 2501.2285 1614.2207 L 2486.6172 1639.7891 L 2610.4473 1639.7891 C 2612.6389 1639.7891 2618.1172 1639.7899 2618.1172 1632.1191 C 2618.1172 1581.3455 2593.2788 1564.5434 2531.9121 1561.2559 z M 1464.2051 1574.0391 C 1444.1148 1574.0391 1427.6777 1588.6502 1427.6777 1606.9141 C 1427.6777 1625.178 1444.1148 1639.7891 1464.2051 1639.7891 C 1467.8579 1639.7891 1471.5113 1639.424 1475.1641 1638.3281 C 1475.8946 1640.8851 1475.8945 1643.8083 1475.8945 1646.3652 C 1475.8945 1648.9222 1475.8946 1651.8435 1475.1641 1654.4004 L 1434.9824 1654.4004 C 1426.9463 1654.4004 1421.102 1651.8443 1417.4492 1647.0957 L 1398.4551 1679.9707 L 1487.2168 1679.9707 C 1498.5404 1679.9707 1501.8279 1674.8565 1503.6543 1666.0898 C 1505.1154 1659.8801 1505.4805 1651.8429 1505.4805 1642.3457 C 1505.4805 1629.1957 1504.0198 1615.6808 1501.8281 1606.5488 C 1496.349 1586.0933 1482.469 1574.0391 1464.2051 1574.0391 z M 2738.6602 1574.0391 C 2718.5699 1574.0391 2702.1309 1588.6502 2702.1309 1606.9141 C 2702.1309 1625.178 2718.5699 1639.7891 2738.6602 1639.7891 C 2742.313 1639.7891 2745.9644 1639.424 2749.6172 1638.3281 C 2750.3477 1640.8851 2750.3477 1643.8083 2750.3477 1646.3652 C 2750.3477 1648.9222 2750.3477 1651.8435 2749.6172 1654.4004 L 2709.4375 1654.4004 C 2701.4014 1654.4004 2695.5571 1651.8443 2691.9043 1647.0957 L 2672.9102 1679.9707 L 2761.6719 1679.9707 C 2772.9955 1679.9707 2776.283 1674.8565 2778.1094 1666.0898 C 2779.5705 1659.8801 2779.9355 1651.8429 2779.9355 1642.3457 C 2779.9355 1629.1957 2778.4749 1615.6808 2776.2832 1606.5488 C 2770.8041 1586.0933 2756.9241 1574.0391 2738.6602 1574.0391 z M 2816.5977 1583.8594 C 2801.6677 1583.8769 2789.7988 1626.2336 2789.7988 1641.6152 C 2789.7988 1672.6638 2810.6199 1679.6054 2837.6504 1679.9707 L 3520.7188 1679.9707 L 3535.6953 1654.4004 L 2844.2246 1654.4004 C 2832.5357 1654.4004 2828.1534 1653.3057 2819.752 1644.9043 L 2808.4277 1633.5801 C 2802.218 1627.3704 2805.5052 1610.2025 2810.6191 1615.3164 L 2829.6133 1634.3105 C 2833.2661 1637.9632 2836.5542 1639.7891 2840.9375 1639.7891 C 2846.782 1639.7891 2859.9313 1636.1363 2863.584 1606.9141 C 2862.4882 1612.3933 2857.3754 1614.2207 2854.0879 1614.2207 C 2850.8004 1614.2207 2848.9728 1612.3947 2847.5117 1610.9336 L 2824.1348 1587.5547 C 2821.5664 1584.9863 2819.0407 1583.8565 2816.5977 1583.8594 z M 1464.2051 1599.6094 C 1468.2231 1599.6094 1471.5098 1602.8961 1471.5098 1606.9141 C 1471.5098 1610.9322 1468.2231 1614.2207 1464.2051 1614.2207 C 1460.187 1614.2207 1456.8984 1610.9322 1456.8984 1606.9141 C 1456.8984 1602.8961 1460.187 1599.6094 1464.2051 1599.6094 z M 1551.8711 1599.6094 C 1555.8891 1599.6094 1559.1777 1602.8961 1559.1777 1606.9141 C 1559.1777 1610.9322 1555.8891 1614.2207 1551.8711 1614.2207 C 1547.853 1614.2207 1544.5664 1610.9322 1544.5664 1606.9141 C 1544.5664 1602.8961 1547.853 1599.6094 1551.8711 1599.6094 z M 1727.2051 1599.6094 C 1731.2231 1599.6094 1734.5098 1602.8961 1734.5098 1606.9141 C 1734.5098 1610.9322 1731.2231 1614.2207 1727.2051 1614.2207 C 1723.187 1614.2207 1719.8984 1610.9322 1719.8984 1606.9141 C 1719.8984 1602.8961 1723.187 1599.6094 1727.2051 1599.6094 z M 2738.6602 1599.6094 C 2742.6783 1599.6094 2745.9648 1602.8961 2745.9648 1606.9141 C 2745.9648 1610.9322 2742.6783 1614.2207 2738.6602 1614.2207 C 2734.6422 1614.2207 2731.3535 1610.9322 2731.3535 1606.9141 C 2731.3535 1602.8961 2734.6422 1599.6094 2738.6602 1599.6094 z M 3331.1406 1599.6094 C 3335.1587 1599.6094 3338.4453 1602.8961 3338.4453 1606.9141 C 3338.4453 1610.9322 3335.1587 1614.2207 3331.1406 1614.2207 C 3327.1226 1614.2207 3323.834 1610.9322 3323.834 1606.9141 C 3323.834 1602.8961 3327.1226 1599.6094 3331.1406 1599.6094 z M 3690.209 1599.6094 L 3845.8164 1599.6094 C 3853.8525 1599.6094 3860.4277 1606.1846 3860.4277 1614.2207 L 3690.209 1614.2207 L 3690.209 1599.6094 z "
     style="fill:#d22e1f;fill-opacity:1;stroke:none;stroke-width:0.182639;stroke-opacity:1"
     id="path3729" />
  <path
     sodipodi:nodetypes="ssssssssssssss"
     d="m 3445.4275,1359.3026 c -108.5279,0 -212.6108,43.1126 -289.3517,119.8534 -76.7408,76.7409 -119.8534,180.8238 -119.8534,289.3517 0,108.5279 43.1126,212.6108 119.8534,289.3517 76.7409,76.7408 180.8238,119.8534 289.3517,119.8534 108.5279,0 212.6108,-43.1126 289.3517,-119.8534 76.7408,-76.7409 119.8534,-180.8238 119.8534,-289.3517 0,-108.5279 -43.1126,-212.6108 -119.8534,-289.3517 -76.7409,-76.7408 -180.8238,-119.8534 -289.3517,-119.8534 z m 0,59.4824 c 192.91,0 349.7227,156.8146 349.7227,349.7246 -1e-4,192.91 -156.8128,349.7227 -349.7227,349.7227 -192.9099,0 -349.7226,-156.8127 -349.7227,-349.7227 0,-192.91 156.8127,-349.7246 349.7227,-349.7246 z"
     style="fill:#d22e1f;fill-opacity:1;stroke:none;stroke-width:44.6955;stroke-linejoin:round;paint-order:stroke fill markers"
     id="path2114" />
</svg>
