<?xml version="1.0" encoding="UTF-8" standalone="no"?>
<svg
   xmlns:dc="http://purl.org/dc/elements/1.1/"
   xmlns:cc="http://creativecommons.org/ns#"
   xmlns:rdf="http://www.w3.org/1999/02/22-rdf-syntax-ns#"
   xmlns:svg="http://www.w3.org/2000/svg"
   xmlns="http://www.w3.org/2000/svg"
   xmlns:sodipodi="http://sodipodi.sourceforge.net/DTD/sodipodi-0.dtd"
   xmlns:inkscape="http://www.inkscape.org/namespaces/inkscape"
   inkscape:version="1.0 (4035a4f, 2020-05-01)"
   sodipodi:docname="document-17.svg"
   id="svg853"
   viewBox="-500 -500 8376 4700"
   height="4700"
   width="8376"
   version="1.1">
  <metadata
     id="metadata859">
    <rdf:RDF>
      <cc:Work
         rdf:about="">
        <dc:format>image/svg+xml</dc:format>
        <dc:type
           rdf:resource="http://purl.org/dc/dcmitype/StillImage" />
        <dc:title></dc:title>
      </cc:Work>
    </rdf:RDF>
  </metadata>
  <defs
     id="defs857" />
  <sodipodi:namedview
     fit-margin-bottom="500"
     fit-margin-left="500"
     fit-margin-right="500"
     fit-margin-top="500"
     inkscape:current-layer="svg853"
     inkscape:window-maximized="1"
     inkscape:window-y="23"
     inkscape:window-x="0"
     inkscape:cy="872.74611"
     inkscape:cx="937.04663"
     inkscape:zoom="0.068928572"
     inkscape:guide-bbox="true"
     showguides="true"
     showgrid="false"
     id="namedview855"
     inkscape:window-height="1081"
     inkscape:window-width="2048"
     inkscape:pageshadow="2"
     inkscape:pageopacity="0"
     guidetolerance="10"
     gridtolerance="10"
     objecttolerance="10"
     borderopacity="1"
     bordercolor="#666666"
     pagecolor="#ffffff">
    <sodipodi:guide
       id="guide911"
       orientation="0,-1"
       position="1234.6418,2605.5937" />
  </sodipodi:namedview>
  <path
     id="path843"
     d="" />
  <g
     transform="translate(-100,1000)"
     id="g1622">
    <path
       d="m 200,2360 v 340 c 46,-116 170,-200 300,-200 0,0 -100,0 -100,-100 v -40 z"
       id="path895" />
    <path
       d="M 400,-560 H 200 v -40 c 0,-98 -94,-100 -100,-100 130,-60 240,-164 300,-300 z"
       id="path893" />
    <path
       d="M 200,2000 H 400 V -640 H 200 Z"
       id="path891"
       sodipodi:nodetypes="ccccc" />
    <path
       d="m 1350,2700 c 138,0 250,-114 250,-252 v -88 h -200 v 92 c 0,26 -22,48 -50,48 -28,0 -50,-22 -50,-48 v -92 h -200 v 88 c 0,138 110,252 250,252 z"
       id="path889" />
    <path
       d="m 1400,2400 h 200 v -500 h -200 z"
       id="path887" />
    <path
       d="m 200,1900 v 200 h 1400 v -200 z"
       id="path885"
       sodipodi:nodetypes="ccccc" />
    <path
       d="M 200,2400 H 1300 V 2200 H 200 Z"
       id="path833"
       sodipodi:nodetypes="ccccc" />
    <path
       style="fill:#d22e1f;fill-opacity:1"
       d="m 2150,2700 c 56,0 100,-44 100,-100 0,-56 -44,-100 -100,-100 -56,0 -100,44 -100,100 0,56 44,100 100,100 z m 300,0 c 56,0 100,-44 100,-100 0,-56 -44,-100 -100,-100 -56,0 -100,44 -100,100 0,56 44,100 100,100 z"
       id="path835" />
    <path
       d="m 1500,2400 h 400 v -500 h -200 v 300 h -200 z m 400,-460 v -340 c -46,116 -170,200 -300,200 0,0 100,0 100,100 v 40 z"
       id="path837" />
    <path
       d="m 2138,1870 c 48,-38 100,-68 144,-100 -40,-34 -72,-72 -86,-128 -14,-56 -2,-114 54,-142 -90,0 -188,60 -188,200 0,70 32,124 76,170 z m -338,530 h 800 v -200 c 0,-156 -62,-240 -138,-302 -46,44 -100,80 -146,114 58,50 84,96 84,188 h -200 c 0,-100 30,-146 100,-200 104,-80 238,-158 238,-300 0,-140 -98,-200 -188,-200 56,28 68,86 54,142 -54,222 -404,190 -404,558 h -200 z"
       id="path839" />
    <path
       d="m 2700,2400 h 200 v -632 c 0,0 100,0 100,100 v 532 h 200 v -700 c 0,0 100,0 100,100 v 600 h 200 v -800 c -272,108 -634,194 -900,200 0,0 100,0 100,100 z m -200,0 h 600 v -200 h -600 z m 750,300 c 138,0 250,-114 250,-252 v -88 h -200 v 92 c 0,26 -22,48 -50,48 -28,0 -50,-22 -50,-48 v -92 h -200 v 88 c 0,138 110,252 250,252 z"
       id="path841" />
    <path
       d="m 500,-560 h 200 v -40 c 0,-98 94,-100 100,-100 -130,-60 -240,-164 -300,-300 z"
       id="path909" />
    <path
       d="M 500,1000 H 700 V -640 H 500 Z"
       id="path907"
       sodipodi:nodetypes="ccccc" />
    <path
       d="m 2190,600 c -140,0 -250,114 -250,252 v 88 h 200 v -92 c 0,-26 22,-48 50,-48 28,0 50,22 50,48 v 92 h 200 v -88 c 0,-138 -112,-252 -250,-252 z"
       id="path905" />
    <path
       d="m 500,900 v 200 H 2140 V 900 Z"
       id="path903"
       sodipodi:nodetypes="ccccc" />
    <path
       d="m 2240,1400 h 200 V 900 h -200 z"
       id="path901" />
    <path
       d="M 500,1400 H 2440 V 1200 H 500 Z"
       id="path845"
       sodipodi:nodetypes="ccccc" />
    <path
       style="fill:#d22e1f;fill-opacity:1"
       d="m 1090,1700 c 56,0 100,-44 100,-100 0,-56 -44,-100 -100,-100 -56,0 -100,44 -100,100 0,56 44,100 100,100 z m 300,0 c 56,0 100,-44 100,-100 0,-56 -44,-100 -100,-100 -56,0 -100,44 -100,100 0,56 44,100 100,100 z"
       id="path847" />
    <path
       d="M 2740,940 V 600 c -46,116 -170,200 -300,200 0,0 100,0 100,100 v 40 z"
       id="path915" />
    <path
       d="m 2340,1400 h 400 V 900 h -200 v 300 h -200 z"
       id="path849" />
    <path
       d="m 3316,1100 c -20,56 -76,100 -140,100 -82,0 -150,-68 -150,-150 0,-82 68,-150 150,-150 52,0 100,28 126,70 -12,-74 -36,-120 -114,-150 32,-66 26,-152 -12,-220 -12,84 -50,154 -178,218 -148,74 -208,224 -158,382 h -200 v 200 h 876 c -116,-46 -200,-170 -200,-300 z"
       id="path851" />
    <path
       id="path897"
       d="m 500,1260 v 440 c 46,-116 170,-200 300,-200 0,0 -100,0 -100,-100 v -140 z"
       sodipodi:nodetypes="cccscc" />
  </g>
  <g
     transform="translate(-100,1000)"
     id="g987">
    <path
       id="path921"
       d="m 4160,2360 v 340 c 46,-116 170,-200 300,-200 0,0 -100,0 -100,-100 v -40 z" />
    <path
       sodipodi:nodetypes="ccccc"
       id="path923"
       d="m 4160,2000 h 200 V 860 h -200 z" />
    <path
       id="path925"
       d="m 5310,2700 c 138,0 250,-114 250,-252 v -88 h -200 v 92 c 0,26 -22,48 -50,48 -28,0 -50,-22 -50,-48 v -92 h -200 v 88 c 0,138 110,252 250,252 z" />
    <path
       id="path927"
       d="m 5360,2400 h 200 v -500 h -200 z" />
    <path
       sodipodi:nodetypes="ccccc"
       id="path929"
       d="m 4160,1900 v 200 h 1400 v -200 z" />
    <path
       sodipodi:nodetypes="ccccc"
       id="path931"
       d="M 4160,2400 H 5260 V 2200 H 4160 Z" />
    <path
       id="path933"
       d="m 6110,2700 c 56,0 100,-44 100,-100 0,-56 -44,-100 -100,-100 -56,0 -100,44 -100,100 0,56 44,100 100,100 z m 300,0 c 56,0 100,-44 100,-100 0,-56 -44,-100 -100,-100 -56,0 -100,44 -100,100 0,56 44,100 100,100 z"
       style="fill:#d22e1f;fill-opacity:1" />
    <path
       id="path935"
       d="m 5460,2400 h 400 v -500 h -200 v 300 h -200 z m 400,-460 v -340 c -46,116 -170,200 -300,200 0,0 100,0 100,100 v 40 z" />
    <path
       id="path937"
       d="m 6098,1870 c 48,-38 100,-68 144,-100 -40,-34 -72,-72 -86,-128 -14,-56 -2,-114 54,-142 -90,0 -188,60 -188,200 0,70 32,124 76,170 z m -338,530 h 800 v -200 c 0,-156 -62,-240 -138,-302 -46,44 -100,80 -146,114 58,50 84,96 84,188 h -200 c 0,-100 30,-146 100,-200 104,-80 238,-158 238,-300 0,-140 -98,-200 -188,-200 56,28 68,86 54,142 -54,222 -404,190 -404,558 h -200 z" />
    <path
       id="path939"
       d="m 6660,2400 h 200 v -632 c 0,0 100,0 100,100 v 532 h 200 v -700 c 0,0 100,0 100,100 v 600 h 200 v -800 c -272,108 -634,194 -900,200 0,0 100,0 100,100 z m -200,0 h 600 v -200 h -600 z m 750,300 c 138,0 250,-114 250,-252 v -88 h -200 v 92 c 0,26 -22,48 -50,48 -28,0 -50,-22 -50,-48 v -92 h -200 v 88 c 0,138 110,252 250,252 z" />
    <path
       sodipodi:nodetypes="ccccc"
       id="path941"
       d="m 4460,1000 h 200 V 860 h -200 z" />
    <path
       id="path943"
       d="m 6150,600 c -140,0 -250,114 -250,252 v 88 h 200 v -92 c 0,-26 22,-48 50,-48 28,0 50,22 50,48 v 92 h 200 v -88 c 0,-138 -112,-252 -250,-252 z" />
    <path
       sodipodi:nodetypes="ccccc"
       id="path945"
       d="m 4460,900 v 200 H 6100 V 900 Z" />
    <path
       id="path947"
       d="m 6200,1400 h 200 V 900 h -200 z" />
    <path
       sodipodi:nodetypes="ccccc"
       id="path949"
       d="M 4460,1400 H 6400 V 1200 H 4460 Z" />
    <path
       id="path951"
       d="m 5050,1700 c 56,0 100,-44 100,-100 0,-56 -44,-100 -100,-100 -56,0 -100,44 -100,100 0,56 44,100 100,100 z m 300,0 c 56,0 100,-44 100,-100 0,-56 -44,-100 -100,-100 -56,0 -100,44 -100,100 0,56 44,100 100,100 z"
       style="fill:#d22e1f;fill-opacity:1" />
    <path
       id="path953"
       d="M 6700,940 V 600 c -46,116 -170,200 -300,200 0,0 100,0 100,100 v 40 z" />
    <path
       id="path955"
       d="m 6300,1400 h 400 V 900 h -200 v 300 h -200 z" />
    <path
       id="path957"
       d="m 7276,1100 c -20,56 -76,100 -140,100 -82,0 -150,-68 -150,-150 0,-82 68,-150 150,-150 52,0 100,28 126,70 -12,-74 -36,-120 -114,-150 32,-66 26,-152 -12,-220 -12,84 -50,154 -178,218 -148,74 -208,224 -158,382 h -200 v 200 h 876 c -116,-46 -200,-170 -200,-300 z" />
    <path
       sodipodi:nodetypes="cccscc"
       d="m 4460,1260 v 440 c 46,-116 170,-200 300,-200 0,0 -100,0 -100,-100 v -140 z"
       id="path959" />
    <path
       d="M 4360,940 V 600 c -46,116 -170,200 -300,200 0,0 100,0 100,100 v 40 z"
       id="path961" />
    <path
       id="path963"
       d="M 4460,940 V 600 c 46,116 170,200 300,200 0,0 -100,0 -100,100 v 40 z" />
  </g>
</svg>
