<?xml version="1.0" encoding="UTF-8" standalone="no"?>
<svg
   xmlns:dc="http://purl.org/dc/elements/1.1/"
   xmlns:cc="http://creativecommons.org/ns#"
   xmlns:rdf="http://www.w3.org/1999/02/22-rdf-syntax-ns#"
   xmlns:svg="http://www.w3.org/2000/svg"
   xmlns="http://www.w3.org/2000/svg"
   xmlns:sodipodi="http://sodipodi.sourceforge.net/DTD/sodipodi-0.dtd"
   xmlns:inkscape="http://www.inkscape.org/namespaces/inkscape"
   inkscape:export-ydpi="72"
   inkscape:export-xdpi="72"
   version="1.1"
   width="17780"
   height="3700"
   viewBox="-500 -500 17780 3700"
   id="svg901"
   inkscape:version="1.0 (4035a4f, 2020-05-01)">
  <metadata
     id="metadata907">
    <rdf:RDF>
      <cc:Work
         rdf:about="">
        <dc:format>image/svg+xml</dc:format>
        <dc:type
           rdf:resource="http://purl.org/dc/dcmitype/StillImage" />
        <dc:title></dc:title>
      </cc:Work>
    </rdf:RDF>
  </metadata>
  <defs
     id="defs905">
    <inkscape:path-effect
       effect="spiro"
       id="path-effect910"
       is_visible="true"
       lpeversion="1" />
    <inkscape:path-effect
       effect="spiro"
       id="path-effect906"
       is_visible="true"
       lpeversion="1" />
    <inkscape:path-effect
       effect="spiro"
       id="path-effect902"
       is_visible="true"
       lpeversion="1" />
    <inkscape:path-effect
       effect="spiro"
       id="path-effect894"
       is_visible="true"
       lpeversion="1" />
    <inkscape:path-effect
       effect="spiro"
       id="path-effect834" />
    <inkscape:path-effect
       effect="spiro"
       id="path-effect933"
       is_visible="true"
       lpeversion="1" />
    <inkscape:path-effect
       effect="spiro"
       id="path-effect929"
       is_visible="true"
       lpeversion="1" />
    <inkscape:path-effect
       effect="spiro"
       id="path-effect919"
       is_visible="true"
       lpeversion="1" />
  </defs>
  <sodipodi:namedview
     pagecolor="#f6d07e"
     bordercolor="#666666"
     borderopacity="1"
     objecttolerance="10"
     gridtolerance="10"
     guidetolerance="10"
     inkscape:pageopacity="1"
     inkscape:pageshadow="2"
     inkscape:window-width="2048"
     inkscape:window-height="1055"
     id="namedview903"
     showgrid="false"
     inkscape:zoom="0.10607424"
     inkscape:cx="8890"
     inkscape:cy="1850"
     inkscape:window-x="0"
     inkscape:window-y="23"
     inkscape:window-maximized="0"
     inkscape:current-layer="svg901"
     showguides="true"
     inkscape:guide-bbox="true"
     inkscape:document-rotation="0" />
  <path
     d=""
     id="path835"
     style="fill:#494343;fill-opacity:1" />
  <path
     d=""
     id="path855"
     style="fill:#494343;fill-opacity:1" />
  <path
     d=""
     id="path865"
     style="fill:#494343;fill-opacity:1" />
  <path
     d=""
     id="path883"
     style="fill:#494343;fill-opacity:1" />
  <path
     d=""
     id="path891"
     style="fill:#494343;fill-opacity:1" />
  <path
     d=""
     id="path895"
     style="fill:#494343;fill-opacity:1" />
  <g
     transform="translate(-112.86825)"
     id="g15700"
     style="fill:#494343;fill-opacity:1;stroke:#494343;stroke-opacity:1">
    <circle
       r="63.683983"
       cy="2624.9812"
       cx="9364.8828"
       id="circle15694"
       style="opacity:1;fill:#494343;fill-opacity:1;stroke:#494343;stroke-width:22.6698;stroke-linejoin:bevel;paint-order:stroke fill markers;stroke-opacity:1" />
    <circle
       style="opacity:1;fill:#494343;fill-opacity:1;stroke:#494343;stroke-width:22.6698;stroke-linejoin:bevel;paint-order:stroke fill markers;stroke-opacity:1"
       id="circle15696"
       cx="9564.9814"
       cy="2624.9812"
       r="63.683983" />
  </g>
  <path
     d="m 123.13175,1678.6913 c 81.34716,-120.1605 134.9688,-128.3149 200,-93.7114 V 400 h -200 z m 0,-1238.6913 h 200 v -40 c 0,-98 94,-100 100,-100 -130,-60 -240,-164 -300,-300 z"
     id="path833"
     sodipodi:nodetypes="cccccccsccc"
     style="fill:#494343;fill-opacity:1" />
  <path
     d="m 727.13175,2350 c 0,-192 -82,-250 -200,-450 0,122 -48,218 -120,300 68,14 120,78 120,150 0,82 -68,150 -150,150 -64,0 -128,-42 -150,-100 -14,112 -44,212 -100,300 h 250 c 194,0 350,-156 350,-350 z"
     id="path837"
     style="fill:#494343;fill-opacity:1" />
  <path
     d="M 627.13175,2400 H 1027.1318 V 1900 H 827.13175 v 300 h -200 z m 400.00005,-460 v -340 c -46.00005,116 -170.00005,200 -300.00005,200 0,0 100,0 100,100 v 40 z"
     id="path839"
     style="fill:#494343;fill-opacity:1" />
  <path
     d="m 1109.1318,2700 c 120,0 218,-98 218,-216 v -284 h -200 v 300 c 0,70 -54,124 -124.0001,124 -29.99995,0 -53.99995,-8 -75.99995,-24 40,60 106.00005,100 182.00005,100 z m 218,-460 v -340 c -46,116 -170,200 -300,200 0,0 100,0 100,100 v 40 z"
     id="path841"
     style="fill:#494343;fill-opacity:1" />
  <path
     d="m 1227.1318,2200 v 200 h 208 v -200 z m 788,-512 c 78,14 150,44 212,88 -8,-214 -110,-376 -300,-376 v 200 c 44,0 74,28 88,88 z m -588,712 h 240 c 202,0 400,-154 498,-350 -38,-58 -96,-102 -166,-120 -52,132 -182,270 -372,270 h -200 z m 520,-70 c 74,44 156,70 240,70 h 240 v -200 h -200 c -44,0 -84,-8 -122,-20 -46,60 -100,110 -158,150 z m -32,-294 c -58,-76 -88,-166 -88,-236 0,-140 36,-200 100,-200 v -200 c -198,0 -300,174 -300,400 0,124 50,250 128,356 62,-24 116,-66 160,-120 z m -60,-330 c -6,24 -8,56 -8,94 0,32 8,70 20,106 20,-4 40,-6 60,-6 166,0 300,134 300,300 h 200 c 0,-276 -224,-500 -500,-500 -24,0 -48,2 -72,6 z m -428,494 h 200 c 0,-54 14,-106 40,-150 -36,-78 -58,-158 -60,-234 -110,92 -180,230 -180,384 z"
     id="path843"
     style="fill:#494343;fill-opacity:1" />
  <path
     d="m 2327.1318,2200 v 200 h 200 v -200 z m 200,200 H 4127.1317 V 2200 H 2527.1318 Z m 1400,0 h 199.9999 v -500 h -199.9999 z m -1400,-500 v 200 h 1300 v -200 z m 1350,-300 c -140,0 -250,114 -250,252 v 88 h 200 v -92 c 0,-26 22,-48 50,-48 28,0 50,22 50,48 v 92 h 199.9999 v -88 c 0,-138 -111.9999,-252 -249.9999,-252 z m -1150,800 V 400 h -200 v 2000 z m 0,-1960 V 0 c -60,136 -170,240 -300,300 6,0 100,2 100,100 v 40 z"
     id="path845"
     style="fill:#494343;fill-opacity:1" />
  <path
     d="m 4227.1317,2420 h 200 v -520 h -200 z m -50,280 c 138,0 250,-114 250,-252 v -88 h -200 v 92 c 0,26 -22,48 -50,48 -28,0 -50,-22 -50,-48 v -92 h -199.9999 v 88 c 0,138 110,252 249.9999,252 z m 250,-760 v -340 c -46,116 -170,200 -300,200 0,0 100,0 100,100 v 40 z"
     id="path847"
     style="fill:#494343;fill-opacity:1" />
  <path
     d="m 4527.1317,2350 h 20 v -200 h -20 z m -200,50 h 700 v -200 h -700 z m 680,0 h 120 c -60,-46 -100,-118 -100,-200 v -50 h -20 z m -230,-200 c -28,0 -50,-22 -50,-50 0,-28 22,-50 50,-50 28,0 50,22 50,50 0,28 -22,50 -50,50 z m -250,-50 c 0,138 112,250 250,250 138,0 250,-112 250,-250 0,-26 -2,-54 -18,-104 -38,-122 -168,-212 -232,-246 0,52 -56,104 -84,114 -96,34 -166,128 -166,236 z"
     id="path849"
     style="fill:#494343;fill-opacity:1" />
  <path
     d="M 5327.1317,2400 V 400 h -200 v 2000 z m 0,-1960 V 0 c -60,136 -170,240 -300,300 6,0 100,2 100,100 v 40 z m -400,1760 v 200 h 200 v -200 z"
     id="path851"
     style="fill:#494343;fill-opacity:1" />
  <path
     d="m 5427.1317,2400 h 200 V 400 h -200 z m 0,-1960 h 200 v -40 c 0,-98 94,-100 100,-100 -130,-60 -240,-164 -300,-300 z"
     id="path853"
     style="fill:#494343;fill-opacity:1" />
  <path
     d="m 5927.1317,2400 h 1000 l 2,-200 h -1002 z m 1100,20 h 200 v -520 h -200 z m -50,280 c 138,0 250,-114 250,-252 v -88 h -200 v 92 c 0,26 -22,48 -50,48 -28,0 -50,-22 -50,-48 v -92 h -200 v 88 c 0,138 110,252 250,252 z m 250,-760 v -340 c -46,116 -170,200 -300,200 0,0 100,0 100,100 v 40 z m -1260,460 v -200 h -40 c -100,0 -100,-100 -100,-100 0,130 -84,254 -200,300 z"
     id="path857"
     style="fill:#494343;fill-opacity:1" />
  <path
     d="m 7627.1317,2400 h 200 v -200 h -200 z m -224,-180 h 302 c -94,-22 -156,-74 -156,-182 0,-110 78,-238 78,-392 0,-186 -144,-346 -320,-346 h -380 c 74,100 106,200 100,300 16,-32 72,-100 150,-100 26,0 36,0 70,0 86,0 180,62 180,148 0,128 -82,230 -82,390 0,90 24,146 58,182 z m -276,180 h 500 v -200 h -500 z m 660,0 h 340 c -116,-46 -200,-170 -200,-300 0,0 0,100 -100,100 h -40 z"
     id="path859"
     style="fill:#494343;fill-opacity:1" />
  <path
     d="m 7527.1317,2100 h 400 v -500 h -200 v 300 h -200 z m 400,-460 v -340 c -46,116 -170,200 -300,200 0,0 100,0 100,100 v 40 z"
     id="path861"
     style="fill:#494343;fill-opacity:1" />
  <path
     d="m 8329.1317,2150 c 0,-28 22,-50 50,-50 28,0 50,22 50,50 0,28 -22,50 -50,50 -28,0 -50,-22 -50,-50 z m -302,550 h 252 c 154,0 282,-98 332,-236 24,-66 38,-140 38,-220 0,-206 -110,-320 -270,-444 0,52 -56,102 -84,114 -94,40 -166,128 -166,236 0,138 112,250 250,250 18,0 36,-2 54,-6 -20,60 -86,106 -152,106 -72,0 -130,-42 -154,-100 -14,112 -44,212 -100,300 z"
     id="path863"
     style="fill:#494343;fill-opacity:1" />
  <path
     d="m 9227.1318,2350 c 0,-192 -82,-250 -200,-450 0,122 -48,218 -120,300 68,14 120,78 120,150 0,82 -68,150 -150,150 -64,0 -128,-42 -150,-100 -14,112 -44,212 -100,300 h 250 c 194,0 350,-156 350,-350 z"
     id="path867"
     style="fill:#494343;fill-opacity:1" />
  <path
     d="m 9127.1318,2400 h 400 v -500 h -200 v 300 h -200 z m 400,-460 v -340 c -46,116 -170,200 -300,200 0,0 100,0 100,100 v 40 z"
     id="path869"
     style="fill:#494343;fill-opacity:1" />
  <path
     d="m 9427.1318,2400 h 400 v -500 h -200 v 300 h -200 z m 400,-460 v -340 c -46,116 -170,200 -300,200 0,0 100,0 100,100 v 40 z"
     id="path871"
     style="fill:#494343;fill-opacity:1" />
  <path
     d="m 9927.1318,2400 h 200.0002 V 400 h -200.0002 z m 0,-1960 h 200.0002 v -40 c 0,-98 94,-100 100,-100 -130,-60 -240.0002,-164 -300.0002,-300 z"
     id="path873"
     style="fill:#494343;fill-opacity:1" />
  <path
     d="m 10429.132,2150 c 0,-28 22,-50 50,-50 28,0 50,22 50,50 0,28 -22,50 -50,50 -28,0 -50,-22 -50,-50 z m -302,550 h 252 c 154,0 282,-98 332,-236 24,-66 38,-140 38,-220 0,-206 -110,-320 -270,-444 0,52 -56,102 -84,114 -94,40 -166,128 -166,236 0,138 112,250 250,250 18,0 36,-2 54,-6 -20,60 -86,106 -152,106 -72,0 -130,-42 -154,-100 -14,112 -44,212 -100,300 z"
     id="path875"
     style="fill:#494343;fill-opacity:1" />
  <path
     d="m 10627.132,2400 h 400 v -500 h -200 v 300 h -200 z m 400,-460 v -340 c -46,116 -170,200 -300,200 0,0 100,0 100,100 v 40 z"
     id="path877"
     style="fill:#494343;fill-opacity:1" />
  <path
     d="M 11327.132,2400 V 400 h -200 v 2000 z m 0,-1960 V 0 c -60,136 -170,240 -300,300 6,0 100,2 100,100 v 40 z m -250,2260 c 138,0 250,-114 250,-252 v -88 h -200 v 92 c 0,26 -22,48 -50,48 -28,0 -50,-22 -50,-48 v -92 h -200 v 88 c 0,138 110,252 250,252 z"
     id="path879"
     style="fill:#494343;fill-opacity:1" />
  <path
     d="m 11427.132,2400 h 200 V 400 h -200 z m 0,-1960 h 200 v -40 c 0,-98 94,-100 100,-100 -130,-60 -240,-164 -300,-300 z"
     id="path881"
     style="fill:#494343;fill-opacity:1" />
  <path
     d="m 11927.132,2400 h 1000 l 2,-200 h -1002 z m 1100,20 h 200 v -520 h -200 z m -50,280 c 138,0 250,-114 250,-252 v -88 h -200 v 92 c 0,26 -22,48 -50,48 -28,0 -50,-22 -50,-48 v -92 h -200 v 88 c 0,138 110,252 250,252 z m 250,-760 v -340 c -46,116 -170,200 -300,200 0,0 100,0 100,100 v 40 z m -1260,460 v -200 h -40 c -100,0 -100,-100 -100,-100 0,130 -84,254 -200,300 z"
     id="path885"
     style="fill:#494343;fill-opacity:1" />
  <path
     d="m 13627.132,2400 h 200 v -200 h -200 z m -224,-180 h 302 c -94,-22 -156,-74 -156,-182 0,-110 78,-238 78,-392 0,-186 -144,-346 -320,-346 h -380 c 74,100 106,200 100,300 16,-32 72,-100 150,-100 26,0 36,0 70,0 86,0 180,62 180,148 0,128 -82,230 -82,390 0,90 24,146 58,182 z m -276,180 h 500 v -200 h -500 z m 660,0 h 340 c -116,-46 -200,-170 -200,-300 0,0 0,100 -100,100 h -40 z"
     id="path887"
     style="fill:#494343;fill-opacity:1" />
  <path
     d="m 13527.132,2100 h 400 v -500 h -200 v 300 h -200 z m 400,-460 v -340 c -46,116 -170,200 -300,200 0,0 100,0 100,100 v 40 z"
     id="path889"
     style="fill:#494343;fill-opacity:1" />
  <path
     d="m 14767.132,2400 h 200 V 614 h -200 z m -300,-200 v 200 h 400 v -200 z m 0,200 h 200 V 1400 h -200 z m 500,-1786 -318,-318 -140,142 316,318 z m 300,1786 V 1400 h -200 v 1000 z m 100,0 h 200 V 1400 h -200 z m -100,-1580 V 400 h -200 v 420 z m 100,0 h 200 V 400 h -200 z m -350,1880 c 140,0 250,-114 250,-252 v -88 h -200 v 92 c 0,26 -22,48 -50,48 -28,0 -50,-22 -50,-48 v -92 h -200 v 88 c 0,138 112,252 250,252 z m -950,-300 h 120 v -200 h -20 c 0,82 -40,154 -100,200 z m 400,-100 h 200 v -400 h -200 z m -300,100 h 500 v -200 h -500 z m 300,-480 h 200 v -120 c -46,60 -118,100 -200,100 z m -100,300 v -20 c 0,-56 44,-100 100,-100 h 20 v -200 h -20 c -166,0 -300,134 -300,300 v 20 z m 300,-780 v -340 c -46,116 -170,200 -300,200 0,0 100,0 100,100 v 40 z m 10,-1116 -310,-310 c 52,138 48,290 0,424 4,-4 72,-70 140,0 l 28,28 z m 590,626 V 768 h -200 v 230 z m -200,262 150,134 350,-348 -100,-184 z m 300,-214 h 200 V 768 h -200 z m -300,214 v 236 h 200 v -236 z m 500,0 -200,46 v 190 h 200 z m -500,-214 94,94 142,-142 -136,-136 z m 350,348 150,-134 -94,-92 -142,140 z m -150,-906 V 0 c -60,136 -170,240 -300,300 6,0 100,2 100,100 v 40 z m 100,0 h 200 v -40 c 0,-98 94,-100 100,-100 -130,-60 -240,-164 -300,-300 z m 160,1960 h 340 c -116,-46 -200,-170 -200,-300 0,0 0,100 -100,100 h -40 z"
     id="path893"
     style="fill:#494343;fill-opacity:1" />
  <path
     d="m 16367.132,2350 c 0,-192 -82,-250 -200,-450 0,122 -48,218 -120,300 68,14 120,78 120,150 0,82 -68,150 -150,150 -64,0 -128,-42 -150,-100 -14,112 -44,212 -100,300 h 250 c 194,0 350,-156 350,-350 z"
     id="path897"
     style="fill:#494343;fill-opacity:1" />
  <path
     d="M 16667.132,2400 V 400 h -200 v 2000 z m 0,-1960 V 0 c -60,136 -170,240 -300,300 6,0 100,2 100,100 v 40 z"
     id="path899"
     style="fill:#494343;fill-opacity:1" />
  <path
     sodipodi:nodetypes="cccccccsccc"
     id="path913"
     d="m 8226.5312,1614.7959 c -67.8121,-35.9082 -153.5137,16.5768 -200.0001,60.5041 l 0,-1275.3 h 200.0001 z m 0,-1174.7959 h -200.0001 v -40 c 0,-98 -94,-100 -100,-100 130,-60 240.0001,-164 300.0001,-300 z"
     style="fill:#494343;fill-opacity:1" />
  <path
     style="fill:none;fill-opacity:1;stroke:#494343;stroke-width:18.8976;stroke-linecap:butt;stroke-linejoin:miter;stroke-miterlimit:4;stroke-dasharray:none;stroke-opacity:1"
     d="m 393.84287,2531.8862 c -64.24467,-5.5389 -124.93131,-43.1102 -158.53136,-98.1474 -18.07573,-29.6082 -28.48637,-63.6371 -31.73205,-98.1747 -3.24568,-34.5375 0.56299,-69.5727 9.53759,-103.0814 17.94919,-67.0175 55.9877,-127.0283 99.36528,-181.1753 34.13721,-42.6125 71.93315,-82.3845 103.03054,-127.2635 31.09739,-44.8791 55.63062,-96.1587 58.79967,-150.6668 3.22094,-55.4007 -17.14972,-112.2307 -56.5143,-151.3464 -39.36458,-39.1157 -97.46433,-59.2011 -152.26954,-50.4835 -29.27417,4.6565 -57.24781,17.1888 -80.25857,35.8748 -23.01075,18.686 -41.00797,43.4735 -51.72304,71.1113 -11.30817,29.1676 -14.44877,61.64 -7.68799,92.1837 6.76079,30.5437 23.59081,58.9729 47.92717,78.6291 19.47459,15.7294 43.6232,25.7174 68.56864,27.8147 24.94544,2.0974 50.57923,-3.7863 71.84169,-16.9992 19.10547,-11.8725 34.56139,-29.6024 43.46997,-50.2571 8.90859,-20.6546 11.18872,-44.1514 6.15566,-66.075 -4.8436,-21.0983 -16.67119,-40.8477 -34.15418,-53.6128 -17.48299,-12.765 -40.70349,-18.0001 -61.56473,-12.22 -18.28532,5.0664 -34.06428,18.5199 -41.95785,35.7742"
     id="path904"
     inkscape:path-effect="#path-effect906"
     inkscape:original-d="m 393.84287,2531.8862 c -40.18808,-31.8734 -133.83332,-41.1141 -158.53136,-98.1474 -51.67864,-119.3375 30.96975,-260.8683 77.17082,-382.4314 38.08588,-100.2106 176.52712,-171.7385 161.83021,-277.9303 -13.27011,-95.8825 -112.07954,-197.6068 -208.78384,-201.8299 -56.57859,-2.4708 -113.67685,53.3934 -131.98161,106.9861 -18.90713,55.3563 -4.19224,132.7648 40.23918,170.8128 35.65539,30.5328 100.27748,35.1653 140.41033,10.8155 36.04294,-21.8683 61.3798,-75.8456 49.62563,-116.3321 -10.79672,-37.1886 -57.0466,-67.8367 -95.71891,-65.8328 -18.35488,0.9511 -2.70456,26.123 -41.95785,35.7742"
     sodipodi:nodetypes="caaaaaaaaac" />
  <path
     style="fill:none;fill-opacity:1;stroke:#494343;stroke-width:18.8976;stroke-linecap:butt;stroke-linejoin:miter;stroke-miterlimit:4;stroke-dasharray:none;stroke-opacity:1"
     d="m 8385.3605,1963.1465 c 11.5485,-48.4041 12.8397,-99.2298 3.7638,-148.1578 -6.6437,-35.8161 -18.8834,-70.7698 -37.8242,-101.8854 -18.9408,-31.1155 -44.7108,-58.3202 -75.8569,-77.2106 -52.8966,-32.0823 -121.0864,-38.1152 -178.3122,-14.6093 -28.6129,11.7529 -54.3471,30.4975 -74.1734,54.2409 -19.8264,23.7433 -33.6938,52.4512 -39.7945,82.7763 -8.4576,42.041 -1.3155,87.7858 23.0323,123.0868 12.1739,17.6505 28.4641,32.5189 47.4103,42.5582 18.9461,10.0393 40.5377,15.1808 61.9578,14.2196 30.3954,-1.364 60.0041,-15.3296 80.5058,-37.8112 20.5017,-22.4817 31.6786,-53.1826 30.5868,-83.589 -0.7547,-21.018 -7.227,-41.8031 -18.5384,-59.5338"
     id="path908"
     inkscape:path-effect="#path-effect910"
     inkscape:original-d="m 8385.3605,1963.1465 c -58.6993,-55.2139 16.9451,-100.5469 3.7638,-148.1578 -18.8667,-68.1462 -46.2201,-157.9093 -113.6811,-179.096 -100.773,-31.6485 -264.1251,20.6037 -292.2801,122.4079 -19.8442,71.7535 58.0591,175.9007 132.4004,179.8646 54.7751,2.9206 99.143,-67.8647 111.0926,-121.4002 4.5278,-20.2853 39.7521,-38.7152 -18.5384,-59.5338"
     sodipodi:nodetypes="caaaaac" />
  <circle
     r="53.087116"
     cy="1731.361"
     cx="276.0051"
     id="path15688"
     style="fill:#494343;fill-opacity:1;stroke:#494343;stroke-width:18.8976;stroke-linejoin:bevel;paint-order:stroke fill markers;stroke-opacity:1" />
  <circle
     style="fill:#494343;fill-opacity:1;stroke:#494343;stroke-width:18.8976;stroke-linejoin:bevel;paint-order:stroke fill markers;stroke-opacity:1"
     id="circle15690"
     cx="8166.0986"
     cy="1788.7173"
     r="53.087116" />
  <circle
     r="63.683983"
     cy="2624.9812"
     cx="9752.1133"
     id="circle15692"
     style="fill:#494343;fill-opacity:1;stroke:#494343;stroke-width:22.6698;stroke-linejoin:bevel;paint-order:stroke fill markers;stroke-opacity:1" />
  <g
     transform="translate(1144.2458,-1249.9623)"
     id="g15706"
     style="fill:#494343;fill-opacity:1;stroke:#494343;stroke-opacity:1">
    <circle
       style="opacity:1;fill:#494343;fill-opacity:1;stroke:#494343;stroke-width:22.6698;stroke-linejoin:bevel;paint-order:stroke fill markers;stroke-opacity:1"
       id="circle15702"
       cx="9364.8828"
       cy="2624.9812"
       r="63.683983" />
    <circle
       r="63.683983"
       cy="2624.9812"
       cx="9564.9814"
       id="circle15704"
       style="opacity:1;fill:#494343;fill-opacity:1;stroke:#494343;stroke-width:22.6698;stroke-linejoin:bevel;paint-order:stroke fill markers;stroke-opacity:1" />
  </g>
  <g
     transform="translate(4523.0082)"
     id="g15712"
     style="fill:#494343;fill-opacity:1;stroke:#494343;stroke-opacity:1">
    <circle
       style="opacity:1;fill:#494343;fill-opacity:1;stroke:#494343;stroke-width:22.6698;stroke-linejoin:bevel;paint-order:stroke fill markers;stroke-opacity:1"
       id="circle15708"
       cx="9364.8828"
       cy="2624.9812"
       r="63.683983" />
    <circle
       r="63.683983"
       cy="2624.9812"
       cx="9564.9814"
       id="circle15710"
       style="opacity:1;fill:#494343;fill-opacity:1;stroke:#494343;stroke-width:22.6698;stroke-linejoin:bevel;paint-order:stroke fill markers;stroke-opacity:1" />
  </g>
  <circle
     style="fill:#494343;fill-opacity:1;stroke:#494343;stroke-width:22.6698;stroke-linejoin:bevel;paint-order:stroke fill markers;stroke-opacity:1"
     id="circle15714"
     cx="16016.839"
     cy="2354.1897"
     r="63.683983" />
  <circle
     style="fill:#494343;fill-opacity:1;stroke:#494343;stroke-width:22.6698;stroke-linejoin:bevel;stroke-opacity:1;paint-order:stroke fill markers"
     id="circle15716"
     cx="12289.049"
     cy="2624.9812"
     r="63.683983" />
  <g
     transform="translate(-1873.6937)"
     id="g15722"
     style="fill:#494343;fill-opacity:1;stroke:#494343;stroke-opacity:1">
    <circle
       style="opacity:1;fill:#494343;fill-opacity:1;stroke:#494343;stroke-width:22.6698;stroke-linejoin:bevel;paint-order:stroke fill markers;stroke-opacity:1"
       id="circle15718"
       cx="9364.8828"
       cy="2624.9812"
       r="63.683983" />
    <circle
       r="63.683983"
       cy="2624.9812"
       cx="9564.9814"
       id="circle15720"
       style="opacity:1;fill:#494343;fill-opacity:1;stroke:#494343;stroke-width:22.6698;stroke-linejoin:bevel;paint-order:stroke fill markers;stroke-opacity:1" />
  </g>
  <circle
     r="63.683983"
     cy="2624.9812"
     cx="6303.04"
     id="circle15724"
     style="fill:#494343;fill-opacity:1;stroke:#494343;stroke-width:22.6698;stroke-linejoin:bevel;paint-order:stroke fill markers;stroke-opacity:1" />
  <g
     id="g15730"
     transform="translate(-5287.8004,-1249.9623)"
     style="fill:#494343;fill-opacity:1;stroke:#494343;stroke-opacity:1">
    <circle
       r="63.683983"
       cy="2624.9812"
       cx="9364.8828"
       id="circle15726"
       style="opacity:1;fill:#494343;fill-opacity:1;stroke:#494343;stroke-width:22.6698;stroke-linejoin:bevel;paint-order:stroke fill markers;stroke-opacity:1" />
    <circle
       style="opacity:1;fill:#494343;fill-opacity:1;stroke:#494343;stroke-width:22.6698;stroke-linejoin:bevel;paint-order:stroke fill markers;stroke-opacity:1"
       id="circle15728"
       cx="9564.9814"
       cy="2624.9812"
       r="63.683983" />
  </g>
  <circle
     r="63.683983"
     cy="2354.1897"
     cx="8876.2041"
     id="circle15888"
     style="fill:#494343;fill-opacity:1;stroke:#494343;stroke-width:22.6698;stroke-linejoin:bevel;paint-order:stroke fill markers;stroke-opacity:1" />
  <circle
     style="fill:#494343;fill-opacity:1;stroke:#494343;stroke-width:22.6698;stroke-linejoin:bevel;paint-order:stroke fill markers;stroke-opacity:1"
     id="circle15890"
     cx="374.36746"
     cy="2354.1897"
     r="63.683983" />
  <g
     transform="matrix(0.7942736,0,0,0.7942736,-6738.6403,555.46121)"
     id="g15896"
     style="fill:#494343;fill-opacity:1;stroke:#494343;stroke-opacity:1">
    <circle
       style="opacity:1;fill:#494343;fill-opacity:1;stroke:#494343;stroke-width:22.6698;stroke-linejoin:bevel;paint-order:stroke fill markers;stroke-opacity:1"
       id="circle15892"
       cx="9364.8828"
       cy="2624.9812"
       r="63.683983" />
    <circle
       r="63.683983"
       cy="2624.9812"
       cx="9564.9814"
       id="circle15894"
       style="opacity:1;fill:#494343;fill-opacity:1;stroke:#494343;stroke-width:22.6698;stroke-linejoin:bevel;paint-order:stroke fill markers;stroke-opacity:1" />
  </g>
  <g
     transform="matrix(0.14834923,0,0,0.14834923,-402.86788,2774.0055)"
     id="g18202">
    <path
       d="m 2657.1168,1840 h 4020.6595 l 82,-140 H 2713.1168 c -64,0 -108,-6 -154,-52 l -62,-62 c -34,-34 -16,-128 12,-100 l 104,104 c 20,20 38,30 62,30 h 134 v -140 h -62 c -18,0 -28,-10 -36,-18 l -128,-128 c -100,-100 -188,198 -188,296 0,170 114,208 262,210 z"
       id="path833-6"
       sodipodi:nodetypes="cccssssssccssssc" />
    <path
       d="m 2769.1168,1620 h 280 v -140 c -44,0 -80,-36 -80,-80 v -320 l -160,40 v 360 h -40 z"
       id="path837-0" />
    <path
       d="m 3009.1168,1620 h 760 v -140 c -44,0 -80,-36 -80,-80 v -320 l -160,40 v 360 c -44,0 -80,-36 -80,-80 v -260 l -160,40 v 300 c -44,0 -80,-36 -80,-80 v -200 l -160,40 v 240 h -40 z"
       id="path839-1" />
    <path
       d="m 3729.1168,1620 h 678 l 82,-140 h -274 c -116,0 -238,-130 -360,-280 l -86,140 c 38,56 94,114 124,140 h -164 z"
       id="path841-4" />
    <path
       d=""
       id="path843-8" />
    <path
       d="m 4489.1168,1620 h 1200 v -140 h -86 c -30,-190 -146,-220 -222,-220 h -652 l 54,-140 h -6 l -160,280 h 744 c 44,0 80,36 80,80 h -872 z"
       id="path845-3" />
    <path
       d="m 5649.1168,1620 h 124 c 46,0 76,-30 76,-80 V 500 l -160,40 v 940 h -40 z"
       id="path847-8" />
    <path
       d="M 6089.1168,1460 V 500 l -160,40 v 1000 c 0,50 30,80 76,80 h 164 v -140 h -60 c -14,0 -20,-6 -20,-20 z"
       id="path849-1" />
    <path
       d="m 6567.1168,1294 94,-158 -34,-20 -94,158 z"
       id="path851-5" />
    <path
       d="m 6129.1168,1620 h 678 l 82,-140 h -274 c -116,0 -238,-130 -360,-280 l -86,140 c 38,56 94,114 124,140 h -164 z"
       id="path853-2" />
    <path
       style="fill:#000000;fill-opacity:1"
       d="m 2969.1168,1000 v -40 l -160,40 v 40 z"
       id="path887-2"
       sodipodi:nodetypes="ccccc" />
    <path
       d="M 500,912.89323 V 1620 H 641.424 V 912.89323 Z"
       style="font-style:normal;font-variant:normal;font-weight:normal;font-stretch:normal;font-size:40px;line-height:1.25;font-family:Qahiri;-inkscape-font-specification:Qahiri;direction:rtl;white-space:pre;fill:#000000;fill-opacity:1;stroke:none;stroke-width:37.8807"
       id="path18169" />
    <path
       d="M 964.3951,912.89323 V 1195.7358 H 863.3785 V 912.89323 H 721.9584 V 1620 h 626.2935 V 1478.5787 H 863.3785 v -141.4213 h 484.8734 v -141.4216 h -242.4367 v -141.4213 h 242.4367 V 912.89323 Z"
       style="font-style:normal;font-variant:normal;font-weight:normal;font-stretch:normal;font-size:40px;line-height:1.25;font-family:Qahiri;-inkscape-font-specification:Qahiri;direction:rtl;white-space:pre;fill:#000000;fill-opacity:1;stroke:none;stroke-width:37.8807"
       id="path18171" />
    <path
       d="M 1671.7003,912.89323 V 1195.7358 H 1570.6838 V 912.89323 H 1429.2636 V 1620 h 626.2935 v -141.4213 h -484.8733 v -141.4213 h 484.8733 v -141.4216 h -242.4367 v -141.4213 h 242.4367 V 912.89323 Z"
       style="font-style:normal;font-variant:normal;font-weight:normal;font-stretch:normal;font-size:40px;line-height:1.25;font-family:Qahiri;-inkscape-font-specification:Qahiri;direction:rtl;white-space:pre;fill:#000000;fill-opacity:1;stroke:none;stroke-width:37.8807"
       id="path18173" />
    <path
       d="M 2136.5651,912.89323 V 1620 H 2277.989 V 912.89323 Z"
       style="font-style:normal;font-variant:normal;font-weight:normal;font-stretch:normal;font-size:40px;line-height:1.25;font-family:Qahiri;-inkscape-font-specification:Qahiri;direction:rtl;white-space:pre;fill:#000000;fill-opacity:1;stroke:none;stroke-width:37.8807"
       id="path18175" />
  </g>
</svg>
