<?xml version="1.0" encoding="UTF-8" standalone="no"?>
<svg
   xmlns:dc="http://purl.org/dc/elements/1.1/"
   xmlns:cc="http://creativecommons.org/ns#"
   xmlns:rdf="http://www.w3.org/1999/02/22-rdf-syntax-ns#"
   xmlns:svg="http://www.w3.org/2000/svg"
   xmlns="http://www.w3.org/2000/svg"
   xmlns:sodipodi="http://sodipodi.sourceforge.net/DTD/sodipodi-0.dtd"
   xmlns:inkscape="http://www.inkscape.org/namespaces/inkscape"
   width="3341.0417pt"
   height="1870.6008pt"
   viewBox="0 0 3341.0417 1870.6007"
   version="1.1"
   inkscape:export-filename="ma-kan.png"
   inkscape:export-xdpi="200"
   inkscape:export-ydpi="200"
   id="svg442"
   sodipodi:docname="ma-kan.svg"
   inkscape:version="1.0.1 (c497b03c, 2020-09-10)">
  <metadata
     id="metadata439">
    <rdf:RDF>
      <cc:Work
         rdf:about="">
        <dc:format>image/svg+xml</dc:format>
        <dc:type
           rdf:resource="http://purl.org/dc/dcmitype/StillImage" />
        <dc:title />
      </cc:Work>
    </rdf:RDF>
  </metadata>
  <sodipodi:namedview
     pagecolor="#232323"
     bordercolor="#666666"
     borderopacity="1"
     objecttolerance="10"
     gridtolerance="10"
     guidetolerance="10"
     inkscape:pageopacity="1"
     inkscape:pageshadow="2"
     inkscape:window-width="640"
     inkscape:window-height="480"
     id="namedview437"
     showgrid="false"
     inkscape:current-layer="svg442"
     inkscape:document-rotation="0"
     fit-margin-top="300"
     lock-margins="true"
     fit-margin-left="300"
     fit-margin-right="300"
     fit-margin-bottom="300" />
  <defs
     id="defs156" />
  <path
     style="fill:#a88c5c;fill-opacity:1;stroke:none"
     d=""
     id="path467" />
  <path
     style="fill:#a88c5c;fill-opacity:1;stroke:none"
     d=""
     id="path507" />
  <path
     style="fill:#a88c5c;fill-opacity:1;stroke:none"
     d=""
     id="path535" />
  <path
     style="fill:#a88c5c;fill-opacity:1;stroke:none"
     d=""
     id="path551" />
  <path
     style="fill:#a88c5c;fill-opacity:1;stroke:none"
     d=""
     id="path575" />
  <path
     style="fill:#a88c5c;fill-opacity:1;stroke:none"
     d=""
     id="path916" />
  <path
     style="fill:#a88c5c;fill-opacity:1;stroke:none"
     d=""
     id="path956" />
  <path
     style="fill:#a88c5c;fill-opacity:1;stroke:none"
     d=""
     id="path976" />
  <path
     style="fill:#a88c5c;fill-opacity:1;stroke:none"
     d=""
     id="path992" />
  <path
     style="fill:#a88c5c;fill-opacity:1;stroke:none"
     d=""
     id="path651" />
  <path
     style="fill:#a88c5c;fill-opacity:1;stroke:none"
     d=""
     id="path687" />
  <path
     style="fill:#a88c5c;fill-opacity:1;stroke:none"
     d=""
     id="path707" />
  <path
     style="fill:#a88c5c;fill-opacity:1;stroke:none"
     d=""
     id="path783" />
  <path
     style="fill:#a88c5c;fill-opacity:1;stroke:none"
     d=""
     id="path815" />
  <path
     style="fill:#a88c5c;fill-opacity:1;stroke:none"
     d=""
     id="path843" />
  <g
     id="use1273"
     style="fill:#000000;fill-opacity:1"
     transform="translate(2113.441,2110.3876)">
    <path
       style="stroke:none"
       d=""
       id="path500" />
  </g>
  <g
     id="use1293"
     style="fill:#000000;fill-opacity:1"
     transform="translate(2451.0972,2110.3876)">
    <path
       style="stroke:none"
       d=""
       id="path496" />
  </g>
  <g
     id="use1307"
     style="fill:#000000;fill-opacity:1"
     transform="translate(2897.0503,2110.3876)">
    <path
       style="stroke:none"
       d=""
       id="path492" />
  </g>
  <g
     id="use1315"
     style="fill:#000000;fill-opacity:1"
     transform="translate(3091.6128,2110.3876)">
    <path
       style="stroke:none"
       d=""
       id="path488" />
  </g>
  <g
     id="use1327"
     style="fill:#000000;fill-opacity:1"
     transform="translate(3380.8941,2110.3876)">
    <path
       style="stroke:none"
       d=""
       id="path484" />
  </g>
  <g
     id="use1349"
     style="fill:#000000;fill-opacity:1"
     transform="translate(2109.8472,2340.7938)">
    <path
       style="stroke:none"
       d=""
       id="path480" />
  </g>
  <g
     id="use1369"
     style="fill:#000000;fill-opacity:1"
     transform="translate(2447.5035,2340.7938)">
    <path
       style="stroke:none"
       d=""
       id="path476" />
  </g>
  <g
     id="use1379"
     style="fill:#000000;fill-opacity:1"
     transform="translate(2755.191,2340.7938)">
    <path
       style="stroke:none"
       d=""
       id="path472" />
  </g>
  <g
     id="use1387"
     style="fill:#000000;fill-opacity:1"
     transform="translate(2949.7535,2340.7938)">
    <path
       style="stroke:none"
       d=""
       id="path468" />
  </g>
  <g
     id="use1421"
     style="fill:#000000;fill-opacity:1"
     transform="translate(2227.6128,2571.2001)">
    <path
       style="stroke:none"
       d=""
       id="path464" />
  </g>
  <g
     id="use1439"
     style="fill:#000000;fill-opacity:1"
     transform="translate(2769.2691,2571.2001)">
    <path
       style="stroke:none"
       d=""
       id="path460" />
  </g>
  <g
     id="use1449"
     style="fill:#000000;fill-opacity:1"
     transform="translate(2879.3472,2571.2001)">
    <path
       style="stroke:none"
       d=""
       id="path456" />
  </g>
  <g
     id="use1489"
     style="fill:#000000;fill-opacity:1"
     transform="translate(2123.6753,2801.6063)">
    <path
       style="stroke:none"
       d=""
       id="path452" />
  </g>
  <g
     id="use1505"
     style="fill:#000000;fill-opacity:1"
     transform="translate(2487.9253,2801.6063)">
    <path
       style="stroke:none"
       d=""
       id="path448" />
  </g>
  <g
     id="use1519"
     style="fill:#000000;fill-opacity:1"
     transform="translate(3096.1753,2801.6063)">
    <path
       style="stroke:none"
       d=""
       id="path444" />
  </g>
  <g
     id="g1509">
    <g
       id="g1350">
      <path
         style="fill:#ccc3b4;fill-opacity:1;stroke:none"
         d="m 1631.7032,434.65625 -4.3594,-6.40625 -12.7969,25.85937 4.3594,6.14063 z m 0,0"
         id="path471" />
      <path
         style="fill:#ccc3b4;fill-opacity:1;stroke:none"
         d="m 1807.5781,467.9375 5.125,6.14062 12.7969,-25.59375 -5.125,-6.15625 z m 0,0"
         id="path491" />
      <path
         style="fill:#ccc3b4;fill-opacity:1;stroke:none"
         d="m 2100.9375,435.17187 -3.0625,-7.6875 -15.875,19.20313 3.0781,7.67187 z m 0,0"
         id="path515" />
      <path
         style="fill:#ccc3b4;fill-opacity:1;stroke:none"
         d="m 2555.5938,412.625 -4.6094,-5.625 -18.1719,16.89062 4.8594,5.64063 z m 0,0"
         id="path543" />
      <path
         style="fill:#ccc3b4;fill-opacity:1;stroke:none"
         d="m 2619.3438,434.65625 -4.3594,-6.40625 -12.7969,25.85937 4.3594,6.14063 z m 0,0"
         id="path555" />
      <path
         style="fill:#ccc3b4;fill-opacity:1;stroke:none"
         d="m 498.14063,754.14058 -4.35938,-6.1406 -16.89062,19.2031 4.35937,6.1407 z m 0,0"
         id="path904" />
      <path
         style="fill:#ccc3b4;fill-opacity:1;stroke:none"
         d="m 593.10938,665.06248 -4.35938,-6.4062 -12.79687,25.8593 4.35937,6.1407 z m 0,0"
         id="path920" />
      <path
         style="fill:#ccc3b4;fill-opacity:1;stroke:none"
         d="m 768.98438,698.34378 5.125,6.1406 12.79687,-25.5938 -5.125,-6.1562 z m 0,0"
         id="path940" />
      <path
         style="fill:#ccc3b4;fill-opacity:1;stroke:none"
         d="m 1049.0156,641.49998 -5.125,-4.6094 -12.0312,23.8125 5.125,4.6094 z m 0,0"
         id="path964" />
      <path
         style="fill:#ccc3b4;fill-opacity:1;stroke:none"
         d="m 1826.7169,665.31248 -4.3594,-6.1406 -16.8906,19.2031 4.3594,6.1406 z m 0,0"
         id="path603" />
      <path
         style="fill:#ccc3b4;fill-opacity:1;stroke:none"
         d="m 1392.6094,853.21878 -1.7969,-7.4219 -21.7656,13.5625 1.7968,7.4219 z m 4.0937,13.5625 -2.3125,-6.9063 -21.5,13.3125 2.0469,7.1719 z m 0,0"
         id="path619" />
      <path
         style="fill:#ccc3b4;fill-opacity:1;stroke:none"
         d="m 1803.0051,984.54685 -4.3594,-6.1406 -16.8906,19.2031 4.3594,6.14055 z m 8.1875,11.5156 -4.3437,-6.1406 -16.9063,19.20305 4.3594,6.1406 z m 0,0"
         id="path639" />
      <path
         style="fill:#ccc3b4;fill-opacity:1;stroke:none"
         d="m 2238.677,895.46878 -4.3594,-6.4063 -12.7969,25.85937 4.3594,6.1406 z m 0,0"
         id="path667" />
      <path
         style="fill:#ccc3b4;fill-opacity:1;stroke:none"
         d="m 2454.9895,895.46878 -4.3594,-6.4063 -12.7969,25.85937 4.3594,6.1406 z m 0,0"
         id="path691" />
      <path
         style="fill:#ccc3b4;fill-opacity:1;stroke:none"
         d="m 2509.5051,873.43748 -4.6094,-5.625 -18.1719,16.8906 4.8594,5.6407 z m 0,0"
         id="path699" />
      <path
         style="fill:#ccc3b4;fill-opacity:1;stroke:none"
         d="m 2765.6301,884.20308 -4.3594,-6.1406 -16.8906,19.2031 4.3594,6.1407 z m 8.1875,11.5157 -4.3438,-6.1407 -16.9062,19.20317 4.3594,6.1406 z m 0,0"
         id="path715" />
      <path
         style="fill:#ccc3b4;fill-opacity:1;stroke:none"
         d="m 2819.6301,866.79688 -4.3593,-5.8906 -20.2188,14.3437 4.6094,6.1406 z m 0,0"
         id="path723" />
      <path
         style="fill:#ccc3b4;fill-opacity:1;stroke:none"
         d="m 2980.6458,873.43748 -4.6094,-5.625 -18.1719,16.8906 4.8594,5.6407 z m 0,0"
         id="path743" />
      <path
         style="fill:#ccc3b4;fill-opacity:1;stroke:none"
         d="m 483.79687,1215.4688 -4.35937,-6.1406 -16.89063,19.2031 4.35938,6.1406 z m 0,0"
         id="path763" />
      <path
         style="fill:#ccc3b4;fill-opacity:1;stroke:none"
         d="m 474.59375,1095.1562 -4.35938,-6.4063 -12.79687,25.8594 4.35937,6.1406 z m 0,0"
         id="path771" />
      <path
         style="fill:#ccc3b4;fill-opacity:1;stroke:none"
         d="m 670.9375,1083.6249 -1.79688,-7.4219 -21.76562,13.5625 1.79687,7.4219 z m 4.09375,13.5625 -2.3125,-6.9062 -21.5,13.3125 2.04687,7.1718 z m 0,0"
         id="path787" />
      <path
         style="fill:#ccc3b4;fill-opacity:1;stroke:none"
         d="m 964.28122,1214.9532 -4.3593,-6.1406 -16.8907,19.2031 4.3594,6.1406 z m 0,0"
         id="path807" />
      <path
         style="fill:#ccc3b4;fill-opacity:1;stroke:none"
         d="m 1705.125,1126.1249 -4.3594,-6.1406 -16.8906,19.2031 4.3594,6.1406 z m 0,0"
         id="path851" />
      <path
         style="fill:#ccc3b4;fill-opacity:1;stroke:none"
         d="m 1746.5938,1114.6093 5.125,6.1406 12.7969,-25.5937 -5.125,-6.1563 z m 0,0"
         id="path859" />
      <path
         style="fill:#ccc3b4;fill-opacity:1;stroke:none"
         d="m 1371.2344,613.03128 -4.6094,-5.625 -18.1719,16.8906 4.8594,5.6406 z m 0,0"
         id="path984" />
      <path
         style="fill:#a88c5c;fill-opacity:1;stroke:none"
         d="m 1354.2031,517.59378 h 11.5157 V 492 h -5.125 V 300 L 1335,325.59375 v 211.20313 z m 0,0"
         id="path443" />
      <path
         style="fill:#a88c5c;fill-opacity:1;stroke:none"
         d="M 1373.4063,517.59378 V 492 c -7.6875,0 -12.8125,-10.25 -12.8125,-25.60938 h -20.4687 v 51.20316 z m 0,0"
         id="path447" />
      <path
         style="fill:#a88c5c;fill-opacity:1;stroke:none"
         d="m 1463.5157,493.01562 c -9.9844,-15.60937 -29.6875,-41.21875 -36.3438,-65.01562 -3.8437,4.85937 -17.9218,9.20312 -28.1718,12.79687 -15.0938,5.375 -28.1563,16.125 -28.1563,35.84375 0,4.85938 1.0313,9.98438 2.8125,15.35938 h -13.0469 v 25.59378 h 97.2813 l 6.6562,-12.03128 c 1.7813,-3.32813 1.2813,-8.95313 -1.0312,-12.54688 z m -51.9688,-18.4375 c -1.7812,0 -3.3281,-1.53125 -3.3281,-3.32812 0,-1.53125 1.5469,-3.0625 3.3281,-3.0625 1.5469,0 3.0782,1.53125 3.0782,3.0625 0,1.79687 -1.5313,3.32812 -3.0782,3.32812 z m 0,0"
         id="path451" />
      <path
         style="fill:#a88c5c;fill-opacity:1;stroke:none"
         d="m 1505.4844,492 -32.25,-38.40625 -12.7969,25.59375 25.8594,30.71878 c 6.3906,7.6875 4.0937,12.2968 -0.2656,16.3906 l -25.5938,23.2969 v 6.4062 l 42.2344,-38.4062 h 9.2187 V 492 Z m 0,0"
         id="path455" />
      <path
         style="fill:#a88c5c;fill-opacity:1;stroke:none"
         d="M 1560.0157,517.59378 V 492 h -19.4532 l -35.0781,-51.20313 -12.7969,25.59375 L 1510.6094,492 h -12.7969 v 25.59378 h 30.7188 c 13.5625,18.1718 23.0312,31.2343 32,51.2031 3.0625,-4.6094 6.3906,-12.5469 6.3906,-23.0469 0,-8.4375 -4.3437,-18.6875 -9.7187,-28.1562 z m 0,0"
         id="path459" />
      <path
         style="fill:#a88c5c;fill-opacity:1;stroke:none"
         d="m 1635.7969,493.01562 c -9.9844,-15.60937 -29.6875,-41.21875 -36.3438,-65.01562 -3.8437,4.85937 -17.9218,9.20312 -28.1718,12.79687 -15.0938,5.375 -28.1563,16.125 -28.1563,35.84375 0,4.85938 1.0313,9.98438 2.8125,15.35938 h -13.0469 v 25.59378 h 97.2813 l 6.6562,-12.03128 c 1.7813,-3.32813 1.2813,-8.95313 -1.0312,-12.54688 z m -51.9688,-18.4375 c -1.7812,0 -3.3281,-1.53125 -3.3281,-3.32812 0,-1.53125 1.5469,-3.0625 3.3281,-3.0625 1.5469,0 3.0782,1.53125 3.0782,3.0625 0,1.79687 -1.5313,3.32812 -3.0782,3.32812 z m 0,0"
         id="path463" />
      <path
         style="fill:#a88c5c;fill-opacity:1;stroke:none"
         d="m 1636.0469,440.79687 -12.7969,25.59375 33.2813,49.92186 c 7.1718,11.0156 7.4218,16.8906 -2.5625,26.375 l -98.5625,93.6875 c -28.6719,-33.0156 -84.4688,-59.6406 -117.75,-67.5781 l 102.3906,89.5937 145.6719,-137.9843 c 2.2968,-2.2969 1.7812,-4.6094 0,-7.4219 z m 0,0"
         id="path475" />
      <path
         style="fill:#a88c5c;fill-opacity:1;stroke:none"
         d="m 1711.5781,517.59378 h 11.5157 V 492 h -5.125 V 300 l -25.5938,25.59375 v 211.20313 z m 0,0"
         id="path479" />
      <path
         style="fill:#a88c5c;fill-opacity:1;stroke:none"
         d="M 1730.7813,517.59378 V 492 c -7.6875,0 -12.8125,-10.25 -12.8125,-25.60938 h -20.4687 v 51.20316 z m 0,0"
         id="path483" />
      <path
         style="fill:#a88c5c;fill-opacity:1;stroke:none"
         d="m 1820.8907,493.01562 c -9.9844,-15.60937 -29.6875,-41.21875 -36.3438,-65.01562 -3.8437,4.85937 -17.9218,9.20312 -28.1718,12.79687 -15.0938,5.375 -28.1563,16.125 -28.1563,35.84375 0,4.85938 1.0313,9.98438 2.8125,15.35938 h -13.0469 v 25.59378 h 97.2813 l 6.6562,-12.03128 c 1.7813,-3.32813 1.2813,-8.95313 -1.0312,-12.54688 z m -51.9688,-18.4375 c -1.7812,0 -3.3281,-1.53125 -3.3281,-3.32812 0,-1.53125 1.5469,-3.0625 3.3281,-3.0625 1.5469,0 3.0782,1.53125 3.0782,3.0625 0,1.79687 -1.5313,3.32812 -3.0782,3.32812 z m 0,0"
         id="path487" />
      <path
         style="fill:#a88c5c;fill-opacity:1;stroke:none"
         d="m 1862.8594,492 -32.25,-38.40625 -12.7969,25.59375 25.8594,30.71878 c 6.3906,7.6875 4.0937,12.2968 -0.2656,16.3906 l -25.5938,23.2969 v 6.4062 l 42.2344,-38.4062 h 9.2187 V 492 Z m 0,0"
         id="path495" />
      <path
         style="fill:#a88c5c;fill-opacity:1;stroke:none"
         d="m 1878.2188,517.59378 c 8.4531,0 15.3594,-6.9063 15.3594,-15.35941 V 330.71875 l -25.5938,25.59375 V 492 h -12.7969 v 25.59378 z m 0,0"
         id="path499" />
      <path
         style="fill:#a88c5c;fill-opacity:1;stroke:none"
         d="m 1941.7187,517.59378 c 18.1719,0 27.125,-8.4532 33.7813,-16.64066 -29.4375,0 -51.2031,-26.10937 -51.2031,-60.15625 V 300 l -25.5938,25.59375 v 122.875 c 0,37.64062 14.5938,69.12503 43.0156,69.12503 z m 0,0"
         id="path503" />
      <path
         style="fill:#a88c5c;fill-opacity:1;stroke:none"
         d="m 2126.5469,522.71878 h -84.4844 c -9.9844,0 -17.9219,-7.9375 -17.9219,-17.92191 v -4.09375 h 5.125 v 4.09375 c 0,7.17191 5.625,12.79691 12.7969,12.79691 h 57.8594 V 492 c -7.6875,0 -10.5,-5.375 -12.0313,-10.5 -7.1718,-23.8125 -25.3437,-40.70313 -51.4531,-40.70313 -30.7187,0 -55.8125,24.0625 -55.8125,53.75 0,29.70311 25.0938,53.76561 55.8125,53.76561 h 57.5938 l -87.8125,87.8125 c -28.6719,-33.0312 -84.7344,-59.3906 -117.75,-67.3281 l 102.3906,89.5937 z m 0,0"
         id="path511" />
      <path
         style="fill:#a88c5c;fill-opacity:1;stroke:none"
         d="M 2270.4219,461.78125 H 2111.7032 L 2103.25,440.79687 2087.375,460 l 12.5469,32 h -12.7969 v 25.59378 h 189.6875 l 9.7344,-23.54691 c 1.2813,-3.32812 1.7969,-5.375 -0.25,-8.45312 z m -148.4844,25.60937 h 133.8907 L 2258.8907,492 h -135.1563 z m 0,0"
         id="path519" />
      <path
         style="fill:#a88c5c;fill-opacity:1;stroke:none"
         d="m 2310.0937,517.59378 h 11.5157 V 492 h -5.125 V 300 l -25.5938,25.59375 v 211.20313 z m 0,0"
         id="path523" />
      <path
         style="fill:#a88c5c;fill-opacity:1;stroke:none"
         d="M 2329.2969,517.59378 V 492 c -7.6875,0 -12.8125,-10.25 -12.8125,-25.60938 h -20.4688 v 51.20316 z m 0,0"
         id="path527" />
      <path
         style="fill:#a88c5c;fill-opacity:1;stroke:none"
         d="m 2419.4063,493.01562 c -9.9844,-15.60937 -29.6875,-41.21875 -36.3438,-65.01562 -3.8437,4.85937 -17.9219,9.20312 -28.1719,12.79687 -15.0937,5.375 -28.1562,16.125 -28.1562,35.84375 0,4.85938 1.0312,9.98438 2.8125,15.35938 H 2316.5 v 25.59378 h 97.2813 l 6.6562,-12.03128 c 1.7813,-3.32813 1.2813,-8.95313 -1.0312,-12.54688 z m -51.9688,-18.4375 c -1.7812,0 -3.3281,-1.53125 -3.3281,-3.32812 0,-1.53125 1.5469,-3.0625 3.3281,-3.0625 1.5469,0 3.0781,1.53125 3.0781,3.0625 0,1.79687 -1.5312,3.32812 -3.0781,3.32812 z m 0,0"
         id="path531" />
      <path
         style="fill:#a88c5c;fill-opacity:1;stroke:none"
         d="m 2572.5,522.71878 h -84.4844 c -9.9844,0 -17.9219,-7.9375 -17.9219,-17.92191 v -4.09375 h 5.125 v 4.09375 c 0,7.17191 5.625,12.79691 12.7969,12.79691 h 57.8594 V 492 c -7.6875,0 -10.5,-5.375 -12.0313,-10.5 -7.1718,-23.8125 -25.3437,-40.70313 -51.4531,-40.70313 -30.7187,0 -55.8125,24.0625 -55.8125,53.75 0,29.70311 25.0938,53.76561 55.8125,53.76561 h 57.5938 l -87.8125,87.8125 c -28.6719,-33.0312 -84.7344,-59.3906 -117.75,-67.3281 l 102.3906,89.5937 z m 0,0"
         id="path539" />
      <path
         style="fill:#a88c5c;fill-opacity:1;stroke:none"
         d="m 2603.2188,517.59378 11.0156,-19.20316 c 2.2969,-3.84375 2.2969,-8.4375 0.25,-12.79687 L 2577.625,402.39062 2520.0156,453.59375 2572.5,492 h -39.4219 v 25.59378 z m -33.7969,-64.00003 c -1.7813,0 -3.3281,-1.53125 -3.3281,-3.32813 0,-1.53125 1.5468,-3.07812 3.3281,-3.07812 1.5469,0 3.0781,1.54687 3.0781,3.07812 0,1.79688 -1.5312,3.32813 -3.0781,3.32813 z m 0,0"
         id="path547" />
      <path
         style="fill:#a88c5c;fill-opacity:1;stroke:none"
         d="m 2623.6875,440.79687 -12.7969,25.59375 33.2813,49.92186 c 7.1718,11.0156 7.4218,16.8906 -2.5625,26.375 l -98.5625,93.6875 c -28.6719,-33.0156 -84.4688,-59.6406 -117.75,-67.5781 l 102.3906,89.5937 145.6719,-137.9843 c 2.2968,-2.2969 1.7812,-4.6094 0,-7.4219 z m 0,0"
         id="path559" />
      <path
         style="fill:#a88c5c;fill-opacity:1;stroke:none"
         d="m 2699.2187,517.59378 h 11.5157 V 492 h -5.125 V 300 l -25.5938,25.59375 v 211.20313 z m 0,0"
         id="path563" />
      <path
         style="fill:#a88c5c;fill-opacity:1;stroke:none"
         d="M 2718.4219,517.59378 V 492 c -7.6875,0 -12.8125,-10.25 -12.8125,-25.60938 h -20.4688 v 51.20316 z m 0,0"
         id="path567" />
      <path
         style="fill:#a88c5c;fill-opacity:1;stroke:none"
         d="m 2882.2656,461.78125 h -131.3281 l 85.75,-85.75 c 6.9219,-6.92187 5.375,-14.85937 1.0313,-24.57812 L 2815.7031,300 2796.5,325.59375 l 22.0156,51.45313 c 1.2813,3.59375 1.5313,8.1875 -2.8125,12.54687 l -97.7968,97.79687 h 152.8281 L 2875.0938,492 H 2705.625 v 25.59378 h 192 l 6.6563,-17.92191 c 1.0156,-2.8125 2.0468,-8.45312 -1.5469,-12.79687 z m 0,0"
         id="path571" />
      <path
         style="fill:#a88c5c;fill-opacity:1;stroke:none"
         d="m 2929.625,517.59378 h 11.5156 V 492 h -5.125 V 300 l -25.5937,25.59375 v 211.20313 z m 0,0"
         id="path579" />
      <path
         style="fill:#a88c5c;fill-opacity:1;stroke:none"
         d="M 2948.8281,517.59378 V 492 c -7.6875,0 -12.8125,-10.25 -12.8125,-25.60938 h -20.4687 v 51.20316 z m 0,0"
         id="path583" />
      <path
         style="fill:#a88c5c;fill-opacity:1;stroke:none"
         d="M 3038.9375,493.01562 C 3028.9531,477.40625 3009.25,451.79687 3002.5937,428 c -3.8437,4.85937 -17.9218,9.20312 -28.1718,12.79687 -15.0938,5.375 -28.1563,16.125 -28.1563,35.84375 0,4.85938 1.0313,9.98438 2.8125,15.35938 h -13.0469 v 25.59378 h 97.2813 l 6.6562,-12.03128 c 1.7813,-3.32813 1.2813,-8.95313 -1.0312,-12.54688 z m -51.9688,-18.4375 c -1.7812,0 -3.3281,-1.53125 -3.3281,-3.32812 0,-1.53125 1.5469,-3.0625 3.3281,-3.0625 1.5469,0 3.0782,1.53125 3.0782,3.0625 0,1.79687 -1.5313,3.32812 -3.0782,3.32812 z m 0,0"
         id="path587" />
      <path
         style="fill:#a88c5c;fill-opacity:1;stroke:none"
         d="m 351.45312,874.46878 c -27.14062,-12.5469 -39.17187,-34.8282 -39.17187,-62.4688 0,-24.8281 10.76563,-53.25 48.90625,-86.2656 l 15.60937,22.2656 c 13.57813,18.1719 23.04688,31.2344 32.00001,51.2031 3.07812,-4.6093 6.40625,-12.5468 6.40625,-23.0468 0,-17.6563 -19.71876,-44.0313 -26.37501,-53.75 l -35.0625,-51.2032 -12.8125,25.5938 17.15625,24.5781 C 319.96875,753.89058 300,783.57808 300,824.79688 c 0,46.5937 29.4375,76.7969 75.51562,76.7969 24.57813,0 50.43751,-9.9844 65.28125,-20.4688 -31.48437,6.1406 -66.29687,3.8281 -89.34375,-6.6562 z m 0,0"
         id="path892" />
      <path
         style="fill:#a88c5c;fill-opacity:1;stroke:none"
         d="m 439.51562,747.99998 h 11.51563 v -25.5937 h -5.125 v -192 l -25.59375,25.5937 v 211.2031 z m 0,0"
         id="path896" />
      <path
         style="fill:#a88c5c;fill-opacity:1;stroke:none"
         d="m 472.79687,747.99998 v -25.5937 h -5.125 l -42.23437,-62.2188 v 87.8125 z m 0,0"
         id="path900" />
      <path
         style="fill:#a88c5c;fill-opacity:1;stroke:none"
         d="m 467.9375,671.20308 -16.90625,19.2032 21.76563,32 H 460 v 25.5937 h 47.09375 v -25.5937 H 502.5 Z m 0,0"
         id="path908" />
      <path
         style="fill:#a88c5c;fill-opacity:1;stroke:none"
         d="m 597.20312,723.42188 c -9.98437,-15.6094 -29.6875,-41.2188 -36.34375,-65.0156 -3.84375,4.8593 -17.92187,9.2031 -28.17187,12.7968 -15.09375,5.375 -28.15625,16.125 -28.15625,35.8438 0,4.8594 1.03125,9.9844 2.8125,15.3594 h -13.04688 v 25.5937 h 97.28125 l 6.65625,-12.0312 c 1.78125,-3.3282 1.28125,-8.9532 -1.03125,-12.5469 z m -51.96875,-18.4375 c -1.78125,0 -3.32812,-1.5313 -3.32812,-3.3281 0,-1.5313 1.54687,-3.0625 3.32812,-3.0625 1.54688,0 3.07813,1.5312 3.07813,3.0625 0,1.7968 -1.53125,3.3281 -3.07813,3.3281 z m 0,0"
         id="path912" />
      <path
         style="fill:#a88c5c;fill-opacity:1;stroke:none"
         d="m 597.45312,671.20308 -12.79687,25.5938 33.28125,49.9219 c 7.17187,11.0156 7.42187,16.8906 -2.5625,26.375 l -98.5625,93.6875 c -28.67188,-33.0157 -84.46875,-59.6407 -117.75,-67.5782 l 102.39062,89.5938 145.67188,-137.9844 c 2.29687,-2.2969 1.78125,-4.6094 0,-7.4219 z m 0,0"
         id="path924" />
      <path
         style="fill:#a88c5c;fill-opacity:1;stroke:none"
         d="M 672.98437,747.99998 H 684.5 v -25.5937 h -5.125 v -192 l -25.59375,25.5937 v 211.2031 z m 0,0"
         id="path928" />
      <path
         style="fill:#a88c5c;fill-opacity:1;stroke:none"
         d="m 692.1875,747.99998 v -25.5937 c -7.6875,0 -12.8125,-10.25 -12.8125,-25.6094 h -20.46875 v 51.2031 z m 0,0"
         id="path932" />
      <path
         style="fill:#a88c5c;fill-opacity:1;stroke:none"
         d="m 782.29687,723.42188 c -9.98437,-15.6094 -29.6875,-41.2188 -36.34375,-65.0156 -3.84375,4.8593 -17.92187,9.2031 -28.17187,12.7968 -15.09375,5.375 -28.15625,16.125 -28.15625,35.8438 0,4.8594 1.03125,9.9844 2.8125,15.3594 h -13.04688 v 25.5937 h 97.28125 l 6.65625,-12.0312 c 1.78125,-3.3282 1.28125,-8.9532 -1.03125,-12.5469 z m -51.96875,-18.4375 c -1.78125,0 -3.32812,-1.5313 -3.32812,-3.3281 0,-1.5313 1.54687,-3.0625 3.32812,-3.0625 1.54688,0 3.07813,1.5312 3.07813,3.0625 0,1.7968 -1.53125,3.3281 -3.07813,3.3281 z m 0,0"
         id="path936" />
      <path
         style="fill:#a88c5c;fill-opacity:1;stroke:none"
         d="m 824.26562,722.40628 -32.25,-38.4063 -12.79687,25.5938 25.85937,30.7187 c 6.3906,7.6875 4.0938,12.2969 -0.2656,16.3906 l -25.59377,23.2969 v 6.4063 l 42.23437,-38.4063 h 9.2188 v -25.5937 z m 0,0"
         id="path944" />
      <path
         style="fill:#a88c5c;fill-opacity:1;stroke:none"
         d="m 839.62502,747.99998 c 8.4531,0 15.3594,-6.9062 15.3594,-15.3594 v -171.5156 l -25.5938,25.5938 v 135.6875 h -12.7969 v 25.5937 z m 0,0"
         id="path948" />
      <path
         style="fill:#a88c5c;fill-opacity:1;stroke:none"
         d="m 903.12502,747.99998 c 18.1719,0 27.125,-8.4531 33.7812,-16.6406 -29.4375,0 -51.2031,-26.1094 -51.2031,-60.1563 v -140.7968 l -25.5937,25.5937 v 122.875 c 0,37.6406 14.5937,69.125 43.0156,69.125 z m 0,0"
         id="path952" />
      <path
         style="fill:#a88c5c;fill-opacity:1;stroke:none"
         d="m 972.23442,747.99998 c 18.1718,0 27.125,-8.4531 33.78118,-16.6406 -29.43748,0 -51.20308,-26.1094 -51.20308,-60.1563 v -140.7968 l -25.5938,25.5937 v 122.875 c 0,37.6406 14.5938,69.125 43.0157,69.125 z m 0,0"
         id="path960" />
      <path
         style="fill:#a88c5c;fill-opacity:1;stroke:none"
         d="m 1131.7031,712.92188 c 0,-0.25 -0.25,-0.25 -0.5156,-0.5 l -77.0469,-66.8281 -12.0312,23.8125 61.1875,53 h -6.6563 l -56.3281,-48.9063 -37.375,74.5 h 130.0469 l 16.125,19.2031 19.2031,-19.2031 v -25.5937 h -25.5938 z m 0,0"
         id="path968" />
      <path
         style="fill:#a88c5c;fill-opacity:1;stroke:none"
         d="m 1231.7969,747.99998 10.2343,-12.7969 c 3.5938,-4.3593 3.5938,-10.75 -0.5,-15.875 -25.6093,-33.0312 -29.7031,-51.4531 -35.3281,-73.7343 -3.8437,4.875 -24.8437,13.8281 -38.4062,19.2031 -17.4063,6.9219 -25.5938,23.0469 -25.5938,35.8437 0,8.4532 3.0625,16.6407 5.625,21.7657 h -17.9219 v 25.5937 z m -41.2188,-51.2031 c -1.7969,0 -3.3281,-1.5313 -3.3281,-3.3281 0,-1.5313 1.5312,-3.0625 3.3281,-3.0625 1.5313,0 3.0781,1.5312 3.0781,3.0625 0,1.7968 -1.5468,3.3281 -3.0781,3.3281 z m 12.5469,23.0469 c -1.7969,0 -3.3281,-1.5469 -3.3281,-3.3282 0,-1.5468 1.5312,-3.0781 3.3281,-3.0781 1.5312,0 3.0781,1.5313 3.0781,3.0781 0,1.7813 -1.5469,3.3282 -3.0781,3.3282 z m 0,0"
         id="path972" />
      <path
         style="fill:#a88c5c;fill-opacity:1;stroke:none"
         d="m 1723.295,651.99998 -20.4844,17.4063 35.5781,53 h -5.1093 l -33.2813,-50.4375 -20.7344,17.4062 22.0157,33.0313 h -5.3907 l -19.9531,-30.2188 -20.4844,17.4063 25.5938,38.4062 c 5.125,10.75 4.0937,17.9219 -5.1094,27.6406 l -88.5781,90.625 c -28.9375,-32.7656 -84.4844,-59.125 -117.5156,-67.0625 l 102.4062,89.5938 137.4688,-140.7969 h 50.1718 l 9.7344,-21.5 c 0.7656,-1.7969 0.5156,-4.3594 -0.5156,-6.1406 z m 0,0"
         id="path591" />
      <path
         style="fill:#a88c5c;fill-opacity:1;stroke:none"
         d="m 1794.4669,747.99998 h 11.5157 v -25.5937 h -5.125 v -192 l -25.5938,25.5937 v 211.2031 z m 0,0"
         id="path595" />
      <path
         style="fill:#a88c5c;fill-opacity:1;stroke:none"
         d="m 1835.42,747.99998 v -25.5937 h -5.125 l -42.2344,-62.2188 v 87.8125 z m 0,0"
         id="path599" />
      <path
         style="fill:#a88c5c;fill-opacity:1;stroke:none"
         d="m 1830.5606,671.20308 -16.9062,19.2032 21.7656,32 h -12.7969 v 25.5937 h 47.0938 v -25.5937 h -4.5938 z m 0,0"
         id="path607" />
      <path
         style="fill:#a88c5c;fill-opacity:1;stroke:none"
         d="m 1895.3106,561.12498 -25.5937,25.5938 v 135.6875 H 1856.92 v 25.5937 h 43.5156 v -25.5937 h -5.125 z m 0,0"
         id="path611" />
      <path
         style="fill:#a88c5c;fill-opacity:1;stroke:none"
         d="m 1900.4356,555.99998 v 166.4063 h -12.7969 v 25.5937 h 23.0313 c 8.4531,0 15.3594,-6.9062 15.3594,-15.3594 v -202.2343 z m 0,0"
         id="path615" />
      <path
         style="fill:#a88c5c;fill-opacity:1;stroke:none"
         d="M 1442.5156,952.81245 C 1423.5781,926.18745 1409.5,902.12498 1399,875.99998 c -9.4687,8.9688 -64,33.54687 -64,69.12497 0,19.9688 16.3906,33.2813 33.7969,33.2813 h 54.5156 l 19.2031,19.2031 19.2032,-19.2031 v -25.5938 z m -56.8281,-11.7812 c -1.7969,0 -3.3281,-1.5313 -3.3281,-3.3282 0,-1.5312 1.5312,-3.0781 3.3281,-3.0781 1.5313,0 3.0781,1.5469 3.0781,3.0781 0,1.7969 -1.5468,3.3282 -3.0781,3.3282 z m 0,0"
         id="path623" />
      <path
         style="fill:#a88c5c;fill-opacity:1;stroke:none"
         d="m 1673.2082,882.40628 -20.4843,17.4062 35.5937,52.99997 h -5.125 l -33.2812,-50.43747 -20.7344,17.40627 22.0156,33.0312 h -5.375 l -19.9687,-30.2187 -20.4844,17.4062 8.4531,12.8125 h -162.7969 v 25.5938 h 258.7969 l 9.7344,-21.5 c 0.7656,-1.7969 0.5,-4.3594 -0.5156,-6.1407 z"
         id="path627"
         sodipodi:nodetypes="ccccccccccccccccc" />
      <path
         style="fill:#a88c5c;fill-opacity:1;stroke:none"
         d="m 1744.3801,978.40625 h 11.5157 v -25.5938 h -5.125 V 760.81248 l -25.5938,25.5938 v 211.20307 z m 0,0"
         id="path631" />
      <path
         style="fill:#a88c5c;fill-opacity:1;stroke:none"
         d="m 1777.6613,978.40625 v -25.5938 h -5.125 l -42.2343,-62.21867 v 87.81247 z m 0,0"
         id="path635" />
      <path
         style="fill:#a88c5c;fill-opacity:1;stroke:none"
         d="m 1772.8019,901.60938 -16.9062,19.20307 21.7656,32 h -12.7969 v 25.5938 h 47.0938 v -25.5938 h -4.5938 z m 0,0"
         id="path643" />
      <path
         style="fill:#a88c5c;fill-opacity:1;stroke:none"
         d="m 1871.3488,882.40628 -20.4843,17.4062 35.5937,52.99997 h -5.125 l -33.2812,-50.43747 -20.7344,17.40627 22.0156,33.0312 h -5.375 l -19.9687,-30.2187 -20.4844,17.4062 8.4531,12.8125 h -12.7969 v 25.5938 h 108.7969 l 9.7344,-21.5 c 0.7656,-1.7969 0.5,-4.3594 -0.5156,-6.1407 z m 0,0"
         id="path647" />
      <path
         style="fill:#a88c5c;fill-opacity:1;stroke:none"
         d="m 1917.4114,1081.3124 c -18.1719,-26.3594 -13.8125,-67.3281 3.8437,-102.90615 h 96 l 15.3594,-25.5938 h -76.0313 l -12.7968,-51.20307 24.8281,-33.2813 v -25.6093 l -46.0781,79.37497 7.6875,30.9687 v 0.25 c -25.0938,32.2656 -38.4063,67.84375 -38.4063,108.29685 0,49.6562 33.7969,70.3906 71.9375,70.3906 26.875,0 54.0156,-9.9844 68.8594,-20.4687 -51.7031,6.9062 -95.4844,-2.0469 -115.2031,-30.2188 z m 0,0"
         id="path655" />
      <path
         style="fill:#a88c5c;fill-opacity:1;stroke:none"
         d="m 2072.5519,978.40625 c 18.1719,0 27.125,-8.4532 33.7813,-16.6407 -29.4375,0 -51.2031,-26.1093 -51.2031,-60.15617 v -140.7969 l -25.5938,25.5938 v 122.87497 c 0,37.6406 14.5938,69.125 43.0156,69.125 z m 0,0"
         id="path659" />
      <path
         style="fill:#a88c5c;fill-opacity:1;stroke:none"
         d="m 2232.0207,943.32805 c 0,-0.25 -0.25,-0.25 -0.5156,-0.5 l -77.0469,-66.82807 -12.0312,23.8125 61.1875,52.99997 h -6.6563 l -56.3281,-48.90617 -37.375,74.49997 h 130.0469 l 16.125,19.2031 19.2031,-19.2031 v -25.5938 h -25.5937 z m 0,0"
         id="path663" />
      <path
         style="fill:#a88c5c;fill-opacity:1;stroke:none"
         d="m 2297.552,978.40625 v -25.5938 h -19.4532 l -35.0781,-51.20307 -12.7969,25.59367 17.9219,25.6094 h -12.7969 v 25.5938 h 30.7188 c 13.5625,18.1718 23.0312,31.23425 32,51.20305 3.0625,-4.6094 6.3906,-12.5469 6.3906,-23.0469 0,-8.43745 -4.3437,-18.68745 -9.7187,-28.15615 z m 0,0"
         id="path671" />
      <path
         style="fill:#a88c5c;fill-opacity:1;stroke:none"
         d="m 2293.4582,978.40625 c 8.4531,0 15.3594,-6.9063 15.3594,-15.3594 V 791.53128 l -25.5938,25.5937 v 135.68747 h -12.7969 v 25.5938 z m 0,0"
         id="path675" />
      <path
         style="fill:#a88c5c;fill-opacity:1;stroke:none"
         d="m 2356.9582,978.40625 c 18.1719,0 27.125,-8.4532 33.7813,-16.6407 -29.4375,0 -51.2032,-26.1093 -51.2032,-60.15617 v -140.7969 l -25.5937,25.5938 v 122.87497 c 0,37.6406 14.5937,69.125 43.0156,69.125 z m 0,0"
         id="path679" />
      <path
         style="fill:#a88c5c;fill-opacity:1;stroke:none"
         d="m 2455.7551,974.04685 c 5.125,-4.5938 4.875,-9.4688 2.3125,-14.5781 l -36.6094,-70.65627 -44.7969,51.18747 44.5469,43.7813 c 7.1563,6.9062 5.375,10.2343 -0.5156,15.6093 l -12.0313,11.01565 v 6.4062 z m -37.375,-34.0469 c -1.7813,0 -3.3281,-1.5312 -3.3281,-3.3281 0,-1.5313 1.5468,-3.0625 3.3281,-3.0625 1.5469,0 3.0781,1.5312 3.0781,3.0625 0,1.7969 -1.5312,3.3281 -3.0781,3.3281 z m 0,0"
         id="path683" />
      <path
         style="fill:#a88c5c;fill-opacity:1;stroke:none"
         d="m 2459.3332,901.60938 -12.7969,25.59367 33.2813,49.9219 c 7.1718,11.0156 7.4218,16.8906 -2.5625,26.37495 l -98.5625,93.6875 c -28.6719,-33.0156 -84.4688,-59.6406 -117.75,-67.5781 l 102.3906,89.5937 143.1094,-135.67175 5.625,-5.125 h 1.2812 v -25.5938 h -18.6875 z m 0,0"
         id="path695" />
      <path
         style="fill:#a88c5c;fill-opacity:1;stroke:none"
         d="m 2548.1301,978.40625 20.0156,-19.2032 c 2.2969,-3.8437 2.2969,-8.4375 0.25,-12.7968 l -36.8594,-83.20317 -57.6094,51.20317 52.4844,38.4062 h -39.4219 v 25.5938 z m -24.7969,-64 c -1.7813,0 -3.3281,-1.5313 -3.3281,-3.3282 0,-1.5312 1.5468,-3.0781 3.3281,-3.0781 1.5469,0 3.0781,1.5469 3.0781,3.0781 0,1.7969 -1.5312,3.3282 -3.0781,3.3282 z"
         id="path703"
         sodipodi:nodetypes="cccccccccsssss" />
      <path
         style="fill:#a88c5c;fill-opacity:1;stroke:none"
         d="m 2769.7238,943.59375 -17.1562,-21 h -131.3281 l 85.75,-85.74997 c 6.9218,-6.9219 5.3906,-14.8594 1.0312,-24.5782 l -22.0156,-51.4531 -19.2031,25.5938 22.0156,51.4531 c 1.2812,3.5937 1.5469,8.1875 -2.8125,12.5469 l -97.7969,97.79677 h 152.8438 l 4.3437,4.6094 h -161.7969 l -25.5937,25.5938 h 224.5156 v -25.5938 h -5.125 z m 0,0"
         id="path711" />
      <path
         style="fill:#a88c5c;fill-opacity:1;stroke:none"
         d="m 2777.6613,901.60938 -16.9062,19.20307 21.7656,32 h -12.7969 v 25.5938 h 47.0938 v -25.5938 h -4.5938 z m 0,0"
         id="path719" />
      <path
         style="fill:#a88c5c;fill-opacity:1;stroke:none"
         d="m 2848.5676,952.81245 -4.875,-6.9219 25.8594,-18.6875 c 4.8593,-3.3281 9.2187,-9.4687 5.375,-15.3593 l -34.5625,-51.96877 -57.8438,41.7344 34.2969,51.20307 h -15.1094 v 25.5938 h 32.2656 l 13.0469,19.4531 18.4375,-19.4531 h 16.125 v -25.5938 z m -14.0938,-45.5781 c 1.5469,0 3.0782,1.5469 3.0782,3.0781 0,1.7969 -1.5313,3.3281 -3.0782,3.3281 -1.7812,0 -3.3125,-1.5312 -3.3125,-3.3281 0,-1.5312 1.5313,-3.0781 3.3125,-3.0781 z m 0,0"
         id="path727" />
      <path
         style="fill:#a88c5c;fill-opacity:1;stroke:none"
         d="m 2891.8176,978.40625 c 8.4531,0 15.3594,-6.9063 15.3594,-15.3594 V 791.53128 l -25.5938,25.5937 v 135.68747 h -12.7969 v 25.5938 z m 0,0"
         id="path731" />
      <path
         style="fill:#a88c5c;fill-opacity:1;stroke:none"
         d="m 2931.5051,978.40625 h 11.5157 v -25.5938 h -5.125 V 760.81248 l -25.5938,25.5938 v 211.20307 z m 0,0"
         id="path735" />
      <path
         style="fill:#a88c5c;fill-opacity:1;stroke:none"
         d="m 2990.1301,978.40625 v -25.5938 l -52.2344,-38.4062 h -20.4687 v 64 z m 0,0"
         id="path739" />
      <path
         style="fill:#a88c5c;fill-opacity:1;stroke:none"
         d="m 3028.2708,978.40625 11.0156,-19.2032 c 2.2969,-3.8437 2.2969,-8.4375 0.25,-12.7968 l -36.8594,-83.20317 -57.6094,51.20317 52.4844,38.4062 h -39.4219 v 25.5938 z m -33.7969,-64 c -1.7813,0 -3.3281,-1.5313 -3.3281,-3.3282 0,-1.5312 1.5468,-3.0781 3.3281,-3.0781 1.5469,0 3.0781,1.5469 3.0781,3.0781 0,1.7969 -1.5312,3.3282 -3.0781,3.3282 z m 0,0"
         id="path747" />
      <path
         style="fill:#a88c5c;fill-opacity:1;stroke:none"
         d="m 351.45312,1335.2813 c -27.14062,-12.5469 -39.17187,-34.8282 -39.17187,-62.4688 0,-24.8281 10.76563,-53.25 48.90625,-86.2657 l 15.60937,22.2657 c 13.57813,18.1719 23.04688,31.2344 32.00001,51.2031 3.07812,-4.6093 6.40625,-12.5468 6.40625,-23.0468 0,-17.6563 -19.71876,-44.0314 -26.37501,-53.7501 l -35.0625,-51.2032 -12.8125,25.5938 17.15625,24.5781 C 319.96875,1214.7031 300,1244.3906 300,1285.6094 c 0,46.5937 29.4375,76.7969 75.51562,76.7969 24.57813,0 50.43751,-9.9844 65.28125,-20.4688 -31.48437,6.1406 -66.29687,3.8281 -89.34375,-6.6562 z m 0,0"
         id="path751" />
      <path
         style="fill:#a88c5c;fill-opacity:1;stroke:none"
         d="m 439.51562,1208.8125 h 11.51563 v -25.5938 h -5.125 V 991.21875 l -25.59375,25.59365 v 211.2032 z m 0,0"
         id="path755" />
      <path
         style="fill:#a88c5c;fill-opacity:1;stroke:none"
         d="m 468.95312,1208.8125 v -25.5938 h -5.125 l -38.39062,-54.7969 v 80.3907 z m 0,0"
         id="path759" />
      <path
         style="fill:#a88c5c;fill-opacity:1;stroke:none"
         d="m 518.35937,1208.8125 v -25.5938 h -19.45312 l -35.07813,-51.2032 -12.79687,25.5938 17.92187,25.6094 h -12.79687 v 25.5938 H 486.875 c 13.5625,18.1719 23.03125,31.2344 32,51.2031 3.0625,-4.6093 6.39062,-12.5468 6.39062,-23.0468 0,-8.4375 -4.34375,-18.6876 -9.71875,-28.1563 z m 0,0"
         id="path767" />
      <path
         style="fill:#a88c5c;fill-opacity:1;stroke:none"
         d="m 529.89062,1208.8125 c 4.09375,-6.1406 7.67188,-11.5157 7.67188,-15.6095 0,-4.1093 -1.78125,-7.1718 -3.82813,-9.9843 l -54.79687,-81.4219 -13.04688,25.6094 38.14063,55.8125 h -12.54688 v 25.5938 z m 0,0"
         id="path775" />
      <path
         style="fill:#a88c5c;fill-opacity:1;stroke:none"
         d="m 608.98437,1204.4531 c 5.125,-4.5938 4.875,-9.4688 2.3125,-14.5782 l -36.60937,-70.6562 -44.79688,51.1875 44.54688,43.7813 c 7.15625,6.9062 5.375,10.2344 -0.51563,15.6094 l -12.03125,11.0156 v 6.4063 z m -37.375,-34.0469 c -1.78125,0 -3.32812,-1.5313 -3.32812,-3.3282 0,-1.5312 1.54687,-3.0625 3.32812,-3.0625 1.54688,0 3.07813,1.5313 3.07813,3.0625 0,1.7969 -1.53125,3.3282 -3.07813,3.3282 z m 0,0"
         id="path779" />
      <path
         style="fill:#a88c5c;fill-opacity:1;stroke:none"
         d="m 720.84375,1183.2187 c -18.9375,-26.625 -33.01563,-50.6875 -43.51563,-76.8125 -9.46875,8.9687 -64,33.5468 -64,69.125 0,19.9687 16.39063,33.2813 33.79688,33.2813 h 54.51562 l 19.20313,19.2031 19.20312,-19.2031 v -25.5938 z m -56.82813,-11.7813 c -1.79687,0 -3.32812,-1.5312 -3.32812,-3.3281 0,-1.5313 1.53125,-3.0781 3.32812,-3.0781 1.53125,0 3.07813,1.5468 3.07813,3.0781 0,1.7969 -1.54688,3.3281 -3.07813,3.3281 z m 0,0"
         id="path791" />
      <path
         style="fill:#a88c5c;fill-opacity:1;stroke:none"
         d="m 739.53125,1132.0155 24.84375,-33.2812 v -25.6094 l -46.09375,79.375 7.6875,30.7188 h -12.79688 v 25.5938 h 99.84375 l 15.3594,-25.5938 h -76.03127 z m 0,0"
         id="path795" />
      <path
         style="fill:#a88c5c;fill-opacity:1;stroke:none"
         d="m 868.29692,1208.8125 c 18.1718,0 27.125,-8.4531 33.7812,-16.6407 -29.4375,0 -51.2031,-26.1094 -51.2031,-60.1563 V 991.21875 l -25.5938,25.59365 v 122.875 c 0,37.6406 14.5938,69.1251 43.0157,69.1251 z m 0,0"
         id="path799" />
      <path
         style="fill:#a88c5c;fill-opacity:1;stroke:none"
         d="m 935.09372,1183.2187 -32.25,-38.4063 -12.7968,25.5938 25.8593,30.7188 c 6.3907,7.6875 4.0938,12.2969 -0.2656,16.3906 l -25.5937,23.2969 v 6.4063 l 42.2343,-38.4063 h 9.2188 v -25.5938 z m 0,0"
         id="path803" />
      <path
         style="fill:#a88c5c;fill-opacity:1;stroke:none"
         d="m 940.21872,1183.2187 h -12.5468 v 25.5938 l 41.9843,-0.25 c 4.0938,-6.1563 7.6875,-11.0157 7.6875,-16.3907 0,-2.8125 -1.0312,-5.8906 -3.8437,-9.2188 l -56.3281,-67.3281 -12.5313,25.3438 z m 0,0"
         id="path811" />
      <path
         style="fill:#a88c5c;fill-opacity:1;stroke:none"
         d="M 1152.9531,1152.9999 H 994.23442 l -8.4532,-20.9844 -15.875,19.2032 24.5782,62.7188 c 1.5312,4.0937 1.5312,7.1562 -3.0782,12.5313 l -92.9218,99.8437 c -28.9219,-32.5156 -83.9688,-58.625 -116.73442,-66.2969 l 102.40622,89.5938 130.54688,-140.7969 h 144.6406 l 9.7344,-23.547 c 1.2813,-3.3281 1.7969,-5.375 -0.25,-8.4531 z m -11.5312,30.2188 h -135.1563 l -1.7969,-4.6094 h 133.8907 z m 0,0"
         id="path819" />
      <path
         style="fill:#a88c5c;fill-opacity:1;stroke:none"
         d="m 1246.375,1183.2187 -33.2813,-64 -44.7968,51.1875 44.5468,43.7813 c 7.1563,6.9062 5.375,10.2344 -0.5156,15.6094 l -12.0312,11.0156 v 6.4063 l 42.2344,-38.4063 h 8.9687 v -25.5938 z m -36.3594,-12.8125 c -1.7812,0 -3.3281,-1.5313 -3.3281,-3.3282 0,-1.5312 1.5469,-3.0625 3.3281,-3.0625 1.5469,0 3.0781,1.5313 3.0781,3.0625 0,1.7969 -1.5312,3.3282 -3.0781,3.3282 z m 0,0"
         id="path823" />
      <path
         style="fill:#a88c5c;fill-opacity:1;stroke:none"
         d="M 1436.8438,1175.2812 1422,1152.9999 h -158.7187 l -8.4532,-20.9844 -15.875,19.2032 12.5469,32 h -12.7969 v 25.5938 h 208.6407 v -25.5938 h -5.125 z m -163.3282,3.3281 h 133.8907 l 3.0625,4.6094 h -135.1563 z m 0,0"
         id="path827" />
      <path
         style="fill:#a88c5c;fill-opacity:1;stroke:none"
         d="m 1472.9376,1021.9374 -25.5938,25.5938 v 135.6875 h -12.7969 v 25.5938 h 43.5157 v -25.5938 h -5.125 z m 0,0"
         id="path831" />
      <path
         style="fill:#a88c5c;fill-opacity:1;stroke:none"
         d="m 1478.0625,1016.8124 v 166.4063 h -12.7969 v 25.5938 h 23.0313 c 8.4531,0 15.3594,-6.9063 15.3594,-15.3595 V 991.21875 Z m 0,0"
         id="path835" />
      <path
         style="fill:#a88c5c;fill-opacity:1;stroke:none"
         d="m 1551.7969,1208.8125 c 18.1719,0 27.125,-8.4531 33.7813,-16.6407 -29.4375,0 -51.2031,-26.1094 -51.2031,-60.1563 V 991.21875 l -25.5938,25.59365 v 122.875 c 0,37.6406 14.5938,69.1251 43.0156,69.1251 z m 0,0"
         id="path839" />
      <path
         style="fill:#a88c5c;fill-opacity:1;stroke:none"
         d="m 1736.625,1213.9375 h -84.4844 c -9.9844,0 -17.9219,-7.9375 -17.9219,-17.922 v -4.0937 h 5.125 v 4.0937 c 0,7.172 5.625,12.797 12.7969,12.797 H 1710 v -25.5938 c -7.6875,0 -10.5,-5.375 -12.0313,-10.5 -7.1718,-23.8125 -25.3437,-40.7032 -51.4531,-40.7032 -30.7187,0 -55.8125,24.0625 -55.8125,53.75 0,29.7032 25.0938,53.7658 55.8125,53.7658 h 57.5938 l -87.8125,87.8125 c -28.6719,-33.0313 -84.7344,-59.3907 -117.75,-67.3282 l 102.3906,89.5938 z m 0,0"
         id="path847" />
      <path
         style="fill:#a88c5c;fill-opacity:1;stroke:none"
         d="m 1708.9687,1132.0155 -16.9062,19.2032 21.7656,32 h -12.7969 v 25.5938 h 47.0938 v -25.5938 h -4.5938 z m 0,0"
         id="path855" />
      <path
         style="fill:#a88c5c;fill-opacity:1;stroke:none"
         d="m 1761.6875,1132.0155 24.8438,-33.2812 v -25.6094 l -46.0938,79.375 7.6875,30.7188 h -12.7969 v 25.5938 h 99.8438 l 15.3594,-25.5938 H 1774.5 Z m 0,0"
         id="path863" />
      <path
         style="fill:#a88c5c;fill-opacity:1;stroke:none"
         d="m 1921.9375,1204.4531 c 5.125,-4.5938 4.875,-9.4688 2.3125,-14.5782 l -36.6094,-70.6562 -44.7969,51.1875 44.5469,43.7813 c 7.1563,6.9062 5.375,10.2344 -0.5156,15.6094 l -12.0313,11.0156 v 6.4063 z m -37.375,-34.0469 c -1.7813,0 -3.3281,-1.5313 -3.3281,-3.3282 0,-1.5312 1.5468,-3.0625 3.3281,-3.0625 1.5469,0 3.0781,1.5313 3.0781,3.0625 0,1.7969 -1.5312,3.3282 -3.0781,3.3282 z m 0,0"
         id="path867" />
      <path
         style="fill:#a88c5c;fill-opacity:1;stroke:none"
         d="m 1649.7343,723.12498 h -346.0781 c -9.9844,0 -17.9219,-7.9375 -17.9219,-17.9219 v -4.0937 h 5.125 v 4.0937 c 0,7.1719 5.625,12.7969 12.7969,12.7969 h 57.8594 v -25.5937 c -7.6875,0 -10.5,-5.375 -12.0313,-10.5 -7.1718,-23.8125 -25.3437,-40.7032 -51.4531,-40.7032 -30.7187,0 -55.8125,24.0625 -55.8125,53.75 0,29.7032 25.0938,53.7657 55.8125,53.7657 h 326.1094 z"
         id="path1959"
         sodipodi:nodetypes="cssccsscccssscc" />
      <path
         style="fill:#a88c5c;fill-opacity:1;stroke:none"
         d="m 1418.8593,717.99998 11.0156,-19.2031 c 2.2969,-3.8438 2.2969,-8.4375 0.25,-12.7969 l -36.8594,-83.2031 -57.6094,51.2031 52.4844,38.4063 h -39.4219 v 25.5937 z m -33.7969,-64 c -1.7813,0 -3.3281,-1.5312 -3.3281,-3.3281 0,-1.5313 1.5468,-3.0781 3.3281,-3.0781 1.5469,0 3.0781,1.5468 3.0781,3.0781 0,1.7969 -1.5312,3.3281 -3.0781,3.3281 z m 0,0"
         id="path1963" />
    </g>
    <g
       id="g6017"
       transform="matrix(0.9044187,0,0,0.9044187,1145.1445,142.25187)">
      <g
         id="use4394"
         transform="matrix(0.58971403,0,0,0.58971403,418.57518,1485.7935)"
         style="fill:#ccc3b4;fill-opacity:1">
        <path
           style="fill:#ccc3b4;fill-opacity:1;stroke:none"
           d="M 21.25,-30.71875 16.890625,-36.859375 0,-17.65625 4.359375,-11.515625 Z M 29.4375,-19.203125 25.09375,-25.34375 8.1875,-6.140625 12.546875,0 Z m 0,0"
           id="path4495" />
      </g>
      <g
         id="g4597"
         style="fill:#a88c5c;fill-opacity:1"
         transform="translate(60.000012,30.000012)">
        <g
           id="use4392"
           transform="matrix(0.58971403,0,0,0.58971403,299.99998,1507.4211)"
           style="fill:#a88c5c;fill-opacity:1">
          <path
             style="fill:#a88c5c;fill-opacity:1;stroke:none"
             d="M 709.03615,5.125 H 61.4375 c -9.984375,0 -17.921875,-7.9375 -17.921875,-17.921875 v -4.09375 h 5.125 v 4.09375 C 48.640625,-5.625 54.265625,0 61.4375,0 h 57.85938 v -25.59375 c -7.6875,0 -10.5,-5.375 -12.03125,-10.5 -7.17188,-23.8125 -25.343755,-40.703125 -51.45313,-40.703125 -30.71875,0 -55.8125,24.0625 -55.8125,53.75 C 0,6.65625 25.09375,30.71875 55.8125,30.71875 h 627.6299 z"
             id="path4491"
             sodipodi:nodetypes="cssccsscccssscc" />
        </g>
        <g
           id="g4601"
           transform="matrix(0.58971403,0,0,0.58971403,419.71193,1507.4211)"
           style="fill:#a88c5c;fill-opacity:1;stroke:#232323;stroke-width:5.08721;stroke-miterlimit:4;stroke-dasharray:none;stroke-opacity:1;paint-order:normal">
          <path
             style="fill:#a88c5c;fill-opacity:1;stroke:#232323;stroke-width:5.08721;stroke-miterlimit:4;stroke-dasharray:none;stroke-opacity:1;paint-order:normal"
             d="M 65.28125,-25.59375 32,-89.59375 -12.796875,-38.40625 31.75,5.375 c 7.15625,6.90625 5.375,10.234375 -0.515625,15.609375 L 19.203125,32 v 6.40625 L 61.4375,0 h 8.96875 v -25.59375 z m -36.359375,-12.8125 c -1.78125,0 -3.328125,-1.53125 -3.328125,-3.328125 0,-1.53125 1.546875,-3.0625 3.328125,-3.0625 1.546875,0 3.078125,1.53125 3.078125,3.0625 0,1.796875 -1.53125,3.328125 -3.078125,3.328125 z m 0,0"
             id="path4599" />
        </g>
        <g
           id="g4605"
           transform="matrix(0.58971403,0,0,0.58971403,526.90167,1507.4211)"
           style="fill:#a88c5c;fill-opacity:1;stroke:#232323;stroke-width:5.08721;stroke-miterlimit:4;stroke-dasharray:none;stroke-opacity:1;paint-order:normal">
          <path
             style="fill:#a88c5c;fill-opacity:1;stroke:#232323;stroke-width:5.08721;stroke-miterlimit:4;stroke-dasharray:none;stroke-opacity:1;paint-order:normal"
             d="m 128.76562,-35.078125 c 0,-0.25 -0.25,-0.25 -0.51562,-0.5 l -77.046875,-66.828125 -12.03125,23.8125 61.187505,53 H 93.703125 L 37.375,-74.5 0,0 h 130.04687 l 16.125,19.203125 L 165.375,0 v -25.59375 h -25.59375 z m 0,0"
             id="path4603" />
        </g>
        <g
           id="g4609"
           transform="matrix(0.58971403,0,0,0.58971403,612.34571,1507.4211)"
           style="fill:#a88c5c;fill-opacity:1;stroke:#232323;stroke-width:5.08721;stroke-miterlimit:4;stroke-dasharray:none;stroke-opacity:1;paint-order:normal">
          <path
             style="fill:#a88c5c;fill-opacity:1;stroke:#232323;stroke-width:5.08721;stroke-miterlimit:4;stroke-dasharray:none;stroke-opacity:1;paint-order:normal"
             d="m 87.046875,-29.1875 c -1.546875,-2.296875 -3.328125,-4.859375 -5.125,-7.671875 l -8.96875,-13.3125 C 65.28125,-62.46875 57.34375,-76.28125 53.765625,-89.59375 c -3.84375,4.859375 -17.921875,9.203125 -28.171875,12.796875 -15.09375,5.375 -28.15625,16.125 -28.15625,35.84375 0,4.859375 1.03125,9.984375 2.8125,15.359375 H -12.796875 V 0 h 85.75 L 89.59375,19.203125 109.3125,2.5625 C 105.21875,-2.8125 96,-16.125 87.046875,-29.1875 Z m -48.90625,-13.828125 c -1.78125,0 -3.328125,-1.53125 -3.328125,-3.328125 0,-1.53125 1.546875,-3.0625 3.328125,-3.0625 1.546875,0 3.078125,1.53125 3.078125,3.0625 0,1.796875 -1.53125,3.328125 -3.078125,3.328125 z m 0,0"
             id="path4607" />
        </g>
        <g
           id="g4613"
           transform="matrix(0.58971403,0,0,0.58971403,668.65418,1507.4211)"
           style="fill:#a88c5c;fill-opacity:1;stroke:#232323;stroke-width:5.08721;stroke-miterlimit:4;stroke-dasharray:none;stroke-opacity:1;paint-order:normal">
          <path
             style="fill:#a88c5c;fill-opacity:1;stroke:#232323;stroke-width:5.08721;stroke-miterlimit:4;stroke-dasharray:none;stroke-opacity:1;paint-order:normal"
             d="M -5.125,-78.34375 -18.4375,-52.984375 14.34375,-4.09375 -3.078125,10.234375 -0.25,14.34375 17.15625,0 c 12.546875,17.921875 21.75,30.96875 30.203125,50.9375 3.078125,-4.59375 6.65625,-12.53125 6.90625,-23.03125 0.265625,-17.671875 -18.9375,-44.296875 -25.34375,-54.28125 z m 0,0"
             id="path4611" />
        </g>
        <g
           id="use4396"
           transform="matrix(0.58971403,0,0,0.58971403,370.35102,1507.4211)"
           style="fill:#a88c5c;fill-opacity:1">
          <path
             style="fill:#a88c5c;fill-opacity:1;stroke:none"
             d="m 57.34375,0 11.015625,-19.203125 c 2.296875,-3.84375 2.296875,-8.4375 0.25,-12.796875 L 31.75,-115.20313 -25.859375,-64 26.625,-25.59375 H -12.796875 V 0 Z M 23.546875,-64 c -1.78125,0 -3.328125,-1.53125 -3.328125,-3.328125 0,-1.53125 1.546875,-3.078125 3.328125,-3.078125 1.546875,0 3.078125,1.546875 3.078125,3.078125 C 26.625,-65.53125 25.09375,-64 23.546875,-64 Z m 0,0"
             id="path4499" />
        </g>
        <g
           id="use4398"
           transform="matrix(0.58971403,0,0,0.58971403,419.71193,1507.4211)"
           style="fill:#a88c5c;fill-opacity:1">
          <path
             style="fill:#a88c5c;fill-opacity:1;stroke:none"
             d="M 65.28125,-25.59375 32,-89.59375 -12.796875,-38.40625 31.75,5.375 c 7.15625,6.90625 5.375,10.234375 -0.515625,15.609375 L 19.203125,32 v 6.40625 L 61.4375,0 h 8.96875 v -25.59375 z m -36.359375,-12.8125 c -1.78125,0 -3.328125,-1.53125 -3.328125,-3.328125 0,-1.53125 1.546875,-3.0625 3.328125,-3.0625 1.546875,0 3.078125,1.53125 3.078125,3.0625 0,1.796875 -1.53125,3.328125 -3.078125,3.328125 z m 0,0"
             id="path4503" />
        </g>
        <g
           id="use4402"
           transform="matrix(0.58971403,0,0,0.58971403,461.23149,1507.4211)"
           style="fill:#a88c5c;fill-opacity:1">
          <path
             style="fill:#a88c5c;fill-opacity:1;stroke:none"
             d="m 59.390625,-96 -20.484375,17.40625 35.59375,53 H 69.375 L 36.09375,-76.03125 15.359375,-58.625 37.375,-25.59375 H 32 L 12.03125,-55.8125 -8.453125,-38.40625 0,-25.59375 H -12.796875 V 0 H 96 l 9.73438,-21.5 c 0.76562,-1.796875 0.5,-4.359375 -0.51563,-6.140625 z m 0,0"
             id="path4511" />
        </g>
        <g
           id="use4404"
           transform="matrix(0.58971403,0,0,0.58971403,526.90167,1507.4211)"
           style="fill:#a88c5c;fill-opacity:1">
          <path
             style="fill:#a88c5c;fill-opacity:1;stroke:none"
             d=""
             id="path4515" />
        </g>
        <g
           id="use4406"
           transform="matrix(0.58971403,0,0,0.58971403,526.90167,1507.4211)"
           style="fill:#a88c5c;fill-opacity:1">
          <path
             style="fill:#a88c5c;fill-opacity:1;stroke:none"
             d="m 128.76562,-35.078125 c 0,-0.25 -0.25,-0.25 -0.51562,-0.5 l -77.046875,-66.828125 -12.03125,23.8125 61.187505,53 H 93.703125 L 37.375,-74.5 0,0 h 130.04687 l 16.125,19.203125 L 165.375,0 v -25.59375 h -25.59375 z m 0,0"
             id="path4519" />
        </g>
        <g
           id="use4408"
           transform="matrix(0.58971403,0,0,0.58971403,612.34571,1507.4211)"
           style="fill:#a88c5c;fill-opacity:1">
          <path
             style="fill:#a88c5c;fill-opacity:1;stroke:none"
             d="m 87.046875,-29.1875 c -1.546875,-2.296875 -3.328125,-4.859375 -5.125,-7.671875 l -8.96875,-13.3125 C 65.28125,-62.46875 57.34375,-76.28125 53.765625,-89.59375 c -3.84375,4.859375 -17.921875,9.203125 -28.171875,12.796875 -15.09375,5.375 -28.15625,16.125 -28.15625,35.84375 0,4.859375 1.03125,9.984375 2.8125,15.359375 H -12.796875 V 0 h 85.75 L 89.59375,19.203125 109.3125,2.5625 C 105.21875,-2.8125 96,-16.125 87.046875,-29.1875 Z m -48.90625,-13.828125 c -1.78125,0 -3.328125,-1.53125 -3.328125,-3.328125 0,-1.53125 1.546875,-3.0625 3.328125,-3.0625 1.546875,0 3.078125,1.53125 3.078125,3.0625 0,1.796875 -1.53125,3.328125 -3.078125,3.328125 z m 0,0"
             id="path4523" />
        </g>
        <g
           id="use4410"
           transform="matrix(0.58971403,0,0,0.58971403,668.65418,1507.4211)"
           style="fill:#a88c5c;fill-opacity:1">
          <path
             style="fill:#a88c5c;fill-opacity:1;stroke:none"
             d="M -5.125,-78.34375 -18.4375,-52.984375 14.34375,-4.09375 -3.078125,10.234375 -0.25,14.34375 17.15625,0 c 12.546875,17.921875 21.75,30.96875 30.203125,50.9375 3.078125,-4.59375 6.65625,-12.53125 6.90625,-23.03125 0.265625,-17.671875 -18.9375,-44.296875 -25.34375,-54.28125 z m 0,0"
             id="path4527" />
        </g>
        <g
           id="use4412"
           transform="matrix(0.58971403,0,0,0.58971403,703.67767,1507.4211)"
           style="fill:#a88c5c;fill-opacity:1">
          <path
             style="fill:#a88c5c;fill-opacity:1;stroke:none"
             d=""
             id="path4531" />
        </g>
        <g
           id="use4414"
           transform="matrix(0.58971403,0,0,0.58971403,684.3461,1507.4211)"
           style="fill:#a88c5c;fill-opacity:1">
          <path
             style="fill:#a88c5c;fill-opacity:1;stroke:none"
             d="m 43.015625,0 c 18.171875,0 27.125,-8.453125 33.78125,-16.640625 -29.4375,0 -51.203125,-26.109375 -51.203125,-60.15625 V -217.59375 L 0,-192 V -69.125 C 0,-31.484375 14.59375,0 43.015625,0 Z m 0,0"
             id="path4535" />
        </g>
        <g
           id="use4416"
           transform="matrix(0.58971403,0,0,0.58971403,732.65658,1507.4211)"
           style="fill:#a88c5c;fill-opacity:1">
          <path
             style="fill:#a88c5c;fill-opacity:1;stroke:none"
             d=""
             id="path4539" />
        </g>
      </g>
      <g
         id="use4418"
         transform="matrix(0.58971403,0,0,0.58971403,792.65659,1537.4211)"
         style="fill:#ccc3b4;fill-opacity:1">
        <path
           style="fill:#ccc3b4;fill-opacity:1;stroke:none"
           d="m 0,-89.59375 h 128 v -12.8125 H 0 Z m 0,0"
           id="path4543" />
      </g>
      <g
         id="use4400"
         transform="matrix(0.58971403,0,0,0.58971403,521.2315,1537.4211)"
         style="fill:#ccc3b4;fill-opacity:1">
        <path
           style="fill:#ccc3b4;fill-opacity:1;stroke:none"
           d="m 35.078125,-84.484375 20.46875,-17.406255 -4.34375,-6.39062 L 30.71875,-90.875 Z m -23.5625,19.96875 L 32,-81.921875 27.640625,-88.3125 7.171875,-70.90625 Z M -12.28125,-44.28125 8.1875,-61.703125 3.84375,-68.09375 -16.640625,-50.6875 Z m 0,0"
           id="path4507" />
      </g>
    </g>
  </g>
  <g
     id="g496"
     transform="matrix(0.01989759,0,0,0.01989759,546.00481,1259.2411)"
     style="fill:#ccc3b4;fill-opacity:1">
    <path
       d="m 2657.1168,1840 h 4020.6595 l 82,-140 H 2713.1168 c -64,0 -108,-6 -154,-52 l -62,-62 c -34,-34 -16,-128 12,-100 l 104,104 c 20,20 38,30 62,30 h 134 v -140 h -62 c -18,0 -28,-10 -36,-18 l -128,-128 c -100,-100 -188,198 -188,296 0,170 114,208 262,210 z"
       id="path833-6"
       sodipodi:nodetypes="cccssssssccssssc"
       style="fill:#ccc3b4;fill-opacity:1" />
    <path
       d="m 2769.1168,1620 h 280 v -140 c -44,0 -80,-36 -80,-80 v -320 l -160,40 v 360 h -40 z"
       id="path837-0"
       style="fill:#ccc3b4;fill-opacity:1" />
    <path
       d="m 3009.1168,1620 h 760 v -140 c -44,0 -80,-36 -80,-80 v -320 l -160,40 v 360 c -44,0 -80,-36 -80,-80 v -260 l -160,40 v 300 c -44,0 -80,-36 -80,-80 v -200 l -160,40 v 240 h -40 z"
       id="path839-1"
       style="fill:#ccc3b4;fill-opacity:1" />
    <path
       d="m 3729.1168,1620 h 678 l 82,-140 h -274 c -116,0 -238,-130 -360,-280 l -86,140 c 38,56 94,114 124,140 h -164 z"
       id="path841-4"
       style="fill:#ccc3b4;fill-opacity:1" />
    <path
       d=""
       id="path843-8"
       style="fill:#ccc3b4;fill-opacity:1" />
    <path
       d="m 4489.1168,1620 h 1200 v -140 h -86 c -30,-190 -146,-220 -222,-220 h -652 l 54,-140 h -6 l -160,280 h 744 c 44,0 80,36 80,80 h -872 z"
       id="path845-3"
       style="fill:#ccc3b4;fill-opacity:1" />
    <path
       d="m 5649.1168,1620 h 124 c 46,0 76,-30 76,-80 V 500 l -160,40 v 940 h -40 z"
       id="path847-8"
       style="fill:#ccc3b4;fill-opacity:1" />
    <path
       d="M 6089.1168,1460 V 500 l -160,40 v 1000 c 0,50 30,80 76,80 h 164 v -140 h -60 c -14,0 -20,-6 -20,-20 z"
       id="path849-1"
       style="fill:#ccc3b4;fill-opacity:1" />
    <path
       d="m 6567.1168,1294 94,-158 -34,-20 -94,158 z"
       id="path851-5"
       style="fill:#ccc3b4;fill-opacity:1" />
    <path
       d="m 6129.1168,1620 h 678 l 82,-140 h -274 c -116,0 -238,-130 -360,-280 l -86,140 c 38,56 94,114 124,140 h -164 z"
       id="path853-2"
       style="fill:#ccc3b4;fill-opacity:1" />
    <path
       style="fill:#ccc3b4;fill-opacity:1"
       d="m 2969.1168,1000 v -40 l -160,40 v 40 z"
       id="path887-2"
       sodipodi:nodetypes="ccccc" />
    <path
       id="path405"
       d="M 215.02177,912.08399 V 1620 H 356.60503 V 912.08399 Z"
       style="fill:#ccc3b4;fill-opacity:1;stroke-width:1.01131" />
    <path
       id="path407"
       d="M 680.22378,912.08399 V 1195.2504 H 579.09283 V 912.08399 H 437.50969 V 1620 H 1064.5211 V 1478.4168 H 579.09283 V 1336.8336 H 1064.5211 V 1195.2504 H 821.80697 V 1053.6672 H 1064.5211 V 912.08399 Z"
       style="fill:#ccc3b4;fill-opacity:1;stroke-width:1.01131" />
    <path
       id="path409"
       d="M 1388.14,912.08399 V 1195.2504 H 1287.009 V 912.08399 H 1145.4258 V 1620 h 627.0113 V 1478.4168 H 1287.009 v -141.5832 h 485.4281 V 1195.2504 H 1529.723 v -141.5832 h 242.7141 V 912.08399 Z"
       style="fill:#ccc3b4;fill-opacity:1;stroke-width:1.01131" />
    <path
       id="path411"
       d="M 2136.5082,912.08399 V 1096.1422 H 1994.925 V 912.08399 H 1853.3418 V 1620 h 141.5832 v -382.2746 h 283.1663 V 912.08399 Z"
       style="fill:#ccc3b4;fill-opacity:1;stroke-width:1.01131" />
  </g>
</svg>
