<svg xmlns="http://www.w3.org/2000/svg" version="1.1" width="10600" height="3700" viewBox="-500 -500 10600 3700"><path transform="translate(100,2400)" d="M82,300C202,300,300,202,300,84L300,-200L100,-200L100,100C100,170,46,224,-24,224C-54,224,-78,216,-100,200C-60,260,6,300,82,300ZM300,-160L300,-500C254,-384,130,-300,0,-300C0,-300,100,-300,100,-200L100,-160L300,-160Z"></path><path transform="translate(500,2400)" d="M0,0L1600,0L1600,-200L0,-200L0,0ZM1400,0L1600,0L1600,-500L1400,-500L1400,0ZM0,-500L0,-300L1300,-300L1300,-500L0,-500ZM1350,-800C1210,-800,1100,-686,1100,-548L1100,-460L1300,-460L1300,-552C1300,-578,1322,-600,1350,-600C1378,-600,1400,-578,1400,-552L1400,-460L1600,-460L1600,-548C1600,-686,1488,-800,1350,-800ZM0,-400L200,-400L200,-700L0,-700L0,-400ZM0,-1500L200,-1500L200,-2000L0,-2000L0,-1500ZM0,-988L0,-600L200,-600L200,-796C108,-826,34,-898,0,-988ZM300,-800C466,-800,600,-934,600,-1100C600,-1266,466,-1400,300,-1400C272,-1400,246,-1396,220,-1390L220,-1162C238,-1186,268,-1200,300,-1200C356,-1200,400,-1156,400,-1100C400,-1044,356,-1000,300,-1000C244,-1000,200,-1044,200,-1100L200,-1600L0,-1600L0,-1100C0,-934,134,-800,300,-800ZM0,-1960L200,-1960L200,-2000C200,-2098,294,-2100,300,-2100C170,-2160,60,-2264,0,-2400L0,-1960Z"></path><path transform="translate(2200,1400)" style="fill:#d22e1f;fill-opacity:1" d="M100,0C156,0,200,-44,200,-100C200,-156,156,-200,100,-200C44,-200,0,-156,0,-100C0,-44,44,0,100,0ZM400,0C456,0,500,-44,500,-100C500,-156,456,-200,400,-200C344,-200,300,-156,300,-100C300,-44,344,0,400,0Z"></path><path transform="translate(2100,2400)" d="M400,0L600,0L600,-400L400,-400L400,0ZM-100,0L300,0L300,-200L-100,-200L-100,0ZM100,-140L100,50L350,300L600,50L600,-140L400,-140L400,-34L350,16L300,-34L300,-140L100,-140ZM400,-400L600,-400L600,-800L400,-800L400,-400ZM100,-300L600,-300L600,-500L100,-500L100,-300ZM400,-780L600,-780L600,-900C554,-840,482,-800,400,-800L400,-780ZM300,-480L300,-500C300,-556,344,-600,400,-600L420,-600L420,-800L400,-800C234,-800,100,-666,100,-500L100,-480L300,-480Z"></path><path transform="translate(2700,2400)" d="M300,0L300,-2000L100,-2000L100,0L300,0ZM300,-1960L300,-2400C240,-2264,130,-2160,0,-2100C6,-2100,100,-2098,100,-2000L100,-1960L300,-1960ZM-100,-200L-100,0L140,0L140,-200L-100,-200Z"></path><path transform="translate(3100,2400)" d="M200,-100L0,-100L0,300C100,300,200,100,200,0L200,-100ZM0,0L200,0L200,-2000L0,-2000L0,0ZM0,-1960L200,-1960L200,-2000C200,-2098,294,-2100,300,-2100C170,-2160,60,-2264,0,-2400L0,-1960ZM160,0L500,0C384,-46,300,-170,300,-300C300,-300,300,-200,200,-200L160,-200L160,0Z"></path><path transform="translate(3600,2400)" d=""></path><path transform="translate(3700,1400)" style="fill:#d22e1f;fill-opacity:1" d="M100,300C156,300,200,256,200,200C200,144,156,100,100,100C44,100,0,144,0,200C0,256,44,300,100,300ZM100,0C156,0,200,-44,200,-100C200,-156,156,-200,100,-200C44,-200,0,-156,0,-100C0,-44,44,0,100,0Z"></path><path transform="translate(3600,2400)" d="M400,0L600,0L600,-800L400,-800L400,0ZM0,0L120,0L120,-200L100,-200C100,-118,60,-46,0,0ZM400,-100L600,-100L600,-500L400,-500L400,-100ZM100,0L600,0L600,-200L100,-200L100,0ZM400,-480L600,-480L600,-600C554,-540,482,-500,400,-500L400,-480ZM300,-180L300,-200C300,-256,344,-300,400,-300L420,-300L420,-500L400,-500C234,-500,100,-366,100,-200L100,-180L300,-180ZM600,-760L600,-1100C554,-984,430,-900,300,-900C300,-900,400,-900,400,-800L400,-760L600,-760Z"></path><path transform="translate(4200,2400)" d="M300,0L300,-2000L100,-2000L100,0L300,0ZM300,-1960L300,-2400C240,-2264,130,-2160,0,-2100C6,-2100,100,-2098,100,-2000L100,-1960L300,-1960ZM-100,-200L-100,0L140,0L140,-200L-100,-200Z"></path><path transform="translate(4450,2700)" style="fill:#d22e1f;fill-opacity:1" d="M100,0C156,0,200,-44,200,-100C200,-156,156,-200,100,-200C44,-200,0,-156,0,-100C0,-44,44,0,100,0ZM400,0C456,0,500,-44,500,-100C500,-156,456,-200,400,-200C344,-200,300,-156,300,-100C300,-44,344,0,400,0Z"></path><path transform="translate(4500,2400)" d="M-100,0L300,0L300,-500L100,-500L100,-200L-100,-200L-100,0ZM300,-460L300,-800C254,-684,130,-600,0,-600C0,-600,100,-600,100,-500L100,-460L300,-460Z"></path><path transform="translate(4800,2400)" d="M100,0L300,0L300,-2000L100,-2000L100,0ZM100,-1960L300,-1960L300,-2000C300,-2098,394,-2100,400,-2100C270,-2160,160,-2264,100,-2400L100,-1960ZM-100,-200L-100,0L140,0L140,-200L-100,-200Z"></path><path transform="translate(5100,2400)" d=""></path><path transform="translate(5100,2400)" d="M400,0L600,0L600,-1300L400,-1300L400,0ZM100,0L300,0L300,-1000L100,-1000L100,0ZM82,300C202,300,300,212,300,46L300,-200L100,-200L100,62C100,216,-20,258,-100,200C-60,260,6,300,82,300ZM400,-1280L600,-1280L600,-1400C554,-1340,482,-1300,400,-1300L400,-1280ZM420,-1100L420,-1300L400,-1300C234,-1300,100,-1166,100,-1000L100,-980L300,-980L300,-1000C300,-1056,344,-1100,400,-1100L420,-1100Z"></path><path transform="translate(5950,1400)" style="fill:#d22e1f;fill-opacity:1" d="M100,0C156,0,200,-44,200,-100C200,-156,156,-200,100,-200C44,-200,0,-156,0,-100C0,-44,44,0,100,0Z"></path><path transform="translate(5700,2400)" d="M-100,0L600,0L600,-200L-100,-200L-100,0ZM400,0L600,0L600,-400L400,-400L400,0ZM400,-400L600,-400L600,-800L400,-800L400,-400ZM100,-300L600,-300L600,-500L100,-500L100,-300ZM400,-780L600,-780L600,-900C554,-840,482,-800,400,-800L400,-780ZM300,-480L300,-500C300,-556,344,-600,400,-600L420,-600L420,-800L400,-800C234,-800,100,-666,100,-500L100,-480L300,-480Z"></path><path transform="translate(6300,2400)" d=""></path><path transform="translate(6300,2400)" d="M400,0L600,0L600,-800L400,-800L400,0ZM0,0L120,0L120,-200L100,-200C100,-118,60,-46,0,0ZM400,-100L600,-100L600,-500L400,-500L400,-100ZM100,0L600,0L600,-200L100,-200L100,0ZM400,-480L600,-480L600,-600C554,-540,482,-500,400,-500L400,-480ZM300,-180L300,-200C300,-256,344,-300,400,-300L420,-300L420,-500L400,-500C234,-500,100,-366,100,-200L100,-180L300,-180ZM600,-760L600,-1100C554,-984,430,-900,300,-900C300,-900,400,-900,400,-800L400,-760L600,-760Z"></path><path transform="translate(7000,1400)" style="fill:#d22e1f;fill-opacity:1" d="M100,0C156,0,200,-44,200,-100C200,-156,156,-200,100,-200C44,-200,0,-156,0,-100C0,-44,44,0,100,0Z"></path><path transform="translate(6900,2400)" d="M100,20L300,20L300,-500L100,-500L100,20ZM-200,-140L-200,50L50,300L300,50L300,-140L100,-140L100,-34L50,16L0,-34L0,-140L-200,-140ZM300,-460L300,-800C254,-684,130,-600,0,-600C0,-600,100,-600,100,-500L100,-460L300,-460Z"></path><path transform="translate(7200,2400)" d="M300,0L300,-2000L100,-2000L100,0L300,0ZM300,-1960L300,-2400C240,-2264,130,-2160,0,-2100C6,-2100,100,-2098,100,-2000L100,-1960L300,-1960ZM-100,-200L-100,0L140,0L140,-200L-100,-200Z"></path><path transform="translate(7600,1400)" style="fill:#d22e1f;fill-opacity:1" d="M100,0C156,0,200,-44,200,-100C200,-156,156,-200,100,-200C44,-200,0,-156,0,-100C0,-44,44,0,100,0Z"></path><path transform="translate(7500,2400)" d="M82,300C202,300,300,202,300,84L300,-200L100,-200L100,100C100,170,46,224,-24,224C-54,224,-78,216,-100,200C-60,260,6,300,82,300ZM300,-160L300,-500C254,-384,130,-300,0,-300C0,-300,100,-300,100,-200L100,-160L300,-160Z"></path><path transform="translate(7900,1400)" style="fill:#d22e1f;fill-opacity:1" d="M100,0C156,0,200,-44,200,-100C200,-156,156,-200,100,-200C44,-200,0,-156,0,-100C0,-44,44,0,100,0Z"></path><path transform="translate(7800,2400)" d="M-100,0L300,0L300,-500L100,-500L100,-200L-100,-200L-100,0ZM300,-460L300,-800C254,-684,130,-600,0,-600C0,-600,100,-600,100,-500L100,-460L300,-460Z"></path><path transform="translate(8200,2400)" d="M200,0L200,-2000L0,-2000L0,0L200,0ZM200,-1960L200,-2400C140,-2264,30,-2160,-100,-2100C-94,-2100,0,-2098,0,-2000L0,-1960L200,-1960Z"></path><path transform="translate(8400,2400)" d=""></path><path transform="translate(8500,2400)" d="M0,0L200,0L200,-2000L0,-2000L0,0ZM0,-1960L200,-1960L200,-2000C200,-2098,294,-2100,300,-2100C170,-2160,60,-2264,0,-2400L0,-1960Z"></path><path transform="translate(8800,1400)" style="fill:#d22e1f;fill-opacity:1" d="M100,0C156,0,200,-44,200,-100C200,-156,156,-200,100,-200C44,-200,0,-156,0,-100C0,-44,44,0,100,0Z"></path><path transform="translate(8700,2400)" d="M-100,0L300,0L300,-500L100,-500L100,-200L-100,-200L-100,0ZM300,-460L300,-800C254,-684,130,-600,0,-600C0,-600,100,-600,100,-500L100,-460L300,-460Z"></path><path transform="translate(9100,2400)" d="M0,-1500L200,-1500L200,-2000L0,-2000L0,-1500ZM0,0L200,0L200,-700L0,-700L0,0ZM0,-988L0,-600L200,-600L200,-796C108,-826,34,-898,0,-988ZM300,-800C466,-800,600,-934,600,-1100C600,-1266,466,-1400,300,-1400C272,-1400,246,-1396,220,-1390L220,-1162C238,-1186,268,-1200,300,-1200C356,-1200,400,-1156,400,-1100C400,-1044,356,-1000,300,-1000C244,-1000,200,-1044,200,-1100L200,-1600L0,-1600L0,-1100C0,-934,134,-800,300,-800ZM0,-1960L200,-1960L200,-2000C200,-2098,294,-2100,300,-2100C170,-2160,60,-2264,0,-2400L0,-1960ZM160,0L500,0C384,-46,300,-170,300,-300C300,-300,300,-200,200,-200L160,-200L160,0ZM0,-40L0,300C46,184,170,100,300,100C300,100,200,100,200,0L200,-40L0,-40Z"></path></svg>