<?xml version="1.0" encoding="UTF-8" standalone="no"?>
<svg
   xmlns:dc="http://purl.org/dc/elements/1.1/"
   xmlns:cc="http://creativecommons.org/ns#"
   xmlns:rdf="http://www.w3.org/1999/02/22-rdf-syntax-ns#"
   xmlns:svg="http://www.w3.org/2000/svg"
   xmlns="http://www.w3.org/2000/svg"
   xmlns:sodipodi="http://sodipodi.sourceforge.net/DTD/sodipodi-0.dtd"
   xmlns:inkscape="http://www.inkscape.org/namespaces/inkscape"
   inkscape:export-ydpi="10.000892"
   inkscape:export-xdpi="10.000892"
   inkscape:export-filename="/Users/khaled/bitmap.png"
   inkscape:version="1.0beta1 (32d4812, 2019-09-19)"
   sodipodi:docname="document-4.svg"
   id="svg961"
   viewBox="-500 -500 15685 7602.4204"
   height="7602.4204"
   width="15685"
   version="1.1">
  <metadata
     id="metadata967">
    <rdf:RDF>
      <cc:Work
         rdf:about="">
        <dc:format>image/svg+xml</dc:format>
        <dc:type
           rdf:resource="http://purl.org/dc/dcmitype/StillImage" />
        <dc:title></dc:title>
      </cc:Work>
    </rdf:RDF>
  </metadata>
  <defs
     id="defs965">
    <inkscape:path-effect
       is_visible="true"
       id="path-effect2734"
       effect="spiro" />
    <inkscape:path-effect
       is_visible="true"
       id="path-effect2723"
       effect="spiro" />
    <inkscape:path-effect
       effect="spiro"
       id="path-effect2689"
       is_visible="true" />
    <inkscape:path-effect
       effect="spiro"
       id="path-effect2687"
       is_visible="true" />
    <inkscape:path-effect
       effect="spiro"
       id="path-effect2685"
       is_visible="true" />
    <inkscape:path-effect
       is_visible="true"
       id="path-effect2666"
       effect="spiro" />
    <inkscape:path-effect
       is_visible="true"
       id="path-effect2662"
       effect="spiro" />
    <inkscape:path-effect
       is_visible="true"
       id="path-effect2658"
       effect="spiro" />
    <inkscape:path-effect
       is_visible="true"
       id="path-effect2654"
       effect="spiro" />
  </defs>
  <sodipodi:namedview
     inkscape:guide-bbox="true"
     showguides="true"
     inkscape:current-layer="svg961"
     inkscape:window-maximized="1"
     inkscape:window-y="23"
     inkscape:window-x="0"
     inkscape:cy="4339.1884"
     inkscape:cx="9333.0768"
     inkscape:zoom="0.024970773"
     fit-margin-bottom="1000"
     fit-margin-right="1000"
     fit-margin-left="1000"
     fit-margin-top="1000"
     showgrid="false"
     id="namedview963"
     inkscape:window-height="1081"
     inkscape:window-width="2048"
     inkscape:pageshadow="2"
     inkscape:pageopacity="1"
     guidetolerance="10"
     gridtolerance="10"
     objecttolerance="10"
     borderopacity="1"
     inkscape:document-rotation="0"
     bordercolor="#666666"
     pagecolor="#feeec9" />
  <path
     style="stroke-width:30.2362;stroke-miterlimit:4;stroke-dasharray:none"
     inkscape:connector-curvature="0"
     id="path845"
     d="" />
  <path
     style="stroke-width:30.2362;stroke-miterlimit:4;stroke-dasharray:none"
     inkscape:connector-curvature="0"
     id="path853"
     d="" />
  <path
     style="stroke-width:30.2362;stroke-miterlimit:4;stroke-dasharray:none"
     inkscape:connector-curvature="0"
     id="path863"
     d="" />
  <path
     style="stroke-width:30.2362;stroke-miterlimit:4;stroke-dasharray:none"
     inkscape:connector-curvature="0"
     id="path871"
     d="" />
  <path
     style="stroke-width:30.2362;stroke-miterlimit:4;stroke-dasharray:none"
     inkscape:connector-curvature="0"
     id="path875"
     d="" />
  <path
     style="stroke-width:30.2362;stroke-miterlimit:4;stroke-dasharray:none"
     inkscape:connector-curvature="0"
     id="path887"
     d="" />
  <path
     style="stroke-width:30.2362;stroke-miterlimit:4;stroke-dasharray:none"
     inkscape:connector-curvature="0"
     id="path897"
     d="" />
  <path
     style="stroke-width:30.2362;stroke-miterlimit:4;stroke-dasharray:none"
     inkscape:connector-curvature="0"
     id="path913"
     d="" />
  <path
     style="stroke-width:30.2362;stroke-miterlimit:4;stroke-dasharray:none"
     inkscape:connector-curvature="0"
     id="path919"
     d="" />
  <path
     style="stroke-width:30.2362;stroke-miterlimit:4;stroke-dasharray:none"
     inkscape:connector-curvature="0"
     id="path933"
     d="" />
  <path
     style="stroke-width:30.2362;stroke-miterlimit:4;stroke-dasharray:none"
     inkscape:connector-curvature="0"
     id="path945"
     d="" />
  <g
     transform="translate(-100)"
     style="stroke-width:30.2362;stroke-miterlimit:4;stroke-dasharray:none"
     id="g2646">
    <path
       inkscape:connector-curvature="0"
       style="opacity:1;fill:#d22e1f;fill-opacity:1;stroke-width:30.2362;stroke-miterlimit:4;stroke-dasharray:none;stop-opacity:1"
       d="m 1700,6102.4203 c 56,0 100,-44 100,-100 0,-56 -44,-100 -100,-100 -56,0 -100,44 -100,100 0,56 44,100 100,100 z"
       id="path837" />
    <path
       inkscape:connector-curvature="0"
       style="opacity:1;fill:#d22e1f;fill-opacity:1;stroke-width:30.2362;stroke-miterlimit:4;stroke-dasharray:none;stop-opacity:1"
       d="m 1800,4602.4203 c 56,0 100,-44 100,-100 0,-56 -44,-100 -100,-100 -56,0 -100,44 -100,100 0,56 44,100 100,100 z"
       id="path841" />
    <path
       inkscape:connector-curvature="0"
       style="opacity:1;fill:#d22e1f;fill-opacity:1;stroke-width:30.2362;stroke-miterlimit:4;stroke-dasharray:none;stop-opacity:1"
       d="m 7514,5850.4203 c 56,0 100,-44 100,-100 0,-56 -44,-100 -100,-100 -56,0 -100,44 -100,100 0,56 44,100 100,100 z"
       id="path865" />
    <path
       style="opacity:1;fill:#d22e1f;fill-opacity:1;stroke-width:30.2362;stroke-miterlimit:4;stroke-dasharray:none;stop-opacity:1"
       d="m 12614,5850.4203 c 56,0 100,-44 100,-100 0,-56 -44,-100 -100,-100 -56,0 -100,44 -100,100 0,56 44,100 100,100 z"
       id="path889"
       inkscape:connector-curvature="0" />
    <path
       id="path1150"
       style="opacity:1;stroke-width:30.2362;stroke-miterlimit:4;stroke-dasharray:none;stop-opacity:1"
       d="m 1500,3402.4199 c -60,136 -170,240 -300,300 6,0 100,2 100,100 v 40 1760 h -100 v -880 -20 -100 c -46,60 -118,100 -200,100 -166,0 -300,134 -300,300 v 20 580 200 62 c 0,154 -120,196 -200,138 40,60 106,100 182,100 120,0 218,-88 218,-254 v -46 -200 -580 -20 c 0,0 44,-100 100,-100 v 900 c 566.6667,0 1133.3333,0 1700,0 -116,-46 -200,-170 -200,-300 0,0 0,100 -100,100 h -40 -140.8574 c -60.1492,-28.5816 -97.1426,-78.5847 -97.1426,-162 0,-110 78,-238 78,-392 0,-186 -144,-346 -320,-346 h -380 c 74,100 106,200 100,300 16,-32 72,-100 150,-100 h 70 c 86,0 180,62 180,148 0,128 -82,230 -82,390 0,74.8237 16.5966,126.1319 41.7285,162 H 1800 v -260 -40 -300 c -46,116 -170,200 -300,200 0,0 100,0 100,100 v 40 260 h -100 v -400 -500 -860 -40 z m 1200,2400 h 100 100 100 8 232 c 202,0 400,-154 498,-350 -38,-58 -96,-102 -166,-120 -52,132 -182,270 -372,270 0,-54 14,-106 40,-150 -36,-78 -58,-158 -60,-234 -110,92 -180,230 -180,384 h -100 v -1760 -40 c 0,-98 94,-100 100,-100 -130,-60 -240,-164 -300,-300 v 400 40 z m 1600,-2400 c -60,136 -170,240 -300,300 6,0 100,2 100,100 v 40 1760 h -100 c 0,-276 -224,-500 -500,-500 -24,0 -48,2 -72,6 -6,24 -8,56 -8,94 0,32 8,70 20,106 20,-4 40,-6 60,-6 166,0 300,134 300,300 -44,0 -84,-8 -122,-20 -46,60 -100,110 -158,150 74,44 156,70 240,70 h 140 100 100 40 160 v -1960 -40 z m 360,0 v 400 40 458 74 28 c 284,-64 412,102 288,332 l -216,374 60,102 244,-428 c 128.9069,-240.5213 37.8594,-442.7262 -176,-485.2324 v -454.7676 -40 c 0,-98 94,-100 100,-100 -130,-60 -240,-164 -300,-300 z m 912,0 v 400 40 1960 h 200 v -1960 -40 c 0,-98 94,-100 100,-100 -130,-60 -240,-164 -300,-300 z m 0,2400 -174,-300 -58,100 -376,-652 -114,200 374,652 h 116 z m 3092,-2400 c -140,0 -250,114 -250,252 v 28 60 416 40 c 0,98 -94,100 -100,100 130,60 240,164 300,300 v -400 -40 -416 -60 -32 c 0,-26 22,-48 50,-48 28,0 50,22 50,48 v 32 60 1340 c 10,0 18,0 28,2 38,-58 102,-104 190,-138 l -18,-4 v -1200 -60 -28 c 0,-138 -112,-252 -250,-252 z m 600,0 c -140,0 -250,114 -250,252 v 28 60 1200 c -182,46 -300,140 -300,310 0,42 10,84 30,118 48,-46 112,-78 182,-86 -8,-8 -12,-20 -12,-32 0,-58 98,-140 300,-170 v -1340 -60 -32 c 0,-26 22,-48 50,-48 28,0 50,22 50,48 v 32 60 416 40 400 c 60,-136 170,-240 300,-300 -6,0 -100,-2 -100,-100 v -40 -416 -60 -28 c 0,-138 -112,-252 -250,-252 z m 3200,0 c -60,136 -170,240 -300,300 6,0 100,2 100,100 v 40 1760 h -79.779 c -14.694,-178.8149 -119.992,-285.1227 -268.221,-400 0,52 -56,102 -84,114 -94,40 -166,128 -166,236 0,138 112,250 250,250 18,0 36,-2 54,-6 -20,60 -86,106 -152,106 -72,0 -130,-42 -154,-100 -14,112 -44,212 -100,300 h 252 c 154,0 282,-98 332,-236 7.482,-20.5757 13.993,-41.9298 19.41,-64 h 96.59 40 160 v -1960 -40 z m 0,2400 c -14,112 -44,212 -100,300 h 250 c 177.015,0 322.39,-129.8811 346.488,-300 h 103.512 500 v -100 -100 -280 -20 -100 c -46,60 -118,100 -200,100 -166,0 -300,134 -300,300 h -122.916 c -32.241,-92.5373 -96.203,-162.9143 -177.084,-300 0,122 -48,218 -120,300 68,14 120,78 120,150 0,82 -68,150 -150,150 -64,0 -128,-42 -150,-100 z m -800,0 c -60,-46 -100,-118 -100,-200 v -50 c 0,-26 -2,-54 -18,-104 -38,-122 -168,-212 -232,-246 0,52 -56,104 -84,114 -96,34 -166,128 -166,236 v 50 h -100 c 0,-276 -224,-500 -500,-500 -24,0 -48,2 -72,6 -6,24 -8,56 -8,94 0,32 8,70 20,106 20,-4 40,-6 60,-6 166,0 300,134 300,300 -44,0 -84,-8 -122,-20 -46,60 -100,110 -158,150 74,44 156,70 240,70 h 140 100 350 230 20 z m -6902,-1200 c -40,46 -84,92 -152,130 -146,80 -190,266 -110,410 l 10,18 14,24 82,144 60,102 98,170 32,56 c 40,68 44,94 44,120 0,94 -76,170 -170,170 -94,0 -170,-76 -170,-170 0,-30 0,-58 34,-116 l 120,-210 -58,-102 -140,244 c -32,54 -56,116 -56,184 0,180 144,326 324,326 180,0 320,-146 320,-326 0,-68 -20,-132 -56,-184 L 4673.7305,5049.1367 4670,5042.4199 c -26,-48 -14,-114 36,-136 l 3.4355,-1.5605 58.5645,101.5605 114,-198 z m -1262,200 c -198,0 -300,174 -300,400 0,124 50,250 128,356 62,-24 116,-66 160,-120 -58,-76 -88,-166 -88,-236 0,-140 36,-200 100,-200 44,0 74,28 88,88 78,14 150,44 212,88 -8,-214 -110,-376 -300,-376 z m 6964,0 c -198,0 -300,174 -300,400 0,124 50,250 128,356 62,-24 116,-66 160,-120 -58,-76 -88,-166 -88,-236 0,-140 36,-200 100,-200 44,0 74,28 88,88 78,14 150,44 212,88 -8,-214 -110,-376 -300,-376 z M 6688,4876 c 14,50 14,150 0,200 60,0 80,20 80,78 v 20 34 372 h 200 v -372 -34 -174 c 0,-84 -42,-124 -122,-124 z m 2488,232.4199 c -82,18 -154,46 -196,78 22,24 34,48 34,68 0,26 -22,48 -50,48 -166,0 -300,134 -300,300 0,82 -40,154 -100,200 h 100 20 180 c 0,92 30,248 100,300 70,-52 100,-208 100,-300 h 180 20 100 c -60,-46 -100,-118 -100,-200 0,-76 -28,-148 -76,-200 -40,58 -100,100 -172,114 30,18 48,50 48,86 h -200 c 0,-56 44,-100 100,-100 138,0 250,-114 250,-250 0,-52 -12,-100 -38,-144 z m 188,694 c 2,84 2,268 -200,270 30,18 92,30 138,30 218,0 262,-142 262,-300 h 200 100 100 8 232 c 202,0 400,-154 498,-350 -38,-58 -96,-102 -166,-120 -52,132 -182,270 -372,270 0,-54 14,-106 40,-150 -36,-78 -58,-158 -60,-234 -110,92 -180,230 -180,384 h -100 v -280 -20 -100 c -46,60 -118,100 -200,100 -166,0 -300,134 -300,300 v 20 80 z m -800,0 c -60,-46 -100,-118 -100,-200 v -50 c 0,-26 -2,-54 -18,-104 -38,-122 -168,-212 -232,-246 0,52 -56,104 -84,114 -96,34 -166,128 -166,236 v 50 h -122.916 c -32.241,-92.5373 -96.2034,-162.9143 -177.084,-300 0,122 -48,218 -120,300 68,14 120,78 120,150 0,82 -68,150 -150,150 -64,0 -128,-42 -150,-100 -14,112 -44,212 -100,300 h 250 c 177.0154,0 322.3895,-129.8811 346.4883,-300 H 8214 h 230 20 z m -2440,-600 c 0,52 -56,102 -84,114 -94,40 -166,128 -166,236 0,138 112,250 250,250 18,0 36,-2 54,-6 -20,60 -86,106 -152,106 -72,0 -130,-42 -154,-100 -14,112 -44,212 -100,300 h 252 c 154,0 282,-98 332,-236 7.7548,-21.3256 14.4585,-43.4913 19.9902,-66.4199 H 6468 v 48 c 0,138 110,252 250,252 138,0 250,-114 250,-252 v -28 h -200 v 32 c 0,26 -22,48 -50,48 -28,0 -50,-22 -50,-48 v -52 -40 -160 c 0,-66 32,-124 80,-160 v -222 c -162,52 -280,204 -280,382 h -75.9688 C 6376.5928,5422.6374 6271.5619,5316.7804 6124,5202.4199 Z m 7792,0 c 0,52 -56,102 -84,114 -94,40 -166,128 -166,236 0,138 112,250 250,250 18,0 36,-2 54,-6 -20,60 -86,106 -152,106 -72,0 -130,-42 -154,-100 -14,112 -44,212 -100,300 h 252 c 154,0 282,-98 332,-236 24,-66 38,-140 38,-220 0,-206 -110,-320 -270,-444 z M 6988,5218 v 222 c 48,36 80,94 80,160 h -100 -200 -80 v 200 h 80 200 280 20 100 c -60,-46 -100,-118 -100,-200 0,-178 -118,-330 -280,-382 z m -864,284.4199 c 28,0 50,22 50,50 0,28 -22,50 -50,50 -28,0 -50,-22 -50,-50 0,-28 22,-50 50,-50 z m 2090,0 c 28,0 50,22 50,50 0,28 -22,50 -50,50 -28,0 -50,-22 -50,-50 0,-28 22,-50 50,-50 z m 1450,0 v 100 h -100 c 0,-56 44,-100 100,-100 z m 1650,0 c 28,0 50,22 50,50 0,28 -22,50 -50,50 -28,0 -50,-22 -50,-50 0,-28 22,-50 50,-50 z m 602,0 c 28,0 50,22 50,50 0,28 -22,50 -50,50 -28,0 -50,-22 -50,-50 0,-28 22,-50 50,-50 z m 1448,0 v 100 h -100 c 0,-56 44,-100 100,-100 z m 552,0 c 28,0 50,22 50,50 0,28 -22,50 -50,50 -28,0 -50,-22 -50,-50 0,-28 22,-50 50,-50 z"
       inkscape:connector-curvature="0"
       sodipodi:nodetypes="ccsccccccsscccscssccccccccsccsssccssssccccccscccccccccccccsccccccccscccccccscccscscscccsccccccccccccccccccccsccccccccsccccccccccsscccsccccccsssccccccccsssscccsccscccsssccccccscccssccscccccsscsccsccccccccccsccccccccsccccssccsscccsccscscscccsccccccccsccccccsssccccsssccccccccssccssccsssccssccsccsccccccsscccssscccccccccsccccsscccscccccsccccccccccssccccsscccsccccssccscccccccsscsccscccsssccsssccscccccccsscsccscscccccccccccccscssssssssssccccssssssssssccccsssss" />
  </g>
  <g
     transform="translate(-100)"
     id="g3743">
    <path
       id="path905"
       style="opacity:1;stroke-width:30.2362;stroke-miterlimit:4;stroke-dasharray:none;stop-opacity:1"
       d="m 700,500 v 2400 h 292 v 48 c 0,138 110,252 250,252 138,0 330.2109,-139.7048 250,-252 v -28 h -200 v 32 c 0,26 -22,48 -50,48 -28,0 -44.4768,-22.5934 -50,-48 v -92 -160 c 0,-66 32,-124 80,-160 v -222 c -162,52 -280,204 -280,382 H 900 V 900 C 900,802 994,800 1000,800 870,740 760,636 700,500 Z m 1380,0 c -60,136 -170,240 -300,300 6,0 100,2 100,100 v 1800 h -88 c 0,-178 -118,-330 -280,-382 v 222 c 48,36 80,94 80,160 h -380 v 200 h 1200 v 48 c 0,138 110,252 250,252 138,0 250,-114 250,-252 v -48 h 300 v -800 c -272,108 -634,194 -900,200 0,0 100,0 100,100 v 300 h -332 z m 1232,0 v 2400 h 200 100 v 48 c 0,138 110,252 250,252 138,0 250,-114 250,-252 v -48 -40 -360 -100 -300 -100 c -46,60 -118,100 -200,100 -166,0 -300,134 -300,300 v 20 180 h 300 v 260 92 c 0,26 -22,48 -50,48 -28,0 -50,-22 -50,-48 v -92 -160 H 3512 V 900 c 0,-98 94,-100 100,-100 -130,-60 -240,-164 -300,-300 z m 800,2400 h 340 1560 100 140 160 V 900 500 c -60,136 -170,240 -300,300 6,0 100,2 100,100 v 40 1760 h -100 v -300 -48 c 0,-138 -112,-252 -250,-252 -140,0 -250,114 -250,252 v 48 h -720 l 370,-370 V 900 500 c -60,136 -170,240 -300,300 6,0 56.1731,12.3461 100,100 v 40 1010 l -650,650 h 280 1120 v -200 -52 c 0,-26 22,-48 50,-48 28,0 50,22 50,48 v 52 300 H 4412 c -100,0 -100,-100 -100,-100 0,130 -84,254 -200,300 z m 1900,0 c 0,130 -84,254 -200,300 h 340 560 v -200 -100 h 300 v -500 -300 c -46,116 -170,200 -300,200 0,0 100,0 100,100 v 40 260 H 6712 V 2300 900 c 0,-98 94,-100 100,-100 -130,-60 -240,-164 -300,-300 v 440 1960 100 h -360 -40 c -100,0 -100,-100 -100,-100 z M 7312,500 c -60,136 -170,240 -300,300 6,0 100,2 100,100 v 40 1960 h 200 622.416 L 8108,3200 h 230 L 8164.4453,2900 H 8264 8564 c -116,-46 -200,-170 -200,-300 0,0 0,100 -100,100 h -146 -69.2559 L 7778,2232 c -132,-226 -274,-266 -466,-210 60,54 96,106 110,186 34,-16 100,-22 134,38 l 262.6914,454 H 7312 V 2022 900 Z m 1252,2400 h 200 100 v 48 c 0,138 110,252 250,252 138,0 250,-114 250,-252 v -28 h -200 v 32 c 0,26 -22,48 -50,48 -28,0 -50,-22 -50,-48 v -92 -160 c 0,-66 32,-124 80,-160 v -222 c -162,52 -280,204 -280,382 H 8764 V 900 c 0,-98 94,-100 100,-100 C 8734,740 8624,636 8564,500 V 940 Z M 9964,500 c -60,136 -170,240 -300,300 6,0 100,2 100,100 v 40 1960 h 200 V 900 Z m -200,2400 c -60,-46 -100,-118 -100,-200 0,-178 -118,-330 -280,-382 v 222 c 48,36 80,94 80,160 h -380 v 200 h 580 z M 11564,500 v 440 1960 h 200 V 900 c 0,-98 94,-100 100,-100 -130,-60 -240,-164 -300,-300 z m 0,2400 c -60,-46 -100,-118 -100,-200 0,-178 -118,-330 -280,-382 v 222 c 48,36 80,94 80,160 h -380 v 200 h 580 z M 12664,500 c -60,136 -170,240 -300,300 6,0 100,2 100,100 v 40 1760 h -79.779 c -14.694,-178.8149 -119.992,-285.1227 -268.221,-400 0,52 -56,102 -84,114 -94,40 -166,128 -166,236 0,138 112,250 250,250 18,0 36,-2 54,-6 -20,60 -86,106 -152,106 -72,0 -130,-42 -154,-100 -14,112 -44,212 -100,300 h 252 c 154,0 282,-98 332,-236 7.482,-20.5757 13.993,-41.9298 19.41,-64 h 136.59 160 V 900 Z m 100,0 v 440 1960 h 200 600 v -200 -200 -100 -300 -100 c -46,60 -118,100 -200,100 -166,0 -300,134 -300,300 v 20 180 h 300 v 100 h -400 V 900 c 0,-98 94,-100 100,-100 -130,-60 -240,-164 -300,-300 z M 1212,1976 c 14,50 14,150 0,200 60,0 80,20 80,78 v 54 372 h 200 v -406 -174 c 0,-84 -42,-124 -122,-124 z m 7872,0 c 14,50 14,150 0,200 60,0 80,20 80,78 v 54 372 h 200 v -406 -174 c 0,-84 -42,-124 -122,-124 z m 1800,0 c 14,50 14,150 0,200 60,0 80,20 80,78 v 54 372 h 200 v -406 -174 c 0,-84 -42,-124 -122,-124 z m -7972,224 c 0,0 100,0 100,100 v 400 h -100 z m -300,68 c 0,0 100,0 100,100 v 584 c 0,26 -22,48 -50,48 -28,0 -50,-22 -50,-48 z m 1300,32 v 100 h -100 c 0,-56 44,-100 100,-100 z m 6404,0 c 0,52 -56,102 -84,114 -94,40 -166,128 -166,236 0,138 112,250 250,250 18,0 36,-2 54,-6 -20,60 -86,106 -152,106 -72,0 -130,-42 -154,-100 -14,112 -44,212 -100,300 h 252 c 154,0 282,-98 332,-236 7.482,-20.5757 13.993,-41.9298 19.41,-64 h 96.59 v 48 c 0,138 110,252 250,252 138,0 250,-114 250,-252 v -28 h -200 v 32 c 0,26 -22,48 -50,48 -28,0 -50,-22 -50,-48 v -92 -160 c 0,-66 32,-124 80,-160 v -222 c -162,52 -280,204 -280,382 h -79.779 c -14.694,-178.8149 -119.992,-285.1227 -268.221,-400 z m 3048,0 v 100 h -100 c 0,-56 44,-100 100,-100 z m 552,0 c 0,52 -56,102 -84,114 -94,40 -166,128 -166,236 0,138 112,250 250,250 18,0 36,-2 54,-6 -20,60 -86,106 -152,106 -72,0 -130,-42 -154,-100 -14,112 -44,212 -100,300 h 252 c 154,0 282,-98 332,-236 24,-66 38,-140 38,-220 0,-206 -110,-320 -270,-444 z m -3600,300 c 28,0 50,22 50,50 0,28 -22,50 -50,50 -28,0 -50,-22 -50,-50 0,-28 22,-50 50,-50 z m 1800,0 c 28,0 50,22 50,50 0,28 -22,50 -50,50 -28,0 -50,-22 -50,-50 0,-28 22,-50 50,-50 z m 1800,0 c 28,0 50,22 50,50 0,28 -22,50 -50,50 -28,0 -50,-22 -50,-50 0,-28 22,-50 50,-50 z"
       inkscape:connector-curvature="0"
       sodipodi:nodetypes="cccsssccssscsccccscccccccccccccsssccccscccccccsssccccccssccccssscccscccccccccccsccccssscccccccccccccsssccsccccccccccccsccccsccccccscccsccccccccccsccccccccccccccsssccssscsccccsccccccsccccccscccccccccccscccscccccccccscccccsscsccsccccccccccccccccsscccccsccccsccccsscccsccccsscccsccccssccsccccccsccccccccsscsccscccsssccssscscccccccccccsscsccscscsssssssssssssss" />
    <path
       inkscape:connector-curvature="0"
       style="opacity:1;fill:#d22e1f;fill-opacity:1;stroke-width:30.2362;stroke-miterlimit:4;stroke-dasharray:none;stop-opacity:1"
       d="m 3862,1700 c 56,0 100,-44 100,-100 0,-56 -44,-100 -100,-100 -56,0 -100,44 -100,100 0,56 44,100 100,100 z"
       id="path909" />
    <path
       inkscape:connector-curvature="0"
       style="opacity:1;fill:#d22e1f;fill-opacity:1;stroke-width:30.2362;stroke-miterlimit:4;stroke-dasharray:none;stop-opacity:1"
       d="m 6912,3200 c 56,0 100,-44 100,-100 0,-56 -44,-100 -100,-100 -56,0 -100,44 -100,100 0,56 44,100 100,100 z"
       id="path923" />
    <path
       inkscape:connector-curvature="0"
       style="opacity:1;fill:#d22e1f;fill-opacity:1;stroke-width:30.2362;stroke-miterlimit:4;stroke-dasharray:none;stop-opacity:1"
       d="m 7644,1700 c 56,0 100,-44 100,-100 0,-56 -44,-100 -100,-100 -56,0 -100,44 -100,100 0,56 44,100 100,100 z"
       id="path929" />
    <path
       inkscape:connector-curvature="0"
       style="opacity:1;fill:#d22e1f;fill-opacity:1;stroke-width:30.2362;stroke-miterlimit:4;stroke-dasharray:none;stop-opacity:1"
       d="m 13164,1700 c 56,0 100,-44 100,-100 0,-56 -44,-100 -100,-100 -56,0 -100,44 -100,100 0,56 44,100 100,100 z m 300,0 c 56,0 100,-44 100,-100 0,-56 -44,-100 -100,-100 -56,0 -100,44 -100,100 0,56 44,100 100,100 z"
       id="path955" />
  </g>
  <g
     transform="translate(-60)"
     id="g3729">
    <path
       style="opacity:1;fill:#000000;stroke-width:1.9918;stop-opacity:1"
       d="m -120.14325,6655.2189 h 39.841 v 199.1819 h -39.841 z m 79.672,0 H 79.040746 v 39.8367 h -79.671 v 39.8369 h 79.671 v 39.8347 h -79.671 v 39.8369 h 79.671 v 39.8367 H -40.47125 Z m 159.353,0 h 119.511 v 39.8367 h -79.68 v 39.8369 h 79.68 v 39.8347 h -79.68 v 39.8369 h 79.68 v 39.8367 h -119.511 z m 159.342,0 h 39.84 v 199.1819 h -39.84 z m 119.512,0 h 796.38895 v 39.8367 H 437.57675 v 119.5085 h 39.812 v -79.6716 h 119.513 v 79.6716 h 39.503 v -79.6716 h 39.84 v 79.6716 h 39.841 v -79.6716 h 39.831 v 79.6716 h 39.839 v -79.6716 h 39.84 v 79.6716 h 159.344 v -39.8369 h -119.512 v -39.8347 h 159.35295 v 119.5083 h -278.86395 -198.856 v -79.6736 h -39.841 v 79.6736 h -119.484 z m 676.87595,159.3452 h 79.672 v -39.8369 h -79.672 v -39.8347 h 119.513 v 79.6716 h 39.84 v -159.3452 h 39.831 v 199.1819 h -199.184 z m 239.025,-159.3452 h 239.023 v 39.8367 h -199.182 v 119.5085 h 159.341 v -39.8369 h -119.51 v -39.8347 h 159.351 v 119.5083 h -239.023 z"
       id="path845-6"
       inkscape:connector-curvature="0"
       sodipodi:nodetypes="cccccccccccccccccccccccccccccccccccccccccccccccccccccccccccccccccccccccccccccccccccccccccccccccc" />
  </g>
</svg>
