<?xml version="1.0" encoding="UTF-8" standalone="no"?>
<svg
   xmlns:dc="http://purl.org/dc/elements/1.1/"
   xmlns:cc="http://creativecommons.org/ns#"
   xmlns:rdf="http://www.w3.org/1999/02/22-rdf-syntax-ns#"
   xmlns:svg="http://www.w3.org/2000/svg"
   xmlns="http://www.w3.org/2000/svg"
   xmlns:sodipodi="http://sodipodi.sourceforge.net/DTD/sodipodi-0.dtd"
   xmlns:inkscape="http://www.inkscape.org/namespaces/inkscape"
   inkscape:export-ydpi="20.002043"
   inkscape:export-xdpi="20.002043"
   inkscape:export-filename="/Users/khaled/bitmap.png"
   inkscape:version="1.0beta1 (32d4812, 2019-09-19)"
   sodipodi:docname="document-5.svg"
   id="svg188"
   viewBox="-500 -500 15656 5449.394"
   height="5449.394"
   width="15656"
   version="1.1">
  <metadata
     id="metadata194">
    <rdf:RDF>
      <cc:Work
         rdf:about="">
        <dc:format>image/svg+xml</dc:format>
        <dc:type
           rdf:resource="http://purl.org/dc/dcmitype/StillImage" />
        <dc:title></dc:title>
      </cc:Work>
    </rdf:RDF>
  </metadata>
  <defs
     id="defs192" />
  <sodipodi:namedview
     inkscape:current-layer="svg188"
     inkscape:window-maximized="1"
     inkscape:window-y="23"
     inkscape:window-x="0"
     inkscape:cy="3863.6875"
     inkscape:cx="11107.894"
     inkscape:zoom="0.048391164"
     fit-margin-right="1000"
     fit-margin-bottom="1000"
     fit-margin-left="1000"
     fit-margin-top="1000"
     showgrid="false"
     id="namedview190"
     inkscape:window-height="1081"
     inkscape:window-width="2048"
     inkscape:pageshadow="2"
     inkscape:pageopacity="0"
     guidetolerance="10"
     gridtolerance="10"
     objecttolerance="10"
     borderopacity="1"
     inkscape:document-rotation="0"
     bordercolor="#666666"
     pagecolor="#ffffff" />
  <path
     inkscape:connector-curvature="0"
     id="path12"
     d="" />
  <path
     inkscape:connector-curvature="0"
     id="path16"
     d="" />
  <path
     inkscape:connector-curvature="0"
     id="path26"
     d="" />
  <path
     inkscape:connector-curvature="0"
     id="path36"
     d="" />
  <path
     inkscape:connector-curvature="0"
     id="path38"
     d="" />
  <path
     inkscape:connector-curvature="0"
     id="path46"
     d="" />
  <path
     inkscape:connector-curvature="0"
     id="path58"
     d="" />
  <path
     inkscape:connector-curvature="0"
     id="path68"
     d="" />
  <path
     inkscape:connector-curvature="0"
     id="path70"
     d="" />
  <path
     inkscape:connector-curvature="0"
     id="path78"
     d="" />
  <path
     inkscape:connector-curvature="0"
     id="path80"
     d="" />
  <path
     inkscape:connector-curvature="0"
     id="path88"
     d="" />
  <path
     inkscape:connector-curvature="0"
     id="path90"
     d="" />
  <path
     inkscape:connector-curvature="0"
     id="path94"
     d="" />
  <path
     inkscape:connector-curvature="0"
     id="path98"
     d="" />
  <path
     inkscape:connector-curvature="0"
     id="path100"
     d="" />
  <path
     inkscape:connector-curvature="0"
     id="path104"
     d="" />
  <path
     inkscape:connector-curvature="0"
     id="path112"
     d="" />
  <path
     inkscape:connector-curvature="0"
     id="path116"
     d="" />
  <path
     inkscape:connector-curvature="0"
     id="path124"
     d="" />
  <path
     inkscape:connector-curvature="0"
     id="path126"
     d="" />
  <path
     inkscape:connector-curvature="0"
     id="path130"
     d="" />
  <path
     inkscape:connector-curvature="0"
     id="path136"
     d="" />
  <path
     inkscape:connector-curvature="0"
     id="path140"
     d="" />
  <path
     inkscape:connector-curvature="0"
     id="path144"
     d="" />
  <path
     inkscape:connector-curvature="0"
     id="path146"
     d="" />
  <path
     inkscape:connector-curvature="0"
     id="path150"
     d="" />
  <path
     inkscape:connector-curvature="0"
     id="path154"
     d="" />
  <path
     inkscape:connector-curvature="0"
     id="path156"
     d="" />
  <path
     inkscape:connector-curvature="0"
     id="path160"
     d="" />
  <path
     inkscape:connector-curvature="0"
     id="path162"
     d="" />
  <path
     inkscape:connector-curvature="0"
     id="path168"
     d="" />
  <path
     inkscape:connector-curvature="0"
     id="path172"
     d="" />
  <path
     inkscape:connector-curvature="0"
     id="path176"
     d="" />
  <path
     inkscape:connector-curvature="0"
     id="path180"
     d="" />
  <path
     inkscape:connector-curvature="0"
     id="path182"
     d="" />
  <g
     transform="translate(-20)"
     id="g2270">
    <path
       style="opacity:1;stop-opacity:1"
       inkscape:connector-curvature="0"
       d="m 838,1700 c -64,0 -108,-6 -154,-52 l -62,-62 c -34,-34 -16,-128 12,-100 l 104,104 c 20,20 38,30 62,30 h 134 v -140 h -62 c -18,0 -28,-10 -36,-18 L 708,1334 c -100,-100 -188,198 -188,296 0,170 114,208 262,210 h 92 c 250,0 766,-72 1092,-108 l 18,-32 z"
       id="path102" />
    <path
       style="opacity:1;stop-opacity:1"
       inkscape:connector-curvature="0"
       d="m 1094,1400 v -240 l -160,40 v 280 h -40 v 140 h 158 122 v -140 c -44,0 -80,-36 -80,-80 z"
       id="path106" />
    <path
       style="opacity:1;stop-opacity:1"
       inkscape:connector-curvature="0"
       d="m 1134,1620 h 124 c 46,0 76,-30 76,-80 V 500 l -160,40 v 940 h -40 z"
       id="path108" />
    <path
       style="opacity:1;stop-opacity:1"
       inkscape:connector-curvature="0"
       d="M 1574,1340 V 500 l -160,40 v 800 c 0,190 152,280 316,280 120,0 246,-48 324,-140 -56,24 -144,44 -230,44 -128,0 -250,-44 -250,-184 z"
       id="path110" />
    <path
       style="opacity:1;stop-opacity:1"
       inkscape:connector-curvature="0"
       d="m 3288,1480 c -30,-190 -146,-220 -222,-220 H 2334 V 500 l -160,40 v 860 h 872 c 44,0 80,36 80,80 h -952 l -80,140 h 1280 v -140 z"
       id="path114" />
    <path
       style="opacity:1;stop-opacity:1"
       inkscape:connector-curvature="0"
       d="m 3534,1400 v -240 l -160,40 v 280 h -40 v 140 h 158 122 v -140 c -44,0 -80,-36 -80,-80 z"
       id="path118" />
    <path
       style="opacity:1;stop-opacity:1"
       inkscape:connector-curvature="0"
       d="m 4012,1480 c 2,-12 2,-26 2,-40 0,-100 -90,-180 -200,-180 -110,0 -200,80 -200,180 0,14 2,28 4,40 h -44 v 140 h 520 v -140 z m -238,-40 c 0,-22 18,-40 40,-40 22,0 40,18 40,40 0,22 -18,40 -40,40 -22,0 -40,-18 -40,-40 z"
       id="path120" />
    <path
       style="opacity:1;stop-opacity:1"
       inkscape:connector-curvature="0"
       d="m 4460,1480 -2,-2 v -398 l -160,40 v 200 l -160,-160 -84,142 178,178 h -218 v 140 h 524 v -140 z"
       id="path122" />
    <path
       style="opacity:1;stop-opacity:1"
       inkscape:connector-curvature="0"
       d="m 4498,1620 h 158 c 12,0 42,0 42,-22 v -438 l -160,40 v 280 h -40 z"
       id="path128" />
    <path
       style="opacity:1;stop-opacity:1"
       inkscape:connector-curvature="0"
       d="m 5344,1618 v -138 h -122 c -76,-42 -182,-62 -322,-70 l -120,210 h 344 c 44,0 80,36 80,80 h -472 l -80,140 h 678 c 12,0 42,0 42,-42 0,-72 -8,-130 -28,-180 z"
       id="path132" />
    <path
       style="opacity:1;stop-opacity:1"
       inkscape:connector-curvature="0"
       d="m 6458,1480 c -30,-190 -146,-220 -222,-220 H 5504 V 500 l -160,40 v 860 h 872 c 44,0 80,36 80,80 h -992 v 140 h 1240 v -140 z"
       id="path134" />
    <path
       style="opacity:1;stop-opacity:1"
       inkscape:connector-curvature="0"
       d="m 7024,1200 v 280 c -44,0 -80,-36 -80,-80 v -240 l -160,40 v 280 c -44,0 -80,-36 -80,-80 v -240 l -160,40 v 280 h -40 v 140 h 158 240 240 c 12,0 42,0 42,-22 v -438 z"
       id="path138" />
    <path
       style="opacity:1;stop-opacity:1"
       inkscape:connector-curvature="0"
       d="M 7424,1340 V 500 l -160,40 v 800 c 0,190 152,280 316,280 120,0 246,-48 324,-140 -56,24 -144,44 -230,44 -128,0 -250,-44 -250,-184 z"
       id="path142" />
    <path
       style="opacity:1;stop-opacity:1"
       inkscape:connector-curvature="0"
       d="m 8124,1340 -80,140 80,80 v 420 h -200 c -40,0 -74,-10 -96,-40 l -104,180 h 484 c 46,0 76,-30 76,-80 v -540 z"
       id="path148" />
    <path
       style="opacity:1;stop-opacity:1"
       inkscape:connector-curvature="0"
       d="M 8524,1340 V 500 l -160,40 v 800 c 0,190 152,280 316,280 120,0 246,-48 324,-140 -56,24 -144,44 -230,44 -128,0 -250,-44 -250,-184 z"
       id="path152" />
    <path
       style="opacity:1;stop-opacity:1"
       inkscape:connector-curvature="0"
       d="m 9198,1486 104,104 c 20,20 38,30 62,30 h 134 v -140 h -62 c -18,0 -28,-10 -36,-18 l -128,-128 c -100,-100 -188,198 -188,296 0,166 110,206 254,210 v 140 h -120 c -40,0 -74,-10 -96,-40 l -104,180 h 404 c 46,0 76,-30 76,-80 v -252 c 0,-50 -26,-82 -96,-82 -64,0 -108,-12 -154,-58 l -62,-62 c -34,-34 -16,-128 12,-100 z"
       id="path158" />
    <path
       style="opacity:1;stop-opacity:1"
       inkscape:connector-curvature="0"
       d="m 9698,1480 -140,-140 -80,140 h -40 v 140 h 340 v -140 z"
       id="path164" />
    <path
       style="opacity:1;stop-opacity:1"
       inkscape:connector-curvature="0"
       d="m 9698,1620 h 538 l 82,-140 h -278 c -64,0 -170,-94 -170,-156 0,-78 130,-140 170,-158 l -2,-6 c -106,52 -292,146 -292,242 0,26 12,52 44,78 h -92 z"
       id="path166" />
    <path
       style="opacity:1;stop-opacity:1"
       inkscape:connector-curvature="0"
       d="m 10272,1840 h 678 c 12,0 42,0 42,-42 0,-278 -136,-370 -472,-388 l -120,210 h 344 c 44,0 80,36 80,80 h -472 z"
       id="path170" />
    <path
       style="opacity:1;stop-opacity:1"
       inkscape:connector-curvature="0"
       d="m 11628,1438 c -30,-112 -106,-178 -206,-178 -110,0 -200,80 -200,180 0,100 90,180 200,180 20,0 40,-2 60,-8 4,14 4,30 4,44 0,14 0,30 -4,44 h -220 c -44,0 -76,-14 -96,-40 l -104,180 h 486 c 62,0 80,-28 90,-76 8,-34 10,-78 10,-130 0,-72 -8,-146 -20,-196 z m -206,42 c -22,0 -40,-18 -40,-40 0,-22 18,-40 40,-40 22,0 40,18 40,40 0,22 -18,40 -40,40 z"
       id="path174" />
    <path
       style="opacity:1;stop-opacity:1"
       inkscape:connector-curvature="0"
       d="M 11862,1340 V 500 l -160,40 v 800 c 0,190 152,280 316,280 120,0 246,-48 324,-140 -56,24 -144,44 -230,44 -128,0 -250,-44 -250,-184 z"
       id="path178" />
    <path
       style="opacity:1;stop-opacity:1"
       inkscape:connector-curvature="0"
       d="m 13342,1200 v 280 h -760 c -44,0 -76,-14 -96,-40 l -104,180 h 1078 c 12,0 42,0 42,-22 v -438 z"
       id="path184" />
    <path
       style="opacity:1;stop-opacity:1"
       inkscape:connector-curvature="0"
       d="m 13456,1840 h 678 c 12,0 42,0 42,-42 0,-278 -136,-370 -472,-388 l -120,210 h 344 c 44,0 80,36 80,80 h -472 z"
       id="path186" />
  </g>
  <g
     transform="translate(-103.11386)"
     id="g2222">
    <g
       style="opacity:1;stop-opacity:1"
       id="g315"
       transform="matrix(0,-0.18498943,0.18498943,0,30.325,5637.4895)">
      <path
         id="path10"
         d="m 14752.58,4309.3941 c 2,-12 2,-26 2,-40 0,-100 -90,-180 -200,-180 -110,0 -200,80 -200,180 0,14 2,28 4,40 h -204 c -40,0 -74,-10 -96,-40 l -104,180 h 880 v -140 z m -238,-40 c 0,-22 18,-40 40,-40 22,0 40,18 40,40 0,22 -18,40 -40,40 -22,0 -40,-18 -40,-40 z"
         inkscape:connector-curvature="0"
         style="opacity:1;stop-opacity:1" />
      <path
         id="path14"
         d="m 14994.58,4229.3941 v -240 l -160,40 v 280 h -40 v 140 h 158 122 v -140 c -44,0 -80,-36 -80,-80 z"
         inkscape:connector-curvature="0"
         style="opacity:1;stop-opacity:1" />
      <path
         id="path18"
         d="m 16328.58,4309.3941 c -30,-190 -146,-220 -222,-220 h -872 v -760 l -160,40 v 940 h -40 v 140 h 1380 v -140 z m -162,0 h -932 v -80 h 852 c 44,0 80,36 80,80 z"
         inkscape:connector-curvature="0"
         style="opacity:1;stop-opacity:1" />
      <path
         id="path20"
         d="m 16780.58,4309.3941 -2,-2 v -398 l -160,40 v 200 l -160,-160 -84,142 178,178 h -218 v 140 h 524 v -140 z"
         inkscape:connector-curvature="0"
         style="opacity:1;stop-opacity:1" />
      <path
         id="path22"
         d="m 16818.58,4449.3941 h 124 c 46,0 76,-30 76,-80 v -1040 l -160,40 v 940 h -40 z"
         inkscape:connector-curvature="0"
         style="opacity:1;stop-opacity:1" />
      <path
         id="path24"
         d="m 17258.58,4169.3941 v -840 l -160,40 v 800 c 0,190 152,280 316,280 120,0 246,-48 324,-140 -56,24 -144,44 -230,44 -128,0 -250,-44 -250,-184 z"
         inkscape:connector-curvature="0"
         style="opacity:1;stop-opacity:1" />
    </g>
    <g
       id="g2188">
      <path
         id="path28"
         d="m 1164,3309.3941 v -300 c -40,70 -120,80 -200,80 -110,0 -200,80 -200,180 0,120 90,180 200,180 h 280 v -140 z m -240,-40 c 0,-22 18,-40 40,-40 22,0 40,18 40,40 0,22 -18,40 -40,40 -22,0 -40,-18 -40,-40 z"
         inkscape:connector-curvature="0"
         style="opacity:1;stop-opacity:1" />
      <path
         id="path30"
         d="m 1404,3229.3941 v -780 l -160,40 v 820 h -40 v 140 h 280 v -140 c -44,0 -80,-36 -80,-80 z"
         inkscape:connector-curvature="0"
         style="opacity:1;stop-opacity:1" />
      <path
         id="path32"
         d="m 1444,3449.3941 h 124 c 46,0 76,-30 76,-80 v -980 l -160,40 v 880 h -40 z"
         inkscape:connector-curvature="0"
         style="opacity:1;stop-opacity:1" />
      <path
         id="path40"
         d="m 2728,3589.3941 h -102 l 176,-194 c 28,-30 42,-72 42,-126 0,-100 -90,-180 -200,-180 -110,0 -200,80 -200,180 0,120 90,180 200,180 22,0 42,-2 60,-4 l -260,284 h 264 c 44,0 80,36 80,80 h -392 l -80,140 h 598 c 12,0 42,0 42,-42 0,-278 -140,-318 -228,-318 z m -84,-280 c -22,0 -40,-18 -40,-40 0,-22 18,-40 40,-40 22,0 40,18 40,40 0,22 -18,40 -40,40 z"
         inkscape:connector-curvature="0"
         style="opacity:1;stop-opacity:1" />
      <path
         id="path42"
         d="m 3990,3309.3941 c -30,-190 -146,-220 -222,-220 h -652 l 54,-140 h -6 l -160,280 h 744 c 44,0 80,36 80,80 h -872 l -80,140 h 1200 v -140 z"
         inkscape:connector-curvature="0"
         style="opacity:1;stop-opacity:1" />
      <path
         id="path44"
         d="m 5108,3089.3941 h -872 v -140 l -160,40 v 320 h -40 v 140 h 1258 c 12,0 42,0 42,-42 0,-278 -140,-318 -228,-318 z m 60,220 h -932 v -80 h 852 c 44,0 80,36 80,80 z"
         inkscape:connector-curvature="0"
         style="opacity:1;stop-opacity:1" />
      <path
         id="path48"
         d="m 5714,3529.3941 c -64,0 -88,-6 -134,-52 l -62,-62 c -34,-34 -16,-128 12,-100 l 104,104 c 20,20 38,30 62,30 32,0 104,-20 124,-180 -6,30 -34,40 -52,40 -18,0 -28,-10 -36,-18 l -128,-128 c -100,-100 -188,198 -188,296 0,170 114,208 262,210 h 1120 l 82,-140 z"
         inkscape:connector-curvature="0"
         style="opacity:1;stop-opacity:1" />
      <path
         id="path50"
         d="m 6954,3309.3941 c -30,-190 -146,-220 -222,-220 h -652 l 54,-140 h -6 l -160,280 h 744 c 44,0 80,36 80,80 h -872 l -80,140 h 1200 v -140 z"
         inkscape:connector-curvature="0"
         style="opacity:1;stop-opacity:1" />
      <path
         id="path52"
         d="m 7000,3449.3941 h 124 c 46,0 76,-30 76,-80 v -1040 l -160,40 v 940 h -40 z"
         inkscape:connector-curvature="0"
         style="opacity:1;stop-opacity:1" />
      <path
         id="path56"
         d="m 8258,3089.3941 c -110,0 -200,80 -200,180 0,100 90,180 200,180 14,0 28,-2 40,-4 v 84 h -200 c -44,0 -76,-14 -96,-40 l -104,180 h 484 c 46,0 76,-30 76,-80 v -320 c 0,-100 -90,-180 -200,-180 z m 0,220 c -22,0 -40,-18 -40,-40 0,-22 18,-40 40,-40 22,0 40,18 40,40 0,22 -18,40 -40,40 z"
         inkscape:connector-curvature="0"
         style="opacity:1;stop-opacity:1" />
      <path
         id="path60"
         d="m 8856,3529.3941 c -64,0 -108,-6 -154,-52 l -62,-62 c -34,-34 -16,-128 12,-100 l 104,104 c 20,20 38,30 62,30 h 134 v -140 h -62 c -18,0 -28,-10 -36,-18 l -128,-128 c -100,-100 -188,198 -188,296 0,170 114,208 262,210 h 90 c 62,0 264,-94 372,-140 z"
         inkscape:connector-curvature="0"
         style="opacity:1;stop-opacity:1" />
      <path
         id="path62"
         d="m 9112,3229.3941 v -900 l -160,40 v 940 h -40 v 140 h 280 v -140 c -44,0 -80,-36 -80,-80 z"
         inkscape:connector-curvature="0"
         style="opacity:1;stop-opacity:1" />
      <path
         id="path64"
         d="m 9152,3449.3941 h 538 l 82,-140 h -278 c -64,0 -170,-94 -170,-156 0,-78 130,-140 170,-158 l -2,-6 c -106,52 -292,146 -292,242 0,26 12,52 44,78 h -92 z"
         inkscape:connector-curvature="0"
         style="opacity:1;stop-opacity:1" />
      <path
         id="path66"
         d="m 10112,3089.3941 c -110,0 -200,80 -200,180 0,100 90,180 200,180 14,0 28,-2 40,-4 v 84 h -200 c -44,0 -76,-14 -96,-40 l -104,180 h 484 c 46,0 76,-30 76,-80 v -320 c 0,-100 -90,-180 -200,-180 z m 0,220 c -22,0 -40,-18 -40,-40 0,-22 18,-40 40,-40 22,0 40,18 40,40 0,22 -18,40 -40,40 z"
         inkscape:connector-curvature="0"
         style="opacity:1;stop-opacity:1" />
      <path
         id="path72"
         d="m 10724,3529.3941 h -152 c -14,0 -20,-6 -20,-20 v -160 h -160 v 240 c 0,50 30,80 76,80 h 236 c 44,0 80,36 80,80 h -392 l -80,140 h 598 c 12,0 42,0 42,-42 0,-278 -140,-318 -228,-318 z"
         inkscape:connector-curvature="0"
         style="opacity:1;stop-opacity:1" />
      <path
         id="path74"
         d="m 10552,3289.3941 v -960 l -160,40 v 1000 c 0,50 30,80 76,80 h 164 v -140 h -60 c -14,0 -20,-6 -20,-20 z"
         inkscape:connector-curvature="0"
         style="opacity:1;stop-opacity:1" />
      <path
         id="path76"
         d="m 10592,3449.3941 h 538 l 82,-140 h -278 c -64,0 -170,-94 -170,-156 0,-78 130,-140 170,-158 l -2,-6 c -106,52 -292,146 -292,242 0,26 12,52 44,78 h -92 z"
         inkscape:connector-curvature="0"
         style="opacity:1;stop-opacity:1" />
      <path
         id="path82"
         d="m 12318,3309.3941 -102,-280 -136,92 68,188 h -736 c -44,0 -76,-14 -96,-40 l -104,180 h 1200 v -140 z"
         inkscape:connector-curvature="0"
         style="opacity:1;stop-opacity:1" />
      <path
         id="path84"
         d="m 12810,3309.3941 c 2,-12 2,-26 2,-40 0,-100 -90,-180 -200,-180 -110,0 -200,80 -200,180 0,14 2,28 4,40 h -44 v 140 h 520 v -140 z m -238,-40 c 0,-22 18,-40 40,-40 22,0 40,18 40,40 0,22 -18,40 -40,40 -22,0 -40,-18 -40,-40 z"
         inkscape:connector-curvature="0"
         style="opacity:1;stop-opacity:1" />
      <path
         id="path86"
         d="m 13258,3309.3941 -2,-2 v -398 l -160,40 v 200 l -160,-160 -84,142 178,178 h -218 v 140 h 524 v -140 z"
         inkscape:connector-curvature="0"
         style="opacity:1;stop-opacity:1" />
      <path
         id="path92"
         d="m 13296,3449.3941 h 158 c 12,0 42,0 42,-22 v -438 l -160,40 v 280 h -40 z"
         inkscape:connector-curvature="0"
         style="opacity:1;stop-opacity:1" />
      <path
         id="path96"
         d="m 13736,3169.3941 v -840 l -160,40 v 800 c 0,190 152,280 316,280 120,0 246,-48 324,-140 -56,24 -144,44 -230,44 -128,0 -250,-44 -250,-184 z"
         inkscape:connector-curvature="0"
         style="opacity:1;stop-opacity:1" />
      <path
         style="opacity:1;stop-opacity:1"
         inkscape:connector-curvature="0"
         d="m 7440,3167.3941 v -840 l -160,40 v 800 c 0,190 152,280 316,280 120,0 246,-48 324,-140 -56,24 -144,44 -230,44 -128,0 -250,-44 -250,-184 z"
         id="path499" />
      <path
         id="path1399"
         d="m 1884,3167.3941 v -840 l -160,40 v 800 c 0,190 152,280 316,280 120,0 246,-48 324,-140 -56,24 -144,44 -230,44 -128,0 -250,-44 -250,-184 z"
         inkscape:connector-curvature="0"
         style="opacity:1;stop-opacity:1" />
    </g>
  </g>
</svg>
