<?xml version="1.0" encoding="UTF-8" standalone="no"?>
<svg
   xmlns:dc="http://purl.org/dc/elements/1.1/"
   xmlns:cc="http://creativecommons.org/ns#"
   xmlns:rdf="http://www.w3.org/1999/02/22-rdf-syntax-ns#"
   xmlns:svg="http://www.w3.org/2000/svg"
   xmlns="http://www.w3.org/2000/svg"
   xmlns:sodipodi="http://sodipodi.sourceforge.net/DTD/sodipodi-0.dtd"
   xmlns:inkscape="http://www.inkscape.org/namespaces/inkscape"
   version="1.1"
   width="1280"
   height="640"
   id="svg855"
   inkscape:version="1.0beta1 (32d4812, 2019-09-19)"
   inkscape:export-xdpi="96"
   inkscape:export-ydpi="96">
  <metadata
     id="metadata861">
    <rdf:RDF>
      <cc:Work
         rdf:about="">
        <dc:format>image/svg+xml</dc:format>
        <dc:type
           rdf:resource="http://purl.org/dc/dcmitype/StillImage" />
        <dc:title></dc:title>
      </cc:Work>
    </rdf:RDF>
  </metadata>
  <defs
     id="defs859" />
  <sodipodi:namedview
     pagecolor="#ffffff"
     bordercolor="#666666"
     inkscape:document-rotation="0"
     borderopacity="1"
     objecttolerance="10"
     gridtolerance="10"
     guidetolerance="10"
     inkscape:pageopacity="0"
     inkscape:pageshadow="2"
     inkscape:window-width="1600"
     inkscape:window-height="771"
     id="namedview857"
     showgrid="false"
     inkscape:zoom="0.55795661"
     inkscape:cx="529.61108"
     inkscape:cy="272.0256"
     inkscape:window-x="0"
     inkscape:window-y="23"
     inkscape:window-maximized="0"
     inkscape:current-layer="svg855" />
  <g
     transform="matrix(0.22274197,0,0,0.22274197,112.10153,19.29834)"
     id="g851">
    <path
       id="path835"
       d="M 100,0 V 0 Q 58,0 29,-29 0,-58 0,-100 v 0 q 0,-42 29,-71 29,-29 71,-29 v 0 q 42,0 71,29 29,29 29,71 v 0 q 0,42 -29,71 -29,29 -71,29 z"
       fill="#d22e1f"
       transform="translate(300,1400)"
       inkscape:connector-curvature="0" />
    <path
       id="path847"
       d="M 100,0 V 0 Q 58,0 29,-29 0,-58 0,-100 v 0 q 0,-42 29,-71 29,-29 71,-29 v 0 q 42,0 71,29 29,29 29,71 v 0 q 0,42 -29,71 -29,29 -71,29 z"
       fill="#d22e1f"
       transform="translate(2190,1400)"
       inkscape:connector-curvature="0" />
    <path
       id="path853"
       transform="translate(3140,2400)"
       d="M 1600,-1716 242,-358 100,-500 l 1414,-1414 86,86 z M 100,-300 v -200 h 400 v 200 z M 1460,-2200 H 300 q -50,0 -74,29 -24,29 -26,71 v 0 q 0,-98 -56,-182 -56,-84 -144,-118 v 0 h 300 1160 z m -60,484 v -684 h 200 v 684 z M -16,-200 H 84 V 0 H -16 Z M 0,0 V -200 H 1300 V 0 Z m 1400,0 v -500 h 200 V 0 Z M 300,-300 v -200 h 1300 v 200 z m 1050,600 v 0 q -104,0 -177,-74 -73,-74 -73,-178 v 0 -88 h 200 v 92 q 0,20 15,34 15,14 35,14 v 0 q 20,0 35,-14 15,-14 15,-34 v 0 -92 h 200 v 88 q 0,68 -34,126 -34,58 -91,92 -57,34 -125,34 z m -1610,0 v 0 q -68,0 -126,-16 -58,-16 -114,-58 v 0 q 178,2 239,-76 61,-78 61,-170 v 0 H 0 q 0,120 -52,220 -52,100 -208,100 z M -500,0 V -200 H 0 V 0 Z m 300,-80 V -500 H 0 v 420 z m 0,-400 v -20 q 60,0 112,-27 52,-27 88,-73 v 0 120 z m -100,300 h -200 v -20 q 0,-82 40,-151 40,-69 109,-109 69,-40 151,-40 v 0 h 20 v 200 h -20 q -42,0 -71,29 -29,29 -29,71 v 0 z M -1300,0 v -200 h 700 V 0 Z m 500,0 v -400 h 200 V 0 Z m 0,-400 v -400 h 200 v 400 z m -300,100 v -200 h 500 v 200 z m 300,-480 v -20 q 60,0 112,-27 52,-27 88,-73 v 0 120 z m -100,300 h -200 v -20 q 0,-82 40,-151 40,-69 109,-109 69,-40 151,-40 v 0 h 20 v 200 h -20 q -42,0 -71,29 -29,29 -29,71 v 0 z M -1316,0 v -200 h 116 V 0 Z m -714,-642 -10,-18 q -40,-72 -40,-152 0,-80 39,-149 39,-69 111,-109 v 0 l 18,-10 100,174 -22,10 q -36,16 -46,57 -10,41 10,79 v 0 l 10,18 z m 150,-786 v -572 q 0,-62 -36,-81 -36,-19 -64,-19 v 0 q 100,-46 178,-123 78,-77 122,-177 v 0 400 572 z m -48,568 376,650 q 56,80 56,184 v 0 q 0,88 -42,163 -42,75 -116,119 -74,44 -162,44 v 0 q -88,0 -163,-44 -75,-44 -118,-119 -43,-75 -43,-163 v 0 q 0,-90 56,-184 v 0 l 140,-244 58,102 -120,210 q -22,38 -28,62 -6,24 -6,54 v 0 q 0,70 50,120 50,50 120,50 v 0 q 70,0 120,-50 50,-50 50,-120 v 0 q 0,-22 -8,-48 -8,-26 -36,-72 v 0 l -32,-56 -98,-170 -60,-102 -82,-144 -14,-24 z m 120,166 216,-374 q 62,-114 44,-202 -18,-88 -106,-125 -88,-37 -226,-5 v 0 -102 q 170,-34 286,25 116,59 143,183 27,124 -53,274 v 0 l -244,428 z m 36,-102 -158,-274 q 76,-42 152,-130 v 0 l 120,206 z m 82,144 114,-200 376,652 -116,200 z m -950,922 v 0 q 62,0 113,-38 51,-38 75,-100 24,-62 12,-132 v 0 q -20,-116 -100,-200 v 0 q 52,-60 76,-133 24,-73 24,-167 v 0 q 28,48 42,68 v 0 q 60,104 90,162 30,58 49,125 19,67 19,147 v 0 q 0,116 -65,193 -65,77 -159,98 -94,21 -176,-23 z M -3040,0 v -200 h 200 v -300 q 0,-50 -29,-74 -29,-24 -71,-26 v 0 q 98,0 182,-56 84,-56 118,-144 v 0 300 500 z m -100,0 v -2000 -400 q 44,100 122,177 78,77 178,123 v 0 q -28,0 -64,19 -36,19 -36,81 v 0 V 0 Z"
       inkscape:connector-curvature="0" />
  </g>
</svg>
