<?xml version="1.0" encoding="UTF-8" standalone="no"?>
<svg
   xmlns:dc="http://purl.org/dc/elements/1.1/"
   xmlns:cc="http://creativecommons.org/ns#"
   xmlns:rdf="http://www.w3.org/1999/02/22-rdf-syntax-ns#"
   xmlns:svg="http://www.w3.org/2000/svg"
   xmlns="http://www.w3.org/2000/svg"
   xmlns:sodipodi="http://sodipodi.sourceforge.net/DTD/sodipodi-0.dtd"
   xmlns:inkscape="http://www.inkscape.org/namespaces/inkscape"
   inkscape:version="1.0beta1 (32d4812, 2019-09-19)"
   sodipodi:docname="document-10.svg"
   id="svg863"
   viewBox="-500 -500 6900 3700"
   height="3700"
   width="6900"
   version="1.1">
  <metadata
     id="metadata869">
    <rdf:RDF>
      <cc:Work
         rdf:about="">
        <dc:format>image/svg+xml</dc:format>
        <dc:type
           rdf:resource="http://purl.org/dc/dcmitype/StillImage" />
        <dc:title></dc:title>
      </cc:Work>
    </rdf:RDF>
  </metadata>
  <defs
     id="defs867" />
  <sodipodi:namedview
     inkscape:current-layer="svg863"
     inkscape:window-maximized="0"
     inkscape:window-y="23"
     inkscape:window-x="0"
     inkscape:cy="1850"
     inkscape:cx="3472.549"
     inkscape:zoom="0.094075946"
     showgrid="false"
     id="namedview865"
     inkscape:window-height="805"
     inkscape:window-width="1600"
     inkscape:pageshadow="2"
     inkscape:pageopacity="0"
     guidetolerance="10"
     gridtolerance="10"
     objecttolerance="10"
     borderopacity="1"
     inkscape:document-rotation="0"
     bordercolor="#666666"
     pagecolor="#ffffff" />
  <path
     id="path833"
     d="M300,0L600,0L600,-200L300,-200ZM300,0L1000,0L1000,-200L300,-200ZM800,-100L1000,-100L1000,-500L800,-500ZM500,0L1000,0L1000,-200L500,-200ZM800,-480L1000,-480L1000,-600C954,-540,882,-500,800,-500ZM700,-180L700,-200C700,-256,744,-300,800,-300L820,-300L820,-500L800,-500C634,-500,500,-366,500,-200L500,-180ZM340,0L340,-200L300,-200C200,-200,200,-300,200,-300C200,-170,116,-46,0,0Z"
     transform="translate(0,2400)" />
  <path
     inkscape:connector-curvature="0"
     id="path835"
     d="m 710,2700 c 56,0 100,-44 100,-100 0,-56 -44,-100 -100,-100 -56,0 -100,44 -100,100 0,56 44,100 100,100 z m 300,0 c 56,0 100,-44 100,-100 0,-56 -44,-100 -100,-100 -56,0 -100,44 -100,100 0,56 44,100 100,100 z"
     style="fill:#d22e1f;fill-opacity:1" />
  <path
     id="path837"
     d="M-100,0L300,0L300,-500L100,-500L100,-200L-100,-200ZM300,-460L300,-800C254,-684,130,-600,0,-600C0,-600,100,-600,100,-500L100,-460Z"
     transform="translate(1000,2400)" />
  <path
     id="path839"
     d="M82,300C202,300,300,202,300,84L300,-200L100,-200L100,100C100,170,46,224,-24,224C-54,224,-78,216,-100,200C-60,260,6,300,82,300ZM300,-160L300,-500C254,-384,130,-300,0,-300C0,-300,100,-300,100,-200L100,-160Z"
     transform="translate(1300,2400)" />
  <path
     id="path841"
     d=""
     transform="translate(1600,2400)" />
  <path
     id="path843"
     d="M200,-1500L200,-2000L0,-2000L0,-1500ZM200,0L200,-700L0,-700L0,0ZM200,-988C166,-898,92,-826,0,-796L0,-600L200,-600ZM-100,-800C66,-800,200,-934,200,-1100L200,-1600L0,-1600L0,-1100C0,-1044,-44,-1000,-100,-1000C-156,-1000,-200,-1044,-200,-1100C-200,-1156,-156,-1200,-100,-1200C-68,-1200,-38,-1186,-20,-1162L-20,-1390C-46,-1396,-72,-1400,-100,-1400C-266,-1400,-400,-1266,-400,-1100C-400,-934,-266,-800,-100,-800ZM200,-1960L200,-2400C140,-2264,30,-2160,-100,-2100C-94,-2100,0,-2098,0,-2000L0,-1960Z"
     transform="translate(1700,2400)" />
  <path
     id="path845"
     d="M100,0C156,0,200,-44,200,-100C200,-156,156,-200,100,-200C44,-200,0,-156,0,-100C0,-44,44,0,100,0ZM400,0C456,0,500,-44,500,-100C500,-156,456,-200,400,-200C344,-200,300,-156,300,-100C300,-44,344,0,400,0Z"
     style="fill:#d22e1f;fill-opacity:1"
     transform="translate(1700,2700)" />
  <path
     id="path847"
     d="M-100,0L300,0L300,-500L100,-500L100,-200L-100,-200ZM300,-460L300,-800C254,-684,130,-600,0,-600C0,-600,100,-600,100,-500L100,-460Z"
     transform="translate(1900,2400)" />
  <path
     id="path849"
     d=""
     transform="translate(2200,2400)" />
  <path
     id="path851"
     d="M300,0L400,0L400,-200L300,-200ZM300,-300L700,-300L700,-500L460,-500ZM1300,-1908C1272,-2226,1058,-2400,702,-2400L300,-2400C416,-2322,488,-2228,500,-2100C570,-2166,608,-2200,702,-2200C954,-2200,1082,-2102,1100,-1892C1132,-1514,866,-1148,610,-798C496,-642,340,-434,300,-300L514,-300C698,-660,1356,-1264,1300,-1908ZM184,-200L184,0L284,0L284,-200ZM200,0L1500,0L1500,-200L200,-200ZM1600,0L1800,0L1800,-500L1600,-500ZM500,-300L1800,-300L1800,-500L500,-500ZM1550,300C1688,300,1800,186,1800,48L1800,-40L1600,-40L1600,52C1600,78,1578,100,1550,100C1522,100,1500,78,1500,52L1500,-40L1300,-40L1300,48C1300,186,1410,300,1550,300ZM340,0L340,-200L300,-200C200,-200,200,-300,200,-300C200,-170,116,-46,0,0Z"
     transform="translate(2200,2400)" />
  <path
     id="path853"
     d="M100,0C156,0,200,-44,200,-100C200,-156,156,-200,100,-200C44,-200,0,-156,0,-100C0,-44,44,0,100,0Z"
     style="fill:#d22e1f;fill-opacity:1"
     transform="translate(4100,2700)" />
  <path
     id="path855"
     d="M-100,0L300,0L300,-500L100,-500L100,-200L-100,-200ZM300,-460L300,-800C254,-684,130,-600,0,-600C0,-600,100,-600,100,-500L100,-460Z"
     transform="translate(4000,2400)" />
  <path
     id="path857"
     d="M400,0L600,0L600,-200L400,-200ZM176,-180L478,-180C384,-202,322,-254,322,-362C322,-472,400,-600,400,-754C400,-940,256,-1100,80,-1100L-300,-1100C-226,-1000,-194,-900,-200,-800C-184,-832,-128,-900,-50,-900C-24,-900,-14,-900,20,-900C106,-900,200,-838,200,-752C200,-624,118,-522,118,-362C118,-272,142,-216,176,-180ZM-100,0L400,0L400,-200L-100,-200ZM560,0L900,0C784,-46,700,-170,700,-300C700,-300,700,-200,600,-200L560,-200Z"
     transform="translate(4300,2400)" />
  <path
     id="path859"
     d="M186,-144C182,-168,174,-184,148,-194C160,-216,158,-244,144,-266C140,-238,128,-216,86,-194C36,-170,16,-120,32,-66L0,-66L0,0L258,0C220,-16,192,-56,192,-100C184,-82,166,-66,144,-66C118,-66,94,-90,94,-116C94,-144,118,-166,144,-166C162,-166,178,-158,186,-144Z"
     transform="translate(4930,268)" />
  <path
     id="path861"
     d="M400,-200L100,-200L100,0L400,0ZM0,-1500L200,-1500L200,-2000L0,-2000ZM0,0L200,0L200,-700L0,-700ZM0,-988L0,-600L200,-600L200,-796C108,-826,34,-898,0,-988ZM300,-800C466,-800,600,-934,600,-1100C600,-1266,466,-1400,300,-1400C272,-1400,246,-1396,220,-1390L220,-1162C238,-1186,268,-1200,300,-1200C356,-1200,400,-1156,400,-1100C400,-1044,356,-1000,300,-1000C244,-1000,200,-1044,200,-1100L200,-1600L0,-1600L0,-1100C0,-934,134,-800,300,-800ZM0,-1960L200,-1960L200,-2000C200,-2098,294,-2100,300,-2100C170,-2160,60,-2264,0,-2400ZM360,0L700,0C584,-46,500,-170,500,-300C500,-300,500,-200,400,-200L360,-200Z"
     transform="translate(5200,2400)" />
</svg>
