<?xml version="1.0" encoding="UTF-8" standalone="no"?>
<svg
   xmlns:dc="http://purl.org/dc/elements/1.1/"
   xmlns:cc="http://creativecommons.org/ns#"
   xmlns:rdf="http://www.w3.org/1999/02/22-rdf-syntax-ns#"
   xmlns:svg="http://www.w3.org/2000/svg"
   xmlns="http://www.w3.org/2000/svg"
   xmlns:sodipodi="http://sodipodi.sourceforge.net/DTD/sodipodi-0.dtd"
   xmlns:inkscape="http://www.inkscape.org/namespaces/inkscape"
   inkscape:export-ydpi="19.997538"
   inkscape:export-xdpi="19.997538"
   inkscape:export-filename="/Users/khaled/document-10.png"
   version="1.1"
   width="6500"
   height="4707.6504"
   viewBox="-500 -500 6500 4707.6504"
   id="svg863"
   sodipodi:docname="document-10.svg"
   inkscape:version="1.0beta1 (32d4812, 2019-09-19)">
  <metadata
     id="metadata869">
    <rdf:RDF>
      <cc:Work
         rdf:about="">
        <dc:format>image/svg+xml</dc:format>
        <dc:type
           rdf:resource="http://purl.org/dc/dcmitype/StillImage" />
        <dc:title></dc:title>
      </cc:Work>
    </rdf:RDF>
  </metadata>
  <defs
     id="defs867" />
  <sodipodi:namedview
     fit-margin-bottom="1000"
     fit-margin-right="1000"
     fit-margin-left="1000"
     fit-margin-top="1000"
     inkscape:guide-bbox="true"
     showguides="true"
     pagecolor="#ffd5e5"
     bordercolor="#666666"
     inkscape:document-rotation="0"
     borderopacity="1"
     objecttolerance="10"
     gridtolerance="10"
     guidetolerance="10"
     inkscape:pageopacity="1"
     inkscape:pageshadow="2"
     inkscape:window-width="2048"
     inkscape:window-height="1081"
     id="namedview865"
     showgrid="false"
     inkscape:zoom="0.089221497"
     inkscape:cx="4228.6106"
     inkscape:cy="1631.555"
     inkscape:window-x="0"
     inkscape:window-y="23"
     inkscape:window-maximized="1"
     inkscape:current-layer="svg863" />
  <path
     d=""
     id="path841"
     inkscape:connector-curvature="0"
     style="opacity:1;stop-opacity:1" />
  <path
     d=""
     id="path849"
     inkscape:connector-curvature="0"
     style="opacity:1;stop-opacity:1" />
  <g
     transform="translate(-260,500)"
     style="fill:#2a7fff"
     id="g916">
    <path
       inkscape:connector-curvature="0"
       transform="translate(-500,-500)"
       d="m 1860,500 c -60,136 -170,240 -300,300 6,0 100,2 100,100 v 40 460 400 c 0,56 -44,100 -100,100 -56,0 -100,-44 -100,-100 0,-56 44,-100 100,-100 32,0 62,14 80,38 v -228 c -26,-6 -52,-10 -80,-10 -166,0 -300,134 -300,300 0,166 134,300 300,300 166,0 300,-134 300,-300 V 1300 900 Z m 0,1412 c -34,90 -108,162 -200,192 v 196 600 h 100 100 300 v -500 -300 c -46,116 -170,200 -300,200 0,0 100,0 100,100 v 40 260 h -100 v -400 -100 z"
       style="opacity:1;fill:#2a7fff;stop-opacity:1"
       id="path843" />
    <path
       inkscape:connector-curvature="0"
       transform="translate(-500,-500)"
       d="m 2460,500 c 116,78 188,172 200,300 70,-66 108,-100 202,-100 252,0 380,98 398,308 32,378 -234,744 -490,1094 -114,156 -270,364 -310,498 h 200 14 186 900 v 260 40 52 c 0,26 -22,48 -50,48 -28,0 -50,-22 -50,-48 v -52 -40 -160 h -1100 -60 -40 c -100,0 -100,-100 -100,-100 0,130 -84,254 -200,300 h 184 16 84 16 40 60 900 v 48 c 0,138 110,252 250,252 138,0 250,-114 250,-252 v -48 h 200 100 400 200 300 c -116,-46 -200,-170 -200,-300 0,0 0,100 -100,100 H 4679.1445 C 4618.9942,2671.4185 4582,2621.4162 4582,2538 c 0,-110 78,-238 78,-392 0,-186 -144,-346 -320,-346 h -380 c 74,100 106,200 100,300 16,-32 72,-100 150,-100 h 70 c 86,0 180,62 180,148 0,128 -82,230 -82,390 0,74.8237 16.5966,126.1319 41.7285,162 H 4260 v -300 -300 c -46,116 -170,200 -300,200 0,0 100,0 100,100 v 40 260 h -100 v -100 -200 h -200 -900 -59.5469 C 3058.0196,2036.9825 3506.6419,1528.3817 3460,992 3432,674 3218,500 2862,500 Z"
       style="opacity:1;fill:#2a7fff;stop-opacity:1"
       id="path851" />
    <path
       inkscape:connector-curvature="0"
       transform="translate(-500,-500)"
       d="m 5160,500 v 400 40 360 100 400 c 0,166 134,300 300,300 166,0 300,-134 300,-300 0,-166 -134,-300 -300,-300 -28,0 -54,4 -80,10 v 228 c 18,-24 48,-38 80,-38 56,0 100,44 100,100 0,56 -44,100 -100,100 -56,0 -100,-44 -100,-100 V 1400 1300 940 900 c 0,-98 94,-100 100,-100 -130,-60 -240,-164 -300,-300 z m 0,1412 v 288 100 600 h 200 v -600 -100 -96 c -92,-30 -166,-102 -200,-192 z"
       style="opacity:1;fill:#2a7fff;stop-opacity:1"
       id="path861" />
  </g>
  <path
     sodipodi:nodetypes="csccsssccscc"
     inkscape:connector-curvature="0"
     id="path63"
     d="m 3970.7228,1205.0509 c -129.9,15.2061 -306.4673,13.7593 -382.0498,6.2385 -63.465,-6.3151 -80.9406,-20.5765 -100.5887,-31.864 68.1112,-39.153 252.2375,-255.40838 284.3262,-327.57377 183.3668,55.27318 394.9367,213.48367 423.2286,359.40097 17.3018,89.2349 -32.0118,131.3939 -97.3039,155.8989 -138.4898,51.9772 -422.9452,52.4826 -706.6608,29.9112 -71.5438,-5.6918 -125.9618,-23.0258 -149.4332,-41.8808 66.7441,-22.309 196.931,-98.131 226.8763,-163.085 18.6125,15.9118 51.6766,31.7408 117.7238,37.8876 66.3118,6.1715 250.0063,12.2386 385.0471,-11.2024 14.2491,-6.6028 12.3887,-14.2798 -1.1656,-13.7312 z"
     style="fill:#ffbb00;fill-opacity:1;stroke:none;stroke-width:1px;stroke-linecap:butt;stroke-linejoin:miter;stroke-opacity:1" />
  <path
     sodipodi:nodetypes="ccccsccccccscscscs"
     inkscape:connector-curvature="0"
     d="m 2987.9902,805.80664 c -58.3405,83.60142 -115.6844,147.49512 -152.0175,142.56445 32.7514,143.39941 32.5174,162.45131 37.4941,238.00001 -121.1613,10.6385 -526.7919,22.6541 -766.2793,4.9766 2.9107,-175.4922 -110.8508,-343.13676 -272.0293,-343.13676 -158.1092,0 -258.6993,161.98606 -275.3086,334.51176 -97.0119,-1.9362 -164.7148,-3.4297 -164.7148,-3.4297 -5.5392,56.4484 -79.414,135.732 -122.5782,157.8652 0,0 173.8582,4.2928 378.3457,8.6055 96.8531,44.507 248.6052,44.748 349.7051,6.539 295.5023,20.1362 603.1922,21.5073 916.3125,0.8067 89.9493,-0.1121 95.88,-55.903 95.7403,-95.7383 -0.653,-186.1917 -6.8842,-225.3962 -24.67,-451.56446 z m -1080.666,336.59376 c 7.4434,0 13.4407,1.418 13.8985,11.1504 0,7.9013 -6.9121,9.3203 -12.0665,9.3203 -7.9012,0 -9.7785,-2.7908 -10.2363,-7.9453 -0.9156,-6.9856 3.2498,-12.5254 8.4043,-12.5254 z"
     style="fill:#ffbb00;fill-opacity:1;stroke:none;stroke-width:1px;stroke-linecap:butt;stroke-linejoin:miter;stroke-opacity:1"
     id="path888" />
  <path
     inkscape:transform-center-y="-3.6080697"
     inkscape:transform-center-x="-5.6270192"
     d="m 2785.2719,1593.6403 -49.5231,-39.6974 -60.7772,18.2909 22.451,-59.3664 -36.1769,-52.1503 63.3986,3.0069 38.4186,-50.5216 16.7315,61.2248 59.9209,20.9263 -53.0579,34.8321 z"
     inkscape:randomized="0"
     inkscape:rounded="0"
     inkscape:flatsided="false"
     sodipodi:arg2="1.7624877"
     sodipodi:arg1="1.1341692"
     sodipodi:r2="47.788837"
     sodipodi:r1="95.577675"
     sodipodi:cy="1507.0294"
     sodipodi:cx="2744.8535"
     sodipodi:sides="5"
     id="path920"
     style="fill:#de87aa;fill-opacity:1;stroke:none;stroke-width:1.33333;stroke-linecap:round;stroke-linejoin:round;stroke-opacity:1;paint-order:markers stroke fill"
     sodipodi:type="star" />
  <path
     sodipodi:type="star"
     style="fill:#de87aa;fill-opacity:1;stroke:none;stroke-width:1.33333;stroke-linecap:round;stroke-linejoin:round;stroke-opacity:1;paint-order:markers stroke fill"
     id="path922"
     sodipodi:sides="5"
     sodipodi:cx="2952.7195"
     sodipodi:cy="1472.385"
     sodipodi:r1="95.577675"
     sodipodi:r2="47.788837"
     sodipodi:arg1="1.1341692"
     sodipodi:arg2="1.7624877"
     inkscape:flatsided="false"
     inkscape:rounded="0"
     inkscape:randomized="0"
     d="m 2993.1379,1558.9959 -49.5231,-39.6974 -60.7772,18.2909 22.451,-59.3664 -36.1769,-52.1503 63.3986,3.0069 38.4186,-50.5216 16.7315,61.2248 59.9209,20.9263 -53.0579,34.8321 z"
     inkscape:transform-center-x="-5.6270192"
     inkscape:transform-center-y="-3.6080697" />
  <path
     sodipodi:nodetypes="zzczzcz"
     inkscape:connector-curvature="0"
     id="path928"
     d="m 887.307,3086.4938 c 0.3456,-57.8775 33.216,-73.1416 67.9088,-73.4576 34.6929,-0.316 50.221,33.7916 49.9293,60.6767 -0.2917,-26.8851 15.2364,-60.9927 49.9293,-60.6767 34.6928,0.316 67.5632,15.5801 67.9088,73.4576 0.3456,57.8775 -74.3982,108.2345 -117.8381,121.1564 -43.4399,-12.9219 -118.1836,-63.2789 -117.8381,-121.1564 z"
     style="fill:#ff80b2;fill-opacity:1;stroke:none;stroke-width:0.813726px;stroke-linecap:butt;stroke-linejoin:miter;stroke-opacity:1" />
  <path
     style="fill:#ff80b2;fill-opacity:1;stroke:none;stroke-width:0.813726px;stroke-linecap:butt;stroke-linejoin:miter;stroke-opacity:1"
     d="m 1187.307,3086.4938 c 0.3456,-57.8775 33.216,-73.1416 67.9088,-73.4576 34.6929,-0.316 50.221,33.7916 49.9293,60.6767 -0.2917,-26.8851 15.2364,-60.9927 49.9293,-60.6767 34.6928,0.316 67.5632,15.5801 67.9088,73.4576 0.3456,57.8775 -74.3982,108.2345 -117.8381,121.1564 -43.4399,-12.9219 -118.1836,-63.2789 -117.8381,-121.1564 z"
     id="path951"
     inkscape:connector-curvature="0"
     sodipodi:nodetypes="zzczzcz" />
  <path
     sodipodi:nodetypes="zzczzcz"
     inkscape:connector-curvature="0"
     id="path953"
     d="m 3287.307,3086.4938 c 0.3456,-57.8775 33.216,-73.1416 67.9088,-73.4576 34.6929,-0.316 50.221,33.7916 49.9293,60.6767 -0.2917,-26.8851 15.2364,-60.9927 49.9293,-60.6767 34.6928,0.316 67.5632,15.5801 67.9088,73.4576 0.3456,57.8775 -74.3982,108.2345 -117.8381,121.1564 -43.4399,-12.9219 -118.1836,-63.2789 -117.8381,-121.1564 z"
     style="fill:#ff80b2;fill-opacity:1;stroke:none;stroke-width:0.813726px;stroke-linecap:butt;stroke-linejoin:miter;stroke-opacity:1" />
</svg>
