<svg xmlns="http://www.w3.org/2000/svg" version="1.1" width="4314" height="3700" viewBox="-500 -500 4314 3700"><path transform="translate(200,2400)" d="M-62,300C156,300,200,158,200,0L200,-100L0,-100L0,0C2,84,2,268,-200,270C-170,288,-108,300,-62,300ZM300,-100L500,-100L500,-500L300,-500ZM0,0L500,0L500,-200L0,-200ZM300,-480L500,-480L500,-600C454,-540,382,-500,300,-500ZM200,-180L200,-200C200,-256,244,-300,300,-300L320,-300L320,-500L300,-500C134,-500,0,-366,0,-200L0,-180Z"></path><path transform="translate(800,2400)" d="M200,0L200,-2000L0,-2000L0,0ZM200,-1960L200,-2400C140,-2264,30,-2160,-100,-2100C-94,-2100,0,-2098,0,-2000L0,-1960Z"></path><path transform="translate(1000,2400)" d="M752,-456L894,-596L660,-830C642,-848,642,-880,662,-900C682,-920,710,-918,730,-900L752,-880L894,-1020L874,-1040C778,-1136,618,-1140,520,-1040C424,-942,424,-784,522,-686ZM850,-668L1086,-902C1104,-920,1134,-920,1154,-900C1174,-880,1174,-850,1156,-832L1134,-808L1274,-668L1294,-688C1392,-786,1396,-942,1296,-1042C1198,-1140,1040,-1138,942,-1040L710,-808ZM1062,-852L922,-710L1500,-132L1714,-200L1104,-200L1108,0L1714,0L1714,-200ZM42,-142L324,-140L682,-498L540,-640ZM-100,0L1038,0C1070,-66,1048,-144,980,-200L-100,-200ZM576,-220L828,-220L1106,-498L964,-640L650,-326C620,-296,594,-260,576,-220ZM552,20C590,180,736,300,908,300C1108,300,1272,136,1272,-66C1272,-168,1230,-260,1162,-326L1062,-426L922,-286L1026,-182C1048,-156,1072,-112,1072,-64C1072,26,998,100,908,100C848,100,794,68,766,20Z"></path><path transform="translate(2664,2700)" style="fill:#d22e1f;fill-opacity:1" d="M100,0C156,0,200,-44,200,-100C200,-156,156,-200,100,-200C44,-200,0,-156,0,-100C0,-44,44,0,100,0ZM400,0C456,0,500,-44,500,-100C500,-156,456,-200,400,-200C344,-200,300,-156,300,-100C300,-44,344,0,400,0Z"></path><path transform="translate(2714,2400)" d="M-100,0L300,0L300,-500L100,-500L100,-200L-100,-200ZM300,-460L300,-800C254,-684,130,-600,0,-600C0,-600,100,-600,100,-500L100,-460Z"></path><path transform="translate(3014,2400)" d="M82,300C202,300,300,202,300,84L300,-200L100,-200L100,100C100,170,46,224,-24,224C-54,224,-78,216,-100,200C-60,260,6,300,82,300ZM300,-160L300,-500C254,-384,130,-300,0,-300C0,-300,100,-300,100,-200L100,-160Z"></path></svg>