<?xml version="1.0" encoding="UTF-8" standalone="no"?>
<svg
   xmlns:dc="http://purl.org/dc/elements/1.1/"
   xmlns:cc="http://creativecommons.org/ns#"
   xmlns:rdf="http://www.w3.org/1999/02/22-rdf-syntax-ns#"
   xmlns:svg="http://www.w3.org/2000/svg"
   xmlns="http://www.w3.org/2000/svg"
   xmlns:sodipodi="http://sodipodi.sourceforge.net/DTD/sodipodi-0.dtd"
   xmlns:inkscape="http://www.inkscape.org/namespaces/inkscape"
   version="1.1"
   width="3700"
   height="3700"
   viewBox="-500 -500 3700 3700"
   id="svg845"
   sodipodi:docname="reham.svg"
   inkscape:version="1.0beta1 (32d4812, 2019-09-19)">
  <metadata
     id="metadata851">
    <rdf:RDF>
      <cc:Work
         rdf:about="">
        <dc:format>image/svg+xml</dc:format>
        <dc:type
           rdf:resource="http://purl.org/dc/dcmitype/StillImage" />
      </cc:Work>
    </rdf:RDF>
  </metadata>
  <defs
     id="defs849" />
  <sodipodi:namedview
     pagecolor="#ffffff"
     bordercolor="#666666"
     inkscape:document-rotation="0"
     borderopacity="1"
     objecttolerance="10"
     gridtolerance="10"
     guidetolerance="10"
     inkscape:pageopacity="0"
     inkscape:pageshadow="2"
     inkscape:window-width="1600"
     inkscape:window-height="805"
     id="namedview847"
     showgrid="false"
     inkscape:zoom="0.13288462"
     inkscape:cx="1952.7402"
     inkscape:cy="1819.8987"
     inkscape:window-x="0"
     inkscape:window-y="23"
     inkscape:window-maximized="0"
     inkscape:current-layer="svg845" />
  <path
     sodipodi:nodetypes="ccccccccscc"
     inkscape:connector-curvature="0"
     id="path853"
     d="m 2250,50 v 980 H 2050 V 50 Z m 0,940 v 440 c -60,-136 -170,-240 -300,-300 6,0 100,-2 100,-100 v -40 z"
     style="opacity:1;fill:#ff8080;stop-opacity:1" />
  <path
     style="opacity:1;fill:#ffccaa;fill-opacity:1;stroke:none;stroke-width:1px;stroke-linecap:butt;stroke-linejoin:miter;stroke-opacity:1;stop-opacity:1"
     d="m 2044.7518,692.3069 -88.6072,112.7727 h 205.4075 z"
     id="path952"
     inkscape:connector-curvature="0" />
  <path
     sodipodi:nodetypes="ccccc"
     inkscape:connector-curvature="0"
     id="path895"
     d="M 2479.1433,906.3097 H 339.5293 l 99.0395,-113.21025 h 2160.4428 z"
     style="opacity:1;fill:#ffccaa;fill-opacity:1;stroke:none;stroke-width:1px;stroke-linecap:butt;stroke-linejoin:miter;stroke-opacity:1;stop-opacity:1" />
  <path
     sodipodi:nodetypes="cczcczc"
     inkscape:connector-curvature="0"
     id="path899"
     d="m 2444.7828,510.7398 -9.3023,-10.148 c 0,0 -183.1173,128.3183 -263.4753,196.7862 -80.3579,68.46783 124.727,208.11659 327.1381,208.9317 l 119.8683,-113.21025 c -266.0937,0.74746 -373.8372,-115.37085 -320.529,-168.19465 53.3082,-52.8238 97.5335,-76.11 146.3002,-114.165 z"
     style="opacity:1;fill:#ffccaa;fill-opacity:1;stroke:none;stroke-width:1px;stroke-linecap:butt;stroke-linejoin:miter;stroke-opacity:1;stop-opacity:1" />
  <path
     style="opacity:1;fill:#ffccaa;fill-opacity:1;stroke:none;stroke-width:1px;stroke-linecap:butt;stroke-linejoin:miter;stroke-opacity:1;stop-opacity:1"
     d="m 342.3004,1117.918 -262.7711,0.3917 139.03951,-113.2102 H 359.0116 c 127.6127,-0.2088 161.0623,82.7153 160,182.9674 l -117.08716,-2.7604 c -0.008,-28.006 1.19789,-66.8618 -59.62404,-67.3885 z"
     id="path925"
     inkscape:connector-curvature="0"
     sodipodi:nodetypes="ccccccc" />
  <path
     sodipodi:nodetypes="cccccc"
     inkscape:connector-curvature="0"
     id="path927"
     d="M 500.249,1290.3097 H -60.4707 L 38.56881,1177.0995 H 519.0116 l 0.1104,94.9297 c -0.8237,15.9573 -8.911,18.2805 -18.873,18.2805 z"
     style="opacity:1;fill:#ffccaa;fill-opacity:1;stroke:none;stroke-width:1px;stroke-linecap:butt;stroke-linejoin:miter;stroke-opacity:1;stop-opacity:1" />
  <path
     style="color:#000000;font-style:normal;font-variant:normal;font-weight:normal;font-stretch:normal;font-size:medium;line-height:normal;font-family:sans-serif;font-variant-ligatures:normal;font-variant-position:normal;font-variant-caps:normal;font-variant-numeric:normal;font-variant-alternates:normal;font-variant-east-asian:normal;font-feature-settings:normal;font-variation-settings:normal;text-indent:0;text-align:start;text-decoration:none;text-decoration-line:none;text-decoration-style:solid;text-decoration-color:#000000;letter-spacing:normal;word-spacing:normal;text-transform:none;writing-mode:lr-tb;direction:ltr;text-orientation:mixed;dominant-baseline:auto;baseline-shift:baseline;text-anchor:start;white-space:normal;shape-padding:0;shape-margin:0;inline-size:0;clip-rule:nonzero;display:inline;overflow:visible;visibility:visible;opacity:1;isolation:auto;mix-blend-mode:normal;color-interpolation:sRGB;color-interpolation-filters:linearRGB;solid-color:#000000;solid-opacity:1;vector-effect:none;fill:#ffccaa;fill-opacity:1;fill-rule:nonzero;stroke:none;stroke-width:113;stroke-linecap:round;stroke-linejoin:round;stroke-miterlimit:4;stroke-dasharray:none;stroke-dashoffset:0;stroke-opacity:1;paint-order:markers stroke fill;color-rendering:auto;image-rendering:auto;shape-rendering:auto;text-rendering:auto;enable-background:accumulate;stop-color:#000000;stop-opacity:1"
     d="m 308.21094,609.1152 c -81.45166,0 -148.6934,67.2398 -148.69336,148.6914 2e-5,81.45166 67.24174,148.6934 148.69336,148.6934 81.45161,0 148.69333,-67.24175 148.69336,-148.6934 4e-5,-81.4516 -67.24171,-148.6914 -148.69336,-148.6914 z m 0,113 c 20.3819,0 35.69337,15.3095 35.69336,35.6914 -10e-6,20.38193 -15.31147,35.6934 -35.69336,35.6934 -20.3819,0 -35.69336,-15.31147 -35.69336,-35.6934 -1e-5,-20.3819 15.31145,-35.6914 35.69336,-35.6914 z"
     id="path934"
     inkscape:connector-curvature="0" />
  <path
     id="rect936"
     style="opacity:1;fill:#ffccaa;fill-opacity:1;stroke:none;stroke-width:158.896;stroke-linecap:round;stroke-linejoin:round;stroke-miterlimit:4;stroke-dasharray:none;stroke-opacity:1;paint-order:markers stroke fill;stop-opacity:1"
     d="m 409.64919,834.28434 -0.45384,15.69702 -4.5431,20.78719 -275.15922,237.64745 -18.49734,5.3622 -21.93886,-2.6071 z"
     inkscape:connector-curvature="0"
     sodipodi:nodetypes="ccccccc" />
  <path
     inkscape:connector-curvature="0"
     id="path954"
     d="m 1862.7518,692.3069 -88.6072,112.7727 h 205.4075 z"
     style="opacity:1;fill:#ffccaa;fill-opacity:1;stroke:none;stroke-width:1px;stroke-linecap:butt;stroke-linejoin:miter;stroke-opacity:1;stop-opacity:1" />
  <g
     id="g1022">
    <path
       inkscape:connector-curvature="0"
       id="path839"
       d="m 1300,2650 c 56,0 100,-44 100,-100 0,-56 -44,-100 -100,-100 -56,0 -100,44 -100,100 0,56 44,100 100,100 z m 300,0 c 56,0 100,-44 100,-100 0,-56 -44,-100 -100,-100 -56,0 -100,44 -100,100 0,56 44,100 100,100 z"
       style="opacity:1;fill:#ff8080;fill-opacity:1;stop-opacity:1" />
    <path
       style="opacity:1;fill:#ff8080;stop-opacity:1"
       inkscape:connector-curvature="0"
       id="path833"
       d="m -12,2650 c 218,0 262,-142 262,-300 V 2250 H 50 v 100 c 2,84 2,268 -200,270 30,18 92,30 138,30 z M 350,2250 H 550 V 1850 H 350 Z M 50,2350 H 550 V 2150 H 50 Z m 300,-480 h 200 v -120 c -46,60 -118,100 -200,100 z m -100,300 v -20 c 0,-56 44,-100 100,-100 h 20 v -200 h -20 c -166,0 -300,134 -300,300 v 20 z" />
    <path
       style="opacity:1;fill:#ff8080;stop-opacity:1"
       id="path843"
       d="m 2332,2650 c 120,0 218,-98 218,-216 v -284 h -200 v 300 c 0,70 -54,124 -124,124 -30,0 -54,-8 -76,-24 40,60 106,100 182,100 z m 218,-460 v -340 c -46,116 -170,200 -300,200 0,0 100,0 100,100 v 40 z"
       inkscape:connector-curvature="0" />
    <g
       id="g1010">
      <path
         d="m 1450,1350 c -198,0 -300,174 -300,400 0,124 50,250 128,356 62,-24 116,-66 160,-120 -58,-76 -88,-166 -88,-236 0,-140 36,-200 100,-200 44,0 74,28 88,88 78,14 150,44 212,88 -8,-214 -110,-376 -300,-376 z m 0,300 c -24,0 -48,2 -72,6 -6,24 -8,56 -8,94 0,32 8,70 20,106 20,-4 40,-6 60,-6 166,0 300,134 300,300 -44,0 -84,-8 -122,-20 -46,60 -100,110 -158,150 74,44 156,70 240,70 h 240 v -200 c 0,-276 -224,-500 -500,-500 z m -320,116 c -110,92 -180,230 -180,384 H 750 v 200 h 200 8 232 c 202,0 400,-154 498,-350 -38,-58 -96,-102 -166,-120 -52,132 -182,270 -372,270 0,-54 14,-106 40,-150 -36,-78 -58,-158 -60,-234 z"
         id="path837"
         inkscape:connector-curvature="0"
         style="opacity:1;fill:#ff8080;stop-opacity:1" />
      <path
         d="m 1850,2350 h 400 v -500 h -200 v 300 h -200 z m 400,-460 v -340 c -46,116 -170,200 -300,200 0,0 100,0 100,100 v 40 z"
         id="path841"
         inkscape:connector-curvature="0"
         style="opacity:1;fill:#ff8080;stop-opacity:1" />
      <path
         id="path979"
         d="m 1710,50 c -84,0 -166,26 -240,70 58,40 112,90 158,150 38,-12 78,-20 122,-20 0,166 -134,300 -300,300 -20,0 -40,-2 -60,-6 -12,36 -20,74 -20,106 0,38 2,70 8,94 24,4 48,6 72,6 276,0 500,-224 500,-500 h 168 V 50 h -168 -40 z"
         style="opacity:1;fill:#ff8080;stop-opacity:1"
         inkscape:connector-curvature="0" />
      <path
         sodipodi:nodetypes="ccccc"
         inkscape:connector-curvature="0"
         id="path835"
         d="M 850,2350 V 50 H 650 v 2300 z"
         style="opacity:1;fill:#ff8080;stop-opacity:1" />
      <path
         id="path864"
         d="m 750,50 v 200 h 200 c 0,154 70,292 180,384 2,-76 24,-156 60,-234 -26,-44 -40,-96 -40,-150 190,0 320,138 372,270 70,-18 128,-62 166,-120 C 1590,204 1392,50 1190,50 h -232 -8 z"
         style="opacity:1;fill:#ff8080;stop-opacity:1"
         inkscape:connector-curvature="0" />
      <path
         id="path981"
         d="m 1278,294 c -78,106 -128,232 -128,356 0,226 102,400 300,400 190,0 292,-162 300,-376 -62,44 -134,74 -212,88 -14,60 -44,88 -88,88 -64,0 -100,-60 -100,-200 0,-70 30,-160 88,-236 -44,-54 -98,-96 -160,-120 z"
         style="opacity:1;fill:#ff8080;stop-opacity:1"
         inkscape:connector-curvature="0" />
    </g>
  </g>
  <path
     style="opacity:1;fill:#ffccaa;fill-opacity:1;stroke:none;stroke-width:1px;stroke-linecap:butt;stroke-linejoin:miter;stroke-opacity:1;stop-opacity:1"
     d="m 1682.7518,692.3069 -88.6072,112.7727 h 205.4075 z"
     id="path956"
     inkscape:connector-curvature="0" />
  <path
     sodipodi:nodetypes="cccccc"
     inkscape:connector-curvature="0"
     d="m 1452.1348,793.4834 h 390.4269 v 112.88206 l -152.2355,-1.03562 -234.0489,-54.8876 z"
     style="fill:#ffccaa;fill-opacity:1;stroke:none;stroke-width:113;stroke-linecap:round;stroke-linejoin:round;stroke-miterlimit:4;stroke-dasharray:none;stroke-opacity:1;paint-order:markers stroke fill"
     id="rect994" />
</svg>
