<?xml version="1.0" encoding="UTF-8" standalone="no"?>
<svg
   xmlns:dc="http://purl.org/dc/elements/1.1/"
   xmlns:cc="http://creativecommons.org/ns#"
   xmlns:rdf="http://www.w3.org/1999/02/22-rdf-syntax-ns#"
   xmlns:svg="http://www.w3.org/2000/svg"
   xmlns="http://www.w3.org/2000/svg"
   xmlns:xlink="http://www.w3.org/1999/xlink"
   xmlns:sodipodi="http://sodipodi.sourceforge.net/DTD/sodipodi-0.dtd"
   xmlns:inkscape="http://www.inkscape.org/namespaces/inkscape"
   shape-rendering="crispEdges"
   version="1.1"
   width="26010.83"
   height="26010.83"
   viewBox="-500 -500 26010.83 26010.83"
   id="svg188"
   sodipodi:docname="document-19.svg"
   inkscape:version="1.0 (4035a4f, 2020-05-01)"
   inkscape:export-filename="/Users/khaled/Downloads/document-19-l.png"
   inkscape:export-xdpi="29.526163"
   inkscape:export-ydpi="29.526163">
  <metadata
     id="metadata194">
    <rdf:RDF>
      <cc:Work
         rdf:about="">
        <dc:format>image/svg+xml</dc:format>
        <dc:type
           rdf:resource="http://purl.org/dc/dcmitype/StillImage" />
        <dc:title></dc:title>
      </cc:Work>
    </rdf:RDF>
  </metadata>
  <defs
     id="defs192">
    <linearGradient
       inkscape:collect="always"
       id="linearGradient1555">
      <stop
         id="stop1553"
         offset="0"
         style="stop-color:#795009;stop-opacity:0;" />
      <stop
         id="stop1551"
         offset="1"
         style="stop-color:#795009;stop-opacity:1;" />
    </linearGradient>
    <linearGradient
       inkscape:collect="always"
       xlink:href="#linearGradient1555"
       id="linearGradient1557"
       x1="1364.7427"
       y1="21457.402"
       x2="20128.743"
       y2="21457.402"
       gradientUnits="userSpaceOnUse" />
  </defs>
  <sodipodi:namedview
     inkscape:document-rotation="0"
     pagecolor="#d2953c"
     bordercolor="#666666"
     borderopacity="1"
     objecttolerance="10"
     gridtolerance="10"
     guidetolerance="10"
     inkscape:pageopacity="1"
     inkscape:pageshadow="2"
     inkscape:window-width="2048"
     inkscape:window-height="1081"
     id="namedview190"
     showgrid="false"
     inkscape:zoom="0.039175989"
     inkscape:cx="13005.415"
     inkscape:cy="13005.415"
     inkscape:window-x="0"
     inkscape:window-y="23"
     inkscape:window-maximized="1"
     inkscape:current-layer="svg188"
     fit-margin-top="0"
     fit-margin-left="0"
     fit-margin-right="0"
     fit-margin-bottom="0"
     showguides="true"
     inkscape:guide-bbox="true" />
  <rect
     y="19607.402"
     x="1364.7427"
     height="3700"
     width="18764"
     id="rect1515-6"
     style="fill:url(#linearGradient1557);fill-opacity:1;stroke-width:39.7683;stroke-linejoin:round;paint-order:stroke fill markers"
     inkscape:export-xdpi="72"
     inkscape:export-ydpi="72" />
  <path
     d=""
     id="path162"
     style="fill:#d2953c;fill-opacity:1" />
  <path
     d=""
     id="path178"
     style="fill:#d2953c;fill-opacity:1" />
  <g
     id="g1537"
     style="fill:#ff6d00;fill-opacity:1"
     transform="translate(1864.7427,20107.402)"
     inkscape:export-xdpi="72"
     inkscape:export-ydpi="72">
    <path
       id="path164"
       d="m 100,0 c 56,0 100,-44 100,-100 0,-56 -44,-100 -100,-100 C 44,-200 0,-156 0,-100 0,-44 44,0 100,0 Z m 300,0 c 56,0 100,-44 100,-100 0,-56 -44,-100 -100,-100 -56,0 -100,44 -100,100 0,56 44,100 100,100 z"
       style="fill:#ff6d00;fill-opacity:1"
       transform="translate(11814,1400)" />
    <path
       id="path168"
       d="m 100,0 c 56,0 100,-44 100,-100 0,-56 -44,-100 -100,-100 C 44,-200 0,-156 0,-100 0,-44 44,0 100,0 Z m 300,0 c 56,0 100,-44 100,-100 0,-56 -44,-100 -100,-100 -56,0 -100,44 -100,100 0,56 44,100 100,100 z"
       style="fill:#ff6d00;fill-opacity:1"
       transform="translate(12864,1400)" />
    <path
       id="path182"
       d="m 15814.397,1400 c 56,0 100,-44 100,-100 0,-56 -44,-100 -100,-100 -56,0 -100,44 -100,100 0,56 44,100 100,100 z"
       style="fill:#ff6d00;fill-opacity:1" />
    <path
       id="path150"
       d="m 1497.3859,1400 c 56,0 100,-44 100,-100 0,-56 -44,-100 -100,-100 -56,0 -100,44 -100,100 0,56 44,100 100,100 z"
       style="fill:#ff6d00;fill-opacity:1" />
    <path
       id="path156"
       d="m 3098.2784,2700 c 56,0 100,-44 100,-100 0,-56 -44,-100 -100,-100 -56,0 -100,44 -100,100 0,56 44,100 100,100 z m 300,0 c 56,0 100,-44 100,-100 0,-56 -44,-100 -100,-100 -56,0 -100,44 -100,100 0,56 44,100 100,100 z"
       style="fill:#ff6d00;fill-opacity:1" />
  </g>
  <path
     style="fill:#d8a54c;fill-opacity:1"
     id="path160"
     d="m 5313.0211,22507.402 h 199.9998 v -632 c 0,0 100,0 100,100 v 532 h 200 v -700 c 0,0 100,0 100,100 v 600 h 200 v -800 c -272,108 -634,194 -899.9998,200 0,0 100,0 100,100 z m -200,0 h 999.9998 v -200 h -999.9998 z m -300,0 h 400 v -500 h -200 v 300 h -200 z m 400,-460 v -340 c -46,116 -170,200 -300,200 0,0 100,0 100,100 v 40 z m -800,410 h 20 v -200 h -20 z m -200,50 h 700 v -200 h -700 z m 680,0 h 120 c -60,-46 -100,-118 -100,-200 v -50 h -20 z m -230,-200 c -28,0 -50,-22 -50,-50 0,-28 22,-50 50,-50 28,0 50,22 50,50 0,28 -22,50 -50,50 z m -250,-50 c 0,138 112,250 250,250 138,0 250,-112 250,-250 0,-26 -2,-54 -18,-104 -38,-122 -168,-212 -232,-246 0,52 -56,104 -84,114 -96,34 -166,128 -166,236 z m -1699.9999,250 h 199.9999 v -500 h -199.9999 z m -200,-200 v 200 h 240 v -200 z m 200,200 h 1599.9999 v -200 H 2713.0212 Z m 1399.9999,0 h 200 v -500 h -200 z m -1399.9999,-500 v 200 h 1299.9999 v -200 z m 1349.9999,-300 c -140,0 -250,114 -250,252 v 88 h 200 v -92 c 0,-26 22,-48 50,-48 28,0 50,22 50,48 v 92 h 200 v -88 c 0,-138 -112,-252 -250,-252 z m -1150,340 v -340 c -45.9999,116 -169.9999,200 -299.9999,200 0,0 100,0 100,100 v 40 z m -778.2784,-596 c -10,74 -52,146 -122,186 -148,74 -188,266 -108,410 l 10,18 426,742 h 2555.3398 c -15.4408,-10.298 -28.4737,-24.225 -37.58,-40.406 -14.8193,-26.082 -19.0754,-57.768 -12.4297,-86.955 5.9461,-26.628 21.452,-50.999 43.0586,-67.66 2.2454,-1.749 4.5583,-3.406 6.9258,-4.979 H 2456.7427 l -382,-660 c -26,-48 -14,-114 36,-136 l 1.5859,-0.72 400.4141,696.72 h 116 v -200 l -434.209,-751.879 0.209,-0.121 z m 2895.2266,1156 c 16.2143,10.82 29.7653,25.65 38.9277,42.866 11.5896,21.649 16.0947,46.887 13.3164,71.246 -2.1397,19.324 -9.0716,38.101 -20.0664,54.14 -8.5404,12.532 -19.5536,23.347 -32.1719,31.748 h 166.1074 c -15.4408,-10.298 -28.4737,-24.225 -37.58,-40.406 -14.8193,-26.082 -19.0754,-57.768 -12.4297,-86.955 5.9461,-26.628 21.452,-50.999 43.0586,-67.66 2.2454,-1.749 4.5583,-3.406 6.9258,-4.979 z m 300,0 c 16.2143,10.82 29.7653,25.65 38.9277,42.866 11.5896,21.649 16.0947,46.887 13.3164,71.246 -2.1397,19.324 -9.0716,38.101 -20.0664,54.14 -8.5404,12.532 -19.5536,23.347 -32.1719,31.748 h 9816.7679 c 38.764,-60.915 65.064,-127.584 82.229,-200 z"
     inkscape:export-xdpi="72"
     inkscape:export-ydpi="72" />
  <path
     style="fill:#d8a54c;fill-opacity:1"
     id="path170"
     d="m 14528.743,22507.402 h 700 v -200 h -700 z m 500,0 h 200 v -400 h -200 z m 0,-400 h 200 v -400 h -200 z m -300,100 h 500 v -200 h -500 z m 300,-480 h 200 v -120 c -46,60 -118,100 -200,100 z m -100,300 v -20 c 0,-56 44,-100 100,-100 h 20 v -200 h -20 c -166,0 -300,134 -300,300 v 20 z m -1600,480 h 1300 v -500 h -200 v 300 h -1100 z m 40,0 v -200 h -40 c -100,0 -100,-100 -100,-100 0,130 -84,254 -200,300 z m 1260,-460 v -340 c -46,116 -170,200 -300,200 0,0 100,0 100,100 v 40 z"
     inkscape:export-xdpi="72"
     inkscape:export-ydpi="72" />
  <path
     style="fill:#d8a54c;fill-opacity:1"
     id="path174"
     d="m 16128.743,22507.402 v -2000 h -200 v 2000 z m 0,-1960 v -440 c -60,136 -170,240 -300,300 6,0 100,2 100,100 v 40 z m -400,1760 v 200 h 240 v -200 z m -198,-50 c 0,-28 22,-50 50,-50 28,0 50,22 50,50 0,28 -22,50 -50,50 -28,0 -50,-22 -50,-50 z m -302,550 h 252 c 154,0 282,-98 332,-236 24,-66 38,-140 38,-220 0,-206 -110,-320 -270,-444 0,52 -56,102 -84,114 -94,40 -166,128 -166,236 0,138 112,250 250,250 18,0 36,-2 54,-6 -20,60 -86,106 -152,106 -72,0 -130,-42 -154,-100 -14,112 -44,212 -100,300 z"
     inkscape:export-xdpi="72"
     inkscape:export-ydpi="72" />
  <path
     style="fill:#d8a54c;fill-opacity:1"
     d="m 16228.743,22507.402 h 200 v -2000 h -200 z m 0,-1960 h 200 v -40 c 0,-98 94,-100 100,-100 -130,-60 -240,-164 -300,-300 z m 160,1960 h 340 c -116,-46 -200,-170 -200,-300 0,0 0,100 -100,100 h -40 z"
     id="path176"
     inkscape:export-xdpi="72"
     inkscape:export-ydpi="72" />
  <path
     style="fill:#d8a54c;fill-opacity:1"
     d="m 16928.743,22507.402 v -2000 h -200 v 2000 z m 0,-1960 v -440 c -60,136 -170,240 -300,300 6,0 100,2 100,100 v 40 z"
     id="path180"
     inkscape:export-xdpi="72"
     inkscape:export-ydpi="72" />
  <path
     style="fill:#d8a54c;fill-opacity:1"
     id="path186"
     d="m 18948.743,22507.402 h -20 v -200 h 20 z m 80,0 h 200 v -626 h -200 z m 600,0 c -60,-46 -100,-118 -100,-200 h -20 v 200 z m -1100,0 h 1000 v -200 h -1000 z m 500,-200 v -20 h 200 v 20 z m 200,200 v 20 h -200 v -20 z m 20,-360 c 48,36 80,94 80,160 0,30 -6,56 -18,82 l 210,-4 c 6,-26 8,-52 8,-78 0,-178 -118,-330 -280,-382 z m -520,360 h 200 v -200 c 0,-66 32,-124 80,-160 v -222 c -162,52 -280,204 -280,382 z m 500,-592 v -208 c 0,-84 -42,-124 -122,-124 h -158 c 14,50 14,150 0,200 60,0 80,20 80,78 v 54 z m -250,892 c 138,0 250,-114 250,-252 v -88 h -200 v 92 c 0,26 -22,48 -50,48 -28,0 -50,-22 -50,-48 v -92 h -200 v 88 c 0,138 110,252 250,252 z m -1950,-300 h 1600 v -200 h -1600 z m 1400,0 h 200 v -500 h -200 z m -1400,-500 v 200 h 1300 v -200 z m 1350,-300 c -140,0 -250,114 -250,252 v 88 h 200 v -92 c 0,-26 22,-48 50,-48 28,0 50,22 50,48 v 92 h 200 v -88 c 0,-138 -112,-252 -250,-252 z m -1350,400 h 200 v -1600 h -200 z m 0,-1560 h 200 v -40 c 0,-98 94,-100 100,-100 -130,-60 -240,-164 -300,-300 z m 0,1920 v 340 c 46,-116 170,-200 300,-200 0,0 -100,0 -100,-100 v -40 z"
     inkscape:export-xdpi="72"
     inkscape:export-ydpi="72" />
  <path
     id="path1660"
     style="fill:#d8a54c;fill-opacity:1;stroke-width:0.151937"
     d="m 18183.728,22603.349 -24.311,6.078 v 142.82 h -6.078 -6.988 c -4.558,-28.868 -22.183,-33.426 -33.73,-33.426 h -99.063 l 8.205,-21.271 h -0.912 l -24.311,42.543 h 113.041 c 6.686,0 12.157,5.469 12.157,12.154 h -132.491 l -12.154,21.272 h 176.246 6.078 12.764 c 6.989,0 11.547,-4.56 11.547,-12.157 z m 36.465,0 -24.311,6.078 v 151.935 c 0,7.597 4.558,12.157 11.547,12.157 h 18.84 6.078 96.936 l 12.459,-21.272 h -41.631 c -17.625,0 -36.161,-19.752 -54.697,-42.543 l -13.067,21.272 c 5.774,8.508 14.282,17.321 18.84,21.271 h -18.84 -6.078 -3.037 c -2.127,0 -3.039,-0.912 -3.039,-3.039 z m -474.072,70.234 -24.252,6.244 v 5.733 l 24.304,-6.036 z m 0.03,17.889 -24.309,6.078 v 54.697 h -6.078 -3.342 c -2.735,0 -4.255,-1.519 -5.471,-2.734 l -19.447,-19.45 c -15.194,-15.193 -28.564,30.085 -28.564,44.975 0,25.829 17.32,31.603 39.806,31.906 h 612.17 l 12.459,-21.271 h -616.119 c -9.724,0 -16.409,-0.911 -23.398,-7.901 l -9.42,-9.419 c -5.166,-5.166 -2.432,-19.448 1.822,-15.194 l 15.803,15.801 c 3.039,3.039 5.773,4.559 9.42,4.559 h 14.281 6.078 30.387 6.078 103.317 6.078 96.935 l 12.459,-21.272 h -41.631 c -17.624,0 -36.161,-19.752 -54.697,-42.543 l -13.066,21.272 c 5.773,8.508 14.281,17.321 18.84,21.271 h -18.84 c -6.686,0 -12.157,-5.469 -12.157,-12.154 v -48.621 l -24.308,6.078 v 54.697 c -6.685,0 -12.156,-5.469 -12.156,-12.154 v -39.504 l -24.309,6.078 v 45.58 c -6.685,0 -12.156,-5.469 -12.156,-12.154 v -30.389 l -24.309,6.078 v 36.465 c -6.685,0 -12.156,-5.469 -12.156,-12.154 z m 557.056,5.47 -14.281,24.006 5.166,3.039 14.281,-24.006 z"
     inkscape:export-xdpi="72"
     inkscape:export-ydpi="72" />
</svg>
