<?xml version="1.0" encoding="UTF-8" standalone="no"?>
<svg
   xmlns:dc="http://purl.org/dc/elements/1.1/"
   xmlns:cc="http://creativecommons.org/ns#"
   xmlns:rdf="http://www.w3.org/1999/02/22-rdf-syntax-ns#"
   xmlns:svg="http://www.w3.org/2000/svg"
   xmlns="http://www.w3.org/2000/svg"
   xmlns:sodipodi="http://sodipodi.sourceforge.net/DTD/sodipodi-0.dtd"
   xmlns:inkscape="http://www.inkscape.org/namespaces/inkscape"
   inkscape:version="1.0 (4035a4f, 2020-05-01)"
   sodipodi:docname="document-19.svg"
   id="svg855"
   viewBox="-500 -500 5574 2700"
   height="2700"
   width="5574"
   version="1.1">
  <metadata
     id="metadata861">
    <rdf:RDF>
      <cc:Work
         rdf:about="">
        <dc:format>image/svg+xml</dc:format>
        <dc:type
           rdf:resource="http://purl.org/dc/dcmitype/StillImage" />
      </cc:Work>
    </rdf:RDF>
  </metadata>
  <defs
     id="defs859" />
  <sodipodi:namedview
     inkscape:current-layer="svg855"
     inkscape:window-maximized="1"
     inkscape:window-y="23"
     inkscape:window-x="0"
     inkscape:cy="2353.4249"
     inkscape:cx="1017.2766"
     inkscape:zoom="0.13268229"
     showgrid="false"
     id="namedview857"
     inkscape:window-height="1081"
     inkscape:window-width="2048"
     inkscape:pageshadow="2"
     inkscape:pageopacity="0"
     guidetolerance="10"
     gridtolerance="10"
     objecttolerance="10"
     borderopacity="1"
     bordercolor="#666666"
     pagecolor="#ffffff" />
  <path
     sodipodi:nodetypes="cccssssssccssssc"
     id="path833"
     d="m 262,220 h 4020.6595 l 82,-140 H 318 C 254,80 210,74 164,28 L 102,-34 C 68,-68 86,-162 114,-134 l 104,104 c 20,20 38,30 62,30 h 134 v -140 h -62 c -18,0 -28,-10 -36,-18 L 188,-286 C 88,-386 0,-88 0,10 0,180 114,218 262,220 Z"
     transform="translate(0,1200)" />
  <path
     id="path837"
     d="M-40,0L240,0L240,-140C196,-140,160,-176,160,-220L160,-540L0,-500L0,-140L-40,-140L-40,0Z"
     transform="translate(414,1200)" />
  <path
     id="path839"
     d="M-40,0L720,0L720,-140C676,-140,640,-176,640,-220L640,-540L480,-500L480,-140C436,-140,400,-176,400,-220L400,-480L240,-440L240,-140C196,-140,160,-176,160,-220L160,-420L0,-380L0,-140L-40,-140L-40,0Z"
     transform="translate(654,1200)" />
  <path
     id="path841"
     d="M-40,0L638,0L720,-140L446,-140C330,-140,208,-270,86,-420L0,-280C38,-224,94,-166,124,-140L-40,-140L-40,0Z"
     transform="translate(1374,1200)" />
  <path
     id="path843"
     d=""
     transform="translate(2174,1200)" />
  <path
     id="path845"
     d="M0,0L1200,0L1200,-140L1114,-140C1084,-330,968,-360,892,-360L240,-360L294,-500L288,-500L128,-220L872,-220C916,-220,952,-184,952,-140L80,-140L0,0Z"
     transform="translate(2094,1200)" />
  <path
     id="path847"
     d="M-40,0L84,0C130,0,160,-30,160,-80L160,-1120L0,-1080L0,-140L-40,-140L-40,0Z"
     transform="translate(3294,1200)" />
  <path
     id="path849"
     d="M160,-160L160,-1120L0,-1080L0,-80C0,-30,30,0,76,0L240,0L240,-140L180,-140C166,-140,160,-146,160,-160Z"
     transform="translate(3534,1200)" />
  <path
     id="path851"
     d="m 4172,874 94,-158 -34,-20 -94,158 z" />
  <path
     id="path853"
     d="M-40,0L638,0L720,-140L446,-140C330,-140,208,-270,86,-420L0,-280C38,-224,94,-166,124,-140L-40,-140L-40,0Z"
     transform="translate(3774,1200)" />
  <path
     sodipodi:nodetypes="ccccc"
     id="path887"
     d="m 574,580 v -40 l -160,40 v 40 z"
     style="fill:#000000;fill-opacity:1" />
</svg>
