<?xml version="1.0" encoding="UTF-8" standalone="no"?>
<svg
   xmlns:dc="http://purl.org/dc/elements/1.1/"
   xmlns:cc="http://creativecommons.org/ns#"
   xmlns:rdf="http://www.w3.org/1999/02/22-rdf-syntax-ns#"
   xmlns:svg="http://www.w3.org/2000/svg"
   xmlns="http://www.w3.org/2000/svg"
   xmlns:sodipodi="http://sodipodi.sourceforge.net/DTD/sodipodi-0.dtd"
   xmlns:inkscape="http://www.inkscape.org/namespaces/inkscape"
   inkscape:export-ydpi="36.006367"
   inkscape:export-xdpi="36.006367"
   inkscape:version="1.0 (4035a4f, 2020-05-01)"
   id="svg867"
   viewBox="-500 -500 5479.0307 5732.1812"
   height="5732.1812"
   width="5479.0308"
   version="1.1">
  <metadata
     id="metadata873">
    <rdf:RDF>
      <cc:Work
         rdf:about="">
        <dc:format>image/svg+xml</dc:format>
        <dc:type
           rdf:resource="http://purl.org/dc/dcmitype/StillImage" />
        <dc:title></dc:title>
      </cc:Work>
    </rdf:RDF>
  </metadata>
  <defs
     id="defs871" />
  <sodipodi:namedview
     inkscape:guide-bbox="true"
     showguides="true"
     inkscape:current-layer="svg867"
     inkscape:window-maximized="1"
     inkscape:window-y="23"
     inkscape:window-x="0"
     inkscape:cy="2588.2759"
     inkscape:cx="1993.7966"
     inkscape:zoom="0.085294756"
     fit-margin-bottom="1500"
     fit-margin-right="1500"
     fit-margin-left="1500"
     fit-margin-top="1500"
     lock-margins="true"
     showgrid="false"
     id="namedview869"
     inkscape:window-height="1081"
     inkscape:window-width="2048"
     inkscape:pageshadow="2"
     inkscape:pageopacity="0"
     guidetolerance="10"
     gridtolerance="10"
     objecttolerance="10"
     borderopacity="1"
     bordercolor="#666666"
     pagecolor="#ffffff" />
  <path
     sodipodi:nodetypes="ccccccscscc"
     d="m 1860.859,3037.999 v 312 h 160 v -312 z m 4.488,472 c 27.634,150.233 165.288,222.182 311.512,222.182 120,0 246,-48 324,-140 -56,24 -144,44 -230,44 -108.369,0 -212.425,-31.548 -241.797,-126.182 z"
     id="path890" />
  <path
     sodipodi:nodetypes="ccccc"
     id="path880"
     d="m 1860.859,2290 v 588 h 160 v -588 z" />
  <path
     sodipodi:nodetypes="ccccc"
     id="path835"
     d="m 2020.859,1120 -160,40 v 970 h 160 z" />
  <path
     id="path837"
     d="m 2399.031,3500 h 678 c 12,0 42,0 42,-42 0,-278 -136,-370 -472,-388 l -120,210 h 344 c 44,0 80,36 80,80 h -472 z" />
  <path
     id="path839"
     d="" />
  <path
     id="path841"
     d="m 3319.031,3340 v -960 l -160,40 v 920 c 0,100 74,160 154,160 60,0 122,-32 166,-100 -18,8 -42,14 -66,14 -48,0 -94,-22 -94,-74 z" />
  <path
     id="path843"
     d="" />
  <path
     sodipodi:nodetypes="cccssssssccssssc"
     id="path845"
     d="m 1575.031,3028 h 1342.505 l 82,-140 H 1631.031 c -64,0 -108,-6 -154,-52 l -62,-62 c -34,-34 -16,-128 12,-100 l 104,104 c 20,20 38,30 62,30 h 242 v -140 h -170 c -18,0 -28,-10 -36,-18 l -128,-128 c -100,-100 -188,198 -188,296 0,170 114,208 262,210 z" />
  <path
     sodipodi:nodetypes="cccccccccc"
     d="m 1755.34,2668 v 140 h 95.519 v -140 z m 275.519,0 v 140 H 2260 v -140 z"
     id="path847" />
  <path
     id="path849"
     d="" />
  <path
     sodipodi:nodetypes="cccsccccc"
     id="path851"
     d="m 2082,2808 h 280 v -140 c -44,0 -76.346,-36.152 -80,-80 v -240 l -160,40 v 280 h -40 z" />
  <path
     sodipodi:nodetypes="cccsccccc"
     id="path853"
     d="m 2220,2808 h 818 l 82,-140 h -294 c -116,0 -238,-130 -360,-280 l -86,140 c 38,56 94,114 124,140 h -284 z" />
  <path
     id="path855"
     d="" />
  <path
     sodipodi:nodetypes="ccccsssccsssss"
     id="path857"
     d="M 1253.057,2280 H 1880 v -140 h -122 c 0,-12 2,-26 2,-40 0,-100 -90,-180 -200,-180 -110,0 -200,80 -200,180 0,14 2,28 4,40 3.908,43.8909 -33.8796,110.1551 -110.943,140 z M 1560,2140 c -22,0 -40,-18 -40,-40 0,-22 18,-40 40,-40 22,0 40,18 40,40 0,22 -18,40 -40,40 z" />
  <path
     sodipodi:nodetypes="ccccccccc"
     id="path859"
     d="m 2340,2280 h 280 v -140 h -80 V 1000 l -160,40 v 1100 h -40 z" />
  <path
     sodipodi:nodetypes="cccccccccsccccccsc"
     transform="translate(-500,-500)"
     d="m 2780,1560 -160,40 v 960 h 250 v -140 h -90 z m 270,860 v 140 h 282 c 44,0 80,36 80,80 H 2247.4062 v 140 H 3660 v -140 h -86 c -30,-190 -146,-220 -222,-220 z"
     id="path861" />
  <path
     id="path863"
     d="" />
  <path
     sodipodi:nodetypes="cssccccc"
     id="path865"
     d="m 3120,2280 h 158 c 12,0 40.996,-0.02 42,-22 v -438 l -160,40 v 280 h -40 z" />
  <path
     sodipodi:nodetypes="csccccsssc"
     id="path899"
     d="m 2031.071,3280 h 93.96 c 44,0 80,36 80,80 h -1112 l -80,140 h 232 1086 c 12,0 42,0 42,-42 0,-278 -140,-318 -228,-318 h -114.614" />
  <path
     sodipodi:nodetypes="cccccc"
     id="path833"
     d="M 1850.417,3140 H 1253.031 V 1818.0647 l -160,40 V 3280 h 758.04" />
</svg>
