<?xml version="1.0" encoding="UTF-8" standalone="no"?>
<svg
   xmlns:dc="http://purl.org/dc/elements/1.1/"
   xmlns:cc="http://creativecommons.org/ns#"
   xmlns:rdf="http://www.w3.org/1999/02/22-rdf-syntax-ns#"
   xmlns:svg="http://www.w3.org/2000/svg"
   xmlns="http://www.w3.org/2000/svg"
   xmlns:sodipodi="http://sodipodi.sourceforge.net/DTD/sodipodi-0.dtd"
   xmlns:inkscape="http://www.inkscape.org/namespaces/inkscape"
   inkscape:version="1.0beta1 (32d4812, 2019-09-19)"
   sodipodi:docname="tawhid2.svg"
   viewBox="0 0 755.90551 755.90551"
   height="200mm"
   width="200mm"
   id="svg833"
   version="1.1">
  <metadata
     id="metadata839">
    <rdf:RDF>
      <cc:Work
         rdf:about="">
        <dc:format>image/svg+xml</dc:format>
        <dc:type
           rdf:resource="http://purl.org/dc/dcmitype/StillImage" />
        <dc:title></dc:title>
      </cc:Work>
    </rdf:RDF>
  </metadata>
  <defs
     id="defs837" />
  <sodipodi:namedview
     inkscape:current-layer="g841"
     inkscape:window-maximized="0"
     inkscape:window-y="23"
     inkscape:window-x="0"
     inkscape:cy="489.335"
     inkscape:cx="642.90528"
     inkscape:zoom="0.43092758"
     units="mm"
     inkscape:document-units="mm"
     showgrid="false"
     id="namedview835"
     inkscape:window-height="805"
     inkscape:window-width="1600"
     inkscape:pageshadow="2"
     inkscape:pageopacity="0"
     guidetolerance="10"
     gridtolerance="10"
     objecttolerance="10"
     borderopacity="1"
     inkscape:document-rotation="0"
     bordercolor="#666666"
     pagecolor="#ffffff" />
  <g
     id="g841"
     inkscape:label="Image"
     inkscape:groupmode="layer">
    <path
       inkscape:connector-curvature="0"
       d="M 0.859375,1.4394531 V 754.4668 l 93.628906,-93.48438 v -62.55664 h 20.998049 20.99609 V 115.48633 h -20.99609 v 461.9414 H 94.488281 V 94.488281 H 157.48047 V 598.08594 l 20.99805,-20.96485 V 94.488281 h 20.99609 V 556.15625 l 20.99805,-20.96484 V 94.488281 H 241.4707 V 514.22656 l 20.9961,-20.96484 V 94.488281 h 20.99804 V 472.29688 l 20.99805,-20.9668 V 94.488281 h 20.99609 V 430.36719 l 20.99805,-20.9668 V 94.488281 h 20.99609 V 388.4375 l 20.99805,-20.9668 V 94.488281 h 20.99805 V 346.50586 l 20.99609,-20.96484 V 94.488281 H 493.4375 V 262.64648 l 20.99805,-20.96679 V 94.488281 h 20.99804 V 220.71484 l 20.9961,-20.96289 V 94.488281 h 20.99804 v 84.296879 l 20.99805,-20.96485 V 94.488281 h 20.9961 v 42.367189 l 20.99804,-20.96485 V 94.488281 h 20.99805 v 0.435547 L 755.04688,1.4394531 Z M 451.44336,115.48633 v 189.08984 l 20.99805,-20.96679 V 115.48633 Z M 115.48633,619.42188 v 20.59374 l 20.62695,-20.59374 z"
       style="fill:#000000;fill-opacity:1;stroke:#000000;stroke-width:0.377953;stroke-linecap:round;stroke-linejoin:round;paint-order:markers stroke fill"
       id="rect867" />
    <path
       inkscape:connector-curvature="0"
       d="M 661.41797,94.923828 640.41992,115.89062 V 556.42969 H 619.42188 V 136.85547 l -20.9961,20.96484 v 419.60742 h 20.9961 v 20.99805 h -20.9961 v 62.99219 h 62.99219 v -62.99219 h -20.99805 v -20.99805 h 20.99805 z m -83.99024,83.861332 -20.99804,20.96679 v 461.66602 h 20.99804 z m -41.99414,41.92968 -20.99804,20.96485 V 640.41992 H 493.4375 V 262.64648 l -20.99609,20.9629 v 314.8164 h -20.99805 -20.99805 v 62.99219 h 104.98828 z m -83.99023,83.86133 -20.99805,20.96485 v 251.88671 h 20.99805 z m -41.99414,41.92969 -20.99805,20.96484 v 293.94727 h 20.99805 z m -41.9961,41.93164 -20.99609,20.96289 v 147.0293 h -20.99805 v -126.0625 l -20.99609,20.96289 v 126.09765 h 20.99609 v 20.99805 h -20.99609 v 62.99219 h 62.99023 v -62.99219 h -20.99609 v -20.99805 h 20.99609 z m -83.98828,83.85938 -20.99804,20.96484 v 168.15625 h 20.99804 z m -41.99414,41.92968 -20.99804,20.96485 v 105.22851 h -20.99805 v -84.26367 l -20.99609,20.96484 v 63.29883 h -20.99805 v -42.33398 l -21.36719,21.33594 h 0.36914 v 20.99804 h -20.99609 v -0.4043 l -20.998049,20.9668 v 0.43555 H 241.4707 Z m 83.98828,105.19532 h 20.99805 v 20.99804 h -20.99805 z m 125.98438,0 h 20.99805 v 20.99804 h -20.99805 z m 167.97852,0 h 20.99804 v 20.99804 h -20.99804 z"
       style="fill:#000000;stroke:#000000;stroke-width:0.377953;stroke-linecap:round;stroke-linejoin:round;paint-order:markers stroke fill;fill-opacity:1"
       id="rect877" />
  </g>
</svg>
