<svg xmlns="http://www.w3.org/2000/svg" width="140mm" height="140mm" viewBox="0 0 139.12 130.98">
    <path d="M96.71 10.24a174.3 174.3 0 0 1 3.15 7.44 13.34 13.34 0 0 1-2.13-1.75c-.16 1.2-.75 1.88-1.98 2.28-.05.47-.23 1-.29 1.49 3.78 7.4 7.83 14.67 11.4 22.17.38.36-.19.55-.36.8-2.4 2.5-5.22 4.48-8.08 6.4-.2-.74-.33-1.34-.53-2.03-.08.22-.14.43-.33.69a6 6 0 0 0 .14-1.34c-.2-.64-.47-1.4-.89-2.42l-1.5.87c.11 1.3.07 5.48-2.19 6.8a12 12 0 0 0-1.1-3.66l-1.48 1.29a11 11 0 0 1-1.5 5.5c-.1.19.1 1.06-.35.56a7.5 7.5 0 0 1-1.63 1.75c-4.3-4.28-7.6-2.41-9.69-.28-.84.88-1.7 2.3-2.37 3.28.7.04 1.75-.63 3.47-.44-1.87.7-3.38 1.74-4.94 2.74-2.5 5.17-3.17 11.16-3.1 16.44 1.33.96 3.47 1.85 4.91 2.4.31.13-1.1.18-4.77-.66.9 6.44 6.3 7.67 12 6.26-6 8.6-18.1 16.7-29.75 21.09.04.06.72.65.62.62-.37-.1-1.38-.3-1.98-.06-10.06 3.6-19.26 4.1-24.02-.2 2.45-10.2 7.95-17.11 13.57-22-.23-.15-.45-.2-.33-.21.6-.02.91-.28 1.08-.42a73.03 73.03 0 0 1 8.4-5.95 62.38 62.38 0 0 1 4.6-2.5c0-1.13-.3-3.58-.3-3.58L48.78 75l4.28-2.56.06-1.26 1.74-1.9.04-2.64C45.76 70.98 37.35 77.1 30.98 85c-.3.38-.66 2.18-.92 1.17a33.35 33.35 0 0 0-6.2 15c1.93-3.72 2.97-5.62 3.28-5.98.5-.58-1.34 2.7-3.55 8.64-.18 4.44.85 9.17 3.9 12.54a15.74 15.74 0 0 0 13.27 5.26c.95-.06 1.5-1.3 1.41-.06 6.33-.52 12.38-2.8 18.15-5.34 9.62-4.42 18.45-11.08 24.3-20l-6.83 3.85 8-5.83a24.8 24.8 0 0 0 2.13-4.55l-3.2 1.3 4.17-3.93a27.28 27.28 0 0 0 1.1-6.73 7.5 7.5 0 0 0-1.9-4.7l-1.86 1.3.9-1.83c-1.38-.68-2.94-.3-4.4-.01-2.55.49-6.67.95-9.16.35.9-3.96 2.8-6.92 4.73-8.22 1.24-.84 3.16-1.1 4.46-.31.81.02 1.48.14 2.94-.3-1.16.74-1.54.52-2.26.72 1.14.73 2.4 1.47 3.78 1.2 2.31-.47 3.87-2.46 5.2-4.24 1.5 1.24 3.81-1.9 4.42-3.16.1.4.27.79.48 1.15 3.8-3.15 7.96-5.98 11.1-9.84 1.21-1.6 2.12-3.4 2.72-5.3l-4.03 3.28 4.5-5.64c.22-1.08.3-1.03.34-2.13l-2.55 2.45 2.58-4.9a18.32 18.32 0 0 0-.34-2.47c-.65-3.93-2.43-7.53-4.34-10.98L97.12 7.17l-.4 3.07zm24.86 28.6l2.3 4.06-.05.6c-1.5 0-1.82-.03-2.83-.52-.43.1-.43.46-.5.9l15.25 28.5c.21.4.6.4.07-.85-.62-1.62-.97-3.7-.1-4.68 0 0 .98-.98.58-1.7-.58-1.04-.95-3.34.83-3.07.56.08.55-1.77.63-2.33-5.15-9.63-10.4-18.61-15.55-28.24-.27 2-.39 5.6-.63 7.33zM5.94 90.01c3.1-.65 8.4-2.5 8.55 2.63-1.65.34-3.65 1.1-5.06 2.16.9-.22 3.56-1.24 5.1-.9.06 2.86.05 4.58-.8 7.42-1.07 4.73-2.28 6.3-6.7 8.5-.95.47-3.02.88-3.36.83l-.28-1.31c1.9-1.48 6.18-6.08 6.86-8.53-6.93 1.52-7.44.28-8.67-3.03a11.21 11.21 0 0 1-.3-2.8c1.13.28 0 0 .1-1.42.2-1.4.6-2.77 1.07-4.2a61.03 61.03 0 0 1 4.17-10.03l1 .64c-.06.5-1.72 7.66-1.68 10.04zm73.07-64.12c-2-.03-3.3 1.78-4.24 3.42-1.6 2.86-3.52 14.2-3.23 18.4l.82 1.74 1.1-7.73-.83 8.33 1.15 2.47c.15-2.95.6-9.14 2.55-13.33.46-.93 1.3-2.11 2.48-1.9 1.44.33 2.3 1.65 3.52 2.38l1.76-1.06c.42-1.9.71-2.93.94-4.87l-2.38-2.18c.01-.6 1.16-.74 2.73-.41.1-.84.12-1.68.12-2.52-1.9-1.4-4.05-2.78-6.5-2.75z"/>
</svg>
