<?xml version="1.0" encoding="UTF-8" standalone="no"?>
<svg
   xmlns:dc="http://purl.org/dc/elements/1.1/"
   xmlns:cc="http://creativecommons.org/ns#"
   xmlns:rdf="http://www.w3.org/1999/02/22-rdf-syntax-ns#"
   xmlns:svg="http://www.w3.org/2000/svg"
   xmlns="http://www.w3.org/2000/svg"
   xmlns:xlink="http://www.w3.org/1999/xlink"
   xmlns:sodipodi="http://sodipodi.sourceforge.net/DTD/sodipodi-0.dtd"
   xmlns:inkscape="http://www.inkscape.org/namespaces/inkscape"
   inkscape:export-ydpi="200"
   inkscape:export-xdpi="200"
   inkscape:export-filename="وطني.png"
   version="1.1"
   id="svg833"
   xml:space="preserve"
   width="1122.6667"
   height="793.33331"
   viewBox="0 0 1122.6667 793.33331"
   sodipodi:docname="وطني.svg"
   inkscape:version="1.0 (4035a4f, 2020-05-01)"><metadata
     id="metadata839"><rdf:RDF><cc:Work
         rdf:about=""><dc:format>image/svg+xml</dc:format><dc:type
           rdf:resource="http://purl.org/dc/dcmitype/StillImage" /><dc:title /></cc:Work></rdf:RDF></metadata><defs
     id="defs837" /><sodipodi:namedview
     inkscape:document-rotation="0"
     pagecolor="#feeec9"
     bordercolor="#666666"
     borderopacity="1"
     objecttolerance="10"
     gridtolerance="10"
     guidetolerance="10"
     inkscape:pageopacity="1"
     inkscape:pageshadow="2"
     inkscape:window-width="1276"
     inkscape:window-height="765"
     id="namedview835"
     showgrid="false"
     inkscape:zoom="1.0892388"
     inkscape:cx="547.23197"
     inkscape:cy="394.12994"
     inkscape:window-x="0"
     inkscape:window-y="15"
     inkscape:window-maximized="0"
     inkscape:current-layer="layer2"
     showguides="true" /><g
     sodipodi:insensitive="true"
     inkscape:label="Signature"
     id="layer2"
     inkscape:groupmode="layer"><g
       transform="matrix(0.01941645,0,0,0.01941645,34.938321,731.34718)"
       id="g496"><path
         d="m 2657.1168,1840 h 4020.6595 l 82,-140 H 2713.1168 c -64,0 -108,-6 -154,-52 l -62,-62 c -34,-34 -16,-128 12,-100 l 104,104 c 20,20 38,30 62,30 h 134 v -140 h -62 c -18,0 -28,-10 -36,-18 l -128,-128 c -100,-100 -188,198 -188,296 0,170 114,208 262,210 z"
         id="path833-6"
         sodipodi:nodetypes="cccssssssccssssc" /><path
         d="m 2769.1168,1620 h 280 v -140 c -44,0 -80,-36 -80,-80 v -320 l -160,40 v 360 h -40 z"
         id="path837-0" /><path
         d="m 3009.1168,1620 h 760 v -140 c -44,0 -80,-36 -80,-80 v -320 l -160,40 v 360 c -44,0 -80,-36 -80,-80 v -260 l -160,40 v 300 c -44,0 -80,-36 -80,-80 v -200 l -160,40 v 240 h -40 z"
         id="path839-1" /><path
         d="m 3729.1168,1620 h 678 l 82,-140 h -274 c -116,0 -238,-130 -360,-280 l -86,140 c 38,56 94,114 124,140 h -164 z"
         id="path841-4" /><path
         d=""
         id="path843-8" /><path
         d="m 4489.1168,1620 h 1200 v -140 h -86 c -30,-190 -146,-220 -222,-220 h -652 l 54,-140 h -6 l -160,280 h 744 c 44,0 80,36 80,80 h -872 z"
         id="path845-3" /><path
         d="m 5649.1168,1620 h 124 c 46,0 76,-30 76,-80 V 500 l -160,40 v 940 h -40 z"
         id="path847-8" /><path
         d="M 6089.1168,1460 V 500 l -160,40 v 1000 c 0,50 30,80 76,80 h 164 v -140 h -60 c -14,0 -20,-6 -20,-20 z"
         id="path849-1" /><path
         d="m 6567.1168,1294 94,-158 -34,-20 -94,158 z"
         id="path851-5" /><path
         d="m 6129.1168,1620 h 678 l 82,-140 h -274 c -116,0 -238,-130 -360,-280 l -86,140 c 38,56 94,114 124,140 h -164 z"
         id="path853-2" /><path
         style="fill:#000000;fill-opacity:1"
         d="m 2969.1168,1000 v -40 l -160,40 v 40 z"
         id="path887-2"
         sodipodi:nodetypes="ccccc" /><path
         id="path405"
         d="M 215.02177,912.08399 V 1620 H 356.60503 V 912.08399 Z"
         style="stroke-width:1.01131" /><path
         id="path407"
         d="M 680.22378,912.08399 V 1195.2504 H 579.09283 V 912.08399 H 437.50969 V 1620 H 1064.5211 V 1478.4168 H 579.09283 V 1336.8336 H 1064.5211 V 1195.2504 H 821.80697 V 1053.6672 H 1064.5211 V 912.08399 Z"
         style="stroke-width:1.01131" /><path
         id="path409"
         d="M 1388.14,912.08399 V 1195.2504 H 1287.009 V 912.08399 H 1145.4258 V 1620 h 627.0113 V 1478.4168 H 1287.009 v -141.5832 h 485.4281 V 1195.2504 H 1529.723 v -141.5832 h 242.7141 V 912.08399 Z"
         style="stroke-width:1.01131" /><path
         id="path411"
         d="M 2136.5082,912.08399 V 1096.1422 H 1994.925 V 912.08399 H 1853.3418 V 1620 h 141.5832 v -382.2746 h 283.1663 V 912.08399 Z"
         style="stroke-width:1.01131" /></g></g><g
     sodipodi:insensitive="true"
     transform="matrix(0,1.3333333,1.3333333,0,0,0)"
     inkscape:label="Frame"
     inkscape:groupmode="layer"
     id="g1606"
     style="display:inline"><rect
       transform="matrix(0,1,1,0,0,0)"
       y="151.19078"
       x="135.23949"
       height="336.89447"
       width="601.8631"
       id="rect1512"
       style="fill:none;fill-opacity:1;stroke:#db0000;stroke-width:2.835;stroke-linejoin:miter;stroke-miterlimit:4;stroke-dasharray:none;stroke-opacity:1;paint-order:stroke fill markers" /><rect
       transform="matrix(0.70710678,0.70710678,0.70710678,-0.70710678,0,0)"
       y="-141.10242"
       x="274.15851"
       height="80.972099"
       width="80.972099"
       id="rect1598"
       style="fill:#db0000;fill-opacity:1;stroke:none;stroke-width:2.83465;stroke-linejoin:bevel;paint-order:stroke fill markers" /></g><g
     inkscape:groupmode="layer"
     id="g131"
     inkscape:label="Dots black"
     style="display:inline"
     sodipodi:insensitive="true"><g
       inkscape:groupmode="layer"
       id="layer1"
       inkscape:label="Dots yeh"
       style="display:inline"
       sodipodi:insensitive="true"><g
         style="display:inline;fill:#000000;fill-opacity:1;stroke:none"
         id="g532"
         transform="rotate(-44.918984,993.77647,504.30378)"><circle
           style="fill:#000000;fill-opacity:1;fill-rule:evenodd;stroke:none"
           id="circle528"
           cx="738.65894"
           cy="480.07452"
           r="4.3344536" /><circle
           r="4.3344536"
           cy="480.07452"
           cx="726.65894"
           id="circle530"
           style="fill:#000000;fill-opacity:1;fill-rule:evenodd;stroke:none" /></g><g
         transform="rotate(-44.918984,880.66231,777.93259)"
         id="g548"
         style="display:inline;fill:#000000;fill-opacity:1;stroke:none"><circle
           r="4.3344536"
           cy="480.07452"
           cx="738.65894"
           id="circle544"
           style="fill:#000000;fill-opacity:1;fill-rule:evenodd;stroke:none" /><circle
           style="fill:#000000;fill-opacity:1;fill-rule:evenodd;stroke:none"
           id="circle546"
           cx="726.65894"
           cy="480.07452"
           r="4.3344536" /></g><g
         style="display:inline;fill:#000000;fill-opacity:1;stroke:none"
         id="g554"
         transform="rotate(-44.918984,707.25668,1197.4098)"><circle
           style="fill:#000000;fill-opacity:1;fill-rule:evenodd;stroke:none"
           id="circle550"
           cx="738.65894"
           cy="480.07452"
           r="4.3344536" /><circle
           r="4.3344536"
           cy="480.07452"
           cx="726.65894"
           id="circle552"
           style="fill:#000000;fill-opacity:1;fill-rule:evenodd;stroke:none" /></g><g
         transform="matrix(1.3105445,-1.3068435,1.3068435,1.3105445,-1310.9491,851.58208)"
         id="g560"
         style="display:inline;fill:#000000;fill-opacity:1;stroke:none"><circle
           r="4.3344536"
           cy="480.07452"
           cx="738.65894"
           id="circle556"
           style="fill:#000000;fill-opacity:1;fill-rule:evenodd;stroke:none" /><circle
           style="fill:#000000;fill-opacity:1;fill-rule:evenodd;stroke:none"
           id="circle558"
           cx="726.65894"
           cy="480.07452"
           r="4.3344536" /></g></g><g
       id="g91"
       transform="translate(-16,6)"
       style="fill:#000000;fill-opacity:1;stroke:none"><circle
         r="4.3344536"
         cy="440.07452"
         cx="886.65894"
         id="circle85"
         style="fill:#000000;fill-opacity:1;fill-rule:evenodd;stroke:none" /><circle
         style="fill:#000000;fill-opacity:1;fill-rule:evenodd;stroke:none"
         id="circle87"
         cx="874.65894"
         cy="440.07452"
         r="4.3344536" /><circle
         r="4.3344536"
         cy="430.07452"
         cx="880.65894"
         id="circle89"
         style="fill:#000000;fill-opacity:1;fill-rule:evenodd;stroke:none" /></g><circle
       style="fill:#000000;fill-opacity:1;fill-rule:evenodd;stroke:none"
       id="circle93"
       cx="828.65894"
       cy="440.07452"
       r="4.3344536" /><g
       id="g99"
       style="fill:#000000;fill-opacity:1;stroke:none"><circle
         style="fill:#000000;fill-opacity:1;fill-rule:evenodd;stroke:none"
         id="circle95"
         cx="738.65894"
         cy="480.07452"
         r="4.3344536" /><circle
         r="4.3344536"
         cy="480.07452"
         cx="726.65894"
         id="circle97"
         style="fill:#000000;fill-opacity:1;fill-rule:evenodd;stroke:none" /></g><circle
       r="4.3344536"
       cy="456.07452"
       cx="604.65894"
       id="circle101"
       style="fill:#000000;fill-opacity:1;fill-rule:evenodd;stroke:none" /><circle
       style="fill:#000000;fill-opacity:1;fill-rule:evenodd;stroke:none"
       id="circle103"
       cx="447.3728"
       cy="456.07452"
       r="4.3344536" /><g
       transform="translate(104.40994,76)"
       id="g109"
       style="fill:#000000;fill-opacity:1;stroke:none"><circle
         r="4.3344536"
         cy="480.07452"
         cx="738.65894"
         id="circle105"
         style="fill:#000000;fill-opacity:1;fill-rule:evenodd;stroke:none" /><circle
         style="fill:#000000;fill-opacity:1;fill-rule:evenodd;stroke:none"
         id="circle107"
         cx="726.65894"
         cy="480.07452"
         r="4.3344536" /></g><circle
       r="4.3344536"
       cy="556.07452"
       cx="590.65894"
       id="use111"
       style="fill:#000000;fill-opacity:1;fill-rule:evenodd;stroke:none" /><circle
       r="4.3344536"
       cy="556.07452"
       cx="815.38043"
       id="use113"
       style="fill:#000000;fill-opacity:1;fill-rule:evenodd;stroke:none" /><circle
       style="fill:#000000;fill-opacity:1;fill-rule:evenodd;stroke:none"
       id="circle115"
       cx="461.59766"
       cy="556.07452"
       r="4.3344536" /><circle
       r="4.3344536"
       cy="556.07452"
       cx="349.59766"
       id="circle117"
       style="fill:#000000;fill-opacity:1;fill-rule:evenodd;stroke:none" /><circle
       style="fill:#000000;fill-opacity:1;fill-rule:evenodd;stroke:none"
       id="circle119"
       cx="319.59766"
       cy="544.07452"
       r="4.3344536" /><path
       style="fill:#000000;fill-opacity:1;fill-rule:evenodd;stroke:none"
       d="m 914.99339,556.07452 a 4.3344536,4.3344536 0 0 1 -4.33445,4.33446 4.3344536,4.3344536 0 0 1 -4.33446,-4.33446 4.3344536,4.3344536 0 0 1 4.33446,-4.33445 4.3344536,4.3344536 0 0 1 4.33445,4.33445"
       id="use121" /><circle
       r="4.3344536"
       cy="556.07452"
       cx="956.43024"
       id="use123"
       style="fill:#000000;fill-opacity:1;fill-rule:evenodd;stroke:none" /><g
       transform="translate(-25.762912,147.56491)"
       id="g129"
       style="fill:#000000;fill-opacity:1;stroke:none"><circle
         r="4.3344536"
         cy="480.07452"
         cx="738.65894"
         id="circle125"
         style="fill:#000000;fill-opacity:1;fill-rule:evenodd;stroke:none" /><circle
         style="fill:#000000;fill-opacity:1;fill-rule:evenodd;stroke:none"
         id="circle127"
         cx="726.65894"
         cy="480.07452"
         r="4.3344536" /></g><circle
       style="display:inline;fill:#000000;fill-opacity:1;fill-rule:evenodd"
       id="circle970"
       cx="664.65894"
       cy="516.07452"
       r="4.3344536" /></g><g
     style="display:none"
     inkscape:label="Dots"
     id="layer3"
     inkscape:groupmode="layer"
     sodipodi:insensitive="true"><g
       transform="translate(-16,6)"
       id="g959"><circle
         style="fill:#ff0000;fill-rule:evenodd"
         id="path942"
         cx="886.65894"
         cy="440.07452"
         r="4.3344536" /><circle
         r="4.3344536"
         cy="440.07452"
         cx="874.65894"
         id="circle944"
         style="fill:#ff0000;fill-rule:evenodd" /><circle
         style="fill:#ff0000;fill-rule:evenodd"
         id="circle946"
         cx="880.65894"
         cy="430.07452"
         r="4.3344536" /></g><circle
       r="4.3344536"
       cy="440.07452"
       cx="828.65894"
       id="circle948"
       style="fill:#ff0000;fill-rule:evenodd" /><g
       id="g963"><circle
         r="4.3344536"
         cy="480.07452"
         cx="738.65894"
         id="circle950"
         style="fill:#ff0000;fill-rule:evenodd" /><circle
         style="fill:#ff0000;fill-rule:evenodd"
         id="circle952"
         cx="726.65894"
         cy="480.07452"
         r="4.3344536" /></g><circle
       style="fill:#ff0000;fill-rule:evenodd"
       id="circle954"
       cx="604.65894"
       cy="456.07452"
       r="4.3344536" /><circle
       r="4.3344536"
       cy="456.07452"
       cx="443.3728"
       id="circle965"
       style="fill:#ff0000;fill-rule:evenodd" /><g
       id="g971"
       transform="translate(104.40994,84.806444)"><circle
         style="fill:#ff0000;fill-rule:evenodd"
         id="circle967"
         cx="738.65894"
         cy="480.07452"
         r="4.3344536" /><circle
         r="4.3344536"
         cy="480.07452"
         cx="726.65894"
         id="circle969"
         style="fill:#ff0000;fill-rule:evenodd" /></g><use
       height="100%"
       width="100%"
       transform="translate(-14,88)"
       id="use973"
       xlink:href="#circle954"
       y="0"
       x="0" /><use
       x="0"
       y="0"
       xlink:href="#circle954"
       id="use975"
       transform="translate(210.72151,108.80644)"
       width="100%"
       height="100%" /><circle
       r="4.3344536"
       cy="544.07452"
       cx="461.59766"
       id="circle977"
       style="fill:#ff0000;fill-rule:evenodd" /><circle
       style="fill:#ff0000;fill-rule:evenodd"
       id="circle979"
       cx="345.59766"
       cy="544.07452"
       r="4.3344536" /><circle
       r="4.3344536"
       cy="544.07452"
       cx="319.59766"
       id="circle981"
       style="fill:#ff0000;fill-rule:evenodd" /><use
       height="100%"
       width="100%"
       transform="translate(306,108.80644)"
       id="use1510"
       xlink:href="#circle954"
       y="0"
       x="0" /><use
       x="0"
       y="0"
       xlink:href="#circle954"
       id="use77"
       transform="translate(351.77129,108.80644)"
       width="100%"
       height="100%" /><g
       id="g83"
       transform="translate(-25.762912,147.56491)"><circle
         style="fill:#ff0000;fill-rule:evenodd"
         id="circle79"
         cx="738.65894"
         cy="480.07452"
         r="4.3344536" /><circle
         r="4.3344536"
         cy="480.07452"
         cx="726.65894"
         id="circle81"
         style="fill:#ff0000;fill-rule:evenodd" /></g><circle
       r="4.3344536"
       cy="516.07452"
       cx="664.65894"
       id="circle968"
       style="fill:#ff0000;fill-rule:evenodd" /></g><g
     sodipodi:insensitive="true"
     transform="matrix(0,1.3333333,1.3333333,0,0,0)"
     inkscape:label="Yeh 2"
     inkscape:groupmode="layer"
     id="g1508"
     style="display:inline;opacity:1"><path
       id="path2935"
       style="fill:none;fill-opacity:1;fill-rule:nonzero;stroke:#feeec9;stroke-width:2.25;stroke-miterlimit:4;stroke-dasharray:none;stroke-opacity:1"
       d="m 460.98079,457.50116 h -9.6 v -16.32 h 9.6 z m 6.24,-36 -9.12,9.12 -7.584,-16.704 z m 5.28,2.208 v 23.232 l -9.6,9.6 v -30.72 c 0,-3.744 -2.976,-6.72 -6.72,-6.72 h -1.536 v 1.92 h 1.536 c 2.688,0 4.8,2.112 4.8,4.8 v 21.696 h -9.6 c 0,-2.88 -2.016,-3.936 -3.9348,-4.5108 -8.9292,-2.6892 -15.2652,-9.5052 -15.2652,-19.2972 0,-11.52 9.024,-20.928 20.16,-20.928 11.136,0 20.16,9.408 20.16,20.928 z m 41.28,-17.088 -50.88,50.88 v -2.592 l 46.656,-46.656 -3.648,4.5132 c -12.576,-10.6572 -22.752,-31.9692 -25.728,-44.5452 z" /><path
       d="m 460.98079,627.17411 h -9.6 v -16.32 h 9.6 z m 6.24,-36 -9.12,9.12 -7.584,-16.704 z m 5.28,2.208 v 23.232 l -9.6,9.6 v -30.72 c 0,-3.744 -2.976,-6.72 -6.72,-6.72 h -1.536 v 1.92 h 1.536 c 2.688,0 4.8,2.112 4.8,4.8 v 21.696 h -9.6 c 0,-2.88 -2.016,-3.936 -3.9348,-4.5108 -8.9292,-2.6892 -15.2652,-9.5052 -15.2652,-19.2972 0,-11.52 9.024,-20.928 20.16,-20.928 11.136,0 20.16,9.408 20.16,20.928 z m 41.28,-17.088 -50.88,50.88 v -2.592 l 46.656,-46.656 -3.648,4.5132 c -12.576,-10.6572 -22.752,-31.9692 -25.728,-44.5452 z"
       style="fill:none;fill-opacity:1;fill-rule:nonzero;stroke:#feeec9;stroke-width:2.25;stroke-miterlimit:4;stroke-dasharray:none;stroke-opacity:1"
       id="path2937" /><path
       d="m 460.98079,457.50116 h -9.6 v -16.32 h 9.6 z m 6.24,-36 -9.12,9.12 -7.584,-16.704 z m 5.28,2.208 v 23.232 l -9.6,9.6 v -30.72 c 0,-3.744 -2.976,-6.72 -6.72,-6.72 h -1.536 v 1.92 h 1.536 c 2.688,0 4.8,2.112 4.8,4.8 v 21.696 h -9.6 c 0,-2.88 -2.016,-3.936 -3.9348,-4.5108 -8.9292,-2.6892 -15.2652,-9.5052 -15.2652,-19.2972 0,-11.52 9.024,-20.928 20.16,-20.928 11.136,0 20.16,9.408 20.16,20.928 z m 41.28,-17.088 -50.88,50.88 v -2.592 l 46.656,-46.656 -3.648,4.5132 c -12.576,-10.6572 -22.752,-31.9692 -25.728,-44.5452 z"
       style="fill:#000000;fill-opacity:1;fill-rule:nonzero;stroke:none;stroke-width:0.12"
       id="path2777" /><path
       id="path2925"
       style="fill:#000000;fill-opacity:1;fill-rule:nonzero;stroke:none;stroke-width:0.12"
       d="m 460.98079,627.17411 h -9.6 v -16.32 h 9.6 z m 6.24,-36 -9.12,9.12 -7.584,-16.704 z m 5.28,2.208 v 23.232 l -9.6,9.6 v -30.72 c 0,-3.744 -2.976,-6.72 -6.72,-6.72 h -1.536 v 1.92 h 1.536 c 2.688,0 4.8,2.112 4.8,4.8 v 21.696 h -9.6 c 0,-2.88 -2.016,-3.936 -3.9348,-4.5108 -8.9292,-2.6892 -15.2652,-9.5052 -15.2652,-19.2972 0,-11.52 9.024,-20.928 20.16,-20.928 11.136,0 20.16,9.408 20.16,20.928 z m 41.28,-17.088 -50.88,50.88 v -2.592 l 46.656,-46.656 -3.648,4.5132 c -12.576,-10.6572 -22.752,-31.9692 -25.728,-44.5452 z" /><path
       d="m 460.98079,197.49465 h -9.6 v -16.32 h 9.6 z m 6.24,-36 -9.12,9.12 -7.584,-16.704 z m 5.28,2.208 v 23.232 l -9.6,9.6 v -30.72 c 0,-3.744 -2.976,-6.72 -6.72,-6.72 h -1.536 v 1.92 h 1.536 c 2.688,0 4.8,2.112 4.8,4.8 v 21.696 h -9.6 c 0,-2.88 -2.016,-3.936 -3.9348,-4.5108 -8.9292,-2.6892 -15.2652,-9.5052 -15.2652,-19.2972 0,-11.52 9.024,-20.928 20.16,-20.928 11.136,0 20.16,9.408 20.16,20.928 z m 41.28,-17.088 -50.88,50.88 v -2.592 l 46.656,-46.656 -3.648,4.5132 c -12.576,-10.6572 -22.752,-31.9692 -25.728,-44.5452 z"
       style="fill:none;fill-opacity:1;fill-rule:nonzero;stroke:#feeec9;stroke-width:2.25;stroke-miterlimit:4;stroke-dasharray:none;stroke-opacity:1"
       id="path2954" /><path
       id="path2956"
       style="fill:#000000;fill-opacity:1;fill-rule:nonzero;stroke:none;stroke-width:0.12"
       d="m 460.98079,197.49465 h -9.6 v -16.32 h 9.6 z m 6.24,-36 -9.12,9.12 -7.584,-16.704 z m 5.28,2.208 v 23.232 l -9.6,9.6 v -30.72 c 0,-3.744 -2.976,-6.72 -6.72,-6.72 h -1.536 v 1.92 h 1.536 c 2.688,0 4.8,2.112 4.8,4.8 v 21.696 h -9.6 c 0,-2.88 -2.016,-3.936 -3.9348,-4.5108 -8.9292,-2.6892 -15.2652,-9.5052 -15.2652,-19.2972 0,-11.52 9.024,-20.928 20.16,-20.928 11.136,0 20.16,9.408 20.16,20.928 z m 41.28,-17.088 -50.88,50.88 v -2.592 l 46.656,-46.656 -3.648,4.5132 c -12.576,-10.6572 -22.752,-31.9692 -25.728,-44.5452 z" /><path
       sodipodi:nodetypes="ccccccccc"
       d="m 486.71194,666.36163 -27.17115,30.31397 c -1.536,1.632 -3.744,3.1692 -8.064,-0.48 l -14.496,-12.1908 9.6,-4.8012 11.52,9.696 c 2.88,2.4 4.608,1.536 6.144,-0.0948 l 20.06715,-22.44317 z"
       style="display:inline;fill:#000000;fill-opacity:1;fill-rule:nonzero;stroke:none;stroke-width:0.12"
       id="path2958" /></g><g
     sodipodi:insensitive="true"
     transform="matrix(0,1.3333333,1.3333333,0,0,0)"
     inkscape:label="Yeh 1"
     inkscape:groupmode="layer"
     id="g1406"
     style="display:none"><path
       id="path1310"
       style="fill:#000000;fill-opacity:1;fill-rule:nonzero;stroke:none;stroke-width:0.12"
       d="m 472.50079,177.30537 v 207.66 l -9.6,9.6 v -207.66 z m -5.28,-15.84 -9.12,9.12 -7.584,-16.704 z m 5.28,2.208 v 23.232 l -9.6,9.6 v -30.72 c 0,-3.744 -2.976,-6.72 -6.72,-6.72 h -1.536 v 1.92 h 1.536 c 2.688,0 4.8,2.112 4.8,4.8 v 21.696 h -9.6 c 0,-2.88 -2.016,-3.936 -3.9348,-4.512 -8.9292,-2.688 -15.2652,-9.504 -15.2652,-19.296 0,-11.52 9.024,-20.928 20.16,-20.928 11.136,0 20.16,9.408 20.16,20.928 z"
       sodipodi:nodetypes="cccccccccsccssccsscccsss" /><path
       sodipodi:nodetypes="cccccccccsccssccsscccsss"
       d="M 472.50079,607.0116 V 719.29 l -9.6,9.6 V 616.6116 Z m -5.28,-15.84 -9.12,9.12 -7.584,-16.704 z m 5.28,2.208 v 23.232 l -9.6,9.6 v -30.72 c 0,-3.744 -2.976,-6.72 -6.72,-6.72 h -1.536 v 1.92 h 1.536 c 2.688,0 4.8,2.1132 4.8,4.8 v 21.696 h -9.6 c 0,-2.88 -2.016,-3.936 -3.9348,-4.512 -8.9292,-2.688 -15.2652,-9.504 -15.2652,-19.296 0,-11.52 9.024,-20.928 20.16,-20.928 11.136,0 20.16,9.408 20.16,20.928 z"
       style="fill:#000000;fill-opacity:1;fill-rule:nonzero;stroke:none;stroke-width:0.12"
       id="path1312" /><path
       sodipodi:nodetypes="cccccccccsccssccsscccsss"
       d="m 472.50079,437.31783 v 117.66 l -9.6,9.6 v -117.66 z m -5.28,-15.84 -9.12,9.12 -7.584,-16.704 z m 5.28,2.208 v 23.232 l -9.6,9.6 v -30.72 c 0,-3.744 -2.976,-6.72 -6.72,-6.72 h -1.536 v 1.92 h 1.536 c 2.688,0 4.8,2.112 4.8,4.8 v 21.696 h -9.6 c 0,-2.88 -2.016,-3.936 -3.9348,-4.512 -8.9292,-2.688 -15.2652,-9.504 -15.2652,-19.296 0,-11.52 9.024,-20.928 20.16,-20.928 11.136,0 20.16,9.408 20.16,20.928 z"
       style="fill:#000000;fill-opacity:1;fill-rule:nonzero;stroke:none;stroke-width:0.12"
       id="path1316" /><path
       d="m 475.38079,679.2036 -15.84,17.472 c -1.536,1.632 -3.744,3.1692 -8.064,-0.48 l -14.496,-12.1908 9.6,-4.8012 11.52,9.696 c 2.88,2.4 4.608,1.536 6.144,-0.0948 l 8.736,-9.6012 z"
       style="display:inline;fill:none;fill-opacity:1;fill-rule:nonzero;stroke:#feeec9;stroke-width:2.25;stroke-miterlimit:4;stroke-dasharray:none;stroke-opacity:1"
       id="path1072" /><path
       id="path901"
       style="display:inline;fill:#000000;fill-opacity:1;fill-rule:nonzero;stroke:none;stroke-width:0.12"
       d="m 475.38079,679.2036 -15.84,17.472 c -1.536,1.632 -3.744,3.1692 -8.064,-0.48 l -14.496,-12.1908 9.6,-4.8012 11.52,9.696 c 2.88,2.4 4.608,1.536 6.144,-0.0948 l 8.736,-9.6012 z" /></g><g
     style="display:inline"
     id="g841"
     inkscape:groupmode="layer"
     inkscape:label="Main"
     transform="matrix(0,1.3333333,1.3333333,0,0,0)"
     sodipodi:insensitive="true"><path
       d="m 277.13687,327.91566 v 7.37426 l -25.93642,25.93706 v -7.37426 z m 20.0901,-7.37426 v 17.79994 H 271.79784 V 320.5414 Z m -30.00689,17.29137 V 520.91788 L 241.79159,501.08366 V 367.5841 l 4.32316,-1.27142 -89.50859,89.50828 -24.41167,1.01713 -51.110303,-21.86849 25.428483,-19.07137 60.77377,25.93706 -5.59458,1.52571 z m 30.00689,-4.57713 v 183.08512 l -25.42913,4.57712 V 333.25564 Z m 0,183.08512 -17.80058,6.6114 c -2.79745,1.01714 -8.39204,2.03746 -12.71424,-1.52571 l -24.92056,-20.34279 10.1714,-25.42848 25.42849,23.3942 z m -108.07171,-100.44253 -6.35712,8.89997 -18.56343,18.5628 -19.5793,-8.64569 8.89997,1.2746 c 3.05078,1.27143 9.91679,5.59109 16.52851,-1.02031 z m -22.12342,29.49705 -10.42568,10.42568 c -6.86506,6.86569 -14.74821,5.33998 -24.41167,1.01713 l -6.35585,-2.79713 3.05047,-6.35712 21.10533,9.40854 -4.8311,-0.50857 14.23995,-8.64569 z"
       style="fill:none;fill-opacity:1;fill-rule:nonzero;stroke:#feeec9;stroke-width:5.25;stroke-miterlimit:4;stroke-dasharray:none;stroke-opacity:1"
       id="path2963" /><path
       d="m 297.22697,320.5414 h -25.42849 v -43.22843 h 25.42849 z m 30.51418,-89.5051 v 61.53376 l -25.42848,25.42849 v -81.37116 c 0,-9.91711 -7.88284,-17.79994 -17.80058,-17.79994 h -4.06888 v 5.0857 h 4.06888 c 7.12061,0 12.71488,5.59426 12.71488,12.71424 v 57.46838 h -25.42913 c 0,-7.62854 -5.3403,-10.42568 -10.42599,-11.95139 -23.64913,-7.11997 -40.43098,-25.1742 -40.43098,-51.10808 0,-30.51418 23.90246,-55.43728 53.39982,-55.43728 29.49451,0 53.40046,24.9231 53.40046,55.43728 z M 437.08365,185.77042 302.31267,320.5414 v -6.86251 l 123.57927,-123.58563 -9.65965,11.95139 C 382.92097,173.82221 355.9636,117.36778 348.08394,84.056465 Z"
       style="fill:#000000;fill-opacity:1;fill-rule:nonzero;stroke:#feeec9;stroke-width:5.25;stroke-miterlimit:4;stroke-dasharray:none;stroke-opacity:1"
       id="path1078" /><path
       d="m 460.98079,705.1248 v 14.88 h -9.6 v -1.9212 l -12,-8.1588 v -4.8 z m 7.2,-4.8012 -7.2,7.2012 v 4.32 h -9.6 v -1.92 h -72 l 9.6,-9.6012 z"
       style="fill:none;fill-opacity:1;fill-rule:nonzero;stroke:#feeec9;stroke-width:2.25;stroke-miterlimit:4;stroke-dasharray:none;stroke-opacity:1"
       id="path1074" /><path
       sodipodi:nodetypes="cccccccccsssss"
       id="path1049"
       style="fill:#000000;fill-opacity:1;fill-rule:nonzero;stroke:none;stroke-width:0.317856"
       d="m 362.57008,525.39432 -69.66595,76.23789 c -4.57777,5.08569 -9.41013,4.82823 -14.49583,2.28538 l -70.18167,-36.36274 50.85697,-44.49985 43.48017,44.24557 c 6.86887,7.11997 10.1714,5.33998 15.51456,-0.50857 l 44.34472,-48.3651 z M 259.0836,564.50343 c 0,-1.77999 -1.52603,-3.3057 -3.30634,-3.3057 -1.52603,0 -3.05078,1.52571 -3.05078,3.3057 0,1.52889 1.52475,3.05142 3.05078,3.05142 1.78031,0 3.30634,-1.52253 3.30634,-3.05142 z" /><path
       d="m 297.22697,320.5414 h -25.42849 v -43.22843 h 25.42849 z m 30.51418,-89.5051 v 61.53376 l -25.42848,25.42849 v -81.37116 c 0,-9.91711 -7.88284,-17.79994 -17.80058,-17.79994 h -4.06888 v 5.0857 h 4.06888 c 7.12061,0 12.71488,5.59426 12.71488,12.71424 v 57.46838 h -25.42913 c 0,-7.62854 -5.3403,-10.42568 -10.42599,-11.95139 -23.64913,-7.11997 -40.43098,-25.1742 -40.43098,-51.10808 0,-30.51418 23.90246,-55.43728 53.39982,-55.43728 29.49451,0 53.40046,24.9231 53.40046,55.43728 z M 437.08365,185.77042 302.31267,320.5414 v -6.86251 l 123.57927,-123.58563 -9.65965,11.95139 C 382.92097,173.82221 355.9636,117.36778 348.08394,84.056465 Z M 297.22697,333.25564 H 271.79848 V 320.5414 h 25.42849 z m 0,-46.53413 v 38.14273 c -6.10602,4.06856 -11.44346,7.62855 -15.51233,7.62855 -4.06888,0 -7.12062,-2.0311 -9.9168,-3.81427 l -50.85697,-34.32846 19.07136,-16.7828 31.78561,21.61421 v -12.45996 z m -20.0901,41.19415 v 7.37426 l -25.93642,25.93706 v -7.37426 z m 20.0901,-7.37426 v 17.79994 H 271.79784 V 320.5414 Z m -30.00689,17.29137 V 520.91788 L 241.79159,501.08366 V 367.5841 l 4.32316,-1.27142 -89.50859,89.50828 -24.41167,1.01713 -51.110303,-21.86849 25.428483,-19.07137 60.77377,25.93706 -5.59458,1.52571 z m 30.00689,-4.57713 v 183.08512 l -25.42913,4.57712 V 333.25564 Z m 0,183.08512 -17.80058,6.6114 c -2.79745,1.01714 -8.39204,2.03746 -12.71424,-1.52571 l -24.92056,-20.34279 10.1714,-25.42848 25.42849,23.3942 z m -108.07171,-100.44253 -6.35712,8.89997 -18.56343,18.5628 -19.5793,-8.64569 8.89997,1.2746 c 3.05078,1.27143 9.91679,5.59109 16.52851,-1.02031 z m -22.12342,29.49705 -10.42568,10.42568 c -6.86506,6.86569 -14.74821,5.33998 -24.41167,1.01713 l -6.35585,-2.79713 3.05047,-6.35712 21.10533,9.40854 -4.8311,-0.50857 14.23995,-8.64569 z"
       style="fill:#000000;fill-opacity:1;fill-rule:nonzero;stroke:none;stroke-width:0.317856"
       id="path865" /><path
       d="m 379.05,712.16764 h -9.6 v -6.72 h 9.6 z m 14.4,-21.12 -16.032,17.6652 c -1.728,1.9188 -3.552,1.8228 -5.472,0.8628 l -26.496,-13.728 19.2,-16.8 16.416,16.7052 c 2.592,2.6868 3.84,2.0148 5.856,-0.1932 l 4.128,-4.512 z m -28.8,3.648 c 0,-0.672 -0.576,-1.248 -1.248,-1.248 -0.576,0 -1.152,0.576 -1.152,1.248 0,0.576 0.576,1.152 1.152,1.152 0.672,0 1.248,-0.576 1.248,-1.152 z m -43.2,15.972 v 9.6 h -24 l 9.6,-9.6 z m 57.6,-4.8 v 8.64 c 0,3.168 -2.592,5.76 -5.76,5.76 h -64.32 l 9.6,-9.6 h 50.88 v -4.8 z"
       style="fill:#000000;fill-opacity:1;fill-rule:nonzero;stroke:none;stroke-width:0.12"
       id="path869" /><path
       d="m 379.05,485.9675 v 14.88 h -9.6 v -1.92 l -12,-8.16 v -4.8 z m 7.2,-4.8 -7.2,7.2 v 4.32 h -9.6 v -1.92 h -72 l 9.6,-9.6 z m -7.2,14.9748 v 14.4 c -2.304,1.536 -4.32,2.88 -5.856,2.88 -1.536,0 -2.688,-0.768 -3.744,-1.44 l -19.2,-12.96 7.2,-6.3348 12,8.16 v -4.7052 z"
       style="fill:#000000;fill-opacity:1;fill-rule:nonzero;stroke:none;stroke-width:0.12"
       id="path881" /><path
       style="fill:#000000;fill-opacity:1;fill-rule:nonzero;stroke:none;stroke-width:0.12"
       d="m 379.05,464.8475 v 8.64 c 0,3.1668 -2.592,5.76 -5.76,5.76 h -64.32 l 9.6,-9.6 h 50.88 v -4.8 z"
       id="path610" /><path
       style="fill:#000000;fill-opacity:1;fill-rule:nonzero;stroke:none;stroke-width:0.12"
       d="m 321.45,469.6475 v 9.6 h -7.5 l 5.1,-9.6 z"
       id="path608" /><path
       style="fill:#000000;fill-opacity:1;fill-rule:nonzero;stroke:none;stroke-width:0.12"
       d="m 398.25,475.65533 c -1.728,1.1532 -4.704,2.4 -8.64,2.4 -6.624,0 -16.704,-7.0068 -20.16,-9.8868 -4.608,-3.7452 -11.808,-9.5052 -19.2,-14.1132 l 9.6,-4.8 c 7.392,4.608 14.592,10.656 19.2,14.4 6.816,5.088 11.712,8.64 19.2,12 z"
       id="path606" /><path
       style="fill:#000000;fill-opacity:1;fill-rule:nonzero;stroke:none;stroke-width:0.12"
       d="m 379.05,465.09533 h -9.6 v -15.84 h 9.6 z"
       id="path604" /><path
       style="fill:#000000;fill-opacity:1;fill-rule:nonzero;stroke:none;stroke-width:0.12"
       d="m 379.05,474.50333 h -9.6 v -10.36781 h 9.6 z"
       id="path602" /><path
       style="fill:#000000;fill-opacity:1;fill-rule:nonzero;stroke:none;stroke-width:0.12"
       d="m 379.05,432.4943 v 8.64 c 0,3.168 -2.592,5.76 -5.76,5.76 h -64.32 l 9.6,-9.6 h 50.88 v -4.8 z"
       id="path600" /><path
       style="fill:#000000;fill-opacity:1;fill-rule:nonzero;stroke:none;stroke-width:0.12"
       d="m 321.45,437.2943 v 9.6 h -24 l 9.6,-9.6 z"
       id="path598" /><path
       style="fill:#000000;fill-opacity:1;fill-rule:nonzero;stroke:none;stroke-width:0.12"
       d="m 379.05,442.0943 v 13.44 h -9.6 v -1.92 l -9.6,-6.72 v -4.8 z"
       id="path596" /><path
       d="m 379.05,313.90342 c -2.88,-2.016 -6.144,-4.608 -9.6,-6.72 -8.928,-5.376 -18.912,-11.7379 -28.8,-15.7699 3.36,-3.5508 14.78944,-21.73781 25.92,-21.1301 5.91974,0.32321 12.48,6.144 12.48,12.672 v 16.548 z m -14.016,-26.1108 c 0,-0.6732 -0.576,-1.2492 -1.248,-1.2492 -0.576,0 -1.152,0.576 -1.152,1.2492 0,0.5748 0.576,1.1508 1.152,1.1508 0.672,0 1.248,-0.576 1.248,-1.1508 z m 14.016,61.0308 h -9.6 v -52.68 h 9.6 z m 0,0.89488 h -9.6 v -4.8 h 9.6 z m 0,-17.568 v 14.4 c -2.304,1.5372 -4.32,2.88 -5.856,2.88 -1.536,0 -2.688,-0.768 -3.744,-1.44 l -19.2,-5.17755 7.2,-7.53641 12,3.07796 v -4.704 z m 0,22.368 h -9.6 v -9.6 h 9.6 z m -4.128,-3.456 v 9.888 l -27.36,-6.816 6.144,-1.92 -15.936,11.904 h -9.6 l 29.76,-17.28 z m 4.128,-1.344 v 32.64 l -9.6,5.26069 V 349.7183 Z"
       style="fill:#000000;fill-opacity:1;fill-rule:nonzero;stroke:none;stroke-width:0.12"
       id="path895"
       sodipodi:nodetypes="cccssccsssssccccccccccccscccccccccccccccccccccccc" /><path
       d="m 460.98079,705.1248 v 14.88 h -9.6 v -1.9212 l -12,-8.1588 v -4.8 z m 7.2,-4.8012 -7.2,7.2012 v 4.32 h -9.6 v -1.92 h -72 l 9.6,-9.6012 z m -7.2,14.976 v 14.4 c -2.304,1.536 -4.32,2.88 -5.856,2.88 -1.536,0 -2.688,-0.768 -3.744,-1.44 l -19.2,-12.96 7.2,-6.3348 12,8.16 v -4.7052 z"
       style="fill:#000000;fill-opacity:1;fill-rule:nonzero;stroke:none;stroke-width:0.12"
       id="path899" /><path
       d="m 460.98079,630.0516 h -9.6 v -4.8 h 9.6 z m 0,-17.5668 v 14.3988 c -2.304,1.536 -4.32,2.88 -5.856,2.88 -1.536,0 -2.688,-0.768 -3.744,-1.44 l -11.08764,-7.48347 7.21469,-6.28613 3.87295,2.6336 v -4.7028 z m 0,30.4308 h -9.6 v -4.8 h 9.6 z m 0,-17.568 v 14.4 c -2.304,1.5372 -4.32,2.88 -5.856,2.88 -1.536,0 -2.688,-0.768 -3.744,-1.44 l -19.2,-12.96 7.2,-6.336 12,8.16 v -4.704 z m 0,22.368 h -9.6 v -9.6 h 9.6 z m -4.128,-3.456 v 9.888 l -27.36,-6.816 6.144,-1.92 -15.936,11.904 h -9.6 l 29.76,-17.28 z m 4.128,-1.344 v 32.64 l -9.6,5.76 v -38.4 z"
       style="fill:#000000;fill-opacity:1;fill-rule:nonzero;stroke:none;stroke-width:0.12"
       id="path907" /><path
       id="path911"
       style="fill:#000000;fill-opacity:1;fill-rule:nonzero;stroke:none;stroke-width:0.12"
       d="m 460.98079,559.52583 c 0,6.816 -3.168,10.176 -6.24,12.672 0,-11.04 -9.792,-19.2 -22.56,-19.2 h -52.8 l 9.6,-9.6 h 46.08 c 14.112,0 25.92,5.4732 25.92,16.128 z" /><path
       d="m 468.18079,515.55783 -7.2,7.2 c -2.88,-2.016 -6.144,-4.6068 -9.6,-6.72 -8.928,-5.376 -18.912,-10.3668 -28.8,-14.4 3.36,-3.552 12.576,-24 25.92,-24 7.488,0 12.48,6.144 12.48,12.6732 v 18.0468 z m -21.216,-18.912 c 0,-0.672 -0.576,-1.248 -1.248,-1.248 -0.576,0 -1.152,0.576 -1.152,1.248 0,0.576 0.576,1.152 1.152,1.152 0.672,0 1.248,-0.576 1.248,-1.152 z m 14.016,28.032 h -9.6 v -19.68 h 9.6 z"
       style="fill:none;fill-opacity:1;fill-rule:nonzero;stroke:#feeec9;stroke-width:2.25;stroke-miterlimit:4;stroke-dasharray:none;stroke-opacity:1"
       id="path1070" /><path
       style="fill:#000000;fill-opacity:1;fill-rule:nonzero;stroke:none;stroke-width:0.12"
       d="m 460.98079,527.07783 v 8.64 c 0,3.168 -2.592,5.76 -5.76,5.76 h -64.32 l 9.6,-9.6 h 50.88 v -4.8 z"
       id="path496" /><path
       style="fill:#000000;fill-opacity:1;fill-rule:nonzero;stroke:none;stroke-width:0.12"
       d="m 403.38079,531.87783 v 9.6 h -10.5 l 9.6,-9.6 z"
       id="path494" /><path
       style="fill:#000000;fill-opacity:1;fill-rule:nonzero;stroke:none;stroke-width:0.12"
       d="m 460.98079,514.31103 v 14.4 c -2.304,1.5348 -4.32,2.88 -5.856,2.88 -1.536,0 -2.688,-0.7692 -3.744,-1.44 l -28.91358,-15.89004 7.45586,-6.93464 21.45772,11.68748 v -4.7028 z"
       id="path492"
       sodipodi:nodetypes="ccscccccc" /><path
       style="fill:#000000;fill-opacity:1;fill-rule:nonzero;stroke:none;stroke-width:0.12"
       d="m 460.98079,531.87783 h -9.6 v -4.8 h 9.6 z"
       id="path490" /><path
       id="path917"
       style="fill:#000000;fill-opacity:1;fill-rule:nonzero;stroke:none;stroke-width:0.12"
       d="m 468.18079,515.55783 -7.2,7.2 c -2.88,-2.016 -6.144,-4.6068 -9.6,-6.72 -8.928,-5.376 -18.912,-10.3668 -28.8,-14.4 3.36,-3.552 12.576,-24 25.92,-24 7.488,0 12.48,6.144 12.48,12.6732 v 18.0468 z m -21.216,-18.912 c 0,-0.672 -0.576,-1.248 -1.248,-1.248 -0.576,0 -1.152,0.576 -1.152,1.248 0,0.576 0.576,1.152 1.152,1.152 0.672,0 1.248,-0.576 1.248,-1.152 z m 14.016,28.032 h -9.6 v -19.68 h 9.6 z" /><path
       id="path919"
       style="fill:#000000;fill-opacity:1;fill-rule:nonzero;stroke:none;stroke-width:0.12"
       d="m 460.98079,444.19383 v 26.304 l -7.2,4.128 c -1.44,0.8652 -3.168,0.8652 -4.8,0.096 l -31.2,-13.824 19.2,-21.6 14.4,19.68 v -14.784 z m -24,13.632 c 0,-0.672 -0.576,-1.248 -1.248,-1.248 -0.576,0 -1.152,0.576 -1.152,1.248 0,0.576 0.576,1.152 1.152,1.152 0.672,0 1.248,-0.576 1.248,-1.152 z" /><path
       id="path923"
       style="fill:#000000;fill-opacity:1;fill-rule:nonzero;stroke:none;stroke-width:0.12"
       d="m 460.98079,389.57337 c 0,6.816 -3.168,10.176 -6.24,12.672 0,-11.04 -9.792,-19.2 -22.56,-19.2 h -52.8 l 9.6,-9.6 h 46.08 c 14.112,0 25.92,5.4732 25.92,16.128 z" /><path
       d="m 460.98079,366.56233 h -9.6 v -10.36828 h 9.6 z m 0,-9.408 h -9.6 v -15.84 h 9.6 z m 19.2,10.56 c -1.728,1.152 -4.704,2.4 -8.64,2.4 -6.624,0 -16.704,-7.008 -20.16,-9.888 -4.608,-3.744 -11.808,-9.504 -19.2,-14.112 l 9.6,-4.8 c 7.392,4.608 14.592,10.656 19.2,14.4 6.816,5.088 11.712,8.64 19.2,12 z"
       style="fill:none;fill-opacity:1;fill-rule:nonzero;stroke:#feeec9;stroke-width:2.25;stroke-miterlimit:4;stroke-dasharray:none;stroke-opacity:1"
       id="path1068" /><path
       style="fill:#000000;fill-opacity:1;fill-rule:nonzero;stroke:none;stroke-width:0.12"
       d="m 460.98079,357.12537 v 8.64 c 0,3.168 -2.592,5.76 -5.76,5.76 h -64.32 l 9.6,-9.6 h 50.88 v -4.8 z"
       id="path584" /><path
       style="fill:#000000;fill-opacity:1;fill-rule:nonzero;stroke:none;stroke-width:0.12"
       d="m 403.38079,361.92537 v 9.6 h -10.5 l 9.6,-9.6 z"
       id="path582" /><path
       style="fill:#000000;fill-opacity:1;fill-rule:nonzero;stroke:none;stroke-width:0.12"
       d="m 480.18079,367.71433 c -1.728,1.152 -4.704,2.4 -8.64,2.4 -6.624,0 -16.704,-7.008 -20.16,-9.888 -4.608,-3.744 -11.808,-9.504 -19.2,-14.112 l 9.6,-4.8 c 7.392,4.608 14.592,10.656 19.2,14.4 6.816,5.088 11.712,8.64 19.2,12 z"
       id="path580" /><path
       style="fill:#000000;fill-opacity:1;fill-rule:nonzero;stroke:none;stroke-width:0.12"
       d="m 460.98079,357.15433 h -9.6 v -15.84 h 9.6 z"
       id="path578" /><path
       style="fill:#000000;fill-opacity:1;fill-rule:nonzero;stroke:none;stroke-width:0.12"
       d="m 460.98079,366.56233 h -9.6 v -10.36828 h 9.6 z"
       id="path576" /><path
       style="fill:#000000;fill-opacity:1;fill-rule:nonzero;stroke:none;stroke-width:0.12"
       d="m 460.98079,324.77337 v 8.64 c 0,3.168 -2.592,5.76 -5.76,5.76 h -64.32 l 9.6,-9.6 h 50.88 v -4.8 z"
       id="path574" /><path
       style="fill:#000000;fill-opacity:1;fill-rule:nonzero;stroke:none;stroke-width:0.12"
       d="m 403.38079,329.57337 v 9.6 h -24 l 9.6,-9.6 z"
       id="path572" /><path
       style="fill:#000000;fill-opacity:1;fill-rule:nonzero;stroke:none;stroke-width:0.12"
       d="m 460.98079,334.37337 v 13.44 h -9.6 v -1.92 l -9.6,-6.72 v -4.8 z"
       id="path570" /><path
       d="m 468.18079,238.96137 -7.2,9.6 -5.088,-4.8 -9.312,-5.856 4.128,-1.2468 -8.256,13.2468 c -1.152,1.824 -3.456,3.36 -5.76,2.016 l -21.312,-12.288 16.8,-23.232 z m -7.2,15.36 h -9.6 v -30.72 h 9.6 z m -24.288,-18.432 c 0,-0.6708 -0.576,-1.248 -1.2468,-1.248 -0.5772,0 -1.1532,0.5772 -1.1532,1.248 0,0.576 0.576,1.152 1.1532,1.152 0.6708,0 1.2468,-0.576 1.2468,-1.152 z"
       style="fill:none;fill-opacity:1;fill-rule:nonzero;stroke:#feeec9;stroke-width:2.25;stroke-miterlimit:4;stroke-dasharray:none;stroke-opacity:1"
       id="path1066" /><path
       d="m 460.98079,227.75409 h -9.6 v -11.52 h 9.6 z m -7.296,-7.776 v 7.008 l -10.08631,-6.204 z m 7.296,-20.544 h -9.6 v -14.4 h 9.6 z m 0,-4.8 v 27.36 l -8.064,3.648 c -0.672,0.2892 -1.632,0.192 -2.304,-0.1908 l -28.5899,-17.88393 7.01172,-7.07775 25.41818,16.12848 -3.072,-0.576 v -21.408 z m 0,0 -0.576,10.464 -21.93282,-14.12134 6.87363,-6.9994 z m -4.8,10.1772 v 10.7508 L 430.23,199.19337 l 7.01486,-6.98402 z m 12,34.15008 -7.2,9.6 -5.088,-4.8 -9.312,-5.856 4.128,-1.2468 -8.256,13.2468 c -1.152,1.824 -3.456,3.36 -5.76,2.016 l -21.312,-12.288 16.8,-23.232 z m -7.2,18.36 h -9.6 v -33.72 h 9.6 z m -24.288,-21.432 c 0,-0.6708 -0.576,-1.248 -1.2468,-1.248 -0.5772,0 -1.1532,0.5772 -1.1532,1.248 0,0.576 0.576,1.152 1.1532,1.152 0.6708,0 1.2468,-0.576 1.2468,-1.152 z m 24.288,6.2292 v 32.4 c -2.304,1.5348 -4.32,2.88 -5.856,2.88 -1.536,0 -2.688,-0.7692 -3.744,-1.44 l -19.2,-12.96 7.2,-6.3372 12,8.16 v -22.7028 z"
       style="fill:#000000;fill-opacity:1;fill-rule:nonzero;stroke:none;stroke-width:0.12"
       id="path1047"
       sodipodi:nodetypes="cccccccccccccccccccccccccccccccccccccccccccccccccsssssccscccccc" /><path
       sodipodi:nodetypes="ccccccccccccccccccccccccccccsccccscccccccccccccccccccssccccccccsccccccccccsssss"
       d="m 379.03928,647.55702 v 27.36 l -8.064,3.648 c -0.672,0.2892 -1.632,0.192 -2.304,-0.1908 l -28.5899,-17.88393 7.01172,-7.07775 25.41818,16.12848 -3.072,-0.576 v -21.408 z m 0,0 -0.576,10.464 -21.93282,-14.12134 6.87363,-6.9994 z m -4.8,10.1772 v 10.7508 l -25.95079,-16.36872 7.01486,-6.98402 z M 379.05,591.5423 h -9.6 v -5.28 h 9.6 z m 0,-77.28 v 67.2 h -9.6 v -57.6 c 0,-2.304 -1.824,-4.224 -3.168,-4.8 z m 0,59.52 v 14.4 c -2.304,1.536 -4.32,2.88 -5.856,2.88 -1.536,0 -2.688,-0.768 -3.744,-1.44 l -19.2,-12.96 7.2,-6.336 12,8.1612 v -4.7052 z m 0,22.56 v 26.94 h -9.6 v -10.92 l -14.1,-11.22 v -4.8 z m -57.6,-4.8 v 9.6 h -23.17949 l 8.77949,-9.6 z m 57.6,-4.8 v 8.64 c 0,3.168 -2.592,5.76 -5.76,5.76 h -63.49949 l 8.77949,-9.6 h 50.88 v -4.8 z m -4.35239,29.92924 -0.0827,9.13882 L 355.05,641.4623 c -7.872,-2.208 -14.4,-10.848 -14.4,-19.2 0,-8.352 6.432,-16.8948 14.4,-19.2 l 31.2,24.96 -9.12,6.72 v -24.96 z M 379.05,643.3823 h -9.6 v -33.6 h 9.6 z m -22.752,-21.12 c 0,-0.672 -0.576,-1.248 -1.248,-1.248 -0.576,0 -1.152,0.576 -1.152,1.248 0,0.576 0.576,1.152 1.152,1.152 0.672,0 1.248,-0.576 1.248,-1.152 z"
       style="fill:#000000;fill-opacity:1;fill-rule:nonzero;stroke:none;stroke-width:0.12"
       id="path1059" /><path
       style="fill:#000000;fill-opacity:1;fill-rule:nonzero;stroke:none;stroke-width:0.12"
       d="m 379.03928,657.61478 h -9.6 v -14.4 h 9.6 z"
       id="path1057" /><path
       id="path562"
       style="fill:#000000;fill-opacity:1;fill-rule:nonzero;stroke:none;stroke-width:0.12"
       d="m 468.18079,328.45774 -7.2,7.2 -9.6,-6.72 9.6,-6.18 z m -12,-5.31637 v 6.432 h -4.8 l -5.568,-6.432 z m 4.8,-45.9828 v 45.6 l -5.952,3.6468 c -2.688,1.6332 -4.992,1.6332 -7.392,-1.152 l -25.056,-28.8948 8.928,-4.5132 20.928,24.1932 -1.056,0.1908 v -5.376 l 1.056,2.688 -19.392,-22.368 z m 0,54.3348 h -9.6 v -8.73563 h 9.6 z" /><path
       id="path588"
       style="fill:#000000;fill-opacity:1;fill-rule:nonzero;stroke:none;stroke-width:0.12"
       d="m 386.25,436.17867 -7.2,7.2 -9.6,-6.72 9.6,-6.18 z m -12,-5.31637 v 6.432 h -4.8 l -5.568,-6.432 z m 4.8,-45.9828 v 45.6 l -5.952,3.6468 c -2.688,1.6332 -4.992,1.6332 -7.392,-1.152 l -25.056,-28.8948 8.928,-4.5132 20.928,24.1932 -1.056,0.1908 v -5.376 l 1.056,2.688 -19.392,-22.368 z m 0,54.3348 h -9.6 v -8.73563 h 9.6 z" /><path
       id="path629"
       d="m 386.25,304.32589 -7.2,7.2 -9.6,-6.72 9.6,-6.18 z"
       style="fill:#000000;fill-opacity:1;fill-rule:nonzero;stroke:none;stroke-width:0.12" /></g></svg>
