<?xml version="1.0" encoding="UTF-8" standalone="no"?>
<svg
   xmlns:dc="http://purl.org/dc/elements/1.1/"
   xmlns:cc="http://creativecommons.org/ns#"
   xmlns:rdf="http://www.w3.org/1999/02/22-rdf-syntax-ns#"
   xmlns:svg="http://www.w3.org/2000/svg"
   xmlns="http://www.w3.org/2000/svg"
   xmlns:sodipodi="http://sodipodi.sourceforge.net/DTD/sodipodi-0.dtd"
   xmlns:inkscape="http://www.inkscape.org/namespaces/inkscape"
   inkscape:version="1.0beta1 (32d4812, 2019-09-19)"
   id="svg959"
   viewBox="-500 -500 17000 7592"
   height="7592"
   width="17000"
   version="1.1">
  <metadata
     id="metadata965">
    <rdf:RDF>
      <cc:Work
         rdf:about="">
        <dc:format>image/svg+xml</dc:format>
        <dc:type
           rdf:resource="http://purl.org/dc/dcmitype/StillImage" />
        <dc:title></dc:title>
      </cc:Work>
    </rdf:RDF>
  </metadata>
  <defs
     id="defs963" />
  <sodipodi:namedview
     inkscape:current-layer="svg959"
     inkscape:window-maximized="1"
     inkscape:window-y="23"
     inkscape:window-x="0"
     inkscape:cy="6220.6825"
     inkscape:cx="16039.971"
     inkscape:zoom="0.025182292"
     fit-margin-bottom="1000"
     fit-margin-right="1000"
     fit-margin-top="1000"
     fit-margin-left="1000"
     showgrid="false"
     id="namedview961"
     inkscape:window-height="1081"
     inkscape:window-width="2048"
     inkscape:pageshadow="2"
     inkscape:pageopacity="1"
     guidetolerance="10"
     gridtolerance="10"
     objecttolerance="10"
     borderopacity="1"
     inkscape:document-rotation="0"
     bordercolor="#666666"
     pagecolor="#feeec9" />
  <path
     inkscape:connector-curvature="0"
     id="path841"
     d="" />
  <path
     inkscape:connector-curvature="0"
     id="path849"
     d="" />
  <path
     inkscape:connector-curvature="0"
     id="path863"
     d="" />
  <path
     inkscape:connector-curvature="0"
     id="path869"
     d="" />
  <path
     inkscape:connector-curvature="0"
     id="path883"
     d="" />
  <path
     id="path833"
     d="m 638,6092 c 218,0 262,-142 262,-300 V 5692 H 700 v 100 c 2,84 2,268 -200,270 30,18 92,30 138,30 z m 362,-400 h 200 v -400 h -200 z m -300,100 h 500 V 5592 H 700 Z m 300,-480 h 200 v -120 c -46,60 -118,100 -200,100 z m -100,300 v -20 c 0,-56 44,-100 100,-100 h 20 v -200 h -20 c -166,0 -300,134 -300,300 v 20 z"
     inkscape:connector-curvature="0"
     style="opacity:1;stop-opacity:1" />
  <path
     id="path2397"
     d="m 1040,5592 v 200 h 240 v -200 z"
     style="opacity:1;stop-opacity:1" />
  <path
     id="path2395"
     d="m 1100,5592 v 200 h 240 v -200 z"
     style="opacity:1;stop-opacity:1" />
  <path
     id="path2393"
     d="m 1500,3832 v -440 c -60,136 -170,240 -300,300 6,0 100,2 100,100 v 40 z"
     style="opacity:1;stop-opacity:1" />
  <path
     id="path2387"
     d="m 1500,5792 v -700 h -200 v 700 z"
     style="opacity:1;stop-opacity:1" />
  <path
     inkscape:connector-curvature="0"
     id="path835"
     d="M 1500,5301.3071 V 3792 h -200 v 1509.3071 z"
     style="opacity:1;stroke-width:1.73742;stop-opacity:1" />
  <path
     id="path837"
     d="m 1850,4792 c 56,0 100,-44 100,-100 0,-56 -44,-100 -100,-100 -56,0 -100,44 -100,100 0,56 44,100 100,100 z m 300,0 c 56,0 100,-44 100,-100 0,-56 -44,-100 -100,-100 -56,0 -100,44 -100,100 0,56 44,100 100,100 z"
     style="opacity:1;fill:#d22e1f;fill-opacity:1;stop-opacity:1"
     inkscape:connector-curvature="0" />
  <path
     id="path839"
     d="m 1400,5792 h 400 v -500 h -200 v 300 h -200 z m 400,-460 v -340 c -46,116 -170,200 -300,200 0,0 100,0 100,100 v 40 z"
     inkscape:connector-curvature="0"
     style="opacity:1;stop-opacity:1" />
  <path
     id="path843"
     d="m 1838,6092 c 218,0 262,-142 262,-300 v -100 h -200 v 100 c 2,84 2,268 -200,270 30,18 92,30 138,30 z m 362,-400 h 200 v -400 h -200 z m -300,100 h 500 v -200 h -500 z m 300,-480 h 200 v -120 c -46,60 -118,100 -200,100 z m -100,300 v -20 c 0,-56 44,-100 100,-100 h 20 v -200 h -20 c -166,0 -300,134 -300,300 v 20 z"
     inkscape:connector-curvature="0"
     style="opacity:1;stop-opacity:1" />
  <path
     id="path845"
     d="m 2500,5792 h 200 V 3792 h -200 z m 0,-1960 h 200 v -40 c 0,-98 94,-100 100,-100 -130,-60 -240,-164 -300,-300 z m -200,1760 v 200 h 240 v -200 z m -60,0 v 200 h 240 v -200 z"
     inkscape:connector-curvature="0"
     style="opacity:1;stop-opacity:1" />
  <path
     id="path847"
     d="m 3040,6092 c 240,0 260,-220 260,-320 h -200 c 0,76 -26,248 -300,246 82,62 162,74 240,74 z m -240,-300 h 500 v -200 h -500 z m 300,-80 h 200 v -420 h -200 z m 0,-400 h 200 v -120 c -46,60 -118,100 -200,100 z m -100,300 v -20 c 0,-56 44,-100 100,-100 h 20 v -200 h -20 c -166,0 -300,134 -300,300 v 20 z"
     inkscape:connector-curvature="0"
     style="opacity:1;stop-opacity:1" />
  <path
     id="path851"
     d="m 3600,5792 h 300 v -200 h -300 z m 600,-1500 v -500 h -200 v 500 z m 0,1500 v -700 h -200 v 700 z m 0,-988 c -34,90 -108,162 -200,192 v 196 h 200 z m -300,188 c 166,0 300,-134 300,-300 v -500 h -200 v 500 c 0,56 -44,100 -100,100 -56,0 -100,-44 -100,-100 0,-56 44,-100 100,-100 32,0 62,14 80,38 v -228 c -26,-6 -52,-10 -80,-10 -166,0 -300,134 -300,300 0,166 134,300 300,300 z m 300,-1160 v -440 c -60,136 -170,240 -300,300 6,0 100,2 100,100 v 40 z m -250,2260 c 138,0 250,-114 250,-252 v -88 h -200 v 92 c 0,26 -22,48 -50,48 -28,0 -50,-22 -50,-48 v -92 h -200 v 88 c 0,138 110,252 250,252 z m -310,-300 v -200 h -40 c -100,0 -100,-100 -100,-100 0,130 -84,254 -200,300 z"
     inkscape:connector-curvature="0"
     style="opacity:1;stop-opacity:1" />
  <path
     id="path853"
     d="m 5200,4792 c 56,0 100,-44 100,-100 0,-56 -44,-100 -100,-100 -56,0 -100,44 -100,100 0,56 44,100 100,100 z"
     style="opacity:1;fill:#d22e1f;fill-opacity:1;stop-opacity:1"
     inkscape:connector-curvature="0" />
  <path
     inkscape:connector-curvature="0"
     id="path1112"
     d="m 4300,5752 v 340 c 46,-116 170,-200 300,-200 0,0 -100,0 -100,-100 v -40 z"
     style="opacity:1;stop-opacity:1" />
  <path
     inkscape:connector-curvature="0"
     id="path1110"
     d="m 4300,3832 h 200 v -40 c 0,-98 94,-100 100,-100 -130,-60 -240,-164 -300,-300 z"
     style="opacity:1;stop-opacity:1" />
  <path
     inkscape:connector-curvature="0"
     id="path1108"
     d="m 4600,4992 c 166,0 300,-134 300,-300 0,-166 -134,-300 -300,-300 -28,0 -54,4 -80,10 v 228 c 18,-24 48,-38 80,-38 56,0 100,44 100,100 0,56 -44,100 -100,100 -56,0 -100,-44 -100,-100 v -500 h -200 v 500 c 0,166 134,300 300,300 z"
     style="opacity:1;stop-opacity:1" />
  <path
     inkscape:connector-curvature="0"
     id="path1106"
     d="m 4300,4804 v 388 h 200 v -196 c -92,-30 -166,-102 -200,-192 z"
     style="opacity:1;stop-opacity:1" />
  <path
     inkscape:connector-curvature="0"
     id="path1104"
     d="m 4300,4292 h 200 v -500 h -200 z"
     style="opacity:1;stop-opacity:1" />
  <path
     inkscape:connector-curvature="0"
     id="path1102"
     d="m 4300,5392 h 200 v -300 h -200 z"
     style="opacity:1;stop-opacity:1" />
  <path
     inkscape:connector-curvature="0"
     id="path1100"
     d="m 5450,6092 c 138,0 250,-114 250,-252 v -88 h -200 v 92 c 0,26 -22,48 -50,48 -28,0 -50,-22 -50,-48 v -92 h -200 v 88 c 0,138 110,252 250,252 z"
     style="opacity:1;stop-opacity:1" />
  <path
     inkscape:connector-curvature="0"
     id="path1098"
     d="m 5450,4992 c -140,0 -250,114 -250,252 v 88 h 200 v -92 c 0,-26 22,-48 50,-48 28,0 50,22 50,48 v 92 h 200 v -88 c 0,-138 -112,-252 -250,-252 z"
     style="opacity:1;stop-opacity:1" />
  <path
     sodipodi:nodetypes="ccccc"
     inkscape:connector-curvature="0"
     id="path1096"
     d="M 4300,5792 H 5400 V 5592 H 4300 Z"
     style="opacity:1;stop-opacity:1" />
  <path
     sodipodi:nodetypes="ccccc"
     inkscape:connector-curvature="0"
     id="path1094"
     d="m 4300,5292 v 200 h 1100 v -200 z"
     style="opacity:1;stop-opacity:1" />
  <path
     inkscape:connector-curvature="0"
     id="path855"
     d="m 5500,5792 h 200 v -500 h -200 z"
     style="opacity:1;stop-opacity:1" />
  <path
     id="path857"
     d="m 5600,5792 h 580 v -200 h -580 z m 660,300 c -130,-248 -48,-444 106,-564 134,-104 304,-136 434,-136 l -226,-176 c -246,52 -390,188 -466,304 -148,226 -52,510 152,572 z m 140,-300 h 400 v -200 h -400 z m -600,-400 320,-100 c 42,-36 80,-62 130,-72 6,-36 14,-44 50,-70 36,26 44,34 50,70 50,10 88,36 130,72 l 320,100 c -54,-216 -266,-376 -500,-376 -234,0 -446,160 -500,376 z m 338,-350 h 324 c 0,-126 -162,-130 -162,-250 0,120 -162,124 -162,250 z m -338,350 c 96,0 218,14 328,66 44,-54 96,-102 154,-142 -80,-50 -174,-86 -276,-106 z m 514,212 c 98,120 132,288 26,488 204,-62 300,-346 152,-572 -8,-10 -14,-22 -24,-34 -54,30 -108,66 -154,118 z"
     inkscape:connector-curvature="0"
     style="opacity:1;stop-opacity:1" />
  <path
     id="path859"
     d="m 6850,4792 c 56,0 100,-44 100,-100 0,-56 -44,-100 -100,-100 -56,0 -100,44 -100,100 0,56 44,100 100,100 z m 300,0 c 56,0 100,-44 100,-100 0,-56 -44,-100 -100,-100 -56,0 -100,44 -100,100 0,56 44,100 100,100 z"
     style="opacity:1;fill:#d22e1f;fill-opacity:1;stop-opacity:1"
     inkscape:connector-curvature="0" />
  <path
     id="path861"
     d="m 6700,5792 h 400 v -500 h -200 v 300 h -200 z m 400,-460 v -340 c -46,116 -170,200 -300,200 0,0 100,0 100,100 v 40 z"
     inkscape:connector-curvature="0"
     style="opacity:1;stop-opacity:1" />
  <path
     id="path865"
     d="m 7138,6092 c 218,0 262,-142 262,-300 v -100 h -200 v 100 c 2,84 2,268 -200,270 30,18 92,30 138,30 z m 362,-400 h 200 v -400 h -200 z m -300,100 h 500 v -200 h -500 z m 300,-480 h 200 v -120 c -46,60 -118,100 -200,100 z m -100,300 v -20 c 0,-56 44,-100 100,-100 h 20 v -200 h -20 c -166,0 -300,134 -300,300 v 20 z"
     inkscape:connector-curvature="0"
     style="opacity:1;stop-opacity:1" />
  <path
     id="path867"
     d="m 8000,4292 v -500 h -200 v 500 z m 0,1500 v -700 h -200 v 700 z m 0,-988 c -34,90 -108,162 -200,192 v 196 h 200 z m -300,188 c 166,0 300,-134 300,-300 v -500 h -200 v 500 c 0,56 -44,100 -100,100 -56,0 -100,-44 -100,-100 0,-56 44,-100 100,-100 32,0 62,14 80,38 v -228 c -26,-6 -52,-10 -80,-10 -166,0 -300,134 -300,300 0,166 134,300 300,300 z m 300,-1160 v -440 c -60,136 -170,240 -300,300 6,0 100,2 100,100 v 40 z m -400,1760 v 200 h 240 v -200 z m -60,0 v 200 h 240 v -200 z"
     inkscape:connector-curvature="0"
     style="opacity:1;stop-opacity:1" />
  <path
     inkscape:connector-curvature="0"
     id="path1090"
     d="m 8100,5752 v 340 c 46,-116 170,-200 300,-200 0,0 -100,0 -100,-100 v -40 z"
     style="opacity:1;stop-opacity:1" />
  <path
     inkscape:connector-curvature="0"
     id="path1088"
     d="m 8100,3832 h 200 v -40 c 0,-98 94,-100 100,-100 -130,-60 -240,-164 -300,-300 z"
     style="opacity:1;stop-opacity:1" />
  <path
     inkscape:connector-curvature="0"
     id="path1086"
     d="m 8400,4992 c 166,0 300,-134 300,-300 0,-166 -134,-300 -300,-300 -28,0 -54,4 -80,10 v 228 c 18,-24 48,-38 80,-38 56,0 100,44 100,100 0,56 -44,100 -100,100 -56,0 -100,-44 -100,-100 v -500 h -200 v 500 c 0,166 134,300 300,300 z"
     style="opacity:1;stop-opacity:1" />
  <path
     inkscape:connector-curvature="0"
     id="path1084"
     d="m 8100,4804 v 388 h 200 v -196 c -92,-30 -166,-102 -200,-192 z"
     style="opacity:1;stop-opacity:1" />
  <path
     inkscape:connector-curvature="0"
     id="path1082"
     d="m 8100,4292 h 200 v -500 h -200 z"
     style="opacity:1;stop-opacity:1" />
  <path
     inkscape:connector-curvature="0"
     id="path1080"
     d="m 8100,5392 h 200 v -300 h -200 z"
     style="opacity:1;stop-opacity:1" />
  <path
     inkscape:connector-curvature="0"
     id="path1078"
     d="m 9250,6092 c 138,0 250,-114 250,-252 v -88 h -200 v 92 c 0,26 -22,48 -50,48 -28,0 -50,-22 -50,-48 v -92 h -200 v 88 c 0,138 110,252 250,252 z"
     style="opacity:1;stop-opacity:1" />
  <path
     inkscape:connector-curvature="0"
     id="path1076"
     d="m 9300,5792 h 200 v -500 h -200 z"
     style="opacity:1;stop-opacity:1" />
  <path
     sodipodi:nodetypes="ccccc"
     inkscape:connector-curvature="0"
     id="path1074"
     d="m 8100,5292 v 200 h 1400 v -200 z"
     style="opacity:1;stop-opacity:1" />
  <path
     sodipodi:nodetypes="ccccc"
     inkscape:connector-curvature="0"
     id="path871"
     d="M 8100,5792 H 9200 V 5592 H 8100 Z"
     style="opacity:1;stop-opacity:1" />
  <path
     id="path873"
     d="m 9750,6092 c 56,0 100,-44 100,-100 0,-56 -44,-100 -100,-100 -56,0 -100,44 -100,100 0,56 44,100 100,100 z"
     style="opacity:1;fill:#d22e1f;fill-opacity:1;stop-opacity:1"
     inkscape:connector-curvature="0" />
  <path
     id="path875"
     d="m 9900,5792 h 200 v -200 h -200 z m -224,-180 h 302 c -94,-22 -156,-74 -156,-182 0,-110 78,-238 78,-392 0,-186 -144,-346 -320,-346 h -380 c 74,100 106,200 100,300 16,-32 72,-100 150,-100 26,0 36,0 70,0 86,0 180,62 180,148 0,128 -82,230 -82,390 0,90 24,146 58,182 z m -276,180 h 500 v -200 h -500 z m 660,0 h 340 c -116,-46 -200,-170 -200,-300 0,0 0,100 -100,100 h -40 z"
     inkscape:connector-curvature="0"
     style="opacity:1;stop-opacity:1" />
  <path
     id="path877"
     d="m 10640,6092 c 240,0 260,-220 260,-320 h -200 c 0,76 -26,248 -300,246 82,62 162,74 240,74 z m -240,-300 h 500 v -200 h -500 z m 300,-80 h 200 v -420 h -200 z m 0,-400 h 200 v -120 c -46,60 -118,100 -200,100 z m -100,300 v -20 c 0,-56 44,-100 100,-100 h 20 v -200 h -20 c -166,0 -300,134 -300,300 v 20 z"
     inkscape:connector-curvature="0"
     style="opacity:1;stop-opacity:1" />
  <path
     id="path879"
     d="m 11200,4292 v -500 h -200 v 500 z m 0,1500 v -700 h -200 v 700 z m 0,-988 c -34,90 -108,162 -200,192 v 196 h 200 z m -300,188 c 166,0 300,-134 300,-300 v -500 h -200 v 500 c 0,56 -44,100 -100,100 -56,0 -100,-44 -100,-100 0,-56 44,-100 100,-100 32,0 62,14 80,38 v -228 c -26,-6 -52,-10 -80,-10 -166,0 -300,134 -300,300 0,166 134,300 300,300 z m 300,-1160 v -440 c -60,136 -170,240 -300,300 6,0 100,2 100,100 v 40 z m -400,1760 v 200 h 240 v -200 z m -60,0 v 200 h 240 v -200 z"
     inkscape:connector-curvature="0"
     style="opacity:1;stop-opacity:1" />
  <path
     id="path881"
     d="m 11300,4292 h 200 v -500 h -200 z m 0,1500 h 200 v -700 h -200 z m 0,-988 v 388 h 200 v -196 c -92,-30 -166,-102 -200,-192 z m 300,188 c 166,0 300,-134 300,-300 0,-166 -134,-300 -300,-300 -28,0 -54,4 -80,10 v 228 c 18,-24 48,-38 80,-38 56,0 100,44 100,100 0,56 -44,100 -100,100 -56,0 -100,-44 -100,-100 v -500 h -200 v 500 c 0,166 134,300 300,300 z m -300,-1160 h 200 v -40 c 0,-98 94,-100 100,-100 -130,-60 -240,-164 -300,-300 z"
     inkscape:connector-curvature="0"
     style="opacity:1;stop-opacity:1" />
  <path
     inkscape:connector-curvature="0"
     id="path1070"
     d="m 11840,5792 v -200 h -40 c -100,0 -100,-100 -100,-100 0,130 -84,254 -200,300 z"
     style="opacity:1;stop-opacity:1" />
  <path
     inkscape:connector-curvature="0"
     id="path1068"
     d="m 12650,3832 v -440 c -60,136 -170,240 -300,300 6,0 100,2 100,100 v 40 z"
     style="opacity:1;stop-opacity:1" />
  <path
     inkscape:connector-curvature="0"
     id="path1066"
     d="m 12450,4922 h 200 V 3792 h -200 z"
     style="opacity:1;stop-opacity:1" />
  <path
     id="path1064"
     d="m 12850,6092 c 138,0 250,-114 250,-252 v -88 h -200 v 92 c 0,26 -22,48 -50,48 -28,0 -50,-22 -50,-48 v -92 h -200 v 88 c 0,138 110,252 250,252 z"
     style="opacity:1;stop-opacity:1"
     inkscape:connector-curvature="0" />
  <path
     sodipodi:nodetypes="ccccc"
     inkscape:connector-curvature="0"
     id="path1062"
     d="m 12000,5492 h 1100 v -200 h -1100 z"
     style="opacity:1;stop-opacity:1" />
  <path
     id="path1060"
     d="m 12900,5792 h 200 v -500 h -200 z"
     style="opacity:1;stop-opacity:1"
     inkscape:connector-curvature="0" />
  <path
     sodipodi:nodetypes="ccccc"
     inkscape:connector-curvature="0"
     id="path1058"
     d="m 11700,5792 h 1100 v -200 h -1100 z"
     style="opacity:1;stop-opacity:1" />
  <path
     inkscape:connector-curvature="0"
     id="path1056"
     d="m 11684,5592 v 200 h 100 v -200 z"
     style="opacity:1;stop-opacity:1" />
  <path
     inkscape:connector-curvature="0"
     id="path1054"
     d="m 11800,5492 h 280 l 570,-570 -124,-156 z"
     style="opacity:1;stop-opacity:1" />
  <path
     inkscape:connector-curvature="0"
     id="path885"
     d="m 11800,5792 h 100 v -200 h -100 z"
     style="opacity:1;stop-opacity:1" />
  <path
     id="path887"
     d="m 13450,4792 c 56,0 100,-44 100,-100 0,-56 -44,-100 -100,-100 -56,0 -100,44 -100,100 0,56 44,100 100,100 z"
     style="opacity:1;fill:#d22e1f;fill-opacity:1;stop-opacity:1"
     inkscape:connector-curvature="0" />
  <path
     id="path889"
     d="m 13000,5792 h 700 v -200 h -700 z m 500,0 h 200 v -400 h -200 z m 0,-400 h 200 v -400 h -200 z m -300,100 h 500 v -200 h -500 z m 300,-480 h 200 v -120 c -46,60 -118,100 -200,100 z m -100,300 v -20 c 0,-56 44,-100 100,-100 h 20 v -200 h -20 c -166,0 -300,134 -300,300 v 20 z"
     inkscape:connector-curvature="0"
     style="opacity:1;stop-opacity:1" />
  <path
     id="path891"
     d="m 14050,4792 c 56,0 100,-44 100,-100 0,-56 -44,-100 -100,-100 -56,0 -100,44 -100,100 0,56 44,100 100,100 z m 300,0 c 56,0 100,-44 100,-100 0,-56 -44,-100 -100,-100 -56,0 -100,44 -100,100 0,56 44,100 100,100 z m -150,-266 c 56,0 100,-44 100,-100 0,-56 -44,-100 -100,-100 -56,0 -100,44 -100,100 0,56 44,100 100,100 z"
     style="opacity:1;fill:#d22e1f;fill-opacity:1;stop-opacity:1"
     inkscape:connector-curvature="0" />
  <path
     id="path893"
     d="m 13800,5792 h 200 v -632 c 0,0 100,0 100,100 v 532 h 200 v -700 c 0,0 100,0 100,100 v 600 h 200 v -800 c -272,108 -634,194 -900,200 0,0 100,0 100,100 z m -200,0 h 300 v -200 h -300 z m 560,0 h 440 v -200 h -440 z m -110,300 c 138,0 250,-114 250,-252 v -88 h -200 v 92 c 0,26 -22,48 -50,48 -28,0 -50,-22 -50,-48 v -92 h -200 v 88 c 0,138 110,252 250,252 z"
     inkscape:connector-curvature="0"
     style="opacity:1;stop-opacity:1" />
  <path
     id="path895"
     d="m 14940,6092 c 240,0 260,-220 260,-320 h -200 c 0,76 -26,248 -300,246 82,62 162,74 240,74 z m -240,-300 h 500 v -200 h -500 z m 300,-80 h 200 v -420 h -200 z m 0,-400 h 200 v -120 c -46,60 -118,100 -200,100 z m -100,300 v -20 c 0,-56 44,-100 100,-100 h 20 v -200 h -20 c -166,0 -300,134 -300,300 v 20 z"
     inkscape:connector-curvature="0"
     style="opacity:1;stop-opacity:1" />
  <path
     id="path2411"
     d="m 15040,5592 v 200 h 240 v -200 z"
     style="opacity:1;stop-opacity:1" />
  <path
     id="path2409"
     d="m 15100,5592 v 200 h 240 v -200 z"
     style="opacity:1;stop-opacity:1" />
  <path
     id="path2407"
     d="m 15500,3832 v -440 c -60,136 -170,240 -300,300 6,0 100,2 100,100 v 40 z"
     style="opacity:1;stop-opacity:1" />
  <path
     inkscape:connector-curvature="0"
     id="path2401"
     d="M 15500,5792 V 4148.8769 h -200 V 5792 Z"
     style="opacity:1;stroke-width:1.5321;stop-opacity:1" />
  <path
     id="path897"
     d="m 15500,4292 v -500 h -200 v 500 z"
     style="opacity:1;stop-opacity:1" />
  <path
     inkscape:connector-curvature="0"
     id="path899"
     d="" />
  <path
     inkscape:connector-curvature="0"
     id="path909"
     d="" />
  <path
     inkscape:connector-curvature="0"
     id="path923"
     d="" />
  <path
     inkscape:connector-curvature="0"
     id="path933"
     d="" />
  <path
     inkscape:connector-curvature="0"
     id="path941"
     d="" />
  <path
     id="path901"
     d="m 1244,2902 c 0,-192 -82,-302 -200,-502 0,122 -28,218 -100,300 62,64 90,140 100,200 26,144 -74,268 -200,270 162,86 400,-24 400,-268 z"
     inkscape:connector-curvature="0"
     style="opacity:1;stop-opacity:1" />
  <path
     id="path2327"
     d="m 1344,2860 v 340 c 46,-116 170,-200 300,-200 0,0 -100,0 -100,-100 v -40 z"
     style="opacity:1;stop-opacity:1" />
  <path
     inkscape:connector-curvature="0"
     id="path2325"
     d="m 1344,940 h 200 v -40 c 0,-98 94,-100 100,-100 -130,-60 -240,-164 -300,-300 z"
     style="opacity:1;stop-opacity:1" />
  <path
     id="path2319"
     d="m 1344,1400 h 200 V 900 h -200 z"
     style="opacity:1;stop-opacity:1" />
  <path
     inkscape:connector-curvature="0"
     id="path2317"
     d="m 1344,2500 h 200 V 1281.696 h -200 z"
     style="opacity:1;stroke-width:2.0152;stop-opacity:1" />
  <path
     id="path2315"
     d="m 2694,3200 c 138,0 250,-114 250,-252 v -88 h -200 v 92 c 0,26 -22,48 -50,48 -28,0 -50,-22 -50,-48 v -92 h -200 v 88 c 0,138 110,252 250,252 z"
     style="opacity:1;stop-opacity:1" />
  <path
     id="path2313"
     d="m 2744,2900 h 200 v -500 h -200 z"
     style="opacity:1;stop-opacity:1" />
  <path
     id="path2311"
     d="m 1344,2400 v 200 h 1600 v -200 z"
     style="opacity:1;stop-opacity:1" />
  <path
     id="path903"
     d="M 1344,2900 H 2644 V 2700 H 1344 Z"
     style="opacity:1;stop-opacity:1" />
  <path
     id="path905"
     d="m 3144,1900 c 56,0 100,-44 100,-100 0,-56 -44,-100 -100,-100 -56,0 -100,44 -100,100 0,56 44,100 100,100 z m 300,0 c 56,0 100,-44 100,-100 0,-56 -44,-100 -100,-100 -56,0 -100,44 -100,100 0,56 44,100 100,100 z"
     style="opacity:1;fill:#d22e1f;fill-opacity:1;stop-opacity:1"
     inkscape:connector-curvature="0" />
  <path
     id="path907"
     d="m 2844,2900 h 700 v -200 h -700 z m 500,0 h 200 v -400 h -200 z m 0,-400 h 200 v -400 h -200 z m -300,100 h 500 v -200 h -500 z m 300,-480 h 200 v -120 c -46,60 -118,100 -200,100 z m -100,300 v -20 c 0,-56 44,-100 100,-100 h 20 v -200 h -20 c -166,0 -300,134 -300,300 v 20 z"
     inkscape:connector-curvature="0"
     style="opacity:1;stop-opacity:1" />
  <path
     id="path911"
     d="m 4468,2900 h 348 l -174,-300 z m 0,0 h 116 v -200 h -116 z m -714,-642 170,-100 -10,-18 c -26,-48 -14,-114 36,-136 l 22,-10 -100,-174 -18,10 c -146,80 -190,266 -110,410 z m 150,-786 h 200 V 900 h -200 z m 328,1218 -376,-650 -102,218 14,24 82,144 60,102 98,170 32,56 c 40,68 44,94 44,120 0,94 -76,170 -170,170 -94,0 -170,-76 -170,-170 0,-30 0,-58 34,-116 l 120,-210 -58,-102 -140,244 c -32,54 -56,116 -56,184 0,180 144,326 324,326 180,0 320,-146 320,-326 0,-68 -20,-132 -56,-184 z m -256,-484 60,102 244,-428 c 164,-306 -28,-550 -376,-482 v 102 c 284,-64 412,102 288,332 z m -122,-376 158,274 114,-198 -120,-206 c -40,46 -84,92 -152,130 z m 240,418 374,652 116,-200 -376,-652 z M 3904,940 h 200 v -40 c 0,-98 94,-100 100,-100 -130,-60 -240,-164 -300,-300 z"
     inkscape:connector-curvature="0"
     style="opacity:1;stop-opacity:1" />
  <path
     id="path913"
     d="m 5056,3200 c 240,0 260,-220 260,-320 h -200 c 0,76 -26,248 -300,246 82,62 162,74 240,74 z m -240,-300 h 500 v -200 h -500 z m 300,-80 h 200 v -420 h -200 z m 0,-400 h 200 v -120 c -46,60 -118,100 -200,100 z m -100,300 v -20 c 0,-56 44,-100 100,-100 h 20 v -200 h -20 c -166,0 -300,134 -300,300 v 20 z"
     inkscape:connector-curvature="0"
     style="opacity:1;stop-opacity:1" />
  <path
     id="path915"
     d="m 5216,2700 v 200 h 208 v -200 z m 788,-512 c 78,14 150,44 212,88 -8,-214 -110,-376 -300,-376 v 200 c 44,0 74,28 88,88 z m -588,712 h 240 c 202,0 400,-154 498,-350 -38,-58 -96,-102 -166,-120 -52,132 -182,270 -372,270 h -200 z m 520,-70 c 74,44 156,70 240,70 h 240 v -200 h -200 c -44,0 -84,-8 -122,-20 -46,60 -100,110 -158,150 z m -32,-294 c -58,-76 -88,-166 -88,-236 0,-140 36,-200 100,-200 v -200 c -198,0 -300,174 -300,400 0,124 50,250 128,356 62,-24 116,-66 160,-120 z m -60,-330 c -6,24 -8,56 -8,94 0,32 8,70 20,106 20,-4 40,-6 60,-6 166,0 300,134 300,300 h 200 c 0,-276 -224,-500 -500,-500 -24,0 -48,2 -72,6 z m -428,494 h 200 c 0,-54 14,-106 40,-150 -36,-78 -58,-158 -60,-234 -110,92 -180,230 -180,384 z"
     inkscape:connector-curvature="0"
     style="opacity:1;stop-opacity:1" />
  <path
     id="path917"
     d="M 6716,1400 V 900 h -200 v 500 z m 0,1500 v -700 h -200 v 700 z m 0,-988 c -34,90 -108,162 -200,192 v 196 h 200 z m -300,188 c 166,0 300,-134 300,-300 v -500 h -200 v 500 c 0,56 -44,100 -100,100 -56,0 -100,-44 -100,-100 0,-56 44,-100 100,-100 32,0 62,14 80,38 v -228 c -26,-6 -52,-10 -80,-10 -166,0 -300,134 -300,300 0,166 134,300 300,300 z M 6716,940 V 500 c -60,136 -170,240 -300,300 6,0 100,2 100,100 v 40 z m -400,1760 v 200 h 240 v -200 z m -60,0 v 200 h 240 v -200 z"
     inkscape:connector-curvature="0"
     style="opacity:1;stop-opacity:1" />
  <path
     id="path919"
     d="m 7216,2700 h -300 v 200 h 300 z M 6816,1400 h 200 V 900 h -200 z m 0,1500 h 200 v -700 h -200 z m 0,-988 v 388 h 200 v -196 c -92,-30 -166,-102 -200,-192 z m 300,188 c 166,0 300,-134 300,-300 0,-166 -134,-300 -300,-300 -28,0 -54,4 -80,10 v 228 c 18,-24 48,-38 80,-38 56,0 100,44 100,100 0,56 -44,100 -100,100 -56,0 -100,-44 -100,-100 v -500 h -200 v 500 c 0,166 134,300 300,300 z M 6816,940 h 200 v -40 c 0,-98 94,-100 100,-100 -130,-60 -240,-164 -300,-300 z m 360,1960 h 340 c -116,-46 -200,-170 -200,-300 0,0 0,100 -100,100 h -40 z"
     inkscape:connector-curvature="0"
     style="opacity:1;stop-opacity:1" />
  <path
     id="path921"
     d="m 7756,3200 c 240,0 260,-220 260,-320 h -200 c 0,76 -26,248 -300,246 82,62 162,74 240,74 z m -240,-300 h 500 v -200 h -500 z m 300,-80 h 200 v -420 h -200 z m 0,-400 h 200 v -120 c -46,60 -118,100 -200,100 z m -100,300 v -20 c 0,-56 44,-100 100,-100 h 20 v -200 h -20 c -166,0 -300,134 -300,300 v 20 z"
     inkscape:connector-curvature="0"
     style="opacity:1;stop-opacity:1" />
  <path
     id="path925"
     d="m 8016,2900 h 120 v -200 h -20 c 0,82 -40,154 -100,200 z m 400,-100 h 200 v -400 h -200 z m -300,100 h 500 v -200 h -500 z m 300,-480 h 200 v -120 c -46,60 -118,100 -200,100 z m -100,300 v -20 c 0,-56 44,-100 100,-100 h 20 v -200 h -20 c -166,0 -300,134 -300,300 v 20 z M 8616,1400 V 900 h -200 v 500 z m 0,1500 v -700 h -200 v 700 z m 0,-988 c -34,90 -108,162 -200,192 v 196 h 200 z m -300,188 c 166,0 300,-134 300,-300 v -500 h -200 v 500 c 0,56 -44,100 -100,100 -56,0 -100,-44 -100,-100 0,-56 44,-100 100,-100 32,0 62,14 80,38 v -228 c -26,-6 -52,-10 -80,-10 -166,0 -300,134 -300,300 0,166 134,300 300,300 z M 8616,940 V 500 c -60,136 -170,240 -300,300 6,0 100,2 100,100 v 40 z"
     inkscape:connector-curvature="0"
     style="opacity:1;stop-opacity:1" />
  <path
     id="path927"
     d="m 9116,2700 h -300 v 200 h 300 z M 8716,1400 h 200 V 900 h -200 z m 0,1500 h 200 v -700 h -200 z m 0,-988 v 388 h 200 v -196 c -92,-30 -166,-102 -200,-192 z m 300,188 c 166,0 300,-134 300,-300 0,-166 -134,-300 -300,-300 -28,0 -54,4 -80,10 v 228 c 18,-24 48,-38 80,-38 56,0 100,44 100,100 0,56 -44,100 -100,100 -56,0 -100,-44 -100,-100 v -500 h -200 v 500 c 0,166 134,300 300,300 z M 8716,940 h 200 v -40 c 0,-98 94,-100 100,-100 -130,-60 -240,-164 -300,-300 z m 360,1960 h 340 c -116,-46 -200,-170 -200,-300 0,0 0,100 -100,100 h -40 z"
     inkscape:connector-curvature="0"
     style="opacity:1;stop-opacity:1" />
  <path
     id="path929"
     d="m 9656,3200 c 240,0 260,-220 260,-320 h -200 c 0,76 -26,248 -300,246 82,62 162,74 240,74 z m -240,-300 h 500 v -200 h -500 z m 300,-80 h 200 v -420 h -200 z m 0,-400 h 200 v -120 c -46,60 -118,100 -200,100 z m -100,300 v -20 c 0,-56 44,-100 100,-100 h 20 v -200 h -20 c -166,0 -300,134 -300,300 v 20 z"
     inkscape:connector-curvature="0"
     style="opacity:1;stop-opacity:1" />
  <path
     id="path931"
     d="m 10236,2900 h -20 v -200 h 20 z m 80,0 h 200 v -626 h -200 z m 600,0 c -60,-46 -100,-118 -100,-200 h -20 v 200 z m -1100,0 h 1000 V 2700 H 9816 Z m 500,-200 v -20 h 200 v 20 z m 200,200 v 20 h -200 v -20 z m 20,-360 c 48,36 80,94 80,160 0,30 -6,56 -18,82 l 210,-4 c 6,-26 8,-52 8,-78 0,-178 -118,-330 -280,-382 z m -520,360 h 200 v -200 c 0,-66 32,-124 80,-160 v -222 c -162,52 -280,204 -280,382 z m 500,-592 v -208 c 0,-84 -42,-124 -122,-124 h -158 c 14,50 14,150 0,200 60,0 80,20 80,78 v 54 z m -250,892 c 138,0 250,-114 250,-252 v -88 h -200 v 92 c 0,26 -22,48 -50,48 -28,0 -50,-22 -50,-48 v -92 h -200 v 88 c 0,138 110,252 250,252 z"
     inkscape:connector-curvature="0"
     style="opacity:1;stop-opacity:1" />
  <path
     id="path935"
     d="m 11740,2900 h 116 v -200 h -116 z m -714,-642 170,-100 -10,-18 c -26,-48 -14,-114 36,-136 l 22,-10 -100,-174 -18,10 c -146,80 -190,266 -110,410 z m 150,-786 h 200 V 900 h -200 z m 328,1218 -376,-650 -102,218 14,24 82,144 60,102 98,170 32,56 c 40,68 44,94 44,120 0,94 -76,170 -170,170 -94,0 -170,-76 -170,-170 0,-30 0,-58 34,-116 l 120,-210 -58,-102 -140,244 c -32,54 -56,116 -56,184 0,180 144,326 324,326 180,0 320,-146 320,-326 0,-68 -20,-132 -56,-184 z m -256,-484 60,102 244,-428 c 164,-306 -28,-550 -376,-482 v 102 c 284,-64 412,102 288,332 z m -122,-376 158,274 114,-198 -120,-206 c -40,46 -84,92 -152,130 z m 240,418 374,652 116,-200 -376,-652 z m 10,-1308 V 500 c -60,136 -170,240 -300,300 6,0 100,2 100,100 v 40 z"
     inkscape:connector-curvature="0"
     style="opacity:1;stop-opacity:1" />
  <path
     id="path937"
     d="m 12206,1900 c 56,0 100,-44 100,-100 0,-56 -44,-100 -100,-100 -56,0 -100,44 -100,100 0,56 44,100 100,100 z"
     style="opacity:1;fill:#d22e1f;fill-opacity:1;stop-opacity:1"
     inkscape:connector-curvature="0" />
  <path
     id="path939"
     d="m 11756,2900 h 700 v -200 h -700 z m 500,0 h 200 v -400 h -200 z m 0,-400 h 200 v -400 h -200 z m -300,100 h 500 v -200 h -500 z m 300,-480 h 200 v -120 c -46,60 -118,100 -200,100 z m -100,300 v -20 c 0,-56 44,-100 100,-100 h 20 v -200 h -20 c -166,0 -300,134 -300,300 v 20 z"
     inkscape:connector-curvature="0"
     style="opacity:1;stop-opacity:1" />
  <path
     id="path943"
     d="m 12856,2900 h 200 V 1600 h -200 z m -300,0 h 200 V 1900 h -200 z m -18,300 c 120,0 218,-88 218,-254 v -246 h -200 v 262 c 0,154 -120,196 -200,138 40,60 106,100 182,100 z m 338,-1400 v -200 h -20 c -166,0 -300,134 -300,300 v 20 h 200 v -20 c 0,-56 44,-100 100,-100 z"
     inkscape:connector-curvature="0"
     style="opacity:1;stop-opacity:1" />
  <path
     id="path945"
     d="m 12956,2900 h 252 v -200 h -252 z m 450,-50 c -28,0 -50,-22 -50,-50 0,-28 22,-50 50,-50 28,0 50,22 50,50 0,28 -22,50 -50,50 z m -250,-50 c 0,138 112,250 250,250 138,0 250,-112 250,-250 0,-26 -2,-54 -18,-104 -38,-122 -168,-212 -232,-246 0,52 -56,104 -84,114 -96,34 -166,128 -166,236 z"
     inkscape:connector-curvature="0"
     style="opacity:1;stop-opacity:1" />
  <path
     id="path947"
     d="m 13912,1856 c -4,-24 -12,-40 -38,-50 12,-22 10,-50 -4,-72 -4,28 -16,50 -58,72 -50,24 -70,74 -54,128 h -32 v 66 h 258 c -38,-16 -66,-56 -66,-100 -8,18 -26,34 -48,34 -26,0 -50,-24 -50,-50 0,-28 24,-50 50,-50 18,0 34,8 42,22 z"
     inkscape:connector-curvature="0"
     style="opacity:1;stop-opacity:1" />
  <path
     id="path949"
     d="m 13556,2900 h 400 v -500 h -200 v 300 h -200 z m 400,-460 v -340 c -46,116 -170,200 -300,200 0,0 100,0 100,100 v 40 z"
     inkscape:connector-curvature="0"
     style="opacity:1;stop-opacity:1" />
  <path
     id="path951"
     d="m 13956,2900 h 120 v -200 h -20 c 0,82 -40,154 -100,200 z m 400,300 v -400 h -100 v 100 c 0,92 30,248 100,300 z m 0,0 c 70,-52 100,-208 100,-300 v -100 h -100 z m -300,-300 h 600 v -200 h -600 z m 580,0 h 120 c -60,-46 -100,-118 -100,-200 h -20 z m -580,-100 h 600 v -100 c 0,-76 -28,-148 -76,-200 -40,58 -100,100 -172,114 30,18 48,50 48,86 0,56 -44,100 -100,100 -56,0 -100,-44 -100,-100 0,-56 44,-100 100,-100 138,0 250,-114 250,-250 0,-52 -12,-100 -38,-144 -82,18 -154,46 -196,78 22,24 34,48 34,68 0,26 -22,48 -50,48 -166,0 -300,134 -300,300 z m 80,-332 c 48,-46 112,-78 182,-86 -8,-8 -12,-20 -12,-32 0,-58 98,-140 300,-170 V 900 h -200 v 1140 c -182,46 -300,140 -300,310 0,42 10,84 30,118 z m -2,-286 c 38,-58 102,-104 190,-138 l -18,-4 V 900 h -200 v 1280 c 10,0 18,0 28,2 z M 14306,940 V 500 c -60,136 -170,240 -300,300 6,0 100,2 100,100 v 40 z m 100,0 h 200 v -40 c 0,-98 94,-100 100,-100 -130,-60 -240,-164 -300,-300 z"
     inkscape:connector-curvature="0"
     style="opacity:1;stop-opacity:1" />
  <path
     id="path2421"
     d="m 14756,940 h 200 v -40 c 0,-98 94,-100 100,-100 -130,-60 -240,-164 -300,-300 z"
     style="opacity:1;stop-opacity:1" />
  <path
     inkscape:connector-curvature="0"
     id="path2415"
     d="m 14756,2900 h 200 V 1306.515 h -200 z"
     style="opacity:1;stroke-width:1.50878;stop-opacity:1" />
  <path
     id="path953"
     d="m 14756,1400 h 200 V 900 h -200 z"
     style="opacity:1;stop-opacity:1" />
  <path
     id="path955"
     d="m 14856,3200 c 56,0 100,-44 100,-100 0,-56 -44,-100 -100,-100 -56,0 -100,44 -100,100 0,56 44,100 100,100 z m 300,0 c 56,0 100,-44 100,-100 0,-56 -44,-100 -100,-100 -56,0 -100,44 -100,100 0,56 44,100 100,100 z"
     style="opacity:1;fill:#d22e1f;fill-opacity:1;stop-opacity:1"
     inkscape:connector-curvature="0" />
  <path
     id="path957"
     d="m 14856,2900 h 400 v -500 h -200 v 300 h -200 z m 400,-460 v -340 c -46,116 -170,200 -300,200 0,0 100,0 100,100 v 40 z"
     inkscape:connector-curvature="0"
     style="opacity:1;stop-opacity:1" />
</svg>
