<svg xmlns="http://www.w3.org/2000/svg" version="1.1" width="31678" height="3700" viewBox="-500 -500 31678 3700"><path transform="translate(200,2400)" d="M-62,300C156,300,200,158,200,0L200,-100L0,-100L0,0C2,84,2,268,-200,270C-170,288,-108,300,-62,300ZM300,-100L500,-100L500,-500L300,-500ZM0,0L500,0L500,-200L0,-200ZM300,-480L500,-480L500,-600C454,-540,382,-500,300,-500ZM200,-180L200,-200C200,-256,244,-300,300,-300L320,-300L320,-500L300,-500C134,-500,0,-366,0,-200L0,-180Z"></path><path transform="translate(700,2400)" d="M300,0L300,-2000L100,-2000L100,0ZM300,-1960L300,-2400C240,-2264,130,-2160,0,-2100C6,-2100,100,-2098,100,-2000L100,-1960ZM-100,-200L-100,0L140,0L140,-200ZM-160,-200L-160,0L80,0L80,-200Z"></path><path transform="translate(950,1400)" style="fill:#d22e1f;fill-opacity:1" d="M100,0C156,0,200,-44,200,-100C200,-156,156,-200,100,-200C44,-200,0,-156,0,-100C0,-44,44,0,100,0ZM400,0C456,0,500,-44,500,-100C500,-156,456,-200,400,-200C344,-200,300,-156,300,-100C300,-44,344,0,400,0Z"></path><path transform="translate(1000,2400)" d="M-100,0L300,0L300,-500L100,-500L100,-200L-100,-200ZM300,-460L300,-800C254,-684,130,-600,0,-600C0,-600,100,-600,100,-500L100,-460Z"></path><path transform="translate(1300,2400)" d=""></path><path transform="translate(1400,2400)" d="M-62,300C156,300,200,158,200,0L200,-100L0,-100L0,0C2,84,2,268,-200,270C-170,288,-108,300,-62,300ZM300,-100L500,-100L500,-500L300,-500ZM0,0L500,0L500,-200L0,-200ZM300,-480L500,-480L500,-600C454,-540,382,-500,300,-500ZM200,-180L200,-200C200,-256,244,-300,300,-300L320,-300L320,-500L300,-500C134,-500,0,-366,0,-200L0,-180Z"></path><path transform="translate(1900,2400)" d="M100,0L300,0L300,-2000L100,-2000ZM100,-1960L300,-1960L300,-2000C300,-2098,394,-2100,400,-2100C270,-2160,160,-2264,100,-2400ZM-100,-200L-100,0L140,0L140,-200ZM-160,-200L-160,0L80,0L80,-200Z"></path><path transform="translate(2300,2400)" d="M240,300C480,300,500,80,500,-20L300,-20C300,56,274,228,0,226C82,288,162,300,240,300ZM0,0L500,0L500,-200L0,-200ZM300,-80L500,-80L500,-500L300,-500ZM300,-480L500,-480L500,-600C454,-540,382,-500,300,-500ZM200,-180L200,-200C200,-256,244,-300,300,-300L320,-300L320,-500L300,-500C134,-500,0,-366,0,-200L0,-180Z"></path><path transform="translate(2800,2400)" d=""></path><path transform="translate(2800,2400)" d="M300,0L600,0L600,-200L300,-200ZM900,-1500L900,-2000L700,-2000L700,-1500ZM900,0L900,-700L700,-700L700,0ZM900,-988C866,-898,792,-826,700,-796L700,-600L900,-600ZM600,-800C766,-800,900,-934,900,-1100L900,-1600L700,-1600L700,-1100C700,-1044,656,-1000,600,-1000C544,-1000,500,-1044,500,-1100C500,-1156,544,-1200,600,-1200C632,-1200,662,-1186,680,-1162L680,-1390C654,-1396,628,-1400,600,-1400C434,-1400,300,-1266,300,-1100C300,-934,434,-800,600,-800ZM900,-1960L900,-2400C840,-2264,730,-2160,600,-2100C606,-2100,700,-2098,700,-2000L700,-1960ZM650,300C788,300,900,186,900,48L900,-40L700,-40L700,52C700,78,678,100,650,100C622,100,600,78,600,52L600,-40L400,-40L400,48C400,186,510,300,650,300ZM340,0L340,-200L300,-200C200,-200,200,-300,200,-300C200,-170,116,-46,0,0Z"></path><path transform="translate(4500,1400)" style="fill:#d22e1f;fill-opacity:1" d="M100,0C156,0,200,-44,200,-100C200,-156,156,-200,100,-200C44,-200,0,-156,0,-100C0,-44,44,0,100,0Z"></path><path transform="translate(3800,2400)" d="M1400,0L1600,0L1600,-500L1400,-500ZM0,-500L0,-300L1300,-300L1300,-500ZM0,0L1300,0L1300,-200L0,-200ZM1350,-800C1210,-800,1100,-686,1100,-548L1100,-460L1300,-460L1300,-552C1300,-578,1322,-600,1350,-600C1378,-600,1400,-578,1400,-552L1400,-460L1600,-460L1600,-548C1600,-686,1488,-800,1350,-800ZM1350,300C1488,300,1600,186,1600,48L1600,-40L1400,-40L1400,52C1400,78,1378,100,1350,100C1322,100,1300,78,1300,52L1300,-40L1100,-40L1100,48C1100,186,1210,300,1350,300ZM0,-400L200,-400L200,-700L0,-700ZM0,-1500L200,-1500L200,-2000L0,-2000ZM0,-988L0,-600L200,-600L200,-796C108,-826,34,-898,0,-988ZM300,-800C466,-800,600,-934,600,-1100C600,-1266,466,-1400,300,-1400C272,-1400,246,-1396,220,-1390L220,-1162C238,-1186,268,-1200,300,-1200C356,-1200,400,-1156,400,-1100C400,-1044,356,-1000,300,-1000C244,-1000,200,-1044,200,-1100L200,-1600L0,-1600L0,-1100C0,-934,134,-800,300,-800ZM0,-1960L200,-1960L200,-2000C200,-2098,294,-2100,300,-2100C170,-2160,60,-2264,0,-2400ZM0,-40L0,300C46,184,170,100,300,100C300,100,200,100,200,0L200,-40Z"></path><path transform="translate(5400,2400)" d="M-100,0L480,0L480,-200L-100,-200ZM560,300C430,52,512,-144,666,-264C800,-368,970,-400,1100,-400L874,-576C628,-524,484,-388,408,-272C260,-46,356,238,560,300ZM700,0L1100,0L1100,-200L700,-200ZM100,-400L420,-500C462,-536,500,-562,550,-572C556,-608,564,-616,600,-642C636,-616,644,-608,650,-572C700,-562,738,-536,780,-500L1100,-400C1046,-616,834,-776,600,-776C366,-776,154,-616,100,-400ZM438,-750L762,-750C762,-876,600,-880,600,-1000C600,-880,438,-876,438,-750ZM100,-400C196,-400,318,-386,428,-334C472,-388,524,-436,582,-476C502,-526,408,-562,306,-582ZM614,-188C712,-68,746,100,640,300C844,238,940,-46,792,-272C784,-282,778,-294,768,-306C714,-276,660,-240,614,-188Z"></path><path transform="translate(6450,1400)" style="fill:#d22e1f;fill-opacity:1" d="M100,0C156,0,200,-44,200,-100C200,-156,156,-200,100,-200C44,-200,0,-156,0,-100C0,-44,44,0,100,0ZM400,0C456,0,500,-44,500,-100C500,-156,456,-200,400,-200C344,-200,300,-156,300,-100C300,-44,344,0,400,0Z"></path><path transform="translate(6500,2400)" d="M-100,0L300,0L300,-500L100,-500L100,-200L-100,-200ZM300,-460L300,-800C254,-684,130,-600,0,-600C0,-600,100,-600,100,-500L100,-460Z"></path><path transform="translate(6800,2400)" d=""></path><path transform="translate(6900,2400)" d="M-62,300C156,300,200,158,200,0L200,-100L0,-100L0,0C2,84,2,268,-200,270C-170,288,-108,300,-62,300ZM300,-100L500,-100L500,-500L300,-500ZM0,0L500,0L500,-200L0,-200ZM300,-480L500,-480L500,-600C454,-540,382,-500,300,-500ZM200,-180L200,-200C200,-256,244,-300,300,-300L320,-300L320,-500L300,-500C134,-500,0,-366,0,-200L0,-180Z"></path><path transform="translate(7400,2400)" d="M300,-1500L300,-2000L100,-2000L100,-1500ZM300,0L300,-700L100,-700L100,0ZM300,-988C266,-898,192,-826,100,-796L100,-600L300,-600ZM0,-800C166,-800,300,-934,300,-1100L300,-1600L100,-1600L100,-1100C100,-1044,56,-1000,0,-1000C-56,-1000,-100,-1044,-100,-1100C-100,-1156,-56,-1200,0,-1200C32,-1200,62,-1186,80,-1162L80,-1390C54,-1396,28,-1400,0,-1400C-166,-1400,-300,-1266,-300,-1100C-300,-934,-166,-800,0,-800ZM300,-1960L300,-2400C240,-2264,130,-2160,0,-2100C6,-2100,100,-2098,100,-2000L100,-1960ZM-100,-200L-100,0L140,0L140,-200ZM-160,-200L-160,0L80,0L80,-200Z"></path><path transform="translate(7700,2400)" d=""></path><path transform="translate(7800,2400)" d="M0,0L1300,0L1300,-200L0,-200ZM0,-500L0,-300L1600,-300L1600,-500ZM1400,0L1600,0L1600,-500L1400,-500ZM1350,300C1488,300,1600,186,1600,48L1600,-40L1400,-40L1400,52C1400,78,1378,100,1350,100C1322,100,1300,78,1300,52L1300,-40L1100,-40L1100,48C1100,186,1210,300,1350,300ZM0,-400L200,-400L200,-700L0,-700ZM0,-1500L200,-1500L200,-2000L0,-2000ZM0,-988L0,-600L200,-600L200,-796C108,-826,34,-898,0,-988ZM300,-800C466,-800,600,-934,600,-1100C600,-1266,466,-1400,300,-1400C272,-1400,246,-1396,220,-1390L220,-1162C238,-1186,268,-1200,300,-1200C356,-1200,400,-1156,400,-1100C400,-1044,356,-1000,300,-1000C244,-1000,200,-1044,200,-1100L200,-1600L0,-1600L0,-1100C0,-934,134,-800,300,-800ZM0,-1960L200,-1960L200,-2000C200,-2098,294,-2100,300,-2100C170,-2160,60,-2264,0,-2400ZM0,-40L0,300C46,184,170,100,300,100C300,100,200,100,200,0L200,-40Z"></path><path transform="translate(9550,2700)" style="fill:#d22e1f;fill-opacity:1" d="M100,0C156,0,200,-44,200,-100C200,-156,156,-200,100,-200C44,-200,0,-156,0,-100C0,-44,44,0,100,0Z"></path><path transform="translate(9400,2400)" d="M400,0L600,0L600,-200L400,-200ZM176,-180L478,-180C384,-202,322,-254,322,-362C322,-472,400,-600,400,-754C400,-940,256,-1100,80,-1100L-300,-1100C-226,-1000,-194,-900,-200,-800C-184,-832,-128,-900,-50,-900C-24,-900,-14,-900,20,-900C106,-900,200,-838,200,-752C200,-624,118,-522,118,-362C118,-272,142,-216,176,-180ZM-100,0L400,0L400,-200L-100,-200ZM560,0L900,0C784,-46,700,-170,700,-300C700,-300,700,-200,600,-200L560,-200Z"></path><path transform="translate(10300,2400)" d="M240,300C480,300,500,80,500,-20L300,-20C300,56,274,228,0,226C82,288,162,300,240,300ZM0,0L500,0L500,-200L0,-200ZM300,-80L500,-80L500,-500L300,-500ZM300,-480L500,-480L500,-600C454,-540,382,-500,300,-500ZM200,-180L200,-200C200,-256,244,-300,300,-300L320,-300L320,-500L300,-500C134,-500,0,-366,0,-200L0,-180Z"></path><path transform="translate(10800,2400)" d="M300,-1500L300,-2000L100,-2000L100,-1500ZM300,0L300,-700L100,-700L100,0ZM300,-988C266,-898,192,-826,100,-796L100,-600L300,-600ZM0,-800C166,-800,300,-934,300,-1100L300,-1600L100,-1600L100,-1100C100,-1044,56,-1000,0,-1000C-56,-1000,-100,-1044,-100,-1100C-100,-1156,-56,-1200,0,-1200C32,-1200,62,-1186,80,-1162L80,-1390C54,-1396,28,-1400,0,-1400C-166,-1400,-300,-1266,-300,-1100C-300,-934,-166,-800,0,-800ZM300,-1960L300,-2400C240,-2264,130,-2160,0,-2100C6,-2100,100,-2098,100,-2000L100,-1960ZM-100,-200L-100,0L140,0L140,-200ZM-160,-200L-160,0L80,0L80,-200Z"></path><path transform="translate(11200,2400)" d="M0,-1500L200,-1500L200,-2000L0,-2000ZM0,0L200,0L200,-700L0,-700ZM0,-988L0,-600L200,-600L200,-796C108,-826,34,-898,0,-988ZM300,-800C466,-800,600,-934,600,-1100C600,-1266,466,-1400,300,-1400C272,-1400,246,-1396,220,-1390L220,-1162C238,-1186,268,-1200,300,-1200C356,-1200,400,-1156,400,-1100C400,-1044,356,-1000,300,-1000C244,-1000,200,-1044,200,-1100L200,-1600L0,-1600L0,-1100C0,-934,134,-800,300,-800ZM0,-1960L200,-1960L200,-2000C200,-2098,294,-2100,300,-2100C170,-2160,60,-2264,0,-2400Z"></path><path transform="translate(11400,2400)" d=""></path><path transform="translate(11400,2400)" d="M300,0L400,0L400,-200L300,-200ZM300,-300L580,-300L1150,-870L1026,-1026ZM184,-200L184,0L284,0L284,-200ZM200,0L1500,0L1500,-200L200,-200ZM1600,0L1800,0L1800,-500L1600,-500ZM500,-300L1800,-300L1800,-500L500,-500ZM1550,300C1688,300,1800,186,1800,48L1800,-40L1600,-40L1600,52C1600,78,1578,100,1550,100C1522,100,1500,78,1500,52L1500,-40L1300,-40L1300,48C1300,186,1410,300,1550,300ZM950,-870L1150,-870L1150,-2000L950,-2000ZM1150,-1960L1150,-2400C1090,-2264,980,-2160,850,-2100C856,-2100,950,-2098,950,-2000L950,-1960ZM340,0L340,-200L300,-200C200,-200,200,-300,200,-300C200,-170,116,-46,0,0Z"></path><path transform="translate(13450,1400)" style="fill:#d22e1f;fill-opacity:1" d="M100,0C156,0,200,-44,200,-100C200,-156,156,-200,100,-200C44,-200,0,-156,0,-100C0,-44,44,0,100,0Z"></path><path transform="translate(13200,2400)" d="M-100,0L600,0L600,-200L-100,-200ZM400,0L600,0L600,-400L400,-400ZM400,-400L600,-400L600,-800L400,-800ZM100,-300L600,-300L600,-500L100,-500ZM400,-780L600,-780L600,-900C554,-840,482,-800,400,-800ZM300,-480L300,-500C300,-556,344,-600,400,-600L420,-600L420,-800L400,-800C234,-800,100,-666,100,-500L100,-480Z"></path><path transform="translate(14050,1400)" style="fill:#d22e1f;fill-opacity:1" d="M100,0C156,0,200,-44,200,-100C200,-156,156,-200,100,-200C44,-200,0,-156,0,-100C0,-44,44,0,100,0ZM400,0C456,0,500,-44,500,-100C500,-156,456,-200,400,-200C344,-200,300,-156,300,-100C300,-44,344,0,400,0ZM250,-266C306,-266,350,-310,350,-366C350,-422,306,-466,250,-466C194,-466,150,-422,150,-366C150,-310,194,-266,250,-266Z"></path><path transform="translate(13800,2400)" d="M100,0L300,0L300,-632C300,-632,400,-632,400,-532L400,0L600,0L600,-700C600,-700,700,-700,700,-600L700,0L900,0L900,-800C628,-692,266,-606,0,-600C0,-600,100,-600,100,-500ZM-100,0L200,0L200,-200L-100,-200ZM460,0L900,0L900,-200L460,-200ZM350,300C488,300,600,186,600,48L600,-40L400,-40L400,52C400,78,378,100,350,100C322,100,300,78,300,52L300,-40L100,-40L100,48C100,186,210,300,350,300Z"></path><path transform="translate(14800,2400)" d="M240,300C480,300,500,80,500,-20L300,-20C300,56,274,228,0,226C82,288,162,300,240,300ZM0,0L500,0L500,-200L0,-200ZM300,-80L500,-80L500,-500L300,-500ZM300,-480L500,-480L500,-600C454,-540,382,-500,300,-500ZM200,-180L200,-200C200,-256,244,-300,300,-300L320,-300L320,-500L300,-500C134,-500,0,-366,0,-200L0,-180Z"></path><path transform="translate(15300,2400)" d="M300,-1500L300,-2000L100,-2000L100,-1500ZM300,0L300,-700L100,-700L100,0ZM300,-988C266,-898,192,-826,100,-796L100,-600L300,-600ZM0,-800C166,-800,300,-934,300,-1100L300,-1600L100,-1600L100,-1100C100,-1044,56,-1000,0,-1000C-56,-1000,-100,-1044,-100,-1100C-100,-1156,-56,-1200,0,-1200C32,-1200,62,-1186,80,-1162L80,-1390C54,-1396,28,-1400,0,-1400C-166,-1400,-300,-1266,-300,-1100C-300,-934,-166,-800,0,-800ZM300,-1960L300,-2400C240,-2264,130,-2160,0,-2100C6,-2100,100,-2098,100,-2000L100,-1960ZM-100,-200L-100,0L140,0L140,-200ZM-160,-200L-160,0L80,0L80,-200Z"></path><path transform="translate(15600,2400)" d=""></path><path transform="translate(15600,2400)" d="M400,2C400,-190,318,-300,200,-500C200,-378,172,-282,100,-200C162,-136,190,-60,200,0C226,144,126,268,0,270C162,356,400,246,400,2Z"></path><path transform="translate(16100,2400)" d="M0,0L1300,0L1300,-200L0,-200ZM0,-500L0,-300L1600,-300L1600,-500ZM1400,0L1600,0L1600,-500L1400,-500ZM1350,300C1488,300,1600,186,1600,48L1600,-40L1400,-40L1400,52C1400,78,1378,100,1350,100C1322,100,1300,78,1300,52L1300,-40L1100,-40L1100,48C1100,186,1210,300,1350,300ZM0,-400L200,-400L200,-700L0,-700ZM0,-1500L200,-1500L200,-2000L0,-2000ZM0,-988L0,-600L200,-600L200,-796C108,-826,34,-898,0,-988ZM300,-800C466,-800,600,-934,600,-1100C600,-1266,466,-1400,300,-1400C272,-1400,246,-1396,220,-1390L220,-1162C238,-1186,268,-1200,300,-1200C356,-1200,400,-1156,400,-1100C400,-1044,356,-1000,300,-1000C244,-1000,200,-1044,200,-1100L200,-1600L0,-1600L0,-1100C0,-934,134,-800,300,-800ZM0,-1960L200,-1960L200,-2000C200,-2098,294,-2100,300,-2100C170,-2160,60,-2264,0,-2400ZM0,-40L0,300C46,184,170,100,300,100C300,100,200,100,200,0L200,-40Z"></path><path transform="translate(17800,1400)" style="fill:#d22e1f;fill-opacity:1" d="M100,0C156,0,200,-44,200,-100C200,-156,156,-200,100,-200C44,-200,0,-156,0,-100C0,-44,44,0,100,0ZM400,0C456,0,500,-44,500,-100C500,-156,456,-200,400,-200C344,-200,300,-156,300,-100C300,-44,344,0,400,0Z"></path><path transform="translate(17700,2400)" d="M-100,0L600,0L600,-200L-100,-200ZM400,0L600,0L600,-400L400,-400ZM400,-400L600,-400L600,-800L400,-800ZM100,-300L600,-300L600,-500L100,-500ZM400,-780L600,-780L600,-900C554,-840,482,-800,400,-800ZM300,-480L300,-500C300,-556,344,-600,400,-600L420,-600L420,-800L400,-800C234,-800,100,-666,100,-500L100,-480Z"></path><path transform="translate(18300,2400)" d=""></path><path transform="translate(18400,2400)" d="M824,0L1172,0L998,-300ZM824,0L940,0L940,-200L824,-200ZM110,-642L280,-742L270,-760C244,-808,256,-874,306,-896L328,-906L228,-1080L210,-1070C64,-990,20,-804,100,-660ZM260,-1428L460,-1428L460,-2000L260,-2000ZM588,-210L212,-860L110,-642L124,-618L206,-474L266,-372L364,-202L396,-146C436,-78,440,-52,440,-26C440,68,364,144,270,144C176,144,100,68,100,-26C100,-56,100,-84,134,-142L254,-352L196,-454L56,-210C24,-156,0,-94,0,-26C0,154,144,300,324,300C504,300,644,154,644,-26C644,-94,624,-158,588,-210ZM332,-694L392,-592L636,-1020C800,-1326,608,-1570,260,-1502L260,-1400C544,-1464,672,-1298,548,-1068ZM210,-1070L368,-796L482,-994L362,-1200C322,-1154,278,-1108,210,-1070ZM450,-652L824,0L940,-200L564,-852ZM260,-1960L460,-1960L460,-2000C460,-2098,554,-2100,560,-2100C430,-2160,320,-2264,260,-2400Z"></path><path transform="translate(19572,2400)" d="M240,300C480,300,500,80,500,-20L300,-20C300,56,274,228,0,226C82,288,162,300,240,300ZM0,0L500,0L500,-200L0,-200ZM300,-80L500,-80L500,-500L300,-500ZM300,-480L500,-480L500,-600C454,-540,382,-500,300,-500ZM200,-180L200,-200C200,-256,244,-300,300,-300L320,-300L320,-500L300,-500C134,-500,0,-366,0,-200L0,-180Z"></path><path transform="translate(20072,2400)" d="M752,-456L894,-596L660,-830C642,-848,642,-880,662,-900C682,-920,710,-918,730,-900L752,-880L894,-1020L874,-1040C778,-1136,618,-1140,520,-1040C424,-942,424,-784,522,-686ZM850,-668L1086,-902C1104,-920,1134,-920,1154,-900C1174,-880,1174,-850,1156,-832L1134,-808L1274,-668L1294,-688C1392,-786,1396,-942,1296,-1042C1198,-1140,1040,-1138,942,-1040L710,-808ZM1062,-852L922,-710L1500,-132L1714,-200L1104,-200L1108,0L1714,0L1714,-200ZM42,-142L324,-140L682,-498L540,-640ZM-100,0L1038,0C1070,-66,1048,-144,980,-200L-100,-200ZM576,-220L828,-220L1106,-498L964,-640L650,-326C620,-296,594,-260,576,-220ZM552,20C590,180,736,300,908,300C1108,300,1272,136,1272,-66C1272,-168,1230,-260,1162,-326L1062,-426L922,-286L1026,-182C1048,-156,1072,-112,1072,-64C1072,26,998,100,908,100C848,100,794,68,766,20Z"></path><path transform="translate(21786,2400)" d="M300,-1500L300,-2000L100,-2000L100,-1500ZM300,0L300,-700L100,-700L100,0ZM300,-988C266,-898,192,-826,100,-796L100,-600L300,-600ZM0,-800C166,-800,300,-934,300,-1100L300,-1600L100,-1600L100,-1100C100,-1044,56,-1000,0,-1000C-56,-1000,-100,-1044,-100,-1100C-100,-1156,-56,-1200,0,-1200C32,-1200,62,-1186,80,-1162L80,-1390C54,-1396,28,-1400,0,-1400C-166,-1400,-300,-1266,-300,-1100C-300,-934,-166,-800,0,-800ZM300,-1960L300,-2400C240,-2264,130,-2160,0,-2100C6,-2100,100,-2098,100,-2000L100,-1960ZM-100,-200L-100,0L140,0L140,-200ZM-160,-200L-160,0L80,0L80,-200Z"></path><path transform="translate(22186,2400)" d="M400,-200L100,-200L100,0L400,0ZM0,-1500L200,-1500L200,-2000L0,-2000ZM0,0L200,0L200,-700L0,-700ZM0,-988L0,-600L200,-600L200,-796C108,-826,34,-898,0,-988ZM300,-800C466,-800,600,-934,600,-1100C600,-1266,466,-1400,300,-1400C272,-1400,246,-1396,220,-1390L220,-1162C238,-1186,268,-1200,300,-1200C356,-1200,400,-1156,400,-1100C400,-1044,356,-1000,300,-1000C244,-1000,200,-1044,200,-1100L200,-1600L0,-1600L0,-1100C0,-934,134,-800,300,-800ZM0,-1960L200,-1960L200,-2000C200,-2098,294,-2100,300,-2100C170,-2160,60,-2264,0,-2400ZM360,0L700,0C584,-46,500,-170,500,-300C500,-300,500,-200,400,-200L360,-200Z"></path><path transform="translate(22886,2400)" d="M240,300C480,300,500,80,500,-20L300,-20C300,56,274,228,0,226C82,288,162,300,240,300ZM0,0L500,0L500,-200L0,-200ZM300,-80L500,-80L500,-500L300,-500ZM300,-480L500,-480L500,-600C454,-540,382,-500,300,-500ZM200,-180L200,-200C200,-256,244,-300,300,-300L320,-300L320,-500L300,-500C134,-500,0,-366,0,-200L0,-180Z"></path><path transform="translate(23386,2400)" d=""></path><path transform="translate(23386,2400)" d="M0,0L120,0L120,-200L100,-200C100,-118,60,-46,0,0ZM400,-100L600,-100L600,-500L400,-500ZM100,0L600,0L600,-200L100,-200ZM400,-480L600,-480L600,-600C554,-540,482,-500,400,-500ZM300,-180L300,-200C300,-256,344,-300,400,-300L420,-300L420,-500L400,-500C234,-500,100,-366,100,-200L100,-180ZM600,-1500L600,-2000L400,-2000L400,-1500ZM600,0L600,-700L400,-700L400,0ZM600,-988C566,-898,492,-826,400,-796L400,-600L600,-600ZM300,-800C466,-800,600,-934,600,-1100L600,-1600L400,-1600L400,-1100C400,-1044,356,-1000,300,-1000C244,-1000,200,-1044,200,-1100C200,-1156,244,-1200,300,-1200C332,-1200,362,-1186,380,-1162L380,-1390C354,-1396,328,-1400,300,-1400C134,-1400,0,-1266,0,-1100C0,-934,134,-800,300,-800ZM600,-1960L600,-2400C540,-2264,430,-2160,300,-2100C306,-2100,400,-2098,400,-2000L400,-1960Z"></path><path transform="translate(24086,2400)" d="M400,-200L100,-200L100,0L400,0ZM0,-1500L200,-1500L200,-2000L0,-2000ZM0,0L200,0L200,-700L0,-700ZM0,-988L0,-600L200,-600L200,-796C108,-826,34,-898,0,-988ZM300,-800C466,-800,600,-934,600,-1100C600,-1266,466,-1400,300,-1400C272,-1400,246,-1396,220,-1390L220,-1162C238,-1186,268,-1200,300,-1200C356,-1200,400,-1156,400,-1100C400,-1044,356,-1000,300,-1000C244,-1000,200,-1044,200,-1100L200,-1600L0,-1600L0,-1100C0,-934,134,-800,300,-800ZM0,-1960L200,-1960L200,-2000C200,-2098,294,-2100,300,-2100C170,-2160,60,-2264,0,-2400ZM360,0L700,0C584,-46,500,-170,500,-300C500,-300,500,-200,400,-200L360,-200Z"></path><path transform="translate(24786,2400)" d="M240,300C480,300,500,80,500,-20L300,-20C300,56,274,228,0,226C82,288,162,300,240,300ZM0,0L500,0L500,-200L0,-200ZM300,-80L500,-80L500,-500L300,-500ZM300,-480L500,-480L500,-600C454,-540,382,-500,300,-500ZM200,-180L200,-200C200,-256,244,-300,300,-300L320,-300L320,-500L300,-500C134,-500,0,-366,0,-200L0,-180Z"></path><path transform="translate(25286,2400)" d="M822,0L1052,0L596,-792L432,-676ZM-100,-200L-100,0L1052,0L834,-200ZM710,-466L592,-662L210,0L440,0ZM628,-556L504,-722C294,-662,140,-486,140,-256C140,-190,152,-128,176,-70L424,-28C360,-82,320,-164,320,-256C320,-418,468,-550,628,-556ZM616,-758L446,-1052C464,-928,398,-794,286,-728C286,-728,372,-778,422,-692L442,-658Z"></path><path transform="translate(26338,2400)" d=""></path><path transform="translate(26338,2400)" d="M824,0L940,0L940,-200L824,-200ZM110,-642L280,-742L270,-760C244,-808,256,-874,306,-896L328,-906L228,-1080L210,-1070C64,-990,20,-804,100,-660ZM260,-1428L460,-1428L460,-2000L260,-2000ZM588,-210L212,-860L110,-642L124,-618L206,-474L266,-372L364,-202L396,-146C436,-78,440,-52,440,-26C440,68,364,144,270,144C176,144,100,68,100,-26C100,-56,100,-84,134,-142L254,-352L196,-454L56,-210C24,-156,0,-94,0,-26C0,154,144,300,324,300C504,300,644,154,644,-26C644,-94,624,-158,588,-210ZM332,-694L392,-592L636,-1020C800,-1326,608,-1570,260,-1502L260,-1400C544,-1464,672,-1298,548,-1068ZM210,-1070L368,-796L482,-994L362,-1200C322,-1154,278,-1108,210,-1070ZM450,-652L824,0L940,-200L564,-852ZM460,-1960L460,-2400C400,-2264,290,-2160,160,-2100C166,-2100,260,-2098,260,-2000L260,-1960Z"></path><path transform="translate(27528,1400)" style="fill:#d22e1f;fill-opacity:1" d="M100,0C156,0,200,-44,200,-100C200,-156,156,-200,100,-200C44,-200,0,-156,0,-100C0,-44,44,0,100,0Z"></path><path transform="translate(27278,2400)" d="M-100,0L600,0L600,-200L-100,-200ZM400,0L600,0L600,-400L400,-400ZM400,-400L600,-400L600,-800L400,-800ZM100,-300L600,-300L600,-500L100,-500ZM400,-780L600,-780L600,-900C554,-840,482,-800,400,-800ZM300,-480L300,-500C300,-556,344,-600,400,-600L420,-600L420,-800L400,-800C234,-800,100,-666,100,-500L100,-480Z"></path><path transform="translate(27878,2400)" d=""></path><path transform="translate(27878,2400)" d="M400,0L600,0L600,-1300L400,-1300ZM100,0L300,0L300,-1000L100,-1000ZM82,300C202,300,300,212,300,46L300,-200L100,-200L100,62C100,216,-20,258,-100,200C-60,260,6,300,82,300ZM420,-1100L420,-1300L400,-1300C234,-1300,100,-1166,100,-1000L100,-980L300,-980L300,-1000C300,-1056,344,-1100,400,-1100Z"></path><path transform="translate(28478,2400)" d="M-100,0L152,0L152,-200L-100,-200ZM350,-50C322,-50,300,-72,300,-100C300,-128,322,-150,350,-150C378,-150,400,-128,400,-100C400,-72,378,-50,350,-50ZM100,-100C100,38,212,150,350,150C488,150,600,38,600,-100C600,-126,598,-154,582,-204C544,-326,414,-416,350,-450C350,-398,294,-346,266,-336C170,-302,100,-208,100,-100Z"></path><path transform="translate(29148,1500)" d="M186,-144C182,-168,174,-184,148,-194C160,-216,158,-244,144,-266C140,-238,128,-216,86,-194C36,-170,16,-120,32,-66L0,-66L0,0L258,0C220,-16,192,-56,192,-100C184,-82,166,-66,144,-66C118,-66,94,-90,94,-116C94,-144,118,-166,144,-166C162,-166,178,-158,186,-144Z"></path><path transform="translate(29078,2400)" d="M-100,0L300,0L300,-500L100,-500L100,-200L-100,-200ZM300,-460L300,-800C254,-684,130,-600,0,-600C0,-600,100,-600,100,-500L100,-460Z"></path><path transform="translate(29378,2400)" d="M0,0L120,0L120,-200L100,-200C100,-118,60,-46,0,0ZM400,300L400,-100L300,-100L300,0C300,92,330,248,400,300ZM400,300C470,248,500,92,500,0L500,-100L400,-100ZM100,0L700,0L700,-200L100,-200ZM680,0L800,0C740,-46,700,-118,700,-200L680,-200ZM100,-100L700,-100L700,-200C700,-276,672,-348,624,-400C584,-342,524,-300,452,-286C482,-268,500,-236,500,-200C500,-144,456,-100,400,-100C344,-100,300,-144,300,-200C300,-256,344,-300,400,-300C538,-300,650,-414,650,-550C650,-602,638,-650,612,-694C530,-676,458,-648,416,-616C438,-592,450,-568,450,-548C450,-522,428,-500,400,-500C234,-500,100,-366,100,-200ZM180,-432C228,-478,292,-510,362,-518C354,-526,350,-538,350,-550C350,-608,448,-690,650,-720L650,-2000L450,-2000L450,-860C268,-814,150,-720,150,-550C150,-508,160,-466,180,-432ZM178,-718C216,-776,280,-822,368,-856L350,-860L350,-2000L150,-2000L150,-720C160,-720,168,-720,178,-718ZM350,-1960L350,-2400C290,-2264,180,-2160,50,-2100C56,-2100,150,-2098,150,-2000L150,-1960ZM450,-1960L650,-1960L650,-2000C650,-2098,744,-2100,750,-2100C620,-2160,510,-2264,450,-2400Z"></path><path transform="translate(30178,2400)" d="M0,0L200,0L200,-2000L0,-2000ZM0,-1960L200,-1960L200,-2000C200,-2098,294,-2100,300,-2100C170,-2160,60,-2264,0,-2400Z"></path><path transform="translate(30178,2700)" style="fill:#d22e1f;fill-opacity:1" d="M100,0C156,0,200,-44,200,-100C200,-156,156,-200,100,-200C44,-200,0,-156,0,-100C0,-44,44,0,100,0ZM400,0C456,0,500,-44,500,-100C500,-156,456,-200,400,-200C344,-200,300,-156,300,-100C300,-44,344,0,400,0Z"></path><path transform="translate(30378,2400)" d="M-100,0L300,0L300,-500L100,-500L100,-200L-100,-200ZM300,-460L300,-800C254,-684,130,-600,0,-600C0,-600,100,-600,100,-500L100,-460Z"></path></svg>