<?xml version="1.0" encoding="UTF-8" standalone="no"?>
<svg
   xmlns:dc="http://purl.org/dc/elements/1.1/"
   xmlns:cc="http://creativecommons.org/ns#"
   xmlns:rdf="http://www.w3.org/1999/02/22-rdf-syntax-ns#"
   xmlns:svg="http://www.w3.org/2000/svg"
   xmlns="http://www.w3.org/2000/svg"
   xmlns:sodipodi="http://sodipodi.sourceforge.net/DTD/sodipodi-0.dtd"
   xmlns:inkscape="http://www.inkscape.org/namespaces/inkscape"
   inkscape:version="1.0beta1 (32d4812, 2019-09-19)"
   sodipodi:docname="ya-la-1.svg"
   id="svg961"
   viewBox="-500 -500 31390.463 4518.8564"
   height="4518.8564"
   width="31390.463"
   version="1.1">
  <metadata
     id="metadata967">
    <rdf:RDF>
      <cc:Work
         rdf:about="">
        <dc:format>image/svg+xml</dc:format>
        <dc:type
           rdf:resource="http://purl.org/dc/dcmitype/StillImage" />
        <dc:title></dc:title>
      </cc:Work>
    </rdf:RDF>
  </metadata>
  <defs
     id="defs965" />
  <sodipodi:namedview
     lock-margins="true"
     fit-margin-bottom="100"
     fit-margin-right="100"
     fit-margin-top="100"
     fit-margin-left="100"
     inkscape:current-layer="svg961"
     inkscape:window-maximized="0"
     inkscape:window-y="23"
     inkscape:window-x="0"
     inkscape:cy="2259.4282"
     inkscape:cx="15695.231"
     inkscape:zoom="0.061101361"
     showgrid="false"
     id="namedview963"
     inkscape:window-height="771"
     inkscape:window-width="2046"
     inkscape:pageshadow="2"
     inkscape:pageopacity="1"
     guidetolerance="10"
     gridtolerance="10"
     objecttolerance="10"
     borderopacity="1"
     inkscape:document-rotation="0"
     bordercolor="#666666"
     pagecolor="#ffc7c0" />
  <path
     d="m 29657.576,2709.4282 h 400 v -800 c -46,116 -170,200 -300,200 0,0 100,0 100,100 v 300 h -200 z m 200,-1400 c -28,0 -54,4 -80,10 v 228 c 18,-24 48,-38 80,-38 56,0 100,44 100,100 0,56 -44,100 -100,100 -56,0 -100,-44 -100,-100 v -900 c 0,-98 94,-100 100,-100 -130,-60 -240,-164 -300,-300 v 1300 c 0,166 134,300 300,300 166,0 300,-134 300,-300 0,-166 -134,-300 -300,-300 m -300,412 v 988 h 200 v -796 c -92,-30 -166,-102 -200,-192 z m -650,-1012 v 1280 c 10,0 18,0 28,2 38,-58 102,-104 190,-138 l -18,-4 v -1540 c -60,136 -170,240 -300,300 6,0 100,2 100,100 m 0,1450 c 0,42 10,84 30,118 48,-46 112,-78 182,-86 -8,-8 -12,-20 -12,-32 0,-58 98,-140 300,-170 v -1280 c 0,-98 94,-100 100,-100 -130,-60 -240,-164 -300,-300 v 1540 c -182,46 -300,140 -300,310 m 550,350 c 0,-76 -28,-148 -76,-200 -40,58 -100,100 -172,114 30,18 48,50 48,86 h -200 c 0,-56 44,-100 100,-100 138,0 250,-114 250,-250 0,-52 -12,-100 -38,-144 -82,18 -154,46 -196,78 22,24 34,48 34,68 0,26 -22,48 -50,48 -166,0 -300,134 -300,300 0,82 -40,154 -100,200 h 300 c 0,92 30,248 100,300 70,-52 100,-208 100,-300 h 300 c -60,-46 -100,-118 -100,-200 z m -1100,200 h 400 v -800 c -46,116 -170,200 -300,200 0,0 100,0 100,100 v 300 h -200 z m 356,-1044 c -4,-24 -12,-40 -38,-50 12,-22 10,-50 -4,-72 -4,28 -16,50 -58,72 -50,24 -70,74 -54,128 h -32 v 66 h 258 c -38,-16 -66,-56 -66,-100 -8,18 -26,34 -48,34 -26,0 -50,-24 -50,-50 0,-28 24,-50 50,-50 18,0 34,8 42,22 z m -274,840 c -38,-122 -168,-212 -232,-246 0,52 -56,104 -84,114 -64,22 -118,72 -146,136 h -220 v 200 h 220 c 40,88 128,150 230,150 138,0 250,-112 250,-250 0,-26 -2,-54 -18,-104 m -232,154 c -28,0 -50,-22 -50,-50 0,-28 22,-50 50,-50 28,0 50,22 50,50 0,28 -22,50 -50,50 z m -742,-1018 -216,374 60,102 244,-428 c 128,-240 38,-442 -176,-486 v -494 c 0,-98 94,-100 100,-100 -130,-60 -240,-164 -300,-300 v 1000 c 284,-64 412,102 288,332 m -274,314 -4,-6 c -26,-48 -14,-114 36,-136 l 4,-2 58,102 114,-198 -120,-206 c -40,46 -84,92 -152,130 -146,80 -190,266 -110,410 l 10,18 14,24 82,144 60,102 98,170 32,56 c 40,68 44,94 44,120 0,94 -76,170 -170,170 -94,0 -170,-76 -170,-170 0,-30 0,-58 34,-116 l 120,-210 -58,-102 -140,244 c -32,54 -56,116 -56,184 0,180 144,326 324,326 180,0 320,-146 320,-326 0,-68 -20,-132 -56,-184 m -24,-642 -114,200 374,652 h 116 v -200 z m -864,52 c -166,0 -300,134 -300,300 v 200 h 300 v 100 h -500 v 200 h 700 v -900 c -46,60 -118,100 -200,100 m -100,300 c 0,-56 44,-100 100,-100 v 100 z m -980,-1500 v 600 c 284,-64 412,102 288,332 l -216,374 60,102 244,-428 c 128,-240 38,-442 -176,-486 v -894 c -60,136 -170,240 -300,300 6,0 100,2 100,100 m 14,1246 -4,-6 c -26,-48 -14,-114 36,-136 l 4,-2 58,102 114,-198 -120,-206 c -40,46 -84,92 -152,130 -146,80 -190,266 -110,410 l 10,18 14,24 82,144 60,102 98,170 32,56 c 40,68 44,94 44,120 0,94 -76,170 -170,170 -94,0 -170,-76 -170,-170 0,-30 0,-58 34,-116 l 120,-210 -58,-102 -140,244 c -32,54 -56,116 -56,184 0,180 144,326 324,326 180,0 320,-146 320,-326 0,-68 -20,-132 -56,-184 m -24,-642 -114,200 374,652 h 116 v -200 z m -1164,152 v 480 h 200 v -780 c -46,116 -170,200 -300,200 0,0 100,0 100,100 m 0,752 c 0,26 -22,48 -50,48 -28,0 -50,-22 -50,-48 v -252 c 0,-66 32,-124 80,-160 v -222 c -162,52 -280,204 -280,382 h -200 v 200 h 200 v 48 c 0,138 110,252 250,252 138,0 250,-114 250,-252 v -28 h -200 m 500,-220 c 0,-178 -118,-330 -280,-382 v 222 c 48,36 80,94 80,160 h -380 v 200 h 680 c -60,-46 -100,-118 -100,-200 z m -1100,-300 c -166,0 -300,134 -300,300 v 200 h 300 c -6,82 -48,228 -300,226 82,62 162,74 240,74 226,0 256,-194 260,-300 v -600 c -46,60 -118,100 -200,100 m -100,300 c 0,-56 44,-100 100,-100 v 100 z m -200,-1200 c -28,0 -54,4 -80,10 v 228 c 18,-24 48,-38 80,-38 56,0 100,44 100,100 0,56 -44,100 -100,100 -56,0 -100,-44 -100,-100 v -900 c 0,-98 94,-100 100,-100 -130,-60 -240,-164 -300,-300 v 1300 c 0,166 134,300 300,300 166,0 300,-134 300,-300 0,-166 -134,-300 -300,-300 m -300,412 v 988 h 200 v -796 c -92,-30 -166,-102 -200,-192 z m -400,-1112 c 6,0 100,2 100,100 v 900 c 0,56 -44,100 -100,100 -56,0 -100,-44 -100,-100 0,-56 44,-100 100,-100 32,0 62,14 80,38 v -228 c -26,-6 -52,-10 -80,-10 -166,0 -300,134 -300,300 0,166 134,300 300,300 166,0 300,-134 300,-300 v -1300 c -60,136 -170,240 -300,300 m 100,1304 v 296 c -166,0 -300,134 -300,300 0,82 -40,154 -100,200 h 600 v -988 c -34,90 -108,162 -200,192 m -100,596 c 0,-56 44,-100 100,-100 v 100 z m -500,-300 c -166,0 -300,134 -300,300 v 200 h 300 c -6,82 -48,228 -300,226 82,62 162,74 240,74 226,0 256,-194 260,-300 v -600 c -46,60 -118,100 -200,100 m -100,300 c 0,-56 44,-100 100,-100 v 100 z m -200,-1200 c -28,0 -54,4 -80,10 v 228 c 18,-24 48,-38 80,-38 56,0 100,44 100,100 0,56 -44,100 -100,100 -56,0 -100,-44 -100,-100 v -900 c 0,-98 94,-100 100,-100 -130,-60 -240,-164 -300,-300 v 1300 c 0,166 134,300 300,300 166,0 300,-134 300,-300 0,-166 -134,-300 -300,-300 m -300,412 v 988 h 200 v -796 c -92,-30 -166,-102 -200,-192 z m -400,-1112 c 6,0 100,2 100,100 v 900 c 0,56 -44,100 -100,100 -56,0 -100,-44 -100,-100 0,-56 44,-100 100,-100 32,0 62,14 80,38 v -228 c -26,-6 -52,-10 -80,-10 -166,0 -300,134 -300,300 0,166 134,300 300,300 166,0 300,-134 300,-300 v -1300 c -60,136 -170,240 -300,300 m 100,1304 v 596 h -200 v 200 h 400 v -988 c -34,90 -108,162 -200,192 z m -600,96 v 480 h 200 v -780 c -46,116 -170,200 -300,200 0,0 100,0 100,100 m 0,752 c 0,26 -22,48 -50,48 -28,0 -50,-22 -50,-48 v -252 c 0,-66 32,-124 80,-160 v -222 c -162,52 -280,204 -280,382 h -200 v 200 h 200 v 48 c 0,138 110,252 250,252 138,0 250,-114 250,-252 v -28 h -200 m 500,-220 c 0,-178 -118,-330 -280,-382 v 222 c 48,36 80,94 80,160 h -380 v 200 h 680 c -60,-46 -100,-118 -100,-200 z m -1100,-300 c -166,0 -300,134 -300,300 v 200 h 300 c -6,82 -48,228 -300,226 82,62 162,74 240,74 226,0 256,-194 260,-300 v -600 c -46,60 -118,100 -200,100 m -100,300 c 0,-56 44,-100 100,-100 v 100 z m -824,-868 -216,374 60,102 244,-428 c 128,-240 38,-442 -176,-486 v -494 c 0,-98 94,-100 100,-100 -130,-60 -240,-164 -300,-300 v 1000 c 284,-64 412,102 288,332 m -274,314 -4,-6 c -26,-48 -14,-114 36,-136 l 4,-2 58,102 114,-198 -120,-206 c -40,46 -84,92 -152,130 -146,80 -190,266 -110,410 l 10,18 14,24 82,144 60,102 98,170 32,56 c 40,68 44,94 44,120 0,94 -76,170 -170,170 -94,0 -170,-76 -170,-170 0,-30 0,-58 34,-116 l 120,-210 -58,-102 -140,244 c -32,54 -56,116 -56,184 0,180 144,326 324,326 180,0 320,-146 320,-326 0,-68 -20,-132 -56,-184 m 410,-90 -58,100 -376,-652 -114,200 374,652 h 348 z m -1298,-500 c -166,0 -300,134 -300,300 v 200 h 300 v 352 c 0,26 -22,48 -50,48 -28,0 -50,-22 -50,-48 v -252 h -400 v 200 h 200 v 48 c 0,138 110,252 250,252 138,0 250,-114 250,-252 v -948 c -46,60 -118,100 -200,100 m -100,300 c 0,-56 44,-100 100,-100 v 100 z m -1600,-300 c 166,0 300,-134 300,-300 0,-166 -134,-300 -300,-300 -28,0 -54,4 -80,10 v 228 c 18,-24 48,-38 80,-38 56,0 100,44 100,100 0,56 -44,100 -100,100 -56,0 -100,-44 -100,-100 v -900 c 0,-98 94,-100 100,-100 -130,-60 -240,-164 -300,-300 v 1300 c 0,166 134,300 300,300 m 1050,0 c -140,0 -250,114 -250,252 v 48 h -900 v -296 c -92,-30 -166,-102 -200,-192 v 688 h 1300 v -252 c 0,-26 22,-48 50,-48 28,0 50,22 50,48 v 352 h -1400 v 500 c 46,-116 170,-200 300,-200 0,0 -100,0 -100,-100 h 1400 v -548 c 0,-138 -112,-252 -250,-252 z m -1850,1070 c 162,86 400,-24 400,-268 0,-192 -82,-302 -200,-502 0,122 -28,218 -100,300 62,64 90,140 100,200 26,144 -74,268 -200,270 z m -300,-2370 c 6,0 100,2 100,100 v 900 c 0,56 -44,100 -100,100 -56,0 -100,-44 -100,-100 0,-56 44,-100 100,-100 32,0 62,14 80,38 v -228 c -26,-6 -52,-10 -80,-10 -166,0 -300,134 -300,300 0,166 134,300 300,300 166,0 300,-134 300,-300 v -1300 c -60,136 -170,240 -300,300 m 100,1304 v 596 h -200 v 200 h 400 v -988 c -34,90 -108,162 -200,192 z m -300,296 c -166,0 -300,134 -300,300 v 200 h 300 c -6,82 -48,228 -300,226 82,62 162,74 240,74 226,0 256,-194 260,-300 v -600 c -46,60 -118,100 -200,100 m -100,300 c 0,-56 44,-100 100,-100 v 100 z m -1200,-400 c 0,0 100,0 100,100 v 300 h -200 v 200 h 200 v 48 c 0,138 110,252 250,252 138,0 250,-114 250,-252 v -48 h 300 v -800 c -272,108 -634,194 -900,200 m 600,400 v -500 c 0,0 100,0 100,100 v 400 m -300,252 c 0,26 -22,48 -50,48 -28,0 -50,-22 -50,-48 v -684 c 0,0 100,0 100,100 z m -600,-852 c -166,0 -300,134 -300,300 v 200 h 300 v 100 h -500 v 200 h 700 v -900 c -46,60 -118,100 -200,100 m -100,300 c 0,-56 44,-100 100,-100 v 100 z m -300,0 h -1020 l 370,-370 v -1530 c -60,136 -170,240 -300,300 6,0 100,2 100,100 v 1050 l -650,650 h 1300 v 352 c 0,26 -22,48 -50,48 -28,0 -50,-22 -50,-48 v -252 h -1200 c -100,0 -100,-100 -100,-100 0,130 -84,254 -200,300 h 1300 v 48 c 0,138 110,252 250,252 138,0 250,-114 250,-252 z m -2000,-900 c -28,0 -54,4 -80,10 v 228 c 18,-24 48,-38 80,-38 56,0 100,44 100,100 0,56 -44,100 -100,100 -56,0 -100,-44 -100,-100 v -900 c 0,-98 94,-100 100,-100 -130,-60 -240,-164 -300,-300 v 1300 c 0,166 134,300 300,300 166,0 300,-134 300,-300 0,-166 -134,-300 -300,-300 m 0,1100 c 0,0 0,100 -100,100 v -596 c -92,-30 -166,-102 -200,-192 v 988 h 500 c -116,-46 -200,-170 -200,-300 z m -700,-1800 c 6,0 100,2 100,100 v 900 c 0,56 -44,100 -100,100 -56,0 -100,-44 -100,-100 0,-56 44,-100 100,-100 32,0 62,14 80,38 v -228 c -26,-6 -52,-10 -80,-10 -166,0 -300,134 -300,300 0,166 134,300 300,300 166,0 300,-134 300,-300 v -1300 c -60,136 -170,240 -300,300 m 100,1304 v 596 h -200 v 200 h 400 v -988 c -34,90 -108,162 -200,192 z m -300,296 c -166,0 -300,134 -300,300 v 200 h 300 c -6,82 -48,228 -300,226 82,62 162,74 240,74 226,0 256,-194 260,-300 v -600 c -46,60 -118,100 -200,100 m -100,300 c 0,-56 44,-100 100,-100 v 100 z m -400,-100 c 0,0 0,100 -100,100 h -180 c -62,-28 -98,-78 -98,-162 0,-110 78,-238 78,-392 0,-186 -144,-346 -320,-346 h -380 c 74,100 106,200 100,300 16,-32 72,-100 150,-100 h 70 c 86,0 180,62 180,148 0,128 -82,230 -82,390 0,74 16,126 42,162 h -260 v 200 h 1000 c -116,-46 -200,-170 -200,-300 z m -2000,-500 c 166,0 300,-134 300,-300 0,-166 -134,-300 -300,-300 -28,0 -54,4 -80,10 v 228 c 18,-24 48,-38 80,-38 56,0 100,44 100,100 0,56 -44,100 -100,100 -56,0 -100,-44 -100,-100 v -900 c 0,-98 94,-100 100,-100 -130,-60 -240,-164 -300,-300 v 1300 c 0,166 134,300 300,300 m 1050,0 c -140,0 -250,114 -250,252 v 48 h -900 v -296 c -92,-30 -166,-102 -200,-192 v 688 h 1300 v -252 c 0,-26 22,-48 50,-48 28,0 50,22 50,48 v 352 h -1400 v 500 c 46,-116 170,-200 300,-200 0,0 -100,0 -100,-100 h 1400 v -548 c 0,-138 -112,-252 -250,-252 z m -1750,-1300 c 6,0 100,2 100,100 v 900 c 0,56 -44,100 -100,100 -56,0 -100,-44 -100,-100 0,-56 44,-100 100,-100 32,0 62,14 80,38 v -228 c -26,-6 -52,-10 -80,-10 -166,0 -300,134 -300,300 0,166 134,300 300,300 166,0 300,-134 300,-300 v -1300 c -60,136 -170,240 -300,300 m 100,1304 v 596 h -200 v 200 h 400 v -988 c -34,90 -108,162 -200,192 z m -300,296 c -166,0 -300,134 -300,300 v 200 c 2,84 2,268 -200,270 30,18 92,30 138,30 218,0 262,-142 262,-300 h 300 v -600 c -46,60 -118,100 -200,100 m -100,300 c 0,-56 44,-100 100,-100 v 100 z m -700,200 h 400 v -800 c -46,116 -170,200 -300,200 0,0 100,0 100,100 v 300 h -200 z m 100,-400 c -42,-164 -174,-296 -338,-350 0,-126 -162,-130 -162,-250 0,120 -162,124 -162,250 -164,54 -296,186 -338,350 96,0 218,14 328,66 44,-54 96,-102 154,-142 -36,-22 -76,-42 -116,-60 26,-16 52,-30 84,-36 6,-36 14,-44 50,-70 36,26 44,34 50,70 32,6 60,20 86,38 -164,64 -290,178 -370,334 h -466 v 200 h 600 c 102,-342 400,-400 600,-400 m -334,92 c -60,32 -112,76 -154,128 36,48 66,108 88,180 h 400 v -200 h -264 c -20,-38 -44,-74 -70,-108 z m -2066,-492 c 166,0 300,-134 300,-300 0,-166 -134,-300 -300,-300 -28,0 -54,4 -80,10 v 228 c 18,-24 48,-38 80,-38 56,0 100,44 100,100 0,56 -44,100 -100,100 -56,0 -100,-44 -100,-100 v -900 c 0,-98 94,-100 100,-100 -130,-60 -240,-164 -300,-300 v 1300 c 0,166 134,300 300,300 m 1300,300 h -1400 v -296 c -92,-30 -166,-102 -200,-192 v 688 h 1400 v 352 c 0,26 -22,48 -50,48 -28,0 -50,-22 -50,-48 v -252 h -1300 v 200 h 1100 v 48 c 0,138 110,252 250,252 138,0 250,-114 250,-252 z m -2000,-1600 c 6,0 100,2 100,100 v 900 c 0,56 -44,100 -100,100 -56,0 -100,-44 -100,-100 0,-56 44,-100 100,-100 32,0 62,14 80,38 v -228 c -26,-6 -52,-10 -80,-10 -166,0 -300,134 -300,300 0,166 134,300 300,300 166,0 300,-134 300,-300 v -1300 c -60,136 -170,240 -300,300 m 100,1304 v 848 c 0,26 -22,48 -50,48 -28,0 -50,-22 -50,-48 v -252 h -300 c -100,0 -100,-100 -100,-100 0,130 -84,254 -200,300 h 400 v 48 c 0,138 110,252 250,252 138,0 250,-114 250,-252 v -1036 c -34,90 -108,162 -200,192 z m -900,296 c -166,0 -300,134 -300,300 v 200 h 300 c -6,82 -48,228 -300,226 82,62 162,74 240,74 226,0 256,-194 260,-300 v -600 c -46,60 -118,100 -200,100 m -100,300 c 0,-56 44,-100 100,-100 v 100 z m -200,-1200 c -28,0 -54,4 -80,10 v 228 c 18,-24 48,-38 80,-38 56,0 100,44 100,100 0,56 -44,100 -100,100 -56,0 -100,-44 -100,-100 v -900 c 0,-98 94,-100 100,-100 -130,-60 -240,-164 -300,-300 v 1300 c 0,166 134,300 300,300 166,0 300,-134 300,-300 0,-166 -134,-300 -300,-300 m -300,412 v 788 h -200 v 200 h 400 v -796 c -92,-30 -166,-102 -200,-192 z m -300,488 c -166,0 -300,134 -300,300 v 200 c 2,84 2,268 -200,270 30,18 92,30 138,30 218,0 262,-142 262,-300 h 300 v -600 c -46,60 -118,100 -200,100 m -100,300 c 0,-56 44,-100 100,-100 v 100 z m -700,200 h 400 v -800 c -46,116 -170,200 -300,200 0,0 100,0 100,100 v 300 h -200 z m -200,-2100 c 6,0 100,2 100,100 v 900 c 0,56 -44,100 -100,100 -56,0 -100,-44 -100,-100 0,-56 44,-100 100,-100 32,0 62,14 80,38 v -228 c -26,-6 -52,-10 -80,-10 -166,0 -300,134 -300,300 0,166 134,300 300,300 166,0 300,-134 300,-300 v -1300 c -60,136 -170,240 -300,300 m 100,1304 v 596 h -200 v 200 h 400 v -988 c -34,90 -108,162 -200,192 z m -300,296 c -166,0 -300,134 -300,300 v 200 c 2,84 2,268 -200,270 30,18 92,30 138,30 218,0 262,-142 262,-300 h 300 v -600 c -46,60 -118,100 -200,100 m -100,300 c 0,-56 44,-100 100,-100 v 100 z"
     id="path959"
     inkscape:connector-curvature="0"
     style="opacity:1;stop-opacity:1" />
  <path
     inkscape:connector-curvature="0"
     d="m 148.72797,-399.98688 c -137.178724,1.41421 -250.31641,111.72347 -250.31641,250.31641 V 178.42717 H 99.229916 v -330.92772 c 0,-25.45585 22.628004,-48.08187 49.498054,-49.49609 29.69849,-1.41421 49.49609,21.21182 49.49609,49.49609 v 31.11328 h 200.81836 v -28.2832 c 0,-138.59294 -110.3073,-251.73062 -250.31445,-250.31641 z m 30093.00703,0 c -137.179,1.41422 -250.316,111.72156 -250.316,250.31445 v 548.71485 h 280.016 V 198.22405 l -80.612,1.41601 1.414,-352.14061 c 1.414,-26.87005 21.214,-49.49609 49.498,-49.49609 28.284,0 49.498,24.04025 49.498,49.49609 v 31.11328 h 200.819 v -28.28516 c 0,-138.59291 -110.31,-251.72865 -250.317,-250.31445 z M -149.67243,-101.58844 c -138.5929,0 -251.72866,110.3092555 -250.31445,250.31641 1.41421,137.17872 111.72158,250.3164 250.31445,250.3164 H 399.04242 V 119.02874 H 198.22406 l 1.41601,80.61133 -352.14062,-1.41406 c -26.87006,-1.41422 -49.49609,-21.21376 -49.49609,-49.49804 0,-28.28428 24.04024,-49.498059 49.49609,-49.498059 h 31.11328 V -101.58844 Z m 268.70118,0 V 99.229911 h 29572.57725 120.596 159.418 V -101.58844 h -174.779 -104.889 z m 30093.00725,0 V 99.229911 h 330.928 c 25.455,0 48.082,22.627989 49.496,49.498059 1.414,29.69849 -21.212,49.49608 -49.496,49.49608 h -31.113 v 200.81837 h 28.283 c 138.593,0 251.73,-110.30731 250.316,-250.31446 -1.414,-137.178724 -111.723,-250.3164 -250.316,-250.3164 z m 79.197,220.61718 v 2782.65046 247.0019 251.1465 h 200.819 V 3146.5796 2902.0249 119.02874 Z M -101.58844,418.8432 v 2401.5606 85.7988 193.8106 H 99.229916 V 2909.7944 2819.9995 418.8432 Z m -48.08399,2700.9688 c -138.59291,0 -248.90024,113.1377 -250.31445,250.3164 -1.41421,140.0072 111.72157,250.3164 250.31445,250.3164 h 28.28516 v -200.8183 h -31.11328 c -25.45585,0 -49.49609,-21.2138 -49.49609,-49.4981 0,-28.2843 22.62603,-48.0837 49.49609,-49.498 l 352.14062,-1.4141 -1.41601,80.6113 H 399.04242 V 3119.812 Z m 30141.09343,0 v 548.7148 c 0,138.5929 113.135,248.9 250.314,250.3145 140.007,1.4142 250.317,-111.7216 250.317,-250.3145 v -28.2852 h -200.819 v 31.1133 c 0,25.4559 -21.214,49.4981 -49.498,49.4981 -28.285,0 -48.084,-22.628 -49.498,-49.4981 l -1.414,-352.1386 80.612,1.414 V 3119.812 Z m 520.43,0 v 200.8183 h 31.113 c 28.284,0 50.912,19.7976 49.498,49.4961 -1.415,26.8701 -24.042,49.4981 -49.498,49.4981 h -330.928 v 200.8183 h 328.1 c 138.593,0 248.9,-113.1377 250.314,-250.3164 1.415,-140.0071 -111.721,-250.3144 -250.314,-250.3144 z M -101.58844,3340.4311 v 328.0957 c 0,138.5929 113.137686,248.902 250.31641,250.3165 140.00715,1.4139 250.31445,-111.7236 250.31445,-250.3165 v -28.2832 H 198.22406 v 31.1133 c 0,28.2843 -19.7976,50.9103 -49.49609,49.4961 -26.87005,-1.4142 -49.498054,-24.0402 -49.498054,-49.4961 v -330.9258 z m 220.61719,79.1954 v 200.8183 h 29572.92325 58.065 221.603 v -200.8183 h -206.266 -73.748 z"
     style="opacity:1;stroke-width:2;stop-opacity:1;fill:#e3971f;fill-opacity:1;stroke:none"
     id="path1046" />
  <g
     transform="matrix(19.2,0,0,19.2,13925.176,1369.2682)"
     id="g1204">
    <g
       transform="matrix(1,0,0,-1,0,1638)"
       display="none"
       id="g4258">
      <path
         inkscape:connector-curvature="0"
         display="inline"
         d="m 14.9,1631.5 c 0.8,0 1.6,-0.3 2.3,-0.9 0.3,-0.3 0.6,-0.7 0.8,-1.1 0.2,-0.5 0.3,-0.9 0.3,-1.5 0,-1.4 -0.6,-2.6 -1.8,-3.6 -0.5,-0.4 -1.3,-1.2 -2.6,-2.2 -1.3,-1 -1.9,-1.5 -1.9,-1.5 l -4.6,3.8 c -0.5,0.5 -1,1 -1.3,1.6 -0.3,0.6 -0.5,1.2 -0.5,1.8 0,0.5 0.1,1.1 0.2,1.5 0.2,0.7 0.7,1.3 1.3,1.7 0.6,0.4 1.2,0.6 1.9,0.6 1.2,0 2.2,-0.5 2.9,-1.5 0.9,0.8 1.9,1.3 3,1.3 z"
         id="path4260" />
    </g>
    <path
       inkscape:connector-curvature="0"
       display="none"
       d="M 15.1,7.4 C 14,7.4 12,8.4 12,9.7 12,8.5 10.1,7.4 8.9,7.4 7.5,7.4 6.3,8.2 5.7,9.5 4.5,12 6.8,13.9 8.5,15.4 9.4,16 12,18.2 12,18.2 c 0,0 3.9,-3.2 4.6,-3.9 1.2,-1.1 2.3,-2.5 1.9,-4.2 -0.4,-1.6 -2,-2.7 -3.4,-2.7 z"
       id="path4262" />
    <path
       inkscape:connector-curvature="0"
       fill="#4588A9"
       d="M 15,7 C 13,7 12,9 12,9 12,9 11,7 9,7 6.5,7 5,9 5,11 c 0,4 5,5 7,8 2,-3 7,-4 7,-8 0,-2 -1.5,-4 -4,-4 z"
       id="path4264"
       style="fill:#d11d13;fill-opacity:1" />
  </g>
  <g
     id="g1334">
    <g
       id="g1298"
       transform="matrix(19.2,0,0,19.2,18277.176,1369.2682)">
      <g
         id="g1292"
         display="none"
         transform="matrix(1,0,0,-1,0,1638)">
        <path
           id="path1290"
           d="m 14.9,1631.5 c 0.8,0 1.6,-0.3 2.3,-0.9 0.3,-0.3 0.6,-0.7 0.8,-1.1 0.2,-0.5 0.3,-0.9 0.3,-1.5 0,-1.4 -0.6,-2.6 -1.8,-3.6 -0.5,-0.4 -1.3,-1.2 -2.6,-2.2 -1.3,-1 -1.9,-1.5 -1.9,-1.5 l -4.6,3.8 c -0.5,0.5 -1,1 -1.3,1.6 -0.3,0.6 -0.5,1.2 -0.5,1.8 0,0.5 0.1,1.1 0.2,1.5 0.2,0.7 0.7,1.3 1.3,1.7 0.6,0.4 1.2,0.6 1.9,0.6 1.2,0 2.2,-0.5 2.9,-1.5 0.9,0.8 1.9,1.3 3,1.3 z"
           display="inline"
           inkscape:connector-curvature="0" />
      </g>
      <path
         id="path1294"
         d="M 15.1,7.4 C 14,7.4 12,8.4 12,9.7 12,8.5 10.1,7.4 8.9,7.4 7.5,7.4 6.3,8.2 5.7,9.5 4.5,12 6.8,13.9 8.5,15.4 9.4,16 12,18.2 12,18.2 c 0,0 3.9,-3.2 4.6,-3.9 1.2,-1.1 2.3,-2.5 1.9,-4.2 -0.4,-1.6 -2,-2.7 -3.4,-2.7 z"
         display="none"
         inkscape:connector-curvature="0" />
      <path
         style="fill:#d11d13;fill-opacity:1"
         id="path1296"
         d="M 15,7 C 13,7 12,9 12,9 12,9 11,7 9,7 6.5,7 5,9 5,11 c 0,4 5,5 7,8 2,-3 7,-4 7,-8 0,-2 -1.5,-4 -4,-4 z"
         fill="#4588A9"
         inkscape:connector-curvature="0" />
    </g>
    <g
       transform="matrix(19.2,0,0,19.2,18577.176,1369.2682)"
       id="g1322">
      <g
         transform="matrix(1,0,0,-1,0,1638)"
         display="none"
         id="g1316">
        <path
           inkscape:connector-curvature="0"
           display="inline"
           d="m 14.9,1631.5 c 0.8,0 1.6,-0.3 2.3,-0.9 0.3,-0.3 0.6,-0.7 0.8,-1.1 0.2,-0.5 0.3,-0.9 0.3,-1.5 0,-1.4 -0.6,-2.6 -1.8,-3.6 -0.5,-0.4 -1.3,-1.2 -2.6,-2.2 -1.3,-1 -1.9,-1.5 -1.9,-1.5 l -4.6,3.8 c -0.5,0.5 -1,1 -1.3,1.6 -0.3,0.6 -0.5,1.2 -0.5,1.8 0,0.5 0.1,1.1 0.2,1.5 0.2,0.7 0.7,1.3 1.3,1.7 0.6,0.4 1.2,0.6 1.9,0.6 1.2,0 2.2,-0.5 2.9,-1.5 0.9,0.8 1.9,1.3 3,1.3 z"
           id="path1314" />
      </g>
      <path
         inkscape:connector-curvature="0"
         display="none"
         d="M 15.1,7.4 C 14,7.4 12,8.4 12,9.7 12,8.5 10.1,7.4 8.9,7.4 7.5,7.4 6.3,8.2 5.7,9.5 4.5,12 6.8,13.9 8.5,15.4 9.4,16 12,18.2 12,18.2 c 0,0 3.9,-3.2 4.6,-3.9 1.2,-1.1 2.3,-2.5 1.9,-4.2 -0.4,-1.6 -2,-2.7 -3.4,-2.7 z"
         id="path1318" />
      <path
         inkscape:connector-curvature="0"
         fill="#4588A9"
         d="M 15,7 C 13,7 12,9 12,9 12,9 11,7 9,7 6.5,7 5,9 5,11 c 0,4 5,5 7,8 2,-3 7,-4 7,-8 0,-2 -1.5,-4 -4,-4 z"
         id="path1320"
         style="fill:#d11d13;fill-opacity:1" />
    </g>
  </g>
  <g
     transform="translate(-11656)"
     id="g1356">
    <g
       transform="matrix(19.2,0,0,19.2,18277.176,1369.2682)"
       id="g1344">
      <g
         transform="matrix(1,0,0,-1,0,1638)"
         display="none"
         id="g1338">
        <path
           inkscape:connector-curvature="0"
           display="inline"
           d="m 14.9,1631.5 c 0.8,0 1.6,-0.3 2.3,-0.9 0.3,-0.3 0.6,-0.7 0.8,-1.1 0.2,-0.5 0.3,-0.9 0.3,-1.5 0,-1.4 -0.6,-2.6 -1.8,-3.6 -0.5,-0.4 -1.3,-1.2 -2.6,-2.2 -1.3,-1 -1.9,-1.5 -1.9,-1.5 l -4.6,3.8 c -0.5,0.5 -1,1 -1.3,1.6 -0.3,0.6 -0.5,1.2 -0.5,1.8 0,0.5 0.1,1.1 0.2,1.5 0.2,0.7 0.7,1.3 1.3,1.7 0.6,0.4 1.2,0.6 1.9,0.6 1.2,0 2.2,-0.5 2.9,-1.5 0.9,0.8 1.9,1.3 3,1.3 z"
           id="path1336" />
      </g>
      <path
         inkscape:connector-curvature="0"
         display="none"
         d="M 15.1,7.4 C 14,7.4 12,8.4 12,9.7 12,8.5 10.1,7.4 8.9,7.4 7.5,7.4 6.3,8.2 5.7,9.5 4.5,12 6.8,13.9 8.5,15.4 9.4,16 12,18.2 12,18.2 c 0,0 3.9,-3.2 4.6,-3.9 1.2,-1.1 2.3,-2.5 1.9,-4.2 -0.4,-1.6 -2,-2.7 -3.4,-2.7 z"
         id="path1340" />
      <path
         inkscape:connector-curvature="0"
         fill="#4588A9"
         d="M 15,7 C 13,7 12,9 12,9 12,9 11,7 9,7 6.5,7 5,9 5,11 c 0,4 5,5 7,8 2,-3 7,-4 7,-8 0,-2 -1.5,-4 -4,-4 z"
         id="path1342"
         style="fill:#d11d13;fill-opacity:1" />
    </g>
    <g
       id="g1354"
       transform="matrix(19.2,0,0,19.2,18577.176,1369.2682)">
      <g
         id="g1348"
         display="none"
         transform="matrix(1,0,0,-1,0,1638)">
        <path
           id="path1346"
           d="m 14.9,1631.5 c 0.8,0 1.6,-0.3 2.3,-0.9 0.3,-0.3 0.6,-0.7 0.8,-1.1 0.2,-0.5 0.3,-0.9 0.3,-1.5 0,-1.4 -0.6,-2.6 -1.8,-3.6 -0.5,-0.4 -1.3,-1.2 -2.6,-2.2 -1.3,-1 -1.9,-1.5 -1.9,-1.5 l -4.6,3.8 c -0.5,0.5 -1,1 -1.3,1.6 -0.3,0.6 -0.5,1.2 -0.5,1.8 0,0.5 0.1,1.1 0.2,1.5 0.2,0.7 0.7,1.3 1.3,1.7 0.6,0.4 1.2,0.6 1.9,0.6 1.2,0 2.2,-0.5 2.9,-1.5 0.9,0.8 1.9,1.3 3,1.3 z"
           display="inline"
           inkscape:connector-curvature="0" />
      </g>
      <path
         id="path1350"
         d="M 15.1,7.4 C 14,7.4 12,8.4 12,9.7 12,8.5 10.1,7.4 8.9,7.4 7.5,7.4 6.3,8.2 5.7,9.5 4.5,12 6.8,13.9 8.5,15.4 9.4,16 12,18.2 12,18.2 c 0,0 3.9,-3.2 4.6,-3.9 1.2,-1.1 2.3,-2.5 1.9,-4.2 -0.4,-1.6 -2,-2.7 -3.4,-2.7 z"
         display="none"
         inkscape:connector-curvature="0" />
      <path
         style="fill:#d11d13;fill-opacity:1"
         id="path1352"
         d="M 15,7 C 13,7 12,9 12,9 12,9 11,7 9,7 6.5,7 5,9 5,11 c 0,4 5,5 7,8 2,-3 7,-4 7,-8 0,-2 -1.5,-4 -4,-4 z"
         fill="#4588A9"
         inkscape:connector-curvature="0" />
    </g>
  </g>
  <g
     id="g1378"
     transform="translate(-16856)">
    <g
       id="g1366"
       transform="matrix(19.2,0,0,19.2,18277.176,1369.2682)">
      <g
         id="g1360"
         display="none"
         transform="matrix(1,0,0,-1,0,1638)">
        <path
           id="path1358"
           d="m 14.9,1631.5 c 0.8,0 1.6,-0.3 2.3,-0.9 0.3,-0.3 0.6,-0.7 0.8,-1.1 0.2,-0.5 0.3,-0.9 0.3,-1.5 0,-1.4 -0.6,-2.6 -1.8,-3.6 -0.5,-0.4 -1.3,-1.2 -2.6,-2.2 -1.3,-1 -1.9,-1.5 -1.9,-1.5 l -4.6,3.8 c -0.5,0.5 -1,1 -1.3,1.6 -0.3,0.6 -0.5,1.2 -0.5,1.8 0,0.5 0.1,1.1 0.2,1.5 0.2,0.7 0.7,1.3 1.3,1.7 0.6,0.4 1.2,0.6 1.9,0.6 1.2,0 2.2,-0.5 2.9,-1.5 0.9,0.8 1.9,1.3 3,1.3 z"
           display="inline"
           inkscape:connector-curvature="0" />
      </g>
      <path
         id="path1362"
         d="M 15.1,7.4 C 14,7.4 12,8.4 12,9.7 12,8.5 10.1,7.4 8.9,7.4 7.5,7.4 6.3,8.2 5.7,9.5 4.5,12 6.8,13.9 8.5,15.4 9.4,16 12,18.2 12,18.2 c 0,0 3.9,-3.2 4.6,-3.9 1.2,-1.1 2.3,-2.5 1.9,-4.2 -0.4,-1.6 -2,-2.7 -3.4,-2.7 z"
         display="none"
         inkscape:connector-curvature="0" />
      <path
         style="fill:#d11d13;fill-opacity:1"
         id="path1364"
         d="M 15,7 C 13,7 12,9 12,9 12,9 11,7 9,7 6.5,7 5,9 5,11 c 0,4 5,5 7,8 2,-3 7,-4 7,-8 0,-2 -1.5,-4 -4,-4 z"
         fill="#4588A9"
         inkscape:connector-curvature="0" />
    </g>
    <g
       transform="matrix(19.2,0,0,19.2,18577.176,1369.2682)"
       id="g1376">
      <g
         transform="matrix(1,0,0,-1,0,1638)"
         display="none"
         id="g1370">
        <path
           inkscape:connector-curvature="0"
           display="inline"
           d="m 14.9,1631.5 c 0.8,0 1.6,-0.3 2.3,-0.9 0.3,-0.3 0.6,-0.7 0.8,-1.1 0.2,-0.5 0.3,-0.9 0.3,-1.5 0,-1.4 -0.6,-2.6 -1.8,-3.6 -0.5,-0.4 -1.3,-1.2 -2.6,-2.2 -1.3,-1 -1.9,-1.5 -1.9,-1.5 l -4.6,3.8 c -0.5,0.5 -1,1 -1.3,1.6 -0.3,0.6 -0.5,1.2 -0.5,1.8 0,0.5 0.1,1.1 0.2,1.5 0.2,0.7 0.7,1.3 1.3,1.7 0.6,0.4 1.2,0.6 1.9,0.6 1.2,0 2.2,-0.5 2.9,-1.5 0.9,0.8 1.9,1.3 3,1.3 z"
           id="path1368" />
      </g>
      <path
         inkscape:connector-curvature="0"
         display="none"
         d="M 15.1,7.4 C 14,7.4 12,8.4 12,9.7 12,8.5 10.1,7.4 8.9,7.4 7.5,7.4 6.3,8.2 5.7,9.5 4.5,12 6.8,13.9 8.5,15.4 9.4,16 12,18.2 12,18.2 c 0,0 3.9,-3.2 4.6,-3.9 1.2,-1.1 2.3,-2.5 1.9,-4.2 -0.4,-1.6 -2,-2.7 -3.4,-2.7 z"
         id="path1372" />
      <path
         inkscape:connector-curvature="0"
         fill="#4588A9"
         d="M 15,7 C 13,7 12,9 12,9 12,9 11,7 9,7 6.5,7 5,9 5,11 c 0,4 5,5 7,8 2,-3 7,-4 7,-8 0,-2 -1.5,-4 -4,-4 z"
         id="path1374"
         style="fill:#d11d13;fill-opacity:1" />
    </g>
  </g>
  <g
     transform="translate(0,-100)"
     id="g1437">
    <g
       style="opacity:1;stop-opacity:1"
       transform="matrix(19.2,0,0,19.2,14525.176,1469.2682)"
       id="g1388">
      <g
         transform="matrix(1,0,0,-1,0,1638)"
         display="none"
         id="g1382">
        <path
           inkscape:connector-curvature="0"
           display="inline"
           d="m 14.9,1631.5 c 0.8,0 1.6,-0.3 2.3,-0.9 0.3,-0.3 0.6,-0.7 0.8,-1.1 0.2,-0.5 0.3,-0.9 0.3,-1.5 0,-1.4 -0.6,-2.6 -1.8,-3.6 -0.5,-0.4 -1.3,-1.2 -2.6,-2.2 -1.3,-1 -1.9,-1.5 -1.9,-1.5 l -4.6,3.8 c -0.5,0.5 -1,1 -1.3,1.6 -0.3,0.6 -0.5,1.2 -0.5,1.8 0,0.5 0.1,1.1 0.2,1.5 0.2,0.7 0.7,1.3 1.3,1.7 0.6,0.4 1.2,0.6 1.9,0.6 1.2,0 2.2,-0.5 2.9,-1.5 0.9,0.8 1.9,1.3 3,1.3 z"
           id="path1380" />
      </g>
      <path
         inkscape:connector-curvature="0"
         display="none"
         d="M 15.1,7.4 C 14,7.4 12,8.4 12,9.7 12,8.5 10.1,7.4 8.9,7.4 7.5,7.4 6.3,8.2 5.7,9.5 4.5,12 6.8,13.9 8.5,15.4 9.4,16 12,18.2 12,18.2 c 0,0 3.9,-3.2 4.6,-3.9 1.2,-1.1 2.3,-2.5 1.9,-4.2 -0.4,-1.6 -2,-2.7 -3.4,-2.7 z"
         id="path1384" />
      <path
         inkscape:connector-curvature="0"
         fill="#4588A9"
         d="M 15,7 C 13,7 12,9 12,9 12,9 11,7 9,7 6.5,7 5,9 5,11 c 0,4 5,5 7,8 2,-3 7,-4 7,-8 0,-2 -1.5,-4 -4,-4 z"
         id="path1386"
         style="fill:#d11d13;fill-opacity:1" />
    </g>
    <g
       style="opacity:1;stop-opacity:1"
       id="g1398"
       transform="matrix(19.2,0,0,19.2,14825.176,1469.2682)">
      <g
         id="g1392"
         display="none"
         transform="matrix(1,0,0,-1,0,1638)">
        <path
           id="path1390"
           d="m 14.9,1631.5 c 0.8,0 1.6,-0.3 2.3,-0.9 0.3,-0.3 0.6,-0.7 0.8,-1.1 0.2,-0.5 0.3,-0.9 0.3,-1.5 0,-1.4 -0.6,-2.6 -1.8,-3.6 -0.5,-0.4 -1.3,-1.2 -2.6,-2.2 -1.3,-1 -1.9,-1.5 -1.9,-1.5 l -4.6,3.8 c -0.5,0.5 -1,1 -1.3,1.6 -0.3,0.6 -0.5,1.2 -0.5,1.8 0,0.5 0.1,1.1 0.2,1.5 0.2,0.7 0.7,1.3 1.3,1.7 0.6,0.4 1.2,0.6 1.9,0.6 1.2,0 2.2,-0.5 2.9,-1.5 0.9,0.8 1.9,1.3 3,1.3 z"
           display="inline"
           inkscape:connector-curvature="0" />
      </g>
      <path
         id="path1394"
         d="M 15.1,7.4 C 14,7.4 12,8.4 12,9.7 12,8.5 10.1,7.4 8.9,7.4 7.5,7.4 6.3,8.2 5.7,9.5 4.5,12 6.8,13.9 8.5,15.4 9.4,16 12,18.2 12,18.2 c 0,0 3.9,-3.2 4.6,-3.9 1.2,-1.1 2.3,-2.5 1.9,-4.2 -0.4,-1.6 -2,-2.7 -3.4,-2.7 z"
         display="none"
         inkscape:connector-curvature="0" />
      <path
         style="fill:#d11d13;fill-opacity:1"
         id="path1396"
         d="M 15,7 C 13,7 12,9 12,9 12,9 11,7 9,7 6.5,7 5,9 5,11 c 0,4 5,5 7,8 2,-3 7,-4 7,-8 0,-2 -1.5,-4 -4,-4 z"
         fill="#4588A9"
         inkscape:connector-curvature="0" />
    </g>
    <g
       transform="matrix(19.2,0,0,19.2,14675.176,1203.2682)"
       id="g1420"
       style="opacity:1;stop-opacity:1">
      <g
         transform="matrix(1,0,0,-1,0,1638)"
         display="none"
         id="g1414">
        <path
           inkscape:connector-curvature="0"
           display="inline"
           d="m 14.9,1631.5 c 0.8,0 1.6,-0.3 2.3,-0.9 0.3,-0.3 0.6,-0.7 0.8,-1.1 0.2,-0.5 0.3,-0.9 0.3,-1.5 0,-1.4 -0.6,-2.6 -1.8,-3.6 -0.5,-0.4 -1.3,-1.2 -2.6,-2.2 -1.3,-1 -1.9,-1.5 -1.9,-1.5 l -4.6,3.8 c -0.5,0.5 -1,1 -1.3,1.6 -0.3,0.6 -0.5,1.2 -0.5,1.8 0,0.5 0.1,1.1 0.2,1.5 0.2,0.7 0.7,1.3 1.3,1.7 0.6,0.4 1.2,0.6 1.9,0.6 1.2,0 2.2,-0.5 2.9,-1.5 0.9,0.8 1.9,1.3 3,1.3 z"
           id="path1412" />
      </g>
      <path
         inkscape:connector-curvature="0"
         display="none"
         d="M 15.1,7.4 C 14,7.4 12,8.4 12,9.7 12,8.5 10.1,7.4 8.9,7.4 7.5,7.4 6.3,8.2 5.7,9.5 4.5,12 6.8,13.9 8.5,15.4 9.4,16 12,18.2 12,18.2 c 0,0 3.9,-3.2 4.6,-3.9 1.2,-1.1 2.3,-2.5 1.9,-4.2 -0.4,-1.6 -2,-2.7 -3.4,-2.7 z"
         id="path1416" />
      <path
         inkscape:connector-curvature="0"
         fill="#4588A9"
         d="M 15,7 C 13,7 12,9 12,9 12,9 11,7 9,7 6.5,7 5,9 5,11 c 0,4 5,5 7,8 2,-3 7,-4 7,-8 0,-2 -1.5,-4 -4,-4 z"
         id="path1418"
         style="fill:#d11d13;fill-opacity:1" />
    </g>
  </g>
  <g
     id="g1447"
     transform="matrix(19.2,0,0,19.2,26339.176,1369.2682)">
    <g
       id="g1441"
       display="none"
       transform="matrix(1,0,0,-1,0,1638)">
      <path
         id="path1439"
         d="m 14.9,1631.5 c 0.8,0 1.6,-0.3 2.3,-0.9 0.3,-0.3 0.6,-0.7 0.8,-1.1 0.2,-0.5 0.3,-0.9 0.3,-1.5 0,-1.4 -0.6,-2.6 -1.8,-3.6 -0.5,-0.4 -1.3,-1.2 -2.6,-2.2 -1.3,-1 -1.9,-1.5 -1.9,-1.5 l -4.6,3.8 c -0.5,0.5 -1,1 -1.3,1.6 -0.3,0.6 -0.5,1.2 -0.5,1.8 0,0.5 0.1,1.1 0.2,1.5 0.2,0.7 0.7,1.3 1.3,1.7 0.6,0.4 1.2,0.6 1.9,0.6 1.2,0 2.2,-0.5 2.9,-1.5 0.9,0.8 1.9,1.3 3,1.3 z"
         display="inline"
         inkscape:connector-curvature="0" />
    </g>
    <path
       id="path1443"
       d="M 15.1,7.4 C 14,7.4 12,8.4 12,9.7 12,8.5 10.1,7.4 8.9,7.4 7.5,7.4 6.3,8.2 5.7,9.5 4.5,12 6.8,13.9 8.5,15.4 9.4,16 12,18.2 12,18.2 c 0,0 3.9,-3.2 4.6,-3.9 1.2,-1.1 2.3,-2.5 1.9,-4.2 -0.4,-1.6 -2,-2.7 -3.4,-2.7 z"
       display="none"
       inkscape:connector-curvature="0" />
    <path
       style="fill:#d11d13;fill-opacity:1"
       id="path1445"
       d="M 15,7 C 13,7 12,9 12,9 12,9 11,7 9,7 6.5,7 5,9 5,11 c 0,4 5,5 7,8 2,-3 7,-4 7,-8 0,-2 -1.5,-4 -4,-4 z"
       fill="#4588A9"
       inkscape:connector-curvature="0" />
  </g>
  <g
     id="g1475"
     transform="matrix(19.2,0,0,19.2,9725.176,2675.2682)">
    <g
       id="g1469"
       display="none"
       transform="matrix(1,0,0,-1,0,1638)">
      <path
         id="path1467"
         d="m 14.9,1631.5 c 0.8,0 1.6,-0.3 2.3,-0.9 0.3,-0.3 0.6,-0.7 0.8,-1.1 0.2,-0.5 0.3,-0.9 0.3,-1.5 0,-1.4 -0.6,-2.6 -1.8,-3.6 -0.5,-0.4 -1.3,-1.2 -2.6,-2.2 -1.3,-1 -1.9,-1.5 -1.9,-1.5 l -4.6,3.8 c -0.5,0.5 -1,1 -1.3,1.6 -0.3,0.6 -0.5,1.2 -0.5,1.8 0,0.5 0.1,1.1 0.2,1.5 0.2,0.7 0.7,1.3 1.3,1.7 0.6,0.4 1.2,0.6 1.9,0.6 1.2,0 2.2,-0.5 2.9,-1.5 0.9,0.8 1.9,1.3 3,1.3 z"
         display="inline"
         inkscape:connector-curvature="0" />
    </g>
    <path
       id="path1471"
       d="M 15.1,7.4 C 14,7.4 12,8.4 12,9.7 12,8.5 10.1,7.4 8.9,7.4 7.5,7.4 6.3,8.2 5.7,9.5 4.5,12 6.8,13.9 8.5,15.4 9.4,16 12,18.2 12,18.2 c 0,0 3.9,-3.2 4.6,-3.9 1.2,-1.1 2.3,-2.5 1.9,-4.2 -0.4,-1.6 -2,-2.7 -3.4,-2.7 z"
       display="none"
       inkscape:connector-curvature="0" />
    <path
       style="fill:#d11d13;fill-opacity:1"
       id="path1473"
       d="M 15,7 C 13,7 12,9 12,9 12,9 11,7 9,7 6.5,7 5,9 5,11 c 0,4 5,5 7,8 2,-3 7,-4 7,-8 0,-2 -1.5,-4 -4,-4 z"
       fill="#4588A9"
       inkscape:connector-curvature="0" />
  </g>
  <g
     transform="matrix(19.2,0,0,19.2,4819.176,1369.2682)"
     id="g1485">
    <g
       transform="matrix(1,0,0,-1,0,1638)"
       display="none"
       id="g1479">
      <path
         inkscape:connector-curvature="0"
         display="inline"
         d="m 14.9,1631.5 c 0.8,0 1.6,-0.3 2.3,-0.9 0.3,-0.3 0.6,-0.7 0.8,-1.1 0.2,-0.5 0.3,-0.9 0.3,-1.5 0,-1.4 -0.6,-2.6 -1.8,-3.6 -0.5,-0.4 -1.3,-1.2 -2.6,-2.2 -1.3,-1 -1.9,-1.5 -1.9,-1.5 l -4.6,3.8 c -0.5,0.5 -1,1 -1.3,1.6 -0.3,0.6 -0.5,1.2 -0.5,1.8 0,0.5 0.1,1.1 0.2,1.5 0.2,0.7 0.7,1.3 1.3,1.7 0.6,0.4 1.2,0.6 1.9,0.6 1.2,0 2.2,-0.5 2.9,-1.5 0.9,0.8 1.9,1.3 3,1.3 z"
         id="path1477" />
    </g>
    <path
       inkscape:connector-curvature="0"
       display="none"
       d="M 15.1,7.4 C 14,7.4 12,8.4 12,9.7 12,8.5 10.1,7.4 8.9,7.4 7.5,7.4 6.3,8.2 5.7,9.5 4.5,12 6.8,13.9 8.5,15.4 9.4,16 12,18.2 12,18.2 c 0,0 3.9,-3.2 4.6,-3.9 1.2,-1.1 2.3,-2.5 1.9,-4.2 -0.4,-1.6 -2,-2.7 -3.4,-2.7 z"
       id="path1481" />
    <path
       inkscape:connector-curvature="0"
       fill="#4588A9"
       d="M 15,7 C 13,7 12,9 12,9 12,9 11,7 9,7 6.5,7 5,9 5,11 c 0,4 5,5 7,8 2,-3 7,-4 7,-8 0,-2 -1.5,-4 -4,-4 z"
       id="path1483"
       style="fill:#d11d13;fill-opacity:1" />
  </g>
  <g
     transform="translate(11154,1306)"
     id="g1507">
    <g
       transform="matrix(19.2,0,0,19.2,18277.176,1369.2682)"
       id="g1495">
      <g
         transform="matrix(1,0,0,-1,0,1638)"
         display="none"
         id="g1489">
        <path
           inkscape:connector-curvature="0"
           display="inline"
           d="m 14.9,1631.5 c 0.8,0 1.6,-0.3 2.3,-0.9 0.3,-0.3 0.6,-0.7 0.8,-1.1 0.2,-0.5 0.3,-0.9 0.3,-1.5 0,-1.4 -0.6,-2.6 -1.8,-3.6 -0.5,-0.4 -1.3,-1.2 -2.6,-2.2 -1.3,-1 -1.9,-1.5 -1.9,-1.5 l -4.6,3.8 c -0.5,0.5 -1,1 -1.3,1.6 -0.3,0.6 -0.5,1.2 -0.5,1.8 0,0.5 0.1,1.1 0.2,1.5 0.2,0.7 0.7,1.3 1.3,1.7 0.6,0.4 1.2,0.6 1.9,0.6 1.2,0 2.2,-0.5 2.9,-1.5 0.9,0.8 1.9,1.3 3,1.3 z"
           id="path1487" />
      </g>
      <path
         inkscape:connector-curvature="0"
         display="none"
         d="M 15.1,7.4 C 14,7.4 12,8.4 12,9.7 12,8.5 10.1,7.4 8.9,7.4 7.5,7.4 6.3,8.2 5.7,9.5 4.5,12 6.8,13.9 8.5,15.4 9.4,16 12,18.2 12,18.2 c 0,0 3.9,-3.2 4.6,-3.9 1.2,-1.1 2.3,-2.5 1.9,-4.2 -0.4,-1.6 -2,-2.7 -3.4,-2.7 z"
         id="path1491" />
      <path
         inkscape:connector-curvature="0"
         fill="#4588A9"
         d="M 15,7 C 13,7 12,9 12,9 12,9 11,7 9,7 6.5,7 5,9 5,11 c 0,4 5,5 7,8 2,-3 7,-4 7,-8 0,-2 -1.5,-4 -4,-4 z"
         id="path1493"
         style="fill:#d11d13;fill-opacity:1" />
    </g>
    <g
       id="g1505"
       transform="matrix(19.2,0,0,19.2,18577.176,1369.2682)">
      <g
         id="g1499"
         display="none"
         transform="matrix(1,0,0,-1,0,1638)">
        <path
           id="path1497"
           d="m 14.9,1631.5 c 0.8,0 1.6,-0.3 2.3,-0.9 0.3,-0.3 0.6,-0.7 0.8,-1.1 0.2,-0.5 0.3,-0.9 0.3,-1.5 0,-1.4 -0.6,-2.6 -1.8,-3.6 -0.5,-0.4 -1.3,-1.2 -2.6,-2.2 -1.3,-1 -1.9,-1.5 -1.9,-1.5 l -4.6,3.8 c -0.5,0.5 -1,1 -1.3,1.6 -0.3,0.6 -0.5,1.2 -0.5,1.8 0,0.5 0.1,1.1 0.2,1.5 0.2,0.7 0.7,1.3 1.3,1.7 0.6,0.4 1.2,0.6 1.9,0.6 1.2,0 2.2,-0.5 2.9,-1.5 0.9,0.8 1.9,1.3 3,1.3 z"
           display="inline"
           inkscape:connector-curvature="0" />
      </g>
      <path
         id="path1501"
         d="M 15.1,7.4 C 14,7.4 12,8.4 12,9.7 12,8.5 10.1,7.4 8.9,7.4 7.5,7.4 6.3,8.2 5.7,9.5 4.5,12 6.8,13.9 8.5,15.4 9.4,16 12,18.2 12,18.2 c 0,0 3.9,-3.2 4.6,-3.9 1.2,-1.1 2.3,-2.5 1.9,-4.2 -0.4,-1.6 -2,-2.7 -3.4,-2.7 z"
         display="none"
         inkscape:connector-curvature="0" />
      <path
         style="fill:#d11d13;fill-opacity:1"
         id="path1503"
         d="M 15,7 C 13,7 12,9 12,9 12,9 11,7 9,7 6.5,7 5,9 5,11 c 0,4 5,5 7,8 2,-3 7,-4 7,-8 0,-2 -1.5,-4 -4,-4 z"
         fill="#4588A9"
         inkscape:connector-curvature="0" />
    </g>
  </g>
</svg>
