<?xml version="1.0" encoding="UTF-8" standalone="no"?>
<svg
   xmlns:dc="http://purl.org/dc/elements/1.1/"
   xmlns:cc="http://creativecommons.org/ns#"
   xmlns:rdf="http://www.w3.org/1999/02/22-rdf-syntax-ns#"
   xmlns:svg="http://www.w3.org/2000/svg"
   xmlns="http://www.w3.org/2000/svg"
   xmlns:sodipodi="http://sodipodi.sourceforge.net/DTD/sodipodi-0.dtd"
   xmlns:inkscape="http://www.inkscape.org/namespaces/inkscape"
   version="1.1"
   width="28100"
   height="4700"
   viewBox="-500 -500 28100 4700"
   id="svg166"
   inkscape:version="1.0.1 (c497b03c, 2020-09-10)"
   inkscape:export-filename="zu-alaql.png"
   inkscape:export-xdpi="19.99943"
   inkscape:export-ydpi="19.99943">
  <metadata
     id="metadata172">
    <rdf:RDF>
      <cc:Work
         rdf:about="">
        <dc:format>image/svg+xml</dc:format>
        <dc:type
           rdf:resource="http://purl.org/dc/dcmitype/StillImage" />
        <dc:title></dc:title>
      </cc:Work>
    </rdf:RDF>
  </metadata>
  <defs
     id="defs170" />
  <sodipodi:namedview
     pagecolor="#868686"
     bordercolor="#666666"
     borderopacity="1"
     objecttolerance="10"
     gridtolerance="10"
     guidetolerance="10"
     inkscape:pageopacity="1"
     inkscape:pageshadow="2"
     inkscape:window-width="640"
     inkscape:window-height="480"
     id="namedview168"
     showgrid="false"
     inkscape:current-layer="svg166"
     fit-margin-top="1000"
     lock-margins="true"
     fit-margin-left="1000"
     fit-margin-right="1000"
     fit-margin-bottom="1000" />
  <g
     id="g1237"
     transform="translate(500,500)">
    <path
       style="fill:#b2b2b2;fill-opacity:1"
       d="m 1700,1200 c 56,0 100,-44 100,-100 0,-56 -44,-100 -100,-100 -56,0 -100,44 -100,100 0,56 44,100 100,100 z"
       id="path14" />
    <path
       style="fill:#b2b2b2;fill-opacity:1"
       d="m 1850,2700 c 56,0 100,-44 100,-100 0,-56 -44,-100 -100,-100 -56,0 -100,44 -100,100 0,56 44,100 100,100 z m 300,0 c 56,0 100,-44 100,-100 0,-56 -44,-100 -100,-100 -56,0 -100,44 -100,100 0,56 44,100 100,100 z"
       id="path18" />
    <path
       style="fill:#b2b2b2;fill-opacity:1"
       d="m 2300,1500 c 56,0 100,-44 100,-100 0,-56 -44,-100 -100,-100 -56,0 -100,44 -100,100 0,56 44,100 100,100 z m 0,-300 c 56,0 100,-44 100,-100 0,-56 -44,-100 -100,-100 -56,0 -100,44 -100,100 0,56 44,100 100,100 z"
       id="path24" />
    <path
       style="fill:#b2b2b2;fill-opacity:1"
       d="m 3800,1200 c 56,0 100,-44 100,-100 0,-56 -44,-100 -100,-100 -56,0 -100,44 -100,100 0,56 44,100 100,100 z m 300,0 c 56,0 100,-44 100,-100 0,-56 -44,-100 -100,-100 -56,0 -100,44 -100,100 0,56 44,100 100,100 z"
       id="path32" />
    <path
       style="fill:#b2b2b2;fill-opacity:1"
       d="m 4550,1466 c 56,0 100,-44 100,-100 0,-56 -44,-100 -100,-100 -56,0 -100,44 -100,100 0,56 44,100 100,100 z m 300,0 c 56,0 100,-44 100,-100 0,-56 -44,-100 -100,-100 -56,0 -100,44 -100,100 0,56 44,100 100,100 z m -150,-266 c 56,0 100,-44 100,-100 0,-56 -44,-100 -100,-100 -56,0 -100,44 -100,100 0,56 44,100 100,100 z"
       id="path36" />
    <path
       style="fill:#b2b2b2;fill-opacity:1"
       d="m 6650,1200 c 56,0 100,-44 100,-100 0,-56 -44,-100 -100,-100 -56,0 -100,44 -100,100 0,56 44,100 100,100 z"
       id="path48" />
    <path
       style="fill:#b2b2b2;fill-opacity:1"
       d="m 7100,1500 c 56,0 100,-44 100,-100 0,-56 -44,-100 -100,-100 -56,0 -100,44 -100,100 0,56 44,100 100,100 z m 0,-300 c 56,0 100,-44 100,-100 0,-56 -44,-100 -100,-100 -56,0 -100,44 -100,100 0,56 44,100 100,100 z"
       id="path54" />
    <path
       style="fill:#b2b2b2;fill-opacity:1"
       d="m 9250,2700 c 56,0 100,-44 100,-100 0,-56 -44,-100 -100,-100 -56,0 -100,44 -100,100 0,56 44,100 100,100 z"
       id="path64" />
    <path
       style="fill:#b2b2b2;fill-opacity:1"
       d="m 10600,1200 c 56,0 100,-44 100,-100 0,-56 -44,-100 -100,-100 -56,0 -100,44 -100,100 0,56 44,100 100,100 z"
       id="path76" />
    <path
       style="fill:#b2b2b2;fill-opacity:1"
       d="m 13400,1200 c 56,0 100,-44 100,-100 0,-56 -44,-100 -100,-100 -56,0 -100,44 -100,100 0,56 44,100 100,100 z m 300,0 c 56,0 100,-44 100,-100 0,-56 -44,-100 -100,-100 -56,0 -100,44 -100,100 0,56 44,100 100,100 z"
       id="path92" />
    <path
       style="fill:#b2b2b2;fill-opacity:1"
       d="m 14580,2700 c 56,0 100,-44 100,-100 0,-56 -44,-100 -100,-100 -56,0 -100,44 -100,100 0,56 44,100 100,100 z"
       id="path98" />
    <path
       style="fill:#b2b2b2;fill-opacity:1"
       d="m 15450,2700 c 56,0 100,-44 100,-100 0,-56 -44,-100 -100,-100 -56,0 -100,44 -100,100 0,56 44,100 100,100 z m 300,0 c 56,0 100,-44 100,-100 0,-56 -44,-100 -100,-100 -56,0 -100,44 -100,100 0,56 44,100 100,100 z"
       id="path106" />
    <path
       style="fill:#b2b2b2;fill-opacity:1"
       d="m 16600,1200 c 56,0 100,-44 100,-100 0,-56 -44,-100 -100,-100 -56,0 -100,44 -100,100 0,56 44,100 100,100 z"
       id="path112" />
    <path
       style="fill:#b2b2b2;fill-opacity:1"
       d="m 18250,1200 c 56,0 100,-44 100,-100 0,-56 -44,-100 -100,-100 -56,0 -100,44 -100,100 0,56 44,100 100,100 z"
       id="path124" />
    <path
       style="fill:#b2b2b2;fill-opacity:1"
       d="m 19300,1200 c 56,0 100,-44 100,-100 0,-56 -44,-100 -100,-100 -56,0 -100,44 -100,100 0,56 44,100 100,100 z m 300,0 c 56,0 100,-44 100,-100 0,-56 -44,-100 -100,-100 -56,0 -100,44 -100,100 0,56 44,100 100,100 z"
       id="path132" />
    <path
       style="fill:#b2b2b2;fill-opacity:1"
       d="m 20050,1466 c 56,0 100,-44 100,-100 0,-56 -44,-100 -100,-100 -56,0 -100,44 -100,100 0,56 44,100 100,100 z m 300,0 c 56,0 100,-44 100,-100 0,-56 -44,-100 -100,-100 -56,0 -100,44 -100,100 0,56 44,100 100,100 z m -150,-266 c 56,0 100,-44 100,-100 0,-56 -44,-100 -100,-100 -56,0 -100,44 -100,100 0,56 44,100 100,100 z"
       id="path136" />
    <path
       style="fill:#b2b2b2;fill-opacity:1"
       d="m 20650,2700 c 56,0 100,-44 100,-100 0,-56 -44,-100 -100,-100 -56,0 -100,44 -100,100 0,56 44,100 100,100 z m 300,0 c 56,0 100,-44 100,-100 0,-56 -44,-100 -100,-100 -56,0 -100,44 -100,100 0,56 44,100 100,100 z"
       id="path140" />
    <path
       style="fill:#b2b2b2;fill-opacity:1"
       d="m 22000,1200 c 56,0 100,-44 100,-100 0,-56 -44,-100 -100,-100 -56,0 -100,44 -100,100 0,56 44,100 100,100 z m 300,0 c 56,0 100,-44 100,-100 0,-56 -44,-100 -100,-100 -56,0 -100,44 -100,100 0,56 44,100 100,100 z"
       id="path148" />
    <path
       style="fill:#b2b2b2;fill-opacity:1"
       d="m 25300,1200 c 56,0 100,-44 100,-100 0,-56 -44,-100 -100,-100 -56,0 -100,44 -100,100 0,56 44,100 100,100 z"
       id="path162" />
    <path
       d="m 11416,124 c -4,-24 -12,-40 -38,-50 12,-22 10,-50 -4,-72 -4,28 -16,50 -58,72 -50,24 -70,74 -54,128 h -32 v 66 h 258 c -38,-16 -66,-56 -66,-100 -8,18 -26,34 -48,34 -26,0 -50,-24 -50,-50 0,-28 24,-50 50,-50 18,0 34,8 42,22 z"
       id="path80"
       style="fill:#b2b2b2;fill-opacity:1" />
  </g>
  <g
     id="g1196"
     transform="translate(500,500)">
    <path
       d="m 138,2700 c 218,0 262,-142 262,-300 V 2300 H 200 v 100 c 2,84 2,268 -200,270 30,18 92,30 138,30 z M 500,2300 H 700 V 1900 H 500 Z M 200,2400 H 700 V 2200 H 200 Z m 300,-480 h 200 v -120 c -46,60 -118,100 -200,100 z m -100,300 v -20 c 0,-56 44,-100 100,-100 h 20 v -200 h -20 c -166,0 -300,134 -300,300 v 20 z"
       id="path10"
       style="fill:#4a4a4a;fill-opacity:1" />
    <path
       d="M 600,2400 H 950 V 2200 H 600 Z m 750,0 h 150 V 2200 H 1350 Z M 800,1900 c 52,0 98,4 140,10 48,-54 110,-102 184,-136 -28,-12 -58,-22 -88,-30 24,-60 64,-98 114,-128 50,30 88,68 114,128 -244,66 -416,234 -416,456 0,278 178,436 280,500 -52,-100 -90,-278 -90,-402 0,-284 166,-398 462,-398 2,-224 -134,-432 -350,-500 -216,68 -352,276 -350,500 z m 366,114 c 62,62 96,154 96,284 0,124 -38,302 -90,402 102,-64 280,-222 280,-500 0,-102 -36,-194 -100,-268 -84,14 -146,42 -186,82 z"
       id="path12"
       style="fill:#4a4a4a;fill-opacity:1" />
    <path
       d="m 1400,2400 h 400 v -500 h -200 v 300 h -200 z m 400,-460 v -340 c -46,116 -170,200 -300,200 0,0 100,0 100,100 v 40 z"
       id="path16"
       style="fill:#4a4a4a;fill-opacity:1" />
    <path
       d="m 1700,2400 h 400 v -500 h -200 v 300 h -200 z m 400,-460 v -340 c -46,116 -170,200 -300,200 0,0 100,0 100,100 v 40 z"
       id="path20"
       style="fill:#4a4a4a;fill-opacity:1" />
    <path
       d=""
       id="path22"
       style="fill:#4a4a4a;fill-opacity:1" />
    <path
       d="m 2100,2400 h 120 v -200 h -20 c 0,82 -40,154 -100,200 z m 400,-100 h 200 v -400 h -200 z m -300,100 h 500 v -200 h -500 z m 300,-480 h 200 v -120 c -46,60 -118,100 -200,100 z m -100,300 v -20 c 0,-56 44,-100 100,-100 h 20 v -200 h -20 c -166,0 -300,134 -300,300 v 20 z m 300,180 V 400 h -200 v 2000 z m 0,-1960 V 0 c -60,136 -170,240 -300,300 6,0 100,2 100,100 v 40 z"
       id="path26"
       style="fill:#4a4a4a;fill-opacity:1" />
    <path
       d="m 3002,2150 c 0,-28 22,-50 50,-50 28,0 50,22 50,50 0,28 -22,50 -50,50 -28,0 -50,-22 -50,-50 z m -302,550 h 252 c 154,0 282,-98 332,-236 24,-66 38,-140 38,-220 0,-206 -110,-320 -270,-444 0,52 -56,102 -84,114 -94,40 -166,128 -166,236 0,138 112,250 250,250 18,0 36,-2 54,-6 -20,60 -86,106 -152,106 -72,0 -130,-42 -154,-100 -14,112 -44,212 -100,300 z"
       id="path28"
       style="fill:#4a4a4a;fill-opacity:1" />
    <path
       d="m 3400,2400 h 200 V 400 h -200 z m 0,-1960 h 200 v -40 c 0,-98 94,-100 100,-100 C 3570,240 3460,136 3400,0 Z"
       id="path30"
       style="fill:#4a4a4a;fill-opacity:1" />
    <path
       d="m 3500,2400 h 700 v -200 h -700 z m 600,-200 c -8,0 -56,-48 -50,-88 10,-70 96,-158 150,-178 -36,-66 -36,-200 0,-266 l -250,-268 -250,268 c 36,66 36,200 0,266 54,20 140,108 150,178 6,40 -42,88 -50,88 v 22 h 300 z m -150,-312 c -28,0 -50,-38 -50,-88 0,-48 22,-86 50,-86 28,0 50,38 50,86 0,50 -22,88 -50,88 z"
       id="path34"
       style="fill:#4a4a4a;fill-opacity:1" />
    <path
       d="m 4300,2400 h 200 v -632 c 0,0 100,0 100,100 v 532 h 200 v -700 c 0,0 100,0 100,100 v 600 h 200 v -800 c -272,108 -634,194 -900,200 0,0 100,0 100,100 z m -200,0 h 600 v -200 h -600 z m 750,300 c 138,0 250,-114 250,-252 v -88 h -200 v 92 c 0,26 -22,48 -50,48 -28,0 -50,-22 -50,-48 v -92 h -200 v 88 c 0,138 110,252 250,252 z"
       id="path38"
       style="fill:#4a4a4a;fill-opacity:1" />
    <path
       d="M 5400,2400 V 400 h -200 v 2000 z m 0,-1960 V 0 c -60,136 -170,240 -300,300 6,0 100,2 100,100 v 40 z m -400,1760 v 200 h 200 v -200 z"
       id="path40"
       style="fill:#4a4a4a;fill-opacity:1" />
    <path
       d="m 5500,2400 h 200 V 400 h -200 z m 0,-1960 h 200 v -40 c 0,-98 94,-100 100,-100 C 5670,240 5560,136 5500,0 Z"
       id="path42"
       style="fill:#4a4a4a;fill-opacity:1" />
    <path
       d=""
       id="path44"
       style="fill:#4a4a4a;fill-opacity:1" />
    <path
       d="m 6100,2400 h 200 V 1100 h -200 z m -700,300 h 320 v -200 h -20 c -56,0 -100,-44 -100,-100 0,130 -84,254 -200,300 z m 400,-300 h 200 V 1400 h -200 z m 300,-1280 h 200 v -120 c -46,60 -118,100 -200,100 z m 20,180 v -200 h -20 c -166,0 -300,134 -300,300 v 20 h 200 v -20 c 0,-56 44,-100 100,-100 z m -440,1200 v 200 h 20 c 166,0 300,-134 300,-300 v -20 h -200 v 20 c 0,56 -44,100 -100,100 z"
       id="path46"
       style="fill:#4a4a4a;fill-opacity:1" />
    <path
       d="m 6200,2400 h 700 v -200 h -700 z m 500,0 h 200 v -400 h -200 z m 0,-400 h 200 v -400 h -200 z m -300,100 h 500 v -200 h -500 z m 300,-480 h 200 v -120 c -46,60 -118,100 -200,100 z m -100,300 v -20 c 0,-56 44,-100 100,-100 h 20 v -200 h -20 c -166,0 -300,134 -300,300 v 20 z"
       id="path50"
       style="fill:#4a4a4a;fill-opacity:1" />
    <path
       d=""
       id="path52"
       style="fill:#4a4a4a;fill-opacity:1" />
    <path
       d="m 7300,2400 h 200 v -800 h -200 z m -400,0 h 120 v -200 h -20 c 0,82 -40,154 -100,200 z m 400,-100 h 200 v -400 h -200 z m -300,100 h 500 v -200 h -500 z m 300,-480 h 200 v -120 c -46,60 -118,100 -200,100 z m -100,300 v -20 c 0,-56 44,-100 100,-100 h 20 v -200 h -20 c -166,0 -300,134 -300,300 v 20 z m 300,-580 v -340 c -46,116 -170,200 -300,200 0,0 100,0 100,100 v 40 z"
       id="path56"
       style="fill:#4a4a4a;fill-opacity:1" />
    <path
       d="M 7800,2400 V 400 h -200 v 2000 z m 0,-1960 V 0 c -60,136 -170,240 -300,300 6,0 100,2 100,100 v 40 z m -250,2260 c 138,0 250,-114 250,-252 v -88 h -200 v 92 c 0,26 -22,48 -50,48 -28,0 -50,-22 -50,-48 v -92 h -200 v 88 c 0,138 110,252 250,252 z"
       id="path58"
       style="fill:#4a4a4a;fill-opacity:1" />
    <path
       d="m 7900,2400 h 200 V 400 h -200 z m 0,-1960 h 200 v -40 c 0,-98 94,-100 100,-100 C 8070,240 7960,136 7900,0 Z"
       id="path60"
       style="fill:#4a4a4a;fill-opacity:1" />
    <path
       d="m 8420,2400 h -20 v -200 h 20 z m 80,0 h 200 v -626 h -200 z m 600,0 c -60,-46 -100,-118 -100,-200 h -20 v 200 z m -1100,0 H 9000 V 2200 H 8000 Z m 500,-200 v -20 h 200 v 20 z m 200,200 v 20 h -200 v -20 z m 20,-360 c 48,36 80,94 80,160 0,30 -6,56 -18,82 l 210,-4 c 6,-26 8,-52 8,-78 0,-178 -118,-330 -280,-382 z m -520,360 h 200 v -200 c 0,-66 32,-124 80,-160 v -222 c -162,52 -280,204 -280,382 z m 500,-592 v -208 c 0,-84 -42,-124 -122,-124 h -158 c 14,50 14,150 0,200 60,0 80,20 80,78 v 54 z m -250,892 c 138,0 250,-114 250,-252 v -88 h -200 v 92 c 0,26 -22,48 -50,48 -28,0 -50,-22 -50,-48 v -92 h -200 v 88 c 0,138 110,252 250,252 z"
       id="path62"
       style="fill:#4a4a4a;fill-opacity:1" />
    <path
       d="m 9176,2220 284,-20 c -68,0 -138,-54 -138,-162 0,-110 78,-238 78,-392 0,-186 -144,-346 -320,-346 h -380 c 74,100 106,200 100,300 16,-32 72,-100 150,-100 26,0 36,0 70,0 86,0 180,62 180,148 0,128 -82,230 -82,390 0,90 24,146 58,182 z m -276,180 h 560 v -200 h -560 z m 520,0 h 340 c -116,-46 -200,-170 -200,-300 0,0 0,100 -100,100 h -40 z"
       id="path66"
       style="fill:#4a4a4a;fill-opacity:1" />
    <path
       d="M 9700,2100 V 400 h -200 v 1700 z m -400,-200 v 200 h 240 V 1900 Z M 9700,440 V 0 c -60,136 -170,240 -300,300 6,0 100,2 100,100 v 40 z"
       id="path68"
       style="fill:#4a4a4a;fill-opacity:1" />
    <path
       d="m 9800,2400 h 200 V 400 h -200 z m 0,-1960 h 200 v -40 c 0,-98 94,-100 100,-100 C 9970,240 9860,136 9800,0 Z"
       id="path70"
       style="fill:#4a4a4a;fill-opacity:1" />
    <path
       d=""
       id="path72"
       style="fill:#4a4a4a;fill-opacity:1" />
    <path
       d="m 10302,2150 c 0,-28 22,-50 50,-50 28,0 50,22 50,50 0,28 -22,50 -50,50 -28,0 -50,-22 -50,-50 z m -302,550 h 252 c 154,0 282,-98 332,-236 24,-66 38,-140 38,-220 0,-206 -110,-320 -270,-444 0,52 -56,102 -84,114 -94,40 -166,128 -166,236 0,138 112,250 250,250 18,0 36,-2 54,-6 -20,60 -86,106 -152,106 -72,0 -130,-42 -154,-100 -14,112 -44,212 -100,300 z"
       id="path74"
       style="fill:#4a4a4a;fill-opacity:1" />
    <path
       d="m 11000,2400 h 200 v -200 h -200 z m -224,-180 h 302 c -94,-22 -156,-74 -156,-182 0,-110 78,-238 78,-392 0,-186 -144,-346 -320,-346 h -380 c 74,100 106,200 100,300 16,-32 72,-100 150,-100 26,0 36,0 70,0 86,0 180,62 180,148 0,128 -82,230 -82,390 0,90 24,146 58,182 z m -276,180 h 500 v -200 h -500 z m 660,0 h 340 c -116,-46 -200,-170 -200,-300 0,0 0,100 -100,100 h -40 z"
       id="path78"
       style="fill:#4a4a4a;fill-opacity:1" />
    <path
       d="m 11500,2400 h 200 V 400 h -200 z m 0,-1960 h 200 v -40 c 0,-98 94,-100 100,-100 -130,-60 -240,-164 -300,-300 z"
       id="path82"
       style="fill:#4a4a4a;fill-opacity:1" />
    <path
       d="m 12002,2150 c 0,-28 22,-50 50,-50 28,0 50,22 50,50 0,28 -22,50 -50,50 -28,0 -50,-22 -50,-50 z m -302,550 h 252 c 154,0 282,-98 332,-236 24,-66 38,-140 38,-220 0,-206 -110,-320 -270,-444 0,52 -56,102 -84,114 -94,40 -166,128 -166,236 0,138 112,250 250,250 18,0 36,-2 54,-6 -20,60 -86,106 -152,106 -72,0 -130,-42 -154,-100 -14,112 -44,212 -100,300 z"
       id="path84"
       style="fill:#4a4a4a;fill-opacity:1" />
    <path
       d=""
       id="path86"
       style="fill:#4a4a4a;fill-opacity:1" />
    <path
       d="m 12300,2400 h 120 v -200 h -20 c 0,82 -40,154 -100,200 z m 400,-100 h 200 v -400 h -200 z m -300,100 h 500 v -200 h -500 z m 300,-480 h 200 v -120 c -46,60 -118,100 -200,100 z m -100,300 v -20 c 0,-56 44,-100 100,-100 h 20 v -200 h -20 c -166,0 -300,134 -300,300 v 20 z m 300,180 V 400 h -200 v 2000 z m 0,-1960 V 0 c -60,136 -170,240 -300,300 6,0 100,2 100,100 v 40 z"
       id="path88"
       style="fill:#4a4a4a;fill-opacity:1" />
    <path
       d="m 13000,2400 h 200 V 400 h -200 z m 0,-1960 h 200 v -40 c 0,-98 94,-100 100,-100 -130,-60 -240,-164 -300,-300 z m -50,2260 c 138,0 250,-114 250,-252 v -88 h -200 v 92 c 0,26 -22,48 -50,48 -28,0 -50,-22 -50,-48 v -92 h -200 v 88 c 0,138 110,252 250,252 z"
       id="path90"
       style="fill:#4a4a4a;fill-opacity:1" />
    <path
       d="m 13100,2400 h 700 v -200 h -700 z m 600,-200 c -8,0 -56,-48 -50,-88 10,-70 96,-158 150,-178 -36,-66 -36,-200 0,-266 l -250,-268 -250,268 c 36,66 36,200 0,266 54,20 140,108 150,178 6,40 -42,88 -50,88 v 22 h 300 z m -150,-312 c -28,0 -50,-38 -50,-88 0,-48 22,-86 50,-86 28,0 50,38 50,86 0,50 -22,88 -50,88 z"
       id="path94"
       style="fill:#4a4a4a;fill-opacity:1" />
    <path
       d="m 14038,1870 c 48,-38 100,-68 144,-100 -40,-34 -72,-72 -86,-128 -14,-56 -2,-114 54,-142 -90,0 -188,60 -188,200 0,70 32,124 76,170 z m -338,530 h 800 v -200 c 0,-156 -62,-240 -138,-302 -46,44 -100,80 -146,114 58,50 84,96 84,188 h -200 c 0,-100 30,-146 100,-200 104,-80 238,-158 238,-300 0,-140 -98,-200 -188,-200 56,28 68,86 54,142 -54,222 -404,190 -404,558 h -200 z"
       id="path96"
       style="fill:#4a4a4a;fill-opacity:1" />
    <path
       d="m 14400,2400 h 400 v -500 h -200 v 300 h -200 z m 400,-460 v -340 c -46,116 -170,200 -300,200 0,0 100,0 100,100 v 40 z"
       id="path100"
       style="fill:#4a4a4a;fill-opacity:1" />
    <path
       d=""
       id="path102"
       style="fill:#4a4a4a;fill-opacity:1" />
    <path
       d="m 14838,2700 c 218,0 262,-142 262,-300 v -100 h -200 v 100 c 2,84 2,268 -200,270 30,18 92,30 138,30 z m 362,-400 h 200 v -400 h -200 z m -300,100 h 500 v -200 h -500 z m 300,-480 h 200 v -120 c -46,60 -118,100 -200,100 z m -100,300 v -20 c 0,-56 44,-100 100,-100 h 20 v -200 h -20 c -166,0 -300,134 -300,300 v 20 z"
       id="path104"
       style="fill:#4a4a4a;fill-opacity:1" />
    <path
       d="m 15300,2400 h 400 v -500 h -200 v 300 h -200 z m 400,-460 v -340 c -46,116 -170,200 -300,200 0,0 100,0 100,100 v 40 z"
       id="path108"
       style="fill:#4a4a4a;fill-opacity:1" />
    <path
       d="m 15938,1870 c 48,-38 100,-68 144,-100 -40,-34 -72,-72 -86,-128 -14,-56 -2,-114 54,-142 -90,0 -188,60 -188,200 0,70 32,124 76,170 z m -338,530 h 800 v -200 c 0,-156 -62,-240 -138,-302 -46,44 -100,80 -146,114 58,50 84,96 84,188 h -200 c 0,-100 30,-146 100,-200 104,-80 238,-158 238,-300 0,-140 -98,-200 -188,-200 56,28 68,86 54,142 -54,222 -404,190 -404,558 h -200 z"
       id="path110"
       style="fill:#4a4a4a;fill-opacity:1" />
    <path
       d="m 16300,2400 h 400 v -500 h -200 v 300 h -200 z m 400,-460 v -340 c -46,116 -170,200 -300,200 0,0 100,0 100,100 v 40 z"
       id="path114"
       style="fill:#4a4a4a;fill-opacity:1" />
    <path
       d="M 17000,2400 V 400 h -200 v 2000 z m 0,-1960 V 0 c -60,136 -170,240 -300,300 6,0 100,2 100,100 v 40 z m -250,2260 c 138,0 250,-114 250,-252 v -88 h -200 v 92 c 0,26 -22,48 -50,48 -28,0 -50,-22 -50,-48 v -92 h -200 v 88 c 0,138 110,252 250,252 z"
       id="path116"
       style="fill:#4a4a4a;fill-opacity:1" />
    <path
       d="m 17100,2400 h 200 V 400 h -200 z m 0,-1960 h 200 v -40 c 0,-98 94,-100 100,-100 -130,-60 -240,-164 -300,-300 z"
       id="path118"
       style="fill:#4a4a4a;fill-opacity:1" />
    <path
       d=""
       id="path120"
       style="fill:#4a4a4a;fill-opacity:1" />
    <path
       d="m 17700,2400 h 200 V 1100 h -200 z m -300,0 h 200 V 1400 h -200 z m -18,300 c 120,0 218,-88 218,-254 v -246 h -200 v 262 c 0,154 -120,196 -200,138 40,60 106,100 182,100 z m 318,-1580 h 200 v -120 c -46,60 -118,100 -200,100 z m 20,180 v -200 h -20 c -166,0 -300,134 -300,300 v 20 h 200 v -20 c 0,-56 44,-100 100,-100 z"
       id="path122"
       style="fill:#4a4a4a;fill-opacity:1" />
    <path
       d="m 17800,2400 h 700 v -200 h -700 z m 500,0 h 200 v -400 h -200 z m 0,-400 h 200 v -400 h -200 z m -300,100 h 500 v -200 h -500 z m 300,-480 h 200 v -120 c -46,60 -118,100 -200,100 z m -100,300 v -20 c 0,-56 44,-100 100,-100 h 20 v -200 h -20 c -166,0 -300,134 -300,300 v 20 z"
       id="path126"
       style="fill:#4a4a4a;fill-opacity:1" />
    <path
       d=""
       id="path128"
       style="fill:#4a4a4a;fill-opacity:1" />
    <path
       d="m 18900,2400 h 200 V 1100 h -200 z m -300,0 h 200 V 1400 h -200 z m -18,300 c 120,0 218,-88 218,-254 v -246 h -200 v 262 c 0,154 -120,196 -200,138 40,60 106,100 182,100 z m 318,-1580 h 200 v -120 c -46,60 -118,100 -200,100 z m 20,180 v -200 h -20 c -166,0 -300,134 -300,300 v 20 h 200 v -20 c 0,-56 44,-100 100,-100 z"
       id="path130"
       style="fill:#4a4a4a;fill-opacity:1" />
    <path
       d="m 19000,2400 h 700 v -200 h -700 z m 600,-200 c -8,0 -56,-48 -50,-88 10,-70 96,-158 150,-178 -36,-66 -36,-200 0,-266 l -250,-268 -250,268 c 36,66 36,200 0,266 54,20 140,108 150,178 6,40 -42,88 -50,88 v 22 h 300 z m -150,-312 c -28,0 -50,-38 -50,-88 0,-48 22,-86 50,-86 28,0 50,38 50,86 0,50 -22,88 -50,88 z"
       id="path134"
       style="fill:#4a4a4a;fill-opacity:1" />
    <path
       d="m 19800,2400 h 200 v -632 c 0,0 100,0 100,100 v 532 h 200 v -700 c 0,0 100,0 100,100 v 600 h 200 v -800 c -272,108 -634,194 -900,200 0,0 100,0 100,100 z m -200,0 h 300 v -200 h -300 z m 560,0 h 440 v -200 h -440 z m -110,300 c 138,0 250,-114 250,-252 v -88 h -200 v 92 c 0,26 -22,48 -50,48 -28,0 -50,-22 -50,-48 v -92 h -200 v 88 c 0,138 110,252 250,252 z"
       id="path138"
       style="fill:#4a4a4a;fill-opacity:1" />
    <path
       d="m 20500,2400 h 400 v -400 h -200 v 200 h -200 z m 400,-360 v -340 c -46,116 -170,200 -300,200 0,0 100,0 100,100 v 40 z"
       id="path142"
       style="fill:#4a4a4a;fill-opacity:1" />
    <path
       d=""
       id="path144"
       style="fill:#4a4a4a;fill-opacity:1" />
    <path
       d="m 21200,2400 h 300 v -200 h -300 z m 600,0 V 400 h -200 v 2000 z m 0,-1960 V 0 c -60,136 -170,240 -300,300 6,0 100,2 100,100 v 40 z m -250,2260 c 138,0 250,-114 250,-252 v -88 h -200 v 92 c 0,26 -22,48 -50,48 -28,0 -50,-22 -50,-48 v -92 h -200 v 88 c 0,138 110,252 250,252 z m -310,-300 v -200 h -40 c -100,0 -100,-100 -100,-100 0,130 -84,254 -200,300 z"
       id="path146"
       style="fill:#4a4a4a;fill-opacity:1" />
    <path
       d="m 21700,2400 h 700 v -200 h -700 z m 600,-200 c -8,0 -56,-48 -50,-88 10,-70 96,-158 150,-178 -36,-66 -36,-200 0,-266 l -250,-268 -250,268 c 36,66 36,200 0,266 54,20 140,108 150,178 6,40 -42,88 -50,88 v 22 h 300 z m -150,-312 c -28,0 -50,-38 -50,-88 0,-48 22,-86 50,-86 28,0 50,38 50,86 0,50 -22,88 -50,88 z"
       id="path150"
       style="fill:#4a4a4a;fill-opacity:1" />
    <path
       d="m 22300,2400 h 350 v -200 h -350 z m 750,0 h 150 v -200 h -150 z m -550,-500 c 52,0 98,4 140,10 48,-54 110,-102 184,-136 -28,-12 -58,-22 -88,-30 24,-60 64,-98 114,-128 50,30 88,68 114,128 -244,66 -416,234 -416,456 0,278 178,436 280,500 -52,-100 -90,-278 -90,-402 0,-284 166,-398 462,-398 2,-224 -134,-432 -350,-500 -216,68 -352,276 -350,500 z m 366,114 c 62,62 96,154 96,284 0,124 -38,302 -90,402 102,-64 280,-222 280,-500 0,-102 -36,-194 -100,-268 -84,14 -146,42 -186,82 z"
       id="path152"
       style="fill:#4a4a4a;fill-opacity:1" />
    <path
       d="M 23500,2400 V 400 h -200 v 2000 z m 0,-1960 V 0 c -60,136 -170,240 -300,300 6,0 100,2 100,100 v 40 z m -400,1760 v 200 h 200 v -200 z"
       id="path154"
       style="fill:#4a4a4a;fill-opacity:1" />
    <path
       d="m 23600,2400 h 200 V 400 h -200 z m 0,-1960 h 200 v -40 c 0,-98 94,-100 100,-100 -130,-60 -240,-164 -300,-300 z"
       id="path156"
       style="fill:#4a4a4a;fill-opacity:1" />
    <path
       d=""
       id="path158"
       style="fill:#4a4a4a;fill-opacity:1" />
    <path
       d="m 24102,2150 c 0,-28 22,-50 50,-50 28,0 50,22 50,50 0,28 -22,50 -50,50 -28,0 -50,-22 -50,-50 z m -302,550 h 252 c 154,0 282,-98 332,-236 24,-66 38,-140 38,-220 0,-206 -110,-320 -270,-444 0,52 -56,102 -84,114 -94,40 -166,128 -166,236 0,138 112,250 250,250 18,0 36,-2 54,-6 -20,60 -86,106 -152,106 -72,0 -130,-42 -154,-100 -14,112 -44,212 -100,300 z"
       id="path160"
       style="fill:#4a4a4a;fill-opacity:1" />
    <path
       d="m 24500,2400 h 1300 v -200 h -1300 z m 0,-500 v 200 h 1600 v -200 z m 1400,500 h 200 v -500 h -200 z m -50,300 c 138,0 250,-114 250,-252 v -88 h -200 v 92 c 0,26 -22,48 -50,48 -28,0 -50,-22 -50,-48 v -92 h -200 v 88 c 0,138 110,252 250,252 z m -1350,-700 h 200 V 400 h -200 z m 0,-1560 h 200 v -40 c 0,-98 94,-100 100,-100 -130,-60 -240,-164 -300,-300 z m 0,1920 v 340 c 46,-116 170,-200 300,-200 0,0 -100,0 -100,-100 v -40 z"
       id="path164"
       style="fill:#4a4a4a;fill-opacity:1" />
  </g>
  <g
     id="g496"
     transform="matrix(0.14834923,0,0,0.14834923,3926.3052,2927.0374)"
     style="fill:#4a4a4a;fill-opacity:1">
    <path
       d="m 2657.1168,1840 h 4020.6595 l 82,-140 H 2713.1168 c -64,0 -108,-6 -154,-52 l -62,-62 c -34,-34 -16,-128 12,-100 l 104,104 c 20,20 38,30 62,30 h 134 v -140 h -62 c -18,0 -28,-10 -36,-18 l -128,-128 c -100,-100 -188,198 -188,296 0,170 114,208 262,210 z"
       id="path833-6"
       sodipodi:nodetypes="cccssssssccssssc"
       style="fill:#4a4a4a;fill-opacity:1" />
    <path
       d="m 2769.1168,1620 h 280 v -140 c -44,0 -80,-36 -80,-80 v -320 l -160,40 v 360 h -40 z"
       id="path837-0"
       style="fill:#4a4a4a;fill-opacity:1" />
    <path
       d="m 3009.1168,1620 h 760 v -140 c -44,0 -80,-36 -80,-80 v -320 l -160,40 v 360 c -44,0 -80,-36 -80,-80 v -260 l -160,40 v 300 c -44,0 -80,-36 -80,-80 v -200 l -160,40 v 240 h -40 z"
       id="path839-1"
       style="fill:#4a4a4a;fill-opacity:1" />
    <path
       d="m 3729.1168,1620 h 678 l 82,-140 h -274 c -116,0 -238,-130 -360,-280 l -86,140 c 38,56 94,114 124,140 h -164 z"
       id="path841-4"
       style="fill:#4a4a4a;fill-opacity:1" />
    <path
       d=""
       id="path843-8"
       style="fill:#4a4a4a;fill-opacity:1" />
    <path
       d="m 4489.1168,1620 h 1200 v -140 h -86 c -30,-190 -146,-220 -222,-220 h -652 l 54,-140 h -6 l -160,280 h 744 c 44,0 80,36 80,80 h -872 z"
       id="path845-3"
       style="fill:#4a4a4a;fill-opacity:1" />
    <path
       d="m 5649.1168,1620 h 124 c 46,0 76,-30 76,-80 V 500 l -160,40 v 940 h -40 z"
       id="path847-8"
       style="fill:#4a4a4a;fill-opacity:1" />
    <path
       d="M 6089.1168,1460 V 500 l -160,40 v 1000 c 0,50 30,80 76,80 h 164 v -140 h -60 c -14,0 -20,-6 -20,-20 z"
       id="path849-1"
       style="fill:#4a4a4a;fill-opacity:1" />
    <path
       d="m 6567.1168,1294 94,-158 -34,-20 -94,158 z"
       id="path851-5"
       style="fill:#4a4a4a;fill-opacity:1" />
    <path
       d="m 6129.1168,1620 h 678 l 82,-140 h -274 c -116,0 -238,-130 -360,-280 l -86,140 c 38,56 94,114 124,140 h -164 z"
       id="path853-2"
       style="fill:#4a4a4a;fill-opacity:1" />
    <path
       style="fill:#4a4a4a;fill-opacity:1"
       d="m 2969.1168,1000 v -40 l -160,40 v 40 z"
       id="path887-2"
       sodipodi:nodetypes="ccccc" />
    <path
       id="path405"
       d="M 215.02177,912.08399 V 1620 H 356.60503 V 912.08399 Z"
       style="fill:#4a4a4a;fill-opacity:1;stroke-width:1.01131" />
    <path
       id="path407"
       d="M 680.22378,912.08399 V 1195.2504 H 579.09283 V 912.08399 H 437.50969 V 1620 H 1064.5211 V 1478.4168 H 579.09283 V 1336.8336 H 1064.5211 V 1195.2504 H 821.80697 V 1053.6672 H 1064.5211 V 912.08399 Z"
       style="fill:#4a4a4a;fill-opacity:1;stroke-width:1.01131" />
    <path
       id="path409"
       d="M 1388.14,912.08399 V 1195.2504 H 1287.009 V 912.08399 H 1145.4258 V 1620 h 627.0113 V 1478.4168 H 1287.009 v -141.5832 h 485.4281 V 1195.2504 H 1529.723 v -141.5832 h 242.7141 V 912.08399 Z"
       style="fill:#4a4a4a;fill-opacity:1;stroke-width:1.01131" />
    <path
       id="path411"
       d="M 2136.5082,912.08399 V 1096.1422 H 1994.925 V 912.08399 H 1853.3418 V 1620 h 141.5832 v -382.2746 h 283.1663 V 912.08399 Z"
       style="fill:#4a4a4a;fill-opacity:1;stroke-width:1.01131" />
  </g>
</svg>
