<?xml version="1.0" encoding="UTF-8" standalone="no"?>
<svg
   xmlns:dc="http://purl.org/dc/elements/1.1/"
   xmlns:cc="http://creativecommons.org/ns#"
   xmlns:rdf="http://www.w3.org/1999/02/22-rdf-syntax-ns#"
   xmlns:svg="http://www.w3.org/2000/svg"
   xmlns="http://www.w3.org/2000/svg"
   xmlns:sodipodi="http://sodipodi.sourceforge.net/DTD/sodipodi-0.dtd"
   xmlns:inkscape="http://www.inkscape.org/namespaces/inkscape"
   inkscape:export-ydpi="200"
   inkscape:export-xdpi="200"
   inkscape:version="1.0beta1 (32d4812, 2019-09-19)"
   viewBox="0 0 1456.5029 644.72809"
   height="644.72809"
   width="1456.5029"
   id="svg885"
   version="1.1">
  <metadata
     id="metadata891">
    <rdf:RDF>
      <cc:Work
         rdf:about="">
        <dc:format>image/svg+xml</dc:format>
        <dc:type
           rdf:resource="http://purl.org/dc/dcmitype/StillImage" />
        <dc:title></dc:title>
      </cc:Work>
    </rdf:RDF>
  </metadata>
  <defs
     id="defs889" />
  <sodipodi:namedview
     fit-margin-bottom="100"
     fit-margin-right="100"
     fit-margin-left="100"
     fit-margin-top="100"
     inkscape:current-layer="g893"
     inkscape:window-maximized="1"
     inkscape:window-y="23"
     inkscape:window-x="0"
     inkscape:cy="391.38963"
     inkscape:cx="1002.5975"
     inkscape:zoom="0.27443776"
     showgrid="false"
     id="namedview887"
     inkscape:window-height="1081"
     inkscape:window-width="2048"
     inkscape:pageshadow="2"
     inkscape:pageopacity="1"
     guidetolerance="10"
     gridtolerance="10"
     objecttolerance="10"
     borderopacity="1"
     inkscape:document-rotation="0"
     bordercolor="#666666"
     pagecolor="#ffe6b8" />
  <g
     transform="translate(-1313.2323,-777.48143)"
     id="g893"
     inkscape:label="Image"
     inkscape:groupmode="layer">
    <path
       sodipodi:nodetypes="ccccsssssccccccccccccc"
       inkscape:connector-curvature="0"
       id="path919"
       d="m 2096.163,1160.3928 c 28.1884,20.0862 49.6723,43.213 63.1411,65.9242 -26.1153,16.7607 -99.709,21.1178 -167.8493,4.1151 -14.1734,35.7666 -26.3735,63.5808 -36.818,82.8938 146.4524,23.534 247.4071,-0.8622 258.0182,-59.3115 17.7064,-97.5328 -72.5853,-149.392 -127.0333,-169.7484 -2.9813,-1.1146 -6.5336,-0.3166 -8.4402,1.6891 -36.9044,38.8261 -59.8173,80.706 -78.5306,126.4284 -1.2045,2.9432 0.3047,5.1946 2.0373,5.9521 24.5963,10.7532 103.6605,20.0779 198.8205,7.1627 142.6645,-6.3278 324.8408,-23.531 429.8205,-34.7421 l 40.406,-60.723 c -223.2134,16.3229 -287.1228,-49.9137 -368.5782,-107.057 -2.7844,13.5217 -12.1878,32.2559 -43.6863,61.3568 34.3101,43.0779 97.5644,75.6454 147.6034,85.6793 l -5.5942,-17.6154 c -144.3422,11.7507 -162.5119,-79.84 -179.3348,-136.8643 -17.2393,21.5204 -34.9338,41.8948 -56.5201,52.4719 9.1965,42.3658 25.6685,81.6321 58.924,112.5966 l 8.4895,-20.9424 c -46.0878,5.3494 -84.8464,4.4982 -133.2155,2.2216 z"
       style="opacity:1;fill:#5e3e00;fill-opacity:1;stroke:none;stroke-width:1px;stroke-linecap:butt;stroke-linejoin:miter;stroke-opacity:1;stop-opacity:1" />
    <path
       sodipodi:nodetypes="ccssssc"
       inkscape:connector-curvature="0"
       id="path921"
       d="m 1831.4163,877.48143 c -21.3798,28.44975 -42.9318,37.81598 -64.4669,49.07808 1.859,73.07373 -2.0097,155.86889 4.1557,209.29049 10.7687,93.3071 152.7269,98.4218 222.8794,16.799 4.8875,-5.6866 0.2808,-8.7146 -2.982,-7.2642 -46.4761,20.66 -134.2191,18.3351 -149.4225,-19.3551 -12.5529,-31.1195 -9.6108,-120.9289 -10.1637,-248.54827 z"
       style="opacity:1;fill:#5e3e00;fill-opacity:1;stroke:none;stroke-width:1px;stroke-linecap:butt;stroke-linejoin:miter;stroke-opacity:1;stop-opacity:1" />
    <path
       sodipodi:nodetypes="cssssssscccccccc"
       inkscape:connector-curvature="0"
       id="path923"
       d="m 1709.4658,989.00603 c 6.569,51.84627 8.8069,111.39077 7.7513,166.37167 -0.1231,6.4063 -4.8231,12.6949 -7.7134,16.6831 -27.6831,38.199 -140.589,58.228 -227.3682,27.508 -3.7352,-1.3222 -5.4163,-6.1431 -2.3585,-11.604 23.7334,-42.3856 52.6973,-72.2545 80.0514,-104.4723 3.7211,-4.3827 8.9338,-4.8622 11.7955,-3.1686 86.2377,51.0402 117.9623,111.6293 111.4637,151.7106 -11.3097,69.756 -171.0296,76.5112 -269.8553,51.5001 19.0588,-18.183 35.4575,-40.8441 60.4567,-75.6309 41.8498,24.3736 135.9367,17.4738 144.5181,3.8651 -13.3823,-22.0819 -20.7716,-38.562 -41.1985,-55.2455 l -1.1442,-0.9875 c 31.5605,-4.487 72.9604,-12.7838 79.2792,-15.389 2.078,-29.1872 -1.336,-70.2872 -8.4165,-115.6074 32.0021,-8.3631 46.3097,-17.7322 62.7387,-35.53337 z"
       style="opacity:1;fill:#5e3e00;fill-opacity:1;stroke:none;stroke-width:1px;stroke-linecap:butt;stroke-linejoin:miter;stroke-opacity:1;stop-opacity:1" />
  </g>
</svg>
