<?xml version="1.0" encoding="UTF-8" standalone="no"?>
<svg
   xmlns:dc="http://purl.org/dc/elements/1.1/"
   xmlns:cc="http://creativecommons.org/ns#"
   xmlns:rdf="http://www.w3.org/1999/02/22-rdf-syntax-ns#"
   xmlns:svg="http://www.w3.org/2000/svg"
   xmlns="http://www.w3.org/2000/svg"
   xmlns:sodipodi="http://sodipodi.sourceforge.net/DTD/sodipodi-0.dtd"
   xmlns:inkscape="http://www.inkscape.org/namespaces/inkscape"
   inkscape:export-ydpi="96"
   inkscape:export-xdpi="96"
   inkscape:export-filename="/Users/khaled/Hibrayer/1.png"
   inkscape:version="1.0beta1 (32d4812, 2019-09-19)"
   sodipodi:docname="1.svg"
   id="svg913"
   viewBox="-500 -500 3178.5827 4493.8583"
   height="1189mm"
   width="841mm"
   version="1.1">
  <metadata
     id="metadata919">
    <rdf:RDF>
      <cc:Work
         rdf:about="">
        <dc:format>image/svg+xml</dc:format>
        <dc:type
           rdf:resource="http://purl.org/dc/dcmitype/StillImage" />
        <dc:title></dc:title>
      </cc:Work>
    </rdf:RDF>
  </metadata>
  <defs
     id="defs917" />
  <sodipodi:namedview
     units="mm"
     inkscape:current-layer="svg913"
     inkscape:window-maximized="0"
     inkscape:window-y="23"
     inkscape:window-x="0"
     inkscape:cy="2753.2293"
     inkscape:cx="3375.5205"
     inkscape:zoom="0.085421129"
     showgrid="false"
     id="namedview915"
     inkscape:window-height="771"
     inkscape:window-width="1600"
     inkscape:pageshadow="2"
     inkscape:pageopacity="0"
     guidetolerance="10"
     gridtolerance="10"
     objecttolerance="10"
     borderopacity="1"
     inkscape:document-rotation="0"
     bordercolor="#666666"
     pagecolor="#ffffff" />
  <g
     transform="matrix(0.5,0,0,0.5,439.29133,646.92915)"
     id="g2119">
    <path
       d="M -330.52686,3036.4565 H 2930.5269 V 4743.1584 H -330.52686 Z"
       style="opacity:1;fill:#ffe6b8;fill-opacity:1;stroke:#ffe6b8;stroke-width:22.6772;stroke-miterlimit:4;stroke-dasharray:none;stroke-dashoffset:3.77953;stroke-opacity:1;paint-order:markers fill stroke;stop-opacity:1"
       id="path2113"
       inkscape:connector-curvature="0" />
    <path
       id="rect921"
       style="opacity:1;fill:none;fill-opacity:1;stroke:#5e3e00;stroke-width:22.6772;stroke-miterlimit:4;stroke-dasharray:none;stroke-dashoffset:3.77953;stroke-opacity:1;paint-order:markers fill stroke;stop-opacity:1"
       d="M 278.49592,3036.4565 H 2930.5269 V 4743.1584 H -330.52686 V 3036.4565 H 20.021721"
       inkscape:connector-curvature="0"
       sodipodi:nodetypes="cccccc" />
    <path
       id="path899"
       style="opacity:1;fill:#5e3e00;fill-opacity:1;stroke:none;stop-opacity:1"
       d="m 250,-354.49706 c -60,136 -170,240 -300,300 6,0 100,2 100,100 v 2219.99996 1960 h 200 300 1200 c -116,-46 -200,-170 -200,-300 0,0 -32,100 -162,100 -158,0 -264,-216 -300,-310 -30,-80 -54,-148 -84,-212 -54,-116 -146,-176 -266,-176 -54,0 -144,22 -204,48 60,54 102,120 116,200 20,-34 50,-50 78,-50 44,0 74,16 96,62 12,24 62,164 76,200 32,80 76,164 124,238 H 550 v -300 -300 c -46,116 -170,200 -300,200 0,0 100,0 100,100 v 40 260 H 250 v -400 -1400 z M 1750,4225.5029 c 26,144 -74,268 -200,270 162,86 400,-24 400,-268 0,-0.671 -0.012,-1.331 -0.014,-2 h 0.014 600 100 c -60,-46 -100,-118 -100,-200 v -50 c 0,-26 -2,-54 -18,-104 -38,-122 -168,-212 -232,-246 0,52 -56,104 -84,114 -96,34 -166,128 -166,236 v 50 h -100 -36.4102 c -34.9422,-92.3685 -92.7783,-179.9805 -163.5898,-300 0,122 -28,218 -100,300 62,64 90,140 100,200 z m 550,-300 c 28,0 50,22 50,50 0,28 -22,50 -50,50 -28,0 -50,-22 -50,-50 0,-28 22,-50 50,-50 z"
       inkscape:connector-curvature="0" />
    <path
       inkscape:connector-curvature="0"
       style="opacity:1;fill:#d22e1f;fill-opacity:1;stroke:none;stop-opacity:1"
       d="m 300,4525.5029 c 56,0 100,-44 100,-100 0,-56 -44,-100 -100,-100 -56,0 -100,44 -100,100 0,56 44,100 100,100 z"
       id="path901" />
  </g>
</svg>
