<?xml version="1.0" encoding="UTF-8" standalone="no"?>
<svg
   xmlns:dc="http://purl.org/dc/elements/1.1/"
   xmlns:cc="http://creativecommons.org/ns#"
   xmlns:rdf="http://www.w3.org/1999/02/22-rdf-syntax-ns#"
   xmlns:svg="http://www.w3.org/2000/svg"
   xmlns="http://www.w3.org/2000/svg"
   xmlns:sodipodi="http://sodipodi.sourceforge.net/DTD/sodipodi-0.dtd"
   xmlns:inkscape="http://www.inkscape.org/namespaces/inkscape"
   inkscape:export-ydpi="96"
   inkscape:export-xdpi="96"
   inkscape:version="1.0beta1 (32d4812, 2019-09-19)"
   id="svg849"
   viewBox="-500 -500 5000 5000"
   height="5000"
   width="5000"
   version="1.1">
  <metadata
     id="metadata855">
    <rdf:RDF>
      <cc:Work
         rdf:about="">
        <dc:format>image/svg+xml</dc:format>
        <dc:type
           rdf:resource="http://purl.org/dc/dcmitype/StillImage" />
        <dc:title></dc:title>
      </cc:Work>
    </rdf:RDF>
  </metadata>
  <defs
     id="defs853" />
  <sodipodi:namedview
     inkscape:current-layer="svg849"
     inkscape:window-maximized="0"
     inkscape:window-y="23"
     inkscape:window-x="0"
     inkscape:cy="2231.6213"
     inkscape:cx="4391.5442"
     inkscape:zoom="0.084580804"
     inkscape:guide-bbox="true"
     showguides="true"
     showgrid="false"
     id="namedview851"
     inkscape:window-height="771"
     inkscape:window-width="1600"
     inkscape:pageshadow="2"
     inkscape:pageopacity="1"
     guidetolerance="10"
     gridtolerance="10"
     objecttolerance="10"
     borderopacity="1"
     inkscape:document-rotation="0"
     bordercolor="#666666"
     pagecolor="#ffe8b6" />
  <path
     id="path837"
     d=""
     inkscape:connector-curvature="0"
     style="opacity:1;stop-opacity:1" />
  <path
     id="path845"
     d=""
     inkscape:connector-curvature="0"
     style="opacity:1;stop-opacity:1" />
  <g
     transform="translate(-2e-5)"
     id="g946"
     style="opacity:1;stop-opacity:1">
    <path
       id="path1120"
       d=""
       inkscape:connector-curvature="0"
       style="opacity:1;stop-opacity:1" />
    <path
       id="path1128"
       d=""
       inkscape:connector-curvature="0"
       style="opacity:1;stop-opacity:1" />
  </g>
  <g
     transform="translate(0,-156.65485)"
     id="g1355">
    <rect
       style="opacity:0.99;fill:#f6d07e;fill-opacity:1;stroke-width:18.1357;stroke-linecap:round;stroke-linejoin:round;stroke-miterlimit:4;stroke-dasharray:none;stroke-dashoffset:3.77953;paint-order:markers stroke fill"
       id="rect1273"
       width="3999.6982"
       height="1528.425"
       x="0.15087891"
       y="1444.8846" />
    <path
       inkscape:connector-curvature="0"
       style="opacity:1;fill:#bb2f2f;fill-opacity:1;stop-opacity:1"
       d="m 2299,1540 c 56,0 100,-44 100,-100 0,-56 -44,-100 -100,-100 -56,0 -100,44 -100,100 0,56 44,100 100,100 z"
       id="path972" />
    <path
       inkscape:connector-curvature="0"
       style="opacity:1;fill:#bb2f2f;fill-opacity:1;stop-opacity:1"
       d="m 1999,1540 c 56,0 100,-44 100,-100 0,-56 -44,-100 -100,-100 -56,0 -100,44 -100,100 0,56 44,100 100,100 z"
       id="path841" />
    <path
       id="path976"
       d="m 1701,1540 c 56,0 100,-44 100,-100 0,-56 -44,-100 -100,-100 -56,0 -100,44 -100,100 0,56 44,100 100,100 z"
       style="opacity:1;fill:#bb2f2f;fill-opacity:1;stop-opacity:1"
       inkscape:connector-curvature="0" />
    <path
       id="path835"
       style="opacity:0.99;fill:#494343;fill-opacity:1;stop-opacity:1"
       d="m 3280.1777,2180 c -46,116 -170,200 -300,200 0,0 100,0 100,100 v 180 h -79.875 c -1.5234,-3.4715 -2.906,-6.8172 -4.125,-10 -30,-80 -54,-148 -84,-212 -54,-116 -146,-176 -266,-176 -54,0 -144,22 -204,48 60,54 102,120 116,200 20,-34 50,-50 78,-50 44,0 74,16 96,62 12,24 62,164 76,200 32,80 76,164 124,238 h -490.3535 v -700 c -46,60 -118,100 -200,100 -166,0 -300,134 -300,300 v 200 h 300 v 100 H 1141.8223 c -56.8379,-1.5331 -83.6996,-33.9679 -92.3164,-81.9668 -15.7041,-90.2037 41.6958,-186.1895 135.1972,-199.4785 69.6239,-9.8951 143.924,35.87 150.4961,108.7734 2.2056,24.4663 -5.3856,50.3921 -20.0449,69.7617 -14.6593,19.3695 -35.8835,32.1663 -61.9336,31.9278 -5.9224,-0.054 -12.2802,-1.2387 -18.4727,-3.3418 20.1895,-3.9786 34.7453,-21.682 34.7461,-42.2598 -10e-5,-23.7892 -19.285,-43.0741 -43.0742,-43.0742 -16.6057,-5e-4 -31.7329,9.5446 -38.8808,24.5332 -2.479,5.0007 -3.7148,10.2375 -4.0937,15.623 -1.3048,17.1824 6.716,32.554 18.5215,43.3204 13.947,12.7195 33.0179,20.1466 51.1152,20.3125 31.1483,0.2851 57.0986,-15.4196 74.1231,-37.9141 17.0244,-22.4946 25.6174,-51.7962 23.0527,-80.2461 -2.8496,-31.6098 -16.7826,-58.5907 -37.2441,-79.2305 l 0.1484,-226.5273 c 0,-100 100,-100 100,-100 -130,0 -254,-84 -300,-200 V 2690.25 c -59.671,40.2085 -91.3185,117.0324 -78.5488,190.3809 9.038,113.9615 -113.84573,245.9685 -192.79103,279.3691 H 4158.1777 c -116,-46 -200,-170 -200,-300 0,0 -144,110 -410,110 -161.2884,0 -329.8173,-30.8142 -412.6425,-110 h 742.6425 v -600 c -46,60 -118,100 -200,100 -166,0 -300,134 -300,300 h -98 z m -1038.3535,380 v 100 h -100 c 0,-56 44,-100 100,-100 z m 1436.3535,0 v 100 h -100 c 0,-56 44,-100 100,-100 z"
       transform="translate(-500,-500)"
       inkscape:connector-curvature="0"
       sodipodi:nodetypes="ccsccccsccscccccssccccccsccccccccccccccccccccscccsccccccccccc" />
  </g>
  <g
     style="fill:#4a4443;fill-opacity:1"
     id="g1339" />
</svg>
