<?xml version="1.0" encoding="UTF-8" standalone="no"?>
<svg
   xmlns:dc="http://purl.org/dc/elements/1.1/"
   xmlns:cc="http://creativecommons.org/ns#"
   xmlns:rdf="http://www.w3.org/1999/02/22-rdf-syntax-ns#"
   xmlns:svg="http://www.w3.org/2000/svg"
   xmlns="http://www.w3.org/2000/svg"
   xmlns:sodipodi="http://sodipodi.sourceforge.net/DTD/sodipodi-0.dtd"
   xmlns:inkscape="http://www.inkscape.org/namespaces/inkscape"
   inkscape:export-ydpi="96"
   inkscape:export-xdpi="96"
   inkscape:export-filename="10.png"
   inkscape:version="1.0beta1 (32d4812, 2019-09-19)"
   sodipodi:docname="10.svg"
   id="svg841"
   viewBox="-500 -500 4614 3700"
   height="3700"
   width="4614"
   version="1.1">
  <metadata
     id="metadata847">
    <rdf:RDF>
      <cc:Work
         rdf:about="">
        <dc:format>image/svg+xml</dc:format>
        <dc:type
           rdf:resource="http://purl.org/dc/dcmitype/StillImage" />
        <dc:title></dc:title>
      </cc:Work>
    </rdf:RDF>
  </metadata>
  <defs
     id="defs845">
    <inkscape:path-effect
       is_visible="true"
       id="path-effect991"
       effect="spiro" />
    <inkscape:path-effect
       is_visible="true"
       id="path-effect985"
       effect="spiro" />
  </defs>
  <sodipodi:namedview
     inkscape:current-layer="svg841"
     inkscape:window-maximized="0"
     inkscape:window-y="23"
     inkscape:window-x="0"
     inkscape:cy="1834.855"
     inkscape:cx="2307"
     inkscape:zoom="0.066028485"
     showgrid="false"
     id="namedview843"
     inkscape:window-height="805"
     inkscape:window-width="1635"
     inkscape:pageshadow="2"
     inkscape:pageopacity="0"
     guidetolerance="10"
     gridtolerance="10"
     objecttolerance="10"
     borderopacity="1"
     inkscape:document-rotation="0"
     bordercolor="#666666"
     pagecolor="#ffffff" />
  <rect
     y="-500"
     x="-500"
     height="3700"
     width="4614"
     id="rect1006"
     style="fill:#fff6d5;fill-opacity:1;stroke:none;stroke-width:18.9523;stroke-linecap:round;stroke-linejoin:round;stroke-miterlimit:4;stroke-dasharray:none;paint-order:markers stroke fill" />
  <g
     transform="matrix(1.0028159,0,0,1.0029728,1.3790919,1.4254786)"
     style="fill:#c8ab37;fill-opacity:1;stroke:none"
     id="g1004">
    <path
       id="path943"
       style="opacity:1;fill:#c8ab37;fill-opacity:1;stroke:none;stop-opacity:1"
       d="m 1343.0723,2014.8887 c -24.7249,0.067 -49.5906,7.1959 -70.1055,21.5722 -20.5621,14.4093 -36.1961,35.9404 -42.2793,60.6289 -3.3637,13.6514 -3.7717,28.0498 -0.8652,41.9317 2.9087,13.8925 9.1206,27.0934 18.2851,38.0918 9.1727,11.0083 21.1766,19.6241 34.7637,24.5449 13.601,4.9259 28.5316,6.0304 42.7617,2.8262 12.3448,-2.7797 23.859,-8.7334 33.2656,-17.1973 9.4066,-8.4638 16.5384,-19.2877 20.6016,-31.2715 4.0631,-11.9839 4.9872,-24.9139 2.668,-37.3535 -2.3193,-12.4395 -7.8406,-24.1683 -15.9492,-33.8828 l -14.5079,12.1094 c 6.0013,7.1898 10.1624,16.0296 11.8789,25.2363 1.7166,9.2067 1.0209,18.9529 -1.9863,27.8223 -3.0072,8.8694 -8.3818,17.0286 -15.3437,23.2929 -6.962,6.2642 -15.6428,10.7494 -24.7793,12.8067 -10.5246,2.3698 -21.9168,1.5584 -32.1739,-2.1563 -10.2709,-3.7199 -19.6108,-10.3894 -26.6816,-18.875 -7.0789,-8.4955 -12.0154,-18.9238 -14.3066,-29.8672 -2.2935,-10.9541 -1.9883,-22.5528 0.7187,-33.539 4.881,-19.8095 17.8066,-37.7827 34.7754,-49.6739 17.016,-11.9243 38.2067,-18.0914 59.3105,-18.1484 21.1449,-0.057 42.4028,5.8568 61.2872,16.0859 18.9078,10.2418 35.5959,24.7773 49.4082,41.6954 20.6802,25.3303 34.8935,56.0202 40.7461,88.1738 5.8522,32.1518 3.3554,65.8877 -7.2461,96.7812 -10.6009,30.8916 -29.356,59.0541 -53.8184,80.6661 -24.461,21.6107 -54.7303,36.7487 -86.6953,43.2617 -31.0201,6.3205 -63.6828,4.6532 -95.0879,-2.42 -31.4296,-7.0787 -61.7623,-19.4694 -90.9746,-34.2988 -58.4363,-29.6649 -112.7687,-69.2903 -173.95314,-98.3359 -68.35813,-32.4511 -144.31045,-50.4911 -220.32422,-47.0664 -76.06635,3.4271 -151.78625,28.9364 -211.70117,76.5898 -83.60743,66.4971 -131.2284,174.926 -123.625,281.4824 C 446.50995,2725.279 355.24852,2855.5579 250,2900 h 340 560 100 c -60,-46 -100,-118 -100,-200 v -50 c 0,-108.5775 -69.3404,-201.0449 -166.11914,-235.5449 C 956.01417,2402.643 900,2351.3372 900,2300 c 0,51.3372 -56.01417,102.643 -83.88086,114.4551 C 719.34041,2448.9551 650,2541.4225 650,2650 v 50 h -60 -40 c -77.24431,-1.443 -95.36648,-64.8367 -100.01172,-124.9434 -7.13746,-100.0265 38.05518,-202.9254 116.53906,-265.3476 56.40598,-44.8625 128.37991,-69.2397 200.78907,-72.502 72.46175,-3.2647 145.46216,13.9743 211.36914,45.2618 59.05245,28.0335 113.25735,67.5324 173.50195,98.1152 30.1281,15.2944 61.8841,28.3394 95.377,35.8828 33.5173,7.549 68.8228,9.4662 103.0117,2.5 35.2799,-7.1884 68.4664,-23.7886 95.4355,-47.6152 26.9676,-23.8253 47.5075,-54.6741 59.1817,-88.6934 11.6735,-34.0174 14.402,-70.9354 7.9648,-106.3008 -6.4368,-35.3636 -21.9806,-68.9107 -44.7012,-96.7402 -15.1708,-18.5821 -33.6558,-34.7736 -55.0449,-46.3594 -21.4126,-11.5985 -45.6559,-18.4357 -70.3398,-18.3691 z M 900,2600 c 28,0 50,22 50,50 0,28 -22,50 -50,50 -28,0 -50,-22 -50,-50 0,-28 22,-50 50,-50 z"
       transform="translate(-500,-500)"
       inkscape:connector-curvature="0"
       sodipodi:nodetypes="sccccccccccccsccccccsccscccsscssccccccsscccsccccssscccsccscssssss" />
    <path
       style="opacity:1;fill:#c8ab37;fill-opacity:1;stroke:none;stop-opacity:1"
       inkscape:connector-curvature="0"
       d="m 1702,1944 142,-140 -234,-234 c -18,-18 -18,-50 2,-70 20,-20 48,-18 68,0 l 22,20 142,-140 -20,-20 c -96,-96 -256,-100 -354,0 -96,98 -96,256 2,354 z m 98,-212 236,-234 c 18,-18 48,-18 68,2 20,20 20,50 2,68 l -22,24 140,140 20,-20 c 98,-98 102,-254 2,-354 -98,-98 -256,-96 -354,2 l -232,232 z m 212,-184 -140,142 578,578 214,-68 h -610 l 4,200 h 606 v -200 z m -1020,710 282,2 358,-358 -142,-142 z m -462,142 h 1458 c 32,-66 10,-144 -58,-200 H 530 Z m 996,-220 h 252 l 278,-278 -142,-142 -314,314 c -30,30 -56,66 -74,106 z m -24,240 c 38,160 184,280 356,280 200,0 364,-164 364,-366 0,-102 -42,-194 -110,-260 l -100,-100 -140,140 104,104 c 22,26 46,70 46,118 0,90 -74,164 -164,164 -60,0 -114,-32 -142,-80 z"
       id="path945"
       sodipodi:nodetypes="ccsscccscscccscccssscccccccccccccccccccccccccsccssccccsscc" />
    <path
       style="opacity:1;fill:#c8ab37;fill-opacity:1;stroke:none;stop-opacity:1"
       inkscape:connector-curvature="0"
       d="m 2764,2400 h 200 V 400 h -200 z m 0,-1960 h 200 v -40 c 0,-98 94,-100 100,-100 C 2934,240 2824,136 2764,0 Z m -200,1760 v 200 h 240 v -200 z m -60,0 v 200 h 240 v -200 z"
       id="path947" />
    <path
       style="opacity:1;fill:#c8ab37;fill-opacity:1;stroke:none;stop-opacity:1"
       inkscape:connector-curvature="0"
       d="m 3064,2350 h 20 v -200 h -20 z m -200,50 h 700 v -200 h -700 z m 680,0 h 120 c -60,-46 -100,-118 -100,-200 v -50 h -20 z m -230,0 c 138,0 250,-112 250,-250 0,-138 -112,-250 -250,-250 -138,0 -250,112 -250,250 0,138 112,250 250,250 z m 0,-200 c -28,0 -50,-22 -50,-50 0,-28 22,-50 50,-50 28,0 50,22 50,50 0,28 -22,50 -50,50 z m -88,-264 h 176 v -20 c -26,-8 -88,-62 -88,-116 0,54 -62,108 -88,116 z"
       id="path949" />
    <path
       id="path969"
       style="opacity:1;fill:#c8ab37;fill-opacity:1;stroke:none;stop-opacity:1"
       d="m 944,1572 c -30.3496,-25.6534 -48.28864,-41.1518 -93.96073,-43.6546 C 808.26594,1526.8161 768.57492,1549.0353 744,1584 V 400 H 944 Z M 944,440 H 744 V 400 C 744,302 650,300 644,300 774,240 884,136 944,0 Z"
       inkscape:connector-curvature="0"
       sodipodi:nodetypes="ccccccccsccc" />
  </g>
</svg>
