<?xml version="1.0" encoding="UTF-8" standalone="no"?>
<svg
   xmlns:dc="http://purl.org/dc/elements/1.1/"
   xmlns:cc="http://creativecommons.org/ns#"
   xmlns:rdf="http://www.w3.org/1999/02/22-rdf-syntax-ns#"
   xmlns:svg="http://www.w3.org/2000/svg"
   xmlns="http://www.w3.org/2000/svg"
   xmlns:sodipodi="http://sodipodi.sourceforge.net/DTD/sodipodi-0.dtd"
   xmlns:inkscape="http://www.inkscape.org/namespaces/inkscape"
   inkscape:export-ydpi="96"
   inkscape:export-xdpi="96"
   inkscape:export-filename="10.png"
   inkscape:version="1.0beta1 (32d4812, 2019-09-19)"
   sodipodi:docname="10.svg.2020_02_10_23_24_37.0.svg"
   id="svg841"
   viewBox="-500 -500 4614 3700"
   height="3700"
   width="4614"
   version="1.1">
  <metadata
     id="metadata847">
    <rdf:RDF>
      <cc:Work
         rdf:about="">
        <dc:format>image/svg+xml</dc:format>
        <dc:type
           rdf:resource="http://purl.org/dc/dcmitype/StillImage" />
        <dc:title />
      </cc:Work>
    </rdf:RDF>
  </metadata>
  <defs
     id="defs845">
    <inkscape:path-effect
       is_visible="true"
       id="path-effect856"
       effect="spiro" />
    <inkscape:path-effect
       is_visible="true"
       id="path-effect968"
       effect="spiro" />
    <inkscape:path-effect
       is_visible="true"
       id="path-effect1020"
       effect="spiro" />
    <inkscape:path-effect
       is_visible="true"
       id="path-effect1018"
       effect="spiro" />
    <inkscape:path-effect
       is_visible="true"
       id="path-effect1016"
       effect="spiro" />
    <inkscape:path-effect
       is_visible="true"
       id="path-effect991"
       effect="spiro" />
    <inkscape:path-effect
       is_visible="true"
       id="path-effect985"
       effect="spiro" />
  </defs>
  <sodipodi:namedview
     inkscape:guide-bbox="true"
     showguides="true"
     inkscape:current-layer="svg841"
     inkscape:window-maximized="1"
     inkscape:window-y="23"
     inkscape:window-x="0"
     inkscape:cy="2378.6761"
     inkscape:cx="1107.4277"
     inkscape:zoom="0.084894456"
     showgrid="false"
     id="namedview843"
     inkscape:window-height="1081"
     inkscape:window-width="2048"
     inkscape:pageshadow="2"
     inkscape:pageopacity="0"
     guidetolerance="10"
     gridtolerance="10"
     objecttolerance="10"
     borderopacity="1"
     inkscape:document-rotation="0"
     bordercolor="#666666"
     pagecolor="#ffffff" />
  <rect
     inkscape:export-ydpi="96"
     inkscape:export-xdpi="96"
     inkscape:export-filename="./rect1006.png"
     y="-500"
     x="-500"
     height="3700"
     width="4614"
     id="rect1006"
     style="fill:#fff6d5;fill-opacity:1;stroke:none;stroke-width:18.9523;stroke-linecap:round;stroke-linejoin:round;stroke-miterlimit:4;stroke-dasharray:none;paint-order:markers stroke fill" />
  <path
     sodipodi:nodetypes="sscccccscccccccccscccscccscscccccsscccsccccscccccscccssssss"
     inkscape:connector-curvature="0"
     transform="translate(-500,-500)"
     d="m 1356.9844,2022.7207 c -19.6195,0.086 -39.2431,4.144 -57.2227,12.3125 -21.9361,9.966 -41.1333,25.9893 -54.3789,46.3203 -13.1796,20.2298 -20.2173,44.5153 -18.8769,68.8672 1.3428,24.3964 11.2014,48.2727 28.3671,65.9922 17.2042,17.759 41.29,28.613 66.2481,28.7246 25.025,0.1116 49.7706,-10.7888 65.9707,-30.166 16.4934,-19.7281 22.2238,-46.7494 16.7461,-71.875 -6.6733,-30.6098 -29.3556,-55.4651 -54.1055,-55.7617 -18.6877,-9e-4 -33.8377,15.1482 -33.8379,33.8359 -9e-4,18.6885 15.1494,33.8388 33.8379,33.8379 13.4392,-6e-4 25.6041,-7.9547 30.9942,-20.2656 2.0615,4.0984 3.6754,8.4011 4.75,12.8203 4.5914,18.8832 -0.4169,40.3787 -12.8809,55.2871 -12.2909,14.7015 -32.0006,23.4733 -51.3906,23.3867 -19.4569,-0.087 -39.0593,-8.8304 -52.7617,-22.9746 -13.7409,-14.1841 -21.9718,-33.924 -23.0704,-53.8828 -1.101,-20.0034 4.7737,-40.5191 15.8418,-57.5078 11.1534,-17.1196 27.6065,-30.911 46.3614,-39.4317 18.7731,-8.529 39.9789,-11.9188 60.6953,-10.1718 41.3731,3.4888 80.8862,28.6675 101.5508,64.6894 20.6652,36.0231 22.4636,82.8404 4.6406,120.3555 -13.5095,28.4358 -37.7901,51.7765 -66.4844,65.3047 -28.732,13.5458 -61.9803,17.5605 -93.5703,12.373 -54.6642,-8.9764 -103.315,-44.6794 -159.3477,-66.5098 -65.2801,-25.4328 -138.6123,-29.1436 -206.12495,-10.4277 -67.51267,18.7159 -128.47344,59.6527 -171.34766,115.0684 -42.87423,55.4155 -67.19591,124.7083 -68.36719,194.7676 -0.31116,18.6121 1.02951,37.2213 3.91016,55.5859 10.78474,145.4314 -79.10196,271.6366 -182.45508,315.2851 h 340.95703 561.57619 100.2812 c -60.1689,-46.1368 -100.2812,-118.3519 -100.2812,-200.5957 v -50.1484 c 0,-108.9003 -69.5347,-201.6416 -166.586,-236.2441 -27.9451,-11.8472 -84.1171,-63.3052 -84.1171,-114.795 0,51.4898 -56.1721,102.9478 -84.1172,114.795 -97.0513,34.6025 -166.58792,127.3438 -166.58792,236.2441 v 50.1484 h -60.16797 -40.11328 c -89.41071,-16.7365 -102.25579,-97.2435 -103.40625,-169.9609 1.10146,-65.8833 24.10129,-131.4032 64.41992,-183.5156 40.31863,-52.1125 97.9608,-90.8237 161.44922,-108.4238 63.48848,-17.6004 132.82978,-14.0909 194.21878,9.8261 52.8122,20.5756 102.5424,57.599 163.1465,67.5508 35.2031,5.7808 72.1933,1.3898 104.6875,-13.9297 32.5318,-15.3374 59.9558,-41.5786 75.496,-74.289 20.6126,-43.3867 18.5852,-96.2014 -5.3183,-137.8692 -23.9042,-41.669 -68.4868,-70.0827 -116.3535,-74.1191 -2.9773,-0.2511 -5.9628,-0.4091 -8.9512,-0.4766 -1.3074,-0.03 -2.6159,-0.043 -3.9238,-0.037 z m -174.4785,584.9473 c 28.0788,0 50.1406,22.0652 50.1406,50.1484 0,28.0832 -22.0618,50.1484 -50.1406,50.1484 -28.0789,0 -50.1407,-22.0652 -50.1407,-50.1484 0,-28.0832 22.0618,-50.1484 50.1407,-50.1484 z"
     style="opacity:1;fill:#c8ab37;fill-opacity:1;stroke:none;stroke-width:1.00289;stop-opacity:1"
     id="path943" />
  <path
     sodipodi:nodetypes="ccsscccscscccscccssscccccccccccccccccccccccccsccssccccsscc"
     id="path945"
     d="m 1708.1718,1951.2046 142.3998,-140.4162 -234.6589,-234.6956 c -18.0507,-18.0535 -18.0507,-50.1487 2.0056,-70.2081 20.0563,-20.0595 48.1352,-18.0535 68.1915,0 l 22.062,20.0594 142.3998,-140.4162 -20.0563,-20.0594 c -96.2703,-96.2854 -256.7209,-100.2973 -354.9968,0 -96.2704,98.2913 -96.2704,256.761 2.0056,355.0524 z m 98.2759,-212.6302 236.6646,-234.6957 c 18.0507,-18.0535 48.1351,-18.0535 68.1914,2.006 20.0564,20.0594 20.0564,50.1486 2.0057,68.2021 l -22.062,24.0714 140.3943,140.4162 20.0563,-20.0595 c 98.2759,-98.2913 102.2872,-254.7551 2.0056,-355.0524 -98.276,-98.2913 -256.7209,-96.2853 -354.9968,2.006 l -232.6533,232.6897 z m 212.597,-184.547 -140.3942,142.4221 579.6275,579.7183 214.6026,-68.2022 H 2061.163 l 4.0112,200.5946 h 607.7064 v -200.5946 z m -1022.87224,712.1107 282.79404,2.0059 359.0081,-359.0643 -142.3998,-142.4221 z M 532.87152,2408.5602 H 1994.9771 c 32.0901,-66.1962 10.0282,-144.4281 -58.1633,-200.5946 H 532.87152 Z m 998.80468,-220.654 h 252.7096 l 278.7828,-278.8265 -142.3999,-142.4221 -314.8842,314.9335 c -30.0844,30.0891 -56.1577,66.1962 -74.2083,106.3151 z m -24.0676,240.7135 c 38.107,160.4756 184.5181,280.8323 357.0024,280.8323 200.5632,0 365.025,-164.4875 365.025,-367.088 0,-102.3032 -42.1182,-194.5767 -110.3097,-260.7729 l -100.2816,-100.2973 -140.3942,140.4162 104.2928,104.3091 c 22.062,26.0773 46.1295,70.2081 46.1295,118.3508 0,90.2676 -74.2083,164.4876 -164.4618,164.4876 -60.1689,0 -114.321,-32.0952 -142.3998,-80.2378 z"
     inkscape:connector-curvature="0"
     style="opacity:1;fill:#c8ab37;fill-opacity:1;stroke:none;stroke-width:1.00289;stop-opacity:1" />
  <path
     id="path947"
     d="m 2773.1622,2408.5602 h 200.5632 V 402.6146 h -200.5632 z m 0,-1965.82669 h 200.5632 V 402.6146 c 0,-98.29134 94.2647,-100.29728 100.2816,-100.29728 C 2943.6409,242.13895 2833.3312,137.82978 2773.1622,1.4254786 Z M 2572.5991,2207.9656 v 200.5946 h 240.6758 v -200.5946 z m -60.169,0 v 200.5946 h 240.6758 v -200.5946 z"
     inkscape:connector-curvature="0"
     style="opacity:1;fill:#c8ab37;fill-opacity:1;stroke:none;stroke-width:1.00289;stop-opacity:1" />
  <path
     id="path949"
     d="m 3074.007,2358.4116 h 20.0563 V 2157.817 h -20.0563 z m -200.5632,50.1486 h 701.9712 v -200.5946 h -701.9712 z m 681.9148,0 h 120.3379 c -60.1689,-46.1368 -100.2815,-118.3508 -100.2815,-200.5946 v -50.1486 h -20.0564 z m -230.6476,0 c 138.3886,0 250.704,-112.333 250.704,-250.7432 0,-138.4102 -112.3154,-250.7432 -250.704,-250.7432 -138.3886,0 -250.704,112.333 -250.704,250.7432 0,138.4102 112.3154,250.7432 250.704,250.7432 z m 0,-200.5946 c -28.0789,0 -50.1408,-22.0654 -50.1408,-50.1486 0,-28.0832 22.0619,-50.1486 50.1408,-50.1486 28.0788,0 50.1408,22.0654 50.1408,50.1486 0,28.0832 -22.062,50.1486 -50.1408,50.1486 z m -88.2478,-264.7848 h 176.4956 v -20.0594 c -26.0732,-8.0238 -88.2478,-62.1844 -88.2478,-116.3449 0,54.1605 -62.1746,108.3211 -88.2478,116.3449 z"
     inkscape:connector-curvature="0"
     style="opacity:1;fill:#c8ab37;fill-opacity:1;stroke:none;stroke-width:1.00289;stop-opacity:1" />
  <path
     sodipodi:nodetypes="ccccccccsccc"
     inkscape:connector-curvature="0"
     d="m 948.0373,1578.0987 c -30.43506,-25.7296 -48.42461,-41.2741 -94.22531,-43.7844 -41.89096,-1.5338 -81.69375,20.7515 -106.33787,55.8201 V 402.6146 H 948.0373 Z m 0,-1135.36519 H 747.47412 V 402.6146 c 0,-98.29134 -94.26469,-100.29728 -100.28159,-100.29728 C 777.5586,242.13895 887.86835,137.82978 948.0373,1.4254786 Z"
     style="opacity:1;fill:#c8ab37;fill-opacity:1;stroke:none;stroke-width:1.00289;stop-opacity:1"
     id="path969" />
  <g
     transform="matrix(1.0028159,0,0,1.0029728,1.3790919,1.4254786)"
     id="g964"
     style="opacity:1;fill:#c8ab37;fill-opacity:1;stroke:none;stop-opacity:1" />
  <g
     transform="matrix(1.0028159,0,0,1.0029728,1.3790919,1.4254786)"
     id="g850"
     style="opacity:1;fill:#c8ab37;fill-opacity:1;stroke:none;stop-opacity:1" />
</svg>
