<?xml version="1.0" encoding="UTF-8" standalone="no"?>
<svg
   xmlns:dc="http://purl.org/dc/elements/1.1/"
   xmlns:cc="http://creativecommons.org/ns#"
   xmlns:rdf="http://www.w3.org/1999/02/22-rdf-syntax-ns#"
   xmlns:svg="http://www.w3.org/2000/svg"
   xmlns="http://www.w3.org/2000/svg"
   xmlns:sodipodi="http://sodipodi.sourceforge.net/DTD/sodipodi-0.dtd"
   xmlns:inkscape="http://www.inkscape.org/namespaces/inkscape"
   inkscape:export-ydpi="96"
   inkscape:export-xdpi="96"
   inkscape:export-filename="12.png"
   inkscape:version="1.0beta1 (32d4812, 2019-09-19)"
   sodipodi:docname="12.svg"
   id="svg863"
   viewBox="-500 -500 6000 6000"
   height="6000"
   width="6000"
   version="1.1">
  <metadata
     id="metadata869">
    <rdf:RDF>
      <cc:Work
         rdf:about="">
        <dc:format>image/svg+xml</dc:format>
        <dc:type
           rdf:resource="http://purl.org/dc/dcmitype/StillImage" />
        <dc:title></dc:title>
      </cc:Work>
    </rdf:RDF>
  </metadata>
  <defs
     id="defs867" />
  <sodipodi:namedview
     inkscape:current-layer="svg863"
     inkscape:window-maximized="0"
     inkscape:window-y="23"
     inkscape:window-x="0"
     inkscape:cy="1215.7829"
     inkscape:cx="2968.741"
     inkscape:zoom="0.063981482"
     showgrid="false"
     id="namedview865"
     inkscape:window-height="805"
     inkscape:window-width="1600"
     inkscape:pageshadow="2"
     inkscape:pageopacity="0"
     guidetolerance="10"
     gridtolerance="10"
     objecttolerance="10"
     borderopacity="1"
     inkscape:document-rotation="0"
     bordercolor="#666666"
     pagecolor="#ffffff" />
  <rect
     y="-500"
     x="-500"
     height="6000"
     width="6000"
     id="rect1662"
     style="fill:#fff6d5;fill-opacity:1;stroke-width:0.409989;stroke-linecap:round;stroke-linejoin:round;paint-order:markers stroke fill" />
  <g
     transform="translate(0,-20.8712)"
     id="g1710">
    <path
       inkscape:connector-curvature="0"
       style="opacity:1;fill:#d22e1f;fill-opacity:1;stop-opacity:1"
       d="m 2675.2439,1412.7877 c 56,0 100,-44 100,-100 0,-56 -44,-100 -100,-100 -56,0 -100,44 -100,100 0,56 44,100 100,100 z"
       id="path833" />
    <path
       style="opacity:1;fill:#c8ab37;fill-opacity:1;stop-opacity:1"
       inkscape:connector-curvature="0"
       d="m 2260,2368.8712 h 348 v -200 h -352 c -26,0 -48,-22 -48,-50 0,-28 22,-50 48,-50 h 252 v -200 h -248 c -138,0 -252,110 -252,250 0,138 114,250 252,250 z m -368,-1150 c 60,54 102,120 116,200 20,-34 50,-50 78,-50 44,0 74,16 96,62 12,24 62,164 76,200 32,80 76,164 124,238 h -14 v 200 h 740 c -116,-46 -200,-170 -200,-300 0,0 -32,100 -162,100 -158,0 -264,-216 -300,-310 -30,-80 -54,-148 -84,-212 -54,-116 -146,-176 -266,-176 -54,0 -144,22 -204,48 z m 676,1150 h 340 c -116,-46 -200,-170 -200,-300 0,0 0,100 -100,100 h -40 z"
       id="path835" />
  </g>
  <g
     transform="translate(-215,1150)"
     id="g934"
     style="opacity:1;stop-opacity:1">
    <path
       style="fill:#d22e1f;fill-opacity:1"
       d="m 2420,1500 c 56,0 100,-44 100,-100 0,-56 -44,-100 -100,-100 -56,0 -100,44 -100,100 0,56 44,100 100,100 z"
       id="path841"
       inkscape:connector-curvature="0" />
    <path
       style="fill:#d22e1f;fill-opacity:1"
       d="m 2710,1500 c 56,0 100,-44 100,-100 0,-56 -44,-100 -100,-100 -56,0 -100,44 -100,100 0,56 44,100 100,100 z m 300,0 c 56,0 100,-44 100,-100 0,-56 -44,-100 -100,-100 -56,0 -100,44 -100,100 0,56 44,100 100,100 z"
       id="path845"
       inkscape:connector-curvature="0" />
  </g>
  <path
     inkscape:connector-curvature="0"
     id="path900"
     d="m 1910,3550 h -440 v -200 h 440 z"
     style="opacity:1;fill:#c8ab37;fill-opacity:1;stop-opacity:1" />
  <path
     id="path898"
     d="m 2150,3550 h -300 v -200 h 300 z"
     inkscape:connector-curvature="0"
     style="opacity:1;fill:#c8ab37;fill-opacity:1;stop-opacity:1" />
  <path
     inkscape:connector-curvature="0"
     id="path849"
     d="m 1950,3350 v 200 h 240 v -200 z"
     style="opacity:1;fill:#c8ab37;fill-opacity:1;stop-opacity:1" />
  <path
     id="path851"
     d="m 2570,3350 v 200 h 240 v -200 z"
     inkscape:connector-curvature="0"
     style="opacity:1;fill:#c8ab37;fill-opacity:1;stop-opacity:1" />
  <path
     inkscape:connector-curvature="0"
     id="path853"
     d="m 2370,3350 v 200 h 240 v -200 z"
     style="opacity:1;fill:#c8ab37;fill-opacity:1;stop-opacity:1" />
  <path
     id="path855"
     d="m 2770,3350 v 200 h 240 v -200 z"
     inkscape:connector-curvature="0"
     style="opacity:1;fill:#c8ab37;fill-opacity:1;stop-opacity:1" />
  <path
     id="path857"
     d="m 2870,3350 v 200 h 240 v -200 z"
     inkscape:connector-curvature="0"
     style="opacity:1;fill:#c8ab37;fill-opacity:1;stop-opacity:1" />
  <path
     id="path837"
     d="M 1070,3550 V 1550 H 870 v 2000 z m 0,-1960 v -440 c -60,136 -170,240 -300,300 6,0 100,2 100,100 v 40 z"
     inkscape:connector-curvature="0"
     style="opacity:1;fill:#c8ab37;fill-opacity:1;stop-opacity:1" />
  <path
     inkscape:connector-curvature="0"
     id="path902"
     d="m 1400,3850 c -138,0 -250,-114 -250,-252 v -88 h 200 v 92 c 0,26 22,48 50,48 28,0 50,-22 50,-48 v -92 h 200 v 88 c 0,138 -110,252 -250,252 z"
     style="opacity:1;fill:#c8ab37;fill-opacity:1;stop-opacity:1" />
  <path
     id="path839"
     d="m 1950,3550 h -200 v -632 c 0,0 -100,0 -100,100 v 532 h -200 v -700 c 0,0 -100,0 -100,100 v 600 h -200 v -800 c 272,108 634,194 900,200 0,0 -100,0 -100,100 z"
     inkscape:connector-curvature="0"
     style="opacity:1;fill:#c8ab37;fill-opacity:1;stop-opacity:1" />
  <path
     inkscape:connector-curvature="0"
     id="path843"
     d="m 2040,3550 h 400 v -500 h -200 v 300 h -200 z m 400,-460 v -340 c -46,116 -170,200 -300,200 0,0 100,0 100,100 v 40 z"
     style="opacity:1;fill:#c8ab37;fill-opacity:1;stop-opacity:1" />
  <path
     inkscape:connector-curvature="0"
     id="path847"
     d="m 2960,3550 h -400 v -500 h 200 v 300 h 200 z m -400,-460 v -340 c 46,116 170,200 300,200 0,0 -100,0 -100,100 v 40 z"
     style="opacity:1;fill:#c8ab37;fill-opacity:1;stop-opacity:1" />
  <path
     inkscape:connector-curvature="0"
     id="path859"
     d="m 3030,3550 h 200 v -632 c 0,0 100,0 100,100 v 532 h 200 v -700 c 0,0 100,0 100,100 v 600 h 200 v -800 c -272,108 -634,194 -900,200 0,0 100,0 100,100 z m -200,0 h 600 v -200 h -600 z m 750,300 c 138,0 250,-114 250,-252 v -88 h -200 v 92 c 0,26 -22,48 -50,48 -28,0 -50,-22 -50,-48 v -92 h -200 v 88 c 0,138 110,252 250,252 z"
     style="opacity:1;fill:#c8ab37;fill-opacity:1;stop-opacity:1" />
  <path
     d="m 3930,3550 h 200 V 1550 h -200 z m 0,-1960 h 200 v -40 c 0,-98 94,-100 100,-100 -130,-60 -240,-164 -300,-300 z"
     id="path877"
     inkscape:connector-curvature="0"
     style="opacity:1;fill:#c8ab37;fill-opacity:1;stop-opacity:1" />
  <path
     d="m 1030,3350 v 200 h 240 v -200 z"
     id="path894"
     inkscape:connector-curvature="0"
     style="opacity:1;fill:#c8ab37;fill-opacity:1;stop-opacity:1" />
</svg>
