<svg xmlns="http://www.w3.org/2000/svg" version="1.1" width="3700" height="3700" viewBox="-500 -500 3700 3700"><path transform="translate(100,1600)" style="fill:#d22e1f;fill-opacity:1" d="M100,300C156,300,200,256,200,200C200,144,156,100,100,100C44,100,0,144,0,200C0,256,44,300,100,300ZM100,0C156,0,200,-44,200,-100C200,-156,156,-200,100,-200C44,-200,0,-156,0,-100C0,-44,44,0,100,0Z"></path><path transform="translate(0,2400)" d="M400,0L600,0L600,-800L400,-800ZM0,0L120,0L120,-200L100,-200C100,-118,60,-46,0,0ZM400,-100L600,-100L600,-500L400,-500ZM100,0L600,0L600,-200L100,-200ZM400,-480L600,-480L600,-600C554,-540,482,-500,400,-500ZM300,-180L300,-200C300,-256,344,-300,400,-300L420,-300L420,-500L400,-500C234,-500,100,-366,100,-200L100,-180ZM600,-760L600,-1100C554,-984,430,-900,300,-900C300,-900,400,-900,400,-800L400,-760Z"></path><path transform="translate(700,2400)" d="M202,-250C202,-278,224,-300,252,-300C280,-300,302,-278,302,-250C302,-222,280,-200,252,-200C224,-200,202,-222,202,-250ZM-100,300L152,300C306,300,434,202,484,64C508,-2,522,-76,522,-156C522,-362,412,-476,252,-600C252,-548,196,-498,168,-486C74,-446,2,-358,2,-250C2,-112,114,0,252,0C270,0,288,-2,306,-6C286,54,220,100,154,100C82,100,24,58,0,0C-14,112,-44,212,-100,300Z"></path><path transform="translate(1200,2400)" d="M320,0L300,0L300,-200L320,-200ZM400,0L600,0L600,-700L400,-700ZM1000,0C940,-46,900,-118,900,-200L880,-200L880,0ZM-100,0L900,0L900,-200L-100,-200ZM400,-200L400,-220L600,-220L600,-200ZM600,0L600,20L400,20L400,0ZM620,-360C668,-324,700,-266,700,-200C700,-170,694,-144,682,-118L892,-122C898,-148,900,-174,900,-200C900,-378,782,-530,620,-582ZM100,0L300,0L300,-200C300,-266,332,-324,380,-360L380,-582C218,-530,100,-378,100,-200ZM350,300C488,300,600,186,600,48L600,-40L400,-40L400,52C400,78,378,100,350,100C322,100,300,78,300,52L300,-40L100,-40L100,48C100,186,210,300,350,300ZM600,-660L600,-1000C554,-884,430,-800,300,-800C300,-800,400,-800,400,-700L400,-660Z"></path><path transform="translate(2200,1400)" style="fill:#d22e1f;fill-opacity:1" d="M100,0C156,0,200,-44,200,-100C200,-156,156,-200,100,-200C44,-200,0,-156,0,-100C0,-44,44,0,100,0ZM400,0C456,0,500,-44,500,-100C500,-156,456,-200,400,-200C344,-200,300,-156,300,-100C300,-44,344,0,400,0Z"></path><path transform="translate(2100,2400)" d="M-100,0L600,0L600,-200L-100,-200ZM400,0L600,0L600,-400L400,-400ZM400,-400L600,-400L600,-800L400,-800ZM100,-300L600,-300L600,-500L100,-500ZM400,-780L600,-780L600,-900C554,-840,482,-800,400,-800ZM300,-480L300,-500C300,-556,344,-600,400,-600L420,-600L420,-800L400,-800C234,-800,100,-666,100,-500L100,-480Z"></path></svg>