<?xml version="1.0" encoding="UTF-8" standalone="no"?>
<svg
   xmlns:dc="http://purl.org/dc/elements/1.1/"
   xmlns:cc="http://creativecommons.org/ns#"
   xmlns:rdf="http://www.w3.org/1999/02/22-rdf-syntax-ns#"
   xmlns:svg="http://www.w3.org/2000/svg"
   xmlns="http://www.w3.org/2000/svg"
   xmlns:sodipodi="http://sodipodi.sourceforge.net/DTD/sodipodi-0.dtd"
   xmlns:inkscape="http://www.inkscape.org/namespaces/inkscape"
   inkscape:export-ydpi="200"
   inkscape:export-xdpi="200"
   inkscape:export-filename="أحمد.png"
   inkscape:version="1.0.1 (c497b03c, 2020-09-10)"
   sodipodi:docname="أحمد.svg"
   id="svg115"
   version="1.1"
   viewBox="0 0 1508.3163 514.08264"
   height="514.08264pt"
   width="1508.3163pt">
  <metadata
     id="metadata119">
    <rdf:RDF>
      <cc:Work
         rdf:about="">
        <dc:format>image/svg+xml</dc:format>
        <dc:type
           rdf:resource="http://purl.org/dc/dcmitype/StillImage" />
        <dc:title />
      </cc:Work>
    </rdf:RDF>
  </metadata>
  <sodipodi:namedview
     inkscape:guide-bbox="true"
     showguides="true"
     fit-margin-bottom="100"
     fit-margin-right="100"
     fit-margin-left="100"
     fit-margin-top="100"
     lock-margins="true"
     inkscape:current-layer="svg115"
     showgrid="false"
     id="namedview117"
     inkscape:window-height="480"
     inkscape:window-width="640"
     inkscape:pageshadow="2"
     inkscape:pageopacity="1"
     guidetolerance="10"
     gridtolerance="10"
     objecttolerance="10"
     borderopacity="1"
     bordercolor="#666666"
     pagecolor="#ffeec5"
     inkscape:document-rotation="0" />
  <defs
     id="defs66" />
  <rect
     ry="0"
     style="fill:none;fill-opacity:1;stroke:#aa0000;stroke-width:1.875;stroke-miterlimit:4;stroke-dasharray:none;stroke-opacity:1"
     id="rect1086"
     width="1279.2821"
     height="162.20764"
     x="128.09665"
     y="223.9375" />
  <g
     style="fill:#000000;fill-opacity:1;stroke:#ffeec5;stroke-opacity:1;stroke-width:7.49999992;stroke-miterlimit:4;stroke-dasharray:none"
     transform="translate(376.00428,346.64289)"
     id="g2238">
    <path
       style="stroke:#ffeec5;stroke-opacity:1;stroke-width:7.49999992;stroke-miterlimit:4;stroke-dasharray:none"
       d="M 49.40625,0 V -25.59375 H 29.4375 L 28.921875,-26.375 -5.125,-78.34375 -18.4375,-52.984375 14.34375,-4.09375 -3.078125,10.234375 -0.25,14.34375 17.15625,0 c 12.546875,17.921875 21.75,30.96875 30.203125,50.9375 3.078125,-4.59375 6.65625,-12.53125 6.90625,-23.03125 0,-8.1875 -4.09375,-18.4375 -8.953125,-27.90625 z m 0,0"
       id="path2236" />
  </g>
  <g
     style="fill:none;fill-opacity:1;stroke:#ffeec5;stroke-opacity:1;stroke-width:7.49999992;stroke-miterlimit:4;stroke-dasharray:none"
     transform="translate(494.01991,346.64289)"
     id="g2222">
    <path
       style="stroke:#ffeec5;fill:none;stroke-opacity:1;stroke-width:7.49999992;stroke-miterlimit:4;stroke-dasharray:none"
       d="M 10.234375,0 C 18.6875,0 25.59375,-6.90625 25.59375,-15.359375 V -186.875 L 0,-161.28125 v 135.6875 H -12.796875 V 0 Z m 0,0"
       id="path2220" />
  </g>
  <g
     style="fill:#000000;fill-opacity:1;stroke:#ffeec5;stroke-opacity:1;stroke-width:7.49999992;stroke-miterlimit:4;stroke-dasharray:none"
     transform="translate(1104.5668,346.64289)"
     id="g2242">
    <path
       style="stroke:#ffeec5;stroke-opacity:1;stroke-width:7.49999992;stroke-miterlimit:4;stroke-dasharray:none"
       d="M -5.125,-78.34375 -18.4375,-52.984375 14.34375,-4.09375 -3.078125,10.234375 -0.25,14.34375 17.15625,0 c 12.546875,17.921875 21.75,30.96875 30.203125,50.9375 3.078125,-4.59375 6.65625,-12.53125 6.90625,-23.03125 0.265625,-17.671875 -18.9375,-44.296875 -25.34375,-54.28125 z m 0,0"
       id="path2240" />
  </g>
  <g
     id="use70"
     transform="translate(211.14491,346.64289)"
     style="fill:#000000;fill-opacity:1">
    <path
       id="path144"
       d=""
       style="stroke:none" />
  </g>
  <g
     style="fill:none;fill-opacity:1;stroke-width:7.49999992;stroke-miterlimit:4;stroke-dasharray:none;stroke:#ffeec5;stroke-opacity:1"
     transform="translate(211.14491,346.64289)"
     id="g2218">
    <path
       style="stroke:#ffeec5;stroke-width:7.49999992;stroke-miterlimit:4;stroke-dasharray:none;stroke-opacity:1;fill:none"
       d="M 12.796875,-76.796875 0,-51.203125 33.28125,-1.28125 c 7.171875,11.015625 7.421875,16.890625 -2.5625,26.375 l -98.5625,93.6875 C -96.515625,85.765625 -152.3125,59.140625 -185.59375,51.203125 L -83.203125,140.79687 59.90625,5.125 65.53125,0 H 66.8125 V -25.59375 H 48.125 Z m 0,0"
       id="path2216" />
  </g>
  <g
     id="use72"
     transform="translate(211.14491,346.64289)"
     style="fill:#000000;fill-opacity:1">
    <path
       id="path148"
       d="M 12.796875,-76.796875 0,-51.203125 33.28125,-1.28125 c 7.171875,11.015625 7.421875,16.890625 -2.5625,26.375 l -98.5625,93.6875 C -96.515625,85.765625 -152.3125,59.140625 -185.59375,51.203125 L -83.203125,140.79687 59.90625,5.125 65.53125,0 H 66.8125 V -25.59375 H 48.125 Z m 0,0"
       style="stroke:none" />
  </g>
  <g
     id="use74"
     transform="translate(264.39491,346.64289)"
     style="fill:#000000;fill-opacity:1">
    <path
       id="path152"
       d="m 105.21875,-27.390625 v -0.25 L 59.390625,-96 38.90625,-78.59375 l 35.59375,53 H 69.375 L 36.09375,-76.03125 15.359375,-58.625 37.375,-25.59375 H 32 L 12.03125,-55.8125 -8.453125,-38.40625 0,-25.59375 H -12.796875 V 0 H 91.90625 L 105.21875,19.71875 125.4375,2.5625 Z m 0,0"
       style="stroke:none" />
  </g>
  <g
     id="use76"
     transform="translate(376.00428,346.64289)"
     style="fill:#000000;fill-opacity:1">
    <path
       id="path156"
       d="M 49.40625,0 V -25.59375 H 29.4375 L 28.921875,-26.375 -5.125,-78.34375 -18.4375,-52.984375 14.34375,-4.09375 -3.078125,10.234375 -0.25,14.34375 17.15625,0 c 12.546875,17.921875 21.75,30.96875 30.203125,50.9375 3.078125,-4.59375 6.65625,-12.53125 6.90625,-23.03125 0,-8.1875 -4.09375,-18.4375 -8.953125,-27.90625 z m 0,0"
       style="stroke:none" />
  </g>
  <g
     id="use78"
     transform="translate(409.03553,346.64289)"
     style="fill:#000000;fill-opacity:1">
    <path
       id="path160"
       d="m 89.59375,-25.59375 c -0.25,-0.265625 -0.5,-0.515625 -0.5,-0.78125 -10.25,-15.609375 -28.9375,-40.1875 -35.328125,-63.21875 -3.84375,4.859375 -17.921875,9.203125 -28.171875,12.796875 -15.09375,5.375 -28.15625,16.125 -28.15625,35.84375 0,4.859375 1.03125,9.984375 2.8125,15.359375 H -12.796875 V 0 H 71.9375 L 91.140625,19.203125 110.59375,0 V -25.59375 Z M 38.140625,-43.015625 c -1.78125,0 -3.328125,-1.53125 -3.328125,-3.328125 0,-1.53125 1.546875,-3.0625 3.328125,-3.0625 1.546875,0 3.078125,1.53125 3.078125,3.0625 0,1.796875 -1.53125,3.328125 -3.078125,3.328125 z m 0,0"
       style="stroke:none" />
  </g>
  <g
     style="fill:none;fill-opacity:1;stroke:#ffeec5;stroke-opacity:1;stroke-width:7.49999992;stroke-miterlimit:4;stroke-dasharray:none"
     transform="translate(524.73866,346.64289)"
     id="g2226">
    <path
       style="stroke:#ffeec5;fill:none;stroke-opacity:1;stroke-width:7.49999992;stroke-miterlimit:4;stroke-dasharray:none"
       d="M 25.59375,-44.796875 V -217.59375 L 0,-192 v 144.640625 c 0,35.078125 40.953125,66.5625 76.796875,66.5625 z m 0,0"
       id="path2224" />
  </g>
  <g
     id="use80"
     transform="translate(494.01991,346.64289)"
     style="fill:#000000;fill-opacity:1">
    <path
       id="path164"
       d="M 10.234375,0 C 18.6875,0 25.59375,-6.90625 25.59375,-15.359375 V -186.875 L 0,-161.28125 v 135.6875 H -12.796875 V 0 Z m 0,0"
       style="stroke:none" />
  </g>
  <g
     style="fill:none;fill-opacity:1;stroke:#ffeec5;stroke-opacity:1;stroke-width:7.49999992;stroke-miterlimit:4;stroke-dasharray:none"
     transform="translate(768.72303,346.64289)"
     id="g2230">
    <path
       style="stroke:#ffeec5;fill:none;stroke-opacity:1;stroke-width:7.49999992;stroke-miterlimit:4;stroke-dasharray:none"
       d="M 13.5625,-76.796875 38.40625,-110.07813 V -135.6875 L -7.6875,-56.3125 0,-25.59375 H -12.796875 V 0 H 88.817979 L 102.40625,-25.59375 H 26.375 Z"
       id="path2228"
       sodipodi:nodetypes="ccccccccccc" />
  </g>
  <g
     id="use82"
     transform="translate(524.73866,346.64289)"
     style="fill:#000000;fill-opacity:1">
    <path
       id="path168"
       d="M 25.59375,-44.796875 V -217.59375 L 0,-192 v 144.640625 c 0,35.078125 40.953125,66.5625 76.796875,66.5625 z m 0,0"
       style="stroke:none" />
  </g>
  <g
     style="fill:none;fill-opacity:1;stroke:#ffeec5;stroke-opacity:1;stroke-width:7.49999992;stroke-miterlimit:4;stroke-dasharray:none"
     transform="translate(1134.0043,346.64289)"
     id="g2234">
    <path
       style="stroke:#ffeec5;fill:none;stroke-opacity:1;stroke-width:7.49999992;stroke-miterlimit:4;stroke-dasharray:none"
       d="M 25.59375,-44.796875 V -217.59375 L 0,-192 v 144.640625 c 0,35.078125 40.953125,66.5625 76.796875,66.5625 z m 0,0"
       id="path2232" />
  </g>
  <g
     id="use84"
     transform="translate(601.53553,346.64289)"
     style="fill:#000000;fill-opacity:1">
    <path
       id="path172"
       d=""
       style="stroke:none" />
  </g>
  <g
     id="use86"
     transform="translate(589.53553,346.64289)"
     style="fill:#000000;fill-opacity:1">
    <path
       id="path176"
       d="m 128.76562,-35.078125 c 0,-0.25 -0.25,-0.25 -0.51562,-0.5 l -77.046875,-66.828125 -12.03125,23.8125 61.187505,53 H 93.703125 L 37.375,-74.5 0,0 h 130.04687 l 16.125,19.203125 L 165.375,0 v -25.59375 h -25.59375 z m 0,0"
       style="stroke:none" />
  </g>
  <g
     id="use88"
     transform="translate(746.42616,346.64289)"
     style="fill:#000000;fill-opacity:1">
    <path
       id="path180"
       d=""
       style="stroke:none" />
  </g>
  <g
     id="use90"
     transform="translate(734.42616,346.64289)"
     style="fill:#000000;fill-opacity:1">
    <path
       id="path184"
       d="M -4.859375,-76.796875 -21.765625,-57.59375 0,-25.59375 H -12.796875 V 0 h 47.09375 v -25.59375 h -4.59375 z m 0,0"
       style="stroke:none" />
  </g>
  <g
     id="use92"
     transform="translate(768.72303,346.64289)"
     style="fill:#000000;fill-opacity:1">
    <path
       sodipodi:nodetypes="ccccccccccc"
       id="path188"
       d="M 13.5625,-76.796875 38.40625,-110.07813 V -135.6875 L -7.6875,-56.3125 0,-25.59375 H -12.796875 V 0 H 88.817979 L 102.40625,-25.59375 H 26.375 Z"
       style="stroke:none" />
  </g>
  <g
     id="use94"
     transform="translate(888.23866,346.64289)"
     style="fill:#000000;fill-opacity:1">
    <path
       id="path192"
       d=""
       style="stroke:none" />
  </g>
  <g
     id="use96"
     transform="translate(864.19178,346.64289)"
     style="fill:#000000;fill-opacity:1">
    <path
       id="path196"
       d="m 128.76562,-35.078125 c 0,-0.25 -0.25,-0.25 -0.51562,-0.5 l -77.046875,-66.828125 -12.03125,23.8125 61.187505,53 H 93.703125 L 37.375,-74.5 0,0 h 130.04687 l 16.125,19.203125 L 165.375,0 v -25.59375 h -25.59375 z m 0,0"
       style="stroke:none" />
  </g>
  <g
     id="use98"
     transform="translate(1009.0824,346.64289)"
     style="fill:#000000;fill-opacity:1">
    <path
       id="path200"
       d="m 87.046875,-29.1875 c -1.546875,-2.296875 -3.328125,-4.859375 -5.125,-7.671875 l -8.96875,-13.3125 C 65.28125,-62.46875 57.34375,-76.28125 53.765625,-89.59375 c -3.84375,4.859375 -17.921875,9.203125 -28.171875,12.796875 -15.09375,5.375 -28.15625,16.125 -28.15625,35.84375 0,4.859375 1.03125,9.984375 2.8125,15.359375 H -12.796875 V 0 h 85.75 L 89.59375,19.203125 109.3125,2.5625 C 105.21875,-2.8125 96,-16.125 87.046875,-29.1875 Z m -48.90625,-13.828125 c -1.78125,0 -3.328125,-1.53125 -3.328125,-3.328125 0,-1.53125 1.546875,-3.0625 3.328125,-3.0625 1.546875,0 3.078125,1.53125 3.078125,3.0625 0,1.796875 -1.53125,3.328125 -3.078125,3.328125 z m 0,0"
       style="stroke:none" />
  </g>
  <g
     id="use100"
     transform="translate(1104.5668,346.64289)"
     style="fill:#000000;fill-opacity:1">
    <path
       id="path204"
       d="M -5.125,-78.34375 -18.4375,-52.984375 14.34375,-4.09375 -3.078125,10.234375 -0.25,14.34375 17.15625,0 c 12.546875,17.921875 21.75,30.96875 30.203125,50.9375 3.078125,-4.59375 6.65625,-12.53125 6.90625,-23.03125 0.265625,-17.671875 -18.9375,-44.296875 -25.34375,-54.28125 z m 0,0"
       style="stroke:none" />
  </g>
  <g
     id="use102"
     transform="translate(1175.9574,346.64289)"
     style="fill:#000000;fill-opacity:1">
    <path
       id="path208"
       d=""
       style="stroke:none" />
  </g>
  <g
     id="use104"
     transform="translate(1134.0043,346.64289)"
     style="fill:#000000;fill-opacity:1">
    <path
       id="path212"
       d="M 25.59375,-44.796875 V -217.59375 L 0,-192 v 144.640625 c 0,35.078125 40.953125,66.5625 76.796875,66.5625 z m 0,0"
       style="stroke:none" />
  </g>
  <g
     id="use106"
     transform="translate(1222.8012,346.64289)"
     style="fill:#000000;fill-opacity:1">
    <path
       id="path216"
       d=""
       style="stroke:none" />
  </g>
  <g
     id="use108"
     transform="translate(1210.8012,346.64289)"
     style="fill:#000000;fill-opacity:1">
    <path
       id="path220"
       d="M 20.484375,2.5625 C 29.1875,2.5625 35.84375,-4.09375 35.84375,-12.796875 35.84375,-21.5 29.1875,-28.15625 20.484375,-28.15625 11.78125,-28.15625 5.125,-21.5 5.125,-12.796875 5.125,-4.09375 11.78125,2.5625 20.484375,2.5625 Z m 0,0"
       style="stroke:none" />
  </g>
  <g
     id="use110"
     transform="translate(1251.7543,346.64289)"
     style="fill:#000000;fill-opacity:1">
    <path
       id="path224"
       d="m 51.203125,-102.40625 -12.03125,23.8125 61.187505,53 H 93.703125 L 37.375,-74.5 0,0 h 121.59375 l 9.73437,-15.875 c 4.35938,-7.171875 4.35938,-13.3125 -3.07812,-19.703125 z m 0,0"
       style="stroke:none" />
  </g>
  <rect
     style="fill:#aa0000;fill-opacity:1;stroke:none;stroke-width:4.39933;stroke-miterlimit:4;stroke-dasharray:none;stroke-opacity:1"
     id="rect1088"
     width="90.264572"
     height="90.264572"
     x="-351.41284"
     y="-170.24535"
     transform="rotate(-135)" />
  <g
     transform="matrix(0.73654041,0,0,0.73654041,758.51336,375.23547)"
     style="fill:#000000;fill-opacity:1;stroke-width:3.75;stroke-miterlimit:4;stroke-dasharray:none"
     id="g2315">
    <path
       style="stroke:none;stroke-width:3.75;stroke-miterlimit:4;stroke-dasharray:none"
       d="M 20.484375,2.5625 C 29.1875,2.5625 35.84375,-4.09375 35.84375,-12.796875 35.84375,-21.5 29.1875,-28.15625 20.484375,-28.15625 11.78125,-28.15625 5.125,-21.5 5.125,-12.796875 5.125,-4.09375 11.78125,2.5625 20.484375,2.5625 Z m 0,0"
       id="path2313" />
  </g>
  <g
     id="g496"
     transform="matrix(0.01033566,0,0,0.01033566,23.328768,468.42215)"
     style="fill:#000000;fill-opacity:1;stroke-width:3.75;stroke-miterlimit:4;stroke-dasharray:none">
    <path
       d="m 2657.1168,1840 h 4020.6595 l 82,-140 H 2713.1168 c -64,0 -108,-6 -154,-52 l -62,-62 c -34,-34 -16,-128 12,-100 l 104,104 c 20,20 38,30 62,30 h 134 v -140 h -62 c -18,0 -28,-10 -36,-18 l -128,-128 c -100,-100 -188,198 -188,296 0,170 114,208 262,210 z"
       id="path833-6"
       sodipodi:nodetypes="cccssssssccssssc" />
    <path
       d="m 2769.1168,1620 h 280 v -140 c -44,0 -80,-36 -80,-80 v -320 l -160,40 v 360 h -40 z"
       id="path837-0" />
    <path
       d="m 3009.1168,1620 h 760 v -140 c -44,0 -80,-36 -80,-80 v -320 l -160,40 v 360 c -44,0 -80,-36 -80,-80 v -260 l -160,40 v 300 c -44,0 -80,-36 -80,-80 v -200 l -160,40 v 240 h -40 z"
       id="path839-1" />
    <path
       d="m 3729.1168,1620 h 678 l 82,-140 h -274 c -116,0 -238,-130 -360,-280 l -86,140 c 38,56 94,114 124,140 h -164 z"
       id="path841-4" />
    <path
       d=""
       id="path843-8" />
    <path
       d="m 4489.1168,1620 h 1200 v -140 h -86 c -30,-190 -146,-220 -222,-220 h -652 l 54,-140 h -6 l -160,280 h 744 c 44,0 80,36 80,80 h -872 z"
       id="path845-3" />
    <path
       d="m 5649.1168,1620 h 124 c 46,0 76,-30 76,-80 V 500 l -160,40 v 940 h -40 z"
       id="path847-8" />
    <path
       d="M 6089.1168,1460 V 500 l -160,40 v 1000 c 0,50 30,80 76,80 h 164 v -140 h -60 c -14,0 -20,-6 -20,-20 z"
       id="path849-1" />
    <path
       d="m 6567.1168,1294 94,-158 -34,-20 -94,158 z"
       id="path851-5" />
    <path
       d="m 6129.1168,1620 h 678 l 82,-140 h -274 c -116,0 -238,-130 -360,-280 l -86,140 c 38,56 94,114 124,140 h -164 z"
       id="path853-2" />
    <path
       style="fill:#000000;fill-opacity:1"
       d="m 2969.1168,1000 v -40 l -160,40 v 40 z"
       id="path887-2"
       sodipodi:nodetypes="ccccc" />
    <path
       id="path405"
       d="M 215.02177,912.08399 V 1620 H 356.60503 V 912.08399 Z"
       style="stroke-width:1.01131" />
    <path
       id="path407"
       d="M 680.22378,912.08399 V 1195.2504 H 579.09283 V 912.08399 H 437.50969 V 1620 H 1064.5211 V 1478.4168 H 579.09283 V 1336.8336 H 1064.5211 V 1195.2504 H 821.80697 V 1053.6672 H 1064.5211 V 912.08399 Z"
       style="stroke-width:1.01131" />
    <path
       id="path409"
       d="M 1388.14,912.08399 V 1195.2504 H 1287.009 V 912.08399 H 1145.4258 V 1620 h 627.0113 V 1478.4168 H 1287.009 v -141.5832 h 485.4281 V 1195.2504 H 1529.723 v -141.5832 h 242.7141 V 912.08399 Z"
       style="stroke-width:1.01131" />
    <path
       id="path411"
       d="M 2136.5082,912.08399 V 1096.1422 H 1994.925 V 912.08399 H 1853.3418 V 1620 h 141.5832 v -382.2746 h 283.1663 V 912.08399 Z"
       style="stroke-width:1.01131" />
  </g>
</svg>
