<?xml version="1.0" encoding="UTF-8" standalone="no"?>
<svg
   xmlns:dc="http://purl.org/dc/elements/1.1/"
   xmlns:cc="http://creativecommons.org/ns#"
   xmlns:rdf="http://www.w3.org/1999/02/22-rdf-syntax-ns#"
   xmlns:svg="http://www.w3.org/2000/svg"
   xmlns="http://www.w3.org/2000/svg"
   xmlns:sodipodi="http://sodipodi.sourceforge.net/DTD/sodipodi-0.dtd"
   xmlns:inkscape="http://www.inkscape.org/namespaces/inkscape"
   inkscape:export-ydpi="200"
   inkscape:export-xdpi="200"
   inkscape:export-filename="أسامة.png"
   inkscape:version="1.0.1 (c497b03c, 2020-09-10)"
   sodipodi:docname="أسامة.svg"
   id="svg2225"
   version="1.1"
   viewBox="0 0 1368.8163 514.08264"
   height="514.08264pt"
   width="1368.8163pt">
  <metadata
     id="metadata2229">
    <rdf:RDF>
      <cc:Work
         rdf:about="">
        <dc:format>image/svg+xml</dc:format>
        <dc:type
           rdf:resource="http://purl.org/dc/dcmitype/StillImage" />
        <dc:title />
      </cc:Work>
    </rdf:RDF>
  </metadata>
  <sodipodi:namedview
     fit-margin-bottom="100"
     fit-margin-right="100"
     fit-margin-left="100"
     lock-margins="true"
     fit-margin-top="100"
     inkscape:current-layer="svg2225"
     showgrid="false"
     id="namedview2227"
     inkscape:window-height="480"
     inkscape:window-width="640"
     inkscape:pageshadow="2"
     inkscape:pageopacity="1"
     guidetolerance="10"
     gridtolerance="10"
     objecttolerance="10"
     borderopacity="1"
     bordercolor="#666666"
     pagecolor="#ffeec5"
     inkscape:document-rotation="0" />
  <defs
     id="defs2182" />
  <rect
     style="fill:none;fill-opacity:1;stroke:#aa0000;stroke-width:1.875;stroke-miterlimit:4;stroke-dasharray:none;stroke-opacity:1"
     id="rect1086"
     width="1166.9413"
     height="312.20764"
     x="100.9375"
     y="100.9375" />
  <g
     transform="translate(203.67452,345.36224)"
     style="fill:#000000;fill-opacity:1"
     id="use2186">
    <path
       style="stroke:none"
       d=""
       id="path2894" />
  </g>
  <g
     id="g2972"
     style="fill:#000000;fill-opacity:1;stroke:#ffeec5;stroke-opacity:1;stroke-width:7.49999992;stroke-miterlimit:4;stroke-dasharray:none"
     transform="translate(203.67452,345.36224)">
    <path
       id="path2970"
       d="M 12.796875,-76.796875 0,-51.203125 33.28125,-1.28125 c 7.171875,11.015625 7.421875,16.890625 -2.5625,26.375 l -98.5625,93.6875 C -96.515625,85.765625 -152.3125,59.140625 -185.59375,51.203125 L -83.203125,140.79687 62.46875,2.8125 c 2.296875,-2.296875 1.78125,-4.609375 0,-7.421875 z m 0,0"
       style="stroke:#ffeec5;stroke-opacity:1;stroke-width:7.49999992;stroke-miterlimit:4;stroke-dasharray:none" />
  </g>
  <g
     transform="translate(203.67452,345.36224)"
     style="fill:#000000;fill-opacity:1"
     id="use2188">
    <path
       style="stroke:none"
       d="M 12.796875,-76.796875 0,-51.203125 33.28125,-1.28125 c 7.171875,11.015625 7.421875,16.890625 -2.5625,26.375 l -98.5625,93.6875 C -96.515625,85.765625 -152.3125,59.140625 -185.59375,51.203125 L -83.203125,140.79687 62.46875,2.8125 c 2.296875,-2.296875 1.78125,-4.609375 0,-7.421875 z m 0,0"
       id="path2898" />
  </g>
  <g
     transform="translate(261.01827,345.36224)"
     style="fill:#000000;fill-opacity:1"
     id="use2190">
    <path
       style="stroke:none"
       d="M 65.28125,-25.59375 32,-89.59375 -12.796875,-38.40625 31.75,5.375 c 7.15625,6.90625 5.375,10.234375 -0.515625,15.609375 L 19.203125,32 v 6.40625 L 61.4375,0 h 8.96875 v -25.59375 z m -36.359375,-12.8125 c -1.78125,0 -3.328125,-1.53125 -3.328125,-3.328125 0,-1.53125 1.546875,-3.0625 3.328125,-3.0625 1.546875,0 3.078125,1.53125 3.078125,3.0625 0,1.796875 -1.53125,3.328125 -3.078125,3.328125 z m 0,0"
       id="path2902" />
  </g>
  <g
     transform="translate(331.42452,345.36224)"
     style="fill:#000000;fill-opacity:1"
     id="use2192">
    <path
       style="stroke:none"
       d="m 89.59375,-25.59375 c -0.25,-0.265625 -0.5,-0.515625 -0.5,-0.78125 -10.25,-15.609375 -28.9375,-40.1875 -35.328125,-63.21875 -3.84375,4.859375 -17.921875,9.203125 -28.171875,12.796875 -15.09375,5.375 -28.15625,16.125 -28.15625,35.84375 0,4.859375 1.03125,9.984375 2.8125,15.359375 H -12.796875 V 0 H 71.9375 L 91.140625,19.203125 110.59375,0 V -25.59375 Z M 38.140625,-43.015625 c -1.78125,0 -3.328125,-1.53125 -3.328125,-3.328125 0,-1.53125 1.546875,-3.0625 3.328125,-3.0625 1.546875,0 3.078125,1.53125 3.078125,3.0625 0,1.796875 -1.53125,3.328125 -3.078125,3.328125 z m 0,0"
       id="path2906" />
  </g>
  <g
     transform="translate(426.14327,345.36224)"
     style="fill:#000000;fill-opacity:1"
     id="use2194">
    <path
       style="stroke:none"
       d="M 163.84375,-55.8125 H 32.515625 l 85.750005,-85.75 c 6.92187,-6.92187 5.375,-14.85937 1.03125,-24.57812 L 97.28125,-217.59375 78.078125,-192 l 22.015625,51.45313 c 1.28125,3.59375 1.53125,8.1875 -2.8125,12.54687 L -0.515625,-30.203125 H 152.3125 l 4.35937,4.609375 H -12.796875 V 0 H 179.20312 l 6.65625,-17.921875 c 1.01563,-2.8125 2.04688,-8.453125 -1.54687,-12.796875 z m 0,0"
       id="path2910" />
  </g>
  <g
     transform="translate(618.14327,345.36224)"
     style="fill:#000000;fill-opacity:1"
     id="use2196">
    <path
       style="stroke:none"
       d=""
       id="path2914" />
  </g>
  <g
     transform="translate(618.14327,345.36224)"
     style="fill:#000000;fill-opacity:1"
     id="use2198">
    <path
       style="stroke:none"
       d=""
       id="path2918" />
  </g>
  <g
     transform="translate(618.14327,345.36224)"
     style="fill:#000000;fill-opacity:1"
     id="use2200">
    <path
       style="stroke:none"
       d="M 107.51563,-25.59375 C 88.578125,-52.21875 74.5,-76.28125 64,-102.40625 54.53125,-93.4375 0,-68.859375 0,-33.28125 0,-13.3125 16.390625,0 33.796875,0 H 88.3125 L 107.51563,19.203125 126.71875,0 V -25.59375 Z M 50.6875,-37.375 c -1.796875,0 -3.328125,-1.53125 -3.328125,-3.328125 0,-1.53125 1.53125,-3.078125 3.328125,-3.078125 1.53125,0 3.078125,1.546875 3.078125,3.078125 0,1.796875 -1.546875,3.328125 -3.078125,3.328125 z m 0,0"
       id="path2922" />
  </g>
  <g
     transform="translate(730.7839,345.36224)"
     style="fill:#000000;fill-opacity:1"
     id="use2202">
    <path
       style="stroke:none"
       d="M 90.109375,-24.578125 C 80.125,-40.1875 60.421875,-65.796875 53.765625,-89.59375 c -3.84375,4.859375 -17.921875,9.203125 -28.171875,12.796875 -15.09375,5.375 -28.15625,16.125 -28.15625,35.84375 0,4.859375 1.03125,9.984375 2.8125,15.359375 H -12.796875 V 0 h 97.28125 l 6.65625,-12.03125 c 1.78125,-3.328125 1.28125,-8.953125 -1.03125,-12.546875 z m -51.96875,-18.4375 c -1.78125,0 -3.328125,-1.53125 -3.328125,-3.328125 0,-1.53125 1.546875,-3.0625 3.328125,-3.0625 1.546875,0 3.078125,1.53125 3.078125,3.0625 0,1.796875 -1.53125,3.328125 -3.078125,3.328125 z m 0,0"
       id="path2926" />
  </g>
  <g
     transform="translate(828.06515,345.36224)"
     style="fill:#000000;fill-opacity:1"
     id="use2204">
    <path
       style="stroke:none"
       d="M 19.203125,0 H 30.71875 v -25.59375 h -5.125 v -192 L 0,-192 V 19.203125 Z m 0,0"
       id="path2930" />
  </g>
  <g
     transform="translate(858.7839,345.36224)"
     style="fill:#000000;fill-opacity:1"
     id="use2206">
    <path
       style="stroke:none"
       d="m 8.453125,0 v -25.59375 h -5.125 L -5.125,-38.40625 H -25.34375 L -25.59375,0 Z m 0,0"
       id="path2934" />
  </g>
  <g
     transform="translate(867.23702,345.36224)"
     style="fill:#000000;fill-opacity:1"
     id="use2208">
    <path
       style="stroke:none"
       d="m 59.390625,-96 -20.484375,17.40625 35.59375,53 H 69.375 L 36.09375,-76.03125 15.359375,-58.625 37.375,-25.59375 H 32 L 12.03125,-55.8125 -8.453125,-38.40625 0,-25.59375 H -12.796875 V 0 H 96 l 9.73438,-21.5 c 0.76562,-1.796875 0.5,-4.359375 -0.51563,-6.140625 z m 0,0"
       id="path2938" />
  </g>
  <g
     transform="translate(978.5964,345.36224)"
     style="fill:#000000;fill-opacity:1"
     id="use2210">
    <path
       style="stroke:none"
       d=""
       id="path2942" />
  </g>
  <g
     transform="translate(970.39327,345.36224)"
     style="fill:#000000;fill-opacity:1"
     id="use2212">
    <path
       style="stroke:none"
       d="m 43.015625,0 c 18.171875,0 27.125,-8.453125 33.78125,-16.640625 -29.4375,0 -51.203125,-26.109375 -51.203125,-60.15625 V -217.59375 L 0,-192 V -69.125 C 0,-31.484375 14.59375,0 43.015625,0 Z m 0,0"
       id="path2946" />
  </g>
  <g
     transform="translate(1052.3151,345.36224)"
     style="fill:#000000;fill-opacity:1"
     id="use2214">
    <path
       style="stroke:none"
       d=""
       id="path2950" />
  </g>
  <g
     transform="translate(1052.3151,345.36224)"
     style="fill:#000000;fill-opacity:1"
     id="use2216">
    <path
       style="stroke:none"
       d=""
       id="path2954" />
  </g>
  <g
     transform="translate(1057.4401,345.36224)"
     style="fill:#000000;fill-opacity:1"
     id="use2218">
    <path
       style="stroke:none"
       d="M 20.484375,2.5625 C 29.1875,2.5625 35.84375,-4.09375 35.84375,-12.796875 35.84375,-21.5 29.1875,-28.15625 20.484375,-28.15625 11.78125,-28.15625 5.125,-21.5 5.125,-12.796875 5.125,-4.09375 11.78125,2.5625 20.484375,2.5625 Z m 0,0"
       id="path2958" />
  </g>
  <g
     transform="translate(1098.3933,345.36224)"
     style="fill:#000000;fill-opacity:1"
     id="use2220">
    <path
       style="stroke:none"
       d="m 51.203125,-102.40625 -12.03125,23.8125 61.187505,53 H 93.703125 L 37.375,-74.5 0,0 h 121.59375 l 9.73437,-15.875 c 4.35938,-7.171875 4.35938,-13.3125 -3.07812,-19.703125 z m 0,0"
       id="path2962" />
  </g>
  <rect
     style="fill:#aa0000;fill-opacity:1;stroke:none;stroke-width:4.39933;stroke-miterlimit:4;stroke-dasharray:none;stroke-opacity:1"
     id="rect1088"
     width="90.264572"
     height="90.264572"
     x="-298.23077"
     y="-155.54514"
     transform="rotate(-135)" />
  <g
     transform="translate(-7.5)"
     id="g2321">
    <g
       transform="matrix(0.5831003,0,0,0.5831003,677.47993,230.96644)"
       style="fill:#000000;fill-opacity:1;stroke-width:3.75;stroke-miterlimit:4;stroke-dasharray:none"
       id="g1008">
      <path
         style="stroke:none;stroke-width:3.75;stroke-miterlimit:4;stroke-dasharray:none"
         d="M 20.484375,2.5625 C 29.1875,2.5625 35.84375,-4.09375 35.84375,-12.796875 35.84375,-21.5 29.1875,-28.15625 20.484375,-28.15625 11.78125,-28.15625 5.125,-21.5 5.125,-12.796875 5.125,-4.09375 11.78125,2.5625 20.484375,2.5625 Z m 0,0"
         id="path1006" />
    </g>
    <g
       id="g2315"
       style="fill:#000000;fill-opacity:1;stroke-width:3.75;stroke-miterlimit:4;stroke-dasharray:none"
       transform="matrix(0.5831003,0,0,0.5831003,650.47993,230.96644)">
      <path
         id="path2313"
         d="M 20.484375,2.5625 C 29.1875,2.5625 35.84375,-4.09375 35.84375,-12.796875 35.84375,-21.5 29.1875,-28.15625 20.484375,-28.15625 11.78125,-28.15625 5.125,-21.5 5.125,-12.796875 5.125,-4.09375 11.78125,2.5625 20.484375,2.5625 Z m 0,0"
         style="stroke:none;stroke-width:3.75;stroke-miterlimit:4;stroke-dasharray:none" />
    </g>
  </g>
  <g
     id="g496"
     transform="matrix(0.01033566,0,0,0.01033566,15.858378,467.1415)"
     style="fill:#000000;fill-opacity:1;stroke-width:3.75;stroke-miterlimit:4;stroke-dasharray:none">
    <path
       d="m 2657.1168,1840 h 4020.6595 l 82,-140 H 2713.1168 c -64,0 -108,-6 -154,-52 l -62,-62 c -34,-34 -16,-128 12,-100 l 104,104 c 20,20 38,30 62,30 h 134 v -140 h -62 c -18,0 -28,-10 -36,-18 l -128,-128 c -100,-100 -188,198 -188,296 0,170 114,208 262,210 z"
       id="path833-6"
       sodipodi:nodetypes="cccssssssccssssc" />
    <path
       d="m 2769.1168,1620 h 280 v -140 c -44,0 -80,-36 -80,-80 v -320 l -160,40 v 360 h -40 z"
       id="path837-0" />
    <path
       d="m 3009.1168,1620 h 760 v -140 c -44,0 -80,-36 -80,-80 v -320 l -160,40 v 360 c -44,0 -80,-36 -80,-80 v -260 l -160,40 v 300 c -44,0 -80,-36 -80,-80 v -200 l -160,40 v 240 h -40 z"
       id="path839-1" />
    <path
       d="m 3729.1168,1620 h 678 l 82,-140 h -274 c -116,0 -238,-130 -360,-280 l -86,140 c 38,56 94,114 124,140 h -164 z"
       id="path841-4" />
    <path
       d=""
       id="path843-8" />
    <path
       d="m 4489.1168,1620 h 1200 v -140 h -86 c -30,-190 -146,-220 -222,-220 h -652 l 54,-140 h -6 l -160,280 h 744 c 44,0 80,36 80,80 h -872 z"
       id="path845-3" />
    <path
       d="m 5649.1168,1620 h 124 c 46,0 76,-30 76,-80 V 500 l -160,40 v 940 h -40 z"
       id="path847-8" />
    <path
       d="M 6089.1168,1460 V 500 l -160,40 v 1000 c 0,50 30,80 76,80 h 164 v -140 h -60 c -14,0 -20,-6 -20,-20 z"
       id="path849-1" />
    <path
       d="m 6567.1168,1294 94,-158 -34,-20 -94,158 z"
       id="path851-5" />
    <path
       d="m 6129.1168,1620 h 678 l 82,-140 h -274 c -116,0 -238,-130 -360,-280 l -86,140 c 38,56 94,114 124,140 h -164 z"
       id="path853-2" />
    <path
       style="fill:#000000;fill-opacity:1"
       d="m 2969.1168,1000 v -40 l -160,40 v 40 z"
       id="path887-2"
       sodipodi:nodetypes="ccccc" />
    <path
       id="path405"
       d="M 215.02177,912.08399 V 1620 H 356.60503 V 912.08399 Z"
       style="stroke-width:1.01131" />
    <path
       id="path407"
       d="M 680.22378,912.08399 V 1195.2504 H 579.09283 V 912.08399 H 437.50969 V 1620 H 1064.5211 V 1478.4168 H 579.09283 V 1336.8336 H 1064.5211 V 1195.2504 H 821.80697 V 1053.6672 H 1064.5211 V 912.08399 Z"
       style="stroke-width:1.01131" />
    <path
       id="path409"
       d="M 1388.14,912.08399 V 1195.2504 H 1287.009 V 912.08399 H 1145.4258 V 1620 h 627.0113 V 1478.4168 H 1287.009 v -141.5832 h 485.4281 V 1195.2504 H 1529.723 v -141.5832 h 242.7141 V 912.08399 Z"
       style="stroke-width:1.01131" />
    <path
       id="path411"
       d="M 2136.5082,912.08399 V 1096.1422 H 1994.925 V 912.08399 H 1853.3418 V 1620 h 141.5832 v -382.2746 h 283.1663 V 912.08399 Z"
       style="stroke-width:1.01131" />
  </g>
</svg>
