<?xml version="1.0" encoding="UTF-8" standalone="no"?>
<svg
   xmlns:dc="http://purl.org/dc/elements/1.1/"
   xmlns:cc="http://creativecommons.org/ns#"
   xmlns:rdf="http://www.w3.org/1999/02/22-rdf-syntax-ns#"
   xmlns:svg="http://www.w3.org/2000/svg"
   xmlns="http://www.w3.org/2000/svg"
   xmlns:xlink="http://www.w3.org/1999/xlink"
   xmlns:sodipodi="http://sodipodi.sourceforge.net/DTD/sodipodi-0.dtd"
   xmlns:inkscape="http://www.inkscape.org/namespaces/inkscape"
   width="1217.3162pt"
   height="514.08264pt"
   viewBox="0 0 1217.3162 514.08264"
   version="1.1"
   id="svg105"
   sodipodi:docname="حازم.svg"
   inkscape:version="1.0.1 (c497b03c, 2020-09-10)"
   inkscape:export-filename="حازم.png"
   inkscape:export-xdpi="200"
   inkscape:export-ydpi="200">
  <metadata
     id="metadata109">
    <rdf:RDF>
      <cc:Work
         rdf:about="">
        <dc:format>image/svg+xml</dc:format>
        <dc:type
           rdf:resource="http://purl.org/dc/dcmitype/StillImage" />
        <dc:title />
      </cc:Work>
    </rdf:RDF>
  </metadata>
  <sodipodi:namedview
     pagecolor="#ffeec5"
     bordercolor="#666666"
     borderopacity="1"
     objecttolerance="10"
     gridtolerance="10"
     guidetolerance="10"
     inkscape:pageopacity="1"
     inkscape:pageshadow="2"
     inkscape:window-width="640"
     inkscape:window-height="480"
     id="namedview107"
     showgrid="false"
     inkscape:current-layer="svg105"
     fit-margin-top="100"
     lock-margins="true"
     fit-margin-left="100"
     fit-margin-right="100"
     fit-margin-bottom="100"
     inkscape:document-rotation="0" />
  <defs
     id="defs60">
    <linearGradient
       inkscape:collect="always"
       id="linearGradient1350">
      <stop
         style="stop-color:#000000;stop-opacity:1;"
         offset="0"
         id="stop1346" />
      <stop
         style="stop-color:#000000;stop-opacity:0;"
         offset="1"
         id="stop1348" />
    </linearGradient>
    <linearGradient
       inkscape:collect="always"
       xlink:href="#linearGradient1350"
       id="linearGradient1352"
       x1="-185.59375"
       y1="31.999998"
       x2="64.004111"
       y2="31.999998"
       gradientUnits="userSpaceOnUse" />
  </defs>
  <rect
     style="fill:none;fill-opacity:1;stroke:#aa0000;stroke-width:1.875;stroke-miterlimit:4;stroke-dasharray:none;stroke-opacity:1"
     id="rect1086"
     width="1015.4411"
     height="312.20764"
     x="100.9375"
     y="100.9375" />
  <g
     id="g521"
     style="fill:url(#linearGradient1352);fill-opacity:1;stroke:#ffeec5;stroke-opacity:1;stroke-width:7.4999999;stroke-miterlimit:4;stroke-dasharray:none"
     transform="translate(203.67453,345.36224)">
    <path
       style="stroke:#ffeec5;fill-opacity:1;fill:url(#linearGradient1352);stroke-opacity:1;stroke-width:7.4999999;stroke-miterlimit:4;stroke-dasharray:none"
       d="M 12.796875,-76.796875 0,-51.203125 33.28125,-1.28125 c 7.171875,11.015625 7.421875,16.890625 -2.5625,26.375 l -98.5625,93.6875 C -96.515625,85.765625 -152.3125,59.140625 -185.59375,51.203125 L -83.203125,140.79687 62.46875,2.8125 c 2.296875,-2.296875 1.78125,-4.609375 0,-7.421875 z m 0,0"
       id="path519" />
  </g>
  <rect
     style="fill:#aa0000;fill-opacity:1;stroke:none;stroke-width:4.39933;stroke-miterlimit:4;stroke-dasharray:none;stroke-opacity:1"
     id="rect1088"
     width="90.264572"
     height="90.264572"
     x="-298.23074"
     y="-155.54514"
     transform="rotate(-135)" />
  <g
     id="use64"
     style="fill:#000000;fill-opacity:1"
     transform="translate(196.17453,345.36224)">
    <path
       style="stroke:none"
       d=""
       id="path223" />
  </g>
  <g
     id="use66"
     style="fill:#000000;fill-opacity:1"
     transform="translate(203.67453,345.36224)">
    <path
       style="stroke:none"
       d="M 12.796875,-76.796875 0,-51.203125 33.28125,-1.28125 c 7.171875,11.015625 7.421875,16.890625 -2.5625,26.375 l -98.5625,93.6875 C -96.515625,85.765625 -152.3125,59.140625 -185.59375,51.203125 L -83.203125,140.79687 62.46875,2.8125 c 2.296875,-2.296875 1.78125,-4.609375 0,-7.421875 z m 0,0"
       id="path219" />
  </g>
  <g
     id="use68"
     style="fill:#000000;fill-opacity:1"
     transform="translate(272.79953,345.36224)">
    <path
       style="stroke:none"
       d="M 19.203125,0 H 30.71875 v -25.59375 h -5.125 v -192 L 0,-192 V 19.203125 Z m 0,0"
       id="path215" />
  </g>
  <g
     id="use70"
     style="fill:#000000;fill-opacity:1"
     transform="translate(303.51828,345.36224)">
    <path
       style="stroke:none"
       d="m 8.453125,0 v -25.59375 h -5.125 L -5.125,-38.40625 H -25.34375 L -25.59375,0 Z m 0,0"
       id="path211" />
  </g>
  <g
     id="use72"
     style="fill:#000000;fill-opacity:1"
     transform="translate(304.47141,345.36224)">
    <path
       style="stroke:none"
       d=""
       id="path207" />
  </g>
  <g
     id="use74"
     style="fill:#000000;fill-opacity:1"
     transform="translate(311.97141,345.36224)">
    <path
       style="stroke:none"
       d="M 88.0625,-53.25 59.390625,-96 38.90625,-78.59375 l 35.59375,53 H 69.375 L 36.09375,-76.03125 15.359375,-58.625 37.375,-25.59375 H 32 L 12.03125,-55.8125 -8.453125,-38.40625 0,-25.59375 H -12.796875 V 0 H 111.875 v -25.59375 h -5.125 z m 0,0"
       id="path203" />
  </g>
  <g
     id="use76"
     style="fill:#000000;fill-opacity:1"
     transform="translate(423.8464,345.36224)">
    <path
       style="stroke:none"
       d="m 83.96875,0 10.234375,-12.796875 c 3.59375,-4.359375 3.59375,-10.75 -0.5,-15.875 C 68.09375,-61.703125 64,-80.125 58.375,-102.40625 54.53125,-97.53125 33.53125,-88.578125 19.96875,-83.203125 2.5625,-76.28125 -5.625,-60.15625 -5.625,-47.359375 c 0,8.453125 3.0625,16.640625 5.625,21.765625 H -17.921875 V 0 Z M 42.75,-51.203125 c -1.796875,0 -3.328125,-1.53125 -3.328125,-3.328125 0,-1.53125 1.53125,-3.0625 3.328125,-3.0625 1.53125,0 3.078125,1.53125 3.078125,3.0625 0,1.796875 -1.546875,3.328125 -3.078125,3.328125 z m 12.546875,23.046875 c -1.796875,0 -3.328125,-1.546875 -3.328125,-3.328125 0,-1.546875 1.53125,-3.078125 3.328125,-3.078125 1.53125,0 3.078125,1.53125 3.078125,3.078125 0,1.78125 -1.546875,3.328125 -3.078125,3.328125 z m 0,0"
       id="path199" />
  </g>
  <g
     id="use78"
     style="fill:#000000;fill-opacity:1"
     transform="translate(518.23703,345.36224)">
    <path
       style="stroke:none"
       d="m 51.203125,-102.40625 -12.03125,23.8125 61.187505,53 H 93.703125 L 37.375,-74.5 0,0 h 121.59375 l 9.73437,-15.875 c 4.35938,-7.171875 4.35938,-13.3125 -3.07812,-19.703125 z m 0,0"
       id="path195" />
  </g>
  <g
     id="use80"
     style="fill:#000000;fill-opacity:1"
     transform="translate(657.75265,345.36224)">
    <path
       style="stroke:none"
       d=""
       id="path191" />
  </g>
  <g
     id="use82"
     style="fill:#000000;fill-opacity:1"
     transform="translate(657.75265,345.36224)">
    <path
       style="stroke:none"
       d="m 93.703125,-12.03125 c 1.78125,-3.328125 1.265625,-8.953125 -1.03125,-12.546875 C 82.6875,-40.1875 62.96875,-65.796875 56.3125,-89.59375 52.484375,-84.734375 38.40625,-80.390625 28.15625,-76.796875 13.0625,-71.421875 0,-60.671875 0,-40.953125 c 0,16.125 12.796875,35.578125 12.796875,56.3125 0,7.9375 -1.78125,22.53125 -12.796875,35.84375 C 17.15625,43.015625 31.484375,22.015625 33.28125,0 h 53.765625 z m -53,-30.984375 c -1.796875,0 -3.328125,-1.53125 -3.328125,-3.328125 0,-1.53125 1.53125,-3.0625 3.328125,-3.0625 1.53125,0 3.078125,1.53125 3.078125,3.0625 0,1.796875 -1.546875,3.328125 -3.078125,3.328125 z m 0,0"
       id="path187" />
  </g>
  <g
     id="use84"
     style="fill:#000000;fill-opacity:1"
     transform="translate(757.5964,345.36224)">
    <path
       style="stroke:none"
       d=""
       id="path183" />
  </g>
  <g
     id="use86"
     style="fill:#000000;fill-opacity:1"
     transform="translate(758.0964,345.36224)">
    <path
       style="stroke:none"
       d="m 35.84375,-3.84375 c 4.34375,-4.09375 8.4375,-9.984375 -1.28125,-21.5 L 2.046875,-64 -10.75,-38.40625 15.109375,-7.6875 C 21.5,0 19.203125,4.609375 14.84375,8.703125 L -10.75,32 v 6.40625 z m 0,0"
       id="path179" />
  </g>
  <g
     id="use88"
     style="fill:#000000;fill-opacity:1"
     transform="translate(803.6589,345.36224)">
    <path
       style="stroke:none"
       d="M 19.203125,0 H 30.71875 v -25.59375 h -5.125 v -192 L 0,-192 V 19.203125 Z m 0,0"
       id="path175" />
  </g>
  <g
     id="use90"
     style="fill:#000000;fill-opacity:1"
     transform="translate(834.37765,345.36224)">
    <path
       style="stroke:none"
       d="m 17.921875,0 v -25.59375 h -5.125 L -5.125,-51.203125 H -25.59375 V 0 Z m 0,0"
       id="path171" />
  </g>
  <g
     id="use92"
     style="fill:#000000;fill-opacity:1"
     transform="translate(852.29953,345.36224)">
    <path
       style="stroke:none"
       d="M -5.125,-76.796875 -17.921875,-51.203125 0,-25.59375 H -12.796875 V 0 h 30.71875 c 13.5625,18.171875 23.03125,31.234375 32,51.203125 C 52.984375,46.59375 56.3125,38.65625 56.3125,28.15625 56.3125,10.5 36.609375,-15.875 29.953125,-25.59375 Z m 0,0"
       id="path167" />
  </g>
  <g
     id="use94"
     style="fill:#000000;fill-opacity:1"
     transform="translate(913.73703,345.36224)">
    <path
       style="stroke:none"
       d=""
       id="path163" />
  </g>
  <g
     id="use96"
     style="fill:#000000;fill-opacity:1"
     transform="translate(913.73703,345.36224)">
    <path
       style="stroke:none"
       d=""
       id="path159" />
  </g>
  <g
     id="use98"
     style="fill:#000000;fill-opacity:1"
     transform="translate(918.86203,345.36224)">
    <path
       style="stroke:none"
       d="M 20.484375,2.5625 C 29.1875,2.5625 35.84375,-4.09375 35.84375,-12.796875 35.84375,-21.5 29.1875,-28.15625 20.484375,-28.15625 11.78125,-28.15625 5.125,-21.5 5.125,-12.796875 5.125,-4.09375 11.78125,2.5625 20.484375,2.5625 Z m 0,0"
       id="path155" />
  </g>
  <g
     id="use100"
     style="fill:#000000;fill-opacity:1"
     transform="translate(959.81515,345.36224)">
    <path
       style="stroke:none"
       d="m 51.203125,-102.40625 -12.03125,23.8125 61.187505,53 H 93.703125 L 37.375,-74.5 0,0 h 121.59375 l 9.73437,-15.875 c 4.35938,-7.171875 4.35938,-13.3125 -3.07812,-19.703125 z m 0,0"
       id="path151" />
  </g>
  <path
     style="fill:#000000;fill-opacity:1;stroke:none;stroke-width:0.75px;stroke-linecap:butt;stroke-linejoin:miter;stroke-opacity:1"
     d="m 345.87127,266.204 -20.73178,17.28122 -2.27157,-3.07333 20.73438,-17.40625 z"
     id="path1354"
     sodipodi:nodetypes="ccccc" />
  <path
     style="fill:#000000;fill-opacity:1;stroke:none;stroke-width:0.75px;stroke-linecap:butt;stroke-linejoin:miter;stroke-opacity:1"
     d="m 369.39271,246.3467 -20.73178,17.28122 -2.27157,-3.07333 20.73438,-17.40625 z"
     id="path1356"
     sodipodi:nodetypes="ccccc" />
  <path
     style="fill:#000000;fill-opacity:1;stroke:none;stroke-width:0.75px;stroke-linecap:butt;stroke-linejoin:miter;stroke-opacity:1"
     d="m 322.34983,286.29769 -20.73178,17.28122 -2.27157,-3.07333 20.73438,-17.40625 z"
     id="path1358"
     sodipodi:nodetypes="ccccc" />
  <path
     style="fill:#000000;fill-opacity:1;stroke:none;stroke-width:0.75000000000000000px;stroke-linecap:butt;stroke-linejoin:miter;stroke-opacity:1"
     d="M 757.56869,278.97811 744.8,304.55074 l -2.69899,-3.16798 12.79688,-25.59375 z"
     id="path1360"
     sodipodi:nodetypes="ccccc" />
  <g
     id="g496"
     transform="matrix(0.01033566,0,0,0.01033566,15.858388,467.1415)"
     style="fill:#000000;fill-opacity:1;stroke-width:3.75;stroke-miterlimit:4;stroke-dasharray:none">
    <path
       d="m 2657.1168,1840 h 4020.6595 l 82,-140 H 2713.1168 c -64,0 -108,-6 -154,-52 l -62,-62 c -34,-34 -16,-128 12,-100 l 104,104 c 20,20 38,30 62,30 h 134 v -140 h -62 c -18,0 -28,-10 -36,-18 l -128,-128 c -100,-100 -188,198 -188,296 0,170 114,208 262,210 z"
       id="path833-6"
       sodipodi:nodetypes="cccssssssccssssc" />
    <path
       d="m 2769.1168,1620 h 280 v -140 c -44,0 -80,-36 -80,-80 v -320 l -160,40 v 360 h -40 z"
       id="path837-0" />
    <path
       d="m 3009.1168,1620 h 760 v -140 c -44,0 -80,-36 -80,-80 v -320 l -160,40 v 360 c -44,0 -80,-36 -80,-80 v -260 l -160,40 v 300 c -44,0 -80,-36 -80,-80 v -200 l -160,40 v 240 h -40 z"
       id="path839-1" />
    <path
       d="m 3729.1168,1620 h 678 l 82,-140 h -274 c -116,0 -238,-130 -360,-280 l -86,140 c 38,56 94,114 124,140 h -164 z"
       id="path841-4" />
    <path
       d=""
       id="path843-8" />
    <path
       d="m 4489.1168,1620 h 1200 v -140 h -86 c -30,-190 -146,-220 -222,-220 h -652 l 54,-140 h -6 l -160,280 h 744 c 44,0 80,36 80,80 h -872 z"
       id="path845-3" />
    <path
       d="m 5649.1168,1620 h 124 c 46,0 76,-30 76,-80 V 500 l -160,40 v 940 h -40 z"
       id="path847-8" />
    <path
       d="M 6089.1168,1460 V 500 l -160,40 v 1000 c 0,50 30,80 76,80 h 164 v -140 h -60 c -14,0 -20,-6 -20,-20 z"
       id="path849-1" />
    <path
       d="m 6567.1168,1294 94,-158 -34,-20 -94,158 z"
       id="path851-5" />
    <path
       d="m 6129.1168,1620 h 678 l 82,-140 h -274 c -116,0 -238,-130 -360,-280 l -86,140 c 38,56 94,114 124,140 h -164 z"
       id="path853-2" />
    <path
       style="fill:#000000;fill-opacity:1"
       d="m 2969.1168,1000 v -40 l -160,40 v 40 z"
       id="path887-2"
       sodipodi:nodetypes="ccccc" />
    <path
       id="path405"
       d="M 215.02177,912.08399 V 1620 H 356.60503 V 912.08399 Z"
       style="stroke-width:1.01131" />
    <path
       id="path407"
       d="M 680.22378,912.08399 V 1195.2504 H 579.09283 V 912.08399 H 437.50969 V 1620 H 1064.5211 V 1478.4168 H 579.09283 V 1336.8336 H 1064.5211 V 1195.2504 H 821.80697 V 1053.6672 H 1064.5211 V 912.08399 Z"
       style="stroke-width:1.01131" />
    <path
       id="path409"
       d="M 1388.14,912.08399 V 1195.2504 H 1287.009 V 912.08399 H 1145.4258 V 1620 h 627.0113 V 1478.4168 H 1287.009 v -141.5832 h 485.4281 V 1195.2504 H 1529.723 v -141.5832 h 242.7141 V 912.08399 Z"
       style="stroke-width:1.01131" />
    <path
       id="path411"
       d="M 2136.5082,912.08399 V 1096.1422 H 1994.925 V 912.08399 H 1853.3418 V 1620 h 141.5832 v -382.2746 h 283.1663 V 912.08399 Z"
       style="stroke-width:1.01131" />
  </g>
</svg>
