<?xml version="1.0" encoding="UTF-8" standalone="no"?>
<svg
   xmlns:dc="http://purl.org/dc/elements/1.1/"
   xmlns:cc="http://creativecommons.org/ns#"
   xmlns:rdf="http://www.w3.org/1999/02/22-rdf-syntax-ns#"
   xmlns:svg="http://www.w3.org/2000/svg"
   xmlns="http://www.w3.org/2000/svg"
   xmlns:sodipodi="http://sodipodi.sourceforge.net/DTD/sodipodi-0.dtd"
   xmlns:inkscape="http://www.inkscape.org/namespaces/inkscape"
   inkscape:export-ydpi="200"
   inkscape:export-xdpi="200"
   inkscape:export-filename="حنيش.png"
   inkscape:version="1.0.1 (c497b03c, 2020-09-10)"
   sodipodi:docname="حنيش.svg"
   id="svg99"
   version="1.1"
   viewBox="0 0 1137.5348 469.03778"
   height="469.03778pt"
   width="1137.5348pt">
  <rect
     y="100.9375"
     x="180.9375"
     height="267.16278"
     width="855.65979"
     id="rect1086"
     style="fill:none;fill-opacity:1;stroke:#aa0000;stroke-width:1.875;stroke-miterlimit:4;stroke-dasharray:none;stroke-opacity:1" />
  <g
     transform="matrix(0.74288284,0,0,0.74288284,95.307966,25.749919)"
     id="g324">
    <rect
       style="fill:#aa0000;fill-opacity:1;stroke:none;stroke-width:1.5;stroke-miterlimit:4;stroke-dasharray:none;stroke-opacity:1"
       id="rect1088"
       width="30.776709"
       height="30.776709"
       x="-206.83134"
       y="33.244019"
       transform="rotate(-135)" />
    <rect
       transform="rotate(-135)"
       y="64.118454"
       x="-237.7058"
       height="30.776709"
       width="30.776709"
       id="rect1090"
       style="fill:#aa0000;fill-opacity:1;stroke:none;stroke-width:1.5;stroke-miterlimit:4;stroke-dasharray:none;stroke-opacity:1" />
    <rect
       style="fill:#aa0000;fill-opacity:1;stroke:none;stroke-width:1.5;stroke-miterlimit:4;stroke-dasharray:none;stroke-opacity:1"
       id="rect319"
       width="30.776709"
       height="30.776709"
       x="-268.53915"
       y="94.951744"
       transform="rotate(-135)" />
  </g>
  <metadata
     id="metadata103">
    <rdf:RDF>
      <cc:Work
         rdf:about="">
        <dc:format>image/svg+xml</dc:format>
        <dc:type
           rdf:resource="http://purl.org/dc/dcmitype/StillImage" />
        <dc:title />
      </cc:Work>
    </rdf:RDF>
  </metadata>
  <sodipodi:namedview
     inkscape:guide-bbox="true"
     showguides="true"
     fit-margin-bottom="100"
     fit-margin-right="100"
     fit-margin-left="180"
     lock-margins="true"
     fit-margin-top="100"
     inkscape:current-layer="svg99"
     showgrid="false"
     id="namedview101"
     inkscape:window-height="480"
     inkscape:window-width="640"
     inkscape:pageshadow="2"
     inkscape:pageopacity="1"
     guidetolerance="10"
     gridtolerance="10"
     objecttolerance="10"
     borderopacity="1"
     bordercolor="#666666"
     pagecolor="#ffeec5"
     inkscape:document-rotation="0" />
  <defs
     id="defs60" />
  <g
     transform="translate(229.39321,346.60375)"
     style="fill:#000000;fill-opacity:1"
     id="use64">
    <path
       style="stroke:none"
       d=""
       id="path199" />
  </g>
  <g
     transform="translate(336.90883,346.60375)"
     style="fill:#000000;fill-opacity:1"
     id="use68">
    <path
       style="stroke:none"
       d=""
       id="path191" />
  </g>
  <g
     transform="translate(371.20571,346.60375)"
     style="fill:#000000;fill-opacity:1"
     id="use72">
    <path
       style="stroke:none"
       d=""
       id="path183" />
  </g>
  <g
     transform="translate(465.15883,346.60375)"
     style="fill:#000000;fill-opacity:1"
     id="use78">
    <path
       style="stroke:none"
       d=""
       id="path171" />
  </g>
  <g
     transform="translate(835.84633,346.60375)"
     style="fill:#000000;fill-opacity:1"
     id="use88">
    <path
       style="stroke:none"
       d=""
       id="path151" />
  </g>
  <g
     transform="translate(835.84633,346.60375)"
     style="fill:#000000;fill-opacity:1"
     id="use90">
    <path
       style="stroke:none"
       d=""
       id="path147" />
  </g>
  <g
     transform="translate(15.718562,-80.044865)"
     id="g1217">
    <g
       transform="translate(213.67464,351.64861)"
       style="fill:none;fill-opacity:1;stroke:#ffeec5;stroke-width:7.5;stroke-miterlimit:4;stroke-dasharray:none;stroke-opacity:1"
       id="g370">
      <path
         style="fill:none;stroke:#ffeec5;stroke-width:7.5;stroke-miterlimit:4;stroke-dasharray:none;stroke-opacity:1"
         d="M 83.71875,-53.25 55.046875,-96 34.5625,-78.59375 l 35.578125,53 H 65.03125 L 31.75,-76.03125 11.015625,-58.625 33.03125,-25.59375 H 27.640625 L 7.6875,-55.8125 -12.796875,-38.40625 12.796875,0 c 5.125,10.75 4.09375,17.921875 -5.109375,27.640625 L -80.890625,118.26563 C -109.82813,85.5 -165.375,59.140625 -198.40625,51.203125 L -96,140.79687 41.46875,0 h 66.04688 v -25.59375 h -5.10938 z m 0,0"
         id="path368" />
    </g>
    <g
       id="use66"
       style="fill:#000000;fill-opacity:1"
       transform="translate(213.67464,351.64861)">
      <path
         id="path195"
         d="M 83.71875,-53.25 55.046875,-96 34.5625,-78.59375 l 35.578125,53 H 65.03125 L 31.75,-76.03125 11.015625,-58.625 33.03125,-25.59375 H 27.640625 L 7.6875,-55.8125 -12.796875,-38.40625 12.796875,0 c 5.125,10.75 4.09375,17.921875 -5.109375,27.640625 L -80.890625,118.26563 C -109.82813,85.5 -165.375,59.140625 -198.40625,51.203125 L -96,140.79687 41.46875,0 h 66.04688 v -25.59375 h -5.10938 z m 0,0"
         style="stroke:none" />
    </g>
    <g
       id="use70"
       style="fill:#000000;fill-opacity:1"
       transform="translate(321.19026,351.64861)">
      <path
         id="path187"
         d="M 9.984375,-54.78125 -6.90625,-35.84375 0,-25.59375 H -12.546875 V 0 h 46.84375 v -25.59375 h -4.59375 z m 0,0"
         style="stroke:none" />
    </g>
    <g
       id="use74"
       style="fill:#000000;fill-opacity:1"
       transform="translate(355.48714,351.64861)">
      <path
         id="path179"
         d="m -4.859375,-76.796875 -16.90625,18.9375 L 0,-25.59375 H -12.796875 V 0 H 17.15625 l 12.546875,18.4375 18.6875,-15.875 z m 0,0"
         style="stroke:none" />
    </g>
    <g
       id="use76"
       style="fill:#000000;fill-opacity:1"
       transform="translate(390.04964,351.64861)">
      <path
         id="path175"
         d="M -5.125,-78.34375 -18.4375,-52.984375 14.34375,-4.09375 -3.078125,10.234375 -0.25,14.34375 17.15625,0 c 12.546875,17.921875 21.75,30.96875 30.203125,50.9375 3.078125,-4.59375 6.65625,-12.53125 6.90625,-23.03125 0.265625,-17.671875 -18.9375,-44.296875 -25.34375,-54.28125 z m 0,0"
         style="stroke:none" />
    </g>
    <g
       id="use80"
       style="fill:#000000;fill-opacity:1"
       transform="translate(449.44026,351.64861)">
      <path
         id="path167"
         d="m 128.76562,-35.078125 c 0,-0.25 -0.25,-0.25 -0.51562,-0.5 l -77.046875,-66.828125 -12.03125,23.8125 61.187505,53 H 93.703125 L 37.375,-74.5 0,0 h 130.04687 l 16.125,19.203125 L 165.375,0 v -25.59375 h -25.59375 z m 0,0"
         style="stroke:none" />
    </g>
    <g
       id="use82"
       style="fill:#000000;fill-opacity:1"
       transform="translate(594.33089,351.64861)">
      <path
         id="path163"
         d="m 87.046875,-29.1875 c -1.546875,-2.296875 -3.328125,-4.859375 -5.125,-7.671875 l -8.96875,-13.3125 C 65.28125,-62.46875 57.34375,-76.28125 53.765625,-89.59375 c -3.84375,4.859375 -17.921875,9.203125 -28.171875,12.796875 -15.09375,5.375 -28.15625,16.125 -28.15625,35.84375 0,4.859375 1.03125,9.984375 2.8125,15.359375 H -12.796875 V 0 h 85.75 L 89.59375,19.203125 109.3125,2.5625 C 105.21875,-2.8125 96,-16.125 87.046875,-29.1875 Z m -48.90625,-13.828125 c -1.78125,0 -3.328125,-1.53125 -3.328125,-3.328125 0,-1.53125 1.546875,-3.0625 3.328125,-3.0625 1.546875,0 3.078125,1.53125 3.078125,3.0625 0,1.796875 -1.53125,3.328125 -3.078125,3.328125 z m 0,0"
         style="stroke:none" />
    </g>
    <g
       id="use84"
       style="fill:#000000;fill-opacity:1"
       transform="translate(689.81526,351.64861)">
      <path
         id="path159"
         d="M 49.40625,0 V -25.59375 H 29.4375 L 28.921875,-26.375 -5.125,-78.34375 -18.4375,-52.984375 14.34375,-4.09375 -3.078125,10.234375 -0.25,14.34375 17.15625,0 c 12.546875,17.921875 21.75,30.96875 30.203125,50.9375 3.078125,-4.59375 6.65625,-12.53125 6.90625,-23.03125 0,-8.1875 -4.09375,-18.4375 -8.953125,-27.90625 z m 0,0"
         style="stroke:none" />
    </g>
    <g
       id="use86"
       style="fill:#000000;fill-opacity:1"
       transform="translate(722.84651,351.64861)">
      <path
         id="path155"
         d="M 90.109375,-24.578125 C 80.125,-40.1875 60.421875,-65.796875 53.765625,-89.59375 c -3.84375,4.859375 -17.921875,9.203125 -28.171875,12.796875 -15.09375,5.375 -28.15625,16.125 -28.15625,35.84375 0,4.859375 1.03125,9.984375 2.8125,15.359375 H -12.796875 V 0 h 97.28125 l 6.65625,-12.03125 c 1.78125,-3.328125 1.28125,-8.953125 -1.03125,-12.546875 z m -51.96875,-18.4375 c -1.78125,0 -3.328125,-1.53125 -3.328125,-3.328125 0,-1.53125 1.546875,-3.0625 3.328125,-3.0625 1.546875,0 3.078125,1.53125 3.078125,3.0625 0,1.796875 -1.53125,3.328125 -3.078125,3.328125 z m 0,0"
         style="stroke:none" />
    </g>
    <g
       id="use92"
       style="fill:#000000;fill-opacity:1"
       transform="translate(825.25276,351.64861)">
      <path
         id="path143"
         d="M 20.484375,2.5625 C 29.1875,2.5625 35.84375,-4.09375 35.84375,-12.796875 35.84375,-21.5 29.1875,-28.15625 20.484375,-28.15625 11.78125,-28.15625 5.125,-21.5 5.125,-12.796875 5.125,-4.09375 11.78125,2.5625 20.484375,2.5625 Z m 0,0"
         style="stroke:none" />
    </g>
    <g
       id="use94"
       style="fill:#000000;fill-opacity:1"
       transform="translate(866.20589,351.64861)">
      <path
         id="path139"
         d="m 51.203125,-102.40625 -12.03125,23.8125 61.187505,53 H 93.703125 L 37.375,-74.5 0,0 h 121.59375 l 9.73437,-15.875 c 4.35938,-7.171875 4.35938,-13.3125 -3.07812,-19.703125 z m 0,0"
         style="stroke:none" />
    </g>
  </g>
  <g
     transform="matrix(0.77943092,0,0,0.77943092,94.910336,-5.6154079)"
     id="g1257">
    <g
       transform="matrix(0.58310031,0,0,0.58310031,338.68767,378.1525)"
       style="fill:#000000;fill-opacity:1;stroke-width:3.75;stroke-miterlimit:4;stroke-dasharray:none"
       id="g1239">
      <path
         style="stroke:none;stroke-width:3.75;stroke-miterlimit:4;stroke-dasharray:none"
         d="M 20.484375,2.5625 C 29.1875,2.5625 35.84375,-4.09375 35.84375,-12.796875 35.84375,-21.5 29.1875,-28.15625 20.484375,-28.15625 11.78125,-28.15625 5.125,-21.5 5.125,-12.796875 5.125,-4.09375 11.78125,2.5625 20.484375,2.5625 Z m 0,0"
         id="path1237" />
    </g>
    <g
       id="g1243"
       style="fill:#000000;fill-opacity:1;stroke-width:3.75;stroke-miterlimit:4;stroke-dasharray:none"
       transform="matrix(0.58310031,0,0,0.58310031,314.68767,378.1525)">
      <path
         id="path1241"
         d="M 20.484375,2.5625 C 29.1875,2.5625 35.84375,-4.09375 35.84375,-12.796875 35.84375,-21.5 29.1875,-28.15625 20.484375,-28.15625 11.78125,-28.15625 5.125,-21.5 5.125,-12.796875 5.125,-4.09375 11.78125,2.5625 20.484375,2.5625 Z m 0,0"
         style="stroke:none;stroke-width:3.75;stroke-miterlimit:4;stroke-dasharray:none" />
    </g>
  </g>
  <g
     transform="matrix(0.45448641,0,0,0.45448641,357.02094,186.02827)"
     style="fill:#000000;fill-opacity:1;stroke-width:3.75;stroke-miterlimit:4;stroke-dasharray:none"
     id="g1333">
    <path
       style="stroke:none;stroke-width:3.75;stroke-miterlimit:4;stroke-dasharray:none"
       d="M 20.484375,2.5625 C 29.1875,2.5625 35.84375,-4.09375 35.84375,-12.796875 35.84375,-21.5 29.1875,-28.15625 20.484375,-28.15625 11.78125,-28.15625 5.125,-21.5 5.125,-12.796875 5.125,-4.09375 11.78125,2.5625 20.484375,2.5625 Z m 0,0"
       id="path1331" />
  </g>
  <g
     id="g496"
     transform="matrix(0.01033566,0,0,0.01033566,26.295351,398.54309)"
     style="fill:#000000;fill-opacity:1;stroke-width:3.75;stroke-miterlimit:4;stroke-dasharray:none">
    <path
       d="m 2657.1168,1840 h 4020.6595 l 82,-140 H 2713.1168 c -64,0 -108,-6 -154,-52 l -62,-62 c -34,-34 -16,-128 12,-100 l 104,104 c 20,20 38,30 62,30 h 134 v -140 h -62 c -18,0 -28,-10 -36,-18 l -128,-128 c -100,-100 -188,198 -188,296 0,170 114,208 262,210 z"
       id="path833-6"
       sodipodi:nodetypes="cccssssssccssssc" />
    <path
       d="m 2769.1168,1620 h 280 v -140 c -44,0 -80,-36 -80,-80 v -320 l -160,40 v 360 h -40 z"
       id="path837-0" />
    <path
       d="m 3009.1168,1620 h 760 v -140 c -44,0 -80,-36 -80,-80 v -320 l -160,40 v 360 c -44,0 -80,-36 -80,-80 v -260 l -160,40 v 300 c -44,0 -80,-36 -80,-80 v -200 l -160,40 v 240 h -40 z"
       id="path839-1" />
    <path
       d="m 3729.1168,1620 h 678 l 82,-140 h -274 c -116,0 -238,-130 -360,-280 l -86,140 c 38,56 94,114 124,140 h -164 z"
       id="path841-4" />
    <path
       d=""
       id="path843-8" />
    <path
       d="m 4489.1168,1620 h 1200 v -140 h -86 c -30,-190 -146,-220 -222,-220 h -652 l 54,-140 h -6 l -160,280 h 744 c 44,0 80,36 80,80 h -872 z"
       id="path845-3" />
    <path
       d="m 5649.1168,1620 h 124 c 46,0 76,-30 76,-80 V 500 l -160,40 v 940 h -40 z"
       id="path847-8" />
    <path
       d="M 6089.1168,1460 V 500 l -160,40 v 1000 c 0,50 30,80 76,80 h 164 v -140 h -60 c -14,0 -20,-6 -20,-20 z"
       id="path849-1" />
    <path
       d="m 6567.1168,1294 94,-158 -34,-20 -94,158 z"
       id="path851-5" />
    <path
       d="m 6129.1168,1620 h 678 l 82,-140 h -274 c -116,0 -238,-130 -360,-280 l -86,140 c 38,56 94,114 124,140 h -164 z"
       id="path853-2" />
    <path
       style="fill:#000000;fill-opacity:1"
       d="m 2969.1168,1000 v -40 l -160,40 v 40 z"
       id="path887-2"
       sodipodi:nodetypes="ccccc" />
    <path
       id="path405"
       d="M 215.02177,912.08399 V 1620 H 356.60503 V 912.08399 Z"
       style="stroke-width:1.01131" />
    <path
       id="path407"
       d="M 680.22378,912.08399 V 1195.2504 H 579.09283 V 912.08399 H 437.50969 V 1620 H 1064.5211 V 1478.4168 H 579.09283 V 1336.8336 H 1064.5211 V 1195.2504 H 821.80697 V 1053.6672 H 1064.5211 V 912.08399 Z"
       style="stroke-width:1.01131" />
    <path
       id="path409"
       d="M 1388.14,912.08399 V 1195.2504 H 1287.009 V 912.08399 H 1145.4258 V 1620 h 627.0113 V 1478.4168 H 1287.009 v -141.5832 h 485.4281 V 1195.2504 H 1529.723 v -141.5832 h 242.7141 V 912.08399 Z"
       style="stroke-width:1.01131" />
    <path
       id="path411"
       d="M 2136.5082,912.08399 V 1096.1422 H 1994.925 V 912.08399 H 1853.3418 V 1620 h 141.5832 v -382.2746 h 283.1663 V 912.08399 Z"
       style="stroke-width:1.01131" />
  </g>
</svg>
