<?xml version="1.0" encoding="UTF-8" standalone="no"?>
<svg
   xmlns:dc="http://purl.org/dc/elements/1.1/"
   xmlns:cc="http://creativecommons.org/ns#"
   xmlns:rdf="http://www.w3.org/1999/02/22-rdf-syntax-ns#"
   xmlns:svg="http://www.w3.org/2000/svg"
   xmlns="http://www.w3.org/2000/svg"
   xmlns:sodipodi="http://sodipodi.sourceforge.net/DTD/sodipodi-0.dtd"
   xmlns:inkscape="http://www.inkscape.org/namespaces/inkscape"
   width="1206.8163pt"
   height="514.08264pt"
   viewBox="0 0 1206.8163 514.08264"
   version="1.1"
   id="svg109"
   sodipodi:docname="شاهين.svg"
   inkscape:version="1.0.1 (c497b03c, 2020-09-10)"
   inkscape:export-filename="شاهين.png"
   inkscape:export-xdpi="200"
   inkscape:export-ydpi="200">
  <metadata
     id="metadata113">
    <rdf:RDF>
      <cc:Work
         rdf:about="">
        <dc:format>image/svg+xml</dc:format>
        <dc:type
           rdf:resource="http://purl.org/dc/dcmitype/StillImage" />
        <dc:title />
      </cc:Work>
    </rdf:RDF>
  </metadata>
  <sodipodi:namedview
     pagecolor="#ffeec5"
     bordercolor="#666666"
     borderopacity="1"
     objecttolerance="10"
     gridtolerance="10"
     guidetolerance="10"
     inkscape:pageopacity="1"
     inkscape:pageshadow="2"
     inkscape:window-width="640"
     inkscape:window-height="480"
     id="namedview111"
     showgrid="false"
     fit-margin-top="100"
     lock-margins="true"
     fit-margin-left="100"
     fit-margin-right="100"
     fit-margin-bottom="100"
     inkscape:current-layer="svg109"
     inkscape:document-rotation="0" />
  <defs
     id="defs66" />
  <rect
     y="100.9375"
     x="100.9375"
     height="312.20764"
     width="1004.9413"
     id="rect1086"
     style="fill:none;fill-opacity:1;stroke:#aa0000;stroke-width:1.875;stroke-miterlimit:4;stroke-dasharray:none;stroke-opacity:1"
     ry="0" />
  <g
     id="use70"
     style="fill:#000000;fill-opacity:1"
     transform="translate(211.14493,346.64289)">
    <path
       style="stroke:none"
       d=""
       id="path221" />
  </g>
  <path
     style="fill:none;fill-opacity:1;stroke:#ffeec5;stroke-width:7.5;stroke-miterlimit:4;stroke-dasharray:none;stroke-opacity:1"
     d="m 223.9418,269.84601 -12.79687,25.59375 33.28125,49.92188 c 7.17187,11.01562 7.42187,16.89062 -2.5625,26.375 l -98.5625,93.6875 C 114.6293,432.40851 58.832427,405.78351 25.551177,397.84601 l 102.390623,89.59375 143.10938,-135.67187 5.625,-5.125 h 1.28125 v -25.59375 h -18.6875 z m 0,0"
     id="path522" />
  <path
     style="fill:#000000;fill-opacity:1;stroke:none"
     d="m 223.9418,269.84601 -12.79687,25.59375 33.28125,49.92188 c 7.17187,11.01562 7.42187,16.89062 -2.5625,26.375 l -98.5625,93.6875 C 114.6293,432.40851 58.832427,405.78351 25.551177,397.84601 l 102.390623,89.59375 143.10938,-135.67187 5.625,-5.125 h 1.28125 v -25.59375 h -18.6875 z m 0,0"
     id="path217" />
  <g
     id="use74"
     style="fill:#000000;fill-opacity:1"
     transform="translate(264.39493,346.64289)">
    <path
       style="stroke:none"
       d=""
       id="path213" />
  </g>
  <g
     id="use76"
     style="fill:#000000;fill-opacity:1"
     transform="translate(264.39493,346.64289)">
    <path
       style="stroke:none"
       d="M -25.09375,-107.01563 -38.140625,-81.40625 0,-25.59375 H -12.546875 V 0 h 46.84375 v -25.59375 h -4.59375 z m 0,0"
       id="path209" />
  </g>
  <g
     id="use78"
     style="fill:#000000;fill-opacity:1"
     transform="translate(298.69181,346.64289)">
    <path
       style="stroke:none"
       d="m 83.96875,0 10.234375,-12.796875 c 3.59375,-4.359375 3.59375,-10.75 -0.5,-15.875 C 68.09375,-61.703125 64,-80.125 58.375,-102.40625 54.53125,-97.53125 33.53125,-88.578125 19.96875,-83.203125 2.5625,-76.28125 -5.625,-60.15625 -5.625,-47.359375 c 0,8.453125 3.0625,16.640625 5.625,21.765625 H -17.921875 V 0 Z M 42.75,-51.203125 c -1.796875,0 -3.328125,-1.53125 -3.328125,-3.328125 0,-1.53125 1.53125,-3.0625 3.328125,-3.0625 1.53125,0 3.078125,1.53125 3.078125,3.0625 0,1.796875 -1.546875,3.328125 -3.078125,3.328125 z m 12.546875,23.046875 c -1.796875,0 -3.328125,-1.546875 -3.328125,-3.328125 0,-1.546875 1.53125,-3.078125 3.328125,-3.078125 1.53125,0 3.078125,1.53125 3.078125,3.078125 0,1.78125 -1.546875,3.328125 -3.078125,3.328125 z m 0,0"
       id="path205" />
  </g>
  <g
     id="use80"
     style="fill:#000000;fill-opacity:1"
     transform="translate(400.58243,346.64289)">
    <path
       style="stroke:none"
       d="M 19.203125,0 H 30.71875 v -25.59375 h -5.125 v -192 L 0,-192 V 19.203125 Z m 0,0"
       id="path201" />
  </g>
  <g
     id="use82"
     style="fill:#000000;fill-opacity:1"
     transform="translate(431.30118,346.64289)">
    <path
       style="stroke:none"
       d="m 8.453125,0 v -25.59375 h -5.125 L -5.125,-38.40625 H -25.34375 L -25.59375,0 Z m 0,0"
       id="path197" />
  </g>
  <g
     id="use84"
     style="fill:#000000;fill-opacity:1"
     transform="translate(439.7543,346.64289)">
    <path
       style="stroke:none"
       d=""
       id="path193" />
  </g>
  <g
     id="use86"
     style="fill:#000000;fill-opacity:1"
     transform="translate(439.7543,346.64289)">
    <path
       style="stroke:none"
       d="m 59.390625,-96 -20.484375,17.40625 35.59375,53 H 69.375 L 36.09375,-76.03125 15.359375,-58.625 37.375,-25.59375 H 32 L 12.03125,-55.8125 -8.453125,-38.40625 0,-25.59375 H -12.796875 V 0 H 94.5 l 11.23438,-21.5 c 0.76562,-1.796875 0.5,-4.359375 -0.51563,-6.140625 z"
       id="path189"
       sodipodi:nodetypes="ccccccccccccccccc" />
  </g>
  <g
     id="use88"
     style="fill:#000000;fill-opacity:1"
     transform="translate(551.11368,346.64289)">
    <path
       style="stroke:none"
       d=""
       id="path185" />
  </g>
  <g
     id="use90"
     style="fill:#000000;fill-opacity:1"
     transform="translate(540.61368,346.64289)">
    <path
       style="stroke:none"
       d="m 128.76562,-35.078125 c 0,-0.25 -0.25,-0.25 -0.51562,-0.5 l -77.046875,-66.828125 -12.03125,23.8125 61.187505,53 H 93.703125 L 37.375,-74.5 0,0 h 130.04687 l 16.125,19.203125 L 165.375,0 v -25.59375 h -25.59375 z m 0,0"
       id="path181" />
  </g>
  <g
     id="use92"
     style="fill:#000000;fill-opacity:1"
     transform="translate(685.5043,346.64289)">
    <path
       style="stroke:none"
       d="m 87.046875,-29.1875 c -1.546875,-2.296875 -3.328125,-4.859375 -5.125,-7.671875 l -8.96875,-13.3125 C 65.28125,-62.46875 57.34375,-76.28125 53.765625,-89.59375 c -3.84375,4.859375 -17.921875,9.203125 -28.171875,12.796875 -15.09375,5.375 -28.15625,16.125 -28.15625,35.84375 0,4.859375 1.03125,9.984375 2.8125,15.359375 H -12.796875 V 0 h 85.75 L 89.59375,19.203125 109.3125,2.5625 C 105.21875,-2.8125 96,-16.125 87.046875,-29.1875 Z m -48.90625,-13.828125 c -1.78125,0 -3.328125,-1.53125 -3.328125,-3.328125 0,-1.53125 1.546875,-3.0625 3.328125,-3.0625 1.546875,0 3.078125,1.53125 3.078125,3.0625 0,1.796875 -1.53125,3.328125 -3.078125,3.328125 z m 0,0"
       id="path177" />
  </g>
  <g
     id="use94"
     style="fill:#000000;fill-opacity:1"
     transform="translate(780.98868,346.64289)">
    <path
       style="stroke:none"
       d="M 49.40625,0 V -25.59375 H 29.4375 L 28.921875,-26.375 -5.125,-78.34375 -18.4375,-52.984375 14.34375,-4.09375 -3.078125,10.234375 -0.25,14.34375 17.15625,0 c 12.546875,17.921875 21.75,30.96875 30.203125,50.9375 3.078125,-4.59375 6.65625,-12.53125 6.90625,-23.03125 0,-8.1875 -4.09375,-18.4375 -8.953125,-27.90625 z m 0,0"
       id="path173" />
  </g>
  <g
     id="use96"
     style="fill:#000000;fill-opacity:1"
     transform="translate(814.01993,346.64289)">
    <path
       style="stroke:none"
       d="M 90.109375,-24.578125 C 80.125,-40.1875 60.421875,-65.796875 53.765625,-89.59375 c -3.84375,4.859375 -17.921875,9.203125 -28.171875,12.796875 -15.09375,5.375 -28.15625,16.125 -28.15625,35.84375 0,4.859375 1.03125,9.984375 2.8125,15.359375 H -12.796875 V 0 h 97.28125 l 6.65625,-12.03125 c 1.78125,-3.328125 1.28125,-8.953125 -1.03125,-12.546875 z m -51.96875,-18.4375 c -1.78125,0 -3.328125,-1.53125 -3.328125,-3.328125 0,-1.53125 1.546875,-3.0625 3.328125,-3.0625 1.546875,0 3.078125,1.53125 3.078125,3.0625 0,1.796875 -1.53125,3.328125 -3.078125,3.328125 z m 0,0"
       id="path169" />
  </g>
  <g
     id="use98"
     style="fill:#000000;fill-opacity:1"
     transform="translate(921.80118,346.64289)">
    <path
       style="stroke:none"
       d=""
       id="path165" />
  </g>
  <g
     id="use100"
     style="fill:#000000;fill-opacity:1"
     transform="translate(921.80118,346.64289)">
    <path
       style="stroke:none"
       d=""
       id="path161" />
  </g>
  <g
     id="use102"
     style="fill:#000000;fill-opacity:1"
     transform="translate(916.42618,346.64289)">
    <path
       style="stroke:none"
       d="M 20.484375,2.5625 C 29.1875,2.5625 35.84375,-4.09375 35.84375,-12.796875 35.84375,-21.5 29.1875,-28.15625 20.484375,-28.15625 11.78125,-28.15625 5.125,-21.5 5.125,-12.796875 5.125,-4.09375 11.78125,2.5625 20.484375,2.5625 Z m 0,0"
       id="path157" />
  </g>
  <g
     id="use104"
     style="fill:#000000;fill-opacity:1"
     transform="translate(957.3793,346.64289)">
    <path
       style="stroke:none"
       d="m 51.203125,-102.40625 -12.03125,23.8125 61.187505,53 H 93.703125 L 37.375,-74.5 0,0 h 121.59375 l 9.73437,-15.875 c 4.35938,-7.171875 4.35938,-13.3125 -3.07812,-19.703125 z m 0,0"
       id="path153" />
  </g>
  <g
     transform="translate(266.86435,341.57145)"
     id="use1528"
     style="fill:#000000;fill-opacity:1">
    <path
       style="stroke:none"
       d="m 25.859375,0 c 4.09375,-6.140625 7.671875,-11.515625 7.671875,-15.609375 0,-4.109375 -1.78125,-7.171875 -3.828125,-9.984375 L -25.09375,-107.01563 -38.140625,-81.40625 0,-25.59375 H -12.546875 V 0 Z m 0,0"
       id="path665" />
  </g>
  <rect
     transform="rotate(-135)"
     y="-155.54514"
     x="-298.23077"
     height="90.264572"
     width="90.264572"
     id="rect1088"
     style="fill:#aa0000;fill-opacity:1;stroke:none;stroke-width:4.39933;stroke-miterlimit:4;stroke-dasharray:none;stroke-opacity:1" />
  <g
     transform="rotate(138,443.57612,221.85078)"
     id="g1309">
    <g
       transform="matrix(0.5831003,0,0,0.5831003,677.47993,230.96644)"
       style="fill:#000000;fill-opacity:1;stroke-width:3.75;stroke-miterlimit:4;stroke-dasharray:none"
       id="g1303">
      <path
         style="stroke:none;stroke-width:3.75;stroke-miterlimit:4;stroke-dasharray:none"
         d="M 20.484375,2.5625 C 29.1875,2.5625 35.84375,-4.09375 35.84375,-12.796875 35.84375,-21.5 29.1875,-28.15625 20.484375,-28.15625 11.78125,-28.15625 5.125,-21.5 5.125,-12.796875 5.125,-4.09375 11.78125,2.5625 20.484375,2.5625 Z m 0,0"
         id="path1301" />
    </g>
    <g
       id="g1307"
       style="fill:#000000;fill-opacity:1;stroke-width:3.75;stroke-miterlimit:4;stroke-dasharray:none"
       transform="matrix(0.5831003,0,0,0.5831003,650.47993,230.96644)">
      <path
         id="path1305"
         d="M 20.484375,2.5625 C 29.1875,2.5625 35.84375,-4.09375 35.84375,-12.796875 35.84375,-21.5 29.1875,-28.15625 20.484375,-28.15625 11.78125,-28.15625 5.125,-21.5 5.125,-12.796875 5.125,-4.09375 11.78125,2.5625 20.484375,2.5625 Z m 0,0"
         style="stroke:none;stroke-width:3.75;stroke-miterlimit:4;stroke-dasharray:none" />
    </g>
  </g>
  <g
     id="g1949">
    <g
       transform="matrix(-0.44305793,0.37908525,-0.37908525,-0.44305793,441.85916,269.67483)"
       style="fill:#000000;fill-opacity:1;stroke-width:3.75;stroke-miterlimit:4;stroke-dasharray:none"
       id="g1905">
      <path
         style="stroke:none;stroke-width:3.75;stroke-miterlimit:4;stroke-dasharray:none"
         d="M 20.484375,2.5625 C 29.1875,2.5625 35.84375,-4.09375 35.84375,-12.796875 35.84375,-21.5 29.1875,-28.15625 20.484375,-28.15625 11.78125,-28.15625 5.125,-21.5 5.125,-12.796875 5.125,-4.09375 11.78125,2.5625 20.484375,2.5625 Z m 0,0"
         id="path1903" />
    </g>
    <g
       id="g1909"
       style="fill:#000000;fill-opacity:1;stroke-width:3.75;stroke-miterlimit:4;stroke-dasharray:none"
       transform="matrix(-0.44305793,0.37908525,-0.37908525,-0.44305793,460.84369,253.65251)">
      <path
         id="path1907"
         d="M 20.484375,2.5625 C 29.1875,2.5625 35.84375,-4.09375 35.84375,-12.796875 35.84375,-21.5 29.1875,-28.15625 20.484375,-28.15625 11.78125,-28.15625 5.125,-21.5 5.125,-12.796875 5.125,-4.09375 11.78125,2.5625 20.484375,2.5625 Z m 0,0"
         style="stroke:none;stroke-width:3.75;stroke-miterlimit:4;stroke-dasharray:none" />
    </g>
    <path
       id="path1917"
       d="m 470.79833,243.54022 c -3.85599,3.29922 -4.28181,8.77161 -0.98259,12.6276 3.29923,3.85599 8.77162,4.28181 12.62761,0.98258 3.85599,-3.29923 4.2818,-8.77162 0.98257,-12.6276 -3.29922,-3.85599 -8.77161,-4.28181 -12.62759,-0.98258 z m 0,0"
       style="fill:#000000;fill-opacity:1;stroke:none;stroke-width:2.18663;stroke-miterlimit:4;stroke-dasharray:none" />
  </g>
  <g
     id="g496"
     transform="matrix(0.01033566,0,0,0.01033566,23.328785,468.42215)"
     style="fill:#000000;fill-opacity:1;stroke-width:3.75;stroke-miterlimit:4;stroke-dasharray:none">
    <path
       d="m 2657.1168,1840 h 4020.6595 l 82,-140 H 2713.1168 c -64,0 -108,-6 -154,-52 l -62,-62 c -34,-34 -16,-128 12,-100 l 104,104 c 20,20 38,30 62,30 h 134 v -140 h -62 c -18,0 -28,-10 -36,-18 l -128,-128 c -100,-100 -188,198 -188,296 0,170 114,208 262,210 z"
       id="path833-6"
       sodipodi:nodetypes="cccssssssccssssc" />
    <path
       d="m 2769.1168,1620 h 280 v -140 c -44,0 -80,-36 -80,-80 v -320 l -160,40 v 360 h -40 z"
       id="path837-0" />
    <path
       d="m 3009.1168,1620 h 760 v -140 c -44,0 -80,-36 -80,-80 v -320 l -160,40 v 360 c -44,0 -80,-36 -80,-80 v -260 l -160,40 v 300 c -44,0 -80,-36 -80,-80 v -200 l -160,40 v 240 h -40 z"
       id="path839-1" />
    <path
       d="m 3729.1168,1620 h 678 l 82,-140 h -274 c -116,0 -238,-130 -360,-280 l -86,140 c 38,56 94,114 124,140 h -164 z"
       id="path841-4" />
    <path
       d=""
       id="path843-8" />
    <path
       d="m 4489.1168,1620 h 1200 v -140 h -86 c -30,-190 -146,-220 -222,-220 h -652 l 54,-140 h -6 l -160,280 h 744 c 44,0 80,36 80,80 h -872 z"
       id="path845-3" />
    <path
       d="m 5649.1168,1620 h 124 c 46,0 76,-30 76,-80 V 500 l -160,40 v 940 h -40 z"
       id="path847-8" />
    <path
       d="M 6089.1168,1460 V 500 l -160,40 v 1000 c 0,50 30,80 76,80 h 164 v -140 h -60 c -14,0 -20,-6 -20,-20 z"
       id="path849-1" />
    <path
       d="m 6567.1168,1294 94,-158 -34,-20 -94,158 z"
       id="path851-5" />
    <path
       d="m 6129.1168,1620 h 678 l 82,-140 h -274 c -116,0 -238,-130 -360,-280 l -86,140 c 38,56 94,114 124,140 h -164 z"
       id="path853-2" />
    <path
       style="fill:#000000;fill-opacity:1"
       d="m 2969.1168,1000 v -40 l -160,40 v 40 z"
       id="path887-2"
       sodipodi:nodetypes="ccccc" />
    <path
       id="path405"
       d="M 215.02177,912.08399 V 1620 H 356.60503 V 912.08399 Z"
       style="stroke-width:1.01131" />
    <path
       id="path407"
       d="M 680.22378,912.08399 V 1195.2504 H 579.09283 V 912.08399 H 437.50969 V 1620 H 1064.5211 V 1478.4168 H 579.09283 V 1336.8336 H 1064.5211 V 1195.2504 H 821.80697 V 1053.6672 H 1064.5211 V 912.08399 Z"
       style="stroke-width:1.01131" />
    <path
       id="path409"
       d="M 1388.14,912.08399 V 1195.2504 H 1287.009 V 912.08399 H 1145.4258 V 1620 h 627.0113 V 1478.4168 H 1287.009 v -141.5832 h 485.4281 V 1195.2504 H 1529.723 v -141.5832 h 242.7141 V 912.08399 Z"
       style="stroke-width:1.01131" />
    <path
       id="path411"
       d="M 2136.5082,912.08399 V 1096.1422 H 1994.925 V 912.08399 H 1853.3418 V 1620 h 141.5832 v -382.2746 h 283.1663 V 912.08399 Z"
       style="stroke-width:1.01131" />
  </g>
</svg>
