<?xml version="1.0" encoding="UTF-8" standalone="no"?>
<svg
   xmlns:dc="http://purl.org/dc/elements/1.1/"
   xmlns:cc="http://creativecommons.org/ns#"
   xmlns:rdf="http://www.w3.org/1999/02/22-rdf-syntax-ns#"
   xmlns:svg="http://www.w3.org/2000/svg"
   xmlns="http://www.w3.org/2000/svg"
   xmlns:sodipodi="http://sodipodi.sourceforge.net/DTD/sodipodi-0.dtd"
   xmlns:inkscape="http://www.inkscape.org/namespaces/inkscape"
   inkscape:export-ydpi="200"
   inkscape:export-xdpi="200"
   inkscape:export-filename="عيسوي.png"
   inkscape:version="1.0.1 (c497b03c, 2020-09-10)"
   sodipodi:docname="عيسوي.svg"
   id="svg108"
   version="1.1"
   viewBox="0 0 1473.0348 482.53778"
   height="482.53778pt"
   width="1473.0348pt">
  <metadata
     id="metadata112">
    <rdf:RDF>
      <cc:Work
         rdf:about="">
        <dc:format>image/svg+xml</dc:format>
        <dc:type
           rdf:resource="http://purl.org/dc/dcmitype/StillImage" />
        <dc:title />
      </cc:Work>
    </rdf:RDF>
  </metadata>
  <sodipodi:namedview
     fit-margin-bottom="100"
     fit-margin-right="100"
     fit-margin-left="100"
     lock-margins="true"
     fit-margin-top="100"
     inkscape:current-layer="svg108"
     showgrid="false"
     id="namedview110"
     inkscape:window-height="480"
     inkscape:window-width="640"
     inkscape:pageshadow="2"
     inkscape:pageopacity="1"
     guidetolerance="10"
     gridtolerance="10"
     objecttolerance="10"
     borderopacity="1"
     bordercolor="#666666"
     pagecolor="#ffeec5"
     inkscape:document-rotation="0" />
  <defs
     id="defs63" />
  <rect
     inkscape:export-ydpi="200"
     inkscape:export-xdpi="200"
     inkscape:export-filename="./rect1086.png"
     y="100.9375"
     x="100.9375"
     height="280.66278"
     width="1271.1598"
     id="rect1086"
     style="fill:none;fill-opacity:1;stroke:#aa0000;stroke-width:1.875;stroke-miterlimit:4;stroke-dasharray:none;stroke-opacity:1" />
  <g
     id="use67"
     transform="translate(115.92554,334.48684)"
     style="fill:#000000;fill-opacity:1">
    <path
       sodipodi:nodetypes="cssccsscccssscc"
       id="path135"
       d="M 1218.7339,5.125 H 61.4375 c -9.984375,0 -17.921875,-7.9375 -17.921875,-17.921875 v -4.09375 h 5.125 v 4.09375 C 48.640625,-5.625 54.265625,0 61.4375,0 h 57.85938 v -25.59375 c -7.6875,0 -10.5,-5.375 -12.03125,-10.5 -7.17188,-23.8125 -25.343755,-40.703125 -51.45313,-40.703125 -30.71875,0 -55.8125,24.0625 -55.8125,53.75 C 0,6.65625 25.09375,30.71875 55.8125,30.71875 h 1147.8276 z"
       style="stroke:none" />
  </g>
  <g
     style="fill:none;fill-opacity:1;stroke:#ffeec5;stroke-width:7.5;stroke-miterlimit:4;stroke-dasharray:none;stroke-opacity:1"
     transform="translate(426.19116,334.48684)"
     id="g251">
    <path
       style="fill:none;stroke:#ffeec5;stroke-width:7.5;stroke-miterlimit:4;stroke-dasharray:none;stroke-opacity:1"
       d="M 19.203125,0 H 30.71875 v -25.59375 h -5.125 v -192 L 0,-192 V 19.203125 Z m 0,0"
       id="path249" />
  </g>
  <g
     style="fill:none;fill-opacity:1;stroke:#ffeec5;stroke-width:7.5;stroke-miterlimit:4;stroke-dasharray:none;stroke-opacity:1"
     transform="translate(482.50366,334.48684)"
     id="g255">
    <path
       style="fill:none;stroke:#ffeec5;stroke-width:7.5;stroke-miterlimit:4;stroke-dasharray:none;stroke-opacity:1"
       d="M 39.421875,-25.59375 67.84375,-67.578125 C 58.625,-83.71875 39.171875,-96 20.484375,-96 1.28125,-96 -18.4375,-83.203125 -27.390625,-66.046875 L 0,-25.59375 H -12.796875 V 0 H 17.40625 L 30.46875,19.453125 44.796875,0 h 32 v -25.59375 z m -18.9375,-36.359375 c 1.53125,0 3.0625,1.53125 3.0625,3.078125 0,1.78125 -1.53125,3.328125 -3.0625,3.328125 -1.796875,0 -3.328125,-1.546875 -3.328125,-3.328125 0,-1.546875 1.53125,-3.078125 3.328125,-3.078125 z m 0,0"
       id="path253" />
  </g>
  <g
     style="fill:none;fill-opacity:1;stroke:#ffeec5;stroke-width:7.5;stroke-miterlimit:4;stroke-dasharray:none;stroke-opacity:1"
     transform="translate(769.99627,334.48684)"
     id="g259">
    <path
       style="fill:none;stroke:#ffeec5;stroke-width:7.5;stroke-miterlimit:4;stroke-dasharray:none;stroke-opacity:1"
       d="M 65.28125,-25.59375 32,-89.59375 -12.796875,-38.40625 31.75,5.375 c 7.15625,6.90625 5.375,10.234375 -0.515625,15.609375 L 19.203125,32 v 6.40625 L 61.4375,0 h 8.96875 v -25.59375 z m -36.359375,-12.8125 c -1.78125,0 -3.328125,-1.53125 -3.328125,-3.328125 0,-1.53125 1.546875,-3.0625 3.328125,-3.0625 1.546875,0 3.078125,1.53125 3.078125,3.0625 0,1.796875 -1.53125,3.328125 -3.078125,3.328125 z m 0,0"
       id="path257" />
  </g>
  <g
     id="use69"
     transform="translate(235.22241,334.48684)"
     style="fill:#000000;fill-opacity:1">
    <path
       id="path139"
       d="M 170.5,-55.8125 H 11.78125 l -8.453125,-20.984375 -15.875,19.203125 12.546875,32 H -12.796875 V 0 H 176.89062 l 9.73438,-23.546875 c 1.28125,-3.328125 1.79687,-5.375 -0.25,-8.453125 z M 22.015625,-30.203125 H 155.90625 l 3.0625,4.609375 H 23.8125 Z m 0,0"
       style="stroke:none" />
  </g>
  <g
     style="fill:none;fill-opacity:1;stroke:#ffeec5;stroke-width:7.5;stroke-miterlimit:4;stroke-dasharray:none;stroke-opacity:1"
     transform="translate(986.57439,334.48684)"
     id="g263">
    <path
       style="fill:none;stroke:#ffeec5;stroke-width:7.5;stroke-miterlimit:4;stroke-dasharray:none;stroke-opacity:1"
       d="M 39.421875,-25.59375 67.84375,-67.578125 C 58.625,-83.71875 39.171875,-96 20.484375,-96 1.28125,-96 -18.4375,-83.203125 -27.390625,-66.046875 L 0,-25.59375 H -12.796875 V 0 H 17.40625 L 30.46875,19.453125 44.796875,0 h 32 v -25.59375 z m -18.9375,-36.359375 c 1.53125,0 3.0625,1.53125 3.0625,3.078125 0,1.78125 -1.53125,3.328125 -3.0625,3.328125 -1.796875,0 -3.328125,-1.546875 -3.328125,-3.328125 0,-1.546875 1.53125,-3.078125 3.328125,-3.078125 z m 0,0"
       id="path261" />
  </g>
  <g
     id="use73"
     transform="translate(456.90991,334.48684)"
     style="fill:#000000;fill-opacity:1">
    <path
       id="path147"
       d="M 25.59375,0 V -25.59375 H 20.484375 L -5.375,-64 H -25.59375 V 0 Z m 0,0"
       style="stroke:none" />
  </g>
  <g
     id="use75"
     transform="translate(482.50366,334.48684)"
     style="fill:#000000;fill-opacity:1">
    <path
       id="path151"
       d="M 39.421875,-25.59375 67.84375,-67.578125 C 58.625,-83.71875 39.171875,-96 20.484375,-96 1.28125,-96 -18.4375,-83.203125 -27.390625,-66.046875 L 0,-25.59375 H -12.796875 V 0 H 17.40625 L 30.46875,19.453125 44.796875,0 h 32 v -25.59375 z m -18.9375,-36.359375 c 1.53125,0 3.0625,1.53125 3.0625,3.078125 0,1.78125 -1.53125,3.328125 -3.0625,3.328125 -1.796875,0 -3.328125,-1.546875 -3.328125,-3.328125 0,-1.546875 1.53125,-3.078125 3.328125,-3.078125 z m 0,0"
       style="stroke:none" />
  </g>
  <g
     id="use77"
     transform="translate(559.30054,334.48684)"
     style="fill:#000000;fill-opacity:1">
    <path
       id="path155"
       d="M 10.234375,0 C 18.6875,0 25.59375,-6.90625 25.59375,-15.359375 V -186.875 L 0,-161.28125 v 135.6875 H -12.796875 V 0 Z m 0,0"
       style="stroke:none" />
  </g>
  <g
     id="use81"
     transform="translate(659.14429,334.48684)"
     style="fill:#000000;fill-opacity:1">
    <path
       id="path163"
       d=""
       style="stroke:none" />
  </g>
  <g
     style="fill:#000000;fill-opacity:1;stroke:#ffeec5;stroke-width:7.5;stroke-miterlimit:4;stroke-dasharray:none;stroke-opacity:1"
     transform="translate(654.64429,334.48684)"
     id="g1090">
    <path
       style="stroke:#ffeec5;stroke-width:7.5;stroke-miterlimit:4;stroke-dasharray:none;stroke-opacity:1"
       d="M 145.92187,5.125 H 73.46875 C 48.125,5.125 32,-3.578125 28.15625,-16.890625 h 5.125 C 38.90625,-5.375 53.765625,0 69.890625,0 c 19.96875,0 41.218755,-8.453125 47.875005,-23.046875 -9.48438,0 -14.59375,-3.328125 -24.32813,-15.359375 C 77.0625,-59.390625 62.46875,-68.09375 43.515625,-68.09375 18.4375,-68.09375 0,-50.171875 0,-25.59375 c 0,32.25 23.8125,56.3125 60.921875,56.3125 h 52.484375 l -87.8125,87.8125 C -3.078125,85.5 -59.140625,59.140625 -92.15625,51.203125 L 10.234375,140.79687 Z m 0,0"
       id="path1088" />
  </g>
  <path
     style="fill:#000000;fill-opacity:1;stroke:none"
     d="m 800.56616,339.61184 h -72.45312 c -25.34375,0 -41.46875,-8.70313 -45.3125,-22.01563 h 5.125 c 5.625,11.51563 20.48437,16.89063 36.60937,16.89063 19.96875,0 41.21876,-8.45313 47.87501,-23.04688 -9.48438,0 -14.59375,-3.32812 -24.32813,-15.35937 -16.375,-20.98438 -30.96875,-29.6875 -49.92188,-29.6875 -25.07812,0 -43.51562,17.92187 -43.51562,42.5 0,32.25 23.8125,56.3125 60.92187,56.3125 h 52.48438 l -87.8125,87.8125 c -28.67188,-33.03125 -84.73438,-59.39063 -117.75,-67.32813 l 102.39062,89.59375 z m 0,0"
     id="path167" />
  <g
     id="use85"
     transform="translate(769.99627,334.48684)"
     style="fill:#000000;fill-opacity:1">
    <path
       id="path171"
       d="M 65.28125,-25.59375 32,-89.59375 -12.796875,-38.40625 31.75,5.375 c 7.15625,6.90625 5.375,10.234375 -0.515625,15.609375 L 19.203125,32 v 6.40625 L 61.4375,0 h 8.96875 v -25.59375 z m -36.359375,-12.8125 c -1.78125,0 -3.328125,-1.53125 -3.328125,-3.328125 0,-1.53125 1.546875,-3.0625 3.328125,-3.0625 1.546875,0 3.078125,1.53125 3.078125,3.0625 0,1.796875 -1.53125,3.328125 -3.078125,3.328125 z m 0,0"
       style="stroke:none" />
  </g>
  <g
     id="use87"
     transform="translate(840.40252,334.48684)"
     style="fill:#000000;fill-opacity:1">
    <path
       id="path175"
       d="M 88.0625,-53.25 59.390625,-96 38.90625,-78.59375 l 35.59375,53 H 69.375 L 36.09375,-76.03125 15.359375,-58.625 37.375,-25.59375 H 32 L 12.03125,-55.8125 -8.453125,-38.40625 0,-25.59375 H -12.796875 V 0 H 111.875 v -25.59375 h -5.125 z m 0,0"
       style="stroke:none" />
  </g>
  <g
     id="use89"
     transform="translate(964.30054,334.48684)"
     style="fill:#000000;fill-opacity:1">
    <path
       id="path179"
       d=""
       style="stroke:none" />
  </g>
  <g
     id="use91"
     transform="translate(952.27752,334.48684)"
     style="fill:#000000;fill-opacity:1">
    <path
       id="path183"
       d="M -4.859375,-76.796875 -21.765625,-57.59375 0,-25.59375 H -12.796875 V 0 h 47.09375 v -25.59375 h -4.59375 z m 0,0"
       style="stroke:none" />
  </g>
  <g
     id="use93"
     transform="translate(986.57439,334.48684)"
     style="fill:#000000;fill-opacity:1">
    <path
       id="path187"
       d="M 39.421875,-25.59375 67.84375,-67.578125 C 58.625,-83.71875 39.171875,-96 20.484375,-96 1.28125,-96 -18.4375,-83.203125 -27.390625,-66.046875 L 0,-25.59375 H -12.796875 V 0 H 17.40625 L 30.46875,19.453125 44.796875,0 h 32 v -25.59375 z m -18.9375,-36.359375 c 1.53125,0 3.0625,1.53125 3.0625,3.078125 0,1.78125 -1.53125,3.328125 -3.0625,3.328125 -1.796875,0 -3.328125,-1.546875 -3.328125,-3.328125 0,-1.546875 1.53125,-3.078125 3.328125,-3.078125 z m 0,0"
       style="stroke:none" />
  </g>
  <g
     id="use95"
     transform="translate(1063.3713,334.48684)"
     style="fill:#000000;fill-opacity:1">
    <path
       id="path191"
       d="M 10.234375,0 C 18.6875,0 25.59375,-6.90625 25.59375,-15.359375 V -186.875 L 0,-161.28125 v 135.6875 H -12.796875 V 0 Z m 0,0"
       style="stroke:none" />
  </g>
  <g
     id="use97"
     transform="translate(1094.09,334.48684)"
     style="fill:#000000;fill-opacity:1">
    <path
       id="path195"
       d="m 43.015625,0 c 18.171875,0 27.125,-8.453125 33.78125,-16.640625 -29.4375,0 -51.203125,-26.109375 -51.203125,-60.15625 V -217.59375 L 0,-192 V -69.125 C 0,-31.484375 14.59375,0 43.015625,0 Z m 0,0"
       style="stroke:none" />
  </g>
  <g
     id="use99"
     transform="translate(1188.0349,334.48684)"
     style="fill:#000000;fill-opacity:1">
    <path
       id="path199"
       d=""
       style="stroke:none" />
  </g>
  <g
     id="use101"
     transform="translate(1176.0119,334.48684)"
     style="fill:#000000;fill-opacity:1">
    <path
       id="path203"
       d="M 20.484375,2.5625 C 29.1875,2.5625 35.84375,-4.09375 35.84375,-12.796875 35.84375,-21.5 29.1875,-28.15625 20.484375,-28.15625 11.78125,-28.15625 5.125,-21.5 5.125,-12.796875 5.125,-4.09375 11.78125,2.5625 20.484375,2.5625 Z m 0,0"
       style="stroke:none" />
  </g>
  <g
     id="use103"
     transform="translate(1216.965,334.48684)"
     style="fill:#000000;fill-opacity:1">
    <path
       id="path207"
       d="m 51.203125,-102.40625 -12.03125,23.8125 61.187505,53 H 93.703125 L 37.375,-74.5 0,0 h 121.59375 l 9.73437,-15.875 c 4.35938,-7.171875 4.35938,-13.3125 -3.07812,-19.703125 z m 0,0"
       style="stroke:none" />
  </g>
  <g
     id="use71"
     transform="translate(426.19116,334.48684)"
     style="fill:#000000;fill-opacity:1">
    <path
       id="path143"
       d="M 19.203125,0 H 30.71875 v -25.59375 h -5.125 v -192 L 0,-192 V 19.203125 Z m 0,0"
       style="stroke:none" />
  </g>
  <g
     transform="translate(218.40252,88.080589)"
     id="g1222">
    <rect
       style="fill:#aa0000;fill-opacity:1;stroke:none;stroke-width:1.11432;stroke-miterlimit:4;stroke-dasharray:none;stroke-opacity:1"
       id="rect1088"
       width="22.863489"
       height="22.863489"
       x="-745.68024"
       y="307.97107"
       transform="rotate(-135)" />
    <rect
       transform="rotate(-135)"
       y="330.90717"
       x="-768.61633"
       height="22.863489"
       width="22.863489"
       id="rect1090"
       style="fill:#aa0000;fill-opacity:1;stroke:none;stroke-width:1.11432;stroke-miterlimit:4;stroke-dasharray:none;stroke-opacity:1" />
  </g>
  <g
     id="g825"
     transform="matrix(0.46920393,-0.46723455,0.46723455,0.46920393,301.69365,640.34549)">
    <g
       id="g819"
       style="fill:#000000;fill-opacity:1;stroke-width:3.75;stroke-miterlimit:4;stroke-dasharray:none"
       transform="matrix(0.5831003,0,0,0.5831003,677.47993,230.96644)">
      <path
         id="path817"
         d="M 20.484375,2.5625 C 29.1875,2.5625 35.84375,-4.09375 35.84375,-12.796875 35.84375,-21.5 29.1875,-28.15625 20.484375,-28.15625 11.78125,-28.15625 5.125,-21.5 5.125,-12.796875 5.125,-4.09375 11.78125,2.5625 20.484375,2.5625 Z m 0,0"
         style="stroke:none;stroke-width:3.75;stroke-miterlimit:4;stroke-dasharray:none" />
    </g>
    <g
       transform="matrix(0.5831003,0,0,0.5831003,650.47993,230.96644)"
       style="fill:#000000;fill-opacity:1;stroke-width:3.75;stroke-miterlimit:4;stroke-dasharray:none"
       id="g823">
      <path
         style="stroke:none;stroke-width:3.75;stroke-miterlimit:4;stroke-dasharray:none"
         d="M 20.484375,2.5625 C 29.1875,2.5625 35.84375,-4.09375 35.84375,-12.796875 35.84375,-21.5 29.1875,-28.15625 20.484375,-28.15625 11.78125,-28.15625 5.125,-21.5 5.125,-12.796875 5.125,-4.09375 11.78125,2.5625 20.484375,2.5625 Z m 0,0"
         id="path821" />
    </g>
  </g>
  <g
     id="use79"
     transform="translate(590.01929,334.48684)"
     style="fill:#000000;fill-opacity:1">
    <path
       id="path159"
       d="M 30.71875,0 C 46.59375,0 58.109375,-11.78125 64,-25.59375 45.3125,-17.65625 25.59375,-20.484375 25.59375,-51.203125 V -217.59375 L 0,-192 V -38.40625 C 0,-17.921875 11.265625,0 30.71875,0 Z m 0,0"
       style="stroke:none" />
  </g>
  <path
     sodipodi:nodetypes="ccccc"
     id="path1633"
     d="m 800.511,342.37589 4.25104,5.28419 -19.49679,18.44283 -8.55341,-0.23771 z"
     style="fill:#ffeec5;fill-opacity:1;stroke:none;stroke-width:0.75px;stroke-linecap:butt;stroke-linejoin:miter;stroke-opacity:1" />
  <g
     id="g496"
     transform="matrix(0.01033566,0,0,0.01033566,97.777608,393.80309)"
     style="fill:#000000;fill-opacity:1;stroke-width:3.75;stroke-miterlimit:4;stroke-dasharray:none">
    <path
       d="m 2657.1168,1840 h 4020.6595 l 82,-140 H 2713.1168 c -64,0 -108,-6 -154,-52 l -62,-62 c -34,-34 -16,-128 12,-100 l 104,104 c 20,20 38,30 62,30 h 134 v -140 h -62 c -18,0 -28,-10 -36,-18 l -128,-128 c -100,-100 -188,198 -188,296 0,170 114,208 262,210 z"
       id="path833-6"
       sodipodi:nodetypes="cccssssssccssssc" />
    <path
       d="m 2769.1168,1620 h 280 v -140 c -44,0 -80,-36 -80,-80 v -320 l -160,40 v 360 h -40 z"
       id="path837-0" />
    <path
       d="m 3009.1168,1620 h 760 v -140 c -44,0 -80,-36 -80,-80 v -320 l -160,40 v 360 c -44,0 -80,-36 -80,-80 v -260 l -160,40 v 300 c -44,0 -80,-36 -80,-80 v -200 l -160,40 v 240 h -40 z"
       id="path839-1" />
    <path
       d="m 3729.1168,1620 h 678 l 82,-140 h -274 c -116,0 -238,-130 -360,-280 l -86,140 c 38,56 94,114 124,140 h -164 z"
       id="path841-4" />
    <path
       d=""
       id="path843-8" />
    <path
       d="m 4489.1168,1620 h 1200 v -140 h -86 c -30,-190 -146,-220 -222,-220 h -652 l 54,-140 h -6 l -160,280 h 744 c 44,0 80,36 80,80 h -872 z"
       id="path845-3" />
    <path
       d="m 5649.1168,1620 h 124 c 46,0 76,-30 76,-80 V 500 l -160,40 v 940 h -40 z"
       id="path847-8" />
    <path
       d="M 6089.1168,1460 V 500 l -160,40 v 1000 c 0,50 30,80 76,80 h 164 v -140 h -60 c -14,0 -20,-6 -20,-20 z"
       id="path849-1" />
    <path
       d="m 6567.1168,1294 94,-158 -34,-20 -94,158 z"
       id="path851-5" />
    <path
       d="m 6129.1168,1620 h 678 l 82,-140 h -274 c -116,0 -238,-130 -360,-280 l -86,140 c 38,56 94,114 124,140 h -164 z"
       id="path853-2" />
    <path
       style="fill:#000000;fill-opacity:1"
       d="m 2969.1168,1000 v -40 l -160,40 v 40 z"
       id="path887-2"
       sodipodi:nodetypes="ccccc" />
    <path
       id="path405"
       d="M 215.02177,912.08399 V 1620 H 356.60503 V 912.08399 Z"
       style="stroke-width:1.01131" />
    <path
       id="path407"
       d="M 680.22378,912.08399 V 1195.2504 H 579.09283 V 912.08399 H 437.50969 V 1620 H 1064.5211 V 1478.4168 H 579.09283 V 1336.8336 H 1064.5211 V 1195.2504 H 821.80697 V 1053.6672 H 1064.5211 V 912.08399 Z"
       style="stroke-width:1.01131" />
    <path
       id="path409"
       d="M 1388.14,912.08399 V 1195.2504 H 1287.009 V 912.08399 H 1145.4258 V 1620 h 627.0113 V 1478.4168 H 1287.009 v -141.5832 h 485.4281 V 1195.2504 H 1529.723 v -141.5832 h 242.7141 V 912.08399 Z"
       style="stroke-width:1.01131" />
    <path
       id="path411"
       d="M 2136.5082,912.08399 V 1096.1422 H 1994.925 V 912.08399 H 1853.3418 V 1620 h 141.5832 v -382.2746 h 283.1663 V 912.08399 Z"
       style="stroke-width:1.01131" />
  </g>
</svg>
