<?xml version="1.0" encoding="UTF-8" standalone="no"?>
<svg
   xmlns:dc="http://purl.org/dc/elements/1.1/"
   xmlns:cc="http://creativecommons.org/ns#"
   xmlns:rdf="http://www.w3.org/1999/02/22-rdf-syntax-ns#"
   xmlns:svg="http://www.w3.org/2000/svg"
   xmlns="http://www.w3.org/2000/svg"
   xmlns:sodipodi="http://sodipodi.sourceforge.net/DTD/sodipodi-0.dtd"
   xmlns:inkscape="http://www.inkscape.org/namespaces/inkscape"
   inkscape:export-ydpi="200"
   inkscape:export-xdpi="200"
   inkscape:export-filename="وليد.png"
   width="927.94128pt"
   height="412.33096pt"
   viewBox="0 0 927.94128 412.33096"
   version="1.1"
   id="svg96"
   sodipodi:docname="وليد.svg"
   inkscape:version="1.0.1 (c497b03c, 2020-09-10)">
  <metadata
     id="metadata100">
    <rdf:RDF>
      <cc:Work
         rdf:about="">
        <dc:format>image/svg+xml</dc:format>
        <dc:type
           rdf:resource="http://purl.org/dc/dcmitype/StillImage" />
        <dc:title />
      </cc:Work>
    </rdf:RDF>
  </metadata>
  <sodipodi:namedview
     fit-margin-bottom="35"
     fit-margin-right="50"
     fit-margin-left="50"
     lock-margins="false"
     fit-margin-top="50"
     inkscape:document-rotation="0"
     pagecolor="#feeec5"
     bordercolor="#666666"
     borderopacity="1"
     objecttolerance="10"
     gridtolerance="10"
     guidetolerance="10"
     inkscape:pageopacity="1"
     inkscape:pageshadow="2"
     inkscape:window-width="640"
     inkscape:window-height="480"
     id="namedview98"
     showgrid="false"
     inkscape:current-layer="use75" />
  <defs
     id="defs57" />
  <g
     id="g1094">
    <rect
       style="fill:#aa0000;fill-opacity:1;stroke:none;stroke-width:1.5;stroke-miterlimit:4;stroke-dasharray:none;stroke-opacity:1"
       id="rect1088"
       width="30.776709"
       height="30.776709"
       x="-582.27802"
       y="38.164261"
       transform="rotate(-135)" />
    <rect
       transform="rotate(-135)"
       y="69.038696"
       x="-613.15247"
       height="30.776709"
       width="30.776709"
       id="rect1090"
       style="fill:#aa0000;fill-opacity:1;stroke:none;stroke-width:1.5;stroke-miterlimit:4;stroke-dasharray:none;stroke-opacity:1" />
  </g>
  <g
     id="use63"
     style="fill:#000000;fill-opacity:1;stroke-width:3.75;stroke-miterlimit:4;stroke-dasharray:none"
     transform="translate(189.10048,296.82187)">
    <path
       id="path1031"
       d=""
       style="stroke:none;stroke-width:3.75;stroke-miterlimit:4;stroke-dasharray:none" />
  </g>
  <g
     id="use69"
     style="fill:#000000;fill-opacity:1;stroke-width:3.75;stroke-miterlimit:4;stroke-dasharray:none"
     transform="translate(300.95985,296.82187)">
    <path
       id="path1019"
       d=""
       style="stroke:none;stroke-width:3.75;stroke-miterlimit:4;stroke-dasharray:none" />
  </g>
  <g
     id="use73"
     style="fill:#000000;fill-opacity:1;stroke-width:3.75;stroke-miterlimit:4;stroke-dasharray:none"
     transform="translate(376.22548,296.82187)">
    <path
       id="path1011"
       d=""
       style="stroke:none;stroke-width:3.75;stroke-miterlimit:4;stroke-dasharray:none" />
  </g>
  <g
     id="use77"
     style="fill:#000000;fill-opacity:1;stroke-width:3.75;stroke-miterlimit:4;stroke-dasharray:none"
     transform="translate(521.1161,296.82187)">
    <path
       id="path1003"
       d=""
       style="stroke:none;stroke-width:3.75;stroke-miterlimit:4;stroke-dasharray:none" />
  </g>
  <g
     id="use85"
     style="fill:#000000;fill-opacity:1;stroke-width:3.75;stroke-miterlimit:4;stroke-dasharray:none"
     transform="translate(674.44423,296.82187)">
    <path
       id="path987"
       d=""
       style="stroke:none;stroke-width:3.75;stroke-miterlimit:4;stroke-dasharray:none" />
  </g>
  <g
     id="use87"
     style="fill:#000000;fill-opacity:1;stroke-width:3.75;stroke-miterlimit:4;stroke-dasharray:none"
     transform="translate(674.44423,296.82187)">
    <path
       id="path983"
       d=""
       style="stroke:none;stroke-width:3.75;stroke-miterlimit:4;stroke-dasharray:none" />
  </g>
  <g
     transform="translate(50.225485,50.415624)"
     id="g1000" />
  <g
     transform="translate(66.225485,296.82187)"
     style="fill:#000000;fill-opacity:1;stroke-width:3.75;stroke-miterlimit:4;stroke-dasharray:none"
     id="use61">
    <path
       sodipodi:nodetypes="csccsccssscc"
       style="stroke:none;stroke-width:3.75;stroke-miterlimit:4;stroke-dasharray:none"
       d="M 773.3015,5.125 H 73.46875 C 48.125,5.125 32,-3.578125 28.15625,-16.890625 h 5.125 C 38.90625,-5.375 53.765625,0 69.890625,0 c 19.96875,0 41.218755,-8.453125 47.875005,-23.046875 -9.48438,0 -14.59375,-3.328125 -24.32813,-15.359375 C 77.0625,-59.390625 62.46875,-68.09375 43.515625,-68.09375 18.4375,-68.09375 0,-50.171875 0,-25.59375 c 0,32.25 23.8125,56.3125 60.921875,56.3125 H 756.92186 Z"
       id="path1035" />
  </g>
  <g
     id="g1041"
     style="fill:none;fill-opacity:1;stroke:#feeec4;stroke-width:3.75;stroke-miterlimit:4;stroke-dasharray:none;stroke-opacity:1"
     transform="translate(189.10048,296.82187)">
    <path
       id="path1039"
       d="m 35.84375,-3.84375 c 4.34375,-4.09375 8.4375,-9.984375 -1.28125,-21.5 L 2.046875,-64 -10.75,-38.40625 15.109375,-7.6875 C 21.5,0 19.203125,4.609375 14.84375,8.703125 L -10.75,32 v 6.40625 z m 0,0"
       style="fill:none;stroke:#feeec4;stroke-width:3.75;stroke-miterlimit:4;stroke-dasharray:none;stroke-opacity:1" />
  </g>
  <g
     id="g1045"
     style="fill:none;fill-opacity:1;stroke:#feeec4;stroke-width:3.75;stroke-miterlimit:4;stroke-dasharray:none;stroke-opacity:1"
     transform="translate(230.5536,296.82187)">
    <path
       id="path1043"
       d="M 65.28125,-25.59375 32,-89.59375 -12.796875,-38.40625 31.75,5.375 c 7.15625,6.90625 5.375,10.234375 -0.515625,15.609375 L 19.203125,32 v 6.40625 L 61.4375,0 h 8.96875 v -25.59375 z m -36.359375,-12.8125 c -1.78125,0 -3.328125,-1.53125 -3.328125,-3.328125 0,-1.53125 1.546875,-3.0625 3.328125,-3.0625 1.546875,0 3.078125,1.53125 3.078125,3.0625 0,1.796875 -1.53125,3.328125 -3.078125,3.328125 z m 0,0"
       style="fill:none;stroke:#feeec4;stroke-width:3.75;stroke-miterlimit:4;stroke-dasharray:none;stroke-opacity:1" />
  </g>
  <g
     transform="translate(189.10048,296.82187)"
     style="fill:#000000;fill-opacity:1;stroke-width:3.75;stroke-miterlimit:4;stroke-dasharray:none"
     id="use65">
    <path
       style="stroke:none;stroke-width:3.75;stroke-miterlimit:4;stroke-dasharray:none"
       d="m 35.84375,-3.84375 c 4.34375,-4.09375 8.4375,-9.984375 -1.28125,-21.5 L 2.046875,-64 -10.75,-38.40625 15.109375,-7.6875 C 21.5,0 19.203125,4.609375 14.84375,8.703125 L -10.75,32 v 6.40625 z m 0,0"
       id="path1027" />
  </g>
  <g
     transform="translate(230.5536,296.82187)"
     style="fill:#000000;fill-opacity:1;stroke-width:3.75;stroke-miterlimit:4;stroke-dasharray:none"
     id="use67">
    <path
       style="stroke:none;stroke-width:3.75;stroke-miterlimit:4;stroke-dasharray:none"
       d="M 65.28125,-25.59375 32,-89.59375 -12.796875,-38.40625 31.75,5.375 c 7.15625,6.90625 5.375,10.234375 -0.515625,15.609375 L 19.203125,32 v 6.40625 L 61.4375,0 h 8.96875 v -25.59375 z m -36.359375,-12.8125 c -1.78125,0 -3.328125,-1.53125 -3.328125,-3.328125 0,-1.53125 1.546875,-3.0625 3.328125,-3.0625 1.546875,0 3.078125,1.53125 3.078125,3.0625 0,1.796875 -1.53125,3.328125 -3.078125,3.328125 z m 0,0"
       id="path1023" />
  </g>
  <g
     transform="translate(300.95985,296.82187)"
     style="fill:#000000;fill-opacity:1;stroke-width:3.75;stroke-miterlimit:4;stroke-dasharray:none"
     id="use71">
    <path
       style="stroke:none;stroke-width:3.75;stroke-miterlimit:4;stroke-dasharray:none"
       d="m 57.34375,0 11.015625,-19.203125 c 2.296875,-3.84375 2.296875,-8.4375 0.25,-12.796875 L 31.75,-115.20313 -25.859375,-64 26.625,-25.59375 H -12.796875 V 0 Z M 23.546875,-64 c -1.78125,0 -3.328125,-1.53125 -3.328125,-3.328125 0,-1.53125 1.546875,-3.078125 3.328125,-3.078125 1.546875,0 3.078125,1.546875 3.078125,3.078125 C 26.625,-65.53125 25.09375,-64 23.546875,-64 Z m 0,0"
       id="path1015" />
  </g>
  <g
     id="g1049"
     style="fill:none;fill-opacity:1;stroke:#feeec4;stroke-width:3.75;stroke-miterlimit:4;stroke-dasharray:none;stroke-opacity:1"
     transform="translate(376.22548,296.82187)">
    <path
       id="path1047"
       d="m 128.76562,-35.078125 c 0,-0.25 -0.25,-0.25 -0.51562,-0.5 l -77.046875,-66.828125 -12.03125,23.8125 61.187505,53 H 93.703125 L 37.375,-74.5 0,0 h 130.04687 l 16.125,19.203125 L 165.375,0 v -25.59375 h -25.59375 z m 0,0"
       style="fill:none;stroke:#feeec4;stroke-width:3.75;stroke-miterlimit:4;stroke-dasharray:none;stroke-opacity:1" />
  </g>
  <g
     transform="translate(376.22548,296.82187)"
     style="fill:#000000;fill-opacity:1;stroke-width:3.75;stroke-miterlimit:4;stroke-dasharray:none"
     id="use75">
    <path
       sodipodi:nodetypes="cccccccccccccc"
       style="stroke:none;stroke-width:3.75;stroke-miterlimit:4;stroke-dasharray:none"
       d="m 128.76562,-35.078125 c 0,-0.25 -0.25,-0.25 -0.51562,-0.5 L 51.203125,-102.40625 37.851385,-80.394419 100.35938,-25.59375 H 93.703125 L 35.454287,-76.180624 -11.580402,0 H 130.04687 l 16.125,19.203125 L 165.375,0 v -25.59375 h -25.59375 z"
       id="path1007" />
    <g
       id="g496"
       transform="matrix(0.01033566,0,0,0.01033566,-328.63537,72.518969)">
      <path
         d="m 2657.1168,1840 h 4020.6595 l 82,-140 H 2713.1168 c -64,0 -108,-6 -154,-52 l -62,-62 c -34,-34 -16,-128 12,-100 l 104,104 c 20,20 38,30 62,30 h 134 v -140 h -62 c -18,0 -28,-10 -36,-18 l -128,-128 c -100,-100 -188,198 -188,296 0,170 114,208 262,210 z"
         id="path833-6"
         sodipodi:nodetypes="cccssssssccssssc" />
      <path
         d="m 2769.1168,1620 h 280 v -140 c -44,0 -80,-36 -80,-80 v -320 l -160,40 v 360 h -40 z"
         id="path837-0" />
      <path
         d="m 3009.1168,1620 h 760 v -140 c -44,0 -80,-36 -80,-80 v -320 l -160,40 v 360 c -44,0 -80,-36 -80,-80 v -260 l -160,40 v 300 c -44,0 -80,-36 -80,-80 v -200 l -160,40 v 240 h -40 z"
         id="path839-1" />
      <path
         d="m 3729.1168,1620 h 678 l 82,-140 h -274 c -116,0 -238,-130 -360,-280 l -86,140 c 38,56 94,114 124,140 h -164 z"
         id="path841-4" />
      <path
         d=""
         id="path843-8" />
      <path
         d="m 4489.1168,1620 h 1200 v -140 h -86 c -30,-190 -146,-220 -222,-220 h -652 l 54,-140 h -6 l -160,280 h 744 c 44,0 80,36 80,80 h -872 z"
         id="path845-3" />
      <path
         d="m 5649.1168,1620 h 124 c 46,0 76,-30 76,-80 V 500 l -160,40 v 940 h -40 z"
         id="path847-8" />
      <path
         d="M 6089.1168,1460 V 500 l -160,40 v 1000 c 0,50 30,80 76,80 h 164 v -140 h -60 c -14,0 -20,-6 -20,-20 z"
         id="path849-1" />
      <path
         d="m 6567.1168,1294 94,-158 -34,-20 -94,158 z"
         id="path851-5" />
      <path
         d="m 6129.1168,1620 h 678 l 82,-140 h -274 c -116,0 -238,-130 -360,-280 l -86,140 c 38,56 94,114 124,140 h -164 z"
         id="path853-2" />
      <path
         style="fill:#000000;fill-opacity:1"
         d="m 2969.1168,1000 v -40 l -160,40 v 40 z"
         id="path887-2"
         sodipodi:nodetypes="ccccc" />
      <path
         id="path405"
         d="M 215.02177,912.08399 V 1620 H 356.60503 V 912.08399 Z"
         style="stroke-width:1.01131" />
      <path
         id="path407"
         d="M 680.22378,912.08399 V 1195.2504 H 579.09283 V 912.08399 H 437.50969 V 1620 H 1064.5211 V 1478.4168 H 579.09283 V 1336.8336 H 1064.5211 V 1195.2504 H 821.80697 V 1053.6672 H 1064.5211 V 912.08399 Z"
         style="stroke-width:1.01131" />
      <path
         id="path409"
         d="M 1388.14,912.08399 V 1195.2504 H 1287.009 V 912.08399 H 1145.4258 V 1620 h 627.0113 V 1478.4168 H 1287.009 v -141.5832 h 485.4281 V 1195.2504 H 1529.723 v -141.5832 h 242.7141 V 912.08399 Z"
         style="stroke-width:1.01131" />
      <path
         id="path411"
         d="M 2136.5082,912.08399 V 1096.1422 H 1994.925 V 912.08399 H 1853.3418 V 1620 h 141.5832 v -382.2746 h 283.1663 V 912.08399 Z"
         style="stroke-width:1.01131" />
    </g>
  </g>
  <g
     transform="translate(521.1161,296.82187)"
     style="fill:#000000;fill-opacity:1;stroke-width:3.75;stroke-miterlimit:4;stroke-dasharray:none"
     id="use79">
    <path
       style="stroke:none;stroke-width:3.75;stroke-miterlimit:4;stroke-dasharray:none"
       d="M -4.859375,-76.796875 -21.765625,-57.59375 0,-25.59375 H -12.796875 V 0 h 47.09375 v -25.59375 h -4.59375 z m 0,0"
       id="path999" />
  </g>
  <g
     transform="translate(555.41298,296.82187)"
     style="fill:#000000;fill-opacity:1;stroke-width:3.75;stroke-miterlimit:4;stroke-dasharray:none"
     id="use81">
    <path
       style="stroke:none;stroke-width:3.75;stroke-miterlimit:4;stroke-dasharray:none"
       d="M 0,-192 V -25.59375 H -12.796875 V 0 h 23.03125 C 18.6875,0 25.59375,-6.90625 25.59375,-15.359375 V -217.59375 Z m 0,0"
       id="path995" />
  </g>
  <g
     id="g1053"
     style="fill:none;fill-opacity:1;stroke:#feeec4;stroke-width:3.75;stroke-miterlimit:4;stroke-dasharray:none;stroke-opacity:1"
     transform="translate(598.9286,296.82187)">
    <path
       id="path1051"
       d="m 66.296875,-4.359375 c 5.125,-4.59375 4.875,-9.46875 2.3125,-14.578125 L 32,-89.59375 -12.796875,-38.40625 31.75,5.375 c 7.15625,6.90625 5.375,10.234375 -0.515625,15.609375 L 19.203125,32 v 6.40625 z m -37.375,-34.046875 c -1.78125,0 -3.328125,-1.53125 -3.328125,-3.328125 0,-1.53125 1.546875,-3.0625 3.328125,-3.0625 1.546875,0 3.078125,1.53125 3.078125,3.0625 0,1.796875 -1.53125,3.328125 -3.078125,3.328125 z m 0,0"
       style="fill:none;stroke:#feeec4;stroke-width:3.75;stroke-miterlimit:4;stroke-dasharray:none;stroke-opacity:1" />
  </g>
  <g
     transform="translate(598.9286,296.82187)"
     style="fill:#000000;fill-opacity:1;stroke-width:3.75;stroke-miterlimit:4;stroke-dasharray:none"
     id="use83">
    <path
       style="stroke:none;stroke-width:3.75;stroke-miterlimit:4;stroke-dasharray:none"
       d="m 66.296875,-4.359375 c 5.125,-4.59375 4.875,-9.46875 2.3125,-14.578125 L 32,-89.59375 -12.796875,-38.40625 31.75,5.375 c 7.15625,6.90625 5.375,10.234375 -0.515625,15.609375 L 19.203125,32 v 6.40625 z m -37.375,-34.046875 c -1.78125,0 -3.328125,-1.53125 -3.328125,-3.328125 0,-1.53125 1.546875,-3.0625 3.328125,-3.0625 1.546875,0 3.078125,1.53125 3.078125,3.0625 0,1.796875 -1.53125,3.328125 -3.078125,3.328125 z m 0,0"
       id="path991" />
  </g>
  <g
     transform="translate(679.56923,296.82187)"
     style="fill:#000000;fill-opacity:1;stroke-width:3.75;stroke-miterlimit:4;stroke-dasharray:none"
     id="use89">
    <path
       style="stroke:none;stroke-width:3.75;stroke-miterlimit:4;stroke-dasharray:none"
       d="M 20.484375,2.5625 C 29.1875,2.5625 35.84375,-4.09375 35.84375,-12.796875 35.84375,-21.5 29.1875,-28.15625 20.484375,-28.15625 11.78125,-28.15625 5.125,-21.5 5.125,-12.796875 5.125,-4.09375 11.78125,2.5625 20.484375,2.5625 Z m 0,0"
       id="path979" />
  </g>
  <g
     transform="translate(720.52235,296.82187)"
     style="fill:#000000;fill-opacity:1;stroke-width:3.75;stroke-miterlimit:4;stroke-dasharray:none"
     id="use91">
    <path
       style="stroke:none;stroke-width:3.75;stroke-miterlimit:4;stroke-dasharray:none"
       d="m 51.203125,-102.40625 -12.03125,23.8125 61.187505,53 H 93.703125 L 37.375,-74.5 0,0 h 121.59375 l 9.73437,-15.875 c 4.35938,-7.171875 4.35938,-13.3125 -3.07812,-19.703125 z m 0,0"
       id="path975" />
  </g>
  <g
     transform="translate(189.10048,296.82187)"
     style="fill:none;fill-opacity:1;stroke:#ff0000;stroke-width:3.75;stroke-miterlimit:4;stroke-dasharray:none;stroke-opacity:1"
     id="use136">
    <path
       style="stroke:none;stroke-width:3.75;stroke-miterlimit:4;stroke-dasharray:none"
       d="m 35.84375,-3.84375 c 4.34375,-4.09375 8.4375,-9.984375 -1.28125,-21.5 L 2.046875,-64 -10.75,-38.40625 15.109375,-7.6875 C 21.5,0 19.203125,4.609375 14.84375,8.703125 L -10.75,32 v 6.40625 z m 0,0"
       id="path971" />
  </g>
  <g
     transform="translate(230.5536,296.82187)"
     style="fill:none;fill-opacity:1;stroke:#ff0000;stroke-width:3.75;stroke-miterlimit:4;stroke-dasharray:none;stroke-opacity:1"
     id="use138">
    <path
       style="stroke:none;stroke-width:3.75;stroke-miterlimit:4;stroke-dasharray:none"
       d="M 65.28125,-25.59375 32,-89.59375 -12.796875,-38.40625 31.75,5.375 c 7.15625,6.90625 5.375,10.234375 -0.515625,15.609375 L 19.203125,32 v 6.40625 L 61.4375,0 h 8.96875 v -25.59375 z m -36.359375,-12.8125 c -1.78125,0 -3.328125,-1.53125 -3.328125,-3.328125 0,-1.53125 1.546875,-3.0625 3.328125,-3.0625 1.546875,0 3.078125,1.53125 3.078125,3.0625 0,1.796875 -1.53125,3.328125 -3.078125,3.328125 z m 0,0"
       id="path967" />
  </g>
  <g
     id="g1004"
     style="fill:#000000;fill-opacity:1;stroke-width:3.75;stroke-miterlimit:4;stroke-dasharray:none"
     transform="matrix(0.58310033,0,0,0.58310033,176.17844,200.66363)">
    <path
       id="path1002"
       d="M 20.484375,2.5625 C 29.1875,2.5625 35.84375,-4.09375 35.84375,-12.796875 35.84375,-21.5 29.1875,-28.15625 20.484375,-28.15625 11.78125,-28.15625 5.125,-21.5 5.125,-12.796875 5.125,-4.09375 11.78125,2.5625 20.484375,2.5625 Z m 0,0"
       style="stroke:none;stroke-width:3.75;stroke-miterlimit:4;stroke-dasharray:none" />
  </g>
  <g
     transform="matrix(0.58310033,0,0,0.58310033,272.1576,200.66363)"
     style="fill:#000000;fill-opacity:1;stroke-width:3.75;stroke-miterlimit:4;stroke-dasharray:none"
     id="g1008">
    <path
       style="stroke:none;stroke-width:3.75;stroke-miterlimit:4;stroke-dasharray:none"
       d="M 20.484375,2.5625 C 29.1875,2.5625 35.84375,-4.09375 35.84375,-12.796875 35.84375,-21.5 29.1875,-28.15625 20.484375,-28.15625 11.78125,-28.15625 5.125,-21.5 5.125,-12.796875 5.125,-4.09375 11.78125,2.5625 20.484375,2.5625 Z m 0,0"
       id="path1006" />
  </g>
  <rect
     y="50.75"
     x="50.75"
     height="312.20764"
     width="826.44128"
     id="rect1086"
     style="fill:none;fill-opacity:1;stroke:#aa0000;stroke-width:1.87500005;stroke-miterlimit:4;stroke-dasharray:none;stroke-opacity:1" />
</svg>
